M48
; DRILL file KiCad 10.0.5 date 2026-09-15T21:42:58
; FORMAT={-:-/ absolute / metric / decimal}
; #@! TF.CreationDate,2026-09-15T21:42:58+02:00
; #@! TF.GenerationSoftware,Kicad,Pcbnew,10.0.5
; #@! TF.FileFunction,Plated,1,4,PTH
FMAT,2
METRIC
; #@! TA.AperFunction,Plated,PTH,ViaDrill
T1C0.300
; #@! TA.AperFunction,Plated,PTH,ComponentDrill
T2C0.600
%
G90
G05
T1
X8.0Y-44.5
X8.0Y-48.5
X8.0Y-52.5
X8.0Y-56.5
X8.025Y-42.9
X8.025Y-58.125
X9.225Y-42.9
X9.225Y-58.125
X10.5Y-42.9
X10.5Y-58.125
X11.775Y-42.9
X11.775Y-58.125
X12.0Y-44.5
X12.0Y-48.5
X12.0Y-52.5
X13.05Y-42.9
X13.05Y-58.125
X13.35Y-51.975
X14.325Y-58.125
X15.6Y-58.125
X16.0Y-44.5
X16.0Y-48.5
X16.875Y-58.125
X18.15Y-58.125
X19.425Y-42.9
X19.425Y-44.4
X20.0Y-48.5
X20.55Y-54.55
X20.7Y-58.125
X21.8Y-57.3
X21.975Y-58.125
X22.6Y-57.6
X22.8Y-52.4
X23.23Y-58.125
X23.775Y-47.55
X23.925Y-49.275
X24.0Y-44.5
X24.45Y-57.1
X24.525Y-42.9
X24.6Y-48.6
X27.075Y-47.775
X27.075Y-48.75
X27.075Y-49.875
X27.075Y-51.0
X27.075Y-51.975
X27.075Y-53.25
X27.075Y-56.925
X28.0Y-55.45
X28.175Y-57.5
X29.05Y-57.45
X29.325Y-55.5
X29.7Y-49.3
X30.75Y-48.3
X30.975Y-54.6
X31.0Y-58.5
X31.5Y-51.1
X32.1Y-48.45
X32.25Y-50.625
X33.0Y-54.225
X33.0Y-56.5
X33.1Y-45.5
X33.75Y-53.4
X33.825Y-48.6
X34.65Y-42.375
X34.8Y-48.9
X34.8Y-54.3
X35.025Y-48.075
X35.2Y-59.1
X35.7Y-48.6
X35.7Y-50.625
X35.7Y-54.375
X36.2Y-44.25
X36.3Y-42.6
X37.275Y-44.625
X37.275Y-48.6
X37.3Y-50.6
X37.3Y-54.4
X38.25Y-46.125
X38.25Y-50.6
X39.0Y-43.9
X39.075Y-46.35
X39.2Y-50.6
X39.2Y-54.4
X39.3Y-58.575
X39.7Y-49.9
X39.825Y-42.15
X39.975Y-59.55
X40.2Y-57.225
X40.8Y-50.625
X40.95Y-43.875
X40.95Y-46.35
X41.325Y-49.2
X41.7Y-42.15
X41.75Y-50.55
X41.75Y-52.95
X41.85Y-48.45
X42.075Y-45.0
X42.65Y-50.65
X43.275Y-42.15
X43.4Y-53.5
X43.5Y-50.55
X44.025Y-57.75
X44.25Y-46.65
X44.25Y-48.6
X44.325Y-54.375
X44.35Y-55.25
X45.1Y-48.3
X45.15Y-42.375
X45.4Y-45.95
X46.1Y-53.0
X46.2Y-43.35
X46.2Y-45.675
X46.35Y-53.925
X47.15Y-51.55
X48.0Y-43.05
X48.0Y-45.975
X48.3Y-59.2
X48.375Y-53.025
X48.5Y-47.6
X49.275Y-43.05
X49.275Y-45.975
X49.275Y-53.025
X49.575Y-47.625
X50.85Y-56.55
X51.4Y-44.5
X51.4Y-58.5
X51.75Y-49.9
X52.125Y-45.0
X52.35Y-43.65
X52.425Y-54.9
X53.4Y-46.0
X53.925Y-50.925
X54.075Y-53.025
X54.075Y-56.7
X55.9Y-45.3
X56.475Y-54.75
X56.55Y-48.975
X56.85Y-53.4
X57.75Y-54.75
X57.9Y-48.6
X57.9Y-50.7
X58.9Y-48.6
X59.8Y-48.3
X60.7Y-46.8
X61.5Y-41.4
X62.0Y-45.5
X62.5Y-47.6
X62.8Y-45.0
X63.45Y-58.55
X64.0Y-0.5
X64.0Y-4.5
X64.0Y-8.5
X64.0Y-12.5
X64.3Y-58.55
X64.425Y-45.0
X64.65Y-46.875
X64.65Y-48.9
X65.0Y-43.6
X65.5Y-50.0
X66.3Y-49.6
X66.75Y-41.175
X67.0Y-47.1
X67.125Y-30.375
X67.2Y-53.4
X67.8Y-37.05
X68.0Y-0.5
X68.0Y-4.5
X68.0Y-8.5
X68.0Y-16.5
X68.0Y-20.5
X68.1Y-54.675
X68.45Y-58.55
X68.75Y-47.5
X68.775Y-46.5
X68.8Y-53.8
X68.85Y-17.55
X69.15Y-56.75
X69.2Y-41.0
X69.5Y-26.1
X69.65Y-55.2
X69.825Y-22.05
X69.9Y-27.6
X70.05Y-24.6
X70.2Y-18.1
X70.2Y-28.5
X70.2Y-30.525
X70.35Y-23.475
X70.35Y-37.125
X70.425Y-53.325
X70.5Y-15.225
X70.65Y-50.15
X70.875Y-40.725
X71.2Y-36.9
X71.3Y-13.6
X71.325Y-43.05
X71.325Y-49.65
X71.45Y-45.5
X71.7Y-41.1
X71.7Y-58.55
X71.775Y-7.575
X71.775Y-8.475
X71.775Y-33.525
X71.775Y-34.5
X71.775Y-35.475
X71.775Y-51.225
X71.775Y-52.95
X71.925Y-23.625
X71.925Y-27.45
X72.0Y-0.5
X72.0Y-4.5
X72.0Y-12.5
X72.0Y-30.9
X72.15Y-36.6
X72.225Y-45.525
X72.3Y-28.5
X72.5Y-23.0
X72.525Y-52.65
X73.0Y-49.1
X73.05Y-26.325
X73.1Y-45.6
X73.1Y-51.65
X73.2Y-14.1
X73.2Y-58.525
X73.275Y-30.525
X73.275Y-39.15
X73.275Y-41.1
X73.35Y-52.8
X73.4Y-55.4
X73.5Y-11.175
X73.8Y-36.2
X74.025Y-52.125
X74.1Y-8.475
X74.1Y-9.45
X74.1Y-33.525
X74.175Y-30.6
X74.25Y-16.125
X74.25Y-39.3
X74.25Y-55.2
X74.7Y-12.075
X74.775Y-14.1
X74.775Y-52.95
X74.85Y-37.2
X75.0Y-30.6
X75.0Y-40.5
X75.0Y-49.8
X75.0Y-52.125
X75.15Y-36.375
X75.225Y-55.2
X75.3Y-24.15
X75.75Y-52.95
X75.825Y-40.125
X75.9Y-19.65
X75.9Y-45.55
X75.95Y-47.6
X75.975Y-52.125
X76.0Y-0.5
X76.0Y-4.5
X76.0Y-24.5
X76.05Y-42.375
X76.125Y-30.45
X76.575Y-14.4
X76.65Y-16.35
X76.725Y-9.075
X76.8Y-32.1
X76.8Y-50.35
X77.0Y-26.9
X77.1Y-43.875
X77.1Y-46.5
X77.1Y-47.475
X77.1Y-56.0
X77.175Y-40.425
X77.4Y-49.75
X77.475Y-52.65
X77.7Y-34.8
X78.0Y-43.8
X78.075Y-24.3
X78.075Y-26.7
X78.075Y-40.5
X78.15Y-19.35
X78.2Y-49.5
X78.225Y-42.6
X78.225Y-52.95
X78.3Y-36.15
X78.825Y-38.7
X78.975Y-24.375
X78.975Y-26.85
X79.1Y-47.5
X79.2Y-17.55
X79.275Y-30.6
X79.425Y-21.9
X79.725Y-16.125
X79.95Y-29.775
X79.95Y-51.25
X80.0Y-0.5
X80.0Y-4.5
X80.0Y-12.5
X80.0Y-20.5
X80.0Y-24.5
X80.025Y-44.325
X80.025Y-48.375
X80.1Y-13.6
X80.1Y-34.2
X80.1Y-35.475
X80.25Y-38.775
X80.325Y-55.7
X80.8Y-44.0
X80.85Y-36.525
X81.0Y-24.4
X81.0Y-31.6
X81.0Y-38.325
X81.075Y-46.875
X81.1Y-48.25
X81.4Y-42.9
X81.45Y-17.325
X81.65Y-44.15
X81.75Y-36.6
X81.9Y-33.525
X81.9Y-34.8
X81.975Y-27.075
X81.975Y-48.375
X82.125Y-29.175
X82.2Y-53.85
X82.35Y-21.975
X82.35Y-38.475
X82.875Y-46.5
X82.95Y-24.375
X82.95Y-26.85
X82.95Y-29.4
X82.95Y-43.2
X82.95Y-50.4
X83.1Y-19.9
X83.175Y-14.625
X83.3Y-31.8
X83.5Y-45.15
X83.55Y-36.675
X83.7Y-38.55
X83.85Y-24.45
X84.0Y-0.5
X84.0Y-4.5
X84.0Y-8.5
X84.0Y-12.5
X84.0Y-20.325
X84.0Y-28.45
X84.0Y-56.5
X84.2Y-26.35
X84.3Y-34.2
X84.3Y-35.475
X84.3Y-41.1
X84.3Y-46.65
X84.75Y-45.825
X85.0Y-26.9
X85.275Y-41.475
X85.4Y-22.2
X85.4Y-29.3
X85.5Y-15.0
X85.575Y-33.525
X85.575Y-42.525
X85.65Y-57.675
X85.8Y-58.8
X85.95Y-19.35
X86.175Y-44.625
X86.3Y-22.2
X86.35Y-46.55
X86.45Y-47.4
X86.7Y-12.45
X86.925Y-24.375
X86.925Y-26.85
X87.4Y-16.5
X87.4Y-50.4
X87.6Y-32.5
X87.7Y-14.9
X87.9Y-19.5
X88.0Y-0.5
X88.0Y-4.5
X88.0Y-8.5
X88.0Y-40.5
X88.0Y-44.5
X88.0Y-48.5
X88.0Y-56.5
X88.25Y-16.4
X88.3Y-29.8
X89.25Y-13.125
X89.4Y-23.775
X89.4Y-24.75
X89.4Y-25.725
X89.4Y-26.775
X89.4Y-27.75
X89.4Y-28.725
X89.4Y-29.775
X89.4Y-30.75
X89.4Y-31.725
X89.4Y-33.225
X89.8Y-10.6
X89.8Y-17.0
X89.8Y-20.7
X90.525Y-18.15
X90.8Y-17.1
X90.9Y-29.25
X91.05Y-24.225
X91.05Y-25.275
X91.05Y-27.225
X91.05Y-30.225
X91.05Y-31.275
X91.05Y-34.725
X91.8Y-8.625
X92.0Y-0.5
X92.0Y-4.5
X92.0Y-12.5
X92.0Y-16.5
X92.0Y-20.5
X92.0Y-40.5
X92.0Y-44.5
X92.0Y-48.5
X92.0Y-52.5
X92.3Y-23.65
X96.0Y-4.5
X96.0Y-8.5
X96.0Y-12.5
X96.0Y-16.5
X96.0Y-20.5
X96.0Y-24.5
X96.0Y-28.5
X96.0Y-32.5
X96.0Y-36.5
X96.0Y-40.5
X96.0Y-44.5
X96.0Y-48.5
X96.0Y-52.5
X96.0Y-56.5
X97.6Y-18.6
X100.0Y-0.5
X100.0Y-4.5
X100.0Y-8.5
X100.0Y-12.5
X100.0Y-16.5
X100.0Y-20.5
X100.0Y-24.5
X100.0Y-28.5
X100.0Y-32.5
X100.0Y-36.5
X100.0Y-40.5
X100.0Y-44.5
X100.0Y-48.5
X100.0Y-52.5
X100.0Y-56.5
X101.625Y-12.9
X101.625Y-18.675
X101.625Y-47.7
X101.625Y-53.475
T2
X70.68Y-54.42G85X70.68Y-55.52
G05
X70.68Y-58.85G85X70.68Y-59.45
G05
X79.32Y-54.42G85X79.32Y-55.52
G05
X79.32Y-58.85G85X79.32Y-59.45
G05
M30
