%TF.GenerationSoftware,KiCad,Pcbnew,10.0.5*%
%TF.CreationDate,2026-09-19T23:41:32+02:00*%
%TF.ProjectId,cicala_rev_b,63696361-6c61-45f7-9265-765f622e6b69,B.05*%
%TF.SameCoordinates,Original*%
%TF.FileFunction,Drillmap*%
%TF.FilePolarity,Positive*%
%FSLAX45Y45*%
G04 Gerber Fmt 4.5, Leading zero omitted, Abs format (unit mm)*
G04 Created by KiCad (PCBNEW 10.0.5) date 2026-09-19 23:41:32*
%MOMM*%
%LPD*%
G01*
G04 APERTURE LIST*
%ADD10C,0.050000*%
%ADD11C,0.200000*%
%ADD12C,0.100000*%
%ADD13C,0.180000*%
%ADD14C,0.270000*%
G04 APERTURE END LIST*
D10*
X0Y-4050000D02*
X6200000Y-4050000D01*
X0Y-6050000D02*
X0Y-4050000D01*
X6300000Y150000D02*
X11300000Y150000D01*
X6300000Y-3950000D02*
G75*
G02*
X6200000Y-4050000I-100000J0D01*
G01*
X6300000Y-3950000D02*
X6300000Y150000D01*
X11300000Y150000D02*
X11300000Y-6050000D01*
X11300000Y-6050000D02*
X0Y-6050000D01*
D11*
D12*
X7178500Y-5517500D02*
X7243500Y-5582500D01*
X7243500Y-5517500D02*
X7178500Y-5582500D01*
X7756500Y-5517500D02*
X7821500Y-5582500D01*
X7821500Y-5517500D02*
X7756500Y-5582500D01*
X4595530Y-4450000D02*
G75*
G02*
X4496470Y-4450000I-49530J0D01*
G01*
X4496470Y-4450000D02*
G75*
G02*
X4595530Y-4450000I49530J0D01*
G01*
X5103530Y-4348400D02*
G75*
G02*
X5004470Y-4348400I-49530J0D01*
G01*
X5004470Y-4348400D02*
G75*
G02*
X5103530Y-4348400I49530J0D01*
G01*
X5103530Y-4551600D02*
G75*
G02*
X5004470Y-4551600I-49530J0D01*
G01*
X5004470Y-4551600D02*
G75*
G02*
X5103530Y-4551600I49530J0D01*
G01*
D13*
X10500000Y-860000D02*
X10500000Y-1040000D01*
X10410000Y-950000D02*
X10590000Y-950000D01*
X10500000Y-1760000D02*
X10500000Y-1940000D01*
X10410000Y-1850000D02*
X10590000Y-1850000D01*
X10500000Y-4340000D02*
X10500000Y-4520000D01*
X10410000Y-4430000D02*
X10590000Y-4430000D01*
X10500000Y-5240000D02*
X10500000Y-5420000D01*
X10410000Y-5330000D02*
X10590000Y-5330000D01*
D14*
X3795460Y-5915460D02*
X3795460Y-5724540D01*
X3604540Y-5724540D01*
X3604540Y-5915460D01*
X3795460Y-5915460D01*
X6695460Y-165460D02*
X6695460Y25460D01*
X6504540Y25460D01*
X6504540Y-165460D01*
X6695460Y-165460D01*
X9295460Y-5915460D02*
X9295460Y-5724540D01*
X9104540Y-5724540D01*
X9104540Y-5915460D01*
X9295460Y-5915460D01*
X9795460Y-165460D02*
X9795460Y25460D01*
X9604540Y25460D01*
X9604540Y-165460D01*
X9795460Y-165460D01*
D11*
X258277Y-6363984D02*
X258277Y-6163984D01*
X258277Y-6163984D02*
X305896Y-6163984D01*
X305896Y-6163984D02*
X334467Y-6173508D01*
X334467Y-6173508D02*
X353515Y-6192555D01*
X353515Y-6192555D02*
X363039Y-6211603D01*
X363039Y-6211603D02*
X372562Y-6249698D01*
X372562Y-6249698D02*
X372562Y-6278269D01*
X372562Y-6278269D02*
X363039Y-6316365D01*
X363039Y-6316365D02*
X353515Y-6335412D01*
X353515Y-6335412D02*
X334467Y-6354460D01*
X334467Y-6354460D02*
X305896Y-6363984D01*
X305896Y-6363984D02*
X258277Y-6363984D01*
X458277Y-6363984D02*
X458277Y-6230650D01*
X458277Y-6268746D02*
X467801Y-6249698D01*
X467801Y-6249698D02*
X477324Y-6240174D01*
X477324Y-6240174D02*
X496372Y-6230650D01*
X496372Y-6230650D02*
X515420Y-6230650D01*
X582086Y-6363984D02*
X582086Y-6230650D01*
X582086Y-6163984D02*
X572563Y-6173508D01*
X572563Y-6173508D02*
X582086Y-6183031D01*
X582086Y-6183031D02*
X591610Y-6173508D01*
X591610Y-6173508D02*
X582086Y-6163984D01*
X582086Y-6163984D02*
X582086Y-6183031D01*
X705896Y-6363984D02*
X686848Y-6354460D01*
X686848Y-6354460D02*
X677324Y-6335412D01*
X677324Y-6335412D02*
X677324Y-6163984D01*
X810658Y-6363984D02*
X791610Y-6354460D01*
X791610Y-6354460D02*
X782086Y-6335412D01*
X782086Y-6335412D02*
X782086Y-6163984D01*
X1039229Y-6363984D02*
X1039229Y-6163984D01*
X1039229Y-6163984D02*
X1105896Y-6306841D01*
X1105896Y-6306841D02*
X1172563Y-6163984D01*
X1172563Y-6163984D02*
X1172563Y-6363984D01*
X1353515Y-6363984D02*
X1353515Y-6259222D01*
X1353515Y-6259222D02*
X1343991Y-6240174D01*
X1343991Y-6240174D02*
X1324944Y-6230650D01*
X1324944Y-6230650D02*
X1286848Y-6230650D01*
X1286848Y-6230650D02*
X1267801Y-6240174D01*
X1353515Y-6354460D02*
X1334467Y-6363984D01*
X1334467Y-6363984D02*
X1286848Y-6363984D01*
X1286848Y-6363984D02*
X1267801Y-6354460D01*
X1267801Y-6354460D02*
X1258277Y-6335412D01*
X1258277Y-6335412D02*
X1258277Y-6316365D01*
X1258277Y-6316365D02*
X1267801Y-6297317D01*
X1267801Y-6297317D02*
X1286848Y-6287793D01*
X1286848Y-6287793D02*
X1334467Y-6287793D01*
X1334467Y-6287793D02*
X1353515Y-6278269D01*
X1448753Y-6230650D02*
X1448753Y-6430650D01*
X1448753Y-6240174D02*
X1467801Y-6230650D01*
X1467801Y-6230650D02*
X1505896Y-6230650D01*
X1505896Y-6230650D02*
X1524943Y-6240174D01*
X1524943Y-6240174D02*
X1534467Y-6249698D01*
X1534467Y-6249698D02*
X1543991Y-6268746D01*
X1543991Y-6268746D02*
X1543991Y-6325888D01*
X1543991Y-6325888D02*
X1534467Y-6344936D01*
X1534467Y-6344936D02*
X1524943Y-6354460D01*
X1524943Y-6354460D02*
X1505896Y-6363984D01*
X1505896Y-6363984D02*
X1467801Y-6363984D01*
X1467801Y-6363984D02*
X1448753Y-6354460D01*
X1629705Y-6344936D02*
X1639229Y-6354460D01*
X1639229Y-6354460D02*
X1629705Y-6363984D01*
X1629705Y-6363984D02*
X1620182Y-6354460D01*
X1620182Y-6354460D02*
X1629705Y-6344936D01*
X1629705Y-6344936D02*
X1629705Y-6363984D01*
X1629705Y-6240174D02*
X1639229Y-6249698D01*
X1639229Y-6249698D02*
X1629705Y-6259222D01*
X1629705Y-6259222D02*
X1620182Y-6249698D01*
X1620182Y-6249698D02*
X1629705Y-6240174D01*
X1629705Y-6240174D02*
X1629705Y-6259222D01*
D12*
X-67500Y-6660000D02*
X-2500Y-6725000D01*
X-2500Y-6660000D02*
X-67500Y-6725000D01*
D11*
X296372Y-6583984D02*
X315420Y-6583984D01*
X315420Y-6583984D02*
X334467Y-6593508D01*
X334467Y-6593508D02*
X343991Y-6603031D01*
X343991Y-6603031D02*
X353515Y-6622079D01*
X353515Y-6622079D02*
X363039Y-6660174D01*
X363039Y-6660174D02*
X363039Y-6707793D01*
X363039Y-6707793D02*
X353515Y-6745888D01*
X353515Y-6745888D02*
X343991Y-6764936D01*
X343991Y-6764936D02*
X334467Y-6774460D01*
X334467Y-6774460D02*
X315420Y-6783984D01*
X315420Y-6783984D02*
X296372Y-6783984D01*
X296372Y-6783984D02*
X277324Y-6774460D01*
X277324Y-6774460D02*
X267801Y-6764936D01*
X267801Y-6764936D02*
X258277Y-6745888D01*
X258277Y-6745888D02*
X248753Y-6707793D01*
X248753Y-6707793D02*
X248753Y-6660174D01*
X248753Y-6660174D02*
X258277Y-6622079D01*
X258277Y-6622079D02*
X267801Y-6603031D01*
X267801Y-6603031D02*
X277324Y-6593508D01*
X277324Y-6593508D02*
X296372Y-6583984D01*
X448753Y-6764936D02*
X458277Y-6774460D01*
X458277Y-6774460D02*
X448753Y-6783984D01*
X448753Y-6783984D02*
X439229Y-6774460D01*
X439229Y-6774460D02*
X448753Y-6764936D01*
X448753Y-6764936D02*
X448753Y-6783984D01*
X629705Y-6583984D02*
X591610Y-6583984D01*
X591610Y-6583984D02*
X572563Y-6593508D01*
X572563Y-6593508D02*
X563039Y-6603031D01*
X563039Y-6603031D02*
X543991Y-6631603D01*
X543991Y-6631603D02*
X534467Y-6669698D01*
X534467Y-6669698D02*
X534467Y-6745888D01*
X534467Y-6745888D02*
X543991Y-6764936D01*
X543991Y-6764936D02*
X553515Y-6774460D01*
X553515Y-6774460D02*
X572563Y-6783984D01*
X572563Y-6783984D02*
X610658Y-6783984D01*
X610658Y-6783984D02*
X629705Y-6774460D01*
X629705Y-6774460D02*
X639229Y-6764936D01*
X639229Y-6764936D02*
X648753Y-6745888D01*
X648753Y-6745888D02*
X648753Y-6698269D01*
X648753Y-6698269D02*
X639229Y-6679222D01*
X639229Y-6679222D02*
X629705Y-6669698D01*
X629705Y-6669698D02*
X610658Y-6660174D01*
X610658Y-6660174D02*
X572563Y-6660174D01*
X572563Y-6660174D02*
X553515Y-6669698D01*
X553515Y-6669698D02*
X543991Y-6679222D01*
X543991Y-6679222D02*
X534467Y-6698269D01*
X829705Y-6583984D02*
X734467Y-6583984D01*
X734467Y-6583984D02*
X724943Y-6679222D01*
X724943Y-6679222D02*
X734467Y-6669698D01*
X734467Y-6669698D02*
X753515Y-6660174D01*
X753515Y-6660174D02*
X801134Y-6660174D01*
X801134Y-6660174D02*
X820182Y-6669698D01*
X820182Y-6669698D02*
X829705Y-6679222D01*
X829705Y-6679222D02*
X839229Y-6698269D01*
X839229Y-6698269D02*
X839229Y-6745888D01*
X839229Y-6745888D02*
X829705Y-6764936D01*
X829705Y-6764936D02*
X820182Y-6774460D01*
X820182Y-6774460D02*
X801134Y-6783984D01*
X801134Y-6783984D02*
X753515Y-6783984D01*
X753515Y-6783984D02*
X734467Y-6774460D01*
X734467Y-6774460D02*
X724943Y-6764936D01*
X963039Y-6583984D02*
X982086Y-6583984D01*
X982086Y-6583984D02*
X1001134Y-6593508D01*
X1001134Y-6593508D02*
X1010658Y-6603031D01*
X1010658Y-6603031D02*
X1020182Y-6622079D01*
X1020182Y-6622079D02*
X1029705Y-6660174D01*
X1029705Y-6660174D02*
X1029705Y-6707793D01*
X1029705Y-6707793D02*
X1020182Y-6745888D01*
X1020182Y-6745888D02*
X1010658Y-6764936D01*
X1010658Y-6764936D02*
X1001134Y-6774460D01*
X1001134Y-6774460D02*
X982086Y-6783984D01*
X982086Y-6783984D02*
X963039Y-6783984D01*
X963039Y-6783984D02*
X943991Y-6774460D01*
X943991Y-6774460D02*
X934467Y-6764936D01*
X934467Y-6764936D02*
X924943Y-6745888D01*
X924943Y-6745888D02*
X915420Y-6707793D01*
X915420Y-6707793D02*
X915420Y-6660174D01*
X915420Y-6660174D02*
X924943Y-6622079D01*
X924943Y-6622079D02*
X934467Y-6603031D01*
X934467Y-6603031D02*
X943991Y-6593508D01*
X943991Y-6593508D02*
X963039Y-6583984D01*
X1115420Y-6783984D02*
X1115420Y-6650650D01*
X1115420Y-6669698D02*
X1124944Y-6660174D01*
X1124944Y-6660174D02*
X1143991Y-6650650D01*
X1143991Y-6650650D02*
X1172563Y-6650650D01*
X1172563Y-6650650D02*
X1191610Y-6660174D01*
X1191610Y-6660174D02*
X1201134Y-6679222D01*
X1201134Y-6679222D02*
X1201134Y-6783984D01*
X1201134Y-6679222D02*
X1210658Y-6660174D01*
X1210658Y-6660174D02*
X1229705Y-6650650D01*
X1229705Y-6650650D02*
X1258277Y-6650650D01*
X1258277Y-6650650D02*
X1277325Y-6660174D01*
X1277325Y-6660174D02*
X1286848Y-6679222D01*
X1286848Y-6679222D02*
X1286848Y-6783984D01*
X1382086Y-6783984D02*
X1382086Y-6650650D01*
X1382086Y-6669698D02*
X1391610Y-6660174D01*
X1391610Y-6660174D02*
X1410658Y-6650650D01*
X1410658Y-6650650D02*
X1439229Y-6650650D01*
X1439229Y-6650650D02*
X1458277Y-6660174D01*
X1458277Y-6660174D02*
X1467801Y-6679222D01*
X1467801Y-6679222D02*
X1467801Y-6783984D01*
X1467801Y-6679222D02*
X1477324Y-6660174D01*
X1477324Y-6660174D02*
X1496372Y-6650650D01*
X1496372Y-6650650D02*
X1524943Y-6650650D01*
X1524943Y-6650650D02*
X1543991Y-6660174D01*
X1543991Y-6660174D02*
X1553515Y-6679222D01*
X1553515Y-6679222D02*
X1553515Y-6783984D01*
X1943991Y-6574460D02*
X1772563Y-6831603D01*
X2201134Y-6583984D02*
X2220182Y-6583984D01*
X2220182Y-6583984D02*
X2239229Y-6593508D01*
X2239229Y-6593508D02*
X2248753Y-6603031D01*
X2248753Y-6603031D02*
X2258277Y-6622079D01*
X2258277Y-6622079D02*
X2267801Y-6660174D01*
X2267801Y-6660174D02*
X2267801Y-6707793D01*
X2267801Y-6707793D02*
X2258277Y-6745888D01*
X2258277Y-6745888D02*
X2248753Y-6764936D01*
X2248753Y-6764936D02*
X2239229Y-6774460D01*
X2239229Y-6774460D02*
X2220182Y-6783984D01*
X2220182Y-6783984D02*
X2201134Y-6783984D01*
X2201134Y-6783984D02*
X2182087Y-6774460D01*
X2182087Y-6774460D02*
X2172563Y-6764936D01*
X2172563Y-6764936D02*
X2163039Y-6745888D01*
X2163039Y-6745888D02*
X2153515Y-6707793D01*
X2153515Y-6707793D02*
X2153515Y-6660174D01*
X2153515Y-6660174D02*
X2163039Y-6622079D01*
X2163039Y-6622079D02*
X2172563Y-6603031D01*
X2172563Y-6603031D02*
X2182087Y-6593508D01*
X2182087Y-6593508D02*
X2201134Y-6583984D01*
X2353515Y-6764936D02*
X2363039Y-6774460D01*
X2363039Y-6774460D02*
X2353515Y-6783984D01*
X2353515Y-6783984D02*
X2343991Y-6774460D01*
X2343991Y-6774460D02*
X2353515Y-6764936D01*
X2353515Y-6764936D02*
X2353515Y-6783984D01*
X2486848Y-6583984D02*
X2505896Y-6583984D01*
X2505896Y-6583984D02*
X2524944Y-6593508D01*
X2524944Y-6593508D02*
X2534468Y-6603031D01*
X2534468Y-6603031D02*
X2543991Y-6622079D01*
X2543991Y-6622079D02*
X2553515Y-6660174D01*
X2553515Y-6660174D02*
X2553515Y-6707793D01*
X2553515Y-6707793D02*
X2543991Y-6745888D01*
X2543991Y-6745888D02*
X2534468Y-6764936D01*
X2534468Y-6764936D02*
X2524944Y-6774460D01*
X2524944Y-6774460D02*
X2505896Y-6783984D01*
X2505896Y-6783984D02*
X2486848Y-6783984D01*
X2486848Y-6783984D02*
X2467801Y-6774460D01*
X2467801Y-6774460D02*
X2458277Y-6764936D01*
X2458277Y-6764936D02*
X2448753Y-6745888D01*
X2448753Y-6745888D02*
X2439229Y-6707793D01*
X2439229Y-6707793D02*
X2439229Y-6660174D01*
X2439229Y-6660174D02*
X2448753Y-6622079D01*
X2448753Y-6622079D02*
X2458277Y-6603031D01*
X2458277Y-6603031D02*
X2467801Y-6593508D01*
X2467801Y-6593508D02*
X2486848Y-6583984D01*
X2629706Y-6603031D02*
X2639229Y-6593508D01*
X2639229Y-6593508D02*
X2658277Y-6583984D01*
X2658277Y-6583984D02*
X2705896Y-6583984D01*
X2705896Y-6583984D02*
X2724944Y-6593508D01*
X2724944Y-6593508D02*
X2734468Y-6603031D01*
X2734468Y-6603031D02*
X2743991Y-6622079D01*
X2743991Y-6622079D02*
X2743991Y-6641127D01*
X2743991Y-6641127D02*
X2734468Y-6669698D01*
X2734468Y-6669698D02*
X2620182Y-6783984D01*
X2620182Y-6783984D02*
X2743991Y-6783984D01*
X2924944Y-6583984D02*
X2829706Y-6583984D01*
X2829706Y-6583984D02*
X2820182Y-6679222D01*
X2820182Y-6679222D02*
X2829706Y-6669698D01*
X2829706Y-6669698D02*
X2848753Y-6660174D01*
X2848753Y-6660174D02*
X2896372Y-6660174D01*
X2896372Y-6660174D02*
X2915420Y-6669698D01*
X2915420Y-6669698D02*
X2924944Y-6679222D01*
X2924944Y-6679222D02*
X2934467Y-6698269D01*
X2934467Y-6698269D02*
X2934467Y-6745888D01*
X2934467Y-6745888D02*
X2924944Y-6764936D01*
X2924944Y-6764936D02*
X2915420Y-6774460D01*
X2915420Y-6774460D02*
X2896372Y-6783984D01*
X2896372Y-6783984D02*
X2848753Y-6783984D01*
X2848753Y-6783984D02*
X2829706Y-6774460D01*
X2829706Y-6774460D02*
X2820182Y-6764936D01*
X3105896Y-6583984D02*
X3067801Y-6583984D01*
X3067801Y-6583984D02*
X3048753Y-6593508D01*
X3048753Y-6593508D02*
X3039229Y-6603031D01*
X3039229Y-6603031D02*
X3020182Y-6631603D01*
X3020182Y-6631603D02*
X3010658Y-6669698D01*
X3010658Y-6669698D02*
X3010658Y-6745888D01*
X3010658Y-6745888D02*
X3020182Y-6764936D01*
X3020182Y-6764936D02*
X3029706Y-6774460D01*
X3029706Y-6774460D02*
X3048753Y-6783984D01*
X3048753Y-6783984D02*
X3086848Y-6783984D01*
X3086848Y-6783984D02*
X3105896Y-6774460D01*
X3105896Y-6774460D02*
X3115420Y-6764936D01*
X3115420Y-6764936D02*
X3124944Y-6745888D01*
X3124944Y-6745888D02*
X3124944Y-6698269D01*
X3124944Y-6698269D02*
X3115420Y-6679222D01*
X3115420Y-6679222D02*
X3105896Y-6669698D01*
X3105896Y-6669698D02*
X3086848Y-6660174D01*
X3086848Y-6660174D02*
X3048753Y-6660174D01*
X3048753Y-6660174D02*
X3029706Y-6669698D01*
X3029706Y-6669698D02*
X3020182Y-6679222D01*
X3020182Y-6679222D02*
X3010658Y-6698269D01*
X3201134Y-6583984D02*
X3201134Y-6622079D01*
X3277325Y-6583984D02*
X3277325Y-6622079D01*
X3572563Y-6860174D02*
X3563039Y-6850650D01*
X3563039Y-6850650D02*
X3543991Y-6822079D01*
X3543991Y-6822079D02*
X3534468Y-6803031D01*
X3534468Y-6803031D02*
X3524944Y-6774460D01*
X3524944Y-6774460D02*
X3515420Y-6726841D01*
X3515420Y-6726841D02*
X3515420Y-6688746D01*
X3515420Y-6688746D02*
X3524944Y-6641127D01*
X3524944Y-6641127D02*
X3534468Y-6612555D01*
X3534468Y-6612555D02*
X3543991Y-6593508D01*
X3543991Y-6593508D02*
X3563039Y-6564936D01*
X3563039Y-6564936D02*
X3572563Y-6555412D01*
X3639229Y-6603031D02*
X3648753Y-6593508D01*
X3648753Y-6593508D02*
X3667801Y-6583984D01*
X3667801Y-6583984D02*
X3715420Y-6583984D01*
X3715420Y-6583984D02*
X3734468Y-6593508D01*
X3734468Y-6593508D02*
X3743991Y-6603031D01*
X3743991Y-6603031D02*
X3753515Y-6622079D01*
X3753515Y-6622079D02*
X3753515Y-6641127D01*
X3753515Y-6641127D02*
X3743991Y-6669698D01*
X3743991Y-6669698D02*
X3629706Y-6783984D01*
X3629706Y-6783984D02*
X3753515Y-6783984D01*
X3991610Y-6783984D02*
X3991610Y-6583984D01*
X4077325Y-6783984D02*
X4077325Y-6679222D01*
X4077325Y-6679222D02*
X4067801Y-6660174D01*
X4067801Y-6660174D02*
X4048753Y-6650650D01*
X4048753Y-6650650D02*
X4020182Y-6650650D01*
X4020182Y-6650650D02*
X4001134Y-6660174D01*
X4001134Y-6660174D02*
X3991610Y-6669698D01*
X4201134Y-6783984D02*
X4182087Y-6774460D01*
X4182087Y-6774460D02*
X4172563Y-6764936D01*
X4172563Y-6764936D02*
X4163039Y-6745888D01*
X4163039Y-6745888D02*
X4163039Y-6688746D01*
X4163039Y-6688746D02*
X4172563Y-6669698D01*
X4172563Y-6669698D02*
X4182087Y-6660174D01*
X4182087Y-6660174D02*
X4201134Y-6650650D01*
X4201134Y-6650650D02*
X4229706Y-6650650D01*
X4229706Y-6650650D02*
X4248753Y-6660174D01*
X4248753Y-6660174D02*
X4258277Y-6669698D01*
X4258277Y-6669698D02*
X4267801Y-6688746D01*
X4267801Y-6688746D02*
X4267801Y-6745888D01*
X4267801Y-6745888D02*
X4258277Y-6764936D01*
X4258277Y-6764936D02*
X4248753Y-6774460D01*
X4248753Y-6774460D02*
X4229706Y-6783984D01*
X4229706Y-6783984D02*
X4201134Y-6783984D01*
X4382087Y-6783984D02*
X4363039Y-6774460D01*
X4363039Y-6774460D02*
X4353515Y-6755412D01*
X4353515Y-6755412D02*
X4353515Y-6583984D01*
X4534468Y-6774460D02*
X4515420Y-6783984D01*
X4515420Y-6783984D02*
X4477325Y-6783984D01*
X4477325Y-6783984D02*
X4458277Y-6774460D01*
X4458277Y-6774460D02*
X4448753Y-6755412D01*
X4448753Y-6755412D02*
X4448753Y-6679222D01*
X4448753Y-6679222D02*
X4458277Y-6660174D01*
X4458277Y-6660174D02*
X4477325Y-6650650D01*
X4477325Y-6650650D02*
X4515420Y-6650650D01*
X4515420Y-6650650D02*
X4534468Y-6660174D01*
X4534468Y-6660174D02*
X4543992Y-6679222D01*
X4543992Y-6679222D02*
X4543992Y-6698269D01*
X4543992Y-6698269D02*
X4448753Y-6717317D01*
X4620182Y-6774460D02*
X4639230Y-6783984D01*
X4639230Y-6783984D02*
X4677325Y-6783984D01*
X4677325Y-6783984D02*
X4696373Y-6774460D01*
X4696373Y-6774460D02*
X4705896Y-6755412D01*
X4705896Y-6755412D02*
X4705896Y-6745888D01*
X4705896Y-6745888D02*
X4696373Y-6726841D01*
X4696373Y-6726841D02*
X4677325Y-6717317D01*
X4677325Y-6717317D02*
X4648753Y-6717317D01*
X4648753Y-6717317D02*
X4629706Y-6707793D01*
X4629706Y-6707793D02*
X4620182Y-6688746D01*
X4620182Y-6688746D02*
X4620182Y-6679222D01*
X4620182Y-6679222D02*
X4629706Y-6660174D01*
X4629706Y-6660174D02*
X4648753Y-6650650D01*
X4648753Y-6650650D02*
X4677325Y-6650650D01*
X4677325Y-6650650D02*
X4696373Y-6660174D01*
X4772563Y-6860174D02*
X4782087Y-6850650D01*
X4782087Y-6850650D02*
X4801134Y-6822079D01*
X4801134Y-6822079D02*
X4810658Y-6803031D01*
X4810658Y-6803031D02*
X4820182Y-6774460D01*
X4820182Y-6774460D02*
X4829706Y-6726841D01*
X4829706Y-6726841D02*
X4829706Y-6688746D01*
X4829706Y-6688746D02*
X4820182Y-6641127D01*
X4820182Y-6641127D02*
X4810658Y-6612555D01*
X4810658Y-6612555D02*
X4801134Y-6593508D01*
X4801134Y-6593508D02*
X4782087Y-6564936D01*
X4782087Y-6564936D02*
X4772563Y-6555412D01*
X5134468Y-6860174D02*
X5124944Y-6850650D01*
X5124944Y-6850650D02*
X5105896Y-6822079D01*
X5105896Y-6822079D02*
X5096373Y-6803031D01*
X5096373Y-6803031D02*
X5086849Y-6774460D01*
X5086849Y-6774460D02*
X5077325Y-6726841D01*
X5077325Y-6726841D02*
X5077325Y-6688746D01*
X5077325Y-6688746D02*
X5086849Y-6641127D01*
X5086849Y-6641127D02*
X5096373Y-6612555D01*
X5096373Y-6612555D02*
X5105896Y-6593508D01*
X5105896Y-6593508D02*
X5124944Y-6564936D01*
X5124944Y-6564936D02*
X5134468Y-6555412D01*
X5210658Y-6650650D02*
X5210658Y-6783984D01*
X5210658Y-6669698D02*
X5220182Y-6660174D01*
X5220182Y-6660174D02*
X5239230Y-6650650D01*
X5239230Y-6650650D02*
X5267801Y-6650650D01*
X5267801Y-6650650D02*
X5286849Y-6660174D01*
X5286849Y-6660174D02*
X5296373Y-6679222D01*
X5296373Y-6679222D02*
X5296373Y-6783984D01*
X5420182Y-6783984D02*
X5401134Y-6774460D01*
X5401134Y-6774460D02*
X5391611Y-6764936D01*
X5391611Y-6764936D02*
X5382087Y-6745888D01*
X5382087Y-6745888D02*
X5382087Y-6688746D01*
X5382087Y-6688746D02*
X5391611Y-6669698D01*
X5391611Y-6669698D02*
X5401134Y-6660174D01*
X5401134Y-6660174D02*
X5420182Y-6650650D01*
X5420182Y-6650650D02*
X5448754Y-6650650D01*
X5448754Y-6650650D02*
X5467801Y-6660174D01*
X5467801Y-6660174D02*
X5477325Y-6669698D01*
X5477325Y-6669698D02*
X5486849Y-6688746D01*
X5486849Y-6688746D02*
X5486849Y-6745888D01*
X5486849Y-6745888D02*
X5477325Y-6764936D01*
X5477325Y-6764936D02*
X5467801Y-6774460D01*
X5467801Y-6774460D02*
X5448754Y-6783984D01*
X5448754Y-6783984D02*
X5420182Y-6783984D01*
X5543992Y-6650650D02*
X5620182Y-6650650D01*
X5572563Y-6583984D02*
X5572563Y-6755412D01*
X5572563Y-6755412D02*
X5582087Y-6774460D01*
X5582087Y-6774460D02*
X5601134Y-6783984D01*
X5601134Y-6783984D02*
X5620182Y-6783984D01*
X5839230Y-6650650D02*
X5839230Y-6850650D01*
X5839230Y-6660174D02*
X5858277Y-6650650D01*
X5858277Y-6650650D02*
X5896373Y-6650650D01*
X5896373Y-6650650D02*
X5915420Y-6660174D01*
X5915420Y-6660174D02*
X5924944Y-6669698D01*
X5924944Y-6669698D02*
X5934468Y-6688746D01*
X5934468Y-6688746D02*
X5934468Y-6745888D01*
X5934468Y-6745888D02*
X5924944Y-6764936D01*
X5924944Y-6764936D02*
X5915420Y-6774460D01*
X5915420Y-6774460D02*
X5896373Y-6783984D01*
X5896373Y-6783984D02*
X5858277Y-6783984D01*
X5858277Y-6783984D02*
X5839230Y-6774460D01*
X6048753Y-6783984D02*
X6029706Y-6774460D01*
X6029706Y-6774460D02*
X6020182Y-6755412D01*
X6020182Y-6755412D02*
X6020182Y-6583984D01*
X6210658Y-6783984D02*
X6210658Y-6679222D01*
X6210658Y-6679222D02*
X6201134Y-6660174D01*
X6201134Y-6660174D02*
X6182087Y-6650650D01*
X6182087Y-6650650D02*
X6143992Y-6650650D01*
X6143992Y-6650650D02*
X6124944Y-6660174D01*
X6210658Y-6774460D02*
X6191611Y-6783984D01*
X6191611Y-6783984D02*
X6143992Y-6783984D01*
X6143992Y-6783984D02*
X6124944Y-6774460D01*
X6124944Y-6774460D02*
X6115420Y-6755412D01*
X6115420Y-6755412D02*
X6115420Y-6736365D01*
X6115420Y-6736365D02*
X6124944Y-6717317D01*
X6124944Y-6717317D02*
X6143992Y-6707793D01*
X6143992Y-6707793D02*
X6191611Y-6707793D01*
X6191611Y-6707793D02*
X6210658Y-6698269D01*
X6277325Y-6650650D02*
X6353515Y-6650650D01*
X6305896Y-6583984D02*
X6305896Y-6755412D01*
X6305896Y-6755412D02*
X6315420Y-6774460D01*
X6315420Y-6774460D02*
X6334468Y-6783984D01*
X6334468Y-6783984D02*
X6353515Y-6783984D01*
X6496373Y-6774460D02*
X6477325Y-6783984D01*
X6477325Y-6783984D02*
X6439230Y-6783984D01*
X6439230Y-6783984D02*
X6420182Y-6774460D01*
X6420182Y-6774460D02*
X6410658Y-6755412D01*
X6410658Y-6755412D02*
X6410658Y-6679222D01*
X6410658Y-6679222D02*
X6420182Y-6660174D01*
X6420182Y-6660174D02*
X6439230Y-6650650D01*
X6439230Y-6650650D02*
X6477325Y-6650650D01*
X6477325Y-6650650D02*
X6496373Y-6660174D01*
X6496373Y-6660174D02*
X6505896Y-6679222D01*
X6505896Y-6679222D02*
X6505896Y-6698269D01*
X6505896Y-6698269D02*
X6410658Y-6717317D01*
X6677325Y-6783984D02*
X6677325Y-6583984D01*
X6677325Y-6774460D02*
X6658277Y-6783984D01*
X6658277Y-6783984D02*
X6620182Y-6783984D01*
X6620182Y-6783984D02*
X6601134Y-6774460D01*
X6601134Y-6774460D02*
X6591611Y-6764936D01*
X6591611Y-6764936D02*
X6582087Y-6745888D01*
X6582087Y-6745888D02*
X6582087Y-6688746D01*
X6582087Y-6688746D02*
X6591611Y-6669698D01*
X6591611Y-6669698D02*
X6601134Y-6660174D01*
X6601134Y-6660174D02*
X6620182Y-6650650D01*
X6620182Y-6650650D02*
X6658277Y-6650650D01*
X6658277Y-6650650D02*
X6677325Y-6660174D01*
X6753515Y-6860174D02*
X6763039Y-6850650D01*
X6763039Y-6850650D02*
X6782087Y-6822079D01*
X6782087Y-6822079D02*
X6791611Y-6803031D01*
X6791611Y-6803031D02*
X6801134Y-6774460D01*
X6801134Y-6774460D02*
X6810658Y-6726841D01*
X6810658Y-6726841D02*
X6810658Y-6688746D01*
X6810658Y-6688746D02*
X6801134Y-6641127D01*
X6801134Y-6641127D02*
X6791611Y-6612555D01*
X6791611Y-6612555D02*
X6782087Y-6593508D01*
X6782087Y-6593508D02*
X6763039Y-6564936D01*
X6763039Y-6564936D02*
X6753515Y-6555412D01*
D12*
X-2500Y-6956500D02*
G75*
G02*
X-101560Y-6956500I-49530J0D01*
G01*
X-101560Y-6956500D02*
G75*
G02*
X-2500Y-6956500I49530J0D01*
G01*
D11*
X296372Y-6847984D02*
X315420Y-6847984D01*
X315420Y-6847984D02*
X334467Y-6857508D01*
X334467Y-6857508D02*
X343991Y-6867031D01*
X343991Y-6867031D02*
X353515Y-6886079D01*
X353515Y-6886079D02*
X363039Y-6924174D01*
X363039Y-6924174D02*
X363039Y-6971793D01*
X363039Y-6971793D02*
X353515Y-7009888D01*
X353515Y-7009888D02*
X343991Y-7028936D01*
X343991Y-7028936D02*
X334467Y-7038460D01*
X334467Y-7038460D02*
X315420Y-7047984D01*
X315420Y-7047984D02*
X296372Y-7047984D01*
X296372Y-7047984D02*
X277324Y-7038460D01*
X277324Y-7038460D02*
X267801Y-7028936D01*
X267801Y-7028936D02*
X258277Y-7009888D01*
X258277Y-7009888D02*
X248753Y-6971793D01*
X248753Y-6971793D02*
X248753Y-6924174D01*
X248753Y-6924174D02*
X258277Y-6886079D01*
X258277Y-6886079D02*
X267801Y-6867031D01*
X267801Y-6867031D02*
X277324Y-6857508D01*
X277324Y-6857508D02*
X296372Y-6847984D01*
X448753Y-7028936D02*
X458277Y-7038460D01*
X458277Y-7038460D02*
X448753Y-7047984D01*
X448753Y-7047984D02*
X439229Y-7038460D01*
X439229Y-7038460D02*
X448753Y-7028936D01*
X448753Y-7028936D02*
X448753Y-7047984D01*
X553515Y-7047984D02*
X591610Y-7047984D01*
X591610Y-7047984D02*
X610658Y-7038460D01*
X610658Y-7038460D02*
X620182Y-7028936D01*
X620182Y-7028936D02*
X639229Y-7000365D01*
X639229Y-7000365D02*
X648753Y-6962269D01*
X648753Y-6962269D02*
X648753Y-6886079D01*
X648753Y-6886079D02*
X639229Y-6867031D01*
X639229Y-6867031D02*
X629705Y-6857508D01*
X629705Y-6857508D02*
X610658Y-6847984D01*
X610658Y-6847984D02*
X572563Y-6847984D01*
X572563Y-6847984D02*
X553515Y-6857508D01*
X553515Y-6857508D02*
X543991Y-6867031D01*
X543991Y-6867031D02*
X534467Y-6886079D01*
X534467Y-6886079D02*
X534467Y-6933698D01*
X534467Y-6933698D02*
X543991Y-6952746D01*
X543991Y-6952746D02*
X553515Y-6962269D01*
X553515Y-6962269D02*
X572563Y-6971793D01*
X572563Y-6971793D02*
X610658Y-6971793D01*
X610658Y-6971793D02*
X629705Y-6962269D01*
X629705Y-6962269D02*
X639229Y-6952746D01*
X639229Y-6952746D02*
X648753Y-6933698D01*
X743991Y-7047984D02*
X782086Y-7047984D01*
X782086Y-7047984D02*
X801134Y-7038460D01*
X801134Y-7038460D02*
X810658Y-7028936D01*
X810658Y-7028936D02*
X829705Y-7000365D01*
X829705Y-7000365D02*
X839229Y-6962269D01*
X839229Y-6962269D02*
X839229Y-6886079D01*
X839229Y-6886079D02*
X829705Y-6867031D01*
X829705Y-6867031D02*
X820182Y-6857508D01*
X820182Y-6857508D02*
X801134Y-6847984D01*
X801134Y-6847984D02*
X763039Y-6847984D01*
X763039Y-6847984D02*
X743991Y-6857508D01*
X743991Y-6857508D02*
X734467Y-6867031D01*
X734467Y-6867031D02*
X724943Y-6886079D01*
X724943Y-6886079D02*
X724943Y-6933698D01*
X724943Y-6933698D02*
X734467Y-6952746D01*
X734467Y-6952746D02*
X743991Y-6962269D01*
X743991Y-6962269D02*
X763039Y-6971793D01*
X763039Y-6971793D02*
X801134Y-6971793D01*
X801134Y-6971793D02*
X820182Y-6962269D01*
X820182Y-6962269D02*
X829705Y-6952746D01*
X829705Y-6952746D02*
X839229Y-6933698D01*
X1029705Y-7047984D02*
X915420Y-7047984D01*
X972562Y-7047984D02*
X972562Y-6847984D01*
X972562Y-6847984D02*
X953515Y-6876555D01*
X953515Y-6876555D02*
X934467Y-6895603D01*
X934467Y-6895603D02*
X915420Y-6905127D01*
X1115420Y-7047984D02*
X1115420Y-6914650D01*
X1115420Y-6933698D02*
X1124944Y-6924174D01*
X1124944Y-6924174D02*
X1143991Y-6914650D01*
X1143991Y-6914650D02*
X1172563Y-6914650D01*
X1172563Y-6914650D02*
X1191610Y-6924174D01*
X1191610Y-6924174D02*
X1201134Y-6943222D01*
X1201134Y-6943222D02*
X1201134Y-7047984D01*
X1201134Y-6943222D02*
X1210658Y-6924174D01*
X1210658Y-6924174D02*
X1229705Y-6914650D01*
X1229705Y-6914650D02*
X1258277Y-6914650D01*
X1258277Y-6914650D02*
X1277325Y-6924174D01*
X1277325Y-6924174D02*
X1286848Y-6943222D01*
X1286848Y-6943222D02*
X1286848Y-7047984D01*
X1382086Y-7047984D02*
X1382086Y-6914650D01*
X1382086Y-6933698D02*
X1391610Y-6924174D01*
X1391610Y-6924174D02*
X1410658Y-6914650D01*
X1410658Y-6914650D02*
X1439229Y-6914650D01*
X1439229Y-6914650D02*
X1458277Y-6924174D01*
X1458277Y-6924174D02*
X1467801Y-6943222D01*
X1467801Y-6943222D02*
X1467801Y-7047984D01*
X1467801Y-6943222D02*
X1477324Y-6924174D01*
X1477324Y-6924174D02*
X1496372Y-6914650D01*
X1496372Y-6914650D02*
X1524943Y-6914650D01*
X1524943Y-6914650D02*
X1543991Y-6924174D01*
X1543991Y-6924174D02*
X1553515Y-6943222D01*
X1553515Y-6943222D02*
X1553515Y-7047984D01*
X1943991Y-6838460D02*
X1772563Y-7095603D01*
X2201134Y-6847984D02*
X2220182Y-6847984D01*
X2220182Y-6847984D02*
X2239229Y-6857508D01*
X2239229Y-6857508D02*
X2248753Y-6867031D01*
X2248753Y-6867031D02*
X2258277Y-6886079D01*
X2258277Y-6886079D02*
X2267801Y-6924174D01*
X2267801Y-6924174D02*
X2267801Y-6971793D01*
X2267801Y-6971793D02*
X2258277Y-7009888D01*
X2258277Y-7009888D02*
X2248753Y-7028936D01*
X2248753Y-7028936D02*
X2239229Y-7038460D01*
X2239229Y-7038460D02*
X2220182Y-7047984D01*
X2220182Y-7047984D02*
X2201134Y-7047984D01*
X2201134Y-7047984D02*
X2182087Y-7038460D01*
X2182087Y-7038460D02*
X2172563Y-7028936D01*
X2172563Y-7028936D02*
X2163039Y-7009888D01*
X2163039Y-7009888D02*
X2153515Y-6971793D01*
X2153515Y-6971793D02*
X2153515Y-6924174D01*
X2153515Y-6924174D02*
X2163039Y-6886079D01*
X2163039Y-6886079D02*
X2172563Y-6867031D01*
X2172563Y-6867031D02*
X2182087Y-6857508D01*
X2182087Y-6857508D02*
X2201134Y-6847984D01*
X2353515Y-7028936D02*
X2363039Y-7038460D01*
X2363039Y-7038460D02*
X2353515Y-7047984D01*
X2353515Y-7047984D02*
X2343991Y-7038460D01*
X2343991Y-7038460D02*
X2353515Y-7028936D01*
X2353515Y-7028936D02*
X2353515Y-7047984D01*
X2486848Y-6847984D02*
X2505896Y-6847984D01*
X2505896Y-6847984D02*
X2524944Y-6857508D01*
X2524944Y-6857508D02*
X2534468Y-6867031D01*
X2534468Y-6867031D02*
X2543991Y-6886079D01*
X2543991Y-6886079D02*
X2553515Y-6924174D01*
X2553515Y-6924174D02*
X2553515Y-6971793D01*
X2553515Y-6971793D02*
X2543991Y-7009888D01*
X2543991Y-7009888D02*
X2534468Y-7028936D01*
X2534468Y-7028936D02*
X2524944Y-7038460D01*
X2524944Y-7038460D02*
X2505896Y-7047984D01*
X2505896Y-7047984D02*
X2486848Y-7047984D01*
X2486848Y-7047984D02*
X2467801Y-7038460D01*
X2467801Y-7038460D02*
X2458277Y-7028936D01*
X2458277Y-7028936D02*
X2448753Y-7009888D01*
X2448753Y-7009888D02*
X2439229Y-6971793D01*
X2439229Y-6971793D02*
X2439229Y-6924174D01*
X2439229Y-6924174D02*
X2448753Y-6886079D01*
X2448753Y-6886079D02*
X2458277Y-6867031D01*
X2458277Y-6867031D02*
X2467801Y-6857508D01*
X2467801Y-6857508D02*
X2486848Y-6847984D01*
X2620182Y-6847984D02*
X2743991Y-6847984D01*
X2743991Y-6847984D02*
X2677325Y-6924174D01*
X2677325Y-6924174D02*
X2705896Y-6924174D01*
X2705896Y-6924174D02*
X2724944Y-6933698D01*
X2724944Y-6933698D02*
X2734468Y-6943222D01*
X2734468Y-6943222D02*
X2743991Y-6962269D01*
X2743991Y-6962269D02*
X2743991Y-7009888D01*
X2743991Y-7009888D02*
X2734468Y-7028936D01*
X2734468Y-7028936D02*
X2724944Y-7038460D01*
X2724944Y-7038460D02*
X2705896Y-7047984D01*
X2705896Y-7047984D02*
X2648753Y-7047984D01*
X2648753Y-7047984D02*
X2629706Y-7038460D01*
X2629706Y-7038460D02*
X2620182Y-7028936D01*
X2839229Y-7047984D02*
X2877325Y-7047984D01*
X2877325Y-7047984D02*
X2896372Y-7038460D01*
X2896372Y-7038460D02*
X2905896Y-7028936D01*
X2905896Y-7028936D02*
X2924944Y-7000365D01*
X2924944Y-7000365D02*
X2934467Y-6962269D01*
X2934467Y-6962269D02*
X2934467Y-6886079D01*
X2934467Y-6886079D02*
X2924944Y-6867031D01*
X2924944Y-6867031D02*
X2915420Y-6857508D01*
X2915420Y-6857508D02*
X2896372Y-6847984D01*
X2896372Y-6847984D02*
X2858277Y-6847984D01*
X2858277Y-6847984D02*
X2839229Y-6857508D01*
X2839229Y-6857508D02*
X2829706Y-6867031D01*
X2829706Y-6867031D02*
X2820182Y-6886079D01*
X2820182Y-6886079D02*
X2820182Y-6933698D01*
X2820182Y-6933698D02*
X2829706Y-6952746D01*
X2829706Y-6952746D02*
X2839229Y-6962269D01*
X2839229Y-6962269D02*
X2858277Y-6971793D01*
X2858277Y-6971793D02*
X2896372Y-6971793D01*
X2896372Y-6971793D02*
X2915420Y-6962269D01*
X2915420Y-6962269D02*
X2924944Y-6952746D01*
X2924944Y-6952746D02*
X2934467Y-6933698D01*
X3058277Y-6847984D02*
X3077325Y-6847984D01*
X3077325Y-6847984D02*
X3096372Y-6857508D01*
X3096372Y-6857508D02*
X3105896Y-6867031D01*
X3105896Y-6867031D02*
X3115420Y-6886079D01*
X3115420Y-6886079D02*
X3124944Y-6924174D01*
X3124944Y-6924174D02*
X3124944Y-6971793D01*
X3124944Y-6971793D02*
X3115420Y-7009888D01*
X3115420Y-7009888D02*
X3105896Y-7028936D01*
X3105896Y-7028936D02*
X3096372Y-7038460D01*
X3096372Y-7038460D02*
X3077325Y-7047984D01*
X3077325Y-7047984D02*
X3058277Y-7047984D01*
X3058277Y-7047984D02*
X3039229Y-7038460D01*
X3039229Y-7038460D02*
X3029706Y-7028936D01*
X3029706Y-7028936D02*
X3020182Y-7009888D01*
X3020182Y-7009888D02*
X3010658Y-6971793D01*
X3010658Y-6971793D02*
X3010658Y-6924174D01*
X3010658Y-6924174D02*
X3020182Y-6886079D01*
X3020182Y-6886079D02*
X3029706Y-6867031D01*
X3029706Y-6867031D02*
X3039229Y-6857508D01*
X3039229Y-6857508D02*
X3058277Y-6847984D01*
X3201134Y-6847984D02*
X3201134Y-6886079D01*
X3277325Y-6847984D02*
X3277325Y-6886079D01*
X3572563Y-7124174D02*
X3563039Y-7114650D01*
X3563039Y-7114650D02*
X3543991Y-7086079D01*
X3543991Y-7086079D02*
X3534468Y-7067031D01*
X3534468Y-7067031D02*
X3524944Y-7038460D01*
X3524944Y-7038460D02*
X3515420Y-6990841D01*
X3515420Y-6990841D02*
X3515420Y-6952746D01*
X3515420Y-6952746D02*
X3524944Y-6905127D01*
X3524944Y-6905127D02*
X3534468Y-6876555D01*
X3534468Y-6876555D02*
X3543991Y-6857508D01*
X3543991Y-6857508D02*
X3563039Y-6828936D01*
X3563039Y-6828936D02*
X3572563Y-6819412D01*
X3629706Y-6847984D02*
X3753515Y-6847984D01*
X3753515Y-6847984D02*
X3686848Y-6924174D01*
X3686848Y-6924174D02*
X3715420Y-6924174D01*
X3715420Y-6924174D02*
X3734468Y-6933698D01*
X3734468Y-6933698D02*
X3743991Y-6943222D01*
X3743991Y-6943222D02*
X3753515Y-6962269D01*
X3753515Y-6962269D02*
X3753515Y-7009888D01*
X3753515Y-7009888D02*
X3743991Y-7028936D01*
X3743991Y-7028936D02*
X3734468Y-7038460D01*
X3734468Y-7038460D02*
X3715420Y-7047984D01*
X3715420Y-7047984D02*
X3658277Y-7047984D01*
X3658277Y-7047984D02*
X3639229Y-7038460D01*
X3639229Y-7038460D02*
X3629706Y-7028936D01*
X3991610Y-7047984D02*
X3991610Y-6847984D01*
X4077325Y-7047984D02*
X4077325Y-6943222D01*
X4077325Y-6943222D02*
X4067801Y-6924174D01*
X4067801Y-6924174D02*
X4048753Y-6914650D01*
X4048753Y-6914650D02*
X4020182Y-6914650D01*
X4020182Y-6914650D02*
X4001134Y-6924174D01*
X4001134Y-6924174D02*
X3991610Y-6933698D01*
X4201134Y-7047984D02*
X4182087Y-7038460D01*
X4182087Y-7038460D02*
X4172563Y-7028936D01*
X4172563Y-7028936D02*
X4163039Y-7009888D01*
X4163039Y-7009888D02*
X4163039Y-6952746D01*
X4163039Y-6952746D02*
X4172563Y-6933698D01*
X4172563Y-6933698D02*
X4182087Y-6924174D01*
X4182087Y-6924174D02*
X4201134Y-6914650D01*
X4201134Y-6914650D02*
X4229706Y-6914650D01*
X4229706Y-6914650D02*
X4248753Y-6924174D01*
X4248753Y-6924174D02*
X4258277Y-6933698D01*
X4258277Y-6933698D02*
X4267801Y-6952746D01*
X4267801Y-6952746D02*
X4267801Y-7009888D01*
X4267801Y-7009888D02*
X4258277Y-7028936D01*
X4258277Y-7028936D02*
X4248753Y-7038460D01*
X4248753Y-7038460D02*
X4229706Y-7047984D01*
X4229706Y-7047984D02*
X4201134Y-7047984D01*
X4382087Y-7047984D02*
X4363039Y-7038460D01*
X4363039Y-7038460D02*
X4353515Y-7019412D01*
X4353515Y-7019412D02*
X4353515Y-6847984D01*
X4534468Y-7038460D02*
X4515420Y-7047984D01*
X4515420Y-7047984D02*
X4477325Y-7047984D01*
X4477325Y-7047984D02*
X4458277Y-7038460D01*
X4458277Y-7038460D02*
X4448753Y-7019412D01*
X4448753Y-7019412D02*
X4448753Y-6943222D01*
X4448753Y-6943222D02*
X4458277Y-6924174D01*
X4458277Y-6924174D02*
X4477325Y-6914650D01*
X4477325Y-6914650D02*
X4515420Y-6914650D01*
X4515420Y-6914650D02*
X4534468Y-6924174D01*
X4534468Y-6924174D02*
X4543992Y-6943222D01*
X4543992Y-6943222D02*
X4543992Y-6962269D01*
X4543992Y-6962269D02*
X4448753Y-6981317D01*
X4620182Y-7038460D02*
X4639230Y-7047984D01*
X4639230Y-7047984D02*
X4677325Y-7047984D01*
X4677325Y-7047984D02*
X4696373Y-7038460D01*
X4696373Y-7038460D02*
X4705896Y-7019412D01*
X4705896Y-7019412D02*
X4705896Y-7009888D01*
X4705896Y-7009888D02*
X4696373Y-6990841D01*
X4696373Y-6990841D02*
X4677325Y-6981317D01*
X4677325Y-6981317D02*
X4648753Y-6981317D01*
X4648753Y-6981317D02*
X4629706Y-6971793D01*
X4629706Y-6971793D02*
X4620182Y-6952746D01*
X4620182Y-6952746D02*
X4620182Y-6943222D01*
X4620182Y-6943222D02*
X4629706Y-6924174D01*
X4629706Y-6924174D02*
X4648753Y-6914650D01*
X4648753Y-6914650D02*
X4677325Y-6914650D01*
X4677325Y-6914650D02*
X4696373Y-6924174D01*
X4772563Y-7124174D02*
X4782087Y-7114650D01*
X4782087Y-7114650D02*
X4801134Y-7086079D01*
X4801134Y-7086079D02*
X4810658Y-7067031D01*
X4810658Y-7067031D02*
X4820182Y-7038460D01*
X4820182Y-7038460D02*
X4829706Y-6990841D01*
X4829706Y-6990841D02*
X4829706Y-6952746D01*
X4829706Y-6952746D02*
X4820182Y-6905127D01*
X4820182Y-6905127D02*
X4810658Y-6876555D01*
X4810658Y-6876555D02*
X4801134Y-6857508D01*
X4801134Y-6857508D02*
X4782087Y-6828936D01*
X4782087Y-6828936D02*
X4772563Y-6819412D01*
X5134468Y-7124174D02*
X5124944Y-7114650D01*
X5124944Y-7114650D02*
X5105896Y-7086079D01*
X5105896Y-7086079D02*
X5096373Y-7067031D01*
X5096373Y-7067031D02*
X5086849Y-7038460D01*
X5086849Y-7038460D02*
X5077325Y-6990841D01*
X5077325Y-6990841D02*
X5077325Y-6952746D01*
X5077325Y-6952746D02*
X5086849Y-6905127D01*
X5086849Y-6905127D02*
X5096373Y-6876555D01*
X5096373Y-6876555D02*
X5105896Y-6857508D01*
X5105896Y-6857508D02*
X5124944Y-6828936D01*
X5124944Y-6828936D02*
X5134468Y-6819412D01*
X5210658Y-6914650D02*
X5210658Y-7047984D01*
X5210658Y-6933698D02*
X5220182Y-6924174D01*
X5220182Y-6924174D02*
X5239230Y-6914650D01*
X5239230Y-6914650D02*
X5267801Y-6914650D01*
X5267801Y-6914650D02*
X5286849Y-6924174D01*
X5286849Y-6924174D02*
X5296373Y-6943222D01*
X5296373Y-6943222D02*
X5296373Y-7047984D01*
X5420182Y-7047984D02*
X5401134Y-7038460D01*
X5401134Y-7038460D02*
X5391611Y-7028936D01*
X5391611Y-7028936D02*
X5382087Y-7009888D01*
X5382087Y-7009888D02*
X5382087Y-6952746D01*
X5382087Y-6952746D02*
X5391611Y-6933698D01*
X5391611Y-6933698D02*
X5401134Y-6924174D01*
X5401134Y-6924174D02*
X5420182Y-6914650D01*
X5420182Y-6914650D02*
X5448754Y-6914650D01*
X5448754Y-6914650D02*
X5467801Y-6924174D01*
X5467801Y-6924174D02*
X5477325Y-6933698D01*
X5477325Y-6933698D02*
X5486849Y-6952746D01*
X5486849Y-6952746D02*
X5486849Y-7009888D01*
X5486849Y-7009888D02*
X5477325Y-7028936D01*
X5477325Y-7028936D02*
X5467801Y-7038460D01*
X5467801Y-7038460D02*
X5448754Y-7047984D01*
X5448754Y-7047984D02*
X5420182Y-7047984D01*
X5543992Y-6914650D02*
X5620182Y-6914650D01*
X5572563Y-6847984D02*
X5572563Y-7019412D01*
X5572563Y-7019412D02*
X5582087Y-7038460D01*
X5582087Y-7038460D02*
X5601134Y-7047984D01*
X5601134Y-7047984D02*
X5620182Y-7047984D01*
X5839230Y-6914650D02*
X5839230Y-7114650D01*
X5839230Y-6924174D02*
X5858277Y-6914650D01*
X5858277Y-6914650D02*
X5896373Y-6914650D01*
X5896373Y-6914650D02*
X5915420Y-6924174D01*
X5915420Y-6924174D02*
X5924944Y-6933698D01*
X5924944Y-6933698D02*
X5934468Y-6952746D01*
X5934468Y-6952746D02*
X5934468Y-7009888D01*
X5934468Y-7009888D02*
X5924944Y-7028936D01*
X5924944Y-7028936D02*
X5915420Y-7038460D01*
X5915420Y-7038460D02*
X5896373Y-7047984D01*
X5896373Y-7047984D02*
X5858277Y-7047984D01*
X5858277Y-7047984D02*
X5839230Y-7038460D01*
X6048753Y-7047984D02*
X6029706Y-7038460D01*
X6029706Y-7038460D02*
X6020182Y-7019412D01*
X6020182Y-7019412D02*
X6020182Y-6847984D01*
X6210658Y-7047984D02*
X6210658Y-6943222D01*
X6210658Y-6943222D02*
X6201134Y-6924174D01*
X6201134Y-6924174D02*
X6182087Y-6914650D01*
X6182087Y-6914650D02*
X6143992Y-6914650D01*
X6143992Y-6914650D02*
X6124944Y-6924174D01*
X6210658Y-7038460D02*
X6191611Y-7047984D01*
X6191611Y-7047984D02*
X6143992Y-7047984D01*
X6143992Y-7047984D02*
X6124944Y-7038460D01*
X6124944Y-7038460D02*
X6115420Y-7019412D01*
X6115420Y-7019412D02*
X6115420Y-7000365D01*
X6115420Y-7000365D02*
X6124944Y-6981317D01*
X6124944Y-6981317D02*
X6143992Y-6971793D01*
X6143992Y-6971793D02*
X6191611Y-6971793D01*
X6191611Y-6971793D02*
X6210658Y-6962269D01*
X6277325Y-6914650D02*
X6353515Y-6914650D01*
X6305896Y-6847984D02*
X6305896Y-7019412D01*
X6305896Y-7019412D02*
X6315420Y-7038460D01*
X6315420Y-7038460D02*
X6334468Y-7047984D01*
X6334468Y-7047984D02*
X6353515Y-7047984D01*
X6496373Y-7038460D02*
X6477325Y-7047984D01*
X6477325Y-7047984D02*
X6439230Y-7047984D01*
X6439230Y-7047984D02*
X6420182Y-7038460D01*
X6420182Y-7038460D02*
X6410658Y-7019412D01*
X6410658Y-7019412D02*
X6410658Y-6943222D01*
X6410658Y-6943222D02*
X6420182Y-6924174D01*
X6420182Y-6924174D02*
X6439230Y-6914650D01*
X6439230Y-6914650D02*
X6477325Y-6914650D01*
X6477325Y-6914650D02*
X6496373Y-6924174D01*
X6496373Y-6924174D02*
X6505896Y-6943222D01*
X6505896Y-6943222D02*
X6505896Y-6962269D01*
X6505896Y-6962269D02*
X6410658Y-6981317D01*
X6677325Y-7047984D02*
X6677325Y-6847984D01*
X6677325Y-7038460D02*
X6658277Y-7047984D01*
X6658277Y-7047984D02*
X6620182Y-7047984D01*
X6620182Y-7047984D02*
X6601134Y-7038460D01*
X6601134Y-7038460D02*
X6591611Y-7028936D01*
X6591611Y-7028936D02*
X6582087Y-7009888D01*
X6582087Y-7009888D02*
X6582087Y-6952746D01*
X6582087Y-6952746D02*
X6591611Y-6933698D01*
X6591611Y-6933698D02*
X6601134Y-6924174D01*
X6601134Y-6924174D02*
X6620182Y-6914650D01*
X6620182Y-6914650D02*
X6658277Y-6914650D01*
X6658277Y-6914650D02*
X6677325Y-6924174D01*
X6753515Y-7124174D02*
X6763039Y-7114650D01*
X6763039Y-7114650D02*
X6782087Y-7086079D01*
X6782087Y-7086079D02*
X6791611Y-7067031D01*
X6791611Y-7067031D02*
X6801134Y-7038460D01*
X6801134Y-7038460D02*
X6810658Y-6990841D01*
X6810658Y-6990841D02*
X6810658Y-6952746D01*
X6810658Y-6952746D02*
X6801134Y-6905127D01*
X6801134Y-6905127D02*
X6791611Y-6876555D01*
X6791611Y-6876555D02*
X6782087Y-6857508D01*
X6782087Y-6857508D02*
X6763039Y-6828936D01*
X6763039Y-6828936D02*
X6753515Y-6819412D01*
D13*
X-92500Y-7130500D02*
X-92500Y-7310500D01*
X-182500Y-7220500D02*
X-2500Y-7220500D01*
D11*
X363039Y-7311984D02*
X248753Y-7311984D01*
X305896Y-7311984D02*
X305896Y-7111984D01*
X305896Y-7111984D02*
X286848Y-7140555D01*
X286848Y-7140555D02*
X267801Y-7159603D01*
X267801Y-7159603D02*
X248753Y-7169127D01*
X448753Y-7292936D02*
X458277Y-7302460D01*
X458277Y-7302460D02*
X448753Y-7311984D01*
X448753Y-7311984D02*
X439229Y-7302460D01*
X439229Y-7302460D02*
X448753Y-7292936D01*
X448753Y-7292936D02*
X448753Y-7311984D01*
X572563Y-7197698D02*
X553515Y-7188174D01*
X553515Y-7188174D02*
X543991Y-7178650D01*
X543991Y-7178650D02*
X534467Y-7159603D01*
X534467Y-7159603D02*
X534467Y-7150079D01*
X534467Y-7150079D02*
X543991Y-7131031D01*
X543991Y-7131031D02*
X553515Y-7121508D01*
X553515Y-7121508D02*
X572563Y-7111984D01*
X572563Y-7111984D02*
X610658Y-7111984D01*
X610658Y-7111984D02*
X629705Y-7121508D01*
X629705Y-7121508D02*
X639229Y-7131031D01*
X639229Y-7131031D02*
X648753Y-7150079D01*
X648753Y-7150079D02*
X648753Y-7159603D01*
X648753Y-7159603D02*
X639229Y-7178650D01*
X639229Y-7178650D02*
X629705Y-7188174D01*
X629705Y-7188174D02*
X610658Y-7197698D01*
X610658Y-7197698D02*
X572563Y-7197698D01*
X572563Y-7197698D02*
X553515Y-7207222D01*
X553515Y-7207222D02*
X543991Y-7216746D01*
X543991Y-7216746D02*
X534467Y-7235793D01*
X534467Y-7235793D02*
X534467Y-7273888D01*
X534467Y-7273888D02*
X543991Y-7292936D01*
X543991Y-7292936D02*
X553515Y-7302460D01*
X553515Y-7302460D02*
X572563Y-7311984D01*
X572563Y-7311984D02*
X610658Y-7311984D01*
X610658Y-7311984D02*
X629705Y-7302460D01*
X629705Y-7302460D02*
X639229Y-7292936D01*
X639229Y-7292936D02*
X648753Y-7273888D01*
X648753Y-7273888D02*
X648753Y-7235793D01*
X648753Y-7235793D02*
X639229Y-7216746D01*
X639229Y-7216746D02*
X629705Y-7207222D01*
X629705Y-7207222D02*
X610658Y-7197698D01*
X772562Y-7111984D02*
X791610Y-7111984D01*
X791610Y-7111984D02*
X810658Y-7121508D01*
X810658Y-7121508D02*
X820182Y-7131031D01*
X820182Y-7131031D02*
X829705Y-7150079D01*
X829705Y-7150079D02*
X839229Y-7188174D01*
X839229Y-7188174D02*
X839229Y-7235793D01*
X839229Y-7235793D02*
X829705Y-7273888D01*
X829705Y-7273888D02*
X820182Y-7292936D01*
X820182Y-7292936D02*
X810658Y-7302460D01*
X810658Y-7302460D02*
X791610Y-7311984D01*
X791610Y-7311984D02*
X772562Y-7311984D01*
X772562Y-7311984D02*
X753515Y-7302460D01*
X753515Y-7302460D02*
X743991Y-7292936D01*
X743991Y-7292936D02*
X734467Y-7273888D01*
X734467Y-7273888D02*
X724943Y-7235793D01*
X724943Y-7235793D02*
X724943Y-7188174D01*
X724943Y-7188174D02*
X734467Y-7150079D01*
X734467Y-7150079D02*
X743991Y-7131031D01*
X743991Y-7131031D02*
X753515Y-7121508D01*
X753515Y-7121508D02*
X772562Y-7111984D01*
X963039Y-7111984D02*
X982086Y-7111984D01*
X982086Y-7111984D02*
X1001134Y-7121508D01*
X1001134Y-7121508D02*
X1010658Y-7131031D01*
X1010658Y-7131031D02*
X1020182Y-7150079D01*
X1020182Y-7150079D02*
X1029705Y-7188174D01*
X1029705Y-7188174D02*
X1029705Y-7235793D01*
X1029705Y-7235793D02*
X1020182Y-7273888D01*
X1020182Y-7273888D02*
X1010658Y-7292936D01*
X1010658Y-7292936D02*
X1001134Y-7302460D01*
X1001134Y-7302460D02*
X982086Y-7311984D01*
X982086Y-7311984D02*
X963039Y-7311984D01*
X963039Y-7311984D02*
X943991Y-7302460D01*
X943991Y-7302460D02*
X934467Y-7292936D01*
X934467Y-7292936D02*
X924943Y-7273888D01*
X924943Y-7273888D02*
X915420Y-7235793D01*
X915420Y-7235793D02*
X915420Y-7188174D01*
X915420Y-7188174D02*
X924943Y-7150079D01*
X924943Y-7150079D02*
X934467Y-7131031D01*
X934467Y-7131031D02*
X943991Y-7121508D01*
X943991Y-7121508D02*
X963039Y-7111984D01*
X1115420Y-7311984D02*
X1115420Y-7178650D01*
X1115420Y-7197698D02*
X1124944Y-7188174D01*
X1124944Y-7188174D02*
X1143991Y-7178650D01*
X1143991Y-7178650D02*
X1172563Y-7178650D01*
X1172563Y-7178650D02*
X1191610Y-7188174D01*
X1191610Y-7188174D02*
X1201134Y-7207222D01*
X1201134Y-7207222D02*
X1201134Y-7311984D01*
X1201134Y-7207222D02*
X1210658Y-7188174D01*
X1210658Y-7188174D02*
X1229705Y-7178650D01*
X1229705Y-7178650D02*
X1258277Y-7178650D01*
X1258277Y-7178650D02*
X1277325Y-7188174D01*
X1277325Y-7188174D02*
X1286848Y-7207222D01*
X1286848Y-7207222D02*
X1286848Y-7311984D01*
X1382086Y-7311984D02*
X1382086Y-7178650D01*
X1382086Y-7197698D02*
X1391610Y-7188174D01*
X1391610Y-7188174D02*
X1410658Y-7178650D01*
X1410658Y-7178650D02*
X1439229Y-7178650D01*
X1439229Y-7178650D02*
X1458277Y-7188174D01*
X1458277Y-7188174D02*
X1467801Y-7207222D01*
X1467801Y-7207222D02*
X1467801Y-7311984D01*
X1467801Y-7207222D02*
X1477324Y-7188174D01*
X1477324Y-7188174D02*
X1496372Y-7178650D01*
X1496372Y-7178650D02*
X1524943Y-7178650D01*
X1524943Y-7178650D02*
X1543991Y-7188174D01*
X1543991Y-7188174D02*
X1553515Y-7207222D01*
X1553515Y-7207222D02*
X1553515Y-7311984D01*
X1943991Y-7102460D02*
X1772563Y-7359603D01*
X2201134Y-7111984D02*
X2220182Y-7111984D01*
X2220182Y-7111984D02*
X2239229Y-7121508D01*
X2239229Y-7121508D02*
X2248753Y-7131031D01*
X2248753Y-7131031D02*
X2258277Y-7150079D01*
X2258277Y-7150079D02*
X2267801Y-7188174D01*
X2267801Y-7188174D02*
X2267801Y-7235793D01*
X2267801Y-7235793D02*
X2258277Y-7273888D01*
X2258277Y-7273888D02*
X2248753Y-7292936D01*
X2248753Y-7292936D02*
X2239229Y-7302460D01*
X2239229Y-7302460D02*
X2220182Y-7311984D01*
X2220182Y-7311984D02*
X2201134Y-7311984D01*
X2201134Y-7311984D02*
X2182087Y-7302460D01*
X2182087Y-7302460D02*
X2172563Y-7292936D01*
X2172563Y-7292936D02*
X2163039Y-7273888D01*
X2163039Y-7273888D02*
X2153515Y-7235793D01*
X2153515Y-7235793D02*
X2153515Y-7188174D01*
X2153515Y-7188174D02*
X2163039Y-7150079D01*
X2163039Y-7150079D02*
X2172563Y-7131031D01*
X2172563Y-7131031D02*
X2182087Y-7121508D01*
X2182087Y-7121508D02*
X2201134Y-7111984D01*
X2353515Y-7292936D02*
X2363039Y-7302460D01*
X2363039Y-7302460D02*
X2353515Y-7311984D01*
X2353515Y-7311984D02*
X2343991Y-7302460D01*
X2343991Y-7302460D02*
X2353515Y-7292936D01*
X2353515Y-7292936D02*
X2353515Y-7311984D01*
X2486848Y-7111984D02*
X2505896Y-7111984D01*
X2505896Y-7111984D02*
X2524944Y-7121508D01*
X2524944Y-7121508D02*
X2534468Y-7131031D01*
X2534468Y-7131031D02*
X2543991Y-7150079D01*
X2543991Y-7150079D02*
X2553515Y-7188174D01*
X2553515Y-7188174D02*
X2553515Y-7235793D01*
X2553515Y-7235793D02*
X2543991Y-7273888D01*
X2543991Y-7273888D02*
X2534468Y-7292936D01*
X2534468Y-7292936D02*
X2524944Y-7302460D01*
X2524944Y-7302460D02*
X2505896Y-7311984D01*
X2505896Y-7311984D02*
X2486848Y-7311984D01*
X2486848Y-7311984D02*
X2467801Y-7302460D01*
X2467801Y-7302460D02*
X2458277Y-7292936D01*
X2458277Y-7292936D02*
X2448753Y-7273888D01*
X2448753Y-7273888D02*
X2439229Y-7235793D01*
X2439229Y-7235793D02*
X2439229Y-7188174D01*
X2439229Y-7188174D02*
X2448753Y-7150079D01*
X2448753Y-7150079D02*
X2458277Y-7131031D01*
X2458277Y-7131031D02*
X2467801Y-7121508D01*
X2467801Y-7121508D02*
X2486848Y-7111984D01*
X2620182Y-7111984D02*
X2753515Y-7111984D01*
X2753515Y-7111984D02*
X2667801Y-7311984D01*
X2867801Y-7111984D02*
X2886848Y-7111984D01*
X2886848Y-7111984D02*
X2905896Y-7121508D01*
X2905896Y-7121508D02*
X2915420Y-7131031D01*
X2915420Y-7131031D02*
X2924944Y-7150079D01*
X2924944Y-7150079D02*
X2934467Y-7188174D01*
X2934467Y-7188174D02*
X2934467Y-7235793D01*
X2934467Y-7235793D02*
X2924944Y-7273888D01*
X2924944Y-7273888D02*
X2915420Y-7292936D01*
X2915420Y-7292936D02*
X2905896Y-7302460D01*
X2905896Y-7302460D02*
X2886848Y-7311984D01*
X2886848Y-7311984D02*
X2867801Y-7311984D01*
X2867801Y-7311984D02*
X2848753Y-7302460D01*
X2848753Y-7302460D02*
X2839229Y-7292936D01*
X2839229Y-7292936D02*
X2829706Y-7273888D01*
X2829706Y-7273888D02*
X2820182Y-7235793D01*
X2820182Y-7235793D02*
X2820182Y-7188174D01*
X2820182Y-7188174D02*
X2829706Y-7150079D01*
X2829706Y-7150079D02*
X2839229Y-7131031D01*
X2839229Y-7131031D02*
X2848753Y-7121508D01*
X2848753Y-7121508D02*
X2867801Y-7111984D01*
X3029706Y-7311984D02*
X3067801Y-7311984D01*
X3067801Y-7311984D02*
X3086848Y-7302460D01*
X3086848Y-7302460D02*
X3096372Y-7292936D01*
X3096372Y-7292936D02*
X3115420Y-7264365D01*
X3115420Y-7264365D02*
X3124944Y-7226269D01*
X3124944Y-7226269D02*
X3124944Y-7150079D01*
X3124944Y-7150079D02*
X3115420Y-7131031D01*
X3115420Y-7131031D02*
X3105896Y-7121508D01*
X3105896Y-7121508D02*
X3086848Y-7111984D01*
X3086848Y-7111984D02*
X3048753Y-7111984D01*
X3048753Y-7111984D02*
X3029706Y-7121508D01*
X3029706Y-7121508D02*
X3020182Y-7131031D01*
X3020182Y-7131031D02*
X3010658Y-7150079D01*
X3010658Y-7150079D02*
X3010658Y-7197698D01*
X3010658Y-7197698D02*
X3020182Y-7216746D01*
X3020182Y-7216746D02*
X3029706Y-7226269D01*
X3029706Y-7226269D02*
X3048753Y-7235793D01*
X3048753Y-7235793D02*
X3086848Y-7235793D01*
X3086848Y-7235793D02*
X3105896Y-7226269D01*
X3105896Y-7226269D02*
X3115420Y-7216746D01*
X3115420Y-7216746D02*
X3124944Y-7197698D01*
X3201134Y-7111984D02*
X3201134Y-7150079D01*
X3277325Y-7111984D02*
X3277325Y-7150079D01*
X3572563Y-7388174D02*
X3563039Y-7378650D01*
X3563039Y-7378650D02*
X3543991Y-7350079D01*
X3543991Y-7350079D02*
X3534468Y-7331031D01*
X3534468Y-7331031D02*
X3524944Y-7302460D01*
X3524944Y-7302460D02*
X3515420Y-7254841D01*
X3515420Y-7254841D02*
X3515420Y-7216746D01*
X3515420Y-7216746D02*
X3524944Y-7169127D01*
X3524944Y-7169127D02*
X3534468Y-7140555D01*
X3534468Y-7140555D02*
X3543991Y-7121508D01*
X3543991Y-7121508D02*
X3563039Y-7092936D01*
X3563039Y-7092936D02*
X3572563Y-7083412D01*
X3734468Y-7178650D02*
X3734468Y-7311984D01*
X3686848Y-7102460D02*
X3639229Y-7245317D01*
X3639229Y-7245317D02*
X3763039Y-7245317D01*
X3991610Y-7311984D02*
X3991610Y-7111984D01*
X4077325Y-7311984D02*
X4077325Y-7207222D01*
X4077325Y-7207222D02*
X4067801Y-7188174D01*
X4067801Y-7188174D02*
X4048753Y-7178650D01*
X4048753Y-7178650D02*
X4020182Y-7178650D01*
X4020182Y-7178650D02*
X4001134Y-7188174D01*
X4001134Y-7188174D02*
X3991610Y-7197698D01*
X4201134Y-7311984D02*
X4182087Y-7302460D01*
X4182087Y-7302460D02*
X4172563Y-7292936D01*
X4172563Y-7292936D02*
X4163039Y-7273888D01*
X4163039Y-7273888D02*
X4163039Y-7216746D01*
X4163039Y-7216746D02*
X4172563Y-7197698D01*
X4172563Y-7197698D02*
X4182087Y-7188174D01*
X4182087Y-7188174D02*
X4201134Y-7178650D01*
X4201134Y-7178650D02*
X4229706Y-7178650D01*
X4229706Y-7178650D02*
X4248753Y-7188174D01*
X4248753Y-7188174D02*
X4258277Y-7197698D01*
X4258277Y-7197698D02*
X4267801Y-7216746D01*
X4267801Y-7216746D02*
X4267801Y-7273888D01*
X4267801Y-7273888D02*
X4258277Y-7292936D01*
X4258277Y-7292936D02*
X4248753Y-7302460D01*
X4248753Y-7302460D02*
X4229706Y-7311984D01*
X4229706Y-7311984D02*
X4201134Y-7311984D01*
X4382087Y-7311984D02*
X4363039Y-7302460D01*
X4363039Y-7302460D02*
X4353515Y-7283412D01*
X4353515Y-7283412D02*
X4353515Y-7111984D01*
X4534468Y-7302460D02*
X4515420Y-7311984D01*
X4515420Y-7311984D02*
X4477325Y-7311984D01*
X4477325Y-7311984D02*
X4458277Y-7302460D01*
X4458277Y-7302460D02*
X4448753Y-7283412D01*
X4448753Y-7283412D02*
X4448753Y-7207222D01*
X4448753Y-7207222D02*
X4458277Y-7188174D01*
X4458277Y-7188174D02*
X4477325Y-7178650D01*
X4477325Y-7178650D02*
X4515420Y-7178650D01*
X4515420Y-7178650D02*
X4534468Y-7188174D01*
X4534468Y-7188174D02*
X4543992Y-7207222D01*
X4543992Y-7207222D02*
X4543992Y-7226269D01*
X4543992Y-7226269D02*
X4448753Y-7245317D01*
X4620182Y-7302460D02*
X4639230Y-7311984D01*
X4639230Y-7311984D02*
X4677325Y-7311984D01*
X4677325Y-7311984D02*
X4696373Y-7302460D01*
X4696373Y-7302460D02*
X4705896Y-7283412D01*
X4705896Y-7283412D02*
X4705896Y-7273888D01*
X4705896Y-7273888D02*
X4696373Y-7254841D01*
X4696373Y-7254841D02*
X4677325Y-7245317D01*
X4677325Y-7245317D02*
X4648753Y-7245317D01*
X4648753Y-7245317D02*
X4629706Y-7235793D01*
X4629706Y-7235793D02*
X4620182Y-7216746D01*
X4620182Y-7216746D02*
X4620182Y-7207222D01*
X4620182Y-7207222D02*
X4629706Y-7188174D01*
X4629706Y-7188174D02*
X4648753Y-7178650D01*
X4648753Y-7178650D02*
X4677325Y-7178650D01*
X4677325Y-7178650D02*
X4696373Y-7188174D01*
X4772563Y-7388174D02*
X4782087Y-7378650D01*
X4782087Y-7378650D02*
X4801134Y-7350079D01*
X4801134Y-7350079D02*
X4810658Y-7331031D01*
X4810658Y-7331031D02*
X4820182Y-7302460D01*
X4820182Y-7302460D02*
X4829706Y-7254841D01*
X4829706Y-7254841D02*
X4829706Y-7216746D01*
X4829706Y-7216746D02*
X4820182Y-7169127D01*
X4820182Y-7169127D02*
X4810658Y-7140555D01*
X4810658Y-7140555D02*
X4801134Y-7121508D01*
X4801134Y-7121508D02*
X4782087Y-7092936D01*
X4782087Y-7092936D02*
X4772563Y-7083412D01*
X5134468Y-7388174D02*
X5124944Y-7378650D01*
X5124944Y-7378650D02*
X5105896Y-7350079D01*
X5105896Y-7350079D02*
X5096373Y-7331031D01*
X5096373Y-7331031D02*
X5086849Y-7302460D01*
X5086849Y-7302460D02*
X5077325Y-7254841D01*
X5077325Y-7254841D02*
X5077325Y-7216746D01*
X5077325Y-7216746D02*
X5086849Y-7169127D01*
X5086849Y-7169127D02*
X5096373Y-7140555D01*
X5096373Y-7140555D02*
X5105896Y-7121508D01*
X5105896Y-7121508D02*
X5124944Y-7092936D01*
X5124944Y-7092936D02*
X5134468Y-7083412D01*
X5210658Y-7178650D02*
X5210658Y-7311984D01*
X5210658Y-7197698D02*
X5220182Y-7188174D01*
X5220182Y-7188174D02*
X5239230Y-7178650D01*
X5239230Y-7178650D02*
X5267801Y-7178650D01*
X5267801Y-7178650D02*
X5286849Y-7188174D01*
X5286849Y-7188174D02*
X5296373Y-7207222D01*
X5296373Y-7207222D02*
X5296373Y-7311984D01*
X5420182Y-7311984D02*
X5401134Y-7302460D01*
X5401134Y-7302460D02*
X5391611Y-7292936D01*
X5391611Y-7292936D02*
X5382087Y-7273888D01*
X5382087Y-7273888D02*
X5382087Y-7216746D01*
X5382087Y-7216746D02*
X5391611Y-7197698D01*
X5391611Y-7197698D02*
X5401134Y-7188174D01*
X5401134Y-7188174D02*
X5420182Y-7178650D01*
X5420182Y-7178650D02*
X5448754Y-7178650D01*
X5448754Y-7178650D02*
X5467801Y-7188174D01*
X5467801Y-7188174D02*
X5477325Y-7197698D01*
X5477325Y-7197698D02*
X5486849Y-7216746D01*
X5486849Y-7216746D02*
X5486849Y-7273888D01*
X5486849Y-7273888D02*
X5477325Y-7292936D01*
X5477325Y-7292936D02*
X5467801Y-7302460D01*
X5467801Y-7302460D02*
X5448754Y-7311984D01*
X5448754Y-7311984D02*
X5420182Y-7311984D01*
X5543992Y-7178650D02*
X5620182Y-7178650D01*
X5572563Y-7111984D02*
X5572563Y-7283412D01*
X5572563Y-7283412D02*
X5582087Y-7302460D01*
X5582087Y-7302460D02*
X5601134Y-7311984D01*
X5601134Y-7311984D02*
X5620182Y-7311984D01*
X5839230Y-7178650D02*
X5839230Y-7378650D01*
X5839230Y-7188174D02*
X5858277Y-7178650D01*
X5858277Y-7178650D02*
X5896373Y-7178650D01*
X5896373Y-7178650D02*
X5915420Y-7188174D01*
X5915420Y-7188174D02*
X5924944Y-7197698D01*
X5924944Y-7197698D02*
X5934468Y-7216746D01*
X5934468Y-7216746D02*
X5934468Y-7273888D01*
X5934468Y-7273888D02*
X5924944Y-7292936D01*
X5924944Y-7292936D02*
X5915420Y-7302460D01*
X5915420Y-7302460D02*
X5896373Y-7311984D01*
X5896373Y-7311984D02*
X5858277Y-7311984D01*
X5858277Y-7311984D02*
X5839230Y-7302460D01*
X6048753Y-7311984D02*
X6029706Y-7302460D01*
X6029706Y-7302460D02*
X6020182Y-7283412D01*
X6020182Y-7283412D02*
X6020182Y-7111984D01*
X6210658Y-7311984D02*
X6210658Y-7207222D01*
X6210658Y-7207222D02*
X6201134Y-7188174D01*
X6201134Y-7188174D02*
X6182087Y-7178650D01*
X6182087Y-7178650D02*
X6143992Y-7178650D01*
X6143992Y-7178650D02*
X6124944Y-7188174D01*
X6210658Y-7302460D02*
X6191611Y-7311984D01*
X6191611Y-7311984D02*
X6143992Y-7311984D01*
X6143992Y-7311984D02*
X6124944Y-7302460D01*
X6124944Y-7302460D02*
X6115420Y-7283412D01*
X6115420Y-7283412D02*
X6115420Y-7264365D01*
X6115420Y-7264365D02*
X6124944Y-7245317D01*
X6124944Y-7245317D02*
X6143992Y-7235793D01*
X6143992Y-7235793D02*
X6191611Y-7235793D01*
X6191611Y-7235793D02*
X6210658Y-7226269D01*
X6277325Y-7178650D02*
X6353515Y-7178650D01*
X6305896Y-7111984D02*
X6305896Y-7283412D01*
X6305896Y-7283412D02*
X6315420Y-7302460D01*
X6315420Y-7302460D02*
X6334468Y-7311984D01*
X6334468Y-7311984D02*
X6353515Y-7311984D01*
X6496373Y-7302460D02*
X6477325Y-7311984D01*
X6477325Y-7311984D02*
X6439230Y-7311984D01*
X6439230Y-7311984D02*
X6420182Y-7302460D01*
X6420182Y-7302460D02*
X6410658Y-7283412D01*
X6410658Y-7283412D02*
X6410658Y-7207222D01*
X6410658Y-7207222D02*
X6420182Y-7188174D01*
X6420182Y-7188174D02*
X6439230Y-7178650D01*
X6439230Y-7178650D02*
X6477325Y-7178650D01*
X6477325Y-7178650D02*
X6496373Y-7188174D01*
X6496373Y-7188174D02*
X6505896Y-7207222D01*
X6505896Y-7207222D02*
X6505896Y-7226269D01*
X6505896Y-7226269D02*
X6410658Y-7245317D01*
X6677325Y-7311984D02*
X6677325Y-7111984D01*
X6677325Y-7302460D02*
X6658277Y-7311984D01*
X6658277Y-7311984D02*
X6620182Y-7311984D01*
X6620182Y-7311984D02*
X6601134Y-7302460D01*
X6601134Y-7302460D02*
X6591611Y-7292936D01*
X6591611Y-7292936D02*
X6582087Y-7273888D01*
X6582087Y-7273888D02*
X6582087Y-7216746D01*
X6582087Y-7216746D02*
X6591611Y-7197698D01*
X6591611Y-7197698D02*
X6601134Y-7188174D01*
X6601134Y-7188174D02*
X6620182Y-7178650D01*
X6620182Y-7178650D02*
X6658277Y-7178650D01*
X6658277Y-7178650D02*
X6677325Y-7188174D01*
X6753515Y-7388174D02*
X6763039Y-7378650D01*
X6763039Y-7378650D02*
X6782087Y-7350079D01*
X6782087Y-7350079D02*
X6791611Y-7331031D01*
X6791611Y-7331031D02*
X6801134Y-7302460D01*
X6801134Y-7302460D02*
X6810658Y-7254841D01*
X6810658Y-7254841D02*
X6810658Y-7216746D01*
X6810658Y-7216746D02*
X6801134Y-7169127D01*
X6801134Y-7169127D02*
X6791611Y-7140555D01*
X6791611Y-7140555D02*
X6782087Y-7121508D01*
X6782087Y-7121508D02*
X6763039Y-7092936D01*
X6763039Y-7092936D02*
X6753515Y-7083412D01*
X-31789Y-7591211D02*
X-31789Y-7449789D01*
X-173211Y-7449789D01*
X-173211Y-7591211D01*
X-31789Y-7591211D01*
X248753Y-7431031D02*
X258277Y-7421508D01*
X258277Y-7421508D02*
X277324Y-7411984D01*
X277324Y-7411984D02*
X324944Y-7411984D01*
X324944Y-7411984D02*
X343991Y-7421508D01*
X343991Y-7421508D02*
X353515Y-7431031D01*
X353515Y-7431031D02*
X363039Y-7450079D01*
X363039Y-7450079D02*
X363039Y-7469127D01*
X363039Y-7469127D02*
X353515Y-7497698D01*
X353515Y-7497698D02*
X239229Y-7611984D01*
X239229Y-7611984D02*
X363039Y-7611984D01*
X448753Y-7592936D02*
X458277Y-7602460D01*
X458277Y-7602460D02*
X448753Y-7611984D01*
X448753Y-7611984D02*
X439229Y-7602460D01*
X439229Y-7602460D02*
X448753Y-7592936D01*
X448753Y-7592936D02*
X448753Y-7611984D01*
X524944Y-7411984D02*
X658277Y-7411984D01*
X658277Y-7411984D02*
X572563Y-7611984D01*
X772562Y-7411984D02*
X791610Y-7411984D01*
X791610Y-7411984D02*
X810658Y-7421508D01*
X810658Y-7421508D02*
X820182Y-7431031D01*
X820182Y-7431031D02*
X829705Y-7450079D01*
X829705Y-7450079D02*
X839229Y-7488174D01*
X839229Y-7488174D02*
X839229Y-7535793D01*
X839229Y-7535793D02*
X829705Y-7573888D01*
X829705Y-7573888D02*
X820182Y-7592936D01*
X820182Y-7592936D02*
X810658Y-7602460D01*
X810658Y-7602460D02*
X791610Y-7611984D01*
X791610Y-7611984D02*
X772562Y-7611984D01*
X772562Y-7611984D02*
X753515Y-7602460D01*
X753515Y-7602460D02*
X743991Y-7592936D01*
X743991Y-7592936D02*
X734467Y-7573888D01*
X734467Y-7573888D02*
X724943Y-7535793D01*
X724943Y-7535793D02*
X724943Y-7488174D01*
X724943Y-7488174D02*
X734467Y-7450079D01*
X734467Y-7450079D02*
X743991Y-7431031D01*
X743991Y-7431031D02*
X753515Y-7421508D01*
X753515Y-7421508D02*
X772562Y-7411984D01*
X963039Y-7411984D02*
X982086Y-7411984D01*
X982086Y-7411984D02*
X1001134Y-7421508D01*
X1001134Y-7421508D02*
X1010658Y-7431031D01*
X1010658Y-7431031D02*
X1020182Y-7450079D01*
X1020182Y-7450079D02*
X1029705Y-7488174D01*
X1029705Y-7488174D02*
X1029705Y-7535793D01*
X1029705Y-7535793D02*
X1020182Y-7573888D01*
X1020182Y-7573888D02*
X1010658Y-7592936D01*
X1010658Y-7592936D02*
X1001134Y-7602460D01*
X1001134Y-7602460D02*
X982086Y-7611984D01*
X982086Y-7611984D02*
X963039Y-7611984D01*
X963039Y-7611984D02*
X943991Y-7602460D01*
X943991Y-7602460D02*
X934467Y-7592936D01*
X934467Y-7592936D02*
X924943Y-7573888D01*
X924943Y-7573888D02*
X915420Y-7535793D01*
X915420Y-7535793D02*
X915420Y-7488174D01*
X915420Y-7488174D02*
X924943Y-7450079D01*
X924943Y-7450079D02*
X934467Y-7431031D01*
X934467Y-7431031D02*
X943991Y-7421508D01*
X943991Y-7421508D02*
X963039Y-7411984D01*
X1115420Y-7611984D02*
X1115420Y-7478650D01*
X1115420Y-7497698D02*
X1124944Y-7488174D01*
X1124944Y-7488174D02*
X1143991Y-7478650D01*
X1143991Y-7478650D02*
X1172563Y-7478650D01*
X1172563Y-7478650D02*
X1191610Y-7488174D01*
X1191610Y-7488174D02*
X1201134Y-7507222D01*
X1201134Y-7507222D02*
X1201134Y-7611984D01*
X1201134Y-7507222D02*
X1210658Y-7488174D01*
X1210658Y-7488174D02*
X1229705Y-7478650D01*
X1229705Y-7478650D02*
X1258277Y-7478650D01*
X1258277Y-7478650D02*
X1277325Y-7488174D01*
X1277325Y-7488174D02*
X1286848Y-7507222D01*
X1286848Y-7507222D02*
X1286848Y-7611984D01*
X1382086Y-7611984D02*
X1382086Y-7478650D01*
X1382086Y-7497698D02*
X1391610Y-7488174D01*
X1391610Y-7488174D02*
X1410658Y-7478650D01*
X1410658Y-7478650D02*
X1439229Y-7478650D01*
X1439229Y-7478650D02*
X1458277Y-7488174D01*
X1458277Y-7488174D02*
X1467801Y-7507222D01*
X1467801Y-7507222D02*
X1467801Y-7611984D01*
X1467801Y-7507222D02*
X1477324Y-7488174D01*
X1477324Y-7488174D02*
X1496372Y-7478650D01*
X1496372Y-7478650D02*
X1524943Y-7478650D01*
X1524943Y-7478650D02*
X1543991Y-7488174D01*
X1543991Y-7488174D02*
X1553515Y-7507222D01*
X1553515Y-7507222D02*
X1553515Y-7611984D01*
X1943991Y-7402460D02*
X1772563Y-7659603D01*
X2201134Y-7411984D02*
X2220182Y-7411984D01*
X2220182Y-7411984D02*
X2239229Y-7421508D01*
X2239229Y-7421508D02*
X2248753Y-7431031D01*
X2248753Y-7431031D02*
X2258277Y-7450079D01*
X2258277Y-7450079D02*
X2267801Y-7488174D01*
X2267801Y-7488174D02*
X2267801Y-7535793D01*
X2267801Y-7535793D02*
X2258277Y-7573888D01*
X2258277Y-7573888D02*
X2248753Y-7592936D01*
X2248753Y-7592936D02*
X2239229Y-7602460D01*
X2239229Y-7602460D02*
X2220182Y-7611984D01*
X2220182Y-7611984D02*
X2201134Y-7611984D01*
X2201134Y-7611984D02*
X2182087Y-7602460D01*
X2182087Y-7602460D02*
X2172563Y-7592936D01*
X2172563Y-7592936D02*
X2163039Y-7573888D01*
X2163039Y-7573888D02*
X2153515Y-7535793D01*
X2153515Y-7535793D02*
X2153515Y-7488174D01*
X2153515Y-7488174D02*
X2163039Y-7450079D01*
X2163039Y-7450079D02*
X2172563Y-7431031D01*
X2172563Y-7431031D02*
X2182087Y-7421508D01*
X2182087Y-7421508D02*
X2201134Y-7411984D01*
X2353515Y-7592936D02*
X2363039Y-7602460D01*
X2363039Y-7602460D02*
X2353515Y-7611984D01*
X2353515Y-7611984D02*
X2343991Y-7602460D01*
X2343991Y-7602460D02*
X2353515Y-7592936D01*
X2353515Y-7592936D02*
X2353515Y-7611984D01*
X2553515Y-7611984D02*
X2439229Y-7611984D01*
X2496372Y-7611984D02*
X2496372Y-7411984D01*
X2496372Y-7411984D02*
X2477325Y-7440555D01*
X2477325Y-7440555D02*
X2458277Y-7459603D01*
X2458277Y-7459603D02*
X2439229Y-7469127D01*
X2677325Y-7411984D02*
X2696372Y-7411984D01*
X2696372Y-7411984D02*
X2715420Y-7421508D01*
X2715420Y-7421508D02*
X2724944Y-7431031D01*
X2724944Y-7431031D02*
X2734468Y-7450079D01*
X2734468Y-7450079D02*
X2743991Y-7488174D01*
X2743991Y-7488174D02*
X2743991Y-7535793D01*
X2743991Y-7535793D02*
X2734468Y-7573888D01*
X2734468Y-7573888D02*
X2724944Y-7592936D01*
X2724944Y-7592936D02*
X2715420Y-7602460D01*
X2715420Y-7602460D02*
X2696372Y-7611984D01*
X2696372Y-7611984D02*
X2677325Y-7611984D01*
X2677325Y-7611984D02*
X2658277Y-7602460D01*
X2658277Y-7602460D02*
X2648753Y-7592936D01*
X2648753Y-7592936D02*
X2639229Y-7573888D01*
X2639229Y-7573888D02*
X2629706Y-7535793D01*
X2629706Y-7535793D02*
X2629706Y-7488174D01*
X2629706Y-7488174D02*
X2639229Y-7450079D01*
X2639229Y-7450079D02*
X2648753Y-7431031D01*
X2648753Y-7431031D02*
X2658277Y-7421508D01*
X2658277Y-7421508D02*
X2677325Y-7411984D01*
X2915420Y-7411984D02*
X2877325Y-7411984D01*
X2877325Y-7411984D02*
X2858277Y-7421508D01*
X2858277Y-7421508D02*
X2848753Y-7431031D01*
X2848753Y-7431031D02*
X2829706Y-7459603D01*
X2829706Y-7459603D02*
X2820182Y-7497698D01*
X2820182Y-7497698D02*
X2820182Y-7573888D01*
X2820182Y-7573888D02*
X2829706Y-7592936D01*
X2829706Y-7592936D02*
X2839229Y-7602460D01*
X2839229Y-7602460D02*
X2858277Y-7611984D01*
X2858277Y-7611984D02*
X2896372Y-7611984D01*
X2896372Y-7611984D02*
X2915420Y-7602460D01*
X2915420Y-7602460D02*
X2924944Y-7592936D01*
X2924944Y-7592936D02*
X2934467Y-7573888D01*
X2934467Y-7573888D02*
X2934467Y-7526269D01*
X2934467Y-7526269D02*
X2924944Y-7507222D01*
X2924944Y-7507222D02*
X2915420Y-7497698D01*
X2915420Y-7497698D02*
X2896372Y-7488174D01*
X2896372Y-7488174D02*
X2858277Y-7488174D01*
X2858277Y-7488174D02*
X2839229Y-7497698D01*
X2839229Y-7497698D02*
X2829706Y-7507222D01*
X2829706Y-7507222D02*
X2820182Y-7526269D01*
X3001134Y-7411984D02*
X3124944Y-7411984D01*
X3124944Y-7411984D02*
X3058277Y-7488174D01*
X3058277Y-7488174D02*
X3086848Y-7488174D01*
X3086848Y-7488174D02*
X3105896Y-7497698D01*
X3105896Y-7497698D02*
X3115420Y-7507222D01*
X3115420Y-7507222D02*
X3124944Y-7526269D01*
X3124944Y-7526269D02*
X3124944Y-7573888D01*
X3124944Y-7573888D02*
X3115420Y-7592936D01*
X3115420Y-7592936D02*
X3105896Y-7602460D01*
X3105896Y-7602460D02*
X3086848Y-7611984D01*
X3086848Y-7611984D02*
X3029706Y-7611984D01*
X3029706Y-7611984D02*
X3010658Y-7602460D01*
X3010658Y-7602460D02*
X3001134Y-7592936D01*
X3201134Y-7411984D02*
X3201134Y-7450079D01*
X3277325Y-7411984D02*
X3277325Y-7450079D01*
X3572563Y-7688174D02*
X3563039Y-7678650D01*
X3563039Y-7678650D02*
X3543991Y-7650079D01*
X3543991Y-7650079D02*
X3534468Y-7631031D01*
X3534468Y-7631031D02*
X3524944Y-7602460D01*
X3524944Y-7602460D02*
X3515420Y-7554841D01*
X3515420Y-7554841D02*
X3515420Y-7516746D01*
X3515420Y-7516746D02*
X3524944Y-7469127D01*
X3524944Y-7469127D02*
X3534468Y-7440555D01*
X3534468Y-7440555D02*
X3543991Y-7421508D01*
X3543991Y-7421508D02*
X3563039Y-7392936D01*
X3563039Y-7392936D02*
X3572563Y-7383412D01*
X3734468Y-7478650D02*
X3734468Y-7611984D01*
X3686848Y-7402460D02*
X3639229Y-7545317D01*
X3639229Y-7545317D02*
X3763039Y-7545317D01*
X3991610Y-7611984D02*
X3991610Y-7411984D01*
X4077325Y-7611984D02*
X4077325Y-7507222D01*
X4077325Y-7507222D02*
X4067801Y-7488174D01*
X4067801Y-7488174D02*
X4048753Y-7478650D01*
X4048753Y-7478650D02*
X4020182Y-7478650D01*
X4020182Y-7478650D02*
X4001134Y-7488174D01*
X4001134Y-7488174D02*
X3991610Y-7497698D01*
X4201134Y-7611984D02*
X4182087Y-7602460D01*
X4182087Y-7602460D02*
X4172563Y-7592936D01*
X4172563Y-7592936D02*
X4163039Y-7573888D01*
X4163039Y-7573888D02*
X4163039Y-7516746D01*
X4163039Y-7516746D02*
X4172563Y-7497698D01*
X4172563Y-7497698D02*
X4182087Y-7488174D01*
X4182087Y-7488174D02*
X4201134Y-7478650D01*
X4201134Y-7478650D02*
X4229706Y-7478650D01*
X4229706Y-7478650D02*
X4248753Y-7488174D01*
X4248753Y-7488174D02*
X4258277Y-7497698D01*
X4258277Y-7497698D02*
X4267801Y-7516746D01*
X4267801Y-7516746D02*
X4267801Y-7573888D01*
X4267801Y-7573888D02*
X4258277Y-7592936D01*
X4258277Y-7592936D02*
X4248753Y-7602460D01*
X4248753Y-7602460D02*
X4229706Y-7611984D01*
X4229706Y-7611984D02*
X4201134Y-7611984D01*
X4382087Y-7611984D02*
X4363039Y-7602460D01*
X4363039Y-7602460D02*
X4353515Y-7583412D01*
X4353515Y-7583412D02*
X4353515Y-7411984D01*
X4534468Y-7602460D02*
X4515420Y-7611984D01*
X4515420Y-7611984D02*
X4477325Y-7611984D01*
X4477325Y-7611984D02*
X4458277Y-7602460D01*
X4458277Y-7602460D02*
X4448753Y-7583412D01*
X4448753Y-7583412D02*
X4448753Y-7507222D01*
X4448753Y-7507222D02*
X4458277Y-7488174D01*
X4458277Y-7488174D02*
X4477325Y-7478650D01*
X4477325Y-7478650D02*
X4515420Y-7478650D01*
X4515420Y-7478650D02*
X4534468Y-7488174D01*
X4534468Y-7488174D02*
X4543992Y-7507222D01*
X4543992Y-7507222D02*
X4543992Y-7526269D01*
X4543992Y-7526269D02*
X4448753Y-7545317D01*
X4620182Y-7602460D02*
X4639230Y-7611984D01*
X4639230Y-7611984D02*
X4677325Y-7611984D01*
X4677325Y-7611984D02*
X4696373Y-7602460D01*
X4696373Y-7602460D02*
X4705896Y-7583412D01*
X4705896Y-7583412D02*
X4705896Y-7573888D01*
X4705896Y-7573888D02*
X4696373Y-7554841D01*
X4696373Y-7554841D02*
X4677325Y-7545317D01*
X4677325Y-7545317D02*
X4648753Y-7545317D01*
X4648753Y-7545317D02*
X4629706Y-7535793D01*
X4629706Y-7535793D02*
X4620182Y-7516746D01*
X4620182Y-7516746D02*
X4620182Y-7507222D01*
X4620182Y-7507222D02*
X4629706Y-7488174D01*
X4629706Y-7488174D02*
X4648753Y-7478650D01*
X4648753Y-7478650D02*
X4677325Y-7478650D01*
X4677325Y-7478650D02*
X4696373Y-7488174D01*
X4772563Y-7688174D02*
X4782087Y-7678650D01*
X4782087Y-7678650D02*
X4801134Y-7650079D01*
X4801134Y-7650079D02*
X4810658Y-7631031D01*
X4810658Y-7631031D02*
X4820182Y-7602460D01*
X4820182Y-7602460D02*
X4829706Y-7554841D01*
X4829706Y-7554841D02*
X4829706Y-7516746D01*
X4829706Y-7516746D02*
X4820182Y-7469127D01*
X4820182Y-7469127D02*
X4810658Y-7440555D01*
X4810658Y-7440555D02*
X4801134Y-7421508D01*
X4801134Y-7421508D02*
X4782087Y-7392936D01*
X4782087Y-7392936D02*
X4772563Y-7383412D01*
X5134468Y-7688174D02*
X5124944Y-7678650D01*
X5124944Y-7678650D02*
X5105896Y-7650079D01*
X5105896Y-7650079D02*
X5096373Y-7631031D01*
X5096373Y-7631031D02*
X5086849Y-7602460D01*
X5086849Y-7602460D02*
X5077325Y-7554841D01*
X5077325Y-7554841D02*
X5077325Y-7516746D01*
X5077325Y-7516746D02*
X5086849Y-7469127D01*
X5086849Y-7469127D02*
X5096373Y-7440555D01*
X5096373Y-7440555D02*
X5105896Y-7421508D01*
X5105896Y-7421508D02*
X5124944Y-7392936D01*
X5124944Y-7392936D02*
X5134468Y-7383412D01*
X5210658Y-7478650D02*
X5210658Y-7611984D01*
X5210658Y-7497698D02*
X5220182Y-7488174D01*
X5220182Y-7488174D02*
X5239230Y-7478650D01*
X5239230Y-7478650D02*
X5267801Y-7478650D01*
X5267801Y-7478650D02*
X5286849Y-7488174D01*
X5286849Y-7488174D02*
X5296373Y-7507222D01*
X5296373Y-7507222D02*
X5296373Y-7611984D01*
X5420182Y-7611984D02*
X5401134Y-7602460D01*
X5401134Y-7602460D02*
X5391611Y-7592936D01*
X5391611Y-7592936D02*
X5382087Y-7573888D01*
X5382087Y-7573888D02*
X5382087Y-7516746D01*
X5382087Y-7516746D02*
X5391611Y-7497698D01*
X5391611Y-7497698D02*
X5401134Y-7488174D01*
X5401134Y-7488174D02*
X5420182Y-7478650D01*
X5420182Y-7478650D02*
X5448754Y-7478650D01*
X5448754Y-7478650D02*
X5467801Y-7488174D01*
X5467801Y-7488174D02*
X5477325Y-7497698D01*
X5477325Y-7497698D02*
X5486849Y-7516746D01*
X5486849Y-7516746D02*
X5486849Y-7573888D01*
X5486849Y-7573888D02*
X5477325Y-7592936D01*
X5477325Y-7592936D02*
X5467801Y-7602460D01*
X5467801Y-7602460D02*
X5448754Y-7611984D01*
X5448754Y-7611984D02*
X5420182Y-7611984D01*
X5543992Y-7478650D02*
X5620182Y-7478650D01*
X5572563Y-7411984D02*
X5572563Y-7583412D01*
X5572563Y-7583412D02*
X5582087Y-7602460D01*
X5582087Y-7602460D02*
X5601134Y-7611984D01*
X5601134Y-7611984D02*
X5620182Y-7611984D01*
X5839230Y-7478650D02*
X5839230Y-7678650D01*
X5839230Y-7488174D02*
X5858277Y-7478650D01*
X5858277Y-7478650D02*
X5896373Y-7478650D01*
X5896373Y-7478650D02*
X5915420Y-7488174D01*
X5915420Y-7488174D02*
X5924944Y-7497698D01*
X5924944Y-7497698D02*
X5934468Y-7516746D01*
X5934468Y-7516746D02*
X5934468Y-7573888D01*
X5934468Y-7573888D02*
X5924944Y-7592936D01*
X5924944Y-7592936D02*
X5915420Y-7602460D01*
X5915420Y-7602460D02*
X5896373Y-7611984D01*
X5896373Y-7611984D02*
X5858277Y-7611984D01*
X5858277Y-7611984D02*
X5839230Y-7602460D01*
X6048753Y-7611984D02*
X6029706Y-7602460D01*
X6029706Y-7602460D02*
X6020182Y-7583412D01*
X6020182Y-7583412D02*
X6020182Y-7411984D01*
X6210658Y-7611984D02*
X6210658Y-7507222D01*
X6210658Y-7507222D02*
X6201134Y-7488174D01*
X6201134Y-7488174D02*
X6182087Y-7478650D01*
X6182087Y-7478650D02*
X6143992Y-7478650D01*
X6143992Y-7478650D02*
X6124944Y-7488174D01*
X6210658Y-7602460D02*
X6191611Y-7611984D01*
X6191611Y-7611984D02*
X6143992Y-7611984D01*
X6143992Y-7611984D02*
X6124944Y-7602460D01*
X6124944Y-7602460D02*
X6115420Y-7583412D01*
X6115420Y-7583412D02*
X6115420Y-7564365D01*
X6115420Y-7564365D02*
X6124944Y-7545317D01*
X6124944Y-7545317D02*
X6143992Y-7535793D01*
X6143992Y-7535793D02*
X6191611Y-7535793D01*
X6191611Y-7535793D02*
X6210658Y-7526269D01*
X6277325Y-7478650D02*
X6353515Y-7478650D01*
X6305896Y-7411984D02*
X6305896Y-7583412D01*
X6305896Y-7583412D02*
X6315420Y-7602460D01*
X6315420Y-7602460D02*
X6334468Y-7611984D01*
X6334468Y-7611984D02*
X6353515Y-7611984D01*
X6496373Y-7602460D02*
X6477325Y-7611984D01*
X6477325Y-7611984D02*
X6439230Y-7611984D01*
X6439230Y-7611984D02*
X6420182Y-7602460D01*
X6420182Y-7602460D02*
X6410658Y-7583412D01*
X6410658Y-7583412D02*
X6410658Y-7507222D01*
X6410658Y-7507222D02*
X6420182Y-7488174D01*
X6420182Y-7488174D02*
X6439230Y-7478650D01*
X6439230Y-7478650D02*
X6477325Y-7478650D01*
X6477325Y-7478650D02*
X6496373Y-7488174D01*
X6496373Y-7488174D02*
X6505896Y-7507222D01*
X6505896Y-7507222D02*
X6505896Y-7526269D01*
X6505896Y-7526269D02*
X6410658Y-7545317D01*
X6677325Y-7611984D02*
X6677325Y-7411984D01*
X6677325Y-7602460D02*
X6658277Y-7611984D01*
X6658277Y-7611984D02*
X6620182Y-7611984D01*
X6620182Y-7611984D02*
X6601134Y-7602460D01*
X6601134Y-7602460D02*
X6591611Y-7592936D01*
X6591611Y-7592936D02*
X6582087Y-7573888D01*
X6582087Y-7573888D02*
X6582087Y-7516746D01*
X6582087Y-7516746D02*
X6591611Y-7497698D01*
X6591611Y-7497698D02*
X6601134Y-7488174D01*
X6601134Y-7488174D02*
X6620182Y-7478650D01*
X6620182Y-7478650D02*
X6658277Y-7478650D01*
X6658277Y-7478650D02*
X6677325Y-7488174D01*
X6753515Y-7688174D02*
X6763039Y-7678650D01*
X6763039Y-7678650D02*
X6782087Y-7650079D01*
X6782087Y-7650079D02*
X6791611Y-7631031D01*
X6791611Y-7631031D02*
X6801134Y-7602460D01*
X6801134Y-7602460D02*
X6810658Y-7554841D01*
X6810658Y-7554841D02*
X6810658Y-7516746D01*
X6810658Y-7516746D02*
X6801134Y-7469127D01*
X6801134Y-7469127D02*
X6791611Y-7440555D01*
X6791611Y-7440555D02*
X6782087Y-7421508D01*
X6782087Y-7421508D02*
X6763039Y-7392936D01*
X6763039Y-7392936D02*
X6753515Y-7383412D01*
M02*
