solid OpenSCAD_Model
  facet normal 0.9781588509260892 0.20785875578130592 0
    outer loop
      vertex 10 0 80
      vertex 10 0 0
      vertex 2.350000001490116 36 80
    endloop
  endfacet
  facet normal 0.9781588509260892 0.20785875578130592 0
    outer loop
      vertex 10 0 0
      vertex 2.350000001490116 36 0
      vertex 2.350000001490116 36 80
    endloop
  endfacet
  facet normal 0 1 0
    outer loop
      vertex 2.350000001490116 36 80
      vertex 2.350000001490116 36 0
      vertex 0 36 80
    endloop
  endfacet
  facet normal 0 1 0
    outer loop
      vertex 2.350000001490116 36 0
      vertex 0 36 0
      vertex 0 36 80
    endloop
  endfacet
  facet normal -1 0 0
    outer loop
      vertex 0 36 80
      vertex 0 36 0
      vertex 0 0 80
    endloop
  endfacet
  facet normal -1 0 0
    outer loop
      vertex 0 36 0
      vertex 0 0 0
      vertex 0 0 80
    endloop
  endfacet
  facet normal 0 -1 0
    outer loop
      vertex 0 0 80
      vertex 0 0 0
      vertex 10 0 80
    endloop
  endfacet
  facet normal 0 -1 0
    outer loop
      vertex 0 0 0
      vertex 10 0 0
      vertex 10 0 80
    endloop
  endfacet
  facet normal 0 0 -1
    outer loop
      vertex 0 0 0
      vertex 2.350000001490116 36 0
      vertex 10 0 0
    endloop
  endfacet
  facet normal 0 0 -1
    outer loop
      vertex 0 0 0
      vertex 0 36 0
      vertex 2.350000001490116 36 0
    endloop
  endfacet
  facet normal 0 0 1
    outer loop
      vertex 10 0 80
      vertex 2.350000001490116 36 80
      vertex 0 0 80
    endloop
  endfacet
  facet normal 0 0 1
    outer loop
      vertex 2.350000001490116 36 80
      vertex 0 36 80
      vertex 0 0 80
    endloop
  endfacet
endsolid OpenSCAD_Model
