solid OpenSCAD_Model
  facet normal 0 0 1
    outer loop
      vertex 101.8 21.9 7.949999999999999
      vertex 103.39999999999999 13.1 7.949999999999999
      vertex 103.39999999999999 21.9 7.949999999999999
    endloop
  endfacet
  facet normal 0 0 1
    outer loop
      vertex 103.39999999999999 13.1 7.949999999999999
      vertex 101.8 21.9 7.949999999999999
      vertex 101.8 13.1 7.949999999999999
    endloop
  endfacet
  facet normal 0 0 -1
    outer loop
      vertex 101.8 13.1 7.449999999999999
      vertex 103.39999999999999 21.9 7.449999999999999
      vertex 103.39999999999999 13.1 7.449999999999999
    endloop
  endfacet
  facet normal 0 0 -1
    outer loop
      vertex 103.39999999999999 21.9 7.449999999999999
      vertex 101.8 13.1 7.449999999999999
      vertex 101.8 21.9 7.449999999999999
    endloop
  endfacet
  facet normal 0 -1 0
    outer loop
      vertex 101.8 13.1 7.449999999999999
      vertex 103.39999999999999 13.1 7.949999999999999
      vertex 101.8 13.1 7.949999999999999
    endloop
  endfacet
  facet normal 0 -1 0
    outer loop
      vertex 103.39999999999999 13.1 7.949999999999999
      vertex 101.8 13.1 7.449999999999999
      vertex 103.39999999999999 13.1 7.449999999999999
    endloop
  endfacet
  facet normal 1 0 0
    outer loop
      vertex 103.39999999999999 13.1 7.949999999999999
      vertex 103.39999999999999 21.9 7.449999999999999
      vertex 103.39999999999999 21.9 7.949999999999999
    endloop
  endfacet
  facet normal 1 0 0
    outer loop
      vertex 103.39999999999999 21.9 7.449999999999999
      vertex 103.39999999999999 13.1 7.949999999999999
      vertex 103.39999999999999 13.1 7.449999999999999
    endloop
  endfacet
  facet normal 0 1 0
    outer loop
      vertex 103.39999999999999 21.9 7.449999999999999
      vertex 101.8 21.9 7.949999999999999
      vertex 103.39999999999999 21.9 7.949999999999999
    endloop
  endfacet
  facet normal 0 1 0
    outer loop
      vertex 101.8 21.9 7.949999999999999
      vertex 103.39999999999999 21.9 7.449999999999999
      vertex 101.8 21.9 7.449999999999999
    endloop
  endfacet
  facet normal -1 0 0
    outer loop
      vertex 101.8 13.1 7.449999999999999
      vertex 101.8 21.9 7.949999999999999
      vertex 101.8 21.9 7.449999999999999
    endloop
  endfacet
  facet normal -1 0 0
    outer loop
      vertex 101.8 21.9 7.949999999999999
      vertex 101.8 13.1 7.449999999999999
      vertex 101.8 13.1 7.949999999999999
    endloop
  endfacet
endsolid OpenSCAD_Model
