solid OpenSCAD_Model
  facet normal 0 0 -1
    outer loop
      vertex 103.5170370861888 -13.370590478181839 10.3
      vertex 104.3 -13.8 10.3
      vertex 103.50427757203579 -13.434736907482147 10.3
    endloop
  endfacet
  facet normal 0 0 -1
    outer loop
      vertex 103.50427757203579 -13.434736907482147 10.3
      vertex 104.3 -13.8 10.3
      vertex 103.5 -13.5 10.3
    endloop
  endfacet
  facet normal -0.7518398483870351 0.6593457684533663 0
    outer loop
      vertex 103.60332333296537 -13.195619285106659 10.3
      vertex 103.60332333296537 -13.195619285106659 15.8
      vertex 103.64644660800695 -13.146446608006954 10.3
    endloop
  endfacet
  facet normal -0.8314695944343035 0.5555702597613149 0
    outer loop
      vertex 103.56698729842901 -13.25 10.3
      vertex 103.56698729842901 -13.25 15.8
      vertex 103.60332333296537 -13.195619285106659 10.3
    endloop
  endfacet
  facet normal -0.6593457684533663 0.7518398483870351 0
    outer loop
      vertex 103.69561928510666 -13.103323332965374 10.3
      vertex 103.64644660800695 -13.146446608006954 10.3
      vertex 103.64644660800695 -13.146446608006954 15.8
    endloop
  endfacet
  facet normal -0.44228868448946673 0.8968727443581821 0
    outer loop
      vertex 103.75 -13.066987298429012 10.3
      vertex 103.75 -13.066987298429012 15.8
      vertex 103.80865828692913 -13.03806023299694 10.3
    endloop
  endfacet
  facet normal -0.5555702597613149 0.8314695944343035 0
    outer loop
      vertex 103.69561928510666 -13.103323332965374 10.3
      vertex 103.69561928510666 -13.103323332965374 15.8
      vertex 103.75 -13.066987298429012 10.3
    endloop
  endfacet
  facet normal -0.9469301261132232 0.32143947526586597 0
    outer loop
      vertex 103.53806023299694 -13.30865828692913 10.3
      vertex 103.5170370861888 -13.370590478181839 10.3
      vertex 103.5170370861888 -13.370590478181839 15.8
    endloop
  endfacet
  facet normal -0.8968727443581821 0.44228868448946673 0
    outer loop
      vertex 103.56698729842901 -13.25 10.3
      vertex 103.53806023299694 -13.30865828692913 10.3
      vertex 103.53806023299694 -13.30865828692913 15.8
    endloop
  endfacet
  facet normal -0.9807852919828636 0.19509026380137226 0
    outer loop
      vertex 103.5170370861888 -13.370590478181839 10.3
      vertex 103.50427757203579 -13.434736907482147 10.3
      vertex 103.50427757203579 -13.434736907482147 15.8
    endloop
  endfacet
  facet normal -0.9978589202867977 0.06540317426597998 0
    outer loop
      vertex 103.50427757203579 -13.434736907482147 10.3
      vertex 103.5 -13.5 10.3
      vertex 103.5 -13.5 15.8
    endloop
  endfacet
  facet normal -0.32143947526586597 0.9469301261132232 0
    outer loop
      vertex 103.80865828692913 -13.03806023299694 10.3
      vertex 103.80865828692913 -13.03806023299694 15.8
      vertex 103.87059047818184 -13.017037086188793 10.3
    endloop
  endfacet
  facet normal -0.19509026380137226 0.9807852919828636 0
    outer loop
      vertex 103.87059047818184 -13.017037086188793 10.3
      vertex 103.87059047818184 -13.017037086188793 15.8
      vertex 103.93473690748215 -13.00427757203579 10.3
    endloop
  endfacet
  facet normal -0.06540317426597998 0.9978589202867977 0
    outer loop
      vertex 103.93473690748215 -13.00427757203579 10.3
      vertex 103.93473690748215 -13.00427757203579 15.8
      vertex 104 -13 10.3
    endloop
  endfacet
  facet normal 0 0 -1
    outer loop
      vertex 103.5 -13.5 10.3
      vertex 104.3 -13.8 10.3
      vertex 103.5 -21.5 10.3
    endloop
  endfacet
  facet normal 0 0 -1
    outer loop
      vertex 103.69561928510666 -13.103323332965374 10.3
      vertex 112.43301270157099 -13.25 10.3
      vertex 103.64644660800695 -13.146446608006954 10.3
    endloop
  endfacet
  facet normal 0 0 -1
    outer loop
      vertex 103.56698729842901 -13.25 10.3
      vertex 103.60332333296537 -13.195619285106659 10.3
      vertex 112.4829629138112 -13.370590478181839 10.3
    endloop
  endfacet
  facet normal 0 0 -1
    outer loop
      vertex 103.60332333296537 -13.195619285106659 10.3
      vertex 103.64644660800695 -13.146446608006954 10.3
      vertex 112.46193976700306 -13.30865828692913 10.3
    endloop
  endfacet
  facet normal 0 0 -1
    outer loop
      vertex 103.53806023299694 -13.30865828692913 10.3
      vertex 112.5 -13.5 10.3
      vertex 103.5170370861888 -13.370590478181839 10.3
    endloop
  endfacet
  facet normal 0 0 -1
    outer loop
      vertex 103.56698729842901 -13.25 10.3
      vertex 112.49572242796421 -13.434736907482147 10.3
      vertex 103.53806023299694 -13.30865828692913 10.3
    endloop
  endfacet
  facet normal 0 0 -1
    outer loop
      vertex 103.80865828692913 -13.03806023299694 10.3
      vertex 103.87059047818184 -13.017037086188793 10.3
      vertex 112.30438071489334 -13.103323332965374 10.3
    endloop
  endfacet
  facet normal 0 0 -1
    outer loop
      vertex 103.69561928510666 -13.103323332965374 10.3
      vertex 103.75 -13.066987298429012 10.3
      vertex 112.39667666703463 -13.195619285106659 10.3
    endloop
  endfacet
  facet normal 0 0 -1
    outer loop
      vertex 103.75 -13.066987298429012 10.3
      vertex 103.80865828692913 -13.03806023299694 10.3
      vertex 112.35355339199305 -13.146446608006954 10.3
    endloop
  endfacet
  facet normal 0 0 -1
    outer loop
      vertex 103.87059047818184 -13.017037086188793 10.3
      vertex 103.93473690748215 -13.00427757203579 10.3
      vertex 112.25 -13.066987298429012 10.3
    endloop
  endfacet
  facet normal 0 0 -1
    outer loop
      vertex 103.93473690748215 -13.00427757203579 10.3
      vertex 104 -13 10.3
      vertex 112.19134171307087 -13.03806023299694 10.3
    endloop
  endfacet
  facet normal 0 0 -1
    outer loop
      vertex 103.5170370861888 -13.370590478181839 10.3
      vertex 112.5 -13.5 10.3
      vertex 104.3 -13.8 10.3
    endloop
  endfacet
  facet normal 0 1 0
    outer loop
      vertex 104 -13 10.3
      vertex 104 -13 15.8
      vertex 112 -13 10.3
    endloop
  endfacet
  facet normal -0.8968727443581821 0.44228868448946673 0
    outer loop
      vertex 103.56698729842901 -13.25 10.3
      vertex 103.53806023299694 -13.30865828692913 15.8
      vertex 103.56698729842901 -13.25 15.8
    endloop
  endfacet
  facet normal -0.7518398483870351 0.6593457684533663 0
    outer loop
      vertex 103.64644660800695 -13.146446608006954 10.3
      vertex 103.60332333296537 -13.195619285106659 15.8
      vertex 103.64644660800695 -13.146446608006954 15.8
    endloop
  endfacet
  facet normal -0.8314695944343035 0.5555702597613149 0
    outer loop
      vertex 103.60332333296537 -13.195619285106659 10.3
      vertex 103.56698729842901 -13.25 15.8
      vertex 103.60332333296537 -13.195619285106659 15.8
    endloop
  endfacet
  facet normal -0.6593457684533663 0.7518398483870351 0
    outer loop
      vertex 103.69561928510666 -13.103323332965374 10.3
      vertex 103.64644660800695 -13.146446608006954 15.8
      vertex 103.69561928510666 -13.103323332965374 15.8
    endloop
  endfacet
  facet normal -0.5555702597613149 0.8314695944343035 0
    outer loop
      vertex 103.75 -13.066987298429012 10.3
      vertex 103.69561928510666 -13.103323332965374 15.8
      vertex 103.75 -13.066987298429012 15.8
    endloop
  endfacet
  facet normal -0.9469301261132232 0.32143947526586597 0
    outer loop
      vertex 103.53806023299694 -13.30865828692913 10.3
      vertex 103.5170370861888 -13.370590478181839 15.8
      vertex 103.53806023299694 -13.30865828692913 15.8
    endloop
  endfacet
  facet normal -0.9807852919828636 0.19509026380137226 0
    outer loop
      vertex 103.5170370861888 -13.370590478181839 10.3
      vertex 103.50427757203579 -13.434736907482147 15.8
      vertex 103.5170370861888 -13.370590478181839 15.8
    endloop
  endfacet
  facet normal -0.9978589202867977 0.06540317426597998 0
    outer loop
      vertex 103.50427757203579 -13.434736907482147 10.3
      vertex 103.5 -13.5 15.8
      vertex 103.50427757203579 -13.434736907482147 15.8
    endloop
  endfacet
  facet normal -0.44228868448946673 0.8968727443581821 0
    outer loop
      vertex 103.80865828692913 -13.03806023299694 10.3
      vertex 103.75 -13.066987298429012 15.8
      vertex 103.80865828692913 -13.03806023299694 15.8
    endloop
  endfacet
  facet normal -0.32143947526586597 0.9469301261132232 0
    outer loop
      vertex 103.87059047818184 -13.017037086188793 10.3
      vertex 103.80865828692913 -13.03806023299694 15.8
      vertex 103.87059047818184 -13.017037086188793 15.8
    endloop
  endfacet
  facet normal -0.19509026380137226 0.9807852919828636 0
    outer loop
      vertex 103.93473690748215 -13.00427757203579 10.3
      vertex 103.87059047818184 -13.017037086188793 15.8
      vertex 103.93473690748215 -13.00427757203579 15.8
    endloop
  endfacet
  facet normal -0.06540317426597998 0.9978589202867977 0
    outer loop
      vertex 104 -13 10.3
      vertex 103.93473690748215 -13.00427757203579 15.8
      vertex 104 -13 15.8
    endloop
  endfacet
  facet normal -1 0 0
    outer loop
      vertex 103.5 -13.5 10.3
      vertex 103.5 -21.5 15.8
      vertex 103.5 -13.5 15.8
    endloop
  endfacet
  facet normal 0 0 1
    outer loop
      vertex 103.69561928510666 -13.103323332965374 15.8
      vertex 103.64644660800695 -13.146446608006954 15.8
      vertex 112.43301270157099 -13.25 15.8
    endloop
  endfacet
  facet normal 0 0 1
    outer loop
      vertex 103.56698729842901 -13.25 15.8
      vertex 112.4829629138112 -13.370590478181839 15.8
      vertex 103.60332333296537 -13.195619285106659 15.8
    endloop
  endfacet
  facet normal 0 0 1
    outer loop
      vertex 103.60332333296537 -13.195619285106659 15.8
      vertex 112.46193976700306 -13.30865828692913 15.8
      vertex 103.64644660800695 -13.146446608006954 15.8
    endloop
  endfacet
  facet normal 0 0 1
    outer loop
      vertex 103.53806023299694 -13.30865828692913 15.8
      vertex 103.5170370861888 -13.370590478181839 15.8
      vertex 112.5 -13.5 15.8
    endloop
  endfacet
  facet normal 0 0 1
    outer loop
      vertex 103.56698729842901 -13.25 15.8
      vertex 103.53806023299694 -13.30865828692913 15.8
      vertex 112.49572242796421 -13.434736907482147 15.8
    endloop
  endfacet
  facet normal 0 0 1
    outer loop
      vertex 103.80865828692913 -13.03806023299694 15.8
      vertex 112.30438071489334 -13.103323332965374 15.8
      vertex 103.87059047818184 -13.017037086188793 15.8
    endloop
  endfacet
  facet normal 0 0 1
    outer loop
      vertex 103.69561928510666 -13.103323332965374 15.8
      vertex 112.39667666703463 -13.195619285106659 15.8
      vertex 103.75 -13.066987298429012 15.8
    endloop
  endfacet
  facet normal 0 0 1
    outer loop
      vertex 103.75 -13.066987298429012 15.8
      vertex 112.35355339199305 -13.146446608006954 15.8
      vertex 103.80865828692913 -13.03806023299694 15.8
    endloop
  endfacet
  facet normal 0 0 1
    outer loop
      vertex 103.87059047818184 -13.017037086188793 15.8
      vertex 112.25 -13.066987298429012 15.8
      vertex 103.93473690748215 -13.00427757203579 15.8
    endloop
  endfacet
  facet normal 0 0 1
    outer loop
      vertex 103.93473690748215 -13.00427757203579 15.8
      vertex 112.19134171307087 -13.03806023299694 15.8
      vertex 104 -13 15.8
    endloop
  endfacet
  facet normal 0 0 1
    outer loop
      vertex 103.5170370861888 -13.370590478181839 15.8
      vertex 103.50427757203579 -13.434736907482147 15.8
      vertex 112.5 -21.5 15.8
    endloop
  endfacet
  facet normal 0 0 1
    outer loop
      vertex 103.50427757203579 -13.434736907482147 15.8
      vertex 103.5 -13.5 15.8
      vertex 112.49572242796421 -21.565263092517853 15.8
    endloop
  endfacet
  facet normal 0 0 -1
    outer loop
      vertex 103.5 -21.5 10.3
      vertex 104.3 -13.8 10.3
      vertex 104.3 -21.200000000000003 10.3
    endloop
  endfacet
  facet normal -1 0 0
    outer loop
      vertex 103.5 -13.5 10.3
      vertex 103.5 -21.5 10.3
      vertex 103.5 -21.5 15.8
    endloop
  endfacet
  facet normal 0 0 -1
    outer loop
      vertex 103.87059047818184 -21.982962913811207 10.3
      vertex 104 -22 10.3
      vertex 103.93473690748215 -21.99572242796421 10.3
    endloop
  endfacet
  facet normal -0.9978589202867977 -0.06540317426597998 0
    outer loop
      vertex 103.5 -21.5 10.3
      vertex 103.50427757203579 -21.565263092517853 10.3
      vertex 103.50427757203579 -21.565263092517853 15.8
    endloop
  endfacet
  facet normal -0.9807852919828636 -0.19509026380137226 0
    outer loop
      vertex 103.50427757203579 -21.565263092517853 10.3
      vertex 103.5170370861888 -21.62940952181816 10.3
      vertex 103.5170370861888 -21.62940952181816 15.8
    endloop
  endfacet
  facet normal -0.9469301261132232 -0.32143947526586597 0
    outer loop
      vertex 103.5170370861888 -21.62940952181816 10.3
      vertex 103.53806023299694 -21.69134171307087 10.3
      vertex 103.53806023299694 -21.69134171307087 15.8
    endloop
  endfacet
  facet normal -0.8968727443581821 -0.44228868448946673 0
    outer loop
      vertex 103.53806023299694 -21.69134171307087 10.3
      vertex 103.56698729842901 -21.75 10.3
      vertex 103.56698729842901 -21.75 15.8
    endloop
  endfacet
  facet normal -0.8314695944343035 -0.5555702597613149 0
    outer loop
      vertex 103.56698729842901 -21.75 10.3
      vertex 103.60332333296537 -21.80438071489334 10.3
      vertex 103.60332333296537 -21.80438071489334 15.8
    endloop
  endfacet
  facet normal -0.7518398483870351 -0.6593457684533663 0
    outer loop
      vertex 103.60332333296537 -21.80438071489334 10.3
      vertex 103.64644660800695 -21.853553391993046 10.3
      vertex 103.64644660800695 -21.853553391993046 15.8
    endloop
  endfacet
  facet normal -0.6593457684533663 -0.7518398483870351 0
    outer loop
      vertex 103.64644660800695 -21.853553391993046 10.3
      vertex 103.69561928510666 -21.896676667034626 10.3
      vertex 103.69561928510666 -21.896676667034626 15.8
    endloop
  endfacet
  facet normal -0.5555702597613149 -0.8314695944343035 0
    outer loop
      vertex 103.69561928510666 -21.896676667034626 10.3
      vertex 103.75 -21.933012701570988 10.3
      vertex 103.75 -21.933012701570988 15.8
    endloop
  endfacet
  facet normal -0.44228868448946673 -0.8968727443581821 0
    outer loop
      vertex 103.75 -21.933012701570988 10.3
      vertex 103.80865828692913 -21.96193976700306 10.3
      vertex 103.80865828692913 -21.96193976700306 15.8
    endloop
  endfacet
  facet normal -0.32143947526586597 -0.9469301261132232 0
    outer loop
      vertex 103.80865828692913 -21.96193976700306 10.3
      vertex 103.87059047818184 -21.982962913811207 10.3
      vertex 103.87059047818184 -21.982962913811207 15.8
    endloop
  endfacet
  facet normal -0.19509026380137226 -0.9807852919828636 0
    outer loop
      vertex 103.87059047818184 -21.982962913811207 10.3
      vertex 103.93473690748215 -21.99572242796421 10.3
      vertex 103.93473690748215 -21.99572242796421 15.8
    endloop
  endfacet
  facet normal -0.06540317426597998 -0.9978589202867977 0
    outer loop
      vertex 103.93473690748215 -21.99572242796421 10.3
      vertex 104 -22 10.3
      vertex 104 -22 15.8
    endloop
  endfacet
  facet normal 0 0 -1
    outer loop
      vertex 103.5 -21.5 10.3
      vertex 104.3 -21.200000000000003 10.3
      vertex 111.7 -21.200000000000003 10.3
    endloop
  endfacet
  facet normal 0 0 -1
    outer loop
      vertex 103.50427757203579 -21.565263092517853 10.3
      vertex 112.43301270157099 -21.75 10.3
      vertex 103.5170370861888 -21.62940952181816 10.3
    endloop
  endfacet
  facet normal 0 0 -1
    outer loop
      vertex 103.5 -21.5 10.3
      vertex 112.46193976700306 -21.69134171307087 10.3
      vertex 103.50427757203579 -21.565263092517853 10.3
    endloop
  endfacet
  facet normal 0 0 -1
    outer loop
      vertex 103.5170370861888 -21.62940952181816 10.3
      vertex 112.39667666703463 -21.80438071489334 10.3
      vertex 103.53806023299694 -21.69134171307087 10.3
    endloop
  endfacet
  facet normal 0 0 -1
    outer loop
      vertex 103.53806023299694 -21.69134171307087 10.3
      vertex 112.35355339199305 -21.853553391993046 10.3
      vertex 103.56698729842901 -21.75 10.3
    endloop
  endfacet
  facet normal 0 0 -1
    outer loop
      vertex 103.56698729842901 -21.75 10.3
      vertex 112.30438071489334 -21.896676667034626 10.3
      vertex 103.60332333296537 -21.80438071489334 10.3
    endloop
  endfacet
  facet normal 0 0 -1
    outer loop
      vertex 103.60332333296537 -21.80438071489334 10.3
      vertex 112.25 -21.933012701570988 10.3
      vertex 103.64644660800695 -21.853553391993046 10.3
    endloop
  endfacet
  facet normal 0 0 -1
    outer loop
      vertex 103.64644660800695 -21.853553391993046 10.3
      vertex 112.19134171307087 -21.96193976700306 10.3
      vertex 103.69561928510666 -21.896676667034626 10.3
    endloop
  endfacet
  facet normal 0 0 -1
    outer loop
      vertex 103.69561928510666 -21.896676667034626 10.3
      vertex 112.12940952181816 -21.982962913811207 10.3
      vertex 103.75 -21.933012701570988 10.3
    endloop
  endfacet
  facet normal 0 0 -1
    outer loop
      vertex 103.75 -21.933012701570988 10.3
      vertex 112.06526309251785 -21.99572242796421 10.3
      vertex 103.80865828692913 -21.96193976700306 10.3
    endloop
  endfacet
  facet normal 0 0 -1
    outer loop
      vertex 103.80865828692913 -21.96193976700306 10.3
      vertex 112 -22 10.3
      vertex 103.87059047818184 -21.982962913811207 10.3
    endloop
  endfacet
  facet normal 0 0 -1
    outer loop
      vertex 103.87059047818184 -21.982962913811207 10.3
      vertex 112 -22 10.3
      vertex 104 -22 10.3
    endloop
  endfacet
  facet normal -0.9978589202867977 -0.06540317426597998 0
    outer loop
      vertex 103.5 -21.5 10.3
      vertex 103.50427757203579 -21.565263092517853 15.8
      vertex 103.5 -21.5 15.8
    endloop
  endfacet
  facet normal -0.9807852919828636 -0.19509026380137226 0
    outer loop
      vertex 103.50427757203579 -21.565263092517853 10.3
      vertex 103.5170370861888 -21.62940952181816 15.8
      vertex 103.50427757203579 -21.565263092517853 15.8
    endloop
  endfacet
  facet normal -0.9469301261132232 -0.32143947526586597 0
    outer loop
      vertex 103.5170370861888 -21.62940952181816 10.3
      vertex 103.53806023299694 -21.69134171307087 15.8
      vertex 103.5170370861888 -21.62940952181816 15.8
    endloop
  endfacet
  facet normal -0.8968727443581821 -0.44228868448946673 0
    outer loop
      vertex 103.53806023299694 -21.69134171307087 10.3
      vertex 103.56698729842901 -21.75 15.8
      vertex 103.53806023299694 -21.69134171307087 15.8
    endloop
  endfacet
  facet normal -0.8314695944343035 -0.5555702597613149 0
    outer loop
      vertex 103.56698729842901 -21.75 10.3
      vertex 103.60332333296537 -21.80438071489334 15.8
      vertex 103.56698729842901 -21.75 15.8
    endloop
  endfacet
  facet normal -0.7518398483870351 -0.6593457684533663 0
    outer loop
      vertex 103.60332333296537 -21.80438071489334 10.3
      vertex 103.64644660800695 -21.853553391993046 15.8
      vertex 103.60332333296537 -21.80438071489334 15.8
    endloop
  endfacet
  facet normal -0.6593457684533663 -0.7518398483870351 0
    outer loop
      vertex 103.64644660800695 -21.853553391993046 10.3
      vertex 103.69561928510666 -21.896676667034626 15.8
      vertex 103.64644660800695 -21.853553391993046 15.8
    endloop
  endfacet
  facet normal -0.5555702597613149 -0.8314695944343035 0
    outer loop
      vertex 103.69561928510666 -21.896676667034626 10.3
      vertex 103.75 -21.933012701570988 15.8
      vertex 103.69561928510666 -21.896676667034626 15.8
    endloop
  endfacet
  facet normal -0.44228868448946673 -0.8968727443581821 0
    outer loop
      vertex 103.75 -21.933012701570988 10.3
      vertex 103.80865828692913 -21.96193976700306 15.8
      vertex 103.75 -21.933012701570988 15.8
    endloop
  endfacet
  facet normal -0.32143947526586597 -0.9469301261132232 0
    outer loop
      vertex 103.80865828692913 -21.96193976700306 10.3
      vertex 103.87059047818184 -21.982962913811207 15.8
      vertex 103.80865828692913 -21.96193976700306 15.8
    endloop
  endfacet
  facet normal -0.19509026380137226 -0.9807852919828636 0
    outer loop
      vertex 103.87059047818184 -21.982962913811207 10.3
      vertex 103.93473690748215 -21.99572242796421 15.8
      vertex 103.87059047818184 -21.982962913811207 15.8
    endloop
  endfacet
  facet normal -0.06540317426597998 -0.9978589202867977 0
    outer loop
      vertex 103.93473690748215 -21.99572242796421 10.3
      vertex 104 -22 15.8
      vertex 103.93473690748215 -21.99572242796421 15.8
    endloop
  endfacet
  facet normal 0 0 1
    outer loop
      vertex 103.87059047818184 -21.982962913811207 15.8
      vertex 103.93473690748215 -21.99572242796421 15.8
      vertex 104 -22 15.8
    endloop
  endfacet
  facet normal 0 0 1
    outer loop
      vertex 103.5 -13.5 15.8
      vertex 103.5 -21.5 15.8
      vertex 112.4829629138112 -21.62940952181816 15.8
    endloop
  endfacet
  facet normal 0 -1 0
    outer loop
      vertex 104 -22 10.3
      vertex 112 -22 15.8
      vertex 104 -22 15.8
    endloop
  endfacet
  facet normal 0 0 1
    outer loop
      vertex 103.50427757203579 -21.565263092517853 15.8
      vertex 103.5170370861888 -21.62940952181816 15.8
      vertex 112.43301270157099 -21.75 15.8
    endloop
  endfacet
  facet normal 0 0 1
    outer loop
      vertex 103.5 -21.5 15.8
      vertex 103.50427757203579 -21.565263092517853 15.8
      vertex 112.46193976700306 -21.69134171307087 15.8
    endloop
  endfacet
  facet normal 0 0 1
    outer loop
      vertex 103.5170370861888 -21.62940952181816 15.8
      vertex 103.53806023299694 -21.69134171307087 15.8
      vertex 112.39667666703463 -21.80438071489334 15.8
    endloop
  endfacet
  facet normal 0 0 1
    outer loop
      vertex 103.53806023299694 -21.69134171307087 15.8
      vertex 103.56698729842901 -21.75 15.8
      vertex 112.35355339199305 -21.853553391993046 15.8
    endloop
  endfacet
  facet normal 0 0 1
    outer loop
      vertex 103.56698729842901 -21.75 15.8
      vertex 103.60332333296537 -21.80438071489334 15.8
      vertex 112.30438071489334 -21.896676667034626 15.8
    endloop
  endfacet
  facet normal 0 0 1
    outer loop
      vertex 103.60332333296537 -21.80438071489334 15.8
      vertex 103.64644660800695 -21.853553391993046 15.8
      vertex 112.25 -21.933012701570988 15.8
    endloop
  endfacet
  facet normal 0 0 1
    outer loop
      vertex 103.64644660800695 -21.853553391993046 15.8
      vertex 103.69561928510666 -21.896676667034626 15.8
      vertex 112.19134171307087 -21.96193976700306 15.8
    endloop
  endfacet
  facet normal 0 0 1
    outer loop
      vertex 103.69561928510666 -21.896676667034626 15.8
      vertex 103.75 -21.933012701570988 15.8
      vertex 112.12940952181816 -21.982962913811207 15.8
    endloop
  endfacet
  facet normal 0 0 1
    outer loop
      vertex 103.75 -21.933012701570988 15.8
      vertex 103.80865828692913 -21.96193976700306 15.8
      vertex 112.06526309251785 -21.99572242796421 15.8
    endloop
  endfacet
  facet normal 0 0 1
    outer loop
      vertex 103.80865828692913 -21.96193976700306 15.8
      vertex 103.87059047818184 -21.982962913811207 15.8
      vertex 112 -22 15.8
    endloop
  endfacet
  facet normal 0 0 1
    outer loop
      vertex 103.87059047818184 -21.982962913811207 15.8
      vertex 104 -22 15.8
      vertex 112 -22 15.8
    endloop
  endfacet
  facet normal 0 0 -1
    outer loop
      vertex 104 -13 10.3
      vertex 112 -13 10.3
      vertex 112.12940952181816 -13.017037086188793 10.3
    endloop
  endfacet
  facet normal 0 0 -1
    outer loop
      vertex 104 -13 10.3
      vertex 112.12940952181816 -13.017037086188793 10.3
      vertex 112.19134171307087 -13.03806023299694 10.3
    endloop
  endfacet
  facet normal 0 0 -1
    outer loop
      vertex 103.93473690748215 -13.00427757203579 10.3
      vertex 112.19134171307087 -13.03806023299694 10.3
      vertex 112.25 -13.066987298429012 10.3
    endloop
  endfacet
  facet normal 0 0 -1
    outer loop
      vertex 103.87059047818184 -13.017037086188793 10.3
      vertex 112.25 -13.066987298429012 10.3
      vertex 112.30438071489334 -13.103323332965374 10.3
    endloop
  endfacet
  facet normal 0 0 -1
    outer loop
      vertex 103.80865828692913 -13.03806023299694 10.3
      vertex 112.30438071489334 -13.103323332965374 10.3
      vertex 112.35355339199305 -13.146446608006954 10.3
    endloop
  endfacet
  facet normal 0 0 -1
    outer loop
      vertex 103.75 -13.066987298429012 10.3
      vertex 112.35355339199305 -13.146446608006954 10.3
      vertex 112.39667666703463 -13.195619285106659 10.3
    endloop
  endfacet
  facet normal 0 0 -1
    outer loop
      vertex 103.69561928510666 -13.103323332965374 10.3
      vertex 112.39667666703463 -13.195619285106659 10.3
      vertex 112.43301270157099 -13.25 10.3
    endloop
  endfacet
  facet normal 0 0 -1
    outer loop
      vertex 103.64644660800695 -13.146446608006954 10.3
      vertex 112.43301270157099 -13.25 10.3
      vertex 112.46193976700306 -13.30865828692913 10.3
    endloop
  endfacet
  facet normal 0 0 -1
    outer loop
      vertex 103.60332333296537 -13.195619285106659 10.3
      vertex 112.46193976700306 -13.30865828692913 10.3
      vertex 112.4829629138112 -13.370590478181839 10.3
    endloop
  endfacet
  facet normal 0 0 -1
    outer loop
      vertex 103.53806023299694 -13.30865828692913 10.3
      vertex 112.49572242796421 -13.434736907482147 10.3
      vertex 112.5 -13.5 10.3
    endloop
  endfacet
  facet normal 0 0 -1
    outer loop
      vertex 103.56698729842901 -13.25 10.3
      vertex 112.4829629138112 -13.370590478181839 10.3
      vertex 112.49572242796421 -13.434736907482147 10.3
    endloop
  endfacet
  facet normal 0 0 -1
    outer loop
      vertex 112.5 -13.5 10.3
      vertex 111.7 -13.8 10.3
      vertex 104.3 -13.8 10.3
    endloop
  endfacet
  facet normal 0 0 -1
    outer loop
      vertex 112 -13 10.3
      vertex 112.06526309251785 -13.00427757203579 10.3
      vertex 112.12940952181816 -13.017037086188793 10.3
    endloop
  endfacet
  facet normal 0.06540317426597998 0.9978589202867977 0
    outer loop
      vertex 112 -13 10.3
      vertex 112 -13 15.8
      vertex 112.06526309251785 -13.00427757203579 10.3
    endloop
  endfacet
  facet normal 0.19509026380137226 0.9807852919828636 0
    outer loop
      vertex 112.06526309251785 -13.00427757203579 10.3
      vertex 112.06526309251785 -13.00427757203579 15.8
      vertex 112.12940952181816 -13.017037086188793 10.3
    endloop
  endfacet
  facet normal 0.32143947526586597 0.9469301261132232 0
    outer loop
      vertex 112.12940952181816 -13.017037086188793 10.3
      vertex 112.12940952181816 -13.017037086188793 15.8
      vertex 112.19134171307087 -13.03806023299694 10.3
    endloop
  endfacet
  facet normal 0.44228868448946673 0.8968727443581821 0
    outer loop
      vertex 112.19134171307087 -13.03806023299694 10.3
      vertex 112.19134171307087 -13.03806023299694 15.8
      vertex 112.25 -13.066987298429012 10.3
    endloop
  endfacet
  facet normal 0.5555702597613149 0.8314695944343035 0
    outer loop
      vertex 112.25 -13.066987298429012 10.3
      vertex 112.25 -13.066987298429012 15.8
      vertex 112.30438071489334 -13.103323332965374 10.3
    endloop
  endfacet
  facet normal 0.6593457684533663 0.7518398483870351 0
    outer loop
      vertex 112.30438071489334 -13.103323332965374 10.3
      vertex 112.30438071489334 -13.103323332965374 15.8
      vertex 112.35355339199305 -13.146446608006954 10.3
    endloop
  endfacet
  facet normal 0.7518398483870351 0.6593457684533663 0
    outer loop
      vertex 112.35355339199305 -13.146446608006954 10.3
      vertex 112.35355339199305 -13.146446608006954 15.8
      vertex 112.39667666703463 -13.195619285106659 10.3
    endloop
  endfacet
  facet normal 0.8314695944343035 0.5555702597613149 0
    outer loop
      vertex 112.39667666703463 -13.195619285106659 10.3
      vertex 112.39667666703463 -13.195619285106659 15.8
      vertex 112.43301270157099 -13.25 10.3
    endloop
  endfacet
  facet normal 0.8968727443581821 0.44228868448946673 0
    outer loop
      vertex 112.43301270157099 -13.25 10.3
      vertex 112.43301270157099 -13.25 15.8
      vertex 112.46193976700306 -13.30865828692913 10.3
    endloop
  endfacet
  facet normal 0.9469301261132232 0.32143947526586597 0
    outer loop
      vertex 112.46193976700306 -13.30865828692913 10.3
      vertex 112.46193976700306 -13.30865828692913 15.8
      vertex 112.4829629138112 -13.370590478181839 10.3
    endloop
  endfacet
  facet normal 0.9807852919828636 0.19509026380137226 0
    outer loop
      vertex 112.4829629138112 -13.370590478181839 10.3
      vertex 112.4829629138112 -13.370590478181839 15.8
      vertex 112.49572242796421 -13.434736907482147 10.3
    endloop
  endfacet
  facet normal 0.9978589202867977 0.06540317426597998 0
    outer loop
      vertex 112.49572242796421 -13.434736907482147 10.3
      vertex 112.49572242796421 -13.434736907482147 15.8
      vertex 112.5 -13.5 10.3
    endloop
  endfacet
  facet normal 0 0 -1
    outer loop
      vertex 112.5 -13.5 10.3
      vertex 111.7 -21.200000000000003 10.3
      vertex 111.7 -13.8 10.3
    endloop
  endfacet
  facet normal 1 0 0
    outer loop
      vertex 112.5 -13.5 10.3
      vertex 112.5 -13.5 15.8
      vertex 112.5 -21.5 10.3
    endloop
  endfacet
  facet normal 0 1 0
    outer loop
      vertex 104 -13 15.8
      vertex 112 -13 15.8
      vertex 112 -13 10.3
    endloop
  endfacet
  facet normal 0 0 1
    outer loop
      vertex 104 -13 15.8
      vertex 112.12940952181816 -13.017037086188793 15.8
      vertex 112 -13 15.8
    endloop
  endfacet
  facet normal 0 0 1
    outer loop
      vertex 104 -13 15.8
      vertex 112.19134171307087 -13.03806023299694 15.8
      vertex 112.12940952181816 -13.017037086188793 15.8
    endloop
  endfacet
  facet normal 0 0 1
    outer loop
      vertex 103.93473690748215 -13.00427757203579 15.8
      vertex 112.25 -13.066987298429012 15.8
      vertex 112.19134171307087 -13.03806023299694 15.8
    endloop
  endfacet
  facet normal 0 0 1
    outer loop
      vertex 103.87059047818184 -13.017037086188793 15.8
      vertex 112.30438071489334 -13.103323332965374 15.8
      vertex 112.25 -13.066987298429012 15.8
    endloop
  endfacet
  facet normal 0 0 1
    outer loop
      vertex 103.80865828692913 -13.03806023299694 15.8
      vertex 112.35355339199305 -13.146446608006954 15.8
      vertex 112.30438071489334 -13.103323332965374 15.8
    endloop
  endfacet
  facet normal 0 0 1
    outer loop
      vertex 103.75 -13.066987298429012 15.8
      vertex 112.39667666703463 -13.195619285106659 15.8
      vertex 112.35355339199305 -13.146446608006954 15.8
    endloop
  endfacet
  facet normal 0 0 1
    outer loop
      vertex 103.69561928510666 -13.103323332965374 15.8
      vertex 112.43301270157099 -13.25 15.8
      vertex 112.39667666703463 -13.195619285106659 15.8
    endloop
  endfacet
  facet normal 0 0 1
    outer loop
      vertex 103.64644660800695 -13.146446608006954 15.8
      vertex 112.46193976700306 -13.30865828692913 15.8
      vertex 112.43301270157099 -13.25 15.8
    endloop
  endfacet
  facet normal 0 0 1
    outer loop
      vertex 103.60332333296537 -13.195619285106659 15.8
      vertex 112.4829629138112 -13.370590478181839 15.8
      vertex 112.46193976700306 -13.30865828692913 15.8
    endloop
  endfacet
  facet normal 0 0 1
    outer loop
      vertex 103.53806023299694 -13.30865828692913 15.8
      vertex 112.5 -13.5 15.8
      vertex 112.49572242796421 -13.434736907482147 15.8
    endloop
  endfacet
  facet normal 0 0 1
    outer loop
      vertex 103.56698729842901 -13.25 15.8
      vertex 112.49572242796421 -13.434736907482147 15.8
      vertex 112.4829629138112 -13.370590478181839 15.8
    endloop
  endfacet
  facet normal 0 0 1
    outer loop
      vertex 103.5170370861888 -13.370590478181839 15.8
      vertex 112.5 -21.5 15.8
      vertex 112.5 -13.5 15.8
    endloop
  endfacet
  facet normal 0.06540317426597998 0.9978589202867977 0
    outer loop
      vertex 112.06526309251785 -13.00427757203579 10.3
      vertex 112 -13 15.8
      vertex 112.06526309251785 -13.00427757203579 15.8
    endloop
  endfacet
  facet normal 0.19509026380137226 0.9807852919828636 0
    outer loop
      vertex 112.12940952181816 -13.017037086188793 10.3
      vertex 112.06526309251785 -13.00427757203579 15.8
      vertex 112.12940952181816 -13.017037086188793 15.8
    endloop
  endfacet
  facet normal 0.32143947526586597 0.9469301261132232 0
    outer loop
      vertex 112.19134171307087 -13.03806023299694 10.3
      vertex 112.12940952181816 -13.017037086188793 15.8
      vertex 112.19134171307087 -13.03806023299694 15.8
    endloop
  endfacet
  facet normal 0.44228868448946673 0.8968727443581821 0
    outer loop
      vertex 112.25 -13.066987298429012 10.3
      vertex 112.19134171307087 -13.03806023299694 15.8
      vertex 112.25 -13.066987298429012 15.8
    endloop
  endfacet
  facet normal 0.5555702597613149 0.8314695944343035 0
    outer loop
      vertex 112.30438071489334 -13.103323332965374 10.3
      vertex 112.25 -13.066987298429012 15.8
      vertex 112.30438071489334 -13.103323332965374 15.8
    endloop
  endfacet
  facet normal 0.6593457684533663 0.7518398483870351 0
    outer loop
      vertex 112.35355339199305 -13.146446608006954 10.3
      vertex 112.30438071489334 -13.103323332965374 15.8
      vertex 112.35355339199305 -13.146446608006954 15.8
    endloop
  endfacet
  facet normal 0.7518398483870351 0.6593457684533663 0
    outer loop
      vertex 112.39667666703463 -13.195619285106659 10.3
      vertex 112.35355339199305 -13.146446608006954 15.8
      vertex 112.39667666703463 -13.195619285106659 15.8
    endloop
  endfacet
  facet normal 0.8314695944343035 0.5555702597613149 0
    outer loop
      vertex 112.43301270157099 -13.25 10.3
      vertex 112.39667666703463 -13.195619285106659 15.8
      vertex 112.43301270157099 -13.25 15.8
    endloop
  endfacet
  facet normal 0.8968727443581821 0.44228868448946673 0
    outer loop
      vertex 112.46193976700306 -13.30865828692913 10.3
      vertex 112.43301270157099 -13.25 15.8
      vertex 112.46193976700306 -13.30865828692913 15.8
    endloop
  endfacet
  facet normal 0.9469301261132232 0.32143947526586597 0
    outer loop
      vertex 112.4829629138112 -13.370590478181839 10.3
      vertex 112.46193976700306 -13.30865828692913 15.8
      vertex 112.4829629138112 -13.370590478181839 15.8
    endloop
  endfacet
  facet normal 0.9807852919828636 0.19509026380137226 0
    outer loop
      vertex 112.49572242796421 -13.434736907482147 10.3
      vertex 112.4829629138112 -13.370590478181839 15.8
      vertex 112.49572242796421 -13.434736907482147 15.8
    endloop
  endfacet
  facet normal 0.9978589202867977 0.06540317426597998 0
    outer loop
      vertex 112.5 -13.5 10.3
      vertex 112.49572242796421 -13.434736907482147 15.8
      vertex 112.5 -13.5 15.8
    endloop
  endfacet
  facet normal 0 0 1
    outer loop
      vertex 112 -13 15.8
      vertex 112.12940952181816 -13.017037086188793 15.8
      vertex 112.06526309251785 -13.00427757203579 15.8
    endloop
  endfacet
  facet normal 0 0 -1
    outer loop
      vertex 103.5 -21.5 10.3
      vertex 111.7 -21.200000000000003 10.3
      vertex 112.4829629138112 -21.62940952181816 10.3
    endloop
  endfacet
  facet normal 0 0 -1
    outer loop
      vertex 103.80865828692913 -21.96193976700306 10.3
      vertex 112.06526309251785 -21.99572242796421 10.3
      vertex 112 -22 10.3
    endloop
  endfacet
  facet normal 0 0 -1
    outer loop
      vertex 103.75 -21.933012701570988 10.3
      vertex 112.12940952181816 -21.982962913811207 10.3
      vertex 112.06526309251785 -21.99572242796421 10.3
    endloop
  endfacet
  facet normal 0 0 -1
    outer loop
      vertex 103.64644660800695 -21.853553391993046 10.3
      vertex 112.25 -21.933012701570988 10.3
      vertex 112.19134171307087 -21.96193976700306 10.3
    endloop
  endfacet
  facet normal 0 0 -1
    outer loop
      vertex 103.60332333296537 -21.80438071489334 10.3
      vertex 112.30438071489334 -21.896676667034626 10.3
      vertex 112.25 -21.933012701570988 10.3
    endloop
  endfacet
  facet normal 0 0 -1
    outer loop
      vertex 103.69561928510666 -21.896676667034626 10.3
      vertex 112.19134171307087 -21.96193976700306 10.3
      vertex 112.12940952181816 -21.982962913811207 10.3
    endloop
  endfacet
  facet normal 0 0 -1
    outer loop
      vertex 103.50427757203579 -21.565263092517853 10.3
      vertex 112.46193976700306 -21.69134171307087 10.3
      vertex 112.43301270157099 -21.75 10.3
    endloop
  endfacet
  facet normal 0 0 -1
    outer loop
      vertex 103.5 -21.5 10.3
      vertex 112.4829629138112 -21.62940952181816 10.3
      vertex 112.46193976700306 -21.69134171307087 10.3
    endloop
  endfacet
  facet normal 0 0 -1
    outer loop
      vertex 103.53806023299694 -21.69134171307087 10.3
      vertex 112.39667666703463 -21.80438071489334 10.3
      vertex 112.35355339199305 -21.853553391993046 10.3
    endloop
  endfacet
  facet normal 0 0 -1
    outer loop
      vertex 103.5170370861888 -21.62940952181816 10.3
      vertex 112.43301270157099 -21.75 10.3
      vertex 112.39667666703463 -21.80438071489334 10.3
    endloop
  endfacet
  facet normal 0 0 -1
    outer loop
      vertex 103.56698729842901 -21.75 10.3
      vertex 112.35355339199305 -21.853553391993046 10.3
      vertex 112.30438071489334 -21.896676667034626 10.3
    endloop
  endfacet
  facet normal 0 -1 0
    outer loop
      vertex 104 -22 10.3
      vertex 112 -22 10.3
      vertex 112 -22 15.8
    endloop
  endfacet
  facet normal 0 0 -1
    outer loop
      vertex 112.5 -13.5 10.3
      vertex 112.5 -21.5 10.3
      vertex 111.7 -21.200000000000003 10.3
    endloop
  endfacet
  facet normal 0 0 -1
    outer loop
      vertex 112.5 -21.5 10.3
      vertex 112.49572242796421 -21.565263092517853 10.3
      vertex 111.7 -21.200000000000003 10.3
    endloop
  endfacet
  facet normal 0 0 -1
    outer loop
      vertex 112.49572242796421 -21.565263092517853 10.3
      vertex 112.4829629138112 -21.62940952181816 10.3
      vertex 111.7 -21.200000000000003 10.3
    endloop
  endfacet
  facet normal 0.06540317426597998 -0.9978589202867977 0
    outer loop
      vertex 112 -22 10.3
      vertex 112.06526309251785 -21.99572242796421 10.3
      vertex 112.06526309251785 -21.99572242796421 15.8
    endloop
  endfacet
  facet normal 0.19509026380137226 -0.9807852919828636 0
    outer loop
      vertex 112.06526309251785 -21.99572242796421 10.3
      vertex 112.12940952181816 -21.982962913811207 10.3
      vertex 112.12940952181816 -21.982962913811207 15.8
    endloop
  endfacet
  facet normal 0.32143947526586597 -0.9469301261132232 0
    outer loop
      vertex 112.12940952181816 -21.982962913811207 10.3
      vertex 112.19134171307087 -21.96193976700306 10.3
      vertex 112.19134171307087 -21.96193976700306 15.8
    endloop
  endfacet
  facet normal 0.9978589202867977 -0.06540317426597998 0
    outer loop
      vertex 112.5 -21.5 10.3
      vertex 112.5 -21.5 15.8
      vertex 112.49572242796421 -21.565263092517853 10.3
    endloop
  endfacet
  facet normal 0.9807852919828636 -0.19509026380137226 0
    outer loop
      vertex 112.49572242796421 -21.565263092517853 10.3
      vertex 112.49572242796421 -21.565263092517853 15.8
      vertex 112.4829629138112 -21.62940952181816 10.3
    endloop
  endfacet
  facet normal 0.8968727443581821 -0.44228868448946673 0
    outer loop
      vertex 112.46193976700306 -21.69134171307087 10.3
      vertex 112.46193976700306 -21.69134171307087 15.8
      vertex 112.43301270157099 -21.75 10.3
    endloop
  endfacet
  facet normal 0.9469301261132232 -0.32143947526586597 0
    outer loop
      vertex 112.4829629138112 -21.62940952181816 10.3
      vertex 112.4829629138112 -21.62940952181816 15.8
      vertex 112.46193976700306 -21.69134171307087 10.3
    endloop
  endfacet
  facet normal 0.5555702597613149 -0.8314695944343035 0
    outer loop
      vertex 112.25 -21.933012701570988 10.3
      vertex 112.30438071489334 -21.896676667034626 10.3
      vertex 112.30438071489334 -21.896676667034626 15.8
    endloop
  endfacet
  facet normal 0.44228868448946673 -0.8968727443581821 0
    outer loop
      vertex 112.19134171307087 -21.96193976700306 10.3
      vertex 112.25 -21.933012701570988 10.3
      vertex 112.25 -21.933012701570988 15.8
    endloop
  endfacet
  facet normal 0.6593457684533663 -0.7518398483870351 0
    outer loop
      vertex 112.35355339199305 -21.853553391993046 10.3
      vertex 112.35355339199305 -21.853553391993046 15.8
      vertex 112.30438071489334 -21.896676667034626 10.3
    endloop
  endfacet
  facet normal 0.8314695944343035 -0.5555702597613149 0
    outer loop
      vertex 112.39667666703463 -21.80438071489334 10.3
      vertex 112.43301270157099 -21.75 10.3
      vertex 112.43301270157099 -21.75 15.8
    endloop
  endfacet
  facet normal 0.7518398483870351 -0.6593457684533663 0
    outer loop
      vertex 112.35355339199305 -21.853553391993046 10.3
      vertex 112.39667666703463 -21.80438071489334 10.3
      vertex 112.39667666703463 -21.80438071489334 15.8
    endloop
  endfacet
  facet normal 0 0 1
    outer loop
      vertex 103.50427757203579 -13.434736907482147 15.8
      vertex 112.49572242796421 -21.565263092517853 15.8
      vertex 112.5 -21.5 15.8
    endloop
  endfacet
  facet normal 0 0 1
    outer loop
      vertex 103.5 -13.5 15.8
      vertex 112.4829629138112 -21.62940952181816 15.8
      vertex 112.49572242796421 -21.565263092517853 15.8
    endloop
  endfacet
  facet normal 0 0 1
    outer loop
      vertex 103.80865828692913 -21.96193976700306 15.8
      vertex 112 -22 15.8
      vertex 112.06526309251785 -21.99572242796421 15.8
    endloop
  endfacet
  facet normal 0 0 1
    outer loop
      vertex 103.75 -21.933012701570988 15.8
      vertex 112.06526309251785 -21.99572242796421 15.8
      vertex 112.12940952181816 -21.982962913811207 15.8
    endloop
  endfacet
  facet normal 0 0 1
    outer loop
      vertex 103.64644660800695 -21.853553391993046 15.8
      vertex 112.19134171307087 -21.96193976700306 15.8
      vertex 112.25 -21.933012701570988 15.8
    endloop
  endfacet
  facet normal 0 0 1
    outer loop
      vertex 103.60332333296537 -21.80438071489334 15.8
      vertex 112.25 -21.933012701570988 15.8
      vertex 112.30438071489334 -21.896676667034626 15.8
    endloop
  endfacet
  facet normal 0 0 1
    outer loop
      vertex 103.69561928510666 -21.896676667034626 15.8
      vertex 112.12940952181816 -21.982962913811207 15.8
      vertex 112.19134171307087 -21.96193976700306 15.8
    endloop
  endfacet
  facet normal 0 0 1
    outer loop
      vertex 103.50427757203579 -21.565263092517853 15.8
      vertex 112.43301270157099 -21.75 15.8
      vertex 112.46193976700306 -21.69134171307087 15.8
    endloop
  endfacet
  facet normal 0 0 1
    outer loop
      vertex 103.5 -21.5 15.8
      vertex 112.46193976700306 -21.69134171307087 15.8
      vertex 112.4829629138112 -21.62940952181816 15.8
    endloop
  endfacet
  facet normal 0 0 1
    outer loop
      vertex 103.53806023299694 -21.69134171307087 15.8
      vertex 112.35355339199305 -21.853553391993046 15.8
      vertex 112.39667666703463 -21.80438071489334 15.8
    endloop
  endfacet
  facet normal 0 0 1
    outer loop
      vertex 103.5170370861888 -21.62940952181816 15.8
      vertex 112.39667666703463 -21.80438071489334 15.8
      vertex 112.43301270157099 -21.75 15.8
    endloop
  endfacet
  facet normal 0 0 1
    outer loop
      vertex 103.56698729842901 -21.75 15.8
      vertex 112.30438071489334 -21.896676667034626 15.8
      vertex 112.35355339199305 -21.853553391993046 15.8
    endloop
  endfacet
  facet normal 1 0 0
    outer loop
      vertex 112.5 -13.5 15.8
      vertex 112.5 -21.5 15.8
      vertex 112.5 -21.5 10.3
    endloop
  endfacet
  facet normal 0.06540317426597998 -0.9978589202867977 0
    outer loop
      vertex 112 -22 10.3
      vertex 112.06526309251785 -21.99572242796421 15.8
      vertex 112 -22 15.8
    endloop
  endfacet
  facet normal 0.19509026380137226 -0.9807852919828636 0
    outer loop
      vertex 112.06526309251785 -21.99572242796421 10.3
      vertex 112.12940952181816 -21.982962913811207 15.8
      vertex 112.06526309251785 -21.99572242796421 15.8
    endloop
  endfacet
  facet normal 0.32143947526586597 -0.9469301261132232 0
    outer loop
      vertex 112.12940952181816 -21.982962913811207 10.3
      vertex 112.19134171307087 -21.96193976700306 15.8
      vertex 112.12940952181816 -21.982962913811207 15.8
    endloop
  endfacet
  facet normal 0.44228868448946673 -0.8968727443581821 0
    outer loop
      vertex 112.19134171307087 -21.96193976700306 10.3
      vertex 112.25 -21.933012701570988 15.8
      vertex 112.19134171307087 -21.96193976700306 15.8
    endloop
  endfacet
  facet normal 0.9978589202867977 -0.06540317426597998 0
    outer loop
      vertex 112.49572242796421 -21.565263092517853 10.3
      vertex 112.5 -21.5 15.8
      vertex 112.49572242796421 -21.565263092517853 15.8
    endloop
  endfacet
  facet normal 0.9807852919828636 -0.19509026380137226 0
    outer loop
      vertex 112.4829629138112 -21.62940952181816 10.3
      vertex 112.49572242796421 -21.565263092517853 15.8
      vertex 112.4829629138112 -21.62940952181816 15.8
    endloop
  endfacet
  facet normal 0.9469301261132232 -0.32143947526586597 0
    outer loop
      vertex 112.46193976700306 -21.69134171307087 10.3
      vertex 112.4829629138112 -21.62940952181816 15.8
      vertex 112.46193976700306 -21.69134171307087 15.8
    endloop
  endfacet
  facet normal 0.5555702597613149 -0.8314695944343035 0
    outer loop
      vertex 112.25 -21.933012701570988 10.3
      vertex 112.30438071489334 -21.896676667034626 15.8
      vertex 112.25 -21.933012701570988 15.8
    endloop
  endfacet
  facet normal 0.6593457684533663 -0.7518398483870351 0
    outer loop
      vertex 112.30438071489334 -21.896676667034626 10.3
      vertex 112.35355339199305 -21.853553391993046 15.8
      vertex 112.30438071489334 -21.896676667034626 15.8
    endloop
  endfacet
  facet normal 0.8314695944343035 -0.5555702597613149 0
    outer loop
      vertex 112.39667666703463 -21.80438071489334 10.3
      vertex 112.43301270157099 -21.75 15.8
      vertex 112.39667666703463 -21.80438071489334 15.8
    endloop
  endfacet
  facet normal 0.7518398483870351 -0.6593457684533663 0
    outer loop
      vertex 112.35355339199305 -21.853553391993046 10.3
      vertex 112.39667666703463 -21.80438071489334 15.8
      vertex 112.35355339199305 -21.853553391993046 15.8
    endloop
  endfacet
  facet normal 0.8968727443581821 -0.44228868448946673 0
    outer loop
      vertex 112.43301270157099 -21.75 10.3
      vertex 112.46193976700306 -21.69134171307087 15.8
      vertex 112.43301270157099 -21.75 15.8
    endloop
  endfacet
  facet normal 1 0 0
    outer loop
      vertex 104.3 -13.8 13.100000000000001
      vertex 104.3 -21.200000000000003 13.100000000000001
      vertex 104.3 -13.8 10.3
    endloop
  endfacet
  facet normal 0 -1 0
    outer loop
      vertex 104.3 -13.8 13.100000000000001
      vertex 104.3 -13.8 10.3
      vertex 111.7 -13.8 10.3
    endloop
  endfacet
  facet normal 0 0 -1
    outer loop
      vertex 104.3 -13.8 13.100000000000001
      vertex 111.7 -13.8 13.100000000000001
      vertex 104.3 -21.200000000000003 13.100000000000001
    endloop
  endfacet
  facet normal 1 0 0
    outer loop
      vertex 104.3 -21.200000000000003 13.100000000000001
      vertex 104.3 -21.200000000000003 10.3
      vertex 104.3 -13.8 10.3
    endloop
  endfacet
  facet normal 0 1 0
    outer loop
      vertex 104.3 -21.200000000000003 13.100000000000001
      vertex 111.7 -21.200000000000003 13.100000000000001
      vertex 104.3 -21.200000000000003 10.3
    endloop
  endfacet
  facet normal 0 -1 0
    outer loop
      vertex 104.3 -13.8 13.100000000000001
      vertex 111.7 -13.8 10.3
      vertex 111.7 -13.8 13.100000000000001
    endloop
  endfacet
  facet normal -1 0 0
    outer loop
      vertex 111.7 -13.8 13.100000000000001
      vertex 111.7 -13.8 10.3
      vertex 111.7 -21.200000000000003 10.3
    endloop
  endfacet
  facet normal 0 1 0
    outer loop
      vertex 111.7 -21.200000000000003 13.100000000000001
      vertex 111.7 -21.200000000000003 10.3
      vertex 104.3 -21.200000000000003 10.3
    endloop
  endfacet
  facet normal -1 0 0
    outer loop
      vertex 111.7 -13.8 13.100000000000001
      vertex 111.7 -21.200000000000003 10.3
      vertex 111.7 -21.200000000000003 13.100000000000001
    endloop
  endfacet
  facet normal 0 0 -1
    outer loop
      vertex 104.3 -21.200000000000003 13.100000000000001
      vertex 111.7 -13.8 13.100000000000001
      vertex 111.7 -21.200000000000003 13.100000000000001
    endloop
  endfacet
endsolid OpenSCAD_Model
