solid OpenSCAD_Model
  facet normal 0 0 1
    outer loop
      vertex 11 43 6.199999999999999
      vertex 65 7 6.199999999999999
      vertex 65 43 6.199999999999999
    endloop
  endfacet
  facet normal 0 0 1
    outer loop
      vertex 65 7 6.199999999999999
      vertex 11 43 6.199999999999999
      vertex 11 7 6.199999999999999
    endloop
  endfacet
  facet normal 0 0 -1
    outer loop
      vertex 11 7 1.4
      vertex 65 43 1.4
      vertex 65 7 1.4
    endloop
  endfacet
  facet normal 0 0 -1
    outer loop
      vertex 65 43 1.4
      vertex 11 7 1.4
      vertex 11 43 1.4
    endloop
  endfacet
  facet normal 0 -1 0
    outer loop
      vertex 11 7 1.4
      vertex 65 7 6.199999999999999
      vertex 11 7 6.199999999999999
    endloop
  endfacet
  facet normal 0 -1 0
    outer loop
      vertex 65 7 6.199999999999999
      vertex 11 7 1.4
      vertex 65 7 1.4
    endloop
  endfacet
  facet normal 1 0 0
    outer loop
      vertex 65 7 6.199999999999999
      vertex 65 43 1.4
      vertex 65 43 6.199999999999999
    endloop
  endfacet
  facet normal 1 0 0
    outer loop
      vertex 65 43 1.4
      vertex 65 7 6.199999999999999
      vertex 65 7 1.4
    endloop
  endfacet
  facet normal 0 1 0
    outer loop
      vertex 65 43 1.4
      vertex 11 43 6.199999999999999
      vertex 65 43 6.199999999999999
    endloop
  endfacet
  facet normal 0 1 0
    outer loop
      vertex 11 43 6.199999999999999
      vertex 65 43 1.4
      vertex 11 43 1.4
    endloop
  endfacet
  facet normal -1 0 0
    outer loop
      vertex 11 7 1.4
      vertex 11 43 6.199999999999999
      vertex 11 43 1.4
    endloop
  endfacet
  facet normal -1 0 0
    outer loop
      vertex 11 43 6.199999999999999
      vertex 11 7 1.4
      vertex 11 7 6.199999999999999
    endloop
  endfacet
endsolid OpenSCAD_Model
