solid OpenSCAD_Model
  facet normal 0 0 -1
    outer loop
      vertex 102.0170370861888 46.670590478181836 10.3
      vertex 102.00427757203579 46.734736907482144 10.3
      vertex 102.8 47.099999999999994 10.3
    endloop
  endfacet
  facet normal 0 0 -1
    outer loop
      vertex 102.00427757203579 46.734736907482144 10.3
      vertex 102 46.8 10.3
      vertex 102.8 47.099999999999994 10.3
    endloop
  endfacet
  facet normal -0.7518398483870351 -0.6593457684533663 0
    outer loop
      vertex 102.14644660800695 46.44644660800695 10.3
      vertex 102.10332333296537 46.495619285106656 15.8
      vertex 102.10332333296537 46.495619285106656 10.3
    endloop
  endfacet
  facet normal -0.6593457684533663 -0.7518398483870351 0
    outer loop
      vertex 102.14644660800695 46.44644660800695 10.3
      vertex 102.19561928510666 46.40332333296537 10.3
      vertex 102.14644660800695 46.44644660800695 15.8
    endloop
  endfacet
  facet normal -0.8314695944343035 -0.5555702597613149 0
    outer loop
      vertex 102.06698729842901 46.55 10.3
      vertex 102.10332333296537 46.495619285106656 10.3
      vertex 102.06698729842901 46.55 15.8
    endloop
  endfacet
  facet normal -0.9469301261132232 -0.32143947526586597 0
    outer loop
      vertex 102.03806023299694 46.60865828692913 10.3
      vertex 102.0170370861888 46.670590478181836 15.8
      vertex 102.0170370861888 46.670590478181836 10.3
    endloop
  endfacet
  facet normal -0.8968727443581821 -0.44228868448946673 0
    outer loop
      vertex 102.06698729842901 46.55 10.3
      vertex 102.03806023299694 46.60865828692913 15.8
      vertex 102.03806023299694 46.60865828692913 10.3
    endloop
  endfacet
  facet normal -0.5555702597613149 -0.8314695944343035 0
    outer loop
      vertex 102.25 46.36698729842901 10.3
      vertex 102.19561928510666 46.40332333296537 15.8
      vertex 102.19561928510666 46.40332333296537 10.3
    endloop
  endfacet
  facet normal -0.44228868448946673 -0.8968727443581821 0
    outer loop
      vertex 102.25 46.36698729842901 10.3
      vertex 102.30865828692913 46.33806023299694 10.3
      vertex 102.25 46.36698729842901 15.8
    endloop
  endfacet
  facet normal -0.32143947526586597 -0.9469301261132232 0
    outer loop
      vertex 102.30865828692913 46.33806023299694 10.3
      vertex 102.37059047818184 46.31703708618879 10.3
      vertex 102.30865828692913 46.33806023299694 15.8
    endloop
  endfacet
  facet normal -0.9807852919828636 -0.19509026380137226 0
    outer loop
      vertex 102.0170370861888 46.670590478181836 10.3
      vertex 102.00427757203579 46.734736907482144 15.8
      vertex 102.00427757203579 46.734736907482144 10.3
    endloop
  endfacet
  facet normal -0.9978589202867977 -0.06540317426597998 0
    outer loop
      vertex 102.00427757203579 46.734736907482144 10.3
      vertex 102 46.8 15.8
      vertex 102 46.8 10.3
    endloop
  endfacet
  facet normal -0.19509026380137226 -0.9807852919828636 0
    outer loop
      vertex 102.37059047818184 46.31703708618879 10.3
      vertex 102.43473690748215 46.30427757203579 10.3
      vertex 102.37059047818184 46.31703708618879 15.8
    endloop
  endfacet
  facet normal -0.06540317426597998 -0.9978589202867977 0
    outer loop
      vertex 102.43473690748215 46.30427757203579 10.3
      vertex 102.5 46.3 10.3
      vertex 102.43473690748215 46.30427757203579 15.8
    endloop
  endfacet
  facet normal 0 0 -1
    outer loop
      vertex 102 46.8 10.3
      vertex 102 57.8 10.3
      vertex 102.8 47.099999999999994 10.3
    endloop
  endfacet
  facet normal 0 0 -1
    outer loop
      vertex 102.25 46.36698729842901 10.3
      vertex 102.19561928510666 46.40332333296537 10.3
      vertex 113.89667666703463 46.495619285106656 10.3
    endloop
  endfacet
  facet normal 0 0 -1
    outer loop
      vertex 102.14644660800695 46.44644660800695 10.3
      vertex 113.93301270157099 46.55 10.3
      vertex 102.19561928510666 46.40332333296537 10.3
    endloop
  endfacet
  facet normal 0 0 -1
    outer loop
      vertex 102.14644660800695 46.44644660800695 10.3
      vertex 102.10332333296537 46.495619285106656 10.3
      vertex 113.96193976700306 46.60865828692913 10.3
    endloop
  endfacet
  facet normal 0 0 -1
    outer loop
      vertex 102.06698729842901 46.55 10.3
      vertex 113.9829629138112 46.670590478181836 10.3
      vertex 102.10332333296537 46.495619285106656 10.3
    endloop
  endfacet
  facet normal 0 0 -1
    outer loop
      vertex 102.06698729842901 46.55 10.3
      vertex 102.03806023299694 46.60865828692913 10.3
      vertex 113.99572242796421 46.734736907482144 10.3
    endloop
  endfacet
  facet normal 0 0 -1
    outer loop
      vertex 102.03806023299694 46.60865828692913 10.3
      vertex 102.0170370861888 46.670590478181836 10.3
      vertex 114 46.8 10.3
    endloop
  endfacet
  facet normal 0 0 -1
    outer loop
      vertex 102.25 46.36698729842901 10.3
      vertex 113.85355339199305 46.44644660800695 10.3
      vertex 102.30865828692913 46.33806023299694 10.3
    endloop
  endfacet
  facet normal 0 0 -1
    outer loop
      vertex 102.30865828692913 46.33806023299694 10.3
      vertex 113.80438071489334 46.40332333296537 10.3
      vertex 102.37059047818184 46.31703708618879 10.3
    endloop
  endfacet
  facet normal 0 0 -1
    outer loop
      vertex 102.37059047818184 46.31703708618879 10.3
      vertex 113.75 46.36698729842901 10.3
      vertex 102.43473690748215 46.30427757203579 10.3
    endloop
  endfacet
  facet normal 0 0 -1
    outer loop
      vertex 102.43473690748215 46.30427757203579 10.3
      vertex 113.69134171307087 46.33806023299694 10.3
      vertex 102.5 46.3 10.3
    endloop
  endfacet
  facet normal 0 0 -1
    outer loop
      vertex 102.0170370861888 46.670590478181836 10.3
      vertex 102.8 47.099999999999994 10.3
      vertex 114 46.8 10.3
    endloop
  endfacet
  facet normal 0 -1 0
    outer loop
      vertex 102.5 46.3 10.3
      vertex 113.5 46.3 10.3
      vertex 102.5 46.3 15.8
    endloop
  endfacet
  facet normal -0.7518398483870351 -0.6593457684533663 0
    outer loop
      vertex 102.14644660800695 46.44644660800695 10.3
      vertex 102.14644660800695 46.44644660800695 15.8
      vertex 102.10332333296537 46.495619285106656 15.8
    endloop
  endfacet
  facet normal -0.6593457684533663 -0.7518398483870351 0
    outer loop
      vertex 102.19561928510666 46.40332333296537 10.3
      vertex 102.19561928510666 46.40332333296537 15.8
      vertex 102.14644660800695 46.44644660800695 15.8
    endloop
  endfacet
  facet normal -0.8314695944343035 -0.5555702597613149 0
    outer loop
      vertex 102.10332333296537 46.495619285106656 10.3
      vertex 102.10332333296537 46.495619285106656 15.8
      vertex 102.06698729842901 46.55 15.8
    endloop
  endfacet
  facet normal -0.8968727443581821 -0.44228868448946673 0
    outer loop
      vertex 102.06698729842901 46.55 10.3
      vertex 102.06698729842901 46.55 15.8
      vertex 102.03806023299694 46.60865828692913 15.8
    endloop
  endfacet
  facet normal -0.9469301261132232 -0.32143947526586597 0
    outer loop
      vertex 102.03806023299694 46.60865828692913 10.3
      vertex 102.03806023299694 46.60865828692913 15.8
      vertex 102.0170370861888 46.670590478181836 15.8
    endloop
  endfacet
  facet normal -0.5555702597613149 -0.8314695944343035 0
    outer loop
      vertex 102.25 46.36698729842901 10.3
      vertex 102.25 46.36698729842901 15.8
      vertex 102.19561928510666 46.40332333296537 15.8
    endloop
  endfacet
  facet normal -0.44228868448946673 -0.8968727443581821 0
    outer loop
      vertex 102.30865828692913 46.33806023299694 10.3
      vertex 102.30865828692913 46.33806023299694 15.8
      vertex 102.25 46.36698729842901 15.8
    endloop
  endfacet
  facet normal -0.32143947526586597 -0.9469301261132232 0
    outer loop
      vertex 102.37059047818184 46.31703708618879 10.3
      vertex 102.37059047818184 46.31703708618879 15.8
      vertex 102.30865828692913 46.33806023299694 15.8
    endloop
  endfacet
  facet normal -0.9807852919828636 -0.19509026380137226 0
    outer loop
      vertex 102.0170370861888 46.670590478181836 10.3
      vertex 102.0170370861888 46.670590478181836 15.8
      vertex 102.00427757203579 46.734736907482144 15.8
    endloop
  endfacet
  facet normal -0.9978589202867977 -0.06540317426597998 0
    outer loop
      vertex 102.00427757203579 46.734736907482144 10.3
      vertex 102.00427757203579 46.734736907482144 15.8
      vertex 102 46.8 15.8
    endloop
  endfacet
  facet normal -0.19509026380137226 -0.9807852919828636 0
    outer loop
      vertex 102.43473690748215 46.30427757203579 10.3
      vertex 102.43473690748215 46.30427757203579 15.8
      vertex 102.37059047818184 46.31703708618879 15.8
    endloop
  endfacet
  facet normal -0.06540317426597998 -0.9978589202867977 0
    outer loop
      vertex 102.5 46.3 10.3
      vertex 102.5 46.3 15.8
      vertex 102.43473690748215 46.30427757203579 15.8
    endloop
  endfacet
  facet normal -1 0 0
    outer loop
      vertex 102 46.8 10.3
      vertex 102 46.8 15.8
      vertex 102 57.8 15.8
    endloop
  endfacet
  facet normal 0 0 1
    outer loop
      vertex 102.25 46.36698729842901 15.8
      vertex 113.89667666703463 46.495619285106656 15.8
      vertex 102.19561928510666 46.40332333296537 15.8
    endloop
  endfacet
  facet normal 0 0 1
    outer loop
      vertex 102.14644660800695 46.44644660800695 15.8
      vertex 102.19561928510666 46.40332333296537 15.8
      vertex 113.93301270157099 46.55 15.8
    endloop
  endfacet
  facet normal 0 0 1
    outer loop
      vertex 102.14644660800695 46.44644660800695 15.8
      vertex 113.96193976700306 46.60865828692913 15.8
      vertex 102.10332333296537 46.495619285106656 15.8
    endloop
  endfacet
  facet normal 0 0 1
    outer loop
      vertex 102.06698729842901 46.55 15.8
      vertex 102.10332333296537 46.495619285106656 15.8
      vertex 113.9829629138112 46.670590478181836 15.8
    endloop
  endfacet
  facet normal 0 0 1
    outer loop
      vertex 102.06698729842901 46.55 15.8
      vertex 113.99572242796421 46.734736907482144 15.8
      vertex 102.03806023299694 46.60865828692913 15.8
    endloop
  endfacet
  facet normal 0 0 1
    outer loop
      vertex 102.03806023299694 46.60865828692913 15.8
      vertex 114 46.8 15.8
      vertex 102.0170370861888 46.670590478181836 15.8
    endloop
  endfacet
  facet normal 0 0 1
    outer loop
      vertex 102.25 46.36698729842901 15.8
      vertex 102.30865828692913 46.33806023299694 15.8
      vertex 113.85355339199305 46.44644660800695 15.8
    endloop
  endfacet
  facet normal 0 0 1
    outer loop
      vertex 102.30865828692913 46.33806023299694 15.8
      vertex 102.37059047818184 46.31703708618879 15.8
      vertex 113.80438071489334 46.40332333296537 15.8
    endloop
  endfacet
  facet normal 0 0 1
    outer loop
      vertex 102.37059047818184 46.31703708618879 15.8
      vertex 102.43473690748215 46.30427757203579 15.8
      vertex 113.75 46.36698729842901 15.8
    endloop
  endfacet
  facet normal 0 0 1
    outer loop
      vertex 102.43473690748215 46.30427757203579 15.8
      vertex 102.5 46.3 15.8
      vertex 113.69134171307087 46.33806023299694 15.8
    endloop
  endfacet
  facet normal 0 0 1
    outer loop
      vertex 102.0170370861888 46.670590478181836 15.8
      vertex 114 57.8 15.8
      vertex 102.00427757203579 46.734736907482144 15.8
    endloop
  endfacet
  facet normal 0 0 1
    outer loop
      vertex 102.00427757203579 46.734736907482144 15.8
      vertex 113.99572242796421 57.86526309251785 15.8
      vertex 102 46.8 15.8
    endloop
  endfacet
  facet normal 0 0 -1
    outer loop
      vertex 102 57.8 10.3
      vertex 102.8 57.49999999999999 10.3
      vertex 102.8 47.099999999999994 10.3
    endloop
  endfacet
  facet normal -1 0 0
    outer loop
      vertex 102 46.8 10.3
      vertex 102 57.8 15.8
      vertex 102 57.8 10.3
    endloop
  endfacet
  facet normal 0 0 -1
    outer loop
      vertex 102.37059047818184 58.282962913811204 10.3
      vertex 102.43473690748215 58.29572242796421 10.3
      vertex 102.5 58.3 10.3
    endloop
  endfacet
  facet normal -0.9978589202867977 0.06540317426597998 0
    outer loop
      vertex 102 57.8 10.3
      vertex 102.00427757203579 57.86526309251785 15.8
      vertex 102.00427757203579 57.86526309251785 10.3
    endloop
  endfacet
  facet normal -0.9807852919828636 0.19509026380137226 0
    outer loop
      vertex 102.00427757203579 57.86526309251785 10.3
      vertex 102.0170370861888 57.92940952181816 15.8
      vertex 102.0170370861888 57.92940952181816 10.3
    endloop
  endfacet
  facet normal -0.9469301261132232 0.32143947526586597 0
    outer loop
      vertex 102.0170370861888 57.92940952181816 10.3
      vertex 102.03806023299694 57.99134171307087 15.8
      vertex 102.03806023299694 57.99134171307087 10.3
    endloop
  endfacet
  facet normal -0.8968727443581821 0.44228868448946673 0
    outer loop
      vertex 102.03806023299694 57.99134171307087 10.3
      vertex 102.06698729842901 58.05 15.8
      vertex 102.06698729842901 58.05 10.3
    endloop
  endfacet
  facet normal -0.8314695944343035 0.5555702597613149 0
    outer loop
      vertex 102.06698729842901 58.05 10.3
      vertex 102.10332333296537 58.10438071489334 15.8
      vertex 102.10332333296537 58.10438071489334 10.3
    endloop
  endfacet
  facet normal -0.7518398483870351 0.6593457684533663 0
    outer loop
      vertex 102.10332333296537 58.10438071489334 10.3
      vertex 102.14644660800695 58.15355339199304 15.8
      vertex 102.14644660800695 58.15355339199304 10.3
    endloop
  endfacet
  facet normal -0.6593457684533663 0.7518398483870351 0
    outer loop
      vertex 102.14644660800695 58.15355339199304 10.3
      vertex 102.19561928510666 58.19667666703462 15.8
      vertex 102.19561928510666 58.19667666703462 10.3
    endloop
  endfacet
  facet normal -0.5555702597613149 0.8314695944343035 0
    outer loop
      vertex 102.19561928510666 58.19667666703462 10.3
      vertex 102.25 58.233012701570985 15.8
      vertex 102.25 58.233012701570985 10.3
    endloop
  endfacet
  facet normal -0.44228868448946673 0.8968727443581821 0
    outer loop
      vertex 102.25 58.233012701570985 10.3
      vertex 102.30865828692913 58.26193976700306 15.8
      vertex 102.30865828692913 58.26193976700306 10.3
    endloop
  endfacet
  facet normal -0.32143947526586597 0.9469301261132232 0
    outer loop
      vertex 102.30865828692913 58.26193976700306 10.3
      vertex 102.37059047818184 58.282962913811204 15.8
      vertex 102.37059047818184 58.282962913811204 10.3
    endloop
  endfacet
  facet normal -0.19509026380137226 0.9807852919828636 0
    outer loop
      vertex 102.37059047818184 58.282962913811204 10.3
      vertex 102.43473690748215 58.29572242796421 15.8
      vertex 102.43473690748215 58.29572242796421 10.3
    endloop
  endfacet
  facet normal -0.06540317426597998 0.9978589202867977 0
    outer loop
      vertex 102.43473690748215 58.29572242796421 10.3
      vertex 102.5 58.3 15.8
      vertex 102.5 58.3 10.3
    endloop
  endfacet
  facet normal 0 0 -1
    outer loop
      vertex 102 57.8 10.3
      vertex 113.2 57.49999999999999 10.3
      vertex 102.8 57.49999999999999 10.3
    endloop
  endfacet
  facet normal 0 0 -1
    outer loop
      vertex 102 57.8 10.3
      vertex 102.00427757203579 57.86526309251785 10.3
      vertex 113.96193976700306 57.99134171307087 10.3
    endloop
  endfacet
  facet normal 0 0 -1
    outer loop
      vertex 102.0170370861888 57.92940952181816 10.3
      vertex 102.03806023299694 57.99134171307087 10.3
      vertex 113.89667666703463 58.10438071489334 10.3
    endloop
  endfacet
  facet normal 0 0 -1
    outer loop
      vertex 102.00427757203579 57.86526309251785 10.3
      vertex 102.0170370861888 57.92940952181816 10.3
      vertex 113.93301270157099 58.05 10.3
    endloop
  endfacet
  facet normal 0 0 -1
    outer loop
      vertex 102.03806023299694 57.99134171307087 10.3
      vertex 102.06698729842901 58.05 10.3
      vertex 113.85355339199305 58.15355339199304 10.3
    endloop
  endfacet
  facet normal 0 0 -1
    outer loop
      vertex 102.06698729842901 58.05 10.3
      vertex 102.10332333296537 58.10438071489334 10.3
      vertex 113.80438071489334 58.19667666703462 10.3
    endloop
  endfacet
  facet normal 0 0 -1
    outer loop
      vertex 102.10332333296537 58.10438071489334 10.3
      vertex 102.14644660800695 58.15355339199304 10.3
      vertex 113.75 58.233012701570985 10.3
    endloop
  endfacet
  facet normal 0 0 -1
    outer loop
      vertex 102.14644660800695 58.15355339199304 10.3
      vertex 102.19561928510666 58.19667666703462 10.3
      vertex 113.69134171307087 58.26193976700306 10.3
    endloop
  endfacet
  facet normal 0 0 -1
    outer loop
      vertex 102.19561928510666 58.19667666703462 10.3
      vertex 102.25 58.233012701570985 10.3
      vertex 113.62940952181816 58.282962913811204 10.3
    endloop
  endfacet
  facet normal 0 0 -1
    outer loop
      vertex 102.25 58.233012701570985 10.3
      vertex 102.30865828692913 58.26193976700306 10.3
      vertex 113.56526309251785 58.29572242796421 10.3
    endloop
  endfacet
  facet normal 0 0 -1
    outer loop
      vertex 102.30865828692913 58.26193976700306 10.3
      vertex 102.37059047818184 58.282962913811204 10.3
      vertex 113.5 58.3 10.3
    endloop
  endfacet
  facet normal 0 0 -1
    outer loop
      vertex 102.37059047818184 58.282962913811204 10.3
      vertex 102.5 58.3 10.3
      vertex 113.5 58.3 10.3
    endloop
  endfacet
  facet normal -0.9978589202867977 0.06540317426597998 0
    outer loop
      vertex 102 57.8 10.3
      vertex 102 57.8 15.8
      vertex 102.00427757203579 57.86526309251785 15.8
    endloop
  endfacet
  facet normal -0.9807852919828636 0.19509026380137226 0
    outer loop
      vertex 102.00427757203579 57.86526309251785 10.3
      vertex 102.00427757203579 57.86526309251785 15.8
      vertex 102.0170370861888 57.92940952181816 15.8
    endloop
  endfacet
  facet normal -0.9469301261132232 0.32143947526586597 0
    outer loop
      vertex 102.0170370861888 57.92940952181816 10.3
      vertex 102.0170370861888 57.92940952181816 15.8
      vertex 102.03806023299694 57.99134171307087 15.8
    endloop
  endfacet
  facet normal -0.8968727443581821 0.44228868448946673 0
    outer loop
      vertex 102.03806023299694 57.99134171307087 10.3
      vertex 102.03806023299694 57.99134171307087 15.8
      vertex 102.06698729842901 58.05 15.8
    endloop
  endfacet
  facet normal -0.8314695944343035 0.5555702597613149 0
    outer loop
      vertex 102.06698729842901 58.05 10.3
      vertex 102.06698729842901 58.05 15.8
      vertex 102.10332333296537 58.10438071489334 15.8
    endloop
  endfacet
  facet normal -0.7518398483870351 0.6593457684533663 0
    outer loop
      vertex 102.10332333296537 58.10438071489334 10.3
      vertex 102.10332333296537 58.10438071489334 15.8
      vertex 102.14644660800695 58.15355339199304 15.8
    endloop
  endfacet
  facet normal -0.6593457684533663 0.7518398483870351 0
    outer loop
      vertex 102.14644660800695 58.15355339199304 10.3
      vertex 102.14644660800695 58.15355339199304 15.8
      vertex 102.19561928510666 58.19667666703462 15.8
    endloop
  endfacet
  facet normal -0.5555702597613149 0.8314695944343035 0
    outer loop
      vertex 102.19561928510666 58.19667666703462 10.3
      vertex 102.19561928510666 58.19667666703462 15.8
      vertex 102.25 58.233012701570985 15.8
    endloop
  endfacet
  facet normal -0.44228868448946673 0.8968727443581821 0
    outer loop
      vertex 102.25 58.233012701570985 10.3
      vertex 102.25 58.233012701570985 15.8
      vertex 102.30865828692913 58.26193976700306 15.8
    endloop
  endfacet
  facet normal -0.32143947526586597 0.9469301261132232 0
    outer loop
      vertex 102.30865828692913 58.26193976700306 10.3
      vertex 102.30865828692913 58.26193976700306 15.8
      vertex 102.37059047818184 58.282962913811204 15.8
    endloop
  endfacet
  facet normal -0.19509026380137226 0.9807852919828636 0
    outer loop
      vertex 102.37059047818184 58.282962913811204 10.3
      vertex 102.37059047818184 58.282962913811204 15.8
      vertex 102.43473690748215 58.29572242796421 15.8
    endloop
  endfacet
  facet normal -0.06540317426597998 0.9978589202867977 0
    outer loop
      vertex 102.43473690748215 58.29572242796421 10.3
      vertex 102.43473690748215 58.29572242796421 15.8
      vertex 102.5 58.3 15.8
    endloop
  endfacet
  facet normal 0 0 1
    outer loop
      vertex 102.37059047818184 58.282962913811204 15.8
      vertex 102.5 58.3 15.8
      vertex 102.43473690748215 58.29572242796421 15.8
    endloop
  endfacet
  facet normal 0 0 1
    outer loop
      vertex 102 46.8 15.8
      vertex 113.9829629138112 57.92940952181816 15.8
      vertex 102 57.8 15.8
    endloop
  endfacet
  facet normal 0 1 0
    outer loop
      vertex 102.5 58.3 10.3
      vertex 102.5 58.3 15.8
      vertex 113.5 58.3 15.8
    endloop
  endfacet
  facet normal 0 0 1
    outer loop
      vertex 102 57.8 15.8
      vertex 113.96193976700306 57.99134171307087 15.8
      vertex 102.00427757203579 57.86526309251785 15.8
    endloop
  endfacet
  facet normal 0 0 1
    outer loop
      vertex 102.0170370861888 57.92940952181816 15.8
      vertex 113.89667666703463 58.10438071489334 15.8
      vertex 102.03806023299694 57.99134171307087 15.8
    endloop
  endfacet
  facet normal 0 0 1
    outer loop
      vertex 102.00427757203579 57.86526309251785 15.8
      vertex 113.93301270157099 58.05 15.8
      vertex 102.0170370861888 57.92940952181816 15.8
    endloop
  endfacet
  facet normal 0 0 1
    outer loop
      vertex 102.03806023299694 57.99134171307087 15.8
      vertex 113.85355339199305 58.15355339199304 15.8
      vertex 102.06698729842901 58.05 15.8
    endloop
  endfacet
  facet normal 0 0 1
    outer loop
      vertex 102.06698729842901 58.05 15.8
      vertex 113.80438071489334 58.19667666703462 15.8
      vertex 102.10332333296537 58.10438071489334 15.8
    endloop
  endfacet
  facet normal 0 0 1
    outer loop
      vertex 102.10332333296537 58.10438071489334 15.8
      vertex 113.75 58.233012701570985 15.8
      vertex 102.14644660800695 58.15355339199304 15.8
    endloop
  endfacet
  facet normal 0 0 1
    outer loop
      vertex 102.14644660800695 58.15355339199304 15.8
      vertex 113.69134171307087 58.26193976700306 15.8
      vertex 102.19561928510666 58.19667666703462 15.8
    endloop
  endfacet
  facet normal 0 0 1
    outer loop
      vertex 102.19561928510666 58.19667666703462 15.8
      vertex 113.62940952181816 58.282962913811204 15.8
      vertex 102.25 58.233012701570985 15.8
    endloop
  endfacet
  facet normal 0 0 1
    outer loop
      vertex 102.25 58.233012701570985 15.8
      vertex 113.56526309251785 58.29572242796421 15.8
      vertex 102.30865828692913 58.26193976700306 15.8
    endloop
  endfacet
  facet normal 0 0 1
    outer loop
      vertex 102.30865828692913 58.26193976700306 15.8
      vertex 113.5 58.3 15.8
      vertex 102.37059047818184 58.282962913811204 15.8
    endloop
  endfacet
  facet normal 0 0 1
    outer loop
      vertex 102.37059047818184 58.282962913811204 15.8
      vertex 113.5 58.3 15.8
      vertex 102.5 58.3 15.8
    endloop
  endfacet
  facet normal 0 0 -1
    outer loop
      vertex 102.5 46.3 10.3
      vertex 113.62940952181816 46.31703708618879 10.3
      vertex 113.5 46.3 10.3
    endloop
  endfacet
  facet normal 0 0 -1
    outer loop
      vertex 102.5 46.3 10.3
      vertex 113.69134171307087 46.33806023299694 10.3
      vertex 113.62940952181816 46.31703708618879 10.3
    endloop
  endfacet
  facet normal 0 0 -1
    outer loop
      vertex 102.43473690748215 46.30427757203579 10.3
      vertex 113.75 46.36698729842901 10.3
      vertex 113.69134171307087 46.33806023299694 10.3
    endloop
  endfacet
  facet normal 0 0 -1
    outer loop
      vertex 102.37059047818184 46.31703708618879 10.3
      vertex 113.80438071489334 46.40332333296537 10.3
      vertex 113.75 46.36698729842901 10.3
    endloop
  endfacet
  facet normal 0 0 -1
    outer loop
      vertex 102.30865828692913 46.33806023299694 10.3
      vertex 113.85355339199305 46.44644660800695 10.3
      vertex 113.80438071489334 46.40332333296537 10.3
    endloop
  endfacet
  facet normal 0 0 -1
    outer loop
      vertex 102.25 46.36698729842901 10.3
      vertex 113.89667666703463 46.495619285106656 10.3
      vertex 113.85355339199305 46.44644660800695 10.3
    endloop
  endfacet
  facet normal 0 0 -1
    outer loop
      vertex 102.19561928510666 46.40332333296537 10.3
      vertex 113.93301270157099 46.55 10.3
      vertex 113.89667666703463 46.495619285106656 10.3
    endloop
  endfacet
  facet normal 0 0 -1
    outer loop
      vertex 102.14644660800695 46.44644660800695 10.3
      vertex 113.96193976700306 46.60865828692913 10.3
      vertex 113.93301270157099 46.55 10.3
    endloop
  endfacet
  facet normal 0 0 -1
    outer loop
      vertex 102.06698729842901 46.55 10.3
      vertex 113.99572242796421 46.734736907482144 10.3
      vertex 113.9829629138112 46.670590478181836 10.3
    endloop
  endfacet
  facet normal 0 0 -1
    outer loop
      vertex 102.10332333296537 46.495619285106656 10.3
      vertex 113.9829629138112 46.670590478181836 10.3
      vertex 113.96193976700306 46.60865828692913 10.3
    endloop
  endfacet
  facet normal 0 0 -1
    outer loop
      vertex 102.03806023299694 46.60865828692913 10.3
      vertex 114 46.8 10.3
      vertex 113.99572242796421 46.734736907482144 10.3
    endloop
  endfacet
  facet normal 0 0 -1
    outer loop
      vertex 114 46.8 10.3
      vertex 102.8 47.099999999999994 10.3
      vertex 113.2 47.099999999999994 10.3
    endloop
  endfacet
  facet normal 0 0 -1
    outer loop
      vertex 113.5 46.3 10.3
      vertex 113.62940952181816 46.31703708618879 10.3
      vertex 113.56526309251785 46.30427757203579 10.3
    endloop
  endfacet
  facet normal 0.06540317426597998 -0.9978589202867977 0
    outer loop
      vertex 113.5 46.3 10.3
      vertex 113.56526309251785 46.30427757203579 10.3
      vertex 113.5 46.3 15.8
    endloop
  endfacet
  facet normal 0.19509026380137226 -0.9807852919828636 0
    outer loop
      vertex 113.56526309251785 46.30427757203579 10.3
      vertex 113.62940952181816 46.31703708618879 10.3
      vertex 113.56526309251785 46.30427757203579 15.8
    endloop
  endfacet
  facet normal 0.32143947526586597 -0.9469301261132232 0
    outer loop
      vertex 113.62940952181816 46.31703708618879 10.3
      vertex 113.69134171307087 46.33806023299694 10.3
      vertex 113.62940952181816 46.31703708618879 15.8
    endloop
  endfacet
  facet normal 0.44228868448946673 -0.8968727443581821 0
    outer loop
      vertex 113.69134171307087 46.33806023299694 10.3
      vertex 113.75 46.36698729842901 10.3
      vertex 113.69134171307087 46.33806023299694 15.8
    endloop
  endfacet
  facet normal 0.5555702597613149 -0.8314695944343035 0
    outer loop
      vertex 113.75 46.36698729842901 10.3
      vertex 113.80438071489334 46.40332333296537 10.3
      vertex 113.75 46.36698729842901 15.8
    endloop
  endfacet
  facet normal 0.6593457684533663 -0.7518398483870351 0
    outer loop
      vertex 113.80438071489334 46.40332333296537 10.3
      vertex 113.85355339199305 46.44644660800695 10.3
      vertex 113.80438071489334 46.40332333296537 15.8
    endloop
  endfacet
  facet normal 0.7518398483870351 -0.6593457684533663 0
    outer loop
      vertex 113.85355339199305 46.44644660800695 10.3
      vertex 113.89667666703463 46.495619285106656 10.3
      vertex 113.85355339199305 46.44644660800695 15.8
    endloop
  endfacet
  facet normal 0.8314695944343035 -0.5555702597613149 0
    outer loop
      vertex 113.89667666703463 46.495619285106656 10.3
      vertex 113.93301270157099 46.55 10.3
      vertex 113.89667666703463 46.495619285106656 15.8
    endloop
  endfacet
  facet normal 0.8968727443581821 -0.44228868448946673 0
    outer loop
      vertex 113.93301270157099 46.55 10.3
      vertex 113.96193976700306 46.60865828692913 10.3
      vertex 113.93301270157099 46.55 15.8
    endloop
  endfacet
  facet normal 0.9469301261132232 -0.32143947526586597 0
    outer loop
      vertex 113.96193976700306 46.60865828692913 10.3
      vertex 113.9829629138112 46.670590478181836 10.3
      vertex 113.96193976700306 46.60865828692913 15.8
    endloop
  endfacet
  facet normal 0.9807852919828636 -0.19509026380137226 0
    outer loop
      vertex 113.9829629138112 46.670590478181836 10.3
      vertex 113.99572242796421 46.734736907482144 10.3
      vertex 113.9829629138112 46.670590478181836 15.8
    endloop
  endfacet
  facet normal 0.9978589202867977 -0.06540317426597998 0
    outer loop
      vertex 113.99572242796421 46.734736907482144 10.3
      vertex 114 46.8 10.3
      vertex 113.99572242796421 46.734736907482144 15.8
    endloop
  endfacet
  facet normal 0 0 -1
    outer loop
      vertex 114 46.8 10.3
      vertex 113.2 47.099999999999994 10.3
      vertex 113.2 57.49999999999999 10.3
    endloop
  endfacet
  facet normal 1 0 0
    outer loop
      vertex 114 46.8 10.3
      vertex 114 57.8 10.3
      vertex 114 46.8 15.8
    endloop
  endfacet
  facet normal 0 -1 0
    outer loop
      vertex 102.5 46.3 15.8
      vertex 113.5 46.3 10.3
      vertex 113.5 46.3 15.8
    endloop
  endfacet
  facet normal 0 0 1
    outer loop
      vertex 102.5 46.3 15.8
      vertex 113.5 46.3 15.8
      vertex 113.62940952181816 46.31703708618879 15.8
    endloop
  endfacet
  facet normal 0 0 1
    outer loop
      vertex 102.5 46.3 15.8
      vertex 113.62940952181816 46.31703708618879 15.8
      vertex 113.69134171307087 46.33806023299694 15.8
    endloop
  endfacet
  facet normal 0 0 1
    outer loop
      vertex 102.43473690748215 46.30427757203579 15.8
      vertex 113.69134171307087 46.33806023299694 15.8
      vertex 113.75 46.36698729842901 15.8
    endloop
  endfacet
  facet normal 0 0 1
    outer loop
      vertex 102.37059047818184 46.31703708618879 15.8
      vertex 113.75 46.36698729842901 15.8
      vertex 113.80438071489334 46.40332333296537 15.8
    endloop
  endfacet
  facet normal 0 0 1
    outer loop
      vertex 102.30865828692913 46.33806023299694 15.8
      vertex 113.80438071489334 46.40332333296537 15.8
      vertex 113.85355339199305 46.44644660800695 15.8
    endloop
  endfacet
  facet normal 0 0 1
    outer loop
      vertex 102.25 46.36698729842901 15.8
      vertex 113.85355339199305 46.44644660800695 15.8
      vertex 113.89667666703463 46.495619285106656 15.8
    endloop
  endfacet
  facet normal 0 0 1
    outer loop
      vertex 102.19561928510666 46.40332333296537 15.8
      vertex 113.89667666703463 46.495619285106656 15.8
      vertex 113.93301270157099 46.55 15.8
    endloop
  endfacet
  facet normal 0 0 1
    outer loop
      vertex 102.14644660800695 46.44644660800695 15.8
      vertex 113.93301270157099 46.55 15.8
      vertex 113.96193976700306 46.60865828692913 15.8
    endloop
  endfacet
  facet normal 0 0 1
    outer loop
      vertex 102.06698729842901 46.55 15.8
      vertex 113.9829629138112 46.670590478181836 15.8
      vertex 113.99572242796421 46.734736907482144 15.8
    endloop
  endfacet
  facet normal 0 0 1
    outer loop
      vertex 102.10332333296537 46.495619285106656 15.8
      vertex 113.96193976700306 46.60865828692913 15.8
      vertex 113.9829629138112 46.670590478181836 15.8
    endloop
  endfacet
  facet normal 0 0 1
    outer loop
      vertex 102.03806023299694 46.60865828692913 15.8
      vertex 113.99572242796421 46.734736907482144 15.8
      vertex 114 46.8 15.8
    endloop
  endfacet
  facet normal 0 0 1
    outer loop
      vertex 102.0170370861888 46.670590478181836 15.8
      vertex 114 46.8 15.8
      vertex 114 57.8 15.8
    endloop
  endfacet
  facet normal 0.06540317426597998 -0.9978589202867977 0
    outer loop
      vertex 113.56526309251785 46.30427757203579 10.3
      vertex 113.56526309251785 46.30427757203579 15.8
      vertex 113.5 46.3 15.8
    endloop
  endfacet
  facet normal 0.19509026380137226 -0.9807852919828636 0
    outer loop
      vertex 113.62940952181816 46.31703708618879 10.3
      vertex 113.62940952181816 46.31703708618879 15.8
      vertex 113.56526309251785 46.30427757203579 15.8
    endloop
  endfacet
  facet normal 0.32143947526586597 -0.9469301261132232 0
    outer loop
      vertex 113.69134171307087 46.33806023299694 10.3
      vertex 113.69134171307087 46.33806023299694 15.8
      vertex 113.62940952181816 46.31703708618879 15.8
    endloop
  endfacet
  facet normal 0.44228868448946673 -0.8968727443581821 0
    outer loop
      vertex 113.75 46.36698729842901 10.3
      vertex 113.75 46.36698729842901 15.8
      vertex 113.69134171307087 46.33806023299694 15.8
    endloop
  endfacet
  facet normal 0.5555702597613149 -0.8314695944343035 0
    outer loop
      vertex 113.80438071489334 46.40332333296537 10.3
      vertex 113.80438071489334 46.40332333296537 15.8
      vertex 113.75 46.36698729842901 15.8
    endloop
  endfacet
  facet normal 0.6593457684533663 -0.7518398483870351 0
    outer loop
      vertex 113.85355339199305 46.44644660800695 10.3
      vertex 113.85355339199305 46.44644660800695 15.8
      vertex 113.80438071489334 46.40332333296537 15.8
    endloop
  endfacet
  facet normal 0.7518398483870351 -0.6593457684533663 0
    outer loop
      vertex 113.89667666703463 46.495619285106656 10.3
      vertex 113.89667666703463 46.495619285106656 15.8
      vertex 113.85355339199305 46.44644660800695 15.8
    endloop
  endfacet
  facet normal 0.8314695944343035 -0.5555702597613149 0
    outer loop
      vertex 113.93301270157099 46.55 10.3
      vertex 113.93301270157099 46.55 15.8
      vertex 113.89667666703463 46.495619285106656 15.8
    endloop
  endfacet
  facet normal 0.8968727443581821 -0.44228868448946673 0
    outer loop
      vertex 113.96193976700306 46.60865828692913 10.3
      vertex 113.96193976700306 46.60865828692913 15.8
      vertex 113.93301270157099 46.55 15.8
    endloop
  endfacet
  facet normal 0.9469301261132232 -0.32143947526586597 0
    outer loop
      vertex 113.9829629138112 46.670590478181836 10.3
      vertex 113.9829629138112 46.670590478181836 15.8
      vertex 113.96193976700306 46.60865828692913 15.8
    endloop
  endfacet
  facet normal 0.9807852919828636 -0.19509026380137226 0
    outer loop
      vertex 113.99572242796421 46.734736907482144 10.3
      vertex 113.99572242796421 46.734736907482144 15.8
      vertex 113.9829629138112 46.670590478181836 15.8
    endloop
  endfacet
  facet normal 0.9978589202867977 -0.06540317426597998 0
    outer loop
      vertex 114 46.8 10.3
      vertex 114 46.8 15.8
      vertex 113.99572242796421 46.734736907482144 15.8
    endloop
  endfacet
  facet normal 0 0 1
    outer loop
      vertex 113.5 46.3 15.8
      vertex 113.56526309251785 46.30427757203579 15.8
      vertex 113.62940952181816 46.31703708618879 15.8
    endloop
  endfacet
  facet normal 0 0 -1
    outer loop
      vertex 102 57.8 10.3
      vertex 113.9829629138112 57.92940952181816 10.3
      vertex 113.2 57.49999999999999 10.3
    endloop
  endfacet
  facet normal 0 0 -1
    outer loop
      vertex 102.30865828692913 58.26193976700306 10.3
      vertex 113.5 58.3 10.3
      vertex 113.56526309251785 58.29572242796421 10.3
    endloop
  endfacet
  facet normal 0 0 -1
    outer loop
      vertex 102.25 58.233012701570985 10.3
      vertex 113.56526309251785 58.29572242796421 10.3
      vertex 113.62940952181816 58.282962913811204 10.3
    endloop
  endfacet
  facet normal 0 0 -1
    outer loop
      vertex 102.19561928510666 58.19667666703462 10.3
      vertex 113.62940952181816 58.282962913811204 10.3
      vertex 113.69134171307087 58.26193976700306 10.3
    endloop
  endfacet
  facet normal 0 0 -1
    outer loop
      vertex 102.14644660800695 58.15355339199304 10.3
      vertex 113.69134171307087 58.26193976700306 10.3
      vertex 113.75 58.233012701570985 10.3
    endloop
  endfacet
  facet normal 0 0 -1
    outer loop
      vertex 102 57.8 10.3
      vertex 113.96193976700306 57.99134171307087 10.3
      vertex 113.9829629138112 57.92940952181816 10.3
    endloop
  endfacet
  facet normal 0 0 -1
    outer loop
      vertex 102.00427757203579 57.86526309251785 10.3
      vertex 113.93301270157099 58.05 10.3
      vertex 113.96193976700306 57.99134171307087 10.3
    endloop
  endfacet
  facet normal 0 0 -1
    outer loop
      vertex 102.0170370861888 57.92940952181816 10.3
      vertex 113.89667666703463 58.10438071489334 10.3
      vertex 113.93301270157099 58.05 10.3
    endloop
  endfacet
  facet normal 0 0 -1
    outer loop
      vertex 102.03806023299694 57.99134171307087 10.3
      vertex 113.85355339199305 58.15355339199304 10.3
      vertex 113.89667666703463 58.10438071489334 10.3
    endloop
  endfacet
  facet normal 0 0 -1
    outer loop
      vertex 102.06698729842901 58.05 10.3
      vertex 113.80438071489334 58.19667666703462 10.3
      vertex 113.85355339199305 58.15355339199304 10.3
    endloop
  endfacet
  facet normal 0 0 -1
    outer loop
      vertex 102.10332333296537 58.10438071489334 10.3
      vertex 113.75 58.233012701570985 10.3
      vertex 113.80438071489334 58.19667666703462 10.3
    endloop
  endfacet
  facet normal 0 1 0
    outer loop
      vertex 102.5 58.3 10.3
      vertex 113.5 58.3 15.8
      vertex 113.5 58.3 10.3
    endloop
  endfacet
  facet normal 0 0 -1
    outer loop
      vertex 114 46.8 10.3
      vertex 113.2 57.49999999999999 10.3
      vertex 114 57.8 10.3
    endloop
  endfacet
  facet normal 0 0 -1
    outer loop
      vertex 114 57.8 10.3
      vertex 113.2 57.49999999999999 10.3
      vertex 113.99572242796421 57.86526309251785 10.3
    endloop
  endfacet
  facet normal 0 0 -1
    outer loop
      vertex 113.99572242796421 57.86526309251785 10.3
      vertex 113.2 57.49999999999999 10.3
      vertex 113.9829629138112 57.92940952181816 10.3
    endloop
  endfacet
  facet normal 0.06540317426597998 0.9978589202867977 0
    outer loop
      vertex 113.5 58.3 10.3
      vertex 113.56526309251785 58.29572242796421 15.8
      vertex 113.56526309251785 58.29572242796421 10.3
    endloop
  endfacet
  facet normal 0.19509026380137226 0.9807852919828636 0
    outer loop
      vertex 113.56526309251785 58.29572242796421 10.3
      vertex 113.62940952181816 58.282962913811204 15.8
      vertex 113.62940952181816 58.282962913811204 10.3
    endloop
  endfacet
  facet normal 0.9978589202867977 0.06540317426597998 0
    outer loop
      vertex 114 57.8 10.3
      vertex 113.99572242796421 57.86526309251785 10.3
      vertex 114 57.8 15.8
    endloop
  endfacet
  facet normal 0.9807852919828636 0.19509026380137226 0
    outer loop
      vertex 113.99572242796421 57.86526309251785 10.3
      vertex 113.9829629138112 57.92940952181816 10.3
      vertex 113.99572242796421 57.86526309251785 15.8
    endloop
  endfacet
  facet normal 0.32143947526586597 0.9469301261132232 0
    outer loop
      vertex 113.62940952181816 58.282962913811204 10.3
      vertex 113.69134171307087 58.26193976700306 15.8
      vertex 113.69134171307087 58.26193976700306 10.3
    endloop
  endfacet
  facet normal 0.44228868448946673 0.8968727443581821 0
    outer loop
      vertex 113.69134171307087 58.26193976700306 10.3
      vertex 113.75 58.233012701570985 15.8
      vertex 113.75 58.233012701570985 10.3
    endloop
  endfacet
  facet normal 0.5555702597613149 0.8314695944343035 0
    outer loop
      vertex 113.80438071489334 58.19667666703462 10.3
      vertex 113.75 58.233012701570985 10.3
      vertex 113.80438071489334 58.19667666703462 15.8
    endloop
  endfacet
  facet normal 0.8968727443581821 0.44228868448946673 0
    outer loop
      vertex 113.96193976700306 57.99134171307087 10.3
      vertex 113.93301270157099 58.05 10.3
      vertex 113.96193976700306 57.99134171307087 15.8
    endloop
  endfacet
  facet normal 0.9469301261132232 0.32143947526586597 0
    outer loop
      vertex 113.9829629138112 57.92940952181816 10.3
      vertex 113.96193976700306 57.99134171307087 10.3
      vertex 113.9829629138112 57.92940952181816 15.8
    endloop
  endfacet
  facet normal 0.8314695944343035 0.5555702597613149 0
    outer loop
      vertex 113.89667666703463 58.10438071489334 10.3
      vertex 113.93301270157099 58.05 15.8
      vertex 113.93301270157099 58.05 10.3
    endloop
  endfacet
  facet normal 0.6593457684533663 0.7518398483870351 0
    outer loop
      vertex 113.80438071489334 58.19667666703462 10.3
      vertex 113.85355339199305 58.15355339199304 15.8
      vertex 113.85355339199305 58.15355339199304 10.3
    endloop
  endfacet
  facet normal 0.7518398483870351 0.6593457684533663 0
    outer loop
      vertex 113.89667666703463 58.10438071489334 10.3
      vertex 113.85355339199305 58.15355339199304 10.3
      vertex 113.89667666703463 58.10438071489334 15.8
    endloop
  endfacet
  facet normal 0 0 1
    outer loop
      vertex 102.00427757203579 46.734736907482144 15.8
      vertex 114 57.8 15.8
      vertex 113.99572242796421 57.86526309251785 15.8
    endloop
  endfacet
  facet normal 0 0 1
    outer loop
      vertex 102 46.8 15.8
      vertex 113.99572242796421 57.86526309251785 15.8
      vertex 113.9829629138112 57.92940952181816 15.8
    endloop
  endfacet
  facet normal 0 0 1
    outer loop
      vertex 102.30865828692913 58.26193976700306 15.8
      vertex 113.56526309251785 58.29572242796421 15.8
      vertex 113.5 58.3 15.8
    endloop
  endfacet
  facet normal 0 0 1
    outer loop
      vertex 102.25 58.233012701570985 15.8
      vertex 113.62940952181816 58.282962913811204 15.8
      vertex 113.56526309251785 58.29572242796421 15.8
    endloop
  endfacet
  facet normal 0 0 1
    outer loop
      vertex 102.19561928510666 58.19667666703462 15.8
      vertex 113.69134171307087 58.26193976700306 15.8
      vertex 113.62940952181816 58.282962913811204 15.8
    endloop
  endfacet
  facet normal 0 0 1
    outer loop
      vertex 102.14644660800695 58.15355339199304 15.8
      vertex 113.75 58.233012701570985 15.8
      vertex 113.69134171307087 58.26193976700306 15.8
    endloop
  endfacet
  facet normal 0 0 1
    outer loop
      vertex 102 57.8 15.8
      vertex 113.9829629138112 57.92940952181816 15.8
      vertex 113.96193976700306 57.99134171307087 15.8
    endloop
  endfacet
  facet normal 0 0 1
    outer loop
      vertex 102.00427757203579 57.86526309251785 15.8
      vertex 113.96193976700306 57.99134171307087 15.8
      vertex 113.93301270157099 58.05 15.8
    endloop
  endfacet
  facet normal 0 0 1
    outer loop
      vertex 102.0170370861888 57.92940952181816 15.8
      vertex 113.93301270157099 58.05 15.8
      vertex 113.89667666703463 58.10438071489334 15.8
    endloop
  endfacet
  facet normal 0 0 1
    outer loop
      vertex 102.03806023299694 57.99134171307087 15.8
      vertex 113.89667666703463 58.10438071489334 15.8
      vertex 113.85355339199305 58.15355339199304 15.8
    endloop
  endfacet
  facet normal 0 0 1
    outer loop
      vertex 102.06698729842901 58.05 15.8
      vertex 113.85355339199305 58.15355339199304 15.8
      vertex 113.80438071489334 58.19667666703462 15.8
    endloop
  endfacet
  facet normal 0 0 1
    outer loop
      vertex 102.10332333296537 58.10438071489334 15.8
      vertex 113.80438071489334 58.19667666703462 15.8
      vertex 113.75 58.233012701570985 15.8
    endloop
  endfacet
  facet normal 1 0 0
    outer loop
      vertex 114 46.8 15.8
      vertex 114 57.8 10.3
      vertex 114 57.8 15.8
    endloop
  endfacet
  facet normal 0.06540317426597998 0.9978589202867977 0
    outer loop
      vertex 113.5 58.3 10.3
      vertex 113.5 58.3 15.8
      vertex 113.56526309251785 58.29572242796421 15.8
    endloop
  endfacet
  facet normal 0.19509026380137226 0.9807852919828636 0
    outer loop
      vertex 113.56526309251785 58.29572242796421 10.3
      vertex 113.56526309251785 58.29572242796421 15.8
      vertex 113.62940952181816 58.282962913811204 15.8
    endloop
  endfacet
  facet normal 0.9978589202867977 0.06540317426597998 0
    outer loop
      vertex 113.99572242796421 57.86526309251785 10.3
      vertex 113.99572242796421 57.86526309251785 15.8
      vertex 114 57.8 15.8
    endloop
  endfacet
  facet normal 0.9807852919828636 0.19509026380137226 0
    outer loop
      vertex 113.9829629138112 57.92940952181816 10.3
      vertex 113.9829629138112 57.92940952181816 15.8
      vertex 113.99572242796421 57.86526309251785 15.8
    endloop
  endfacet
  facet normal 0.32143947526586597 0.9469301261132232 0
    outer loop
      vertex 113.62940952181816 58.282962913811204 10.3
      vertex 113.62940952181816 58.282962913811204 15.8
      vertex 113.69134171307087 58.26193976700306 15.8
    endloop
  endfacet
  facet normal 0.44228868448946673 0.8968727443581821 0
    outer loop
      vertex 113.69134171307087 58.26193976700306 10.3
      vertex 113.69134171307087 58.26193976700306 15.8
      vertex 113.75 58.233012701570985 15.8
    endloop
  endfacet
  facet normal 0.5555702597613149 0.8314695944343035 0
    outer loop
      vertex 113.75 58.233012701570985 10.3
      vertex 113.75 58.233012701570985 15.8
      vertex 113.80438071489334 58.19667666703462 15.8
    endloop
  endfacet
  facet normal 0.9469301261132232 0.32143947526586597 0
    outer loop
      vertex 113.96193976700306 57.99134171307087 10.3
      vertex 113.96193976700306 57.99134171307087 15.8
      vertex 113.9829629138112 57.92940952181816 15.8
    endloop
  endfacet
  facet normal 0.8968727443581821 0.44228868448946673 0
    outer loop
      vertex 113.93301270157099 58.05 10.3
      vertex 113.93301270157099 58.05 15.8
      vertex 113.96193976700306 57.99134171307087 15.8
    endloop
  endfacet
  facet normal 0.8314695944343035 0.5555702597613149 0
    outer loop
      vertex 113.89667666703463 58.10438071489334 10.3
      vertex 113.89667666703463 58.10438071489334 15.8
      vertex 113.93301270157099 58.05 15.8
    endloop
  endfacet
  facet normal 0.6593457684533663 0.7518398483870351 0
    outer loop
      vertex 113.80438071489334 58.19667666703462 10.3
      vertex 113.80438071489334 58.19667666703462 15.8
      vertex 113.85355339199305 58.15355339199304 15.8
    endloop
  endfacet
  facet normal 0.7518398483870351 0.6593457684533663 0
    outer loop
      vertex 113.85355339199305 58.15355339199304 10.3
      vertex 113.85355339199305 58.15355339199304 15.8
      vertex 113.89667666703463 58.10438071489334 15.8
    endloop
  endfacet
  facet normal 1 0 0
    outer loop
      vertex 102.8 47.099999999999994 13.100000000000001
      vertex 102.8 47.099999999999994 10.3
      vertex 102.8 57.49999999999999 13.100000000000001
    endloop
  endfacet
  facet normal 0 1 0
    outer loop
      vertex 102.8 47.099999999999994 13.100000000000001
      vertex 113.2 47.099999999999994 10.3
      vertex 102.8 47.099999999999994 10.3
    endloop
  endfacet
  facet normal 0 0 -1
    outer loop
      vertex 102.8 47.099999999999994 13.100000000000001
      vertex 102.8 57.49999999999999 13.100000000000001
      vertex 113.2 47.099999999999994 13.100000000000001
    endloop
  endfacet
  facet normal 1 0 0
    outer loop
      vertex 102.8 57.49999999999999 13.100000000000001
      vertex 102.8 47.099999999999994 10.3
      vertex 102.8 57.49999999999999 10.3
    endloop
  endfacet
  facet normal 0 -1 0
    outer loop
      vertex 102.8 57.49999999999999 13.100000000000001
      vertex 102.8 57.49999999999999 10.3
      vertex 113.2 57.49999999999999 13.100000000000001
    endloop
  endfacet
  facet normal 0 1 0
    outer loop
      vertex 102.8 47.099999999999994 13.100000000000001
      vertex 113.2 47.099999999999994 13.100000000000001
      vertex 113.2 47.099999999999994 10.3
    endloop
  endfacet
  facet normal -1 0 0
    outer loop
      vertex 113.2 47.099999999999994 13.100000000000001
      vertex 113.2 57.49999999999999 10.3
      vertex 113.2 47.099999999999994 10.3
    endloop
  endfacet
  facet normal 0 -1 0
    outer loop
      vertex 113.2 57.49999999999999 13.100000000000001
      vertex 102.8 57.49999999999999 10.3
      vertex 113.2 57.49999999999999 10.3
    endloop
  endfacet
  facet normal -1 0 0
    outer loop
      vertex 113.2 47.099999999999994 13.100000000000001
      vertex 113.2 57.49999999999999 13.100000000000001
      vertex 113.2 57.49999999999999 10.3
    endloop
  endfacet
  facet normal 0 0 -1
    outer loop
      vertex 102.8 57.49999999999999 13.100000000000001
      vertex 113.2 57.49999999999999 13.100000000000001
      vertex 113.2 47.099999999999994 13.100000000000001
    endloop
  endfacet
endsolid OpenSCAD_Model
