solid OpenSCAD_Model
  facet normal 0 0 1
    outer loop
      vertex 101.8 59.400000000000006 7.949999999999999
      vertex 103.39999999999999 42.6 7.949999999999999
      vertex 103.39999999999999 59.400000000000006 7.949999999999999
    endloop
  endfacet
  facet normal 0 0 1
    outer loop
      vertex 103.39999999999999 42.6 7.949999999999999
      vertex 101.8 59.400000000000006 7.949999999999999
      vertex 101.8 42.6 7.949999999999999
    endloop
  endfacet
  facet normal 0 0 -1
    outer loop
      vertex 101.8 42.6 7.449999999999999
      vertex 103.39999999999999 59.400000000000006 7.449999999999999
      vertex 103.39999999999999 42.6 7.449999999999999
    endloop
  endfacet
  facet normal 0 0 -1
    outer loop
      vertex 103.39999999999999 59.400000000000006 7.449999999999999
      vertex 101.8 42.6 7.449999999999999
      vertex 101.8 59.400000000000006 7.449999999999999
    endloop
  endfacet
  facet normal 0 -1 0
    outer loop
      vertex 101.8 42.6 7.449999999999999
      vertex 103.39999999999999 42.6 7.949999999999999
      vertex 101.8 42.6 7.949999999999999
    endloop
  endfacet
  facet normal 0 -1 0
    outer loop
      vertex 103.39999999999999 42.6 7.949999999999999
      vertex 101.8 42.6 7.449999999999999
      vertex 103.39999999999999 42.6 7.449999999999999
    endloop
  endfacet
  facet normal 1 0 0
    outer loop
      vertex 103.39999999999999 42.6 7.949999999999999
      vertex 103.39999999999999 59.400000000000006 7.449999999999999
      vertex 103.39999999999999 59.400000000000006 7.949999999999999
    endloop
  endfacet
  facet normal 1 0 0
    outer loop
      vertex 103.39999999999999 59.400000000000006 7.449999999999999
      vertex 103.39999999999999 42.6 7.949999999999999
      vertex 103.39999999999999 42.6 7.449999999999999
    endloop
  endfacet
  facet normal 0 1 0
    outer loop
      vertex 103.39999999999999 59.400000000000006 7.449999999999999
      vertex 101.8 59.400000000000006 7.949999999999999
      vertex 103.39999999999999 59.400000000000006 7.949999999999999
    endloop
  endfacet
  facet normal 0 1 0
    outer loop
      vertex 101.8 59.400000000000006 7.949999999999999
      vertex 103.39999999999999 59.400000000000006 7.449999999999999
      vertex 101.8 59.400000000000006 7.449999999999999
    endloop
  endfacet
  facet normal -1 0 0
    outer loop
      vertex 101.8 42.6 7.449999999999999
      vertex 101.8 59.400000000000006 7.949999999999999
      vertex 101.8 59.400000000000006 7.449999999999999
    endloop
  endfacet
  facet normal -1 0 0
    outer loop
      vertex 101.8 59.400000000000006 7.949999999999999
      vertex 101.8 42.6 7.449999999999999
      vertex 101.8 42.6 7.949999999999999
    endloop
  endfacet
endsolid OpenSCAD_Model
