solid OpenSCAD_Model
  facet normal 0.19509032081577646 -0.9807852806419953 0
    outer loop
      vertex 85.08222849816084 6.195558317005634 -3.2
      vertex 81.52210183590651 5.487405098974705 -2.35
      vertex 81.52210183590651 5.487405098974705 -3.2
    endloop
  endfacet
  facet normal 0.19509032081577646 -0.9807852806419953 0
    outer loop
      vertex 85.08222849816084 6.195558317005634 -3.2
      vertex 85.08222849816084 6.195558317005634 -2.35
      vertex 81.52210183590651 5.487405098974705 -2.35
    endloop
  endfacet
  facet normal 0.32143946678086177 -0.9469301289934942 0
    outer loop
      vertex 88.51946524679661 7.362342976033688 -3.2
      vertex 85.08222849816084 6.195558317005634 -2.35
      vertex 85.08222849816084 6.195558317005634 -3.2
    endloop
  endfacet
  facet normal 0.32143946678086177 -0.9469301289934942 0
    outer loop
      vertex 88.51946524679661 7.362342976033688 -3.2
      vertex 88.51946524679661 7.362342976033688 -2.35
      vertex 85.08222849816084 6.195558317005634 -2.35
    endloop
  endfacet
  facet normal 0.44228868918232017 -0.8968727420439229 0
    outer loop
      vertex 91.775 8.967795044183731 -3.2
      vertex 88.51946524679661 7.362342976033688 -2.35
      vertex 88.51946524679661 7.362342976033688 -3.2
    endloop
  endfacet
  facet normal 0.44228868918232017 -0.8968727420439229 0
    outer loop
      vertex 91.775 8.967795044183731 -3.2
      vertex 91.775 8.967795044183731 -2.35
      vertex 88.51946524679661 7.362342976033688 -2.35
    endloop
  endfacet
  facet normal 0.5555702328061954 -0.8314696124451391 0
    outer loop
      vertex 94.7931296542287 10.984444804489613 -3.2
      vertex 91.775 8.967795044183731 -2.35
      vertex 91.775 8.967795044183731 -3.2
    endloop
  endfacet
  facet normal 0.5555702328061954 -0.8314696124451391 0
    outer loop
      vertex 94.7931296542287 10.984444804489613 -3.2
      vertex 94.7931296542287 10.984444804489613 -2.35
      vertex 91.775 8.967795044183731 -2.35
    endloop
  endfacet
  facet normal 0.6593458155329552 -0.7518398070993463 0
    outer loop
      vertex 97.52221317738295 13.377786822617054 -3.2
      vertex 94.7931296542287 10.984444804489613 -2.35
      vertex 94.7931296542287 10.984444804489613 -3.2
    endloop
  endfacet
  facet normal 0.6593458155329552 -0.7518398070993463 0
    outer loop
      vertex 97.52221317738295 13.377786822617054 -3.2
      vertex 97.52221317738295 13.377786822617054 -2.35
      vertex 94.7931296542287 10.984444804489613 -2.35
    endloop
  endfacet
  facet normal 0.7518398070993463 -0.6593458155329552 0
    outer loop
      vertex 99.9155551955104 16.106870345771313 -3.2
      vertex 97.52221317738295 13.377786822617054 -2.35
      vertex 97.52221317738295 13.377786822617054 -3.2
    endloop
  endfacet
  facet normal 0.7518398070993463 -0.6593458155329552 0
    outer loop
      vertex 99.9155551955104 16.106870345771313 -3.2
      vertex 99.9155551955104 16.106870345771313 -2.35
      vertex 97.52221317738295 13.377786822617054 -2.35
    endloop
  endfacet
  facet normal 0.8314696124451391 -0.5555702328061954 0
    outer loop
      vertex 101.93220495581627 19.125 -3.2
      vertex 99.9155551955104 16.106870345771313 -2.35
      vertex 99.9155551955104 16.106870345771313 -3.2
    endloop
  endfacet
  facet normal 0.8314696124451391 -0.5555702328061954 0
    outer loop
      vertex 101.93220495581627 19.125 -3.2
      vertex 101.93220495581627 19.125 -2.35
      vertex 99.9155551955104 16.106870345771313 -2.35
    endloop
  endfacet
  facet normal 0.8968727420439229 -0.44228868918232017 0
    outer loop
      vertex 103.53765702396632 22.380534753203392 -3.2
      vertex 101.93220495581627 19.125 -2.35
      vertex 101.93220495581627 19.125 -3.2
    endloop
  endfacet
  facet normal 0.8968727420439229 -0.44228868918232017 0
    outer loop
      vertex 103.53765702396632 22.380534753203392 -3.2
      vertex 103.53765702396632 22.380534753203392 -2.35
      vertex 101.93220495581627 19.125 -2.35
    endloop
  endfacet
  facet normal 0.9469301289934942 -0.32143946678086177 0
    outer loop
      vertex 104.70444168299437 25.81777150183916 -3.2
      vertex 103.53765702396632 22.380534753203392 -2.35
      vertex 103.53765702396632 22.380534753203392 -3.2
    endloop
  endfacet
  facet normal 0.9469301289934942 -0.32143946678086177 0
    outer loop
      vertex 104.70444168299437 25.81777150183916 -3.2
      vertex 104.70444168299437 25.81777150183916 -2.35
      vertex 103.53765702396632 22.380534753203392 -2.35
    endloop
  endfacet
  facet normal 0.9807852806419953 -0.19509032081577646 0
    outer loop
      vertex 105.4125949010253 29.377898164093494 -3.2
      vertex 104.70444168299437 25.81777150183916 -2.35
      vertex 104.70444168299437 25.81777150183916 -3.2
    endloop
  endfacet
  facet normal 0.9807852806419953 -0.19509032081577646 0
    outer loop
      vertex 105.4125949010253 29.377898164093494 -3.2
      vertex 105.4125949010253 29.377898164093494 -2.35
      vertex 104.70444168299437 25.81777150183916 -2.35
    endloop
  endfacet
  facet normal 0.9978589232030051 -0.06540312977327249 0
    outer loop
      vertex 105.65 33 -3.2
      vertex 105.4125949010253 29.377898164093494 -2.35
      vertex 105.4125949010253 29.377898164093494 -3.2
    endloop
  endfacet
  facet normal 0.9978589232030051 -0.06540312977327249 0
    outer loop
      vertex 105.65 33 -3.2
      vertex 105.65 33 -2.35
      vertex 105.4125949010253 29.377898164093494 -2.35
    endloop
  endfacet
  facet normal 0.9978589232030051 0.06540312977327249 0
    outer loop
      vertex 105.4125949010253 36.622101835906506 -3.2
      vertex 105.65 33 -2.35
      vertex 105.65 33 -3.2
    endloop
  endfacet
  facet normal 0.9978589232030051 0.06540312977327249 0
    outer loop
      vertex 105.4125949010253 36.622101835906506 -3.2
      vertex 105.4125949010253 36.622101835906506 -2.35
      vertex 105.65 33 -2.35
    endloop
  endfacet
  facet normal 0.9807852806419953 0.19509032081577646 0
    outer loop
      vertex 104.70444168299437 40.18222849816084 -3.2
      vertex 105.4125949010253 36.622101835906506 -2.35
      vertex 105.4125949010253 36.622101835906506 -3.2
    endloop
  endfacet
  facet normal 0.9807852806419953 0.19509032081577646 0
    outer loop
      vertex 104.70444168299437 40.18222849816084 -3.2
      vertex 104.70444168299437 40.18222849816084 -2.35
      vertex 105.4125949010253 36.622101835906506 -2.35
    endloop
  endfacet
  facet normal 0.9469301289934942 0.32143946678086177 0
    outer loop
      vertex 103.53765702396632 43.61946524679661 -3.2
      vertex 104.70444168299437 40.18222849816084 -2.35
      vertex 104.70444168299437 40.18222849816084 -3.2
    endloop
  endfacet
  facet normal 0.9469301289934942 0.32143946678086177 0
    outer loop
      vertex 103.53765702396632 43.61946524679661 -3.2
      vertex 103.53765702396632 43.61946524679661 -2.35
      vertex 104.70444168299437 40.18222849816084 -2.35
    endloop
  endfacet
  facet normal 0.8968727420439229 0.44228868918232017 0
    outer loop
      vertex 101.93220495581627 46.875 -3.2
      vertex 103.53765702396632 43.61946524679661 -2.35
      vertex 103.53765702396632 43.61946524679661 -3.2
    endloop
  endfacet
  facet normal 0.8968727420439229 0.44228868918232017 0
    outer loop
      vertex 101.93220495581627 46.875 -3.2
      vertex 101.93220495581627 46.875 -2.35
      vertex 103.53765702396632 43.61946524679661 -2.35
    endloop
  endfacet
  facet normal 0.8314696124451391 0.5555702328061954 0
    outer loop
      vertex 99.9155551955104 49.89312965422869 -3.2
      vertex 101.93220495581627 46.875 -2.35
      vertex 101.93220495581627 46.875 -3.2
    endloop
  endfacet
  facet normal 0.8314696124451391 0.5555702328061954 0
    outer loop
      vertex 99.9155551955104 49.89312965422869 -3.2
      vertex 99.9155551955104 49.89312965422869 -2.35
      vertex 101.93220495581627 46.875 -2.35
    endloop
  endfacet
  facet normal 0.7518398070993463 0.6593458155329552 0
    outer loop
      vertex 97.52221317738295 52.622213177382946 -3.2
      vertex 99.9155551955104 49.89312965422869 -2.35
      vertex 99.9155551955104 49.89312965422869 -3.2
    endloop
  endfacet
  facet normal 0.7518398070993463 0.6593458155329552 0
    outer loop
      vertex 97.52221317738295 52.622213177382946 -3.2
      vertex 97.52221317738295 52.622213177382946 -2.35
      vertex 99.9155551955104 49.89312965422869 -2.35
    endloop
  endfacet
  facet normal 0.6593458155329552 0.7518398070993463 0
    outer loop
      vertex 94.7931296542287 55.01555519551039 -3.2
      vertex 97.52221317738295 52.622213177382946 -2.35
      vertex 97.52221317738295 52.622213177382946 -3.2
    endloop
  endfacet
  facet normal 0.6593458155329552 0.7518398070993463 0
    outer loop
      vertex 94.7931296542287 55.01555519551039 -3.2
      vertex 94.7931296542287 55.01555519551039 -2.35
      vertex 97.52221317738295 52.622213177382946 -2.35
    endloop
  endfacet
  facet normal 0.5555702328061954 0.8314696124451391 0
    outer loop
      vertex 91.775 57.03220495581627 -3.2
      vertex 94.7931296542287 55.01555519551039 -2.35
      vertex 94.7931296542287 55.01555519551039 -3.2
    endloop
  endfacet
  facet normal 0.5555702328061954 0.8314696124451391 0
    outer loop
      vertex 91.775 57.03220495581627 -3.2
      vertex 91.775 57.03220495581627 -2.35
      vertex 94.7931296542287 55.01555519551039 -2.35
    endloop
  endfacet
  facet normal 0.44228868918232017 0.8968727420439229 0
    outer loop
      vertex 88.51946524679661 58.63765702396631 -3.2
      vertex 91.775 57.03220495581627 -2.35
      vertex 91.775 57.03220495581627 -3.2
    endloop
  endfacet
  facet normal 0.44228868918232017 0.8968727420439229 0
    outer loop
      vertex 88.51946524679661 58.63765702396631 -3.2
      vertex 88.51946524679661 58.63765702396631 -2.35
      vertex 91.775 57.03220495581627 -2.35
    endloop
  endfacet
  facet normal 0.32143946678086177 0.9469301289934942 0
    outer loop
      vertex 85.08222849816084 59.804441682994366 -3.2
      vertex 88.51946524679661 58.63765702396631 -2.35
      vertex 88.51946524679661 58.63765702396631 -3.2
    endloop
  endfacet
  facet normal 0.32143946678086177 0.9469301289934942 0
    outer loop
      vertex 85.08222849816084 59.804441682994366 -3.2
      vertex 85.08222849816084 59.804441682994366 -2.35
      vertex 88.51946524679661 58.63765702396631 -2.35
    endloop
  endfacet
  facet normal 0.19509032081577646 0.9807852806419953 0
    outer loop
      vertex 81.52210183590651 60.512594901025295 -3.2
      vertex 85.08222849816084 59.804441682994366 -2.35
      vertex 85.08222849816084 59.804441682994366 -3.2
    endloop
  endfacet
  facet normal 0.19509032081577646 0.9807852806419953 0
    outer loop
      vertex 81.52210183590651 60.512594901025295 -3.2
      vertex 81.52210183590651 60.512594901025295 -2.35
      vertex 85.08222849816084 59.804441682994366 -2.35
    endloop
  endfacet
  facet normal 0.06540312977327249 0.9978589232030051 0
    outer loop
      vertex 77.9 60.75 -3.2
      vertex 81.52210183590651 60.512594901025295 -2.35
      vertex 81.52210183590651 60.512594901025295 -3.2
    endloop
  endfacet
  facet normal 0.06540312977327249 0.9978589232030051 0
    outer loop
      vertex 77.9 60.75 -3.2
      vertex 77.9 60.75 -2.35
      vertex 81.52210183590651 60.512594901025295 -2.35
    endloop
  endfacet
  facet normal -0.06540312977327249 0.9978589232030051 0
    outer loop
      vertex 74.2778981640935 60.512594901025295 -3.2
      vertex 77.9 60.75 -2.35
      vertex 77.9 60.75 -3.2
    endloop
  endfacet
  facet normal -0.06540312977327249 0.9978589232030051 0
    outer loop
      vertex 74.2778981640935 60.512594901025295 -3.2
      vertex 74.2778981640935 60.512594901025295 -2.35
      vertex 77.9 60.75 -2.35
    endloop
  endfacet
  facet normal -0.19509032081577646 0.9807852806419953 0
    outer loop
      vertex 70.71777150183917 59.804441682994366 -3.2
      vertex 74.2778981640935 60.512594901025295 -2.35
      vertex 74.2778981640935 60.512594901025295 -3.2
    endloop
  endfacet
  facet normal -0.19509032081577646 0.9807852806419953 0
    outer loop
      vertex 70.71777150183917 59.804441682994366 -3.2
      vertex 70.71777150183917 59.804441682994366 -2.35
      vertex 74.2778981640935 60.512594901025295 -2.35
    endloop
  endfacet
  facet normal -0.32143946678086177 0.9469301289934942 0
    outer loop
      vertex 67.2805347532034 58.63765702396631 -3.2
      vertex 70.71777150183917 59.804441682994366 -2.35
      vertex 70.71777150183917 59.804441682994366 -3.2
    endloop
  endfacet
  facet normal -0.32143946678086177 0.9469301289934942 0
    outer loop
      vertex 67.2805347532034 58.63765702396631 -3.2
      vertex 67.2805347532034 58.63765702396631 -2.35
      vertex 70.71777150183917 59.804441682994366 -2.35
    endloop
  endfacet
  facet normal -0.44228868918232017 0.8968727420439229 0
    outer loop
      vertex 64.025 57.03220495581627 -3.2
      vertex 67.2805347532034 58.63765702396631 -2.35
      vertex 67.2805347532034 58.63765702396631 -3.2
    endloop
  endfacet
  facet normal -0.44228868918232017 0.8968727420439229 0
    outer loop
      vertex 64.025 57.03220495581627 -3.2
      vertex 64.025 57.03220495581627 -2.35
      vertex 67.2805347532034 58.63765702396631 -2.35
    endloop
  endfacet
  facet normal -0.5555702328061954 0.8314696124451391 0
    outer loop
      vertex 61.00687034577132 55.01555519551039 -3.2
      vertex 64.025 57.03220495581627 -2.35
      vertex 64.025 57.03220495581627 -3.2
    endloop
  endfacet
  facet normal -0.5555702328061954 0.8314696124451391 0
    outer loop
      vertex 61.00687034577132 55.01555519551039 -3.2
      vertex 61.00687034577132 55.01555519551039 -2.35
      vertex 64.025 57.03220495581627 -2.35
    endloop
  endfacet
  facet normal -0.6593458155329552 0.7518398070993463 0
    outer loop
      vertex 58.27778682261706 52.622213177382946 -3.2
      vertex 61.00687034577132 55.01555519551039 -2.35
      vertex 61.00687034577132 55.01555519551039 -3.2
    endloop
  endfacet
  facet normal -0.6593458155329552 0.7518398070993463 0
    outer loop
      vertex 58.27778682261706 52.622213177382946 -3.2
      vertex 58.27778682261706 52.622213177382946 -2.35
      vertex 61.00687034577132 55.01555519551039 -2.35
    endloop
  endfacet
  facet normal -0.7518398070993463 0.6593458155329552 0
    outer loop
      vertex 55.88444480448962 49.89312965422869 -3.2
      vertex 58.27778682261706 52.622213177382946 -2.35
      vertex 58.27778682261706 52.622213177382946 -3.2
    endloop
  endfacet
  facet normal -0.7518398070993463 0.6593458155329552 0
    outer loop
      vertex 55.88444480448962 49.89312965422869 -3.2
      vertex 55.88444480448962 49.89312965422869 -2.35
      vertex 58.27778682261706 52.622213177382946 -2.35
    endloop
  endfacet
  facet normal -0.8314696124451391 0.5555702328061954 0
    outer loop
      vertex 53.86779504418374 46.875 -3.2
      vertex 55.88444480448962 49.89312965422869 -2.35
      vertex 55.88444480448962 49.89312965422869 -3.2
    endloop
  endfacet
  facet normal -0.8314696124451391 0.5555702328061954 0
    outer loop
      vertex 53.86779504418374 46.875 -3.2
      vertex 53.86779504418374 46.875 -2.35
      vertex 55.88444480448962 49.89312965422869 -2.35
    endloop
  endfacet
  facet normal -0.8968727420439229 0.44228868918232017 0
    outer loop
      vertex 52.26234297603369 43.61946524679661 -3.2
      vertex 53.86779504418374 46.875 -2.35
      vertex 53.86779504418374 46.875 -3.2
    endloop
  endfacet
  facet normal -0.8968727420439229 0.44228868918232017 0
    outer loop
      vertex 52.26234297603369 43.61946524679661 -3.2
      vertex 52.26234297603369 43.61946524679661 -2.35
      vertex 53.86779504418374 46.875 -2.35
    endloop
  endfacet
  facet normal -0.9469301289934942 0.32143946678086177 0
    outer loop
      vertex 51.09555831700564 40.18222849816084 -3.2
      vertex 52.26234297603369 43.61946524679661 -2.35
      vertex 52.26234297603369 43.61946524679661 -3.2
    endloop
  endfacet
  facet normal -0.9469301289934942 0.32143946678086177 0
    outer loop
      vertex 51.09555831700564 40.18222849816084 -3.2
      vertex 51.09555831700564 40.18222849816084 -2.35
      vertex 52.26234297603369 43.61946524679661 -2.35
    endloop
  endfacet
  facet normal -0.9807852806419953 0.19509032081577646 0
    outer loop
      vertex 50.38740509897471 36.622101835906506 -3.2
      vertex 51.09555831700564 40.18222849816084 -2.35
      vertex 51.09555831700564 40.18222849816084 -3.2
    endloop
  endfacet
  facet normal -0.9807852806419953 0.19509032081577646 0
    outer loop
      vertex 50.38740509897471 36.622101835906506 -3.2
      vertex 50.38740509897471 36.622101835906506 -2.35
      vertex 51.09555831700564 40.18222849816084 -2.35
    endloop
  endfacet
  facet normal -0.9978589232030051 0.06540312977327249 0
    outer loop
      vertex 50.150000000000006 33 -3.2
      vertex 50.38740509897471 36.622101835906506 -2.35
      vertex 50.38740509897471 36.622101835906506 -3.2
    endloop
  endfacet
  facet normal -0.9978589232030051 0.06540312977327249 0
    outer loop
      vertex 50.150000000000006 33 -3.2
      vertex 50.150000000000006 33 -2.35
      vertex 50.38740509897471 36.622101835906506 -2.35
    endloop
  endfacet
  facet normal -0.9978589232030051 -0.06540312977327249 0
    outer loop
      vertex 50.38740509897471 29.377898164093494 -3.2
      vertex 50.150000000000006 33 -2.35
      vertex 50.150000000000006 33 -3.2
    endloop
  endfacet
  facet normal -0.9978589232030051 -0.06540312977327249 0
    outer loop
      vertex 50.38740509897471 29.377898164093494 -3.2
      vertex 50.38740509897471 29.377898164093494 -2.35
      vertex 50.150000000000006 33 -2.35
    endloop
  endfacet
  facet normal -0.9807852806419953 -0.19509032081577646 0
    outer loop
      vertex 51.09555831700564 25.81777150183916 -3.2
      vertex 50.38740509897471 29.377898164093494 -2.35
      vertex 50.38740509897471 29.377898164093494 -3.2
    endloop
  endfacet
  facet normal -0.9807852806419953 -0.19509032081577646 0
    outer loop
      vertex 51.09555831700564 25.81777150183916 -3.2
      vertex 51.09555831700564 25.81777150183916 -2.35
      vertex 50.38740509897471 29.377898164093494 -2.35
    endloop
  endfacet
  facet normal -0.9469301289934942 -0.32143946678086177 0
    outer loop
      vertex 52.26234297603369 22.380534753203392 -3.2
      vertex 51.09555831700564 25.81777150183916 -2.35
      vertex 51.09555831700564 25.81777150183916 -3.2
    endloop
  endfacet
  facet normal -0.9469301289934942 -0.32143946678086177 0
    outer loop
      vertex 52.26234297603369 22.380534753203392 -3.2
      vertex 52.26234297603369 22.380534753203392 -2.35
      vertex 51.09555831700564 25.81777150183916 -2.35
    endloop
  endfacet
  facet normal -0.8968727420439229 -0.44228868918232017 0
    outer loop
      vertex 53.86779504418374 19.125 -3.2
      vertex 52.26234297603369 22.380534753203392 -2.35
      vertex 52.26234297603369 22.380534753203392 -3.2
    endloop
  endfacet
  facet normal -0.8968727420439229 -0.44228868918232017 0
    outer loop
      vertex 53.86779504418374 19.125 -3.2
      vertex 53.86779504418374 19.125 -2.35
      vertex 52.26234297603369 22.380534753203392 -2.35
    endloop
  endfacet
  facet normal -0.8314696124451391 -0.5555702328061954 0
    outer loop
      vertex 55.88444480448962 16.106870345771313 -3.2
      vertex 53.86779504418374 19.125 -2.35
      vertex 53.86779504418374 19.125 -3.2
    endloop
  endfacet
  facet normal -0.8314696124451391 -0.5555702328061954 0
    outer loop
      vertex 55.88444480448962 16.106870345771313 -3.2
      vertex 55.88444480448962 16.106870345771313 -2.35
      vertex 53.86779504418374 19.125 -2.35
    endloop
  endfacet
  facet normal -0.7518398070993463 -0.6593458155329552 0
    outer loop
      vertex 58.27778682261706 13.377786822617054 -3.2
      vertex 55.88444480448962 16.106870345771313 -2.35
      vertex 55.88444480448962 16.106870345771313 -3.2
    endloop
  endfacet
  facet normal -0.7518398070993463 -0.6593458155329552 0
    outer loop
      vertex 58.27778682261706 13.377786822617054 -3.2
      vertex 58.27778682261706 13.377786822617054 -2.35
      vertex 55.88444480448962 16.106870345771313 -2.35
    endloop
  endfacet
  facet normal -0.6593458155329552 -0.7518398070993463 0
    outer loop
      vertex 61.00687034577132 10.984444804489613 -3.2
      vertex 58.27778682261706 13.377786822617054 -2.35
      vertex 58.27778682261706 13.377786822617054 -3.2
    endloop
  endfacet
  facet normal -0.6593458155329552 -0.7518398070993463 0
    outer loop
      vertex 61.00687034577132 10.984444804489613 -3.2
      vertex 61.00687034577132 10.984444804489613 -2.35
      vertex 58.27778682261706 13.377786822617054 -2.35
    endloop
  endfacet
  facet normal -0.5555702328061954 -0.8314696124451391 0
    outer loop
      vertex 64.025 8.967795044183731 -3.2
      vertex 61.00687034577132 10.984444804489613 -2.35
      vertex 61.00687034577132 10.984444804489613 -3.2
    endloop
  endfacet
  facet normal -0.5555702328061954 -0.8314696124451391 0
    outer loop
      vertex 64.025 8.967795044183731 -3.2
      vertex 64.025 8.967795044183731 -2.35
      vertex 61.00687034577132 10.984444804489613 -2.35
    endloop
  endfacet
  facet normal -0.44228868918232017 -0.8968727420439229 0
    outer loop
      vertex 67.2805347532034 7.362342976033688 -3.2
      vertex 64.025 8.967795044183731 -2.35
      vertex 64.025 8.967795044183731 -3.2
    endloop
  endfacet
  facet normal -0.44228868918232017 -0.8968727420439229 0
    outer loop
      vertex 67.2805347532034 7.362342976033688 -3.2
      vertex 67.2805347532034 7.362342976033688 -2.35
      vertex 64.025 8.967795044183731 -2.35
    endloop
  endfacet
  facet normal -0.32143946678086177 -0.9469301289934942 0
    outer loop
      vertex 70.71777150183917 6.195558317005634 -3.2
      vertex 67.2805347532034 7.362342976033688 -2.35
      vertex 67.2805347532034 7.362342976033688 -3.2
    endloop
  endfacet
  facet normal -0.32143946678086177 -0.9469301289934942 0
    outer loop
      vertex 70.71777150183917 6.195558317005634 -3.2
      vertex 70.71777150183917 6.195558317005634 -2.35
      vertex 67.2805347532034 7.362342976033688 -2.35
    endloop
  endfacet
  facet normal -0.19509032081577646 -0.9807852806419953 0
    outer loop
      vertex 74.2778981640935 5.487405098974705 -3.2
      vertex 70.71777150183917 6.195558317005634 -2.35
      vertex 70.71777150183917 6.195558317005634 -3.2
    endloop
  endfacet
  facet normal -0.19509032081577646 -0.9807852806419953 0
    outer loop
      vertex 74.2778981640935 5.487405098974705 -3.2
      vertex 74.2778981640935 5.487405098974705 -2.35
      vertex 70.71777150183917 6.195558317005634 -2.35
    endloop
  endfacet
  facet normal -0.06540312977327249 -0.9978589232030051 0
    outer loop
      vertex 77.9 5.25 -3.2
      vertex 74.2778981640935 5.487405098974705 -2.35
      vertex 74.2778981640935 5.487405098974705 -3.2
    endloop
  endfacet
  facet normal -0.06540312977327249 -0.9978589232030051 0
    outer loop
      vertex 77.9 5.25 -3.2
      vertex 77.9 5.25 -2.35
      vertex 74.2778981640935 5.487405098974705 -2.35
    endloop
  endfacet
  facet normal 0.06540312977327249 -0.9978589232030051 0
    outer loop
      vertex 81.52210183590651 5.487405098974705 -3.2
      vertex 77.9 5.25 -2.35
      vertex 77.9 5.25 -3.2
    endloop
  endfacet
  facet normal 0.06540312977327249 -0.9978589232030051 0
    outer loop
      vertex 81.52210183590651 5.487405098974705 -3.2
      vertex 81.52210183590651 5.487405098974705 -2.35
      vertex 77.9 5.25 -2.35
    endloop
  endfacet
  facet normal 0.19509032164332296 0.980785280477386 0
    outer loop
      vertex 72.12833529114724 11.459854073822498 -3.2
      vertex 72.12833529114724 11.459854073822498 -2.35
      vertex 74.98926591277123 10.890779592096806 -3.2
    endloop
  endfacet
  facet normal 0.19509032164332296 0.980785280477386 0
    outer loop
      vertex 74.98926591277123 10.890779592096806 -2.35
      vertex 74.98926591277123 10.890779592096806 -3.2
      vertex 72.12833529114724 11.459854073822498 -2.35
    endloop
  endfacet
  facet normal 0.32143946560022085 0.9469301293942677 0
    outer loop
      vertex 69.3661594554782 12.397486425936222 -3.2
      vertex 69.3661594554782 12.397486425936222 -2.35
      vertex 72.12833529114724 11.459854073822498 -3.2
    endloop
  endfacet
  facet normal 0.32143946560022085 0.9469301293942677 0
    outer loop
      vertex 72.12833529114724 11.459854073822498 -2.35
      vertex 72.12833529114724 11.459854073822498 -3.2
      vertex 69.3661594554782 12.397486425936222 -2.35
    endloop
  endfacet
  facet normal 0.44228868956092104 0.8968727418572175 0
    outer loop
      vertex 66.75000000149012 13.687633492052555 -3.2
      vertex 66.75000000149012 13.687633492052555 -2.35
      vertex 69.3661594554782 12.397486425936222 -3.2
    endloop
  endfacet
  facet normal 0.44228868956092104 0.8968727418572175 0
    outer loop
      vertex 69.3661594554782 12.397486425936222 -2.35
      vertex 69.3661594554782 12.397486425936222 -3.2
      vertex 66.75000000149012 13.687633492052555 -2.35
    endloop
  endfacet
  facet normal 0.5555702345757146 0.8314696112627841 0
    outer loop
      vertex 64.32462013661862 15.308220513164997 -3.2
      vertex 64.32462013661862 15.308220513164997 -2.35
      vertex 66.75000000149012 13.687633492052555 -3.2
    endloop
  endfacet
  facet normal 0.5555702345757146 0.8314696112627841 0
    outer loop
      vertex 66.75000000149012 13.687633492052555 -2.35
      vertex 66.75000000149012 13.687633492052555 -3.2
      vertex 64.32462013661862 15.308220513164997 -2.35
    endloop
  endfacet
  facet normal 0.659345815321836 0.7518398072844927 0
    outer loop
      vertex 62.13151878267527 17.231518782675266 -3.2
      vertex 62.13151878267527 17.231518782675266 -2.35
      vertex 64.32462013661862 15.308220513164997 -3.2
    endloop
  endfacet
  facet normal 0.659345815321836 0.7518398072844927 0
    outer loop
      vertex 64.32462013661862 15.308220513164997 -2.35
      vertex 64.32462013661862 15.308220513164997 -3.2
      vertex 62.13151878267527 17.231518782675266 -2.35
    endloop
  endfacet
  facet normal 0.7518398072844927 0.659345815321836 0
    outer loop
      vertex 60.208220513165 19.424620136618614 -3.2
      vertex 60.208220513165 19.424620136618614 -2.35
      vertex 62.13151878267527 17.231518782675266 -3.2
    endloop
  endfacet
  facet normal 0.7518398072844927 0.659345815321836 0
    outer loop
      vertex 62.13151878267527 17.231518782675266 -2.35
      vertex 62.13151878267527 17.231518782675266 -3.2
      vertex 60.208220513165 19.424620136618614 -2.35
    endloop
  endfacet
  facet normal 0.8314696112627841 0.5555702345757146 0
    outer loop
      vertex 58.58763349205256 21.850000001490116 -3.2
      vertex 58.58763349205256 21.850000001490116 -2.35
      vertex 60.208220513165 19.424620136618614 -3.2
    endloop
  endfacet
  facet normal 0.8314696112627841 0.5555702345757146 0
    outer loop
      vertex 60.208220513165 19.424620136618614 -2.35
      vertex 60.208220513165 19.424620136618614 -3.2
      vertex 58.58763349205256 21.850000001490116 -2.35
    endloop
  endfacet
  facet normal 0.8968727418572175 0.44228868956092104 0
    outer loop
      vertex 57.29748642593623 24.46615945547819 -3.2
      vertex 57.29748642593623 24.46615945547819 -2.35
      vertex 58.58763349205256 21.850000001490116 -3.2
    endloop
  endfacet
  facet normal 0.8968727418572175 0.44228868956092104 0
    outer loop
      vertex 58.58763349205256 21.850000001490116 -2.35
      vertex 58.58763349205256 21.850000001490116 -3.2
      vertex 57.29748642593623 24.46615945547819 -2.35
    endloop
  endfacet
  facet normal 0.9469301293942677 0.32143946560022085 0
    outer loop
      vertex 56.359854073822504 27.228335291147232 -3.2
      vertex 56.359854073822504 27.228335291147232 -2.35
      vertex 57.29748642593623 24.46615945547819 -3.2
    endloop
  endfacet
  facet normal 0.9469301293942677 0.32143946560022085 0
    outer loop
      vertex 57.29748642593623 24.46615945547819 -2.35
      vertex 57.29748642593623 24.46615945547819 -3.2
      vertex 56.359854073822504 27.228335291147232 -2.35
    endloop
  endfacet
  facet normal 0.980785280477386 0.19509032164332296 0
    outer loop
      vertex 55.79077959209681 30.089265912771225 -3.2
      vertex 55.79077959209681 30.089265912771225 -2.35
      vertex 56.359854073822504 27.228335291147232 -3.2
    endloop
  endfacet
  facet normal 0.980785280477386 0.19509032164332296 0
    outer loop
      vertex 56.359854073822504 27.228335291147232 -2.35
      vertex 56.359854073822504 27.228335291147232 -3.2
      vertex 55.79077959209681 30.089265912771225 -2.35
    endloop
  endfacet
  facet normal 0.9978589232899452 0.06540312844682036 0
    outer loop
      vertex 55.60000000298024 33 -3.2
      vertex 55.60000000298024 33 -2.35
      vertex 55.79077959209681 30.089265912771225 -3.2
    endloop
  endfacet
  facet normal 0.9978589232899452 0.06540312844682036 0
    outer loop
      vertex 55.79077959209681 30.089265912771225 -2.35
      vertex 55.79077959209681 30.089265912771225 -3.2
      vertex 55.60000000298024 33 -2.35
    endloop
  endfacet
  facet normal 0.9978589232899452 -0.06540312844682036 0
    outer loop
      vertex 55.79077959209681 35.910734087228775 -3.2
      vertex 55.79077959209681 35.910734087228775 -2.35
      vertex 55.60000000298024 33 -3.2
    endloop
  endfacet
  facet normal 0.9978589232899452 -0.06540312844682036 0
    outer loop
      vertex 55.60000000298024 33 -2.35
      vertex 55.60000000298024 33 -3.2
      vertex 55.79077959209681 35.910734087228775 -2.35
    endloop
  endfacet
  facet normal 0.980785280477386 -0.19509032164332296 0
    outer loop
      vertex 56.359854073822504 38.77166470885277 -3.2
      vertex 56.359854073822504 38.77166470885277 -2.35
      vertex 55.79077959209681 35.910734087228775 -3.2
    endloop
  endfacet
  facet normal 0.980785280477386 -0.19509032164332296 0
    outer loop
      vertex 55.79077959209681 35.910734087228775 -2.35
      vertex 55.79077959209681 35.910734087228775 -3.2
      vertex 56.359854073822504 38.77166470885277 -2.35
    endloop
  endfacet
  facet normal 0.9469301293942677 -0.32143946560022085 0
    outer loop
      vertex 57.29748642593623 41.53384054452181 -3.2
      vertex 57.29748642593623 41.53384054452181 -2.35
      vertex 56.359854073822504 38.77166470885277 -3.2
    endloop
  endfacet
  facet normal 0.9469301293942677 -0.32143946560022085 0
    outer loop
      vertex 56.359854073822504 38.77166470885277 -2.35
      vertex 56.359854073822504 38.77166470885277 -3.2
      vertex 57.29748642593623 41.53384054452181 -2.35
    endloop
  endfacet
  facet normal 0.8968727418572175 -0.44228868956092104 0
    outer loop
      vertex 58.58763349205256 44.149999998509884 -3.2
      vertex 58.58763349205256 44.149999998509884 -2.35
      vertex 57.29748642593623 41.53384054452181 -3.2
    endloop
  endfacet
  facet normal 0.8968727418572175 -0.44228868956092104 0
    outer loop
      vertex 57.29748642593623 41.53384054452181 -2.35
      vertex 57.29748642593623 41.53384054452181 -3.2
      vertex 58.58763349205256 44.149999998509884 -2.35
    endloop
  endfacet
  facet normal 0.8314696112627841 -0.5555702345757146 0
    outer loop
      vertex 60.208220513165 46.575379863381386 -3.2
      vertex 60.208220513165 46.575379863381386 -2.35
      vertex 58.58763349205256 44.149999998509884 -3.2
    endloop
  endfacet
  facet normal 0.8314696112627841 -0.5555702345757146 0
    outer loop
      vertex 58.58763349205256 44.149999998509884 -2.35
      vertex 58.58763349205256 44.149999998509884 -3.2
      vertex 60.208220513165 46.575379863381386 -2.35
    endloop
  endfacet
  facet normal 0.7518398072844927 -0.659345815321836 0
    outer loop
      vertex 62.13151878267527 48.768481217324734 -3.2
      vertex 62.13151878267527 48.768481217324734 -2.35
      vertex 60.208220513165 46.575379863381386 -3.2
    endloop
  endfacet
  facet normal 0.7518398072844927 -0.659345815321836 0
    outer loop
      vertex 60.208220513165 46.575379863381386 -2.35
      vertex 60.208220513165 46.575379863381386 -3.2
      vertex 62.13151878267527 48.768481217324734 -2.35
    endloop
  endfacet
  facet normal 0.659345815321836 -0.7518398072844927 0
    outer loop
      vertex 64.32462013661862 50.691779486835 -3.2
      vertex 64.32462013661862 50.691779486835 -2.35
      vertex 62.13151878267527 48.768481217324734 -3.2
    endloop
  endfacet
  facet normal 0.659345815321836 -0.7518398072844927 0
    outer loop
      vertex 62.13151878267527 48.768481217324734 -2.35
      vertex 62.13151878267527 48.768481217324734 -3.2
      vertex 64.32462013661862 50.691779486835 -2.35
    endloop
  endfacet
  facet normal 0.5555702345757146 -0.8314696112627841 0
    outer loop
      vertex 66.75000000149012 52.312366507947445 -3.2
      vertex 66.75000000149012 52.312366507947445 -2.35
      vertex 64.32462013661862 50.691779486835 -3.2
    endloop
  endfacet
  facet normal 0.5555702345757146 -0.8314696112627841 0
    outer loop
      vertex 64.32462013661862 50.691779486835 -2.35
      vertex 64.32462013661862 50.691779486835 -3.2
      vertex 66.75000000149012 52.312366507947445 -2.35
    endloop
  endfacet
  facet normal 0.44228868956092104 -0.8968727418572175 0
    outer loop
      vertex 69.3661594554782 53.60251357406378 -3.2
      vertex 69.3661594554782 53.60251357406378 -2.35
      vertex 66.75000000149012 52.312366507947445 -3.2
    endloop
  endfacet
  facet normal 0.44228868956092104 -0.8968727418572175 0
    outer loop
      vertex 66.75000000149012 52.312366507947445 -2.35
      vertex 66.75000000149012 52.312366507947445 -3.2
      vertex 69.3661594554782 53.60251357406378 -2.35
    endloop
  endfacet
  facet normal 0.32143946560022085 -0.9469301293942677 0
    outer loop
      vertex 72.12833529114724 54.5401459261775 -3.2
      vertex 72.12833529114724 54.5401459261775 -2.35
      vertex 69.3661594554782 53.60251357406378 -3.2
    endloop
  endfacet
  facet normal 0.32143946560022085 -0.9469301293942677 0
    outer loop
      vertex 69.3661594554782 53.60251357406378 -2.35
      vertex 69.3661594554782 53.60251357406378 -3.2
      vertex 72.12833529114724 54.5401459261775 -2.35
    endloop
  endfacet
  facet normal 0.19509032164332296 -0.980785280477386 0
    outer loop
      vertex 74.98926591277123 55.109220407903194 -3.2
      vertex 74.98926591277123 55.109220407903194 -2.35
      vertex 72.12833529114724 54.5401459261775 -3.2
    endloop
  endfacet
  facet normal 0.19509032164332296 -0.980785280477386 0
    outer loop
      vertex 72.12833529114724 54.5401459261775 -2.35
      vertex 72.12833529114724 54.5401459261775 -3.2
      vertex 74.98926591277123 55.109220407903194 -2.35
    endloop
  endfacet
  facet normal 0.06540312844682036 -0.9978589232899452 0
    outer loop
      vertex 77.9 55.29999999701977 -3.2
      vertex 77.9 55.29999999701977 -2.35
      vertex 74.98926591277123 55.109220407903194 -3.2
    endloop
  endfacet
  facet normal 0.06540312844682036 -0.9978589232899452 0
    outer loop
      vertex 74.98926591277123 55.109220407903194 -2.35
      vertex 74.98926591277123 55.109220407903194 -3.2
      vertex 77.9 55.29999999701977 -2.35
    endloop
  endfacet
  facet normal -0.06540312844682036 -0.9978589232899452 0
    outer loop
      vertex 80.81073408722878 55.109220407903194 -3.2
      vertex 80.81073408722878 55.109220407903194 -2.35
      vertex 77.9 55.29999999701977 -3.2
    endloop
  endfacet
  facet normal -0.06540312844682036 -0.9978589232899452 0
    outer loop
      vertex 77.9 55.29999999701977 -2.35
      vertex 77.9 55.29999999701977 -3.2
      vertex 80.81073408722878 55.109220407903194 -2.35
    endloop
  endfacet
  facet normal -0.19509032164332296 -0.980785280477386 0
    outer loop
      vertex 83.67166470885277 54.5401459261775 -3.2
      vertex 83.67166470885277 54.5401459261775 -2.35
      vertex 80.81073408722878 55.109220407903194 -3.2
    endloop
  endfacet
  facet normal -0.19509032164332296 -0.980785280477386 0
    outer loop
      vertex 80.81073408722878 55.109220407903194 -2.35
      vertex 80.81073408722878 55.109220407903194 -3.2
      vertex 83.67166470885277 54.5401459261775 -2.35
    endloop
  endfacet
  facet normal -0.32143946560022085 -0.9469301293942677 0
    outer loop
      vertex 86.43384054452181 53.60251357406378 -3.2
      vertex 86.43384054452181 53.60251357406378 -2.35
      vertex 83.67166470885277 54.5401459261775 -3.2
    endloop
  endfacet
  facet normal -0.32143946560022085 -0.9469301293942677 0
    outer loop
      vertex 83.67166470885277 54.5401459261775 -2.35
      vertex 83.67166470885277 54.5401459261775 -3.2
      vertex 86.43384054452181 53.60251357406378 -2.35
    endloop
  endfacet
  facet normal -0.44228868956092104 -0.8968727418572175 0
    outer loop
      vertex 89.04999999850989 52.312366507947445 -3.2
      vertex 89.04999999850989 52.312366507947445 -2.35
      vertex 86.43384054452181 53.60251357406378 -3.2
    endloop
  endfacet
  facet normal -0.44228868956092104 -0.8968727418572175 0
    outer loop
      vertex 86.43384054452181 53.60251357406378 -2.35
      vertex 86.43384054452181 53.60251357406378 -3.2
      vertex 89.04999999850989 52.312366507947445 -2.35
    endloop
  endfacet
  facet normal -0.5555702345757146 -0.8314696112627841 0
    outer loop
      vertex 91.47537986338139 50.691779486835 -3.2
      vertex 91.47537986338139 50.691779486835 -2.35
      vertex 89.04999999850989 52.312366507947445 -3.2
    endloop
  endfacet
  facet normal -0.5555702345757146 -0.8314696112627841 0
    outer loop
      vertex 89.04999999850989 52.312366507947445 -2.35
      vertex 89.04999999850989 52.312366507947445 -3.2
      vertex 91.47537986338139 50.691779486835 -2.35
    endloop
  endfacet
  facet normal -0.659345815321836 -0.7518398072844927 0
    outer loop
      vertex 93.66848121732474 48.768481217324734 -3.2
      vertex 93.66848121732474 48.768481217324734 -2.35
      vertex 91.47537986338139 50.691779486835 -3.2
    endloop
  endfacet
  facet normal -0.659345815321836 -0.7518398072844927 0
    outer loop
      vertex 91.47537986338139 50.691779486835 -2.35
      vertex 91.47537986338139 50.691779486835 -3.2
      vertex 93.66848121732474 48.768481217324734 -2.35
    endloop
  endfacet
  facet normal -0.7518398072844927 -0.659345815321836 0
    outer loop
      vertex 95.59177948683501 46.575379863381386 -3.2
      vertex 95.59177948683501 46.575379863381386 -2.35
      vertex 93.66848121732474 48.768481217324734 -3.2
    endloop
  endfacet
  facet normal -0.7518398072844927 -0.659345815321836 0
    outer loop
      vertex 93.66848121732474 48.768481217324734 -2.35
      vertex 93.66848121732474 48.768481217324734 -3.2
      vertex 95.59177948683501 46.575379863381386 -2.35
    endloop
  endfacet
  facet normal -0.8314696112627841 -0.5555702345757146 0
    outer loop
      vertex 97.21236650794745 44.149999998509884 -3.2
      vertex 97.21236650794745 44.149999998509884 -2.35
      vertex 95.59177948683501 46.575379863381386 -3.2
    endloop
  endfacet
  facet normal -0.8314696112627841 -0.5555702345757146 0
    outer loop
      vertex 95.59177948683501 46.575379863381386 -2.35
      vertex 95.59177948683501 46.575379863381386 -3.2
      vertex 97.21236650794745 44.149999998509884 -2.35
    endloop
  endfacet
  facet normal -0.8968727418572175 -0.44228868956092104 0
    outer loop
      vertex 98.50251357406378 41.53384054452181 -3.2
      vertex 98.50251357406378 41.53384054452181 -2.35
      vertex 97.21236650794745 44.149999998509884 -3.2
    endloop
  endfacet
  facet normal -0.8968727418572175 -0.44228868956092104 0
    outer loop
      vertex 97.21236650794745 44.149999998509884 -2.35
      vertex 97.21236650794745 44.149999998509884 -3.2
      vertex 98.50251357406378 41.53384054452181 -2.35
    endloop
  endfacet
  facet normal -0.9469301293942677 -0.32143946560022085 0
    outer loop
      vertex 99.44014592617751 38.77166470885277 -3.2
      vertex 99.44014592617751 38.77166470885277 -2.35
      vertex 98.50251357406378 41.53384054452181 -3.2
    endloop
  endfacet
  facet normal -0.9469301293942677 -0.32143946560022085 0
    outer loop
      vertex 98.50251357406378 41.53384054452181 -2.35
      vertex 98.50251357406378 41.53384054452181 -3.2
      vertex 99.44014592617751 38.77166470885277 -2.35
    endloop
  endfacet
  facet normal -0.980785280477386 -0.19509032164332296 0
    outer loop
      vertex 100.0092204079032 35.910734087228775 -3.2
      vertex 100.0092204079032 35.910734087228775 -2.35
      vertex 99.44014592617751 38.77166470885277 -3.2
    endloop
  endfacet
  facet normal -0.980785280477386 -0.19509032164332296 0
    outer loop
      vertex 99.44014592617751 38.77166470885277 -2.35
      vertex 99.44014592617751 38.77166470885277 -3.2
      vertex 100.0092204079032 35.910734087228775 -2.35
    endloop
  endfacet
  facet normal -0.9978589232899452 -0.06540312844682036 0
    outer loop
      vertex 100.19999999701977 33 -3.2
      vertex 100.19999999701977 33 -2.35
      vertex 100.0092204079032 35.910734087228775 -3.2
    endloop
  endfacet
  facet normal -0.9978589232899452 -0.06540312844682036 0
    outer loop
      vertex 100.0092204079032 35.910734087228775 -2.35
      vertex 100.0092204079032 35.910734087228775 -3.2
      vertex 100.19999999701977 33 -2.35
    endloop
  endfacet
  facet normal -0.9978589232899452 0.06540312844682036 0
    outer loop
      vertex 100.0092204079032 30.089265912771225 -3.2
      vertex 100.0092204079032 30.089265912771225 -2.35
      vertex 100.19999999701977 33 -3.2
    endloop
  endfacet
  facet normal -0.9978589232899452 0.06540312844682036 0
    outer loop
      vertex 100.19999999701977 33 -2.35
      vertex 100.19999999701977 33 -3.2
      vertex 100.0092204079032 30.089265912771225 -2.35
    endloop
  endfacet
  facet normal -0.980785280477386 0.19509032164332296 0
    outer loop
      vertex 99.44014592617751 27.228335291147232 -3.2
      vertex 99.44014592617751 27.228335291147232 -2.35
      vertex 100.0092204079032 30.089265912771225 -3.2
    endloop
  endfacet
  facet normal -0.980785280477386 0.19509032164332296 0
    outer loop
      vertex 100.0092204079032 30.089265912771225 -2.35
      vertex 100.0092204079032 30.089265912771225 -3.2
      vertex 99.44014592617751 27.228335291147232 -2.35
    endloop
  endfacet
  facet normal -0.9469301293942677 0.32143946560022085 0
    outer loop
      vertex 98.50251357406378 24.46615945547819 -3.2
      vertex 98.50251357406378 24.46615945547819 -2.35
      vertex 99.44014592617751 27.228335291147232 -3.2
    endloop
  endfacet
  facet normal -0.9469301293942677 0.32143946560022085 0
    outer loop
      vertex 99.44014592617751 27.228335291147232 -2.35
      vertex 99.44014592617751 27.228335291147232 -3.2
      vertex 98.50251357406378 24.46615945547819 -2.35
    endloop
  endfacet
  facet normal -0.8968727418572175 0.44228868956092104 0
    outer loop
      vertex 97.21236650794745 21.850000001490116 -3.2
      vertex 97.21236650794745 21.850000001490116 -2.35
      vertex 98.50251357406378 24.46615945547819 -3.2
    endloop
  endfacet
  facet normal -0.8968727418572175 0.44228868956092104 0
    outer loop
      vertex 98.50251357406378 24.46615945547819 -2.35
      vertex 98.50251357406378 24.46615945547819 -3.2
      vertex 97.21236650794745 21.850000001490116 -2.35
    endloop
  endfacet
  facet normal -0.8314696112627841 0.5555702345757146 0
    outer loop
      vertex 95.59177948683501 19.424620136618614 -3.2
      vertex 95.59177948683501 19.424620136618614 -2.35
      vertex 97.21236650794745 21.850000001490116 -3.2
    endloop
  endfacet
  facet normal -0.8314696112627841 0.5555702345757146 0
    outer loop
      vertex 97.21236650794745 21.850000001490116 -2.35
      vertex 97.21236650794745 21.850000001490116 -3.2
      vertex 95.59177948683501 19.424620136618614 -2.35
    endloop
  endfacet
  facet normal -0.7518398072844927 0.659345815321836 0
    outer loop
      vertex 93.66848121732474 17.231518782675266 -3.2
      vertex 93.66848121732474 17.231518782675266 -2.35
      vertex 95.59177948683501 19.424620136618614 -3.2
    endloop
  endfacet
  facet normal -0.7518398072844927 0.659345815321836 0
    outer loop
      vertex 95.59177948683501 19.424620136618614 -2.35
      vertex 95.59177948683501 19.424620136618614 -3.2
      vertex 93.66848121732474 17.231518782675266 -2.35
    endloop
  endfacet
  facet normal -0.659345815321836 0.7518398072844927 0
    outer loop
      vertex 91.47537986338139 15.308220513164997 -3.2
      vertex 91.47537986338139 15.308220513164997 -2.35
      vertex 93.66848121732474 17.231518782675266 -3.2
    endloop
  endfacet
  facet normal -0.659345815321836 0.7518398072844927 0
    outer loop
      vertex 93.66848121732474 17.231518782675266 -2.35
      vertex 93.66848121732474 17.231518782675266 -3.2
      vertex 91.47537986338139 15.308220513164997 -2.35
    endloop
  endfacet
  facet normal -0.5555702345757146 0.8314696112627841 0
    outer loop
      vertex 89.04999999850989 13.687633492052555 -3.2
      vertex 89.04999999850989 13.687633492052555 -2.35
      vertex 91.47537986338139 15.308220513164997 -3.2
    endloop
  endfacet
  facet normal -0.5555702345757146 0.8314696112627841 0
    outer loop
      vertex 91.47537986338139 15.308220513164997 -2.35
      vertex 91.47537986338139 15.308220513164997 -3.2
      vertex 89.04999999850989 13.687633492052555 -2.35
    endloop
  endfacet
  facet normal -0.44228868956092104 0.8968727418572175 0
    outer loop
      vertex 86.43384054452181 12.397486425936222 -3.2
      vertex 86.43384054452181 12.397486425936222 -2.35
      vertex 89.04999999850989 13.687633492052555 -3.2
    endloop
  endfacet
  facet normal -0.44228868956092104 0.8968727418572175 0
    outer loop
      vertex 89.04999999850989 13.687633492052555 -2.35
      vertex 89.04999999850989 13.687633492052555 -3.2
      vertex 86.43384054452181 12.397486425936222 -2.35
    endloop
  endfacet
  facet normal -0.32143946560022085 0.9469301293942677 0
    outer loop
      vertex 83.67166470885277 11.459854073822498 -3.2
      vertex 83.67166470885277 11.459854073822498 -2.35
      vertex 86.43384054452181 12.397486425936222 -3.2
    endloop
  endfacet
  facet normal -0.32143946560022085 0.9469301293942677 0
    outer loop
      vertex 86.43384054452181 12.397486425936222 -2.35
      vertex 86.43384054452181 12.397486425936222 -3.2
      vertex 83.67166470885277 11.459854073822498 -2.35
    endloop
  endfacet
  facet normal -0.19509032164332296 0.980785280477386 0
    outer loop
      vertex 80.81073408722878 10.890779592096806 -3.2
      vertex 80.81073408722878 10.890779592096806 -2.35
      vertex 83.67166470885277 11.459854073822498 -3.2
    endloop
  endfacet
  facet normal -0.19509032164332296 0.980785280477386 0
    outer loop
      vertex 83.67166470885277 11.459854073822498 -2.35
      vertex 83.67166470885277 11.459854073822498 -3.2
      vertex 80.81073408722878 10.890779592096806 -2.35
    endloop
  endfacet
  facet normal -0.06540312844682036 0.9978589232899452 0
    outer loop
      vertex 77.9 10.700000002980232 -3.2
      vertex 77.9 10.700000002980232 -2.35
      vertex 80.81073408722878 10.890779592096806 -3.2
    endloop
  endfacet
  facet normal -0.06540312844682036 0.9978589232899452 0
    outer loop
      vertex 80.81073408722878 10.890779592096806 -2.35
      vertex 80.81073408722878 10.890779592096806 -3.2
      vertex 77.9 10.700000002980232 -2.35
    endloop
  endfacet
  facet normal 0.06540312844682036 0.9978589232899452 0
    outer loop
      vertex 74.98926591277123 10.890779592096806 -3.2
      vertex 74.98926591277123 10.890779592096806 -2.35
      vertex 77.9 10.700000002980232 -3.2
    endloop
  endfacet
  facet normal 0.06540312844682036 0.9978589232899452 0
    outer loop
      vertex 77.9 10.700000002980232 -2.35
      vertex 77.9 10.700000002980232 -3.2
      vertex 74.98926591277123 10.890779592096806 -2.35
    endloop
  endfacet
  facet normal 0 0 1
    outer loop
      vertex 105.65 33 -2.35
      vertex 100.19999999701977 33 -2.35
      vertex 100.0092204079032 30.089265912771225 -2.35
    endloop
  endfacet
  facet normal 0 0 1
    outer loop
      vertex 105.4125949010253 29.377898164093494 -2.35
      vertex 105.65 33 -2.35
      vertex 100.0092204079032 30.089265912771225 -2.35
    endloop
  endfacet
  facet normal 0 0 1
    outer loop
      vertex 100.0092204079032 35.910734087228775 -2.35
      vertex 100.19999999701977 33 -2.35
      vertex 105.65 33 -2.35
    endloop
  endfacet
  facet normal 0 0 1
    outer loop
      vertex 100.0092204079032 35.910734087228775 -2.35
      vertex 105.65 33 -2.35
      vertex 105.4125949010253 36.622101835906506 -2.35
    endloop
  endfacet
  facet normal 0 0 1
    outer loop
      vertex 105.4125949010253 29.377898164093494 -2.35
      vertex 100.0092204079032 30.089265912771225 -2.35
      vertex 99.44014592617751 27.228335291147232 -2.35
    endloop
  endfacet
  facet normal 0 0 1
    outer loop
      vertex 104.70444168299437 25.81777150183916 -2.35
      vertex 105.4125949010253 29.377898164093494 -2.35
      vertex 99.44014592617751 27.228335291147232 -2.35
    endloop
  endfacet
  facet normal 0 0 1
    outer loop
      vertex 99.44014592617751 38.77166470885277 -2.35
      vertex 100.0092204079032 35.910734087228775 -2.35
      vertex 105.4125949010253 36.622101835906506 -2.35
    endloop
  endfacet
  facet normal 0 0 1
    outer loop
      vertex 99.44014592617751 38.77166470885277 -2.35
      vertex 105.4125949010253 36.622101835906506 -2.35
      vertex 104.70444168299437 40.18222849816084 -2.35
    endloop
  endfacet
  facet normal 0 0 1
    outer loop
      vertex 104.70444168299437 25.81777150183916 -2.35
      vertex 99.44014592617751 27.228335291147232 -2.35
      vertex 98.50251357406378 24.46615945547819 -2.35
    endloop
  endfacet
  facet normal 0 0 1
    outer loop
      vertex 103.53765702396632 22.380534753203392 -2.35
      vertex 104.70444168299437 25.81777150183916 -2.35
      vertex 98.50251357406378 24.46615945547819 -2.35
    endloop
  endfacet
  facet normal 0 0 1
    outer loop
      vertex 103.53765702396632 22.380534753203392 -2.35
      vertex 98.50251357406378 24.46615945547819 -2.35
      vertex 97.21236650794745 21.850000001490116 -2.35
    endloop
  endfacet
  facet normal 0 0 1
    outer loop
      vertex 101.93220495581627 19.125 -2.35
      vertex 103.53765702396632 22.380534753203392 -2.35
      vertex 97.21236650794745 21.850000001490116 -2.35
    endloop
  endfacet
  facet normal 0 0 1
    outer loop
      vertex 101.93220495581627 19.125 -2.35
      vertex 97.21236650794745 21.850000001490116 -2.35
      vertex 95.59177948683501 19.424620136618614 -2.35
    endloop
  endfacet
  facet normal 0 0 1
    outer loop
      vertex 99.9155551955104 16.106870345771313 -2.35
      vertex 101.93220495581627 19.125 -2.35
      vertex 95.59177948683501 19.424620136618614 -2.35
    endloop
  endfacet
  facet normal 0 0 1
    outer loop
      vertex 99.9155551955104 16.106870345771313 -2.35
      vertex 95.59177948683501 19.424620136618614 -2.35
      vertex 93.66848121732474 17.231518782675266 -2.35
    endloop
  endfacet
  facet normal 0 0 1
    outer loop
      vertex 97.52221317738295 13.377786822617054 -2.35
      vertex 99.9155551955104 16.106870345771313 -2.35
      vertex 93.66848121732474 17.231518782675266 -2.35
    endloop
  endfacet
  facet normal 0 0 1
    outer loop
      vertex 97.52221317738295 13.377786822617054 -2.35
      vertex 93.66848121732474 17.231518782675266 -2.35
      vertex 91.47537986338139 15.308220513164997 -2.35
    endloop
  endfacet
  facet normal 0 0 1
    outer loop
      vertex 94.7931296542287 10.984444804489613 -2.35
      vertex 97.52221317738295 13.377786822617054 -2.35
      vertex 91.47537986338139 15.308220513164997 -2.35
    endloop
  endfacet
  facet normal 0 0 1
    outer loop
      vertex 94.7931296542287 10.984444804489613 -2.35
      vertex 91.47537986338139 15.308220513164997 -2.35
      vertex 89.04999999850989 13.687633492052555 -2.35
    endloop
  endfacet
  facet normal 0 0 1
    outer loop
      vertex 91.775 8.967795044183731 -2.35
      vertex 94.7931296542287 10.984444804489613 -2.35
      vertex 89.04999999850989 13.687633492052555 -2.35
    endloop
  endfacet
  facet normal 0 0 1
    outer loop
      vertex 91.775 8.967795044183731 -2.35
      vertex 89.04999999850989 13.687633492052555 -2.35
      vertex 86.43384054452181 12.397486425936222 -2.35
    endloop
  endfacet
  facet normal 0 0 1
    outer loop
      vertex 88.51946524679661 7.362342976033688 -2.35
      vertex 91.775 8.967795044183731 -2.35
      vertex 86.43384054452181 12.397486425936222 -2.35
    endloop
  endfacet
  facet normal 0 0 1
    outer loop
      vertex 88.51946524679661 7.362342976033688 -2.35
      vertex 86.43384054452181 12.397486425936222 -2.35
      vertex 83.67166470885277 11.459854073822498 -2.35
    endloop
  endfacet
  facet normal 0 0 1
    outer loop
      vertex 85.08222849816084 6.195558317005634 -2.35
      vertex 88.51946524679661 7.362342976033688 -2.35
      vertex 83.67166470885277 11.459854073822498 -2.35
    endloop
  endfacet
  facet normal 0 0 1
    outer loop
      vertex 85.08222849816084 6.195558317005634 -2.35
      vertex 83.67166470885277 11.459854073822498 -2.35
      vertex 80.81073408722878 10.890779592096806 -2.35
    endloop
  endfacet
  facet normal 0 0 1
    outer loop
      vertex 81.52210183590651 5.487405098974705 -2.35
      vertex 85.08222849816084 6.195558317005634 -2.35
      vertex 80.81073408722878 10.890779592096806 -2.35
    endloop
  endfacet
  facet normal 0 0 1
    outer loop
      vertex 81.52210183590651 5.487405098974705 -2.35
      vertex 80.81073408722878 10.890779592096806 -2.35
      vertex 77.9 10.700000002980232 -2.35
    endloop
  endfacet
  facet normal 0 0 1
    outer loop
      vertex 77.9 5.25 -2.35
      vertex 81.52210183590651 5.487405098974705 -2.35
      vertex 77.9 10.700000002980232 -2.35
    endloop
  endfacet
  facet normal 0 0 1
    outer loop
      vertex 77.9 5.25 -2.35
      vertex 77.9 10.700000002980232 -2.35
      vertex 74.98926591277123 10.890779592096806 -2.35
    endloop
  endfacet
  facet normal 0 0 1
    outer loop
      vertex 74.2778981640935 5.487405098974705 -2.35
      vertex 77.9 5.25 -2.35
      vertex 74.98926591277123 10.890779592096806 -2.35
    endloop
  endfacet
  facet normal 0 0 1
    outer loop
      vertex 74.2778981640935 5.487405098974705 -2.35
      vertex 74.98926591277123 10.890779592096806 -2.35
      vertex 72.12833529114724 11.459854073822498 -2.35
    endloop
  endfacet
  facet normal 0 0 1
    outer loop
      vertex 70.71777150183917 6.195558317005634 -2.35
      vertex 74.2778981640935 5.487405098974705 -2.35
      vertex 72.12833529114724 11.459854073822498 -2.35
    endloop
  endfacet
  facet normal 0 0 1
    outer loop
      vertex 98.50251357406378 41.53384054452181 -2.35
      vertex 99.44014592617751 38.77166470885277 -2.35
      vertex 104.70444168299437 40.18222849816084 -2.35
    endloop
  endfacet
  facet normal 0 0 1
    outer loop
      vertex 98.50251357406378 41.53384054452181 -2.35
      vertex 104.70444168299437 40.18222849816084 -2.35
      vertex 103.53765702396632 43.61946524679661 -2.35
    endloop
  endfacet
  facet normal 0 0 1
    outer loop
      vertex 97.21236650794745 44.149999998509884 -2.35
      vertex 98.50251357406378 41.53384054452181 -2.35
      vertex 103.53765702396632 43.61946524679661 -2.35
    endloop
  endfacet
  facet normal 0 0 1
    outer loop
      vertex 97.21236650794745 44.149999998509884 -2.35
      vertex 103.53765702396632 43.61946524679661 -2.35
      vertex 101.93220495581627 46.875 -2.35
    endloop
  endfacet
  facet normal 0 0 1
    outer loop
      vertex 95.59177948683501 46.575379863381386 -2.35
      vertex 97.21236650794745 44.149999998509884 -2.35
      vertex 101.93220495581627 46.875 -2.35
    endloop
  endfacet
  facet normal 0 0 1
    outer loop
      vertex 95.59177948683501 46.575379863381386 -2.35
      vertex 101.93220495581627 46.875 -2.35
      vertex 99.9155551955104 49.89312965422869 -2.35
    endloop
  endfacet
  facet normal 0 0 1
    outer loop
      vertex 93.66848121732474 48.768481217324734 -2.35
      vertex 95.59177948683501 46.575379863381386 -2.35
      vertex 99.9155551955104 49.89312965422869 -2.35
    endloop
  endfacet
  facet normal 0 0 1
    outer loop
      vertex 93.66848121732474 48.768481217324734 -2.35
      vertex 99.9155551955104 49.89312965422869 -2.35
      vertex 97.52221317738295 52.622213177382946 -2.35
    endloop
  endfacet
  facet normal 0 0 1
    outer loop
      vertex 91.47537986338139 50.691779486835 -2.35
      vertex 93.66848121732474 48.768481217324734 -2.35
      vertex 97.52221317738295 52.622213177382946 -2.35
    endloop
  endfacet
  facet normal 0 0 1
    outer loop
      vertex 91.47537986338139 50.691779486835 -2.35
      vertex 97.52221317738295 52.622213177382946 -2.35
      vertex 94.7931296542287 55.01555519551039 -2.35
    endloop
  endfacet
  facet normal 0 0 1
    outer loop
      vertex 89.04999999850989 52.312366507947445 -2.35
      vertex 91.47537986338139 50.691779486835 -2.35
      vertex 94.7931296542287 55.01555519551039 -2.35
    endloop
  endfacet
  facet normal 0 0 1
    outer loop
      vertex 89.04999999850989 52.312366507947445 -2.35
      vertex 94.7931296542287 55.01555519551039 -2.35
      vertex 91.775 57.03220495581627 -2.35
    endloop
  endfacet
  facet normal 0 0 1
    outer loop
      vertex 86.43384054452181 53.60251357406378 -2.35
      vertex 89.04999999850989 52.312366507947445 -2.35
      vertex 91.775 57.03220495581627 -2.35
    endloop
  endfacet
  facet normal 0 0 1
    outer loop
      vertex 86.43384054452181 53.60251357406378 -2.35
      vertex 91.775 57.03220495581627 -2.35
      vertex 88.51946524679661 58.63765702396631 -2.35
    endloop
  endfacet
  facet normal 0 0 1
    outer loop
      vertex 83.67166470885277 54.5401459261775 -2.35
      vertex 86.43384054452181 53.60251357406378 -2.35
      vertex 88.51946524679661 58.63765702396631 -2.35
    endloop
  endfacet
  facet normal 0 0 1
    outer loop
      vertex 83.67166470885277 54.5401459261775 -2.35
      vertex 88.51946524679661 58.63765702396631 -2.35
      vertex 85.08222849816084 59.804441682994366 -2.35
    endloop
  endfacet
  facet normal 0 0 1
    outer loop
      vertex 80.81073408722878 55.109220407903194 -2.35
      vertex 83.67166470885277 54.5401459261775 -2.35
      vertex 85.08222849816084 59.804441682994366 -2.35
    endloop
  endfacet
  facet normal 0 0 1
    outer loop
      vertex 80.81073408722878 55.109220407903194 -2.35
      vertex 85.08222849816084 59.804441682994366 -2.35
      vertex 81.52210183590651 60.512594901025295 -2.35
    endloop
  endfacet
  facet normal 0 0 1
    outer loop
      vertex 77.9 55.29999999701977 -2.35
      vertex 80.81073408722878 55.109220407903194 -2.35
      vertex 81.52210183590651 60.512594901025295 -2.35
    endloop
  endfacet
  facet normal 0 0 1
    outer loop
      vertex 77.9 55.29999999701977 -2.35
      vertex 81.52210183590651 60.512594901025295 -2.35
      vertex 77.9 60.75 -2.35
    endloop
  endfacet
  facet normal 0 0 1
    outer loop
      vertex 74.98926591277123 55.109220407903194 -2.35
      vertex 77.9 55.29999999701977 -2.35
      vertex 77.9 60.75 -2.35
    endloop
  endfacet
  facet normal 0 0 1
    outer loop
      vertex 74.98926591277123 55.109220407903194 -2.35
      vertex 77.9 60.75 -2.35
      vertex 74.2778981640935 60.512594901025295 -2.35
    endloop
  endfacet
  facet normal 0 0 1
    outer loop
      vertex 72.12833529114724 54.5401459261775 -2.35
      vertex 74.98926591277123 55.109220407903194 -2.35
      vertex 74.2778981640935 60.512594901025295 -2.35
    endloop
  endfacet
  facet normal 0 0 1
    outer loop
      vertex 72.12833529114724 54.5401459261775 -2.35
      vertex 74.2778981640935 60.512594901025295 -2.35
      vertex 70.71777150183917 59.804441682994366 -2.35
    endloop
  endfacet
  facet normal 0 0 1
    outer loop
      vertex 70.71777150183917 6.195558317005634 -2.35
      vertex 72.12833529114724 11.459854073822498 -2.35
      vertex 69.3661594554782 12.397486425936222 -2.35
    endloop
  endfacet
  facet normal 0 0 1
    outer loop
      vertex 67.2805347532034 7.362342976033688 -2.35
      vertex 70.71777150183917 6.195558317005634 -2.35
      vertex 69.3661594554782 12.397486425936222 -2.35
    endloop
  endfacet
  facet normal 0 0 1
    outer loop
      vertex 67.2805347532034 7.362342976033688 -2.35
      vertex 69.3661594554782 12.397486425936222 -2.35
      vertex 66.75000000149012 13.687633492052555 -2.35
    endloop
  endfacet
  facet normal 0 0 1
    outer loop
      vertex 64.025 8.967795044183731 -2.35
      vertex 67.2805347532034 7.362342976033688 -2.35
      vertex 66.75000000149012 13.687633492052555 -2.35
    endloop
  endfacet
  facet normal 0 0 1
    outer loop
      vertex 64.025 8.967795044183731 -2.35
      vertex 66.75000000149012 13.687633492052555 -2.35
      vertex 64.32462013661862 15.308220513164997 -2.35
    endloop
  endfacet
  facet normal 0 0 1
    outer loop
      vertex 61.00687034577132 10.984444804489613 -2.35
      vertex 64.025 8.967795044183731 -2.35
      vertex 64.32462013661862 15.308220513164997 -2.35
    endloop
  endfacet
  facet normal 0 0 1
    outer loop
      vertex 61.00687034577132 10.984444804489613 -2.35
      vertex 64.32462013661862 15.308220513164997 -2.35
      vertex 62.13151878267527 17.231518782675266 -2.35
    endloop
  endfacet
  facet normal 0 0 1
    outer loop
      vertex 58.27778682261706 13.377786822617054 -2.35
      vertex 61.00687034577132 10.984444804489613 -2.35
      vertex 62.13151878267527 17.231518782675266 -2.35
    endloop
  endfacet
  facet normal 0 0 1
    outer loop
      vertex 58.27778682261706 13.377786822617054 -2.35
      vertex 62.13151878267527 17.231518782675266 -2.35
      vertex 60.208220513165 19.424620136618614 -2.35
    endloop
  endfacet
  facet normal 0 0 1
    outer loop
      vertex 55.88444480448962 16.106870345771313 -2.35
      vertex 58.27778682261706 13.377786822617054 -2.35
      vertex 60.208220513165 19.424620136618614 -2.35
    endloop
  endfacet
  facet normal 0 0 1
    outer loop
      vertex 55.88444480448962 16.106870345771313 -2.35
      vertex 60.208220513165 19.424620136618614 -2.35
      vertex 58.58763349205256 21.850000001490116 -2.35
    endloop
  endfacet
  facet normal 0 0 1
    outer loop
      vertex 53.86779504418374 19.125 -2.35
      vertex 55.88444480448962 16.106870345771313 -2.35
      vertex 58.58763349205256 21.850000001490116 -2.35
    endloop
  endfacet
  facet normal 0 0 1
    outer loop
      vertex 53.86779504418374 19.125 -2.35
      vertex 58.58763349205256 21.850000001490116 -2.35
      vertex 57.29748642593623 24.46615945547819 -2.35
    endloop
  endfacet
  facet normal 0 0 1
    outer loop
      vertex 52.26234297603369 22.380534753203392 -2.35
      vertex 53.86779504418374 19.125 -2.35
      vertex 57.29748642593623 24.46615945547819 -2.35
    endloop
  endfacet
  facet normal 0 0 1
    outer loop
      vertex 52.26234297603369 22.380534753203392 -2.35
      vertex 57.29748642593623 24.46615945547819 -2.35
      vertex 56.359854073822504 27.228335291147232 -2.35
    endloop
  endfacet
  facet normal 0 0 1
    outer loop
      vertex 51.09555831700564 25.81777150183916 -2.35
      vertex 52.26234297603369 22.380534753203392 -2.35
      vertex 56.359854073822504 27.228335291147232 -2.35
    endloop
  endfacet
  facet normal 0 0 1
    outer loop
      vertex 51.09555831700564 25.81777150183916 -2.35
      vertex 56.359854073822504 27.228335291147232 -2.35
      vertex 55.79077959209681 30.089265912771225 -2.35
    endloop
  endfacet
  facet normal 0 0 1
    outer loop
      vertex 50.38740509897471 29.377898164093494 -2.35
      vertex 51.09555831700564 25.81777150183916 -2.35
      vertex 55.79077959209681 30.089265912771225 -2.35
    endloop
  endfacet
  facet normal 0 0 1
    outer loop
      vertex 50.38740509897471 29.377898164093494 -2.35
      vertex 55.79077959209681 30.089265912771225 -2.35
      vertex 55.60000000298024 33 -2.35
    endloop
  endfacet
  facet normal 0 0 1
    outer loop
      vertex 50.150000000000006 33 -2.35
      vertex 50.38740509897471 29.377898164093494 -2.35
      vertex 55.60000000298024 33 -2.35
    endloop
  endfacet
  facet normal 0 0 1
    outer loop
      vertex 50.150000000000006 33 -2.35
      vertex 55.60000000298024 33 -2.35
      vertex 55.79077959209681 35.910734087228775 -2.35
    endloop
  endfacet
  facet normal 0 0 1
    outer loop
      vertex 50.38740509897471 36.622101835906506 -2.35
      vertex 50.150000000000006 33 -2.35
      vertex 55.79077959209681 35.910734087228775 -2.35
    endloop
  endfacet
  facet normal 0 0 1
    outer loop
      vertex 50.38740509897471 36.622101835906506 -2.35
      vertex 55.79077959209681 35.910734087228775 -2.35
      vertex 56.359854073822504 38.77166470885277 -2.35
    endloop
  endfacet
  facet normal 0 0 1
    outer loop
      vertex 51.09555831700564 40.18222849816084 -2.35
      vertex 50.38740509897471 36.622101835906506 -2.35
      vertex 56.359854073822504 38.77166470885277 -2.35
    endloop
  endfacet
  facet normal 0 0 1
    outer loop
      vertex 69.3661594554782 53.60251357406378 -2.35
      vertex 72.12833529114724 54.5401459261775 -2.35
      vertex 70.71777150183917 59.804441682994366 -2.35
    endloop
  endfacet
  facet normal 0 0 1
    outer loop
      vertex 69.3661594554782 53.60251357406378 -2.35
      vertex 70.71777150183917 59.804441682994366 -2.35
      vertex 67.2805347532034 58.63765702396631 -2.35
    endloop
  endfacet
  facet normal 0 0 1
    outer loop
      vertex 66.75000000149012 52.312366507947445 -2.35
      vertex 69.3661594554782 53.60251357406378 -2.35
      vertex 67.2805347532034 58.63765702396631 -2.35
    endloop
  endfacet
  facet normal 0 0 1
    outer loop
      vertex 66.75000000149012 52.312366507947445 -2.35
      vertex 67.2805347532034 58.63765702396631 -2.35
      vertex 64.025 57.03220495581627 -2.35
    endloop
  endfacet
  facet normal 0 0 1
    outer loop
      vertex 64.32462013661862 50.691779486835 -2.35
      vertex 66.75000000149012 52.312366507947445 -2.35
      vertex 64.025 57.03220495581627 -2.35
    endloop
  endfacet
  facet normal 0 0 1
    outer loop
      vertex 64.32462013661862 50.691779486835 -2.35
      vertex 64.025 57.03220495581627 -2.35
      vertex 61.00687034577132 55.01555519551039 -2.35
    endloop
  endfacet
  facet normal 0 0 1
    outer loop
      vertex 62.13151878267527 48.768481217324734 -2.35
      vertex 64.32462013661862 50.691779486835 -2.35
      vertex 61.00687034577132 55.01555519551039 -2.35
    endloop
  endfacet
  facet normal 0 0 1
    outer loop
      vertex 62.13151878267527 48.768481217324734 -2.35
      vertex 61.00687034577132 55.01555519551039 -2.35
      vertex 58.27778682261706 52.622213177382946 -2.35
    endloop
  endfacet
  facet normal 0 0 1
    outer loop
      vertex 60.208220513165 46.575379863381386 -2.35
      vertex 62.13151878267527 48.768481217324734 -2.35
      vertex 58.27778682261706 52.622213177382946 -2.35
    endloop
  endfacet
  facet normal 0 0 1
    outer loop
      vertex 60.208220513165 46.575379863381386 -2.35
      vertex 58.27778682261706 52.622213177382946 -2.35
      vertex 55.88444480448962 49.89312965422869 -2.35
    endloop
  endfacet
  facet normal 0 0 1
    outer loop
      vertex 58.58763349205256 44.149999998509884 -2.35
      vertex 60.208220513165 46.575379863381386 -2.35
      vertex 55.88444480448962 49.89312965422869 -2.35
    endloop
  endfacet
  facet normal 0 0 1
    outer loop
      vertex 58.58763349205256 44.149999998509884 -2.35
      vertex 55.88444480448962 49.89312965422869 -2.35
      vertex 53.86779504418374 46.875 -2.35
    endloop
  endfacet
  facet normal 0 0 1
    outer loop
      vertex 57.29748642593623 41.53384054452181 -2.35
      vertex 58.58763349205256 44.149999998509884 -2.35
      vertex 53.86779504418374 46.875 -2.35
    endloop
  endfacet
  facet normal 0 0 1
    outer loop
      vertex 57.29748642593623 41.53384054452181 -2.35
      vertex 53.86779504418374 46.875 -2.35
      vertex 52.26234297603369 43.61946524679661 -2.35
    endloop
  endfacet
  facet normal 0 0 1
    outer loop
      vertex 56.359854073822504 38.77166470885277 -2.35
      vertex 57.29748642593623 41.53384054452181 -2.35
      vertex 52.26234297603369 43.61946524679661 -2.35
    endloop
  endfacet
  facet normal 0 0 1
    outer loop
      vertex 51.09555831700564 40.18222849816084 -2.35
      vertex 56.359854073822504 38.77166470885277 -2.35
      vertex 52.26234297603369 43.61946524679661 -2.35
    endloop
  endfacet
  facet normal 0 0 -1
    outer loop
      vertex 100.0092204079032 30.089265912771225 -3.2
      vertex 100.19999999701977 33 -3.2
      vertex 105.65 33 -3.2
    endloop
  endfacet
  facet normal 0 0 -1
    outer loop
      vertex 100.0092204079032 30.089265912771225 -3.2
      vertex 105.65 33 -3.2
      vertex 105.4125949010253 29.377898164093494 -3.2
    endloop
  endfacet
  facet normal 0 0 -1
    outer loop
      vertex 105.65 33 -3.2
      vertex 100.19999999701977 33 -3.2
      vertex 100.0092204079032 35.910734087228775 -3.2
    endloop
  endfacet
  facet normal 0 0 -1
    outer loop
      vertex 105.4125949010253 36.622101835906506 -3.2
      vertex 105.65 33 -3.2
      vertex 100.0092204079032 35.910734087228775 -3.2
    endloop
  endfacet
  facet normal 0 0 -1
    outer loop
      vertex 99.44014592617751 27.228335291147232 -3.2
      vertex 100.0092204079032 30.089265912771225 -3.2
      vertex 105.4125949010253 29.377898164093494 -3.2
    endloop
  endfacet
  facet normal 0 0 -1
    outer loop
      vertex 99.44014592617751 27.228335291147232 -3.2
      vertex 105.4125949010253 29.377898164093494 -3.2
      vertex 104.70444168299437 25.81777150183916 -3.2
    endloop
  endfacet
  facet normal 0 0 -1
    outer loop
      vertex 105.4125949010253 36.622101835906506 -3.2
      vertex 100.0092204079032 35.910734087228775 -3.2
      vertex 99.44014592617751 38.77166470885277 -3.2
    endloop
  endfacet
  facet normal 0 0 -1
    outer loop
      vertex 104.70444168299437 40.18222849816084 -3.2
      vertex 105.4125949010253 36.622101835906506 -3.2
      vertex 99.44014592617751 38.77166470885277 -3.2
    endloop
  endfacet
  facet normal 0 0 -1
    outer loop
      vertex 98.50251357406378 24.46615945547819 -3.2
      vertex 99.44014592617751 27.228335291147232 -3.2
      vertex 104.70444168299437 25.81777150183916 -3.2
    endloop
  endfacet
  facet normal 0 0 -1
    outer loop
      vertex 98.50251357406378 24.46615945547819 -3.2
      vertex 104.70444168299437 25.81777150183916 -3.2
      vertex 103.53765702396632 22.380534753203392 -3.2
    endloop
  endfacet
  facet normal 0 0 -1
    outer loop
      vertex 97.21236650794745 21.850000001490116 -3.2
      vertex 98.50251357406378 24.46615945547819 -3.2
      vertex 103.53765702396632 22.380534753203392 -3.2
    endloop
  endfacet
  facet normal 0 0 -1
    outer loop
      vertex 97.21236650794745 21.850000001490116 -3.2
      vertex 103.53765702396632 22.380534753203392 -3.2
      vertex 101.93220495581627 19.125 -3.2
    endloop
  endfacet
  facet normal 0 0 -1
    outer loop
      vertex 95.59177948683501 19.424620136618614 -3.2
      vertex 97.21236650794745 21.850000001490116 -3.2
      vertex 101.93220495581627 19.125 -3.2
    endloop
  endfacet
  facet normal 0 0 -1
    outer loop
      vertex 95.59177948683501 19.424620136618614 -3.2
      vertex 101.93220495581627 19.125 -3.2
      vertex 99.9155551955104 16.106870345771313 -3.2
    endloop
  endfacet
  facet normal 0 0 -1
    outer loop
      vertex 93.66848121732474 17.231518782675266 -3.2
      vertex 95.59177948683501 19.424620136618614 -3.2
      vertex 99.9155551955104 16.106870345771313 -3.2
    endloop
  endfacet
  facet normal 0 0 -1
    outer loop
      vertex 93.66848121732474 17.231518782675266 -3.2
      vertex 99.9155551955104 16.106870345771313 -3.2
      vertex 97.52221317738295 13.377786822617054 -3.2
    endloop
  endfacet
  facet normal 0 0 -1
    outer loop
      vertex 91.47537986338139 15.308220513164997 -3.2
      vertex 93.66848121732474 17.231518782675266 -3.2
      vertex 97.52221317738295 13.377786822617054 -3.2
    endloop
  endfacet
  facet normal 0 0 -1
    outer loop
      vertex 91.47537986338139 15.308220513164997 -3.2
      vertex 97.52221317738295 13.377786822617054 -3.2
      vertex 94.7931296542287 10.984444804489613 -3.2
    endloop
  endfacet
  facet normal 0 0 -1
    outer loop
      vertex 89.04999999850989 13.687633492052555 -3.2
      vertex 91.47537986338139 15.308220513164997 -3.2
      vertex 94.7931296542287 10.984444804489613 -3.2
    endloop
  endfacet
  facet normal 0 0 -1
    outer loop
      vertex 89.04999999850989 13.687633492052555 -3.2
      vertex 94.7931296542287 10.984444804489613 -3.2
      vertex 91.775 8.967795044183731 -3.2
    endloop
  endfacet
  facet normal 0 0 -1
    outer loop
      vertex 86.43384054452181 12.397486425936222 -3.2
      vertex 89.04999999850989 13.687633492052555 -3.2
      vertex 91.775 8.967795044183731 -3.2
    endloop
  endfacet
  facet normal 0 0 -1
    outer loop
      vertex 86.43384054452181 12.397486425936222 -3.2
      vertex 91.775 8.967795044183731 -3.2
      vertex 88.51946524679661 7.362342976033688 -3.2
    endloop
  endfacet
  facet normal 0 0 -1
    outer loop
      vertex 83.67166470885277 11.459854073822498 -3.2
      vertex 86.43384054452181 12.397486425936222 -3.2
      vertex 88.51946524679661 7.362342976033688 -3.2
    endloop
  endfacet
  facet normal 0 0 -1
    outer loop
      vertex 83.67166470885277 11.459854073822498 -3.2
      vertex 88.51946524679661 7.362342976033688 -3.2
      vertex 85.08222849816084 6.195558317005634 -3.2
    endloop
  endfacet
  facet normal 0 0 -1
    outer loop
      vertex 80.81073408722878 10.890779592096806 -3.2
      vertex 83.67166470885277 11.459854073822498 -3.2
      vertex 85.08222849816084 6.195558317005634 -3.2
    endloop
  endfacet
  facet normal 0 0 -1
    outer loop
      vertex 80.81073408722878 10.890779592096806 -3.2
      vertex 85.08222849816084 6.195558317005634 -3.2
      vertex 81.52210183590651 5.487405098974705 -3.2
    endloop
  endfacet
  facet normal 0 0 -1
    outer loop
      vertex 77.9 10.700000002980232 -3.2
      vertex 80.81073408722878 10.890779592096806 -3.2
      vertex 81.52210183590651 5.487405098974705 -3.2
    endloop
  endfacet
  facet normal 0 0 -1
    outer loop
      vertex 77.9 10.700000002980232 -3.2
      vertex 81.52210183590651 5.487405098974705 -3.2
      vertex 77.9 5.25 -3.2
    endloop
  endfacet
  facet normal 0 0 -1
    outer loop
      vertex 74.98926591277123 10.890779592096806 -3.2
      vertex 77.9 10.700000002980232 -3.2
      vertex 77.9 5.25 -3.2
    endloop
  endfacet
  facet normal 0 0 -1
    outer loop
      vertex 74.98926591277123 10.890779592096806 -3.2
      vertex 77.9 5.25 -3.2
      vertex 74.2778981640935 5.487405098974705 -3.2
    endloop
  endfacet
  facet normal 0 0 -1
    outer loop
      vertex 72.12833529114724 11.459854073822498 -3.2
      vertex 74.98926591277123 10.890779592096806 -3.2
      vertex 74.2778981640935 5.487405098974705 -3.2
    endloop
  endfacet
  facet normal 0 0 -1
    outer loop
      vertex 72.12833529114724 11.459854073822498 -3.2
      vertex 74.2778981640935 5.487405098974705 -3.2
      vertex 70.71777150183917 6.195558317005634 -3.2
    endloop
  endfacet
  facet normal 0 0 -1
    outer loop
      vertex 104.70444168299437 40.18222849816084 -3.2
      vertex 99.44014592617751 38.77166470885277 -3.2
      vertex 98.50251357406378 41.53384054452181 -3.2
    endloop
  endfacet
  facet normal 0 0 -1
    outer loop
      vertex 103.53765702396632 43.61946524679661 -3.2
      vertex 104.70444168299437 40.18222849816084 -3.2
      vertex 98.50251357406378 41.53384054452181 -3.2
    endloop
  endfacet
  facet normal 0 0 -1
    outer loop
      vertex 103.53765702396632 43.61946524679661 -3.2
      vertex 98.50251357406378 41.53384054452181 -3.2
      vertex 97.21236650794745 44.149999998509884 -3.2
    endloop
  endfacet
  facet normal 0 0 -1
    outer loop
      vertex 101.93220495581627 46.875 -3.2
      vertex 103.53765702396632 43.61946524679661 -3.2
      vertex 97.21236650794745 44.149999998509884 -3.2
    endloop
  endfacet
  facet normal 0 0 -1
    outer loop
      vertex 101.93220495581627 46.875 -3.2
      vertex 97.21236650794745 44.149999998509884 -3.2
      vertex 95.59177948683501 46.575379863381386 -3.2
    endloop
  endfacet
  facet normal 0 0 -1
    outer loop
      vertex 99.9155551955104 49.89312965422869 -3.2
      vertex 101.93220495581627 46.875 -3.2
      vertex 95.59177948683501 46.575379863381386 -3.2
    endloop
  endfacet
  facet normal 0 0 -1
    outer loop
      vertex 99.9155551955104 49.89312965422869 -3.2
      vertex 95.59177948683501 46.575379863381386 -3.2
      vertex 93.66848121732474 48.768481217324734 -3.2
    endloop
  endfacet
  facet normal 0 0 -1
    outer loop
      vertex 97.52221317738295 52.622213177382946 -3.2
      vertex 99.9155551955104 49.89312965422869 -3.2
      vertex 93.66848121732474 48.768481217324734 -3.2
    endloop
  endfacet
  facet normal 0 0 -1
    outer loop
      vertex 97.52221317738295 52.622213177382946 -3.2
      vertex 93.66848121732474 48.768481217324734 -3.2
      vertex 91.47537986338139 50.691779486835 -3.2
    endloop
  endfacet
  facet normal 0 0 -1
    outer loop
      vertex 94.7931296542287 55.01555519551039 -3.2
      vertex 97.52221317738295 52.622213177382946 -3.2
      vertex 91.47537986338139 50.691779486835 -3.2
    endloop
  endfacet
  facet normal 0 0 -1
    outer loop
      vertex 94.7931296542287 55.01555519551039 -3.2
      vertex 91.47537986338139 50.691779486835 -3.2
      vertex 89.04999999850989 52.312366507947445 -3.2
    endloop
  endfacet
  facet normal 0 0 -1
    outer loop
      vertex 91.775 57.03220495581627 -3.2
      vertex 94.7931296542287 55.01555519551039 -3.2
      vertex 89.04999999850989 52.312366507947445 -3.2
    endloop
  endfacet
  facet normal 0 0 -1
    outer loop
      vertex 91.775 57.03220495581627 -3.2
      vertex 89.04999999850989 52.312366507947445 -3.2
      vertex 86.43384054452181 53.60251357406378 -3.2
    endloop
  endfacet
  facet normal 0 0 -1
    outer loop
      vertex 88.51946524679661 58.63765702396631 -3.2
      vertex 91.775 57.03220495581627 -3.2
      vertex 86.43384054452181 53.60251357406378 -3.2
    endloop
  endfacet
  facet normal 0 0 -1
    outer loop
      vertex 88.51946524679661 58.63765702396631 -3.2
      vertex 86.43384054452181 53.60251357406378 -3.2
      vertex 83.67166470885277 54.5401459261775 -3.2
    endloop
  endfacet
  facet normal 0 0 -1
    outer loop
      vertex 85.08222849816084 59.804441682994366 -3.2
      vertex 88.51946524679661 58.63765702396631 -3.2
      vertex 83.67166470885277 54.5401459261775 -3.2
    endloop
  endfacet
  facet normal 0 0 -1
    outer loop
      vertex 85.08222849816084 59.804441682994366 -3.2
      vertex 83.67166470885277 54.5401459261775 -3.2
      vertex 80.81073408722878 55.109220407903194 -3.2
    endloop
  endfacet
  facet normal 0 0 -1
    outer loop
      vertex 81.52210183590651 60.512594901025295 -3.2
      vertex 85.08222849816084 59.804441682994366 -3.2
      vertex 80.81073408722878 55.109220407903194 -3.2
    endloop
  endfacet
  facet normal 0 0 -1
    outer loop
      vertex 81.52210183590651 60.512594901025295 -3.2
      vertex 80.81073408722878 55.109220407903194 -3.2
      vertex 77.9 55.29999999701977 -3.2
    endloop
  endfacet
  facet normal 0 0 -1
    outer loop
      vertex 77.9 60.75 -3.2
      vertex 81.52210183590651 60.512594901025295 -3.2
      vertex 77.9 55.29999999701977 -3.2
    endloop
  endfacet
  facet normal 0 0 -1
    outer loop
      vertex 77.9 60.75 -3.2
      vertex 77.9 55.29999999701977 -3.2
      vertex 74.98926591277123 55.109220407903194 -3.2
    endloop
  endfacet
  facet normal 0 0 -1
    outer loop
      vertex 74.2778981640935 60.512594901025295 -3.2
      vertex 77.9 60.75 -3.2
      vertex 74.98926591277123 55.109220407903194 -3.2
    endloop
  endfacet
  facet normal 0 0 -1
    outer loop
      vertex 74.2778981640935 60.512594901025295 -3.2
      vertex 74.98926591277123 55.109220407903194 -3.2
      vertex 72.12833529114724 54.5401459261775 -3.2
    endloop
  endfacet
  facet normal 0 0 -1
    outer loop
      vertex 70.71777150183917 59.804441682994366 -3.2
      vertex 74.2778981640935 60.512594901025295 -3.2
      vertex 72.12833529114724 54.5401459261775 -3.2
    endloop
  endfacet
  facet normal 0 0 -1
    outer loop
      vertex 69.3661594554782 12.397486425936222 -3.2
      vertex 72.12833529114724 11.459854073822498 -3.2
      vertex 70.71777150183917 6.195558317005634 -3.2
    endloop
  endfacet
  facet normal 0 0 -1
    outer loop
      vertex 69.3661594554782 12.397486425936222 -3.2
      vertex 70.71777150183917 6.195558317005634 -3.2
      vertex 67.2805347532034 7.362342976033688 -3.2
    endloop
  endfacet
  facet normal 0 0 -1
    outer loop
      vertex 66.75000000149012 13.687633492052555 -3.2
      vertex 69.3661594554782 12.397486425936222 -3.2
      vertex 67.2805347532034 7.362342976033688 -3.2
    endloop
  endfacet
  facet normal 0 0 -1
    outer loop
      vertex 66.75000000149012 13.687633492052555 -3.2
      vertex 67.2805347532034 7.362342976033688 -3.2
      vertex 64.025 8.967795044183731 -3.2
    endloop
  endfacet
  facet normal 0 0 -1
    outer loop
      vertex 64.32462013661862 15.308220513164997 -3.2
      vertex 66.75000000149012 13.687633492052555 -3.2
      vertex 64.025 8.967795044183731 -3.2
    endloop
  endfacet
  facet normal 0 0 -1
    outer loop
      vertex 64.32462013661862 15.308220513164997 -3.2
      vertex 64.025 8.967795044183731 -3.2
      vertex 61.00687034577132 10.984444804489613 -3.2
    endloop
  endfacet
  facet normal 0 0 -1
    outer loop
      vertex 62.13151878267527 17.231518782675266 -3.2
      vertex 64.32462013661862 15.308220513164997 -3.2
      vertex 61.00687034577132 10.984444804489613 -3.2
    endloop
  endfacet
  facet normal 0 0 -1
    outer loop
      vertex 62.13151878267527 17.231518782675266 -3.2
      vertex 61.00687034577132 10.984444804489613 -3.2
      vertex 58.27778682261706 13.377786822617054 -3.2
    endloop
  endfacet
  facet normal 0 0 -1
    outer loop
      vertex 60.208220513165 19.424620136618614 -3.2
      vertex 62.13151878267527 17.231518782675266 -3.2
      vertex 58.27778682261706 13.377786822617054 -3.2
    endloop
  endfacet
  facet normal 0 0 -1
    outer loop
      vertex 60.208220513165 19.424620136618614 -3.2
      vertex 58.27778682261706 13.377786822617054 -3.2
      vertex 55.88444480448962 16.106870345771313 -3.2
    endloop
  endfacet
  facet normal 0 0 -1
    outer loop
      vertex 58.58763349205256 21.850000001490116 -3.2
      vertex 60.208220513165 19.424620136618614 -3.2
      vertex 55.88444480448962 16.106870345771313 -3.2
    endloop
  endfacet
  facet normal 0 0 -1
    outer loop
      vertex 58.58763349205256 21.850000001490116 -3.2
      vertex 55.88444480448962 16.106870345771313 -3.2
      vertex 53.86779504418374 19.125 -3.2
    endloop
  endfacet
  facet normal 0 0 -1
    outer loop
      vertex 57.29748642593623 24.46615945547819 -3.2
      vertex 58.58763349205256 21.850000001490116 -3.2
      vertex 53.86779504418374 19.125 -3.2
    endloop
  endfacet
  facet normal 0 0 -1
    outer loop
      vertex 57.29748642593623 24.46615945547819 -3.2
      vertex 53.86779504418374 19.125 -3.2
      vertex 52.26234297603369 22.380534753203392 -3.2
    endloop
  endfacet
  facet normal 0 0 -1
    outer loop
      vertex 56.359854073822504 27.228335291147232 -3.2
      vertex 57.29748642593623 24.46615945547819 -3.2
      vertex 52.26234297603369 22.380534753203392 -3.2
    endloop
  endfacet
  facet normal 0 0 -1
    outer loop
      vertex 56.359854073822504 27.228335291147232 -3.2
      vertex 52.26234297603369 22.380534753203392 -3.2
      vertex 51.09555831700564 25.81777150183916 -3.2
    endloop
  endfacet
  facet normal 0 0 -1
    outer loop
      vertex 55.79077959209681 30.089265912771225 -3.2
      vertex 56.359854073822504 27.228335291147232 -3.2
      vertex 51.09555831700564 25.81777150183916 -3.2
    endloop
  endfacet
  facet normal 0 0 -1
    outer loop
      vertex 55.79077959209681 30.089265912771225 -3.2
      vertex 51.09555831700564 25.81777150183916 -3.2
      vertex 50.38740509897471 29.377898164093494 -3.2
    endloop
  endfacet
  facet normal 0 0 -1
    outer loop
      vertex 55.60000000298024 33 -3.2
      vertex 55.79077959209681 30.089265912771225 -3.2
      vertex 50.38740509897471 29.377898164093494 -3.2
    endloop
  endfacet
  facet normal 0 0 -1
    outer loop
      vertex 55.60000000298024 33 -3.2
      vertex 50.38740509897471 29.377898164093494 -3.2
      vertex 50.150000000000006 33 -3.2
    endloop
  endfacet
  facet normal 0 0 -1
    outer loop
      vertex 55.79077959209681 35.910734087228775 -3.2
      vertex 55.60000000298024 33 -3.2
      vertex 50.150000000000006 33 -3.2
    endloop
  endfacet
  facet normal 0 0 -1
    outer loop
      vertex 55.79077959209681 35.910734087228775 -3.2
      vertex 50.150000000000006 33 -3.2
      vertex 50.38740509897471 36.622101835906506 -3.2
    endloop
  endfacet
  facet normal 0 0 -1
    outer loop
      vertex 56.359854073822504 38.77166470885277 -3.2
      vertex 55.79077959209681 35.910734087228775 -3.2
      vertex 50.38740509897471 36.622101835906506 -3.2
    endloop
  endfacet
  facet normal 0 0 -1
    outer loop
      vertex 56.359854073822504 38.77166470885277 -3.2
      vertex 50.38740509897471 36.622101835906506 -3.2
      vertex 51.09555831700564 40.18222849816084 -3.2
    endloop
  endfacet
  facet normal 0 0 -1
    outer loop
      vertex 70.71777150183917 59.804441682994366 -3.2
      vertex 72.12833529114724 54.5401459261775 -3.2
      vertex 69.3661594554782 53.60251357406378 -3.2
    endloop
  endfacet
  facet normal 0 0 -1
    outer loop
      vertex 67.2805347532034 58.63765702396631 -3.2
      vertex 70.71777150183917 59.804441682994366 -3.2
      vertex 69.3661594554782 53.60251357406378 -3.2
    endloop
  endfacet
  facet normal 0 0 -1
    outer loop
      vertex 67.2805347532034 58.63765702396631 -3.2
      vertex 69.3661594554782 53.60251357406378 -3.2
      vertex 66.75000000149012 52.312366507947445 -3.2
    endloop
  endfacet
  facet normal 0 0 -1
    outer loop
      vertex 64.025 57.03220495581627 -3.2
      vertex 67.2805347532034 58.63765702396631 -3.2
      vertex 66.75000000149012 52.312366507947445 -3.2
    endloop
  endfacet
  facet normal 0 0 -1
    outer loop
      vertex 64.025 57.03220495581627 -3.2
      vertex 66.75000000149012 52.312366507947445 -3.2
      vertex 64.32462013661862 50.691779486835 -3.2
    endloop
  endfacet
  facet normal 0 0 -1
    outer loop
      vertex 61.00687034577132 55.01555519551039 -3.2
      vertex 64.025 57.03220495581627 -3.2
      vertex 64.32462013661862 50.691779486835 -3.2
    endloop
  endfacet
  facet normal 0 0 -1
    outer loop
      vertex 61.00687034577132 55.01555519551039 -3.2
      vertex 64.32462013661862 50.691779486835 -3.2
      vertex 62.13151878267527 48.768481217324734 -3.2
    endloop
  endfacet
  facet normal 0 0 -1
    outer loop
      vertex 58.27778682261706 52.622213177382946 -3.2
      vertex 61.00687034577132 55.01555519551039 -3.2
      vertex 62.13151878267527 48.768481217324734 -3.2
    endloop
  endfacet
  facet normal 0 0 -1
    outer loop
      vertex 58.27778682261706 52.622213177382946 -3.2
      vertex 62.13151878267527 48.768481217324734 -3.2
      vertex 60.208220513165 46.575379863381386 -3.2
    endloop
  endfacet
  facet normal 0 0 -1
    outer loop
      vertex 55.88444480448962 49.89312965422869 -3.2
      vertex 58.27778682261706 52.622213177382946 -3.2
      vertex 60.208220513165 46.575379863381386 -3.2
    endloop
  endfacet
  facet normal 0 0 -1
    outer loop
      vertex 55.88444480448962 49.89312965422869 -3.2
      vertex 60.208220513165 46.575379863381386 -3.2
      vertex 58.58763349205256 44.149999998509884 -3.2
    endloop
  endfacet
  facet normal 0 0 -1
    outer loop
      vertex 53.86779504418374 46.875 -3.2
      vertex 55.88444480448962 49.89312965422869 -3.2
      vertex 58.58763349205256 44.149999998509884 -3.2
    endloop
  endfacet
  facet normal 0 0 -1
    outer loop
      vertex 53.86779504418374 46.875 -3.2
      vertex 58.58763349205256 44.149999998509884 -3.2
      vertex 57.29748642593623 41.53384054452181 -3.2
    endloop
  endfacet
  facet normal 0 0 -1
    outer loop
      vertex 52.26234297603369 43.61946524679661 -3.2
      vertex 53.86779504418374 46.875 -3.2
      vertex 57.29748642593623 41.53384054452181 -3.2
    endloop
  endfacet
  facet normal 0 0 -1
    outer loop
      vertex 52.26234297603369 43.61946524679661 -3.2
      vertex 57.29748642593623 41.53384054452181 -3.2
      vertex 56.359854073822504 38.77166470885277 -3.2
    endloop
  endfacet
  facet normal 0 0 -1
    outer loop
      vertex 52.26234297603369 43.61946524679661 -3.2
      vertex 56.359854073822504 38.77166470885277 -3.2
      vertex 51.09555831700564 40.18222849816084 -3.2
    endloop
  endfacet
endsolid OpenSCAD_Model
