solid OpenSCAD_Model
  facet normal 0.9807852804032299 -0.19509032201613116 0
    outer loop
      vertex 66.52396211364385 4.795 6.35
      vertex 66.53688914296288 4.859988565011428 6.35
      vertex 66.52396211364385 4.795 7.1499999999999995
    endloop
  endfacet
  facet normal 0.946930129495111 -0.3214394653031458 0
    outer loop
      vertex 66.53688914296288 4.859988565011428 6.35
      vertex 66.64410719209621 5.175842752530979 6.35
      vertex 66.64410719209621 5.175842752530979 7.1499999999999995
    endloop
  endfacet
  facet normal 0.8968727415326898 -0.4422886902189985 0
    outer loop
      vertex 66.64410719209621 5.175842752530979 6.35
      vertex 66.79163522034968 5.475 6.35
      vertex 66.79163522034968 5.475 7.1499999999999995
    endloop
  endfacet
  facet normal 0.8314696123025316 -0.5555702330196226 0
    outer loop
      vertex 66.79163522034968 5.475 6.35
      vertex 66.97694898225735 5.752341643972238 6.35
      vertex 66.97694898225735 5.752341643972238 7.1499999999999995
    endloop
  endfacet
  facet normal 0.751839807478976 -0.6593458151000702 0
    outer loop
      vertex 66.97694898225735 5.752341643972238 6.35
      vertex 67.19687770797431 6.003122292025696 6.35
      vertex 67.19687770797431 6.003122292025696 7.1499999999999995
    endloop
  endfacet
  facet normal 0.659345815100082 -0.7518398074789658 0
    outer loop
      vertex 67.19687770797431 6.003122292025696 6.35
      vertex 67.44765835602776 6.22305101774265 6.35
      vertex 67.44765835602776 6.22305101774265 7.1499999999999995
    endloop
  endfacet
  facet normal 0.5555702330196043 -0.8314696123025438 0
    outer loop
      vertex 67.44765835602776 6.22305101774265 6.35
      vertex 67.725 6.408364779650318 6.35
      vertex 67.725 6.408364779650318 7.1499999999999995
    endloop
  endfacet
  facet normal 0.44228869021899636 -0.8968727415326906 0
    outer loop
      vertex 67.725 6.408364779650318 6.35
      vertex 68.02415724746902 6.555892807903781 6.35
      vertex 68.02415724746902 6.555892807903781 7.1499999999999995
    endloop
  endfacet
  facet normal 0.3214394653031625 -0.9469301294951052 0
    outer loop
      vertex 68.02415724746902 6.555892807903781 6.35
      vertex 68.34001143498857 6.663110857037124 6.35
      vertex 68.34001143498857 6.663110857037124 7.1499999999999995
    endloop
  endfacet
  facet normal 0.19509032201612486 -0.9807852804032312 0
    outer loop
      vertex 68.34001143498857 6.663110857037124 6.35
      vertex 68.66715820983887 6.728184396503217 6.35
      vertex 68.66715820983887 6.728184396503217 7.1499999999999995
    endloop
  endfacet
  facet normal 0.06540312923014387 -0.9978589232386035 0
    outer loop
      vertex 68.66715820983887 6.728184396503217 6.35
      vertex 69 6.75 6.35
      vertex 69 6.75 7.1499999999999995
    endloop
  endfacet
  facet normal -0.06540312923014387 -0.9978589232386035 0
    outer loop
      vertex 69 6.75 6.35
      vertex 69.33284179016113 6.728184396503217 6.35
      vertex 69.33284179016113 6.728184396503217 7.1499999999999995
    endloop
  endfacet
  facet normal -0.19509032201612486 -0.9807852804032312 0
    outer loop
      vertex 69.33284179016113 6.728184396503217 6.35
      vertex 69.65998856501143 6.663110857037124 6.35
      vertex 69.65998856501143 6.663110857037124 7.1499999999999995
    endloop
  endfacet
  facet normal -0.3214394653031625 -0.9469301294951052 0
    outer loop
      vertex 69.97584275253098 6.555892807903781 6.35
      vertex 69.97584275253098 6.555892807903781 7.1499999999999995
      vertex 69.65998856501143 6.663110857037124 6.35
    endloop
  endfacet
  facet normal -0.946930129495111 -0.3214394653031458 0
    outer loop
      vertex 71.35589280790379 5.175842752530979 6.35
      vertex 71.46311085703712 4.859988565011428 6.35
      vertex 71.46311085703712 4.859988565011428 7.1499999999999995
    endloop
  endfacet
  facet normal -0.8968727415326898 -0.4422886902189985 0
    outer loop
      vertex 71.35589280790379 5.175842752530979 6.35
      vertex 71.35589280790379 5.175842752530979 7.1499999999999995
      vertex 71.20836477965032 5.475 6.35
    endloop
  endfacet
  facet normal -0.8314696123025316 -0.5555702330196226 0
    outer loop
      vertex 71.20836477965032 5.475 6.35
      vertex 71.20836477965032 5.475 7.1499999999999995
      vertex 71.02305101774265 5.752341643972238 6.35
    endloop
  endfacet
  facet normal -0.659345815100082 -0.7518398074789658 0
    outer loop
      vertex 70.55234164397224 6.22305101774265 6.35
      vertex 70.80312229202569 6.003122292025696 6.35
      vertex 70.80312229202569 6.003122292025696 7.1499999999999995
    endloop
  endfacet
  facet normal -0.44228869021899636 -0.8968727415326906 0
    outer loop
      vertex 69.97584275253098 6.555892807903781 6.35
      vertex 70.275 6.408364779650318 6.35
      vertex 70.275 6.408364779650318 7.1499999999999995
    endloop
  endfacet
  facet normal -0.5555702330196043 -0.8314696123025438 0
    outer loop
      vertex 70.275 6.408364779650318 6.35
      vertex 70.55234164397224 6.22305101774265 6.35
      vertex 70.55234164397224 6.22305101774265 7.1499999999999995
    endloop
  endfacet
  facet normal -0.751839807478976 -0.6593458151000702 0
    outer loop
      vertex 71.02305101774265 5.752341643972238 6.35
      vertex 71.02305101774265 5.752341643972238 7.1499999999999995
      vertex 70.80312229202569 6.003122292025696 6.35
    endloop
  endfacet
  facet normal -0.9807852804032299 -0.19509032201613116 0
    outer loop
      vertex 71.47603788635615 4.795 6.35
      vertex 71.46311085703712 4.859988565011428 7.1499999999999995
      vertex 71.46311085703712 4.859988565011428 6.35
    endloop
  endfacet
  facet normal 0.9807852804032299 -0.19509032201613116 0
    outer loop
      vertex 66.53688914296288 4.859988565011428 6.35
      vertex 66.53688914296288 4.859988565011428 7.1499999999999995
      vertex 66.52396211364385 4.795 7.1499999999999995
    endloop
  endfacet
  facet normal 0.946930129495111 -0.3214394653031458 0
    outer loop
      vertex 66.53688914296288 4.859988565011428 6.35
      vertex 66.64410719209621 5.175842752530979 7.1499999999999995
      vertex 66.53688914296288 4.859988565011428 7.1499999999999995
    endloop
  endfacet
  facet normal 0.8968727415326898 -0.4422886902189985 0
    outer loop
      vertex 66.64410719209621 5.175842752530979 6.35
      vertex 66.79163522034968 5.475 7.1499999999999995
      vertex 66.64410719209621 5.175842752530979 7.1499999999999995
    endloop
  endfacet
  facet normal 0.8314696123025316 -0.5555702330196226 0
    outer loop
      vertex 66.79163522034968 5.475 6.35
      vertex 66.97694898225735 5.752341643972238 7.1499999999999995
      vertex 66.79163522034968 5.475 7.1499999999999995
    endloop
  endfacet
  facet normal 0.751839807478976 -0.6593458151000702 0
    outer loop
      vertex 66.97694898225735 5.752341643972238 6.35
      vertex 67.19687770797431 6.003122292025696 7.1499999999999995
      vertex 66.97694898225735 5.752341643972238 7.1499999999999995
    endloop
  endfacet
  facet normal 0.659345815100082 -0.7518398074789658 0
    outer loop
      vertex 67.19687770797431 6.003122292025696 6.35
      vertex 67.44765835602776 6.22305101774265 7.1499999999999995
      vertex 67.19687770797431 6.003122292025696 7.1499999999999995
    endloop
  endfacet
  facet normal 0.5555702330196043 -0.8314696123025438 0
    outer loop
      vertex 67.44765835602776 6.22305101774265 6.35
      vertex 67.725 6.408364779650318 7.1499999999999995
      vertex 67.44765835602776 6.22305101774265 7.1499999999999995
    endloop
  endfacet
  facet normal 0.44228869021899636 -0.8968727415326906 0
    outer loop
      vertex 67.725 6.408364779650318 6.35
      vertex 68.02415724746902 6.555892807903781 7.1499999999999995
      vertex 67.725 6.408364779650318 7.1499999999999995
    endloop
  endfacet
  facet normal -0.44228869021899636 -0.8968727415326906 0
    outer loop
      vertex 69.97584275253098 6.555892807903781 6.35
      vertex 70.275 6.408364779650318 7.1499999999999995
      vertex 69.97584275253098 6.555892807903781 7.1499999999999995
    endloop
  endfacet
  facet normal 0.3214394653031625 -0.9469301294951052 0
    outer loop
      vertex 68.02415724746902 6.555892807903781 6.35
      vertex 68.34001143498857 6.663110857037124 7.1499999999999995
      vertex 68.02415724746902 6.555892807903781 7.1499999999999995
    endloop
  endfacet
  facet normal 0.19509032201612486 -0.9807852804032312 0
    outer loop
      vertex 68.34001143498857 6.663110857037124 6.35
      vertex 68.66715820983887 6.728184396503217 7.1499999999999995
      vertex 68.34001143498857 6.663110857037124 7.1499999999999995
    endloop
  endfacet
  facet normal 0.06540312923014387 -0.9978589232386035 0
    outer loop
      vertex 68.66715820983887 6.728184396503217 6.35
      vertex 69 6.75 7.1499999999999995
      vertex 68.66715820983887 6.728184396503217 7.1499999999999995
    endloop
  endfacet
  facet normal -0.06540312923014387 -0.9978589232386035 0
    outer loop
      vertex 69 6.75 6.35
      vertex 69.33284179016113 6.728184396503217 7.1499999999999995
      vertex 69 6.75 7.1499999999999995
    endloop
  endfacet
  facet normal -0.19509032201612486 -0.9807852804032312 0
    outer loop
      vertex 69.33284179016113 6.728184396503217 6.35
      vertex 69.65998856501143 6.663110857037124 7.1499999999999995
      vertex 69.33284179016113 6.728184396503217 7.1499999999999995
    endloop
  endfacet
  facet normal -0.3214394653031625 -0.9469301294951052 0
    outer loop
      vertex 69.65998856501143 6.663110857037124 6.35
      vertex 69.97584275253098 6.555892807903781 7.1499999999999995
      vertex 69.65998856501143 6.663110857037124 7.1499999999999995
    endloop
  endfacet
  facet normal -0.946930129495111 -0.3214394653031458 0
    outer loop
      vertex 71.35589280790379 5.175842752530979 6.35
      vertex 71.46311085703712 4.859988565011428 7.1499999999999995
      vertex 71.35589280790379 5.175842752530979 7.1499999999999995
    endloop
  endfacet
  facet normal -0.8314696123025316 -0.5555702330196226 0
    outer loop
      vertex 71.02305101774265 5.752341643972238 6.35
      vertex 71.20836477965032 5.475 7.1499999999999995
      vertex 71.02305101774265 5.752341643972238 7.1499999999999995
    endloop
  endfacet
  facet normal -0.8968727415326898 -0.4422886902189985 0
    outer loop
      vertex 71.20836477965032 5.475 6.35
      vertex 71.35589280790379 5.175842752530979 7.1499999999999995
      vertex 71.20836477965032 5.475 7.1499999999999995
    endloop
  endfacet
  facet normal -0.5555702330196043 -0.8314696123025438 0
    outer loop
      vertex 70.275 6.408364779650318 6.35
      vertex 70.55234164397224 6.22305101774265 7.1499999999999995
      vertex 70.275 6.408364779650318 7.1499999999999995
    endloop
  endfacet
  facet normal -0.659345815100082 -0.7518398074789658 0
    outer loop
      vertex 70.55234164397224 6.22305101774265 6.35
      vertex 70.80312229202569 6.003122292025696 7.1499999999999995
      vertex 70.55234164397224 6.22305101774265 7.1499999999999995
    endloop
  endfacet
  facet normal -0.751839807478976 -0.6593458151000702 0
    outer loop
      vertex 70.80312229202569 6.003122292025696 6.35
      vertex 71.02305101774265 5.752341643972238 7.1499999999999995
      vertex 70.80312229202569 6.003122292025696 7.1499999999999995
    endloop
  endfacet
  facet normal -0.9807852804032299 -0.19509032201613116 0
    outer loop
      vertex 71.47603788635615 4.795 6.35
      vertex 71.47603788635615 4.795 7.1499999999999995
      vertex 71.46311085703712 4.859988565011428 7.1499999999999995
    endloop
  endfacet
  facet normal 0.9807852804032299 -0.19509032201613116 0
    outer loop
      vertex 97.52396211364385 4.795 6.35
      vertex 97.53688914296288 4.859988565011428 6.35
      vertex 97.52396211364385 4.795 7.1499999999999995
    endloop
  endfacet
  facet normal 0.946930129495111 -0.3214394653031458 0
    outer loop
      vertex 97.53688914296288 4.859988565011428 6.35
      vertex 97.64410719209621 5.175842752530979 6.35
      vertex 97.64410719209621 5.175842752530979 7.1499999999999995
    endloop
  endfacet
  facet normal 0.8968727415326898 -0.4422886902189985 0
    outer loop
      vertex 97.64410719209621 5.175842752530979 6.35
      vertex 97.79163522034968 5.475 6.35
      vertex 97.79163522034968 5.475 7.1499999999999995
    endloop
  endfacet
  facet normal 0.8314696123025316 -0.5555702330196226 0
    outer loop
      vertex 97.79163522034968 5.475 6.35
      vertex 97.97694898225735 5.752341643972238 6.35
      vertex 97.97694898225735 5.752341643972238 7.1499999999999995
    endloop
  endfacet
  facet normal 0.751839807478976 -0.6593458151000702 0
    outer loop
      vertex 97.97694898225735 5.752341643972238 6.35
      vertex 98.19687770797431 6.003122292025696 6.35
      vertex 98.19687770797431 6.003122292025696 7.1499999999999995
    endloop
  endfacet
  facet normal 0.659345815100082 -0.7518398074789658 0
    outer loop
      vertex 98.19687770797431 6.003122292025696 6.35
      vertex 98.44765835602776 6.22305101774265 6.35
      vertex 98.44765835602776 6.22305101774265 7.1499999999999995
    endloop
  endfacet
  facet normal 0.5555702330196043 -0.8314696123025438 0
    outer loop
      vertex 98.44765835602776 6.22305101774265 6.35
      vertex 98.725 6.408364779650318 6.35
      vertex 98.725 6.408364779650318 7.1499999999999995
    endloop
  endfacet
  facet normal 0.44228869021899636 -0.8968727415326906 0
    outer loop
      vertex 98.725 6.408364779650318 6.35
      vertex 99.02415724746902 6.555892807903781 6.35
      vertex 99.02415724746902 6.555892807903781 7.1499999999999995
    endloop
  endfacet
  facet normal 0.3214394653031625 -0.9469301294951052 0
    outer loop
      vertex 99.02415724746902 6.555892807903781 6.35
      vertex 99.34001143498857 6.663110857037124 6.35
      vertex 99.34001143498857 6.663110857037124 7.1499999999999995
    endloop
  endfacet
  facet normal 0.19509032201612486 -0.9807852804032312 0
    outer loop
      vertex 99.34001143498857 6.663110857037124 6.35
      vertex 99.66715820983887 6.728184396503217 6.35
      vertex 99.66715820983887 6.728184396503217 7.1499999999999995
    endloop
  endfacet
  facet normal 0.06540312923014606 -0.9978589232386033 0
    outer loop
      vertex 99.66715820983887 6.728184396503217 6.35
      vertex 99.8 6.736891307436952 6.35
      vertex 99.66715820983887 6.728184396503217 7.1499999999999995
    endloop
  endfacet
  facet normal 0.9807852804032299 -0.19509032201613116 0
    outer loop
      vertex 97.53688914296288 4.859988565011428 6.35
      vertex 97.53688914296288 4.859988565011428 7.1499999999999995
      vertex 97.52396211364385 4.795 7.1499999999999995
    endloop
  endfacet
  facet normal 0.946930129495111 -0.3214394653031458 0
    outer loop
      vertex 97.53688914296288 4.859988565011428 6.35
      vertex 97.64410719209621 5.175842752530979 7.1499999999999995
      vertex 97.53688914296288 4.859988565011428 7.1499999999999995
    endloop
  endfacet
  facet normal 0.8968727415326898 -0.4422886902189985 0
    outer loop
      vertex 97.64410719209621 5.175842752530979 6.35
      vertex 97.79163522034968 5.475 7.1499999999999995
      vertex 97.64410719209621 5.175842752530979 7.1499999999999995
    endloop
  endfacet
  facet normal 0.8314696123025316 -0.5555702330196226 0
    outer loop
      vertex 97.79163522034968 5.475 6.35
      vertex 97.97694898225735 5.752341643972238 7.1499999999999995
      vertex 97.79163522034968 5.475 7.1499999999999995
    endloop
  endfacet
  facet normal 0.751839807478976 -0.6593458151000702 0
    outer loop
      vertex 97.97694898225735 5.752341643972238 6.35
      vertex 98.19687770797431 6.003122292025696 7.1499999999999995
      vertex 97.97694898225735 5.752341643972238 7.1499999999999995
    endloop
  endfacet
  facet normal 0.659345815100082 -0.7518398074789658 0
    outer loop
      vertex 98.19687770797431 6.003122292025696 6.35
      vertex 98.44765835602776 6.22305101774265 7.1499999999999995
      vertex 98.19687770797431 6.003122292025696 7.1499999999999995
    endloop
  endfacet
  facet normal 0.5555702330196043 -0.8314696123025438 0
    outer loop
      vertex 98.44765835602776 6.22305101774265 6.35
      vertex 98.725 6.408364779650318 7.1499999999999995
      vertex 98.44765835602776 6.22305101774265 7.1499999999999995
    endloop
  endfacet
  facet normal 0.44228869021899636 -0.8968727415326906 0
    outer loop
      vertex 98.725 6.408364779650318 6.35
      vertex 99.02415724746902 6.555892807903781 7.1499999999999995
      vertex 98.725 6.408364779650318 7.1499999999999995
    endloop
  endfacet
  facet normal 0.3214394653031625 -0.9469301294951052 0
    outer loop
      vertex 99.02415724746902 6.555892807903781 6.35
      vertex 99.34001143498857 6.663110857037124 7.1499999999999995
      vertex 99.02415724746902 6.555892807903781 7.1499999999999995
    endloop
  endfacet
  facet normal 0.19509032201612486 -0.9807852804032312 0
    outer loop
      vertex 99.34001143498857 6.663110857037124 6.35
      vertex 99.66715820983887 6.728184396503217 7.1499999999999995
      vertex 99.34001143498857 6.663110857037124 7.1499999999999995
    endloop
  endfacet
  facet normal 0.06540312923014606 -0.9978589232386033 0
    outer loop
      vertex 99.8 6.736891307436952 6.35
      vertex 99.8 6.736891307436952 7.1499999999999995
      vertex 99.66715820983887 6.728184396503217 7.1499999999999995
    endloop
  endfacet
  facet normal 0.3214394653031673 0.9469301294951037 0
    outer loop
      vertex 94.02415724746902 59.344107192096224 6.35
      vertex 94.02415724746902 59.344107192096224 7.1499999999999995
      vertex 94.34001143498857 59.23688914296288 6.35
    endloop
  endfacet
  facet normal 0.8968727415326887 0.44228869021900064 0
    outer loop
      vertex 92.64410719209621 60.72415724746902 6.35
      vertex 92.64410719209621 60.72415724746902 7.1499999999999995
      vertex 92.79163522034968 60.425000000000004 6.35
    endloop
  endfacet
  facet normal 0.8314696123025357 0.5555702330196165 0
    outer loop
      vertex 92.97694898225735 60.14765835602776 6.35
      vertex 92.79163522034968 60.425000000000004 6.35
      vertex 92.79163522034968 60.425000000000004 7.1499999999999995
    endloop
  endfacet
  facet normal 0.9469301294951123 0.3214394653031417 0
    outer loop
      vertex 92.64410719209621 60.72415724746902 6.35
      vertex 92.53688914296288 61.04001143498858 6.35
      vertex 92.53688914296288 61.04001143498858 7.1499999999999995
    endloop
  endfacet
  facet normal 0.9807852804032325 0.19509032201611715 0
    outer loop
      vertex 92.53688914296288 61.04001143498858 6.35
      vertex 92.50407087690589 61.205 6.35
      vertex 92.53688914296288 61.04001143498858 7.1499999999999995
    endloop
  endfacet
  facet normal 0.6593458151000835 0.7518398074789646 0
    outer loop
      vertex 93.44765835602776 59.67694898225735 6.35
      vertex 93.19687770797431 59.896877707974305 6.35
      vertex 93.19687770797431 59.896877707974305 7.1499999999999995
    endloop
  endfacet
  facet normal 0.5555702330195968 0.8314696123025488 0
    outer loop
      vertex 93.44765835602776 59.67694898225735 6.35
      vertex 93.44765835602776 59.67694898225735 7.1499999999999995
      vertex 93.725 59.491635220349686 6.35
    endloop
  endfacet
  facet normal 0.7518398074789738 0.659345815100073 0
    outer loop
      vertex 92.97694898225735 60.14765835602776 6.35
      vertex 92.97694898225735 60.14765835602776 7.1499999999999995
      vertex 93.19687770797431 59.896877707974305 6.35
    endloop
  endfacet
  facet normal 0.4422886902189922 0.8968727415326928 0
    outer loop
      vertex 94.02415724746902 59.344107192096224 6.35
      vertex 93.725 59.491635220349686 6.35
      vertex 93.725 59.491635220349686 7.1499999999999995
    endloop
  endfacet
  facet normal 0.19509032201611973 0.9807852804032322 0
    outer loop
      vertex 94.34001143498857 59.23688914296288 6.35
      vertex 94.34001143498857 59.23688914296288 7.1499999999999995
      vertex 94.66715820983887 59.17181560349679 6.35
    endloop
  endfacet
  facet normal 0.06540312923014387 0.9978589232386035 0
    outer loop
      vertex 94.66715820983887 59.17181560349679 6.35
      vertex 94.66715820983887 59.17181560349679 7.1499999999999995
      vertex 95 59.150000000000006 6.35
    endloop
  endfacet
  facet normal -0.06540312923014387 0.9978589232386035 0
    outer loop
      vertex 95 59.150000000000006 6.35
      vertex 95 59.150000000000006 7.1499999999999995
      vertex 95.33284179016113 59.17181560349679 6.35
    endloop
  endfacet
  facet normal -0.19509032201611973 0.9807852804032322 0
    outer loop
      vertex 95.33284179016113 59.17181560349679 6.35
      vertex 95.33284179016113 59.17181560349679 7.1499999999999995
      vertex 95.65998856501143 59.23688914296288 6.35
    endloop
  endfacet
  facet normal -0.3214394653031673 0.9469301294951037 0
    outer loop
      vertex 95.65998856501143 59.23688914296288 6.35
      vertex 95.65998856501143 59.23688914296288 7.1499999999999995
      vertex 95.97584275253098 59.344107192096224 6.35
    endloop
  endfacet
  facet normal -0.4422886902189922 0.8968727415326928 0
    outer loop
      vertex 95.97584275253098 59.344107192096224 6.35
      vertex 95.97584275253098 59.344107192096224 7.1499999999999995
      vertex 96.275 59.491635220349686 6.35
    endloop
  endfacet
  facet normal -0.5555702330195968 0.8314696123025488 0
    outer loop
      vertex 96.275 59.491635220349686 6.35
      vertex 96.275 59.491635220349686 7.1499999999999995
      vertex 96.55234164397224 59.67694898225735 6.35
    endloop
  endfacet
  facet normal -0.6593458151000835 0.7518398074789646 0
    outer loop
      vertex 96.55234164397224 59.67694898225735 6.35
      vertex 96.55234164397224 59.67694898225735 7.1499999999999995
      vertex 96.80312229202569 59.896877707974305 6.35
    endloop
  endfacet
  facet normal -0.7518398074789738 0.659345815100073 0
    outer loop
      vertex 96.80312229202569 59.896877707974305 6.35
      vertex 96.80312229202569 59.896877707974305 7.1499999999999995
      vertex 97.02305101774265 60.14765835602776 6.35
    endloop
  endfacet
  facet normal -0.8314696123025357 0.5555702330196165 0
    outer loop
      vertex 97.02305101774265 60.14765835602776 6.35
      vertex 97.02305101774265 60.14765835602776 7.1499999999999995
      vertex 97.20836477965032 60.425000000000004 6.35
    endloop
  endfacet
  facet normal -0.8968727415326887 0.44228869021900064 0
    outer loop
      vertex 97.20836477965032 60.425000000000004 6.35
      vertex 97.20836477965032 60.425000000000004 7.1499999999999995
      vertex 97.35589280790379 60.72415724746902 6.35
    endloop
  endfacet
  facet normal -0.9469301294951123 0.3214394653031417 0
    outer loop
      vertex 97.35589280790379 60.72415724746902 6.35
      vertex 97.35589280790379 60.72415724746902 7.1499999999999995
      vertex 97.46311085703712 61.04001143498858 6.35
    endloop
  endfacet
  facet normal -0.9807852804032325 0.19509032201611715 0
    outer loop
      vertex 97.46311085703712 61.04001143498858 6.35
      vertex 97.49592912309411 61.205 7.1499999999999995
      vertex 97.49592912309411 61.205 6.35
    endloop
  endfacet
  facet normal 0.4422886902189922 0.8968727415326928 0
    outer loop
      vertex 94.02415724746902 59.344107192096224 6.35
      vertex 93.725 59.491635220349686 7.1499999999999995
      vertex 94.02415724746902 59.344107192096224 7.1499999999999995
    endloop
  endfacet
  facet normal 0.3214394653031673 0.9469301294951037 0
    outer loop
      vertex 94.34001143498857 59.23688914296288 6.35
      vertex 94.02415724746902 59.344107192096224 7.1499999999999995
      vertex 94.34001143498857 59.23688914296288 7.1499999999999995
    endloop
  endfacet
  facet normal 0.8314696123025357 0.5555702330196165 0
    outer loop
      vertex 92.97694898225735 60.14765835602776 6.35
      vertex 92.79163522034968 60.425000000000004 7.1499999999999995
      vertex 92.97694898225735 60.14765835602776 7.1499999999999995
    endloop
  endfacet
  facet normal 0.8968727415326887 0.44228869021900064 0
    outer loop
      vertex 92.79163522034968 60.425000000000004 6.35
      vertex 92.64410719209621 60.72415724746902 7.1499999999999995
      vertex 92.79163522034968 60.425000000000004 7.1499999999999995
    endloop
  endfacet
  facet normal 0.9469301294951123 0.3214394653031417 0
    outer loop
      vertex 92.64410719209621 60.72415724746902 6.35
      vertex 92.53688914296288 61.04001143498858 7.1499999999999995
      vertex 92.64410719209621 60.72415724746902 7.1499999999999995
    endloop
  endfacet
  facet normal 0.9807852804032325 0.19509032201611715 0
    outer loop
      vertex 92.50407087690589 61.205 6.35
      vertex 92.50407087690589 61.205 7.1499999999999995
      vertex 92.53688914296288 61.04001143498858 7.1499999999999995
    endloop
  endfacet
  facet normal 0.6593458151000835 0.7518398074789646 0
    outer loop
      vertex 93.44765835602776 59.67694898225735 6.35
      vertex 93.19687770797431 59.896877707974305 7.1499999999999995
      vertex 93.44765835602776 59.67694898225735 7.1499999999999995
    endloop
  endfacet
  facet normal 0.5555702330195968 0.8314696123025488 0
    outer loop
      vertex 93.725 59.491635220349686 6.35
      vertex 93.44765835602776 59.67694898225735 7.1499999999999995
      vertex 93.725 59.491635220349686 7.1499999999999995
    endloop
  endfacet
  facet normal 0.7518398074789738 0.659345815100073 0
    outer loop
      vertex 93.19687770797431 59.896877707974305 6.35
      vertex 92.97694898225735 60.14765835602776 7.1499999999999995
      vertex 93.19687770797431 59.896877707974305 7.1499999999999995
    endloop
  endfacet
  facet normal 0.19509032201611973 0.9807852804032322 0
    outer loop
      vertex 94.66715820983887 59.17181560349679 6.35
      vertex 94.34001143498857 59.23688914296288 7.1499999999999995
      vertex 94.66715820983887 59.17181560349679 7.1499999999999995
    endloop
  endfacet
  facet normal 0.06540312923014387 0.9978589232386035 0
    outer loop
      vertex 95 59.150000000000006 6.35
      vertex 94.66715820983887 59.17181560349679 7.1499999999999995
      vertex 95 59.150000000000006 7.1499999999999995
    endloop
  endfacet
  facet normal -0.06540312923014387 0.9978589232386035 0
    outer loop
      vertex 95.33284179016113 59.17181560349679 6.35
      vertex 95 59.150000000000006 7.1499999999999995
      vertex 95.33284179016113 59.17181560349679 7.1499999999999995
    endloop
  endfacet
  facet normal -0.19509032201611973 0.9807852804032322 0
    outer loop
      vertex 95.65998856501143 59.23688914296288 6.35
      vertex 95.33284179016113 59.17181560349679 7.1499999999999995
      vertex 95.65998856501143 59.23688914296288 7.1499999999999995
    endloop
  endfacet
  facet normal -0.3214394653031673 0.9469301294951037 0
    outer loop
      vertex 95.97584275253098 59.344107192096224 6.35
      vertex 95.65998856501143 59.23688914296288 7.1499999999999995
      vertex 95.97584275253098 59.344107192096224 7.1499999999999995
    endloop
  endfacet
  facet normal -0.4422886902189922 0.8968727415326928 0
    outer loop
      vertex 96.275 59.491635220349686 6.35
      vertex 95.97584275253098 59.344107192096224 7.1499999999999995
      vertex 96.275 59.491635220349686 7.1499999999999995
    endloop
  endfacet
  facet normal -0.5555702330195968 0.8314696123025488 0
    outer loop
      vertex 96.55234164397224 59.67694898225735 6.35
      vertex 96.275 59.491635220349686 7.1499999999999995
      vertex 96.55234164397224 59.67694898225735 7.1499999999999995
    endloop
  endfacet
  facet normal -0.6593458151000835 0.7518398074789646 0
    outer loop
      vertex 96.80312229202569 59.896877707974305 6.35
      vertex 96.55234164397224 59.67694898225735 7.1499999999999995
      vertex 96.80312229202569 59.896877707974305 7.1499999999999995
    endloop
  endfacet
  facet normal -0.7518398074789738 0.659345815100073 0
    outer loop
      vertex 97.02305101774265 60.14765835602776 6.35
      vertex 96.80312229202569 59.896877707974305 7.1499999999999995
      vertex 97.02305101774265 60.14765835602776 7.1499999999999995
    endloop
  endfacet
  facet normal -0.8314696123025357 0.5555702330196165 0
    outer loop
      vertex 97.20836477965032 60.425000000000004 6.35
      vertex 97.02305101774265 60.14765835602776 7.1499999999999995
      vertex 97.20836477965032 60.425000000000004 7.1499999999999995
    endloop
  endfacet
  facet normal -0.8968727415326887 0.44228869021900064 0
    outer loop
      vertex 97.35589280790379 60.72415724746902 6.35
      vertex 97.20836477965032 60.425000000000004 7.1499999999999995
      vertex 97.35589280790379 60.72415724746902 7.1499999999999995
    endloop
  endfacet
  facet normal -0.9469301294951123 0.3214394653031417 0
    outer loop
      vertex 97.46311085703712 61.04001143498858 6.35
      vertex 97.35589280790379 60.72415724746902 7.1499999999999995
      vertex 97.46311085703712 61.04001143498858 7.1499999999999995
    endloop
  endfacet
  facet normal -0.9807852804032325 0.19509032201611715 0
    outer loop
      vertex 97.46311085703712 61.04001143498858 6.35
      vertex 97.46311085703712 61.04001143498858 7.1499999999999995
      vertex 97.49592912309411 61.205 7.1499999999999995
    endloop
  endfacet
  facet normal 0 0 -1
    outer loop
      vertex 13.375 4.795 6.35
      vertex 13.375 43.5 6.35
      vertex 15.745 7.165 6.35
    endloop
  endfacet
  facet normal 0 0 -1
    outer loop
      vertex 13.375 4.795 6.35
      vertex 15.745 7.165 6.35
      vertex 66.52396211364385 4.795 6.35
    endloop
  endfacet
  facet normal -1 0 0
    outer loop
      vertex 13.375 4.795 6.35
      vertex 13.375 4.795 7.1499999999999995
      vertex 13.375 43.5 6.35
    endloop
  endfacet
  facet normal 0 0 -1
    outer loop
      vertex 15.745 7.165 6.35
      vertex 13.375 43.5 6.35
      vertex 15.745 43.5 6.35
    endloop
  endfacet
  facet normal 0 0 -1
    outer loop
      vertex 15.745 7.165 6.35
      vertex 66.53688914296288 4.859988565011428 6.35
      vertex 66.52396211364385 4.795 6.35
    endloop
  endfacet
  facet normal 0 0 -1
    outer loop
      vertex 15.745 7.165 6.35
      vertex 66.64410719209621 5.175842752530979 6.35
      vertex 66.53688914296288 4.859988565011428 6.35
    endloop
  endfacet
  facet normal 0 0 -1
    outer loop
      vertex 15.745 7.165 6.35
      vertex 66.79163522034968 5.475 6.35
      vertex 66.64410719209621 5.175842752530979 6.35
    endloop
  endfacet
  facet normal 0 0 -1
    outer loop
      vertex 15.745 7.165 6.35
      vertex 66.97694898225735 5.752341643972238 6.35
      vertex 66.79163522034968 5.475 6.35
    endloop
  endfacet
  facet normal 0 0 -1
    outer loop
      vertex 15.745 7.165 6.35
      vertex 67.19687770797431 6.003122292025696 6.35
      vertex 66.97694898225735 5.752341643972238 6.35
    endloop
  endfacet
  facet normal 0 0 -1
    outer loop
      vertex 15.745 7.165 6.35
      vertex 67.44765835602776 6.22305101774265 6.35
      vertex 67.19687770797431 6.003122292025696 6.35
    endloop
  endfacet
  facet normal 0 0 -1
    outer loop
      vertex 15.745 7.165 6.35
      vertex 67.725 6.408364779650318 6.35
      vertex 67.44765835602776 6.22305101774265 6.35
    endloop
  endfacet
  facet normal 0 0 -1
    outer loop
      vertex 15.745 7.165 6.35
      vertex 68.02415724746902 6.555892807903781 6.35
      vertex 67.725 6.408364779650318 6.35
    endloop
  endfacet
  facet normal 0 0 -1
    outer loop
      vertex 15.745 7.165 6.35
      vertex 68.34001143498857 6.663110857037124 6.35
      vertex 68.02415724746902 6.555892807903781 6.35
    endloop
  endfacet
  facet normal 0 0 -1
    outer loop
      vertex 15.745 7.165 6.35
      vertex 68.66715820983887 6.728184396503217 6.35
      vertex 68.34001143498857 6.663110857037124 6.35
    endloop
  endfacet
  facet normal 0 0 -1
    outer loop
      vertex 15.745 7.165 6.35
      vertex 69 6.75 6.35
      vertex 68.66715820983887 6.728184396503217 6.35
    endloop
  endfacet
  facet normal 0 -1 0
    outer loop
      vertex 13.375 4.795 6.35
      vertex 66.52396211364385 4.795 6.35
      vertex 66.52396211364385 4.795 7.1499999999999995
    endloop
  endfacet
  facet normal 0 -1 0
    outer loop
      vertex 13.375 4.795 6.35
      vertex 66.52396211364385 4.795 7.1499999999999995
      vertex 13.375 4.795 7.1499999999999995
    endloop
  endfacet
  facet normal 0 0 1
    outer loop
      vertex 13.375 4.795 7.1499999999999995
      vertex 15.745 7.165 7.1499999999999995
      vertex 15.745 43.5 7.1499999999999995
    endloop
  endfacet
  facet normal 0 0 1
    outer loop
      vertex 13.375 4.795 7.1499999999999995
      vertex 66.53688914296288 4.859988565011428 7.1499999999999995
      vertex 15.745 7.165 7.1499999999999995
    endloop
  endfacet
  facet normal -1 0 0
    outer loop
      vertex 13.375 4.795 7.1499999999999995
      vertex 13.375 43.5 7.1499999999999995
      vertex 13.375 43.5 6.35
    endloop
  endfacet
  facet normal 0 0 1
    outer loop
      vertex 13.375 4.795 7.1499999999999995
      vertex 15.745 43.5 7.1499999999999995
      vertex 13.375 43.5 7.1499999999999995
    endloop
  endfacet
  facet normal 0 0 1
    outer loop
      vertex 13.375 4.795 7.1499999999999995
      vertex 66.52396211364385 4.795 7.1499999999999995
      vertex 66.53688914296288 4.859988565011428 7.1499999999999995
    endloop
  endfacet
  facet normal 0 0 1
    outer loop
      vertex 15.745 7.165 7.1499999999999995
      vertex 66.53688914296288 4.859988565011428 7.1499999999999995
      vertex 66.64410719209621 5.175842752530979 7.1499999999999995
    endloop
  endfacet
  facet normal 0 0 1
    outer loop
      vertex 15.745 7.165 7.1499999999999995
      vertex 66.64410719209621 5.175842752530979 7.1499999999999995
      vertex 66.79163522034968 5.475 7.1499999999999995
    endloop
  endfacet
  facet normal 0 0 1
    outer loop
      vertex 15.745 7.165 7.1499999999999995
      vertex 66.79163522034968 5.475 7.1499999999999995
      vertex 66.97694898225735 5.752341643972238 7.1499999999999995
    endloop
  endfacet
  facet normal 0 0 1
    outer loop
      vertex 15.745 7.165 7.1499999999999995
      vertex 66.97694898225735 5.752341643972238 7.1499999999999995
      vertex 67.19687770797431 6.003122292025696 7.1499999999999995
    endloop
  endfacet
  facet normal 0 0 1
    outer loop
      vertex 15.745 7.165 7.1499999999999995
      vertex 67.19687770797431 6.003122292025696 7.1499999999999995
      vertex 67.44765835602776 6.22305101774265 7.1499999999999995
    endloop
  endfacet
  facet normal 0 0 1
    outer loop
      vertex 15.745 7.165 7.1499999999999995
      vertex 67.44765835602776 6.22305101774265 7.1499999999999995
      vertex 67.725 6.408364779650318 7.1499999999999995
    endloop
  endfacet
  facet normal 0 0 1
    outer loop
      vertex 15.745 7.165 7.1499999999999995
      vertex 67.725 6.408364779650318 7.1499999999999995
      vertex 68.02415724746902 6.555892807903781 7.1499999999999995
    endloop
  endfacet
  facet normal 0 0 1
    outer loop
      vertex 15.745 7.165 7.1499999999999995
      vertex 68.02415724746902 6.555892807903781 7.1499999999999995
      vertex 68.34001143498857 6.663110857037124 7.1499999999999995
    endloop
  endfacet
  facet normal 0 0 1
    outer loop
      vertex 15.745 7.165 7.1499999999999995
      vertex 68.34001143498857 6.663110857037124 7.1499999999999995
      vertex 68.66715820983887 6.728184396503217 7.1499999999999995
    endloop
  endfacet
  facet normal 0 0 1
    outer loop
      vertex 15.745 7.165 7.1499999999999995
      vertex 68.66715820983887 6.728184396503217 7.1499999999999995
      vertex 69 6.75 7.1499999999999995
    endloop
  endfacet
  facet normal 0 0 -1
    outer loop
      vertex 15.745 7.165 6.35
      vertex 92.25500000000001 7.165 6.35
      vertex 69 6.75 6.35
    endloop
  endfacet
  facet normal 0 0 -1
    outer loop
      vertex 69 6.75 6.35
      vertex 92.25500000000001 7.165 6.35
      vertex 69.33284179016113 6.728184396503217 6.35
    endloop
  endfacet
  facet normal 0 0 -1
    outer loop
      vertex 69.33284179016113 6.728184396503217 6.35
      vertex 92.25500000000001 7.165 6.35
      vertex 69.65998856501143 6.663110857037124 6.35
    endloop
  endfacet
  facet normal 0 0 -1
    outer loop
      vertex 69.97584275253098 6.555892807903781 6.35
      vertex 69.65998856501143 6.663110857037124 6.35
      vertex 97.97694898225735 5.752341643972238 6.35
    endloop
  endfacet
  facet normal 0 0 -1
    outer loop
      vertex 69.97584275253098 6.555892807903781 6.35
      vertex 97.97694898225735 5.752341643972238 6.35
      vertex 70.275 6.408364779650318 6.35
    endloop
  endfacet
  facet normal 0 0 -1
    outer loop
      vertex 71.47603788635615 4.795 6.35
      vertex 71.46311085703712 4.859988565011428 6.35
      vertex 97.52396211364385 4.795 6.35
    endloop
  endfacet
  facet normal 0 0 -1
    outer loop
      vertex 71.35589280790379 5.175842752530979 6.35
      vertex 97.53688914296288 4.859988565011428 6.35
      vertex 71.46311085703712 4.859988565011428 6.35
    endloop
  endfacet
  facet normal 0 0 -1
    outer loop
      vertex 71.35589280790379 5.175842752530979 6.35
      vertex 71.20836477965032 5.475 6.35
      vertex 97.53688914296288 4.859988565011428 6.35
    endloop
  endfacet
  facet normal 0 0 -1
    outer loop
      vertex 71.20836477965032 5.475 6.35
      vertex 71.02305101774265 5.752341643972238 6.35
      vertex 97.53688914296288 4.859988565011428 6.35
    endloop
  endfacet
  facet normal 0 0 -1
    outer loop
      vertex 70.55234164397224 6.22305101774265 6.35
      vertex 97.97694898225735 5.752341643972238 6.35
      vertex 70.80312229202569 6.003122292025696 6.35
    endloop
  endfacet
  facet normal 0 0 -1
    outer loop
      vertex 71.02305101774265 5.752341643972238 6.35
      vertex 70.80312229202569 6.003122292025696 6.35
      vertex 97.97694898225735 5.752341643972238 6.35
    endloop
  endfacet
  facet normal 0 0 -1
    outer loop
      vertex 70.275 6.408364779650318 6.35
      vertex 97.97694898225735 5.752341643972238 6.35
      vertex 70.55234164397224 6.22305101774265 6.35
    endloop
  endfacet
  facet normal 0 0 -1
    outer loop
      vertex 69.65998856501143 6.663110857037124 6.35
      vertex 92.25500000000001 7.165 6.35
      vertex 97.97694898225735 5.752341643972238 6.35
    endloop
  endfacet
  facet normal 0 0 -1
    outer loop
      vertex 71.46311085703712 4.859988565011428 6.35
      vertex 97.53688914296288 4.859988565011428 6.35
      vertex 97.52396211364385 4.795 6.35
    endloop
  endfacet
  facet normal 0 0 -1
    outer loop
      vertex 71.02305101774265 5.752341643972238 6.35
      vertex 97.64410719209621 5.175842752530979 6.35
      vertex 97.53688914296288 4.859988565011428 6.35
    endloop
  endfacet
  facet normal 0 0 -1
    outer loop
      vertex 71.02305101774265 5.752341643972238 6.35
      vertex 97.79163522034968 5.475 6.35
      vertex 97.64410719209621 5.175842752530979 6.35
    endloop
  endfacet
  facet normal 0 0 -1
    outer loop
      vertex 71.02305101774265 5.752341643972238 6.35
      vertex 97.97694898225735 5.752341643972238 6.35
      vertex 97.79163522034968 5.475 6.35
    endloop
  endfacet
  facet normal 0 0 -1
    outer loop
      vertex 92.25500000000001 7.165 6.35
      vertex 94.8 26.15 6.35
      vertex 97.97694898225735 5.752341643972238 6.35
    endloop
  endfacet
  facet normal 0 0 -1
    outer loop
      vertex 97.97694898225735 5.752341643972238 6.35
      vertex 94.8 26.15 6.35
      vertex 98.19687770797431 6.003122292025696 6.35
    endloop
  endfacet
  facet normal 0 0 -1
    outer loop
      vertex 98.19687770797431 6.003122292025696 6.35
      vertex 94.8 26.15 6.35
      vertex 98.44765835602776 6.22305101774265 6.35
    endloop
  endfacet
  facet normal 0 0 -1
    outer loop
      vertex 98.44765835602776 6.22305101774265 6.35
      vertex 94.8 26.15 6.35
      vertex 98.725 6.408364779650318 6.35
    endloop
  endfacet
  facet normal 0 0 -1
    outer loop
      vertex 98.725 6.408364779650318 6.35
      vertex 94.8 26.15 6.35
      vertex 99.02415724746902 6.555892807903781 6.35
    endloop
  endfacet
  facet normal 0 0 -1
    outer loop
      vertex 99.02415724746902 6.555892807903781 6.35
      vertex 94.8 26.15 6.35
      vertex 99.34001143498857 6.663110857037124 6.35
    endloop
  endfacet
  facet normal 0 0 -1
    outer loop
      vertex 99.34001143498857 6.663110857037124 6.35
      vertex 99.8 26.15 6.35
      vertex 99.66715820983887 6.728184396503217 6.35
    endloop
  endfacet
  facet normal 0 0 -1
    outer loop
      vertex 99.66715820983887 6.728184396503217 6.35
      vertex 99.8 26.15 6.35
      vertex 99.8 6.736891307436952 6.35
    endloop
  endfacet
  facet normal 0 -1 0
    outer loop
      vertex 71.47603788635615 4.795 6.35
      vertex 97.52396211364385 4.795 6.35
      vertex 97.52396211364385 4.795 7.1499999999999995
    endloop
  endfacet
  facet normal 0 0 -1
    outer loop
      vertex 92.25500000000001 7.165 6.35
      vertex 94.8 39.849999999999994 6.35
      vertex 94.8 26.15 6.35
    endloop
  endfacet
  facet normal 0 0 -1
    outer loop
      vertex 99.34001143498857 6.663110857037124 6.35
      vertex 94.8 26.15 6.35
      vertex 99.8 26.15 6.35
    endloop
  endfacet
  facet normal 1 0 0
    outer loop
      vertex 99.8 6.736891307436952 6.35
      vertex 99.8 26.15 6.35
      vertex 99.8 26.15 7.1499999999999995
    endloop
  endfacet
  facet normal 0 0 1
    outer loop
      vertex 15.745 7.165 7.1499999999999995
      vertex 69 6.75 7.1499999999999995
      vertex 92.25500000000001 7.165 7.1499999999999995
    endloop
  endfacet
  facet normal 0 0 1
    outer loop
      vertex 71.20836477965032 5.475 7.1499999999999995
      vertex 92.25500000000001 7.165 7.1499999999999995
      vertex 71.02305101774265 5.752341643972238 7.1499999999999995
    endloop
  endfacet
  facet normal 0 0 1
    outer loop
      vertex 71.02305101774265 5.752341643972238 7.1499999999999995
      vertex 92.25500000000001 7.165 7.1499999999999995
      vertex 70.80312229202569 6.003122292025696 7.1499999999999995
    endloop
  endfacet
  facet normal 0 0 1
    outer loop
      vertex 70.55234164397224 6.22305101774265 7.1499999999999995
      vertex 70.80312229202569 6.003122292025696 7.1499999999999995
      vertex 92.25500000000001 7.165 7.1499999999999995
    endloop
  endfacet
  facet normal 0 0 1
    outer loop
      vertex 69 6.75 7.1499999999999995
      vertex 69.33284179016113 6.728184396503217 7.1499999999999995
      vertex 92.25500000000001 7.165 7.1499999999999995
    endloop
  endfacet
  facet normal 0 0 1
    outer loop
      vertex 69.33284179016113 6.728184396503217 7.1499999999999995
      vertex 69.65998856501143 6.663110857037124 7.1499999999999995
      vertex 92.25500000000001 7.165 7.1499999999999995
    endloop
  endfacet
  facet normal 0 0 1
    outer loop
      vertex 69.97584275253098 6.555892807903781 7.1499999999999995
      vertex 70.275 6.408364779650318 7.1499999999999995
      vertex 92.25500000000001 7.165 7.1499999999999995
    endloop
  endfacet
  facet normal 0 0 1
    outer loop
      vertex 69.97584275253098 6.555892807903781 7.1499999999999995
      vertex 92.25500000000001 7.165 7.1499999999999995
      vertex 69.65998856501143 6.663110857037124 7.1499999999999995
    endloop
  endfacet
  facet normal 0 0 1
    outer loop
      vertex 70.275 6.408364779650318 7.1499999999999995
      vertex 70.55234164397224 6.22305101774265 7.1499999999999995
      vertex 92.25500000000001 7.165 7.1499999999999995
    endloop
  endfacet
  facet normal 0 -1 0
    outer loop
      vertex 71.47603788635615 4.795 6.35
      vertex 97.52396211364385 4.795 7.1499999999999995
      vertex 71.47603788635615 4.795 7.1499999999999995
    endloop
  endfacet
  facet normal 1 0 0
    outer loop
      vertex 99.8 6.736891307436952 6.35
      vertex 99.8 26.15 7.1499999999999995
      vertex 99.8 6.736891307436952 7.1499999999999995
    endloop
  endfacet
  facet normal 0 0 1
    outer loop
      vertex 71.47603788635615 4.795 7.1499999999999995
      vertex 92.25500000000001 7.165 7.1499999999999995
      vertex 71.46311085703712 4.859988565011428 7.1499999999999995
    endloop
  endfacet
  facet normal 0 0 1
    outer loop
      vertex 71.35589280790379 5.175842752530979 7.1499999999999995
      vertex 71.46311085703712 4.859988565011428 7.1499999999999995
      vertex 92.25500000000001 7.165 7.1499999999999995
    endloop
  endfacet
  facet normal 0 0 1
    outer loop
      vertex 71.35589280790379 5.175842752530979 7.1499999999999995
      vertex 92.25500000000001 7.165 7.1499999999999995
      vertex 71.20836477965032 5.475 7.1499999999999995
    endloop
  endfacet
  facet normal 0 0 1
    outer loop
      vertex 71.47603788635615 4.795 7.1499999999999995
      vertex 97.52396211364385 4.795 7.1499999999999995
      vertex 92.25500000000001 7.165 7.1499999999999995
    endloop
  endfacet
  facet normal 0 0 1
    outer loop
      vertex 92.25500000000001 7.165 7.1499999999999995
      vertex 97.52396211364385 4.795 7.1499999999999995
      vertex 97.53688914296288 4.859988565011428 7.1499999999999995
    endloop
  endfacet
  facet normal 0 0 1
    outer loop
      vertex 92.25500000000001 7.165 7.1499999999999995
      vertex 97.53688914296288 4.859988565011428 7.1499999999999995
      vertex 97.64410719209621 5.175842752530979 7.1499999999999995
    endloop
  endfacet
  facet normal 0 0 1
    outer loop
      vertex 92.25500000000001 7.165 7.1499999999999995
      vertex 97.64410719209621 5.175842752530979 7.1499999999999995
      vertex 97.79163522034968 5.475 7.1499999999999995
    endloop
  endfacet
  facet normal 0 0 1
    outer loop
      vertex 92.25500000000001 7.165 7.1499999999999995
      vertex 97.79163522034968 5.475 7.1499999999999995
      vertex 97.97694898225735 5.752341643972238 7.1499999999999995
    endloop
  endfacet
  facet normal 0 0 1
    outer loop
      vertex 92.25500000000001 7.165 7.1499999999999995
      vertex 97.97694898225735 5.752341643972238 7.1499999999999995
      vertex 98.19687770797431 6.003122292025696 7.1499999999999995
    endloop
  endfacet
  facet normal 0 0 1
    outer loop
      vertex 92.25500000000001 7.165 7.1499999999999995
      vertex 98.19687770797431 6.003122292025696 7.1499999999999995
      vertex 98.44765835602776 6.22305101774265 7.1499999999999995
    endloop
  endfacet
  facet normal 0 0 1
    outer loop
      vertex 92.25500000000001 7.165 7.1499999999999995
      vertex 98.44765835602776 6.22305101774265 7.1499999999999995
      vertex 98.725 6.408364779650318 7.1499999999999995
    endloop
  endfacet
  facet normal 0 0 1
    outer loop
      vertex 92.25500000000001 7.165 7.1499999999999995
      vertex 98.725 6.408364779650318 7.1499999999999995
      vertex 99.02415724746902 6.555892807903781 7.1499999999999995
    endloop
  endfacet
  facet normal 0 0 1
    outer loop
      vertex 92.25500000000001 7.165 7.1499999999999995
      vertex 99.02415724746902 6.555892807903781 7.1499999999999995
      vertex 99.8 26.15 7.1499999999999995
    endloop
  endfacet
  facet normal 0 0 1
    outer loop
      vertex 99.02415724746902 6.555892807903781 7.1499999999999995
      vertex 99.34001143498857 6.663110857037124 7.1499999999999995
      vertex 99.8 26.15 7.1499999999999995
    endloop
  endfacet
  facet normal 0 0 1
    outer loop
      vertex 99.34001143498857 6.663110857037124 7.1499999999999995
      vertex 99.66715820983887 6.728184396503217 7.1499999999999995
      vertex 99.8 26.15 7.1499999999999995
    endloop
  endfacet
  facet normal 0 0 1
    outer loop
      vertex 99.66715820983887 6.728184396503217 7.1499999999999995
      vertex 99.8 6.736891307436952 7.1499999999999995
      vertex 99.8 26.15 7.1499999999999995
    endloop
  endfacet
  facet normal 0 0 1
    outer loop
      vertex 92.25500000000001 7.165 7.1499999999999995
      vertex 99.8 26.15 7.1499999999999995
      vertex 94.8 26.15 7.1499999999999995
    endloop
  endfacet
  facet normal 0 0 1
    outer loop
      vertex 92.25500000000001 7.165 7.1499999999999995
      vertex 94.8 26.15 7.1499999999999995
      vertex 92.25500000000001 58.335 7.1499999999999995
    endloop
  endfacet
  facet normal 0 0 -1
    outer loop
      vertex 92.25500000000001 7.165 6.35
      vertex 92.25500000000001 56.28034336129593 6.35
      vertex 94.8 39.849999999999994 6.35
    endloop
  endfacet
  facet normal 0 0 -1
    outer loop
      vertex 94.8 39.849999999999994 6.35
      vertex 92.25500000000001 56.28034336129593 6.35
      vertex 99.8 39.849999999999994 6.35
    endloop
  endfacet
  facet normal 0 0 -1
    outer loop
      vertex 83.2 58.335 6.35
      vertex 83.2 61.205 6.35
      vertex 92.50407087690589 61.205 6.35
    endloop
  endfacet
  facet normal 0 0 -1
    outer loop
      vertex 99.8 39.849999999999994 6.35
      vertex 92.25500000000001 56.28034336129593 6.35
      vertex 99.8 61.205 6.35
    endloop
  endfacet
  facet normal 0 0 -1
    outer loop
      vertex 83.2 58.335 6.35
      vertex 92.97694898225735 60.14765835602776 6.35
      vertex 92.25500000000001 58.335 6.35
    endloop
  endfacet
  facet normal 0 0 -1
    outer loop
      vertex 83.2 58.335 6.35
      vertex 92.79163522034968 60.425000000000004 6.35
      vertex 92.97694898225735 60.14765835602776 6.35
    endloop
  endfacet
  facet normal 0 0 -1
    outer loop
      vertex 83.2 58.335 6.35
      vertex 92.64410719209621 60.72415724746902 6.35
      vertex 92.79163522034968 60.425000000000004 6.35
    endloop
  endfacet
  facet normal 0 0 -1
    outer loop
      vertex 83.2 58.335 6.35
      vertex 92.53688914296288 61.04001143498858 6.35
      vertex 92.64410719209621 60.72415724746902 6.35
    endloop
  endfacet
  facet normal 0 0 -1
    outer loop
      vertex 83.2 58.335 6.35
      vertex 92.50407087690589 61.205 6.35
      vertex 92.53688914296288 61.04001143498858 6.35
    endloop
  endfacet
  facet normal 0 0 -1
    outer loop
      vertex 92.25500000000001 56.28034336129593 6.35
      vertex 92.25500000000001 58.335 6.35
      vertex 94.02415724746902 59.344107192096224 6.35
    endloop
  endfacet
  facet normal 0 0 -1
    outer loop
      vertex 92.25500000000001 58.335 6.35
      vertex 93.19687770797431 59.896877707974305 6.35
      vertex 93.44765835602776 59.67694898225735 6.35
    endloop
  endfacet
  facet normal 0 0 -1
    outer loop
      vertex 92.25500000000001 56.28034336129593 6.35
      vertex 94.02415724746902 59.344107192096224 6.35
      vertex 94.34001143498857 59.23688914296288 6.35
    endloop
  endfacet
  facet normal 0 0 -1
    outer loop
      vertex 92.25500000000001 56.28034336129593 6.35
      vertex 94.34001143498857 59.23688914296288 6.35
      vertex 94.66715820983887 59.17181560349679 6.35
    endloop
  endfacet
  facet normal 0 0 -1
    outer loop
      vertex 92.25500000000001 56.28034336129593 6.35
      vertex 94.66715820983887 59.17181560349679 6.35
      vertex 95 59.150000000000006 6.35
    endloop
  endfacet
  facet normal 0 0 -1
    outer loop
      vertex 92.25500000000001 56.28034336129593 6.35
      vertex 95 59.150000000000006 6.35
      vertex 95.33284179016113 59.17181560349679 6.35
    endloop
  endfacet
  facet normal 0 0 -1
    outer loop
      vertex 92.25500000000001 58.335 6.35
      vertex 93.44765835602776 59.67694898225735 6.35
      vertex 93.725 59.491635220349686 6.35
    endloop
  endfacet
  facet normal 0 0 -1
    outer loop
      vertex 92.25500000000001 58.335 6.35
      vertex 93.725 59.491635220349686 6.35
      vertex 94.02415724746902 59.344107192096224 6.35
    endloop
  endfacet
  facet normal 0 0 -1
    outer loop
      vertex 92.25500000000001 58.335 6.35
      vertex 92.97694898225735 60.14765835602776 6.35
      vertex 93.19687770797431 59.896877707974305 6.35
    endloop
  endfacet
  facet normal 0 0 -1
    outer loop
      vertex 92.25500000000001 56.28034336129593 6.35
      vertex 95.33284179016113 59.17181560349679 6.35
      vertex 95.65998856501143 59.23688914296288 6.35
    endloop
  endfacet
  facet normal 0 0 -1
    outer loop
      vertex 92.25500000000001 56.28034336129593 6.35
      vertex 95.65998856501143 59.23688914296288 6.35
      vertex 95.97584275253098 59.344107192096224 6.35
    endloop
  endfacet
  facet normal 0 0 -1
    outer loop
      vertex 92.25500000000001 56.28034336129593 6.35
      vertex 95.97584275253098 59.344107192096224 6.35
      vertex 99.8 61.205 6.35
    endloop
  endfacet
  facet normal 0 0 -1
    outer loop
      vertex 95.97584275253098 59.344107192096224 6.35
      vertex 96.275 59.491635220349686 6.35
      vertex 99.8 61.205 6.35
    endloop
  endfacet
  facet normal 0 0 -1
    outer loop
      vertex 96.275 59.491635220349686 6.35
      vertex 96.55234164397224 59.67694898225735 6.35
      vertex 99.8 61.205 6.35
    endloop
  endfacet
  facet normal 0 0 -1
    outer loop
      vertex 96.55234164397224 59.67694898225735 6.35
      vertex 96.80312229202569 59.896877707974305 6.35
      vertex 99.8 61.205 6.35
    endloop
  endfacet
  facet normal 0 0 -1
    outer loop
      vertex 96.80312229202569 59.896877707974305 6.35
      vertex 97.02305101774265 60.14765835602776 6.35
      vertex 99.8 61.205 6.35
    endloop
  endfacet
  facet normal 0 0 -1
    outer loop
      vertex 97.02305101774265 60.14765835602776 6.35
      vertex 97.20836477965032 60.425000000000004 6.35
      vertex 99.8 61.205 6.35
    endloop
  endfacet
  facet normal 0 0 -1
    outer loop
      vertex 97.20836477965032 60.425000000000004 6.35
      vertex 97.35589280790379 60.72415724746902 6.35
      vertex 99.8 61.205 6.35
    endloop
  endfacet
  facet normal 0 0 -1
    outer loop
      vertex 97.35589280790379 60.72415724746902 6.35
      vertex 97.46311085703712 61.04001143498858 6.35
      vertex 99.8 61.205 6.35
    endloop
  endfacet
  facet normal 0 0 -1
    outer loop
      vertex 97.46311085703712 61.04001143498858 6.35
      vertex 97.49592912309411 61.205 6.35
      vertex 99.8 61.205 6.35
    endloop
  endfacet
  facet normal 0 1 0
    outer loop
      vertex 83.2 61.205 6.35
      vertex 83.2 61.205 7.1499999999999995
      vertex 92.50407087690589 61.205 6.35
    endloop
  endfacet
  facet normal 1 0 0
    outer loop
      vertex 99.8 39.849999999999994 6.35
      vertex 99.8 61.205 6.35
      vertex 99.8 61.205 7.1499999999999995
    endloop
  endfacet
  facet normal 0 1 0
    outer loop
      vertex 97.49592912309411 61.205 6.35
      vertex 97.49592912309411 61.205 7.1499999999999995
      vertex 99.8 61.205 6.35
    endloop
  endfacet
  facet normal 1 0 0
    outer loop
      vertex 99.8 39.849999999999994 6.35
      vertex 99.8 61.205 7.1499999999999995
      vertex 99.8 39.849999999999994 7.1499999999999995
    endloop
  endfacet
  facet normal 0 0 1
    outer loop
      vertex 94.8 26.15 7.1499999999999995
      vertex 94.8 39.849999999999994 7.1499999999999995
      vertex 92.25500000000001 58.335 7.1499999999999995
    endloop
  endfacet
  facet normal 0 0 1
    outer loop
      vertex 94.8 39.849999999999994 7.1499999999999995
      vertex 99.8 39.849999999999994 7.1499999999999995
      vertex 95 59.150000000000006 7.1499999999999995
    endloop
  endfacet
  facet normal 0 1 0
    outer loop
      vertex 92.50407087690589 61.205 6.35
      vertex 83.2 61.205 7.1499999999999995
      vertex 92.50407087690589 61.205 7.1499999999999995
    endloop
  endfacet
  facet normal 0 1 0
    outer loop
      vertex 99.8 61.205 6.35
      vertex 97.49592912309411 61.205 7.1499999999999995
      vertex 99.8 61.205 7.1499999999999995
    endloop
  endfacet
  facet normal 0 0 1
    outer loop
      vertex 83.2 58.335 7.1499999999999995
      vertex 92.25500000000001 58.335 7.1499999999999995
      vertex 83.2 61.205 7.1499999999999995
    endloop
  endfacet
  facet normal 0 0 1
    outer loop
      vertex 94.8 39.849999999999994 7.1499999999999995
      vertex 93.725 59.491635220349686 7.1499999999999995
      vertex 92.25500000000001 58.335 7.1499999999999995
    endloop
  endfacet
  facet normal 0 0 1
    outer loop
      vertex 94.8 39.849999999999994 7.1499999999999995
      vertex 94.34001143498857 59.23688914296288 7.1499999999999995
      vertex 94.02415724746902 59.344107192096224 7.1499999999999995
    endloop
  endfacet
  facet normal 0 0 1
    outer loop
      vertex 94.8 39.849999999999994 7.1499999999999995
      vertex 94.02415724746902 59.344107192096224 7.1499999999999995
      vertex 93.725 59.491635220349686 7.1499999999999995
    endloop
  endfacet
  facet normal 0 0 1
    outer loop
      vertex 94.8 39.849999999999994 7.1499999999999995
      vertex 94.66715820983887 59.17181560349679 7.1499999999999995
      vertex 94.34001143498857 59.23688914296288 7.1499999999999995
    endloop
  endfacet
  facet normal 0 0 1
    outer loop
      vertex 94.8 39.849999999999994 7.1499999999999995
      vertex 95 59.150000000000006 7.1499999999999995
      vertex 94.66715820983887 59.17181560349679 7.1499999999999995
    endloop
  endfacet
  facet normal 0 0 1
    outer loop
      vertex 99.8 39.849999999999994 7.1499999999999995
      vertex 95.33284179016113 59.17181560349679 7.1499999999999995
      vertex 95 59.150000000000006 7.1499999999999995
    endloop
  endfacet
  facet normal 0 0 1
    outer loop
      vertex 99.8 39.849999999999994 7.1499999999999995
      vertex 95.65998856501143 59.23688914296288 7.1499999999999995
      vertex 95.33284179016113 59.17181560349679 7.1499999999999995
    endloop
  endfacet
  facet normal 0 0 1
    outer loop
      vertex 99.8 39.849999999999994 7.1499999999999995
      vertex 95.97584275253098 59.344107192096224 7.1499999999999995
      vertex 95.65998856501143 59.23688914296288 7.1499999999999995
    endloop
  endfacet
  facet normal 0 0 1
    outer loop
      vertex 99.8 39.849999999999994 7.1499999999999995
      vertex 96.275 59.491635220349686 7.1499999999999995
      vertex 95.97584275253098 59.344107192096224 7.1499999999999995
    endloop
  endfacet
  facet normal 0 0 1
    outer loop
      vertex 99.8 39.849999999999994 7.1499999999999995
      vertex 96.55234164397224 59.67694898225735 7.1499999999999995
      vertex 96.275 59.491635220349686 7.1499999999999995
    endloop
  endfacet
  facet normal 0 0 1
    outer loop
      vertex 99.8 39.849999999999994 7.1499999999999995
      vertex 96.80312229202569 59.896877707974305 7.1499999999999995
      vertex 96.55234164397224 59.67694898225735 7.1499999999999995
    endloop
  endfacet
  facet normal 0 0 1
    outer loop
      vertex 99.8 39.849999999999994 7.1499999999999995
      vertex 97.02305101774265 60.14765835602776 7.1499999999999995
      vertex 96.80312229202569 59.896877707974305 7.1499999999999995
    endloop
  endfacet
  facet normal 0 0 1
    outer loop
      vertex 99.8 39.849999999999994 7.1499999999999995
      vertex 97.20836477965032 60.425000000000004 7.1499999999999995
      vertex 97.02305101774265 60.14765835602776 7.1499999999999995
    endloop
  endfacet
  facet normal 0 0 1
    outer loop
      vertex 99.8 39.849999999999994 7.1499999999999995
      vertex 97.35589280790379 60.72415724746902 7.1499999999999995
      vertex 97.20836477965032 60.425000000000004 7.1499999999999995
    endloop
  endfacet
  facet normal 0 0 1
    outer loop
      vertex 99.8 39.849999999999994 7.1499999999999995
      vertex 97.46311085703712 61.04001143498858 7.1499999999999995
      vertex 97.35589280790379 60.72415724746902 7.1499999999999995
    endloop
  endfacet
  facet normal 0 0 1
    outer loop
      vertex 99.8 39.849999999999994 7.1499999999999995
      vertex 99.8 61.205 7.1499999999999995
      vertex 97.46311085703712 61.04001143498858 7.1499999999999995
    endloop
  endfacet
  facet normal 0 0 1
    outer loop
      vertex 83.2 61.205 7.1499999999999995
      vertex 92.25500000000001 58.335 7.1499999999999995
      vertex 92.53688914296288 61.04001143498858 7.1499999999999995
    endloop
  endfacet
  facet normal 0 0 1
    outer loop
      vertex 83.2 61.205 7.1499999999999995
      vertex 92.53688914296288 61.04001143498858 7.1499999999999995
      vertex 92.50407087690589 61.205 7.1499999999999995
    endloop
  endfacet
  facet normal 0 0 1
    outer loop
      vertex 92.25500000000001 58.335 7.1499999999999995
      vertex 93.44765835602776 59.67694898225735 7.1499999999999995
      vertex 93.19687770797431 59.896877707974305 7.1499999999999995
    endloop
  endfacet
  facet normal 0 0 1
    outer loop
      vertex 92.25500000000001 58.335 7.1499999999999995
      vertex 93.725 59.491635220349686 7.1499999999999995
      vertex 93.44765835602776 59.67694898225735 7.1499999999999995
    endloop
  endfacet
  facet normal 0 0 1
    outer loop
      vertex 92.25500000000001 58.335 7.1499999999999995
      vertex 92.97694898225735 60.14765835602776 7.1499999999999995
      vertex 92.79163522034968 60.425000000000004 7.1499999999999995
    endloop
  endfacet
  facet normal 0 0 1
    outer loop
      vertex 92.25500000000001 58.335 7.1499999999999995
      vertex 92.79163522034968 60.425000000000004 7.1499999999999995
      vertex 92.64410719209621 60.72415724746902 7.1499999999999995
    endloop
  endfacet
  facet normal 0 0 1
    outer loop
      vertex 92.25500000000001 58.335 7.1499999999999995
      vertex 93.19687770797431 59.896877707974305 7.1499999999999995
      vertex 92.97694898225735 60.14765835602776 7.1499999999999995
    endloop
  endfacet
  facet normal 0 0 1
    outer loop
      vertex 92.25500000000001 58.335 7.1499999999999995
      vertex 92.64410719209621 60.72415724746902 7.1499999999999995
      vertex 92.53688914296288 61.04001143498858 7.1499999999999995
    endloop
  endfacet
  facet normal 0 0 1
    outer loop
      vertex 97.46311085703712 61.04001143498858 7.1499999999999995
      vertex 99.8 61.205 7.1499999999999995
      vertex 97.49592912309411 61.205 7.1499999999999995
    endloop
  endfacet
  facet normal 1 0 0
    outer loop
      vertex 15.745 7.165 6.35
      vertex 15.745 43.5 6.35
      vertex 15.745 43.5 7.1499999999999995
    endloop
  endfacet
  facet normal 1 0 0
    outer loop
      vertex 15.745 7.165 6.35
      vertex 15.745 43.5 7.1499999999999995
      vertex 15.745 7.165 7.1499999999999995
    endloop
  endfacet
  facet normal 0 1 0
    outer loop
      vertex 15.745 7.165 6.35
      vertex 15.745 7.165 7.1499999999999995
      vertex 92.25500000000001 7.165 7.1499999999999995
    endloop
  endfacet
  facet normal 0 1 0
    outer loop
      vertex 15.745 7.165 6.35
      vertex 92.25500000000001 7.165 7.1499999999999995
      vertex 92.25500000000001 7.165 6.35
    endloop
  endfacet
  facet normal -1 0 0
    outer loop
      vertex 92.25500000000001 7.165 6.35
      vertex 92.25500000000001 7.165 7.1499999999999995
      vertex 92.25500000000001 56.28034336129593 6.35
    endloop
  endfacet
  facet normal -1 0 0
    outer loop
      vertex 92.25500000000001 56.28034336129593 6.35
      vertex 92.25500000000001 58.335 7.1499999999999995
      vertex 92.25500000000001 58.335 6.35
    endloop
  endfacet
  facet normal 0 -1 0
    outer loop
      vertex 83.2 58.335 6.35
      vertex 92.25500000000001 58.335 6.35
      vertex 92.25500000000001 58.335 7.1499999999999995
    endloop
  endfacet
  facet normal -1 0 0
    outer loop
      vertex 92.25500000000001 7.165 7.1499999999999995
      vertex 92.25500000000001 58.335 7.1499999999999995
      vertex 92.25500000000001 56.28034336129593 6.35
    endloop
  endfacet
  facet normal 0 -1 0
    outer loop
      vertex 83.2 58.335 6.35
      vertex 92.25500000000001 58.335 7.1499999999999995
      vertex 83.2 58.335 7.1499999999999995
    endloop
  endfacet
  facet normal 0 1 0
    outer loop
      vertex 94.8 26.15 6.35
      vertex 94.8 26.15 7.1499999999999995
      vertex 99.8 26.15 6.35
    endloop
  endfacet
  facet normal 0 1 0
    outer loop
      vertex 99.8 26.15 6.35
      vertex 94.8 26.15 7.1499999999999995
      vertex 99.8 26.15 7.1499999999999995
    endloop
  endfacet
  facet normal 1 0 0
    outer loop
      vertex 94.8 26.15 6.35
      vertex 94.8 39.849999999999994 7.1499999999999995
      vertex 94.8 26.15 7.1499999999999995
    endloop
  endfacet
  facet normal 1 0 0
    outer loop
      vertex 94.8 26.15 6.35
      vertex 94.8 39.849999999999994 6.35
      vertex 94.8 39.849999999999994 7.1499999999999995
    endloop
  endfacet
  facet normal 0 -1 0
    outer loop
      vertex 94.8 39.849999999999994 6.35
      vertex 99.8 39.849999999999994 6.35
      vertex 99.8 39.849999999999994 7.1499999999999995
    endloop
  endfacet
  facet normal 0 -1 0
    outer loop
      vertex 94.8 39.849999999999994 6.35
      vertex 99.8 39.849999999999994 7.1499999999999995
      vertex 94.8 39.849999999999994 7.1499999999999995
    endloop
  endfacet
  facet normal -1 0 0
    outer loop
      vertex 83.2 58.335 6.35
      vertex 83.2 58.335 7.1499999999999995
      vertex 83.2 61.205 6.35
    endloop
  endfacet
  facet normal -1 0 0
    outer loop
      vertex 83.2 61.205 6.35
      vertex 83.2 58.335 7.1499999999999995
      vertex 83.2 61.205 7.1499999999999995
    endloop
  endfacet
  facet normal 0 1 0
    outer loop
      vertex 13.375 43.5 6.35
      vertex 13.375 43.5 7.1499999999999995
      vertex 15.745 43.5 6.35
    endloop
  endfacet
  facet normal 0 1 0
    outer loop
      vertex 15.745 43.5 6.35
      vertex 13.375 43.5 7.1499999999999995
      vertex 15.745 43.5 7.1499999999999995
    endloop
  endfacet
endsolid OpenSCAD_Model
