solid OpenSCAD_Model
  facet normal 0.1950903220161279 0.9807852804032307 0
    outer loop
      vertex 39.340011434988575 59.23688914296288 6.35
      vertex 39.340011434988575 59.23688914296288 7.1499999999999995
      vertex 39.66715820983887 59.17181560349679 6.35
    endloop
  endfacet
  facet normal 0.06540312923014246 0.9978589232386036 0
    outer loop
      vertex 39.66715820983887 59.17181560349679 6.35
      vertex 39.66715820983887 59.17181560349679 7.1499999999999995
      vertex 40 59.150000000000006 6.35
    endloop
  endfacet
  facet normal -0.06540312923014246 0.9978589232386036 0
    outer loop
      vertex 40 59.150000000000006 6.35
      vertex 40 59.150000000000006 7.1499999999999995
      vertex 40.33284179016113 59.17181560349679 6.35
    endloop
  endfacet
  facet normal -0.1950903220161279 0.9807852804032307 0
    outer loop
      vertex 40.33284179016113 59.17181560349679 6.35
      vertex 40.33284179016113 59.17181560349679 7.1499999999999995
      vertex 40.659988565011425 59.23688914296288 6.35
    endloop
  endfacet
  facet normal 0.3214394653031608 0.9469301294951058 0
    outer loop
      vertex 39.02415724746902 59.344107192096224 6.35
      vertex 39.02415724746902 59.344107192096224 7.1499999999999995
      vertex 39.340011434988575 59.23688914296288 6.35
    endloop
  endfacet
  facet normal -0.3214394653031608 0.9469301294951058 0
    outer loop
      vertex 40.659988565011425 59.23688914296288 6.35
      vertex 40.659988565011425 59.23688914296288 7.1499999999999995
      vertex 40.97584275253098 59.344107192096224 6.35
    endloop
  endfacet
  facet normal 0.44228869021900064 0.8968727415326887 0
    outer loop
      vertex 39.02415724746902 59.344107192096224 6.35
      vertex 38.725 59.491635220349686 6.35
      vertex 38.725 59.491635220349686 7.1499999999999995
    endloop
  endfacet
  facet normal 0.555570233019587 0.8314696123025553 0
    outer loop
      vertex 38.44765835602776 59.67694898225735 6.35
      vertex 38.44765835602776 59.67694898225735 7.1499999999999995
      vertex 38.725 59.491635220349686 6.35
    endloop
  endfacet
  facet normal -0.44228869021900064 0.8968727415326887 0
    outer loop
      vertex 40.97584275253098 59.344107192096224 6.35
      vertex 40.97584275253098 59.344107192096224 7.1499999999999995
      vertex 41.275 59.491635220349686 6.35
    endloop
  endfacet
  facet normal -0.555570233019587 0.8314696123025553 0
    outer loop
      vertex 41.275 59.491635220349686 6.35
      vertex 41.275 59.491635220349686 7.1499999999999995
      vertex 41.55234164397224 59.67694898225735 6.35
    endloop
  endfacet
  facet normal -0.659345815100073 0.7518398074789738 0
    outer loop
      vertex 41.55234164397224 59.67694898225735 6.35
      vertex 41.55234164397224 59.67694898225735 7.1499999999999995
      vertex 41.8031222920257 59.896877707974305 6.35
    endloop
  endfacet
  facet normal 0.1950903220161279 0.9807852804032307 0
    outer loop
      vertex 39.66715820983887 59.17181560349679 6.35
      vertex 39.340011434988575 59.23688914296288 7.1499999999999995
      vertex 39.66715820983887 59.17181560349679 7.1499999999999995
    endloop
  endfacet
  facet normal 0.06540312923014246 0.9978589232386036 0
    outer loop
      vertex 40 59.150000000000006 6.35
      vertex 39.66715820983887 59.17181560349679 7.1499999999999995
      vertex 40 59.150000000000006 7.1499999999999995
    endloop
  endfacet
  facet normal -0.06540312923014246 0.9978589232386036 0
    outer loop
      vertex 40.33284179016113 59.17181560349679 6.35
      vertex 40 59.150000000000006 7.1499999999999995
      vertex 40.33284179016113 59.17181560349679 7.1499999999999995
    endloop
  endfacet
  facet normal -0.1950903220161279 0.9807852804032307 0
    outer loop
      vertex 40.659988565011425 59.23688914296288 6.35
      vertex 40.33284179016113 59.17181560349679 7.1499999999999995
      vertex 40.659988565011425 59.23688914296288 7.1499999999999995
    endloop
  endfacet
  facet normal 0.3214394653031608 0.9469301294951058 0
    outer loop
      vertex 39.340011434988575 59.23688914296288 6.35
      vertex 39.02415724746902 59.344107192096224 7.1499999999999995
      vertex 39.340011434988575 59.23688914296288 7.1499999999999995
    endloop
  endfacet
  facet normal 0.44228869021900064 0.8968727415326887 0
    outer loop
      vertex 39.02415724746902 59.344107192096224 6.35
      vertex 38.725 59.491635220349686 7.1499999999999995
      vertex 39.02415724746902 59.344107192096224 7.1499999999999995
    endloop
  endfacet
  facet normal -0.3214394653031608 0.9469301294951058 0
    outer loop
      vertex 40.97584275253098 59.344107192096224 6.35
      vertex 40.659988565011425 59.23688914296288 7.1499999999999995
      vertex 40.97584275253098 59.344107192096224 7.1499999999999995
    endloop
  endfacet
  facet normal 0.659345815100073 0.7518398074789738 0
    outer loop
      vertex 38.44765835602776 59.67694898225735 6.35
      vertex 38.1968777079743 59.896877707974305 7.1499999999999995
      vertex 38.44765835602776 59.67694898225735 7.1499999999999995
    endloop
  endfacet
  facet normal 0.555570233019587 0.8314696123025553 0
    outer loop
      vertex 38.725 59.491635220349686 6.35
      vertex 38.44765835602776 59.67694898225735 7.1499999999999995
      vertex 38.725 59.491635220349686 7.1499999999999995
    endloop
  endfacet
  facet normal -0.44228869021900064 0.8968727415326887 0
    outer loop
      vertex 41.275 59.491635220349686 6.35
      vertex 40.97584275253098 59.344107192096224 7.1499999999999995
      vertex 41.275 59.491635220349686 7.1499999999999995
    endloop
  endfacet
  facet normal -0.555570233019587 0.8314696123025553 0
    outer loop
      vertex 41.55234164397224 59.67694898225735 6.35
      vertex 41.275 59.491635220349686 7.1499999999999995
      vertex 41.55234164397224 59.67694898225735 7.1499999999999995
    endloop
  endfacet
  facet normal 0.659345815100073 0.7518398074789738 0
    outer loop
      vertex 38.1968777079743 59.896877707974305 6.35
      vertex 38.1968777079743 59.896877707974305 7.1499999999999995
      vertex 38.44765835602776 59.67694898225735 6.35
    endloop
  endfacet
  facet normal 0.7518398074789738 0.659345815100073 0
    outer loop
      vertex 37.97694898225735 60.14765835602776 6.35
      vertex 37.97694898225735 60.14765835602776 7.1499999999999995
      vertex 38.1968777079743 59.896877707974305 6.35
    endloop
  endfacet
  facet normal 0.8314696123025553 0.555570233019587 0
    outer loop
      vertex 37.97694898225735 60.14765835602776 6.35
      vertex 37.79163522034968 60.425000000000004 6.35
      vertex 37.79163522034968 60.425000000000004 7.1499999999999995
    endloop
  endfacet
  facet normal 0.8968727415326887 0.44228869021900064 0
    outer loop
      vertex 37.64410719209622 60.72415724746902 6.35
      vertex 37.64410719209622 60.72415724746902 7.1499999999999995
      vertex 37.79163522034968 60.425000000000004 6.35
    endloop
  endfacet
  facet normal 0.9469301294951058 0.3214394653031608 0
    outer loop
      vertex 37.64410719209622 60.72415724746902 6.35
      vertex 37.53688914296288 61.04001143498858 6.35
      vertex 37.53688914296288 61.04001143498858 7.1499999999999995
    endloop
  endfacet
  facet normal 0.9807852804032325 0.19509032201611715 0
    outer loop
      vertex 37.504070876905885 61.205 6.35
      vertex 37.53688914296288 61.04001143498858 7.1499999999999995
      vertex 37.53688914296288 61.04001143498858 6.35
    endloop
  endfacet
  facet normal -0.7518398074789738 0.659345815100073 0
    outer loop
      vertex 41.8031222920257 59.896877707974305 6.35
      vertex 41.8031222920257 59.896877707974305 7.1499999999999995
      vertex 42.02305101774265 60.14765835602776 6.35
    endloop
  endfacet
  facet normal -0.8314696123025553 0.555570233019587 0
    outer loop
      vertex 42.02305101774265 60.14765835602776 6.35
      vertex 42.02305101774265 60.14765835602776 7.1499999999999995
      vertex 42.20836477965032 60.425000000000004 6.35
    endloop
  endfacet
  facet normal -0.8968727415326887 0.44228869021900064 0
    outer loop
      vertex 42.20836477965032 60.425000000000004 6.35
      vertex 42.20836477965032 60.425000000000004 7.1499999999999995
      vertex 42.35589280790378 60.72415724746902 6.35
    endloop
  endfacet
  facet normal -0.9469301294951058 0.3214394653031608 0
    outer loop
      vertex 42.35589280790378 60.72415724746902 6.35
      vertex 42.35589280790378 60.72415724746902 7.1499999999999995
      vertex 42.46311085703712 61.04001143498858 6.35
    endloop
  endfacet
  facet normal -0.9807852804032325 0.19509032201611715 0
    outer loop
      vertex 42.46311085703712 61.04001143498858 6.35
      vertex 42.495929123094115 61.205 7.1499999999999995
      vertex 42.495929123094115 61.205 6.35
    endloop
  endfacet
  facet normal 0.7518398074789738 0.659345815100073 0
    outer loop
      vertex 38.1968777079743 59.896877707974305 6.35
      vertex 37.97694898225735 60.14765835602776 7.1499999999999995
      vertex 38.1968777079743 59.896877707974305 7.1499999999999995
    endloop
  endfacet
  facet normal 0.8314696123025553 0.555570233019587 0
    outer loop
      vertex 37.97694898225735 60.14765835602776 6.35
      vertex 37.79163522034968 60.425000000000004 7.1499999999999995
      vertex 37.97694898225735 60.14765835602776 7.1499999999999995
    endloop
  endfacet
  facet normal 0.8968727415326887 0.44228869021900064 0
    outer loop
      vertex 37.79163522034968 60.425000000000004 6.35
      vertex 37.64410719209622 60.72415724746902 7.1499999999999995
      vertex 37.79163522034968 60.425000000000004 7.1499999999999995
    endloop
  endfacet
  facet normal 0.9469301294951058 0.3214394653031608 0
    outer loop
      vertex 37.64410719209622 60.72415724746902 6.35
      vertex 37.53688914296288 61.04001143498858 7.1499999999999995
      vertex 37.64410719209622 60.72415724746902 7.1499999999999995
    endloop
  endfacet
  facet normal 0.9807852804032325 0.19509032201611715 0
    outer loop
      vertex 37.504070876905885 61.205 6.35
      vertex 37.504070876905885 61.205 7.1499999999999995
      vertex 37.53688914296288 61.04001143498858 7.1499999999999995
    endloop
  endfacet
  facet normal -0.659345815100073 0.7518398074789738 0
    outer loop
      vertex 41.8031222920257 59.896877707974305 6.35
      vertex 41.55234164397224 59.67694898225735 7.1499999999999995
      vertex 41.8031222920257 59.896877707974305 7.1499999999999995
    endloop
  endfacet
  facet normal -0.7518398074789738 0.659345815100073 0
    outer loop
      vertex 42.02305101774265 60.14765835602776 6.35
      vertex 41.8031222920257 59.896877707974305 7.1499999999999995
      vertex 42.02305101774265 60.14765835602776 7.1499999999999995
    endloop
  endfacet
  facet normal -0.8314696123025553 0.555570233019587 0
    outer loop
      vertex 42.20836477965032 60.425000000000004 6.35
      vertex 42.02305101774265 60.14765835602776 7.1499999999999995
      vertex 42.20836477965032 60.425000000000004 7.1499999999999995
    endloop
  endfacet
  facet normal -0.8968727415326887 0.44228869021900064 0
    outer loop
      vertex 42.35589280790378 60.72415724746902 6.35
      vertex 42.20836477965032 60.425000000000004 7.1499999999999995
      vertex 42.35589280790378 60.72415724746902 7.1499999999999995
    endloop
  endfacet
  facet normal -0.9469301294951058 0.3214394653031608 0
    outer loop
      vertex 42.46311085703712 61.04001143498858 6.35
      vertex 42.35589280790378 60.72415724746902 7.1499999999999995
      vertex 42.46311085703712 61.04001143498858 7.1499999999999995
    endloop
  endfacet
  facet normal -0.9807852804032325 0.19509032201611715 0
    outer loop
      vertex 42.46311085703712 61.04001143498858 6.35
      vertex 42.46311085703712 61.04001143498858 7.1499999999999995
      vertex 42.495929123094115 61.205 7.1499999999999995
    endloop
  endfacet
  facet normal 0 0 -1
    outer loop
      vertex 36.268181818181795 58.335 6.35
      vertex 39.340011434988575 59.23688914296288 6.35
      vertex 39.66715820983887 59.17181560349679 6.35
    endloop
  endfacet
  facet normal 0 0 -1
    outer loop
      vertex 36.268181818181795 58.335 6.35
      vertex 39.02415724746902 59.344107192096224 6.35
      vertex 39.340011434988575 59.23688914296288 6.35
    endloop
  endfacet
  facet normal 0 0 -1
    outer loop
      vertex 36.268181818181795 58.335 6.35
      vertex 39.66715820983887 59.17181560349679 6.35
      vertex 40 59.150000000000006 6.35
    endloop
  endfacet
  facet normal 0 0 -1
    outer loop
      vertex 36.268181818181795 58.335 6.35
      vertex 40 59.150000000000006 6.35
      vertex 40.33284179016113 59.17181560349679 6.35
    endloop
  endfacet
  facet normal 0 0 -1
    outer loop
      vertex 36.268181818181795 58.335 6.35
      vertex 40.33284179016113 59.17181560349679 6.35
      vertex 40.659988565011425 59.23688914296288 6.35
    endloop
  endfacet
  facet normal 0 0 -1
    outer loop
      vertex 30.5 58.335 6.35
      vertex 30.5 61.205 6.35
      vertex 36.268181818181795 58.335 6.35
    endloop
  endfacet
  facet normal 0 0 -1
    outer loop
      vertex 36.268181818181795 58.335 6.35
      vertex 38.725 59.491635220349686 6.35
      vertex 39.02415724746902 59.344107192096224 6.35
    endloop
  endfacet
  facet normal 0 0 -1
    outer loop
      vertex 36.268181818181795 58.335 6.35
      vertex 38.44765835602776 59.67694898225735 6.35
      vertex 38.725 59.491635220349686 6.35
    endloop
  endfacet
  facet normal 0 0 -1
    outer loop
      vertex 36.268181818181795 58.335 6.35
      vertex 38.1968777079743 59.896877707974305 6.35
      vertex 38.44765835602776 59.67694898225735 6.35
    endloop
  endfacet
  facet normal 0 0 -1
    outer loop
      vertex 36.268181818181795 58.335 6.35
      vertex 37.97694898225735 60.14765835602776 6.35
      vertex 38.1968777079743 59.896877707974305 6.35
    endloop
  endfacet
  facet normal 0 0 -1
    outer loop
      vertex 36.268181818181795 58.335 6.35
      vertex 37.79163522034968 60.425000000000004 6.35
      vertex 37.97694898225735 60.14765835602776 6.35
    endloop
  endfacet
  facet normal 0 0 -1
    outer loop
      vertex 36.268181818181795 58.335 6.35
      vertex 40.659988565011425 59.23688914296288 6.35
      vertex 72.8 58.335 6.35
    endloop
  endfacet
  facet normal 0 0 -1
    outer loop
      vertex 40.659988565011425 59.23688914296288 6.35
      vertex 40.97584275253098 59.344107192096224 6.35
      vertex 72.8 58.335 6.35
    endloop
  endfacet
  facet normal 0 0 1
    outer loop
      vertex 30.5 58.335 7.1499999999999995
      vertex 40 59.150000000000006 7.1499999999999995
      vertex 39.66715820983887 59.17181560349679 7.1499999999999995
    endloop
  endfacet
  facet normal 0 0 1
    outer loop
      vertex 30.5 58.335 7.1499999999999995
      vertex 39.66715820983887 59.17181560349679 7.1499999999999995
      vertex 39.340011434988575 59.23688914296288 7.1499999999999995
    endloop
  endfacet
  facet normal 0 0 1
    outer loop
      vertex 30.5 58.335 7.1499999999999995
      vertex 40.33284179016113 59.17181560349679 7.1499999999999995
      vertex 40 59.150000000000006 7.1499999999999995
    endloop
  endfacet
  facet normal 0 0 1
    outer loop
      vertex 30.5 58.335 7.1499999999999995
      vertex 39.340011434988575 59.23688914296288 7.1499999999999995
      vertex 39.02415724746902 59.344107192096224 7.1499999999999995
    endloop
  endfacet
  facet normal 0 0 1
    outer loop
      vertex 30.5 58.335 7.1499999999999995
      vertex 38.44765835602776 59.67694898225735 7.1499999999999995
      vertex 38.1968777079743 59.896877707974305 7.1499999999999995
    endloop
  endfacet
  facet normal 0 0 1
    outer loop
      vertex 30.5 58.335 7.1499999999999995
      vertex 38.1968777079743 59.896877707974305 7.1499999999999995
      vertex 37.97694898225735 60.14765835602776 7.1499999999999995
    endloop
  endfacet
  facet normal 0 0 1
    outer loop
      vertex 30.5 58.335 7.1499999999999995
      vertex 37.97694898225735 60.14765835602776 7.1499999999999995
      vertex 37.79163522034968 60.425000000000004 7.1499999999999995
    endloop
  endfacet
  facet normal 0 0 1
    outer loop
      vertex 30.5 58.335 7.1499999999999995
      vertex 39.02415724746902 59.344107192096224 7.1499999999999995
      vertex 38.725 59.491635220349686 7.1499999999999995
    endloop
  endfacet
  facet normal 0 0 1
    outer loop
      vertex 30.5 58.335 7.1499999999999995
      vertex 38.725 59.491635220349686 7.1499999999999995
      vertex 38.44765835602776 59.67694898225735 7.1499999999999995
    endloop
  endfacet
  facet normal 0 0 1
    outer loop
      vertex 30.5 58.335 7.1499999999999995
      vertex 72.8 58.335 7.1499999999999995
      vertex 40.33284179016113 59.17181560349679 7.1499999999999995
    endloop
  endfacet
  facet normal 0 0 1
    outer loop
      vertex 40.33284179016113 59.17181560349679 7.1499999999999995
      vertex 72.8 58.335 7.1499999999999995
      vertex 40.659988565011425 59.23688914296288 7.1499999999999995
    endloop
  endfacet
  facet normal 0 0 1
    outer loop
      vertex 40.659988565011425 59.23688914296288 7.1499999999999995
      vertex 72.8 58.335 7.1499999999999995
      vertex 40.97584275253098 59.344107192096224 7.1499999999999995
    endloop
  endfacet
  facet normal 0 0 -1
    outer loop
      vertex 30.5 61.205 6.35
      vertex 37.64410719209622 60.72415724746902 6.35
      vertex 36.268181818181795 58.335 6.35
    endloop
  endfacet
  facet normal 0 0 -1
    outer loop
      vertex 36.268181818181795 58.335 6.35
      vertex 37.64410719209622 60.72415724746902 6.35
      vertex 37.79163522034968 60.425000000000004 6.35
    endloop
  endfacet
  facet normal 0 0 -1
    outer loop
      vertex 30.5 61.205 6.35
      vertex 37.53688914296288 61.04001143498858 6.35
      vertex 37.64410719209622 60.72415724746902 6.35
    endloop
  endfacet
  facet normal 0 0 -1
    outer loop
      vertex 30.5 61.205 6.35
      vertex 37.504070876905885 61.205 6.35
      vertex 37.53688914296288 61.04001143498858 6.35
    endloop
  endfacet
  facet normal 0 1 0
    outer loop
      vertex 30.5 61.205 6.35
      vertex 30.5 61.205 7.1499999999999995
      vertex 37.504070876905885 61.205 6.35
    endloop
  endfacet
  facet normal 0 0 1
    outer loop
      vertex 30.5 58.335 7.1499999999999995
      vertex 37.79163522034968 60.425000000000004 7.1499999999999995
      vertex 37.64410719209622 60.72415724746902 7.1499999999999995
    endloop
  endfacet
  facet normal 0 0 1
    outer loop
      vertex 30.5 58.335 7.1499999999999995
      vertex 37.64410719209622 60.72415724746902 7.1499999999999995
      vertex 37.53688914296288 61.04001143498858 7.1499999999999995
    endloop
  endfacet
  facet normal 0 0 1
    outer loop
      vertex 30.5 58.335 7.1499999999999995
      vertex 37.504070876905885 61.205 7.1499999999999995
      vertex 30.5 61.205 7.1499999999999995
    endloop
  endfacet
  facet normal 0 0 1
    outer loop
      vertex 30.5 58.335 7.1499999999999995
      vertex 37.53688914296288 61.04001143498858 7.1499999999999995
      vertex 37.504070876905885 61.205 7.1499999999999995
    endloop
  endfacet
  facet normal 0 1 0
    outer loop
      vertex 37.504070876905885 61.205 6.35
      vertex 30.5 61.205 7.1499999999999995
      vertex 37.504070876905885 61.205 7.1499999999999995
    endloop
  endfacet
  facet normal 0 0 -1
    outer loop
      vertex 40.97584275253098 59.344107192096224 6.35
      vertex 41.275 59.491635220349686 6.35
      vertex 72.8 58.335 6.35
    endloop
  endfacet
  facet normal 0 0 -1
    outer loop
      vertex 41.275 59.491635220349686 6.35
      vertex 41.55234164397224 59.67694898225735 6.35
      vertex 72.8 58.335 6.35
    endloop
  endfacet
  facet normal 0 0 -1
    outer loop
      vertex 41.55234164397224 59.67694898225735 6.35
      vertex 41.8031222920257 59.896877707974305 6.35
      vertex 72.8 58.335 6.35
    endloop
  endfacet
  facet normal 0 0 -1
    outer loop
      vertex 41.8031222920257 59.896877707974305 6.35
      vertex 42.02305101774265 60.14765835602776 6.35
      vertex 72.8 58.335 6.35
    endloop
  endfacet
  facet normal 0 0 -1
    outer loop
      vertex 42.02305101774265 60.14765835602776 6.35
      vertex 42.20836477965032 60.425000000000004 6.35
      vertex 72.8 58.335 6.35
    endloop
  endfacet
  facet normal 0 0 1
    outer loop
      vertex 40.97584275253098 59.344107192096224 7.1499999999999995
      vertex 72.8 58.335 7.1499999999999995
      vertex 41.275 59.491635220349686 7.1499999999999995
    endloop
  endfacet
  facet normal 0 0 1
    outer loop
      vertex 41.275 59.491635220349686 7.1499999999999995
      vertex 72.8 58.335 7.1499999999999995
      vertex 41.55234164397224 59.67694898225735 7.1499999999999995
    endloop
  endfacet
  facet normal 0 0 1
    outer loop
      vertex 41.55234164397224 59.67694898225735 7.1499999999999995
      vertex 72.8 58.335 7.1499999999999995
      vertex 41.8031222920257 59.896877707974305 7.1499999999999995
    endloop
  endfacet
  facet normal 0 0 1
    outer loop
      vertex 41.8031222920257 59.896877707974305 7.1499999999999995
      vertex 72.8 58.335 7.1499999999999995
      vertex 42.02305101774265 60.14765835602776 7.1499999999999995
    endloop
  endfacet
  facet normal 0 0 1
    outer loop
      vertex 42.02305101774265 60.14765835602776 7.1499999999999995
      vertex 72.8 58.335 7.1499999999999995
      vertex 42.20836477965032 60.425000000000004 7.1499999999999995
    endloop
  endfacet
  facet normal 0 0 -1
    outer loop
      vertex 42.20836477965032 60.425000000000004 6.35
      vertex 42.35589280790378 60.72415724746902 6.35
      vertex 72.8 58.335 6.35
    endloop
  endfacet
  facet normal 0 0 -1
    outer loop
      vertex 42.35589280790378 60.72415724746902 6.35
      vertex 42.46311085703712 61.04001143498858 6.35
      vertex 72.8 58.335 6.35
    endloop
  endfacet
  facet normal 0 0 -1
    outer loop
      vertex 42.46311085703712 61.04001143498858 6.35
      vertex 42.495929123094115 61.205 6.35
      vertex 72.8 58.335 6.35
    endloop
  endfacet
  facet normal 0 1 0
    outer loop
      vertex 42.495929123094115 61.205 6.35
      vertex 42.495929123094115 61.205 7.1499999999999995
      vertex 72.8 61.205 6.35
    endloop
  endfacet
  facet normal 0 0 -1
    outer loop
      vertex 42.495929123094115 61.205 6.35
      vertex 72.8 61.205 6.35
      vertex 72.8 58.335 6.35
    endloop
  endfacet
  facet normal 0 0 1
    outer loop
      vertex 42.20836477965032 60.425000000000004 7.1499999999999995
      vertex 72.8 58.335 7.1499999999999995
      vertex 42.35589280790378 60.72415724746902 7.1499999999999995
    endloop
  endfacet
  facet normal 0 0 1
    outer loop
      vertex 42.35589280790378 60.72415724746902 7.1499999999999995
      vertex 72.8 58.335 7.1499999999999995
      vertex 42.46311085703712 61.04001143498858 7.1499999999999995
    endloop
  endfacet
  facet normal 0 0 1
    outer loop
      vertex 42.46311085703712 61.04001143498858 7.1499999999999995
      vertex 72.8 58.335 7.1499999999999995
      vertex 42.495929123094115 61.205 7.1499999999999995
    endloop
  endfacet
  facet normal 0 0 1
    outer loop
      vertex 42.495929123094115 61.205 7.1499999999999995
      vertex 72.8 58.335 7.1499999999999995
      vertex 72.8 61.205 7.1499999999999995
    endloop
  endfacet
  facet normal 0 1 0
    outer loop
      vertex 42.495929123094115 61.205 7.1499999999999995
      vertex 72.8 61.205 7.1499999999999995
      vertex 72.8 61.205 6.35
    endloop
  endfacet
  facet normal 0 -1 0
    outer loop
      vertex 30.5 58.335 6.35
      vertex 36.268181818181795 58.335 6.35
      vertex 30.5 58.335 7.1499999999999995
    endloop
  endfacet
  facet normal 0 -1 0
    outer loop
      vertex 36.268181818181795 58.335 6.35
      vertex 72.8 58.335 7.1499999999999995
      vertex 30.5 58.335 7.1499999999999995
    endloop
  endfacet
  facet normal 0 -1 0
    outer loop
      vertex 36.268181818181795 58.335 6.35
      vertex 72.8 58.335 6.35
      vertex 72.8 58.335 7.1499999999999995
    endloop
  endfacet
  facet normal 1 0 0
    outer loop
      vertex 72.8 58.335 6.35
      vertex 72.8 61.205 7.1499999999999995
      vertex 72.8 58.335 7.1499999999999995
    endloop
  endfacet
  facet normal 1 0 0
    outer loop
      vertex 72.8 58.335 6.35
      vertex 72.8 61.205 6.35
      vertex 72.8 61.205 7.1499999999999995
    endloop
  endfacet
  facet normal -1 0 0
    outer loop
      vertex 30.5 58.335 6.35
      vertex 30.5 58.335 7.1499999999999995
      vertex 30.5 61.205 6.35
    endloop
  endfacet
  facet normal -1 0 0
    outer loop
      vertex 30.5 61.205 6.35
      vertex 30.5 58.335 7.1499999999999995
      vertex 30.5 61.205 7.1499999999999995
    endloop
  endfacet
endsolid OpenSCAD_Model
