solid OpenSCAD_Model
  facet normal 0.19509030759446713 0 -0.9807852832718771
    outer loop
      vertex 99.67078928500413 -39.25 6.227832708656788
      vertex 99.67078928500413 -26.75 6.227832708656788
      vertex 99.86322856545448 -39.25 6.266111258566379
    endloop
  endfacet
  facet normal 0.19509030759446713 0 -0.9807852832718771
    outer loop
      vertex 99.67078928500413 -26.75 6.227832708656788
      vertex 99.86322856545448 -26.75 6.266111258566379
      vertex 99.86322856545448 -39.25 6.266111258566379
    endloop
  endfacet
  facet normal 0.3214394637077385 0 -0.9469301300366789
    outer loop
      vertex 99.86322856545448 -39.25 6.266111258566379
      vertex 99.86322856545448 -26.75 6.266111258566379
      vertex 100.04902514666318 -39.25 6.329180698990822
    endloop
  endfacet
  facet normal 0.3214394637077385 0 -0.9469301300366789
    outer loop
      vertex 99.86322856545448 -26.75 6.266111258566379
      vertex 100.04902514666318 -26.75 6.329180698990822
      vertex 100.04902514666318 -39.25 6.329180698990822
    endloop
  endfacet
  facet normal 0.4422886995523108 0 -0.8968727369300094
    outer loop
      vertex 100.04902514666318 -39.25 6.329180698990822
      vertex 100.04902514666318 -26.75 6.329180698990822
      vertex 100.225 -39.25 6.415961895287037
    endloop
  endfacet
  facet normal 0.4422886995523108 0 -0.8968727369300094
    outer loop
      vertex 100.04902514666318 -26.75 6.329180698990822
      vertex 100.225 -26.75 6.415961895287037
      vertex 100.225 -39.25 6.415961895287037
    endloop
  endfacet
  facet normal 0.5555702335092735 0 -0.8314696119753574
    outer loop
      vertex 100.225 -39.25 6.415961895287037
      vertex 100.225 -26.75 6.415961895287037
      vertex 100.38814214468002 -39.25 6.524969991445541
    endloop
  endfacet
  facet normal 0.5555702335092735 0 -0.8314696119753574
    outer loop
      vertex 100.225 -26.75 6.415961895287037
      vertex 100.38814214468002 -26.75 6.524969991445541
      vertex 100.38814214468002 -39.25 6.524969991445541
    endloop
  endfacet
  facet normal 0.6593458302062577 0 -0.7518397942312052
    outer loop
      vertex 100.38814214468002 -39.25 6.524969991445541
      vertex 100.38814214468002 -26.75 6.524969991445541
      vertex 100.53566016852855 -39.25 6.654339831471443
    endloop
  endfacet
  facet normal 0.6593458302062577 0 -0.7518397942312052
    outer loop
      vertex 100.38814214468002 -26.75 6.524969991445541
      vertex 100.53566016852855 -26.75 6.654339831471443
      vertex 100.53566016852855 -39.25 6.654339831471443
    endloop
  endfacet
  facet normal 0.7518397942312052 0 -0.6593458302062577
    outer loop
      vertex 100.53566016852855 -39.25 6.654339831471443
      vertex 100.53566016852855 -26.75 6.654339831471443
      vertex 100.66503000855445 -39.25 6.801857855319977
    endloop
  endfacet
  facet normal 0.7518397942312052 0 -0.6593458302062577
    outer loop
      vertex 100.53566016852855 -26.75 6.654339831471443
      vertex 100.66503000855445 -26.75 6.801857855319977
      vertex 100.66503000855445 -39.25 6.801857855319977
    endloop
  endfacet
  facet normal 0.8314696119753574 0 -0.5555702335092735
    outer loop
      vertex 100.66503000855445 -39.25 6.801857855319977
      vertex 100.66503000855445 -26.75 6.801857855319977
      vertex 100.77403810471296 -39.25 6.965
    endloop
  endfacet
  facet normal 0.8314696119753574 0 -0.5555702335092735
    outer loop
      vertex 100.66503000855445 -26.75 6.801857855319977
      vertex 100.77403810471296 -26.75 6.965
      vertex 100.77403810471296 -39.25 6.965
    endloop
  endfacet
  facet normal 0.8968727369300094 0 -0.4422886995523108
    outer loop
      vertex 100.77403810471296 -39.25 6.965
      vertex 100.77403810471296 -26.75 6.965
      vertex 100.86081930100917 -39.25 7.140974853336811
    endloop
  endfacet
  facet normal 0.8968727369300094 0 -0.4422886995523108
    outer loop
      vertex 100.77403810471296 -26.75 6.965
      vertex 100.86081930100917 -26.75 7.140974853336811
      vertex 100.86081930100917 -39.25 7.140974853336811
    endloop
  endfacet
  facet normal 0.9469301300366789 0 -0.3214394637077385
    outer loop
      vertex 100.86081930100917 -39.25 7.140974853336811
      vertex 100.86081930100917 -26.75 7.140974853336811
      vertex 100.92388874143361 -39.25 7.326771434545517
    endloop
  endfacet
  facet normal 0.9469301300366789 0 -0.3214394637077385
    outer loop
      vertex 100.86081930100917 -26.75 7.140974853336811
      vertex 100.92388874143361 -26.75 7.326771434545517
      vertex 100.92388874143361 -39.25 7.326771434545517
    endloop
  endfacet
  facet normal 0.9807852832718771 0 -0.19509030759446713
    outer loop
      vertex 100.92388874143361 -39.25 7.326771434545517
      vertex 100.92388874143361 -26.75 7.326771434545517
      vertex 100.9621672913432 -39.25 7.519210714995861
    endloop
  endfacet
  facet normal 0.9807852832718771 0 -0.19509030759446713
    outer loop
      vertex 100.92388874143361 -26.75 7.326771434545517
      vertex 100.9621672913432 -26.75 7.519210714995861
      vertex 100.9621672913432 -39.25 7.519210714995861
    endloop
  endfacet
  facet normal 0.9978589229274387 0 -0.06540313397759875
    outer loop
      vertex 100.9621672913432 -39.25 7.519210714995861
      vertex 100.9621672913432 -26.75 7.519210714995861
      vertex 100.975 -39.25 7.715
    endloop
  endfacet
  facet normal 0.9978589229274387 0 -0.06540313397759875
    outer loop
      vertex 100.9621672913432 -26.75 7.519210714995861
      vertex 100.975 -26.75 7.715
      vertex 100.975 -39.25 7.715
    endloop
  endfacet
  facet normal 0.9978589229274387 0 0.06540313397759875
    outer loop
      vertex 100.975 -39.25 7.715
      vertex 100.975 -26.75 7.715
      vertex 100.9621672913432 -39.25 7.910789285004139
    endloop
  endfacet
  facet normal 0.9978589229274387 0 0.06540313397759875
    outer loop
      vertex 100.975 -26.75 7.715
      vertex 100.9621672913432 -26.75 7.910789285004139
      vertex 100.9621672913432 -39.25 7.910789285004139
    endloop
  endfacet
  facet normal 0.9807852832718771 0 0.19509030759446713
    outer loop
      vertex 100.9621672913432 -39.25 7.910789285004139
      vertex 100.9621672913432 -26.75 7.910789285004139
      vertex 100.92388874143361 -39.25 8.103228565454483
    endloop
  endfacet
  facet normal 0.9807852832718771 0 0.19509030759446713
    outer loop
      vertex 100.9621672913432 -26.75 7.910789285004139
      vertex 100.92388874143361 -26.75 8.103228565454483
      vertex 100.92388874143361 -39.25 8.103228565454483
    endloop
  endfacet
  facet normal 0.9469301300366789 0 0.3214394637077385
    outer loop
      vertex 100.92388874143361 -39.25 8.103228565454483
      vertex 100.92388874143361 -26.75 8.103228565454483
      vertex 100.86081930100917 -39.25 8.289025146663189
    endloop
  endfacet
  facet normal 0.9469301300366789 0 0.3214394637077385
    outer loop
      vertex 100.92388874143361 -26.75 8.103228565454483
      vertex 100.86081930100917 -26.75 8.289025146663189
      vertex 100.86081930100917 -39.25 8.289025146663189
    endloop
  endfacet
  facet normal 0.8968727369300094 0 0.4422886995523108
    outer loop
      vertex 100.86081930100917 -39.25 8.289025146663189
      vertex 100.86081930100917 -26.75 8.289025146663189
      vertex 100.77403810471296 -39.25 8.465
    endloop
  endfacet
  facet normal 0.8968727369300094 0 0.4422886995523108
    outer loop
      vertex 100.86081930100917 -26.75 8.289025146663189
      vertex 100.77403810471296 -26.75 8.465
      vertex 100.77403810471296 -39.25 8.465
    endloop
  endfacet
  facet normal 0.8314696119753574 0 0.5555702335092735
    outer loop
      vertex 100.77403810471296 -39.25 8.465
      vertex 100.77403810471296 -26.75 8.465
      vertex 100.66503000855445 -39.25 8.628142144680023
    endloop
  endfacet
  facet normal 0.8314696119753574 0 0.5555702335092735
    outer loop
      vertex 100.77403810471296 -26.75 8.465
      vertex 100.66503000855445 -26.75 8.628142144680023
      vertex 100.66503000855445 -39.25 8.628142144680023
    endloop
  endfacet
  facet normal 0.7518397942312052 0 0.6593458302062577
    outer loop
      vertex 100.66503000855445 -39.25 8.628142144680023
      vertex 100.66503000855445 -26.75 8.628142144680023
      vertex 100.53566016852855 -39.25 8.775660168528557
    endloop
  endfacet
  facet normal 0.7518397942312052 0 0.6593458302062577
    outer loop
      vertex 100.66503000855445 -26.75 8.628142144680023
      vertex 100.53566016852855 -26.75 8.775660168528557
      vertex 100.53566016852855 -39.25 8.775660168528557
    endloop
  endfacet
  facet normal 0.6593458302062577 0 0.7518397942312052
    outer loop
      vertex 100.53566016852855 -39.25 8.775660168528557
      vertex 100.53566016852855 -26.75 8.775660168528557
      vertex 100.38814214468002 -39.25 8.905030008554458
    endloop
  endfacet
  facet normal 0.6593458302062577 0 0.7518397942312052
    outer loop
      vertex 100.53566016852855 -26.75 8.775660168528557
      vertex 100.38814214468002 -26.75 8.905030008554458
      vertex 100.38814214468002 -39.25 8.905030008554458
    endloop
  endfacet
  facet normal 0.5555702335092735 0 0.8314696119753574
    outer loop
      vertex 100.38814214468002 -39.25 8.905030008554458
      vertex 100.38814214468002 -26.75 8.905030008554458
      vertex 100.225 -39.25 9.014038104712963
    endloop
  endfacet
  facet normal 0.5555702335092735 0 0.8314696119753574
    outer loop
      vertex 100.38814214468002 -26.75 8.905030008554458
      vertex 100.225 -26.75 9.014038104712963
      vertex 100.225 -39.25 9.014038104712963
    endloop
  endfacet
  facet normal 0.4422886995523108 0 0.8968727369300094
    outer loop
      vertex 100.225 -39.25 9.014038104712963
      vertex 100.225 -26.75 9.014038104712963
      vertex 100.04902514666318 -39.25 9.100819301009178
    endloop
  endfacet
  facet normal 0.4422886995523108 0 0.8968727369300094
    outer loop
      vertex 100.225 -26.75 9.014038104712963
      vertex 100.04902514666318 -26.75 9.100819301009178
      vertex 100.04902514666318 -39.25 9.100819301009178
    endloop
  endfacet
  facet normal 0.3214394637077385 0 0.9469301300366789
    outer loop
      vertex 100.04902514666318 -39.25 9.100819301009178
      vertex 100.04902514666318 -26.75 9.100819301009178
      vertex 99.86322856545448 -39.25 9.16388874143362
    endloop
  endfacet
  facet normal 0.3214394637077385 0 0.9469301300366789
    outer loop
      vertex 100.04902514666318 -26.75 9.100819301009178
      vertex 99.86322856545448 -26.75 9.16388874143362
      vertex 99.86322856545448 -39.25 9.16388874143362
    endloop
  endfacet
  facet normal 0.19509030759446713 0 0.9807852832718771
    outer loop
      vertex 99.86322856545448 -39.25 9.16388874143362
      vertex 99.86322856545448 -26.75 9.16388874143362
      vertex 99.67078928500413 -39.25 9.202167291343212
    endloop
  endfacet
  facet normal 0.19509030759446713 0 0.9807852832718771
    outer loop
      vertex 99.86322856545448 -26.75 9.16388874143362
      vertex 99.67078928500413 -26.75 9.202167291343212
      vertex 99.67078928500413 -39.25 9.202167291343212
    endloop
  endfacet
  facet normal 0.06540313397759875 0 0.9978589229274387
    outer loop
      vertex 99.67078928500413 -39.25 9.202167291343212
      vertex 99.67078928500413 -26.75 9.202167291343212
      vertex 99.475 -39.25 9.215
    endloop
  endfacet
  facet normal 0.06540313397759875 0 0.9978589229274387
    outer loop
      vertex 99.67078928500413 -26.75 9.202167291343212
      vertex 99.475 -26.75 9.215
      vertex 99.475 -39.25 9.215
    endloop
  endfacet
  facet normal -1 0 0
    outer loop
      vertex 99.475 -39.25 9.215
      vertex 99.475 -26.75 9.215
      vertex 99.475 -39.25 6.215
    endloop
  endfacet
  facet normal -1 0 0
    outer loop
      vertex 99.475 -26.75 9.215
      vertex 99.475 -26.75 6.215
      vertex 99.475 -39.25 6.215
    endloop
  endfacet
  facet normal 0.06540313397759875 0 -0.9978589229274387
    outer loop
      vertex 99.475 -39.25 6.215
      vertex 99.475 -26.75 6.215
      vertex 99.67078928500413 -39.25 6.227832708656788
    endloop
  endfacet
  facet normal 0.06540313397759875 0 -0.9978589229274387
    outer loop
      vertex 99.475 -26.75 6.215
      vertex 99.67078928500413 -26.75 6.227832708656788
      vertex 99.67078928500413 -39.25 6.227832708656788
    endloop
  endfacet
  facet normal 0 1 0
    outer loop
      vertex 99.475 -26.75 6.215
      vertex 99.86322856545448 -26.75 6.266111258566379
      vertex 99.67078928500413 -26.75 6.227832708656788
    endloop
  endfacet
  facet normal 0 1 0
    outer loop
      vertex 99.475 -26.75 6.215
      vertex 99.475 -26.75 9.215
      vertex 99.86322856545448 -26.75 6.266111258566379
    endloop
  endfacet
  facet normal 0 1 0
    outer loop
      vertex 99.475 -26.75 9.215
      vertex 100.04902514666318 -26.75 6.329180698990822
      vertex 99.86322856545448 -26.75 6.266111258566379
    endloop
  endfacet
  facet normal 0 1 0
    outer loop
      vertex 99.475 -26.75 9.215
      vertex 99.67078928500413 -26.75 9.202167291343212
      vertex 100.04902514666318 -26.75 6.329180698990822
    endloop
  endfacet
  facet normal 0 1 0
    outer loop
      vertex 99.67078928500413 -26.75 9.202167291343212
      vertex 100.225 -26.75 6.415961895287037
      vertex 100.04902514666318 -26.75 6.329180698990822
    endloop
  endfacet
  facet normal 0 1 0
    outer loop
      vertex 99.67078928500413 -26.75 9.202167291343212
      vertex 99.86322856545448 -26.75 9.16388874143362
      vertex 100.225 -26.75 6.415961895287037
    endloop
  endfacet
  facet normal 0 1 0
    outer loop
      vertex 99.86322856545448 -26.75 9.16388874143362
      vertex 100.38814214468002 -26.75 6.524969991445541
      vertex 100.225 -26.75 6.415961895287037
    endloop
  endfacet
  facet normal 0 1 0
    outer loop
      vertex 99.86322856545448 -26.75 9.16388874143362
      vertex 100.04902514666318 -26.75 9.100819301009178
      vertex 100.38814214468002 -26.75 6.524969991445541
    endloop
  endfacet
  facet normal 0 1 0
    outer loop
      vertex 100.04902514666318 -26.75 9.100819301009178
      vertex 100.53566016852855 -26.75 6.654339831471443
      vertex 100.38814214468002 -26.75 6.524969991445541
    endloop
  endfacet
  facet normal 0 1 0
    outer loop
      vertex 100.04902514666318 -26.75 9.100819301009178
      vertex 100.225 -26.75 9.014038104712963
      vertex 100.53566016852855 -26.75 6.654339831471443
    endloop
  endfacet
  facet normal 0 1 0
    outer loop
      vertex 100.225 -26.75 9.014038104712963
      vertex 100.66503000855445 -26.75 6.801857855319977
      vertex 100.53566016852855 -26.75 6.654339831471443
    endloop
  endfacet
  facet normal 0 1 0
    outer loop
      vertex 100.225 -26.75 9.014038104712963
      vertex 100.38814214468002 -26.75 8.905030008554458
      vertex 100.66503000855445 -26.75 6.801857855319977
    endloop
  endfacet
  facet normal 0 1 0
    outer loop
      vertex 100.38814214468002 -26.75 8.905030008554458
      vertex 100.77403810471296 -26.75 6.965
      vertex 100.66503000855445 -26.75 6.801857855319977
    endloop
  endfacet
  facet normal 0 1 0
    outer loop
      vertex 100.38814214468002 -26.75 8.905030008554458
      vertex 100.53566016852855 -26.75 8.775660168528557
      vertex 100.77403810471296 -26.75 6.965
    endloop
  endfacet
  facet normal 0 1 0
    outer loop
      vertex 100.53566016852855 -26.75 8.775660168528557
      vertex 100.86081930100917 -26.75 7.140974853336811
      vertex 100.77403810471296 -26.75 6.965
    endloop
  endfacet
  facet normal 0 1 0
    outer loop
      vertex 100.53566016852855 -26.75 8.775660168528557
      vertex 100.66503000855445 -26.75 8.628142144680023
      vertex 100.86081930100917 -26.75 7.140974853336811
    endloop
  endfacet
  facet normal 0 1 0
    outer loop
      vertex 100.66503000855445 -26.75 8.628142144680023
      vertex 100.92388874143361 -26.75 7.326771434545517
      vertex 100.86081930100917 -26.75 7.140974853336811
    endloop
  endfacet
  facet normal 0 1 0
    outer loop
      vertex 100.66503000855445 -26.75 8.628142144680023
      vertex 100.77403810471296 -26.75 8.465
      vertex 100.92388874143361 -26.75 7.326771434545517
    endloop
  endfacet
  facet normal 0 1 0
    outer loop
      vertex 100.77403810471296 -26.75 8.465
      vertex 100.9621672913432 -26.75 7.519210714995861
      vertex 100.92388874143361 -26.75 7.326771434545517
    endloop
  endfacet
  facet normal 0 1 0
    outer loop
      vertex 100.77403810471296 -26.75 8.465
      vertex 100.86081930100917 -26.75 8.289025146663189
      vertex 100.9621672913432 -26.75 7.519210714995861
    endloop
  endfacet
  facet normal 0 1 0
    outer loop
      vertex 100.86081930100917 -26.75 8.289025146663189
      vertex 100.975 -26.75 7.715
      vertex 100.9621672913432 -26.75 7.519210714995861
    endloop
  endfacet
  facet normal 0 1 0
    outer loop
      vertex 100.86081930100917 -26.75 8.289025146663189
      vertex 100.92388874143361 -26.75 8.103228565454483
      vertex 100.975 -26.75 7.715
    endloop
  endfacet
  facet normal 0 1 0
    outer loop
      vertex 100.92388874143361 -26.75 8.103228565454483
      vertex 100.9621672913432 -26.75 7.910789285004139
      vertex 100.975 -26.75 7.715
    endloop
  endfacet
  facet normal 0 -1 0
    outer loop
      vertex 99.67078928500413 -39.25 6.227832708656788
      vertex 99.86322856545448 -39.25 6.266111258566379
      vertex 99.475 -39.25 6.215
    endloop
  endfacet
  facet normal 0 -1 0
    outer loop
      vertex 99.86322856545448 -39.25 6.266111258566379
      vertex 99.475 -39.25 9.215
      vertex 99.475 -39.25 6.215
    endloop
  endfacet
  facet normal 0 -1 0
    outer loop
      vertex 99.86322856545448 -39.25 6.266111258566379
      vertex 100.04902514666318 -39.25 6.329180698990822
      vertex 99.475 -39.25 9.215
    endloop
  endfacet
  facet normal 0 -1 0
    outer loop
      vertex 100.04902514666318 -39.25 6.329180698990822
      vertex 99.67078928500413 -39.25 9.202167291343212
      vertex 99.475 -39.25 9.215
    endloop
  endfacet
  facet normal 0 -1 0
    outer loop
      vertex 100.04902514666318 -39.25 6.329180698990822
      vertex 100.225 -39.25 6.415961895287037
      vertex 99.67078928500413 -39.25 9.202167291343212
    endloop
  endfacet
  facet normal 0 -1 0
    outer loop
      vertex 100.225 -39.25 6.415961895287037
      vertex 99.86322856545448 -39.25 9.16388874143362
      vertex 99.67078928500413 -39.25 9.202167291343212
    endloop
  endfacet
  facet normal 0 -1 0
    outer loop
      vertex 100.225 -39.25 6.415961895287037
      vertex 100.38814214468002 -39.25 6.524969991445541
      vertex 99.86322856545448 -39.25 9.16388874143362
    endloop
  endfacet
  facet normal 0 -1 0
    outer loop
      vertex 100.38814214468002 -39.25 6.524969991445541
      vertex 100.04902514666318 -39.25 9.100819301009178
      vertex 99.86322856545448 -39.25 9.16388874143362
    endloop
  endfacet
  facet normal 0 -1 0
    outer loop
      vertex 100.38814214468002 -39.25 6.524969991445541
      vertex 100.53566016852855 -39.25 6.654339831471443
      vertex 100.04902514666318 -39.25 9.100819301009178
    endloop
  endfacet
  facet normal 0 -1 0
    outer loop
      vertex 100.53566016852855 -39.25 6.654339831471443
      vertex 100.225 -39.25 9.014038104712963
      vertex 100.04902514666318 -39.25 9.100819301009178
    endloop
  endfacet
  facet normal 0 -1 0
    outer loop
      vertex 100.53566016852855 -39.25 6.654339831471443
      vertex 100.66503000855445 -39.25 6.801857855319977
      vertex 100.225 -39.25 9.014038104712963
    endloop
  endfacet
  facet normal 0 -1 0
    outer loop
      vertex 100.66503000855445 -39.25 6.801857855319977
      vertex 100.38814214468002 -39.25 8.905030008554458
      vertex 100.225 -39.25 9.014038104712963
    endloop
  endfacet
  facet normal 0 -1 0
    outer loop
      vertex 100.66503000855445 -39.25 6.801857855319977
      vertex 100.77403810471296 -39.25 6.965
      vertex 100.38814214468002 -39.25 8.905030008554458
    endloop
  endfacet
  facet normal 0 -1 0
    outer loop
      vertex 100.77403810471296 -39.25 6.965
      vertex 100.53566016852855 -39.25 8.775660168528557
      vertex 100.38814214468002 -39.25 8.905030008554458
    endloop
  endfacet
  facet normal 0 -1 0
    outer loop
      vertex 100.77403810471296 -39.25 6.965
      vertex 100.86081930100917 -39.25 7.140974853336811
      vertex 100.53566016852855 -39.25 8.775660168528557
    endloop
  endfacet
  facet normal 0 -1 0
    outer loop
      vertex 100.86081930100917 -39.25 7.140974853336811
      vertex 100.66503000855445 -39.25 8.628142144680023
      vertex 100.53566016852855 -39.25 8.775660168528557
    endloop
  endfacet
  facet normal 0 -1 0
    outer loop
      vertex 100.86081930100917 -39.25 7.140974853336811
      vertex 100.92388874143361 -39.25 7.326771434545517
      vertex 100.66503000855445 -39.25 8.628142144680023
    endloop
  endfacet
  facet normal 0 -1 0
    outer loop
      vertex 100.92388874143361 -39.25 7.326771434545517
      vertex 100.77403810471296 -39.25 8.465
      vertex 100.66503000855445 -39.25 8.628142144680023
    endloop
  endfacet
  facet normal 0 -1 0
    outer loop
      vertex 100.92388874143361 -39.25 7.326771434545517
      vertex 100.9621672913432 -39.25 7.519210714995861
      vertex 100.77403810471296 -39.25 8.465
    endloop
  endfacet
  facet normal 0 -1 0
    outer loop
      vertex 100.9621672913432 -39.25 7.519210714995861
      vertex 100.86081930100917 -39.25 8.289025146663189
      vertex 100.77403810471296 -39.25 8.465
    endloop
  endfacet
  facet normal 0 -1 0
    outer loop
      vertex 100.9621672913432 -39.25 7.519210714995861
      vertex 100.975 -39.25 7.715
      vertex 100.86081930100917 -39.25 8.289025146663189
    endloop
  endfacet
  facet normal 0 -1 0
    outer loop
      vertex 100.975 -39.25 7.715
      vertex 100.92388874143361 -39.25 8.103228565454483
      vertex 100.86081930100917 -39.25 8.289025146663189
    endloop
  endfacet
  facet normal 0 -1 0
    outer loop
      vertex 100.975 -39.25 7.715
      vertex 100.9621672913432 -39.25 7.910789285004139
      vertex 100.92388874143361 -39.25 8.103228565454483
    endloop
  endfacet
endsolid OpenSCAD_Model
