solid OpenSCAD_Model
  facet normal 0 -0.20785875578130592 0.9781588509260892
    outer loop
      vertex 0 0 2.350000001490116
      vertex 80 36 10
      vertex 0 36 10
    endloop
  endfacet
  facet normal 0 -0.20785875578130592 0.9781588509260892
    outer loop
      vertex 0 0 2.350000001490116
      vertex 80 0 2.350000001490116
      vertex 80 36 10
    endloop
  endfacet
  facet normal 0 -1 0
    outer loop
      vertex 0 0 0
      vertex 80 0 2.350000001490116
      vertex 0 0 2.350000001490116
    endloop
  endfacet
  facet normal 0 -1 0
    outer loop
      vertex 0 0 0
      vertex 80 0 0
      vertex 80 0 2.350000001490116
    endloop
  endfacet
  facet normal 0 0 -1
    outer loop
      vertex 0 36 0
      vertex 80 0 0
      vertex 0 0 0
    endloop
  endfacet
  facet normal 0 0 -1
    outer loop
      vertex 0 36 0
      vertex 80 36 0
      vertex 80 0 0
    endloop
  endfacet
  facet normal 0 1 0
    outer loop
      vertex 0 36 10
      vertex 80 36 0
      vertex 0 36 0
    endloop
  endfacet
  facet normal 0 1 0
    outer loop
      vertex 0 36 10
      vertex 80 36 10
      vertex 80 36 0
    endloop
  endfacet
  facet normal 1 0 0
    outer loop
      vertex 80 36 10
      vertex 80 0 2.350000001490116
      vertex 80 36 0
    endloop
  endfacet
  facet normal 1 0 0
    outer loop
      vertex 80 0 2.350000001490116
      vertex 80 0 0
      vertex 80 36 0
    endloop
  endfacet
  facet normal -1 0 0
    outer loop
      vertex 0 36 0
      vertex 0 0 2.350000001490116
      vertex 0 36 10
    endloop
  endfacet
  facet normal -1 0 0
    outer loop
      vertex 0 36 0
      vertex 0 0 0
      vertex 0 0 2.350000001490116
    endloop
  endfacet
endsolid OpenSCAD_Model
