solid OpenSCAD_Model
  facet normal 0.9994645874763654 0 0.03271908282178681
    outer loop
      vertex 0.9978589232386028 -8 0.06540312923014291
      vertex 1 0 0
      vertex 0.9978589232386028 0 0.06540312923014291
    endloop
  endfacet
  facet normal 0.9994645874763654 0 0.03271908282178681
    outer loop
      vertex 1 0 0
      vertex 0.9978589232386028 -8 0.06540312923014291
      vertex 1 -8 0
    endloop
  endfacet
  facet normal 0.9951847266721935 0 0.09801714032959637
    outer loop
      vertex 0.9914448613738074 -8 0.13052619222005113
      vertex 0.9978589232386028 0 0.06540312923014291
      vertex 0.9914448613738074 0 0.13052619222005113
    endloop
  endfacet
  facet normal 0.9951847266721935 0 0.09801714032959637
    outer loop
      vertex 0.9978589232386028 0 0.06540312923014291
      vertex 0.9914448613738074 -8 0.13052619222005113
      vertex 0.9978589232386028 -8 0.06540312923014291
    endloop
  endfacet
  facet normal 0.9866433320848909 0 0.16289547339451718
    outer loop
      vertex 0.9807852804032322 -8 0.19509032201612797
      vertex 0.9914448613738074 0 0.13052619222005113
      vertex 0.9807852804032322 0 0.19509032201612797
    endloop
  endfacet
  facet normal 0.9866433320848909 0 0.16289547339451718
    outer loop
      vertex 0.9914448613738074 0 0.13052619222005113
      vertex 0.9807852804032322 -8 0.19509032201612797
      vertex 0.9914448613738074 -8 0.13052619222005113
    endloop
  endfacet
  facet normal 0.9738769792773194 0 0.22707626303443418
    outer loop
      vertex 0.965925826289066 -8 0.25881904510251985
      vertex 0.9807852804032322 0 0.19509032201612797
      vertex 0.965925826289066 0 0.25881904510251985
    endloop
  endfacet
  facet normal 0.9738769792773194 0 0.22707626303443418
    outer loop
      vertex 0.9807852804032322 0 0.19509032201612797
      vertex 0.965925826289066 -8 0.25881904510251985
      vertex 0.9807852804032322 -8 0.19509032201612797
    endloop
  endfacet
  facet normal 0.9569403357322293 0 0.2902846772543951
    outer loop
      vertex 0.946930129495108 -8 0.32143946530316114
      vertex 0.965925826289066 0 0.25881904510251985
      vertex 0.946930129495108 0 0.32143946530316114
    endloop
  endfacet
  facet normal 0.9569403357322293 0 0.2902846772543951
    outer loop
      vertex 0.965925826289066 0 0.25881904510251985
      vertex 0.946930129495108 -8 0.32143946530316114
      vertex 0.965925826289066 -8 0.25881904510251985
    endloop
  endfacet
  facet normal 0.9359059267573109 0 0.35225004792127274
    outer loop
      vertex 0.9238795325112861 -8 0.3826834323650896
      vertex 0.946930129495108 0 0.32143946530316114
      vertex 0.9238795325112861 0 0.3826834323650896
    endloop
  endfacet
  facet normal 0.9359059267573109 0 0.35225004792127274
    outer loop
      vertex 0.946930129495108 0 0.32143946530316114
      vertex 0.9238795325112861 -8 0.3826834323650896
      vertex 0.946930129495108 -8 0.32143946530316114
    endloop
  endfacet
  facet normal 0.9108638249211882 0 0.4127070298043675
    outer loop
      vertex 0.8968727415326896 -8 0.4422886902190015
      vertex 0.9238795325112861 0 0.3826834323650896
      vertex 0.8968727415326896 0 0.4422886902190015
    endloop
  endfacet
  facet normal 0.9108638249211882 0 0.4127070298043675
    outer loop
      vertex 0.9238795325112861 0 0.3826834323650896
      vertex 0.8968727415326896 -8 0.4422886902190015
      vertex 0.9238795325112861 -8 0.3826834323650896
    endloop
  endfacet
  facet normal 0.8819212643483612 0 0.471396736825986
    outer loop
      vertex 0.866025403784441 -8 0.5
      vertex 0.8968727415326896 0 0.4422886902190015
      vertex 0.866025403784441 0 0.5
    endloop
  endfacet
  facet normal 0.8819212643483612 0 0.471396736825986
    outer loop
      vertex 0.8968727415326896 0 0.4422886902190015
      vertex 0.866025403784441 -8 0.5
      vertex 0.8968727415326896 -8 0.4422886902190015
    endloop
  endfacet
  facet normal 0.8492021815265806 0 0.5280678506503653
    outer loop
      vertex 0.8314696123025485 -8 0.5555702330196013
      vertex 0.866025403784441 0 0.5
      vertex 0.8314696123025485 0 0.5555702330196013
    endloop
  endfacet
  facet normal 0.8492021815265806 0 0.5280678506503653
    outer loop
      vertex 0.866025403784441 0 0.5
      vertex 0.8314696123025485 -8 0.5555702330196013
      vertex 0.866025403784441 -8 0.5
    endloop
  endfacet
  facet normal 0.8128466845915859 0 0.5824776968678431
    outer loop
      vertex 0.7933533402912332 -8 0.6087614290087213
      vertex 0.8314696123025485 0 0.5555702330196013
      vertex 0.7933533402912332 0 0.6087614290087213
    endloop
  endfacet
  facet normal 0.8128466845915859 0 0.5824776968678431
    outer loop
      vertex 0.8314696123025485 0 0.5555702330196013
      vertex 0.7933533402912332 -8 0.6087614290087213
      vertex 0.8314696123025485 -8 0.5555702330196013
    endloop
  endfacet
  facet normal 0.7730104533627703 0 0.6343932841636051
    outer loop
      vertex 0.75183980747898 -8 0.6593458151000693
      vertex 0.7933533402912332 0 0.6087614290087213
      vertex 0.75183980747898 0 0.6593458151000693
    endloop
  endfacet
  facet normal 0.7730104533627703 0 0.6343932841636051
    outer loop
      vertex 0.7933533402912332 0 0.6087614290087213
      vertex 0.75183980747898 -8 0.6593458151000693
      vertex 0.7933533402912332 -8 0.6087614290087213
    endloop
  endfacet
  facet normal 0.7298640726978045 0 0.6835923020229046
    outer loop
      vertex 0.7071067811865461 -8 0.7071067811865479
      vertex 0.75183980747898 0 0.6593458151000693
      vertex 0.7071067811865461 0 0.7071067811865479
    endloop
  endfacet
  facet normal 0.7298640726978045 0 0.6835923020229046
    outer loop
      vertex 0.75183980747898 0 0.6593458151000693
      vertex 0.7071067811865461 -8 0.7071067811865479
      vertex 0.75183980747898 -8 0.6593458151000693
    endloop
  endfacet
  facet normal 0.6835923020228756 7.256923579490974e-20 0.7298640726978316
    outer loop
      vertex 0.6593458151000675 0 0.7518398074789783
      vertex 0.7071067811865461 -8 0.7071067811865479
      vertex 0.7071067811865461 0 0.7071067811865479
    endloop
  endfacet
  facet normal 0.6835923020228756 7.256923579490974e-20 0.7298640726978316
    outer loop
      vertex 0.7071067811865461 -8 0.7071067811865479
      vertex 0.6593458151000675 0 0.7518398074789783
      vertex 0.6593458151000675 -8 0.7518398074789783
    endloop
  endfacet
  facet normal 0.634393284163664 -3.3436557941797254e-19 0.7730104533627217
    outer loop
      vertex 0.6087614290087231 0 0.7933533402912349
      vertex 0.6593458151000675 -8 0.7518398074789783
      vertex 0.6593458151000675 0 0.7518398074789783
    endloop
  endfacet
  facet normal 0.634393284163664 -3.3436557941797254e-19 0.7730104533627217
    outer loop
      vertex 0.6593458151000675 -8 0.7518398074789783
      vertex 0.6087614290087231 0 0.7933533402912349
      vertex 0.6087614290087231 -8 0.7933533402912349
    endloop
  endfacet
  facet normal 0.5824776968677764 1.9611534480723277e-19 0.8128466845916336
    outer loop
      vertex 0.5555702330196013 0 0.8314696123025449
      vertex 0.6087614290087231 -8 0.7933533402912349
      vertex 0.6087614290087231 0 0.7933533402912349
    endloop
  endfacet
  facet normal 0.5824776968677764 1.9611534480723277e-19 0.8128466845916336
    outer loop
      vertex 0.6087614290087231 -8 0.7933533402912349
      vertex 0.5555702330196013 0 0.8314696123025449
      vertex 0.5555702330196013 -8 0.8314696123025449
    endloop
  endfacet
  facet normal 0.5280678506503849 -1.3249671937072306e-19 0.8492021815265683
    outer loop
      vertex 0.5 0 0.8660254037844393
      vertex 0.5555702330196013 -8 0.8314696123025449
      vertex 0.5555702330196013 0 0.8314696123025449
    endloop
  endfacet
  facet normal 0.5280678506503849 -1.3249671937072306e-19 0.8492021815265683
    outer loop
      vertex 0.5555702330196013 -8 0.8314696123025449
      vertex 0.5 0 0.8660254037844393
      vertex 0.5 -8 0.8660254037844393
    endloop
  endfacet
  facet normal 0.471396736825986 1.446157340738526e-19 0.8819212643483612
    outer loop
      vertex 0.4422886902190015 0 0.8968727415326878
      vertex 0.5 -8 0.8660254037844393
      vertex 0.5 0 0.8660254037844393
    endloop
  endfacet
  facet normal 0.471396736825986 1.446157340738526e-19 0.8819212643483612
    outer loop
      vertex 0.5 -8 0.8660254037844393
      vertex 0.4422886902190015 0 0.8968727415326878
      vertex 0.4422886902190015 -8 0.8968727415326878
    endloop
  endfacet
  facet normal 0.4127070298044002 1.1980206567385386e-19 0.9108638249211732
    outer loop
      vertex 0.3826834323650914 0 0.9238795325112861
      vertex 0.4422886902190015 -8 0.8968727415326878
      vertex 0.4422886902190015 0 0.8968727415326878
    endloop
  endfacet
  facet normal 0.4127070298044002 1.1980206567385386e-19 0.9108638249211732
    outer loop
      vertex 0.4422886902190015 -8 0.8968727415326878
      vertex 0.3826834323650914 0 0.9238795325112861
      vertex 0.3826834323650914 -8 0.9238795325112861
    endloop
  endfacet
  facet normal 0.3522500479212579 -1.7807954096093628e-19 0.9359059267573165
    outer loop
      vertex 0.3214394653031647 0 0.9469301294951062
      vertex 0.3826834323650914 -8 0.9238795325112861
      vertex 0.3826834323650914 0 0.9238795325112861
    endloop
  endfacet
  facet normal 0.3522500479212579 -1.7807954096093628e-19 0.9359059267573165
    outer loop
      vertex 0.3826834323650914 -8 0.9238795325112861
      vertex 0.3214394653031647 0 0.9469301294951062
      vertex 0.3214394653031647 -8 0.9469301294951062
    endloop
  endfacet
  facet normal 0.2902846772544298 1.222079053141573e-19 0.9569403357322188
    outer loop
      vertex 0.25881904510251985 0 0.9659258262890678
      vertex 0.3214394653031647 -8 0.9469301294951062
      vertex 0.3214394653031647 0 0.9469301294951062
    endloop
  endfacet
  facet normal 0.2902846772544298 1.222079053141573e-19 0.9569403357322188
    outer loop
      vertex 0.3214394653031647 -8 0.9469301294951062
      vertex 0.25881904510251985 0 0.9659258262890678
      vertex 0.25881904510251985 -8 0.9659258262890678
    endloop
  endfacet
  facet normal 0.2270762630343827 -8.544472727744568e-20 0.9738769792773314
    outer loop
      vertex 0.19509032201612797 0 0.9807852804032304
      vertex 0.25881904510251985 -8 0.9659258262890678
      vertex 0.25881904510251985 0 0.9659258262890678
    endloop
  endfacet
  facet normal 0.2270762630343827 -8.544472727744568e-20 0.9738769792773314
    outer loop
      vertex 0.25881904510251985 -8 0.9659258262890678
      vertex 0.19509032201612797 0 0.9807852804032304
      vertex 0.19509032201612797 -8 0.9807852804032304
    endloop
  endfacet
  facet normal 0.1628954733946008 -6.062131236277004e-20 0.9866433320848771
    outer loop
      vertex 0.1305261922200529 0 0.9914448613738109
      vertex 0.19509032201612797 -8 0.9807852804032304
      vertex 0.19509032201612797 0 0.9807852804032304
    endloop
  endfacet
  facet normal 0.1628954733946008 -6.062131236277004e-20 0.9866433320848771
    outer loop
      vertex 0.19509032201612797 -8 0.9807852804032304
      vertex 0.1305261922200529 0 0.9914448613738109
      vertex 0.1305261922200529 -8 0.9914448613738109
    endloop
  endfacet
  facet normal 0.0980171403295373 -8.243120731091386e-21 0.9951847266721991
    outer loop
      vertex 0.06540312923014113 0 0.9978589232386028
      vertex 0.1305261922200529 -8 0.9914448613738109
      vertex 0.1305261922200529 0 0.9914448613738109
    endloop
  endfacet
  facet normal 0.0980171403295373 -8.243120731091386e-21 0.9951847266721991
    outer loop
      vertex 0.1305261922200529 -8 0.9914448613738109
      vertex 0.06540312923014113 0 0.9978589232386028
      vertex 0.06540312923014113 -8 0.9978589232386028
    endloop
  endfacet
  facet normal 0.0327190828217877 -2.416698089461582e-21 0.9994645874763652
    outer loop
      vertex 0 0 1
      vertex 0.06540312923014113 -8 0.9978589232386028
      vertex 0.06540312923014113 0 0.9978589232386028
    endloop
  endfacet
  facet normal 0.0327190828217877 -2.416698089461582e-21 0.9994645874763652
    outer loop
      vertex 0.06540312923014113 -8 0.9978589232386028
      vertex 0 0 1
      vertex 0 -8 1
    endloop
  endfacet
  facet normal -0.0327190828217877 2.416698089461582e-21 0.9994645874763652
    outer loop
      vertex -0.06540312923014113 0 0.9978589232386028
      vertex 0 -8 1
      vertex 0 0 1
    endloop
  endfacet
  facet normal -0.0327190828217877 2.416698089461582e-21 0.9994645874763652
    outer loop
      vertex 0 -8 1
      vertex -0.06540312923014113 0 0.9978589232386028
      vertex -0.06540312923014113 -8 0.9978589232386028
    endloop
  endfacet
  facet normal -0.0980171403295373 8.243120731091386e-21 0.9951847266721991
    outer loop
      vertex -0.1305261922200529 0 0.9914448613738109
      vertex -0.06540312923014113 -8 0.9978589232386028
      vertex -0.06540312923014113 0 0.9978589232386028
    endloop
  endfacet
  facet normal -0.0980171403295373 8.243120731091386e-21 0.9951847266721991
    outer loop
      vertex -0.06540312923014113 -8 0.9978589232386028
      vertex -0.1305261922200529 0 0.9914448613738109
      vertex -0.1305261922200529 -8 0.9914448613738109
    endloop
  endfacet
  facet normal -0.1628954733946008 6.062131236277004e-20 0.9866433320848771
    outer loop
      vertex -0.19509032201612797 0 0.9807852804032304
      vertex -0.1305261922200529 -8 0.9914448613738109
      vertex -0.1305261922200529 0 0.9914448613738109
    endloop
  endfacet
  facet normal -0.1628954733946008 6.062131236277004e-20 0.9866433320848771
    outer loop
      vertex -0.1305261922200529 -8 0.9914448613738109
      vertex -0.19509032201612797 0 0.9807852804032304
      vertex -0.19509032201612797 -8 0.9807852804032304
    endloop
  endfacet
  facet normal -0.2270762630343827 8.544472727744568e-20 0.9738769792773314
    outer loop
      vertex -0.25881904510251985 0 0.9659258262890678
      vertex -0.19509032201612797 -8 0.9807852804032304
      vertex -0.19509032201612797 0 0.9807852804032304
    endloop
  endfacet
  facet normal -0.2270762630343827 8.544472727744568e-20 0.9738769792773314
    outer loop
      vertex -0.19509032201612797 -8 0.9807852804032304
      vertex -0.25881904510251985 0 0.9659258262890678
      vertex -0.25881904510251985 -8 0.9659258262890678
    endloop
  endfacet
  facet normal -0.2902846772544298 -1.222079053141573e-19 0.9569403357322188
    outer loop
      vertex -0.3214394653031647 0 0.9469301294951062
      vertex -0.25881904510251985 -8 0.9659258262890678
      vertex -0.25881904510251985 0 0.9659258262890678
    endloop
  endfacet
  facet normal -0.2902846772544298 -1.222079053141573e-19 0.9569403357322188
    outer loop
      vertex -0.25881904510251985 -8 0.9659258262890678
      vertex -0.3214394653031647 0 0.9469301294951062
      vertex -0.3214394653031647 -8 0.9469301294951062
    endloop
  endfacet
  facet normal -0.3522500479212579 1.7807954096093628e-19 0.9359059267573165
    outer loop
      vertex -0.3826834323650914 0 0.9238795325112861
      vertex -0.3214394653031647 -8 0.9469301294951062
      vertex -0.3214394653031647 0 0.9469301294951062
    endloop
  endfacet
  facet normal -0.3522500479212579 1.7807954096093628e-19 0.9359059267573165
    outer loop
      vertex -0.3214394653031647 -8 0.9469301294951062
      vertex -0.3826834323650914 0 0.9238795325112861
      vertex -0.3826834323650914 -8 0.9238795325112861
    endloop
  endfacet
  facet normal -0.4127070298044002 -1.1980206567385386e-19 0.9108638249211732
    outer loop
      vertex -0.4422886902190015 0 0.8968727415326878
      vertex -0.3826834323650914 -8 0.9238795325112861
      vertex -0.3826834323650914 0 0.9238795325112861
    endloop
  endfacet
  facet normal -0.4127070298044002 -1.1980206567385386e-19 0.9108638249211732
    outer loop
      vertex -0.3826834323650914 -8 0.9238795325112861
      vertex -0.4422886902190015 0 0.8968727415326878
      vertex -0.4422886902190015 -8 0.8968727415326878
    endloop
  endfacet
  facet normal -0.471396736825986 -1.446157340738526e-19 0.8819212643483612
    outer loop
      vertex -0.5 0 0.8660254037844393
      vertex -0.4422886902190015 -8 0.8968727415326878
      vertex -0.4422886902190015 0 0.8968727415326878
    endloop
  endfacet
  facet normal -0.471396736825986 -1.446157340738526e-19 0.8819212643483612
    outer loop
      vertex -0.4422886902190015 -8 0.8968727415326878
      vertex -0.5 0 0.8660254037844393
      vertex -0.5 -8 0.8660254037844393
    endloop
  endfacet
  facet normal -0.5280678506503849 1.3249671937072306e-19 0.8492021815265683
    outer loop
      vertex -0.5555702330196013 0 0.8314696123025449
      vertex -0.5 -8 0.8660254037844393
      vertex -0.5 0 0.8660254037844393
    endloop
  endfacet
  facet normal -0.5280678506503849 1.3249671937072306e-19 0.8492021815265683
    outer loop
      vertex -0.5 -8 0.8660254037844393
      vertex -0.5555702330196013 0 0.8314696123025449
      vertex -0.5555702330196013 -8 0.8314696123025449
    endloop
  endfacet
  facet normal -0.5824776968677764 -1.9611534480723277e-19 0.8128466845916336
    outer loop
      vertex -0.6087614290087231 0 0.7933533402912349
      vertex -0.5555702330196013 -8 0.8314696123025449
      vertex -0.5555702330196013 0 0.8314696123025449
    endloop
  endfacet
  facet normal -0.5824776968677764 -1.9611534480723277e-19 0.8128466845916336
    outer loop
      vertex -0.5555702330196013 -8 0.8314696123025449
      vertex -0.6087614290087231 0 0.7933533402912349
      vertex -0.6087614290087231 -8 0.7933533402912349
    endloop
  endfacet
  facet normal -0.634393284163664 3.3436557941797254e-19 0.7730104533627217
    outer loop
      vertex -0.6593458151000675 0 0.7518398074789783
      vertex -0.6087614290087231 -8 0.7933533402912349
      vertex -0.6087614290087231 0 0.7933533402912349
    endloop
  endfacet
  facet normal -0.634393284163664 3.3436557941797254e-19 0.7730104533627217
    outer loop
      vertex -0.6087614290087231 -8 0.7933533402912349
      vertex -0.6593458151000675 0 0.7518398074789783
      vertex -0.6593458151000675 -8 0.7518398074789783
    endloop
  endfacet
  facet normal -0.6835923020228756 -7.256923579490974e-20 0.7298640726978316
    outer loop
      vertex -0.7071067811865461 0 0.7071067811865479
      vertex -0.6593458151000675 -8 0.7518398074789783
      vertex -0.6593458151000675 0 0.7518398074789783
    endloop
  endfacet
  facet normal -0.6835923020228756 -7.256923579490974e-20 0.7298640726978316
    outer loop
      vertex -0.6593458151000675 -8 0.7518398074789783
      vertex -0.7071067811865461 0 0.7071067811865479
      vertex -0.7071067811865461 -8 0.7071067811865479
    endloop
  endfacet
  facet normal -0.7298640726978045 0 0.6835923020229046
    outer loop
      vertex -0.75183980747898 -8 0.6593458151000693
      vertex -0.7071067811865461 0 0.7071067811865479
      vertex -0.75183980747898 0 0.6593458151000693
    endloop
  endfacet
  facet normal -0.7298640726978045 0 0.6835923020229046
    outer loop
      vertex -0.7071067811865461 0 0.7071067811865479
      vertex -0.75183980747898 -8 0.6593458151000693
      vertex -0.7071067811865461 -8 0.7071067811865479
    endloop
  endfacet
  facet normal -0.7730104533627703 0 0.6343932841636051
    outer loop
      vertex -0.7933533402912332 -8 0.6087614290087213
      vertex -0.75183980747898 0 0.6593458151000693
      vertex -0.7933533402912332 0 0.6087614290087213
    endloop
  endfacet
  facet normal -0.7730104533627703 0 0.6343932841636051
    outer loop
      vertex -0.75183980747898 0 0.6593458151000693
      vertex -0.7933533402912332 -8 0.6087614290087213
      vertex -0.75183980747898 -8 0.6593458151000693
    endloop
  endfacet
  facet normal -0.8128466845915859 0 0.5824776968678431
    outer loop
      vertex -0.8314696123025485 -8 0.5555702330196013
      vertex -0.7933533402912332 0 0.6087614290087213
      vertex -0.8314696123025485 0 0.5555702330196013
    endloop
  endfacet
  facet normal -0.8128466845915859 0 0.5824776968678431
    outer loop
      vertex -0.7933533402912332 0 0.6087614290087213
      vertex -0.8314696123025485 -8 0.5555702330196013
      vertex -0.7933533402912332 -8 0.6087614290087213
    endloop
  endfacet
  facet normal -0.8492021815265806 0 0.5280678506503653
    outer loop
      vertex -0.866025403784441 -8 0.5
      vertex -0.8314696123025485 0 0.5555702330196013
      vertex -0.866025403784441 0 0.5
    endloop
  endfacet
  facet normal -0.8492021815265806 0 0.5280678506503653
    outer loop
      vertex -0.8314696123025485 0 0.5555702330196013
      vertex -0.866025403784441 -8 0.5
      vertex -0.8314696123025485 -8 0.5555702330196013
    endloop
  endfacet
  facet normal -0.8819212643483612 0 0.471396736825986
    outer loop
      vertex -0.8968727415326896 -8 0.4422886902190015
      vertex -0.866025403784441 0 0.5
      vertex -0.8968727415326896 0 0.4422886902190015
    endloop
  endfacet
  facet normal -0.8819212643483612 0 0.471396736825986
    outer loop
      vertex -0.866025403784441 0 0.5
      vertex -0.8968727415326896 -8 0.4422886902190015
      vertex -0.866025403784441 -8 0.5
    endloop
  endfacet
  facet normal -0.9108638249211882 0 0.4127070298043675
    outer loop
      vertex -0.9238795325112861 -8 0.3826834323650896
      vertex -0.8968727415326896 0 0.4422886902190015
      vertex -0.9238795325112861 0 0.3826834323650896
    endloop
  endfacet
  facet normal -0.9108638249211882 0 0.4127070298043675
    outer loop
      vertex -0.8968727415326896 0 0.4422886902190015
      vertex -0.9238795325112861 -8 0.3826834323650896
      vertex -0.8968727415326896 -8 0.4422886902190015
    endloop
  endfacet
  facet normal -0.9359059267573109 0 0.35225004792127274
    outer loop
      vertex -0.946930129495108 -8 0.32143946530316114
      vertex -0.9238795325112861 0 0.3826834323650896
      vertex -0.946930129495108 0 0.32143946530316114
    endloop
  endfacet
  facet normal -0.9359059267573109 0 0.35225004792127274
    outer loop
      vertex -0.9238795325112861 0 0.3826834323650896
      vertex -0.946930129495108 -8 0.32143946530316114
      vertex -0.9238795325112861 -8 0.3826834323650896
    endloop
  endfacet
  facet normal -0.9569403357322293 0 0.2902846772543951
    outer loop
      vertex -0.965925826289066 -8 0.25881904510251985
      vertex -0.946930129495108 0 0.32143946530316114
      vertex -0.965925826289066 0 0.25881904510251985
    endloop
  endfacet
  facet normal -0.9569403357322293 0 0.2902846772543951
    outer loop
      vertex -0.946930129495108 0 0.32143946530316114
      vertex -0.965925826289066 -8 0.25881904510251985
      vertex -0.946930129495108 -8 0.32143946530316114
    endloop
  endfacet
  facet normal -0.9738769792773194 0 0.22707626303443418
    outer loop
      vertex -0.9807852804032322 -8 0.19509032201612797
      vertex -0.965925826289066 0 0.25881904510251985
      vertex -0.9807852804032322 0 0.19509032201612797
    endloop
  endfacet
  facet normal -0.9738769792773194 0 0.22707626303443418
    outer loop
      vertex -0.965925826289066 0 0.25881904510251985
      vertex -0.9807852804032322 -8 0.19509032201612797
      vertex -0.965925826289066 -8 0.25881904510251985
    endloop
  endfacet
  facet normal -0.9866433320848909 0 0.16289547339451718
    outer loop
      vertex -0.9914448613738074 -8 0.13052619222005113
      vertex -0.9807852804032322 0 0.19509032201612797
      vertex -0.9914448613738074 0 0.13052619222005113
    endloop
  endfacet
  facet normal -0.9866433320848909 0 0.16289547339451718
    outer loop
      vertex -0.9807852804032322 0 0.19509032201612797
      vertex -0.9914448613738074 -8 0.13052619222005113
      vertex -0.9807852804032322 -8 0.19509032201612797
    endloop
  endfacet
  facet normal -0.9951847266721935 0 0.09801714032959637
    outer loop
      vertex -0.9978589232386028 -8 0.06540312923014291
      vertex -0.9914448613738074 0 0.13052619222005113
      vertex -0.9978589232386028 0 0.06540312923014291
    endloop
  endfacet
  facet normal -0.9951847266721935 0 0.09801714032959637
    outer loop
      vertex -0.9914448613738074 0 0.13052619222005113
      vertex -0.9978589232386028 -8 0.06540312923014291
      vertex -0.9914448613738074 -8 0.13052619222005113
    endloop
  endfacet
  facet normal -0.9994645874763654 0 0.03271908282178681
    outer loop
      vertex -1 -8 0
      vertex -0.9978589232386028 0 0.06540312923014291
      vertex -1 0 0
    endloop
  endfacet
  facet normal -0.9994645874763654 0 0.03271908282178681
    outer loop
      vertex -0.9978589232386028 0 0.06540312923014291
      vertex -1 -8 0
      vertex -0.9978589232386028 -8 0.06540312923014291
    endloop
  endfacet
  facet normal -0.9994645874763654 0 -0.03271908282178681
    outer loop
      vertex -0.9978589232386028 -8 -0.06540312923014291
      vertex -1 0 0
      vertex -0.9978589232386028 0 -0.06540312923014291
    endloop
  endfacet
  facet normal -0.9994645874763654 0 -0.03271908282178681
    outer loop
      vertex -1 0 0
      vertex -0.9978589232386028 -8 -0.06540312923014291
      vertex -1 -8 0
    endloop
  endfacet
  facet normal -0.9951847266721935 0 -0.09801714032959637
    outer loop
      vertex -0.9914448613738074 -8 -0.13052619222005113
      vertex -0.9978589232386028 0 -0.06540312923014291
      vertex -0.9914448613738074 0 -0.13052619222005113
    endloop
  endfacet
  facet normal -0.9951847266721935 0 -0.09801714032959637
    outer loop
      vertex -0.9978589232386028 0 -0.06540312923014291
      vertex -0.9914448613738074 -8 -0.13052619222005113
      vertex -0.9978589232386028 -8 -0.06540312923014291
    endloop
  endfacet
  facet normal -0.9866433320848909 0 -0.16289547339451718
    outer loop
      vertex -0.9807852804032322 -8 -0.19509032201612797
      vertex -0.9914448613738074 0 -0.13052619222005113
      vertex -0.9807852804032322 0 -0.19509032201612797
    endloop
  endfacet
  facet normal -0.9866433320848909 0 -0.16289547339451718
    outer loop
      vertex -0.9914448613738074 0 -0.13052619222005113
      vertex -0.9807852804032322 -8 -0.19509032201612797
      vertex -0.9914448613738074 -8 -0.13052619222005113
    endloop
  endfacet
  facet normal -0.9738769792773194 0 -0.22707626303443418
    outer loop
      vertex -0.965925826289066 -8 -0.25881904510251985
      vertex -0.9807852804032322 0 -0.19509032201612797
      vertex -0.965925826289066 0 -0.25881904510251985
    endloop
  endfacet
  facet normal -0.9738769792773194 0 -0.22707626303443418
    outer loop
      vertex -0.9807852804032322 0 -0.19509032201612797
      vertex -0.965925826289066 -8 -0.25881904510251985
      vertex -0.9807852804032322 -8 -0.19509032201612797
    endloop
  endfacet
  facet normal -0.9569403357322293 0 -0.2902846772543951
    outer loop
      vertex -0.946930129495108 -8 -0.32143946530316114
      vertex -0.965925826289066 0 -0.25881904510251985
      vertex -0.946930129495108 0 -0.32143946530316114
    endloop
  endfacet
  facet normal -0.9569403357322293 0 -0.2902846772543951
    outer loop
      vertex -0.965925826289066 0 -0.25881904510251985
      vertex -0.946930129495108 -8 -0.32143946530316114
      vertex -0.965925826289066 -8 -0.25881904510251985
    endloop
  endfacet
  facet normal -0.9359059267573109 0 -0.35225004792127274
    outer loop
      vertex -0.9238795325112861 -8 -0.3826834323650896
      vertex -0.946930129495108 0 -0.32143946530316114
      vertex -0.9238795325112861 0 -0.3826834323650896
    endloop
  endfacet
  facet normal -0.9359059267573109 0 -0.35225004792127274
    outer loop
      vertex -0.946930129495108 0 -0.32143946530316114
      vertex -0.9238795325112861 -8 -0.3826834323650896
      vertex -0.946930129495108 -8 -0.32143946530316114
    endloop
  endfacet
  facet normal -0.9108638249211882 0 -0.4127070298043675
    outer loop
      vertex -0.8968727415326896 -8 -0.4422886902190015
      vertex -0.9238795325112861 0 -0.3826834323650896
      vertex -0.8968727415326896 0 -0.4422886902190015
    endloop
  endfacet
  facet normal -0.9108638249211882 0 -0.4127070298043675
    outer loop
      vertex -0.9238795325112861 0 -0.3826834323650896
      vertex -0.8968727415326896 -8 -0.4422886902190015
      vertex -0.9238795325112861 -8 -0.3826834323650896
    endloop
  endfacet
  facet normal -0.8819212643483612 0 -0.471396736825986
    outer loop
      vertex -0.866025403784441 -8 -0.5
      vertex -0.8968727415326896 0 -0.4422886902190015
      vertex -0.866025403784441 0 -0.5
    endloop
  endfacet
  facet normal -0.8819212643483612 0 -0.471396736825986
    outer loop
      vertex -0.8968727415326896 0 -0.4422886902190015
      vertex -0.866025403784441 -8 -0.5
      vertex -0.8968727415326896 -8 -0.4422886902190015
    endloop
  endfacet
  facet normal -0.8492021815265806 0 -0.5280678506503653
    outer loop
      vertex -0.8314696123025485 -8 -0.5555702330196013
      vertex -0.866025403784441 0 -0.5
      vertex -0.8314696123025485 0 -0.5555702330196013
    endloop
  endfacet
  facet normal -0.8492021815265806 0 -0.5280678506503653
    outer loop
      vertex -0.866025403784441 0 -0.5
      vertex -0.8314696123025485 -8 -0.5555702330196013
      vertex -0.866025403784441 -8 -0.5
    endloop
  endfacet
  facet normal -0.8128466845915859 0 -0.5824776968678431
    outer loop
      vertex -0.7933533402912332 -8 -0.6087614290087213
      vertex -0.8314696123025485 0 -0.5555702330196013
      vertex -0.7933533402912332 0 -0.6087614290087213
    endloop
  endfacet
  facet normal -0.8128466845915859 0 -0.5824776968678431
    outer loop
      vertex -0.8314696123025485 0 -0.5555702330196013
      vertex -0.7933533402912332 -8 -0.6087614290087213
      vertex -0.8314696123025485 -8 -0.5555702330196013
    endloop
  endfacet
  facet normal -0.7730104533627703 0 -0.6343932841636051
    outer loop
      vertex -0.75183980747898 -8 -0.6593458151000693
      vertex -0.7933533402912332 0 -0.6087614290087213
      vertex -0.75183980747898 0 -0.6593458151000693
    endloop
  endfacet
  facet normal -0.7730104533627703 0 -0.6343932841636051
    outer loop
      vertex -0.7933533402912332 0 -0.6087614290087213
      vertex -0.75183980747898 -8 -0.6593458151000693
      vertex -0.7933533402912332 -8 -0.6087614290087213
    endloop
  endfacet
  facet normal -0.7298640726978045 0 -0.6835923020229046
    outer loop
      vertex -0.7071067811865461 -8 -0.7071067811865479
      vertex -0.75183980747898 0 -0.6593458151000693
      vertex -0.7071067811865461 0 -0.7071067811865479
    endloop
  endfacet
  facet normal -0.7298640726978045 0 -0.6835923020229046
    outer loop
      vertex -0.75183980747898 0 -0.6593458151000693
      vertex -0.7071067811865461 -8 -0.7071067811865479
      vertex -0.75183980747898 -8 -0.6593458151000693
    endloop
  endfacet
  facet normal -0.6835923020228682 -8.113651565873119e-20 -0.7298640726978383
    outer loop
      vertex -0.7071067811865461 -8 -0.7071067811865479
      vertex -0.6593458151000675 0 -0.7518398074789774
      vertex -0.6593458151000675 -8 -0.7518398074789774
    endloop
  endfacet
  facet normal -0.6835923020228682 -8.113651565873119e-20 -0.7298640726978383
    outer loop
      vertex -0.6593458151000675 0 -0.7518398074789774
      vertex -0.7071067811865461 -8 -0.7071067811865479
      vertex -0.7071067811865461 0 -0.7071067811865479
    endloop
  endfacet
  facet normal -0.6343932841636721 -3.665408482176775e-22 -0.773010453362715
    outer loop
      vertex -0.6593458151000675 -8 -0.7518398074789774
      vertex -0.6087614290087231 0 -0.7933533402912349
      vertex -0.6087614290087231 -8 -0.7933533402912349
    endloop
  endfacet
  facet normal -0.6343932841636721 -3.665408482176775e-22 -0.773010453362715
    outer loop
      vertex -0.6087614290087231 0 -0.7933533402912349
      vertex -0.6593458151000675 -8 -0.7518398074789774
      vertex -0.6593458151000675 0 -0.7518398074789774
    endloop
  endfacet
  facet normal -0.5824776968677764 1.9611534480723277e-19 -0.8128466845916336
    outer loop
      vertex -0.6087614290087231 -8 -0.7933533402912349
      vertex -0.5555702330196013 0 -0.8314696123025449
      vertex -0.5555702330196013 -8 -0.8314696123025449
    endloop
  endfacet
  facet normal -0.5824776968677764 1.9611534480723277e-19 -0.8128466845916336
    outer loop
      vertex -0.5555702330196013 0 -0.8314696123025449
      vertex -0.6087614290087231 -8 -0.7933533402912349
      vertex -0.6087614290087231 0 -0.7933533402912349
    endloop
  endfacet
  facet normal -0.5280678506503751 1.2252096328120041e-19 -0.8492021815265745
    outer loop
      vertex -0.5555702330196013 -8 -0.8314696123025449
      vertex -0.5 0 -0.8660254037844384
      vertex -0.5 -8 -0.8660254037844384
    endloop
  endfacet
  facet normal -0.5280678506503751 1.2252096328120041e-19 -0.8492021815265745
    outer loop
      vertex -0.5 0 -0.8660254037844384
      vertex -0.5555702330196013 -8 -0.8314696123025449
      vertex -0.5555702330196013 0 -0.8314696123025449
    endloop
  endfacet
  facet normal -0.4713967368259966 -1.5071999326181694e-20 -0.8819212643483556
    outer loop
      vertex -0.5 -8 -0.8660254037844384
      vertex -0.4422886902190015 0 -0.8968727415326878
      vertex -0.4422886902190015 -8 -0.8968727415326878
    endloop
  endfacet
  facet normal -0.4713967368259966 -1.5071999326181694e-20 -0.8819212643483556
    outer loop
      vertex -0.4422886902190015 0 -0.8968727415326878
      vertex -0.5 -8 -0.8660254037844384
      vertex -0.5 0 -0.8660254037844384
    endloop
  endfacet
  facet normal -0.4127070298044115 6.051382595448928e-20 -0.9108638249211682
    outer loop
      vertex -0.4422886902190015 -8 -0.8968727415326878
      vertex -0.3826834323650914 0 -0.923879532511287
      vertex -0.3826834323650914 -8 -0.923879532511287
    endloop
  endfacet
  facet normal -0.4127070298044115 6.051382595448928e-20 -0.9108638249211682
    outer loop
      vertex -0.3826834323650914 0 -0.923879532511287
      vertex -0.4422886902190015 -8 -0.8968727415326878
      vertex -0.4422886902190015 0 -0.8968727415326878
    endloop
  endfacet
  facet normal -0.35225004792123416 1.1624808477223967e-19 -0.9359059267573254
    outer loop
      vertex -0.3826834323650914 -8 -0.923879532511287
      vertex -0.3214394653031647 0 -0.9469301294951054
      vertex -0.3214394653031647 -8 -0.9469301294951054
    endloop
  endfacet
  facet normal -0.35225004792123416 1.1624808477223967e-19 -0.9359059267573254
    outer loop
      vertex -0.3214394653031647 0 -0.9469301294951054
      vertex -0.3826834323650914 -8 -0.923879532511287
      vertex -0.3826834323650914 0 -0.923879532511287
    endloop
  endfacet
  facet normal -0.29028467725445467 1.278070603539843e-19 -0.9569403357322113
    outer loop
      vertex -0.3214394653031647 -8 -0.9469301294951054
      vertex -0.25881904510251985 0 -0.9659258262890686
      vertex -0.25881904510251985 -8 -0.9659258262890686
    endloop
  endfacet
  facet normal -0.29028467725445467 1.278070603539843e-19 -0.9569403357322113
    outer loop
      vertex -0.25881904510251985 0 -0.9659258262890686
      vertex -0.3214394653031647 -8 -0.9469301294951054
      vertex -0.3214394653031647 0 -0.9469301294951054
    endloop
  endfacet
  facet normal -0.22707626303436984 -7.18380717327726e-20 -0.9738769792773345
    outer loop
      vertex -0.25881904510251985 -8 -0.9659258262890686
      vertex -0.19509032201612797 0 -0.9807852804032304
      vertex -0.19509032201612797 -8 -0.9807852804032304
    endloop
  endfacet
  facet normal -0.22707626303436984 -7.18380717327726e-20 -0.9738769792773345
    outer loop
      vertex -0.19509032201612797 0 -0.9807852804032304
      vertex -0.25881904510251985 -8 -0.9659258262890686
      vertex -0.25881904510251985 0 -0.9659258262890686
    endloop
  endfacet
  facet normal -0.1628954733945876 -7.93950524172358e-20 -0.9866433320848792
    outer loop
      vertex -0.19509032201612797 -8 -0.9807852804032304
      vertex -0.1305261922200529 0 -0.99144486137381
      vertex -0.1305261922200529 -8 -0.99144486137381
    endloop
  endfacet
  facet normal -0.1628954733945876 -7.93950524172358e-20 -0.9866433320848792
    outer loop
      vertex -0.1305261922200529 0 -0.99144486137381
      vertex -0.19509032201612797 -8 -0.9807852804032304
      vertex -0.19509032201612797 0 -0.9807852804032304
    endloop
  endfacet
  facet normal -0.09801714032956417 -3.3272979942525744e-21 -0.9951847266721965
    outer loop
      vertex -0.1305261922200529 -8 -0.99144486137381
      vertex -0.06540312923014113 0 -0.9978589232386037
      vertex -0.06540312923014113 -8 -0.9978589232386037
    endloop
  endfacet
  facet normal -0.09801714032956417 -3.3272979942525744e-21 -0.9951847266721965
    outer loop
      vertex -0.06540312923014113 0 -0.9978589232386037
      vertex -0.1305261922200529 -8 -0.99144486137381
      vertex -0.1305261922200529 0 -0.99144486137381
    endloop
  endfacet
  facet normal -0.03271908282177414 4.300658907666345e-21 -0.9994645874763657
    outer loop
      vertex -0.06540312923014113 -8 -0.9978589232386037
      vertex 0 0 -1
      vertex 0 -8 -1
    endloop
  endfacet
  facet normal -0.03271908282177414 4.300658907666345e-21 -0.9994645874763657
    outer loop
      vertex 0 0 -1
      vertex -0.06540312923014113 -8 -0.9978589232386037
      vertex -0.06540312923014113 0 -0.9978589232386037
    endloop
  endfacet
  facet normal 0.03271908282177414 -4.300658907666345e-21 -0.9994645874763657
    outer loop
      vertex 0 -8 -1
      vertex 0.06540312923014113 0 -0.9978589232386037
      vertex 0.06540312923014113 -8 -0.9978589232386037
    endloop
  endfacet
  facet normal 0.03271908282177414 -4.300658907666345e-21 -0.9994645874763657
    outer loop
      vertex 0.06540312923014113 0 -0.9978589232386037
      vertex 0 -8 -1
      vertex 0 0 -1
    endloop
  endfacet
  facet normal 0.09801714032956417 3.3272979942525744e-21 -0.9951847266721965
    outer loop
      vertex 0.06540312923014113 -8 -0.9978589232386037
      vertex 0.1305261922200529 0 -0.99144486137381
      vertex 0.1305261922200529 -8 -0.99144486137381
    endloop
  endfacet
  facet normal 0.09801714032956417 3.3272979942525744e-21 -0.9951847266721965
    outer loop
      vertex 0.1305261922200529 0 -0.99144486137381
      vertex 0.06540312923014113 -8 -0.9978589232386037
      vertex 0.06540312923014113 0 -0.9978589232386037
    endloop
  endfacet
  facet normal 0.1628954733945876 7.93950524172358e-20 -0.9866433320848792
    outer loop
      vertex 0.1305261922200529 -8 -0.99144486137381
      vertex 0.19509032201612797 0 -0.9807852804032304
      vertex 0.19509032201612797 -8 -0.9807852804032304
    endloop
  endfacet
  facet normal 0.1628954733945876 7.93950524172358e-20 -0.9866433320848792
    outer loop
      vertex 0.19509032201612797 0 -0.9807852804032304
      vertex 0.1305261922200529 -8 -0.99144486137381
      vertex 0.1305261922200529 0 -0.99144486137381
    endloop
  endfacet
  facet normal 0.22707626303436984 7.18380717327726e-20 -0.9738769792773345
    outer loop
      vertex 0.19509032201612797 -8 -0.9807852804032304
      vertex 0.25881904510251985 0 -0.9659258262890686
      vertex 0.25881904510251985 -8 -0.9659258262890686
    endloop
  endfacet
  facet normal 0.22707626303436984 7.18380717327726e-20 -0.9738769792773345
    outer loop
      vertex 0.25881904510251985 0 -0.9659258262890686
      vertex 0.19509032201612797 -8 -0.9807852804032304
      vertex 0.19509032201612797 0 -0.9807852804032304
    endloop
  endfacet
  facet normal 0.29028467725445467 -1.278070603539843e-19 -0.9569403357322113
    outer loop
      vertex 0.25881904510251985 -8 -0.9659258262890686
      vertex 0.3214394653031647 0 -0.9469301294951054
      vertex 0.3214394653031647 -8 -0.9469301294951054
    endloop
  endfacet
  facet normal 0.29028467725445467 -1.278070603539843e-19 -0.9569403357322113
    outer loop
      vertex 0.3214394653031647 0 -0.9469301294951054
      vertex 0.25881904510251985 -8 -0.9659258262890686
      vertex 0.25881904510251985 0 -0.9659258262890686
    endloop
  endfacet
  facet normal 0.35225004792123416 -1.1624808477223967e-19 -0.9359059267573254
    outer loop
      vertex 0.3214394653031647 -8 -0.9469301294951054
      vertex 0.3826834323650914 0 -0.923879532511287
      vertex 0.3826834323650914 -8 -0.923879532511287
    endloop
  endfacet
  facet normal 0.35225004792123416 -1.1624808477223967e-19 -0.9359059267573254
    outer loop
      vertex 0.3826834323650914 0 -0.923879532511287
      vertex 0.3214394653031647 -8 -0.9469301294951054
      vertex 0.3214394653031647 0 -0.9469301294951054
    endloop
  endfacet
  facet normal 0.4127070298044115 -6.051382595448928e-20 -0.9108638249211682
    outer loop
      vertex 0.3826834323650914 -8 -0.923879532511287
      vertex 0.4422886902190015 0 -0.8968727415326878
      vertex 0.4422886902190015 -8 -0.8968727415326878
    endloop
  endfacet
  facet normal 0.4127070298044115 -6.051382595448928e-20 -0.9108638249211682
    outer loop
      vertex 0.4422886902190015 0 -0.8968727415326878
      vertex 0.3826834323650914 -8 -0.923879532511287
      vertex 0.3826834323650914 0 -0.923879532511287
    endloop
  endfacet
  facet normal 0.4713967368259966 1.5071999326181694e-20 -0.8819212643483556
    outer loop
      vertex 0.4422886902190015 -8 -0.8968727415326878
      vertex 0.5 0 -0.8660254037844384
      vertex 0.5 -8 -0.8660254037844384
    endloop
  endfacet
  facet normal 0.4713967368259966 1.5071999326181694e-20 -0.8819212643483556
    outer loop
      vertex 0.5 0 -0.8660254037844384
      vertex 0.4422886902190015 -8 -0.8968727415326878
      vertex 0.4422886902190015 0 -0.8968727415326878
    endloop
  endfacet
  facet normal 0.5280678506503751 -1.2252096328120041e-19 -0.8492021815265745
    outer loop
      vertex 0.5 -8 -0.8660254037844384
      vertex 0.5555702330196013 0 -0.8314696123025449
      vertex 0.5555702330196013 -8 -0.8314696123025449
    endloop
  endfacet
  facet normal 0.5280678506503751 -1.2252096328120041e-19 -0.8492021815265745
    outer loop
      vertex 0.5555702330196013 0 -0.8314696123025449
      vertex 0.5 -8 -0.8660254037844384
      vertex 0.5 0 -0.8660254037844384
    endloop
  endfacet
  facet normal 0.5824776968677764 -1.9611534480723277e-19 -0.8128466845916336
    outer loop
      vertex 0.5555702330196013 -8 -0.8314696123025449
      vertex 0.6087614290087231 0 -0.7933533402912349
      vertex 0.6087614290087231 -8 -0.7933533402912349
    endloop
  endfacet
  facet normal 0.5824776968677764 -1.9611534480723277e-19 -0.8128466845916336
    outer loop
      vertex 0.6087614290087231 0 -0.7933533402912349
      vertex 0.5555702330196013 -8 -0.8314696123025449
      vertex 0.5555702330196013 0 -0.8314696123025449
    endloop
  endfacet
  facet normal 0.6343932841636721 3.665408482176775e-22 -0.773010453362715
    outer loop
      vertex 0.6087614290087231 -8 -0.7933533402912349
      vertex 0.6593458151000675 0 -0.7518398074789774
      vertex 0.6593458151000675 -8 -0.7518398074789774
    endloop
  endfacet
  facet normal 0.6343932841636721 3.665408482176775e-22 -0.773010453362715
    outer loop
      vertex 0.6593458151000675 0 -0.7518398074789774
      vertex 0.6087614290087231 -8 -0.7933533402912349
      vertex 0.6087614290087231 0 -0.7933533402912349
    endloop
  endfacet
  facet normal 0.6835923020228682 8.113651565873119e-20 -0.7298640726978383
    outer loop
      vertex 0.6593458151000675 -8 -0.7518398074789774
      vertex 0.7071067811865461 0 -0.7071067811865479
      vertex 0.7071067811865461 -8 -0.7071067811865479
    endloop
  endfacet
  facet normal 0.6835923020228682 8.113651565873119e-20 -0.7298640726978383
    outer loop
      vertex 0.7071067811865461 0 -0.7071067811865479
      vertex 0.6593458151000675 -8 -0.7518398074789774
      vertex 0.6593458151000675 0 -0.7518398074789774
    endloop
  endfacet
  facet normal 0.7298640726978045 0 -0.6835923020229046
    outer loop
      vertex 0.75183980747898 -8 -0.6593458151000693
      vertex 0.7071067811865461 0 -0.7071067811865479
      vertex 0.75183980747898 0 -0.6593458151000693
    endloop
  endfacet
  facet normal 0.7298640726978045 0 -0.6835923020229046
    outer loop
      vertex 0.7071067811865461 0 -0.7071067811865479
      vertex 0.75183980747898 -8 -0.6593458151000693
      vertex 0.7071067811865461 -8 -0.7071067811865479
    endloop
  endfacet
  facet normal 0.7730104533627703 0 -0.6343932841636051
    outer loop
      vertex 0.7933533402912332 -8 -0.6087614290087213
      vertex 0.75183980747898 0 -0.6593458151000693
      vertex 0.7933533402912332 0 -0.6087614290087213
    endloop
  endfacet
  facet normal 0.7730104533627703 0 -0.6343932841636051
    outer loop
      vertex 0.75183980747898 0 -0.6593458151000693
      vertex 0.7933533402912332 -8 -0.6087614290087213
      vertex 0.75183980747898 -8 -0.6593458151000693
    endloop
  endfacet
  facet normal 0.8128466845915859 0 -0.5824776968678431
    outer loop
      vertex 0.8314696123025485 -8 -0.5555702330196013
      vertex 0.7933533402912332 0 -0.6087614290087213
      vertex 0.8314696123025485 0 -0.5555702330196013
    endloop
  endfacet
  facet normal 0.8128466845915859 0 -0.5824776968678431
    outer loop
      vertex 0.7933533402912332 0 -0.6087614290087213
      vertex 0.8314696123025485 -8 -0.5555702330196013
      vertex 0.7933533402912332 -8 -0.6087614290087213
    endloop
  endfacet
  facet normal 0.8492021815265806 0 -0.5280678506503653
    outer loop
      vertex 0.866025403784441 -8 -0.5
      vertex 0.8314696123025485 0 -0.5555702330196013
      vertex 0.866025403784441 0 -0.5
    endloop
  endfacet
  facet normal 0.8492021815265806 0 -0.5280678506503653
    outer loop
      vertex 0.8314696123025485 0 -0.5555702330196013
      vertex 0.866025403784441 -8 -0.5
      vertex 0.8314696123025485 -8 -0.5555702330196013
    endloop
  endfacet
  facet normal 0.8819212643483612 0 -0.471396736825986
    outer loop
      vertex 0.8968727415326896 -8 -0.4422886902190015
      vertex 0.866025403784441 0 -0.5
      vertex 0.8968727415326896 0 -0.4422886902190015
    endloop
  endfacet
  facet normal 0.8819212643483612 0 -0.471396736825986
    outer loop
      vertex 0.866025403784441 0 -0.5
      vertex 0.8968727415326896 -8 -0.4422886902190015
      vertex 0.866025403784441 -8 -0.5
    endloop
  endfacet
  facet normal 0.9108638249211882 0 -0.4127070298043675
    outer loop
      vertex 0.9238795325112861 -8 -0.3826834323650896
      vertex 0.8968727415326896 0 -0.4422886902190015
      vertex 0.9238795325112861 0 -0.3826834323650896
    endloop
  endfacet
  facet normal 0.9108638249211882 0 -0.4127070298043675
    outer loop
      vertex 0.8968727415326896 0 -0.4422886902190015
      vertex 0.9238795325112861 -8 -0.3826834323650896
      vertex 0.8968727415326896 -8 -0.4422886902190015
    endloop
  endfacet
  facet normal 0.9359059267573109 0 -0.35225004792127274
    outer loop
      vertex 0.946930129495108 -8 -0.32143946530316114
      vertex 0.9238795325112861 0 -0.3826834323650896
      vertex 0.946930129495108 0 -0.32143946530316114
    endloop
  endfacet
  facet normal 0.9359059267573109 0 -0.35225004792127274
    outer loop
      vertex 0.9238795325112861 0 -0.3826834323650896
      vertex 0.946930129495108 -8 -0.32143946530316114
      vertex 0.9238795325112861 -8 -0.3826834323650896
    endloop
  endfacet
  facet normal 0.9569403357322293 0 -0.2902846772543951
    outer loop
      vertex 0.965925826289066 -8 -0.25881904510251985
      vertex 0.946930129495108 0 -0.32143946530316114
      vertex 0.965925826289066 0 -0.25881904510251985
    endloop
  endfacet
  facet normal 0.9569403357322293 0 -0.2902846772543951
    outer loop
      vertex 0.946930129495108 0 -0.32143946530316114
      vertex 0.965925826289066 -8 -0.25881904510251985
      vertex 0.946930129495108 -8 -0.32143946530316114
    endloop
  endfacet
  facet normal 0.9738769792773194 0 -0.22707626303443418
    outer loop
      vertex 0.9807852804032322 -8 -0.19509032201612797
      vertex 0.965925826289066 0 -0.25881904510251985
      vertex 0.9807852804032322 0 -0.19509032201612797
    endloop
  endfacet
  facet normal 0.9738769792773194 0 -0.22707626303443418
    outer loop
      vertex 0.965925826289066 0 -0.25881904510251985
      vertex 0.9807852804032322 -8 -0.19509032201612797
      vertex 0.965925826289066 -8 -0.25881904510251985
    endloop
  endfacet
  facet normal 0.9866433320848909 0 -0.16289547339451718
    outer loop
      vertex 0.9914448613738074 -8 -0.13052619222005113
      vertex 0.9807852804032322 0 -0.19509032201612797
      vertex 0.9914448613738074 0 -0.13052619222005113
    endloop
  endfacet
  facet normal 0.9866433320848909 0 -0.16289547339451718
    outer loop
      vertex 0.9807852804032322 0 -0.19509032201612797
      vertex 0.9914448613738074 -8 -0.13052619222005113
      vertex 0.9807852804032322 -8 -0.19509032201612797
    endloop
  endfacet
  facet normal 0.9951847266721935 0 -0.09801714032959637
    outer loop
      vertex 0.9978589232386028 -8 -0.06540312923014291
      vertex 0.9914448613738074 0 -0.13052619222005113
      vertex 0.9978589232386028 0 -0.06540312923014291
    endloop
  endfacet
  facet normal 0.9951847266721935 0 -0.09801714032959637
    outer loop
      vertex 0.9914448613738074 0 -0.13052619222005113
      vertex 0.9978589232386028 -8 -0.06540312923014291
      vertex 0.9914448613738074 -8 -0.13052619222005113
    endloop
  endfacet
  facet normal 0.9994645874763654 0 -0.03271908282178681
    outer loop
      vertex 1 -8 0
      vertex 0.9978589232386028 0 -0.06540312923014291
      vertex 1 0 0
    endloop
  endfacet
  facet normal 0.9994645874763654 0 -0.03271908282178681
    outer loop
      vertex 0.9978589232386028 0 -0.06540312923014291
      vertex 1 -8 0
      vertex 0.9978589232386028 -8 -0.06540312923014291
    endloop
  endfacet
  facet normal 0 1 0
    outer loop
      vertex 0.06540312923014113 0 0.9978589232386028
      vertex -0.06540312923014113 0 0.9978589232386028
      vertex 0 0 1
    endloop
  endfacet
  facet normal 0 1 0
    outer loop
      vertex 0.1305261922200529 0 0.9914448613738109
      vertex -0.06540312923014113 0 0.9978589232386028
      vertex 0.06540312923014113 0 0.9978589232386028
    endloop
  endfacet
  facet normal 0 1 0
    outer loop
      vertex 0.1305261922200529 0 0.9914448613738109
      vertex -0.1305261922200529 0 0.9914448613738109
      vertex -0.06540312923014113 0 0.9978589232386028
    endloop
  endfacet
  facet normal 0 1 0
    outer loop
      vertex 0.19509032201612797 0 0.9807852804032304
      vertex -0.1305261922200529 0 0.9914448613738109
      vertex 0.1305261922200529 0 0.9914448613738109
    endloop
  endfacet
  facet normal 0 1 0
    outer loop
      vertex 0.19509032201612797 0 0.9807852804032304
      vertex -0.19509032201612797 0 0.9807852804032304
      vertex -0.1305261922200529 0 0.9914448613738109
    endloop
  endfacet
  facet normal 0 1 0
    outer loop
      vertex 0.25881904510251985 0 0.9659258262890678
      vertex -0.19509032201612797 0 0.9807852804032304
      vertex 0.19509032201612797 0 0.9807852804032304
    endloop
  endfacet
  facet normal 0 1 0
    outer loop
      vertex 0.25881904510251985 0 0.9659258262890678
      vertex -0.25881904510251985 0 0.9659258262890678
      vertex -0.19509032201612797 0 0.9807852804032304
    endloop
  endfacet
  facet normal 0 1 0
    outer loop
      vertex 0.3214394653031647 0 0.9469301294951062
      vertex -0.25881904510251985 0 0.9659258262890678
      vertex 0.25881904510251985 0 0.9659258262890678
    endloop
  endfacet
  facet normal 0 1 0
    outer loop
      vertex 0.3214394653031647 0 0.9469301294951062
      vertex -0.3214394653031647 0 0.9469301294951062
      vertex -0.25881904510251985 0 0.9659258262890678
    endloop
  endfacet
  facet normal 0 1 0
    outer loop
      vertex 0.3826834323650914 0 0.9238795325112861
      vertex -0.3214394653031647 0 0.9469301294951062
      vertex 0.3214394653031647 0 0.9469301294951062
    endloop
  endfacet
  facet normal 0 1 0
    outer loop
      vertex 0.3826834323650914 0 0.9238795325112861
      vertex -0.3826834323650914 0 0.9238795325112861
      vertex -0.3214394653031647 0 0.9469301294951062
    endloop
  endfacet
  facet normal 0 1 0
    outer loop
      vertex 0.4422886902190015 0 0.8968727415326878
      vertex -0.3826834323650914 0 0.9238795325112861
      vertex 0.3826834323650914 0 0.9238795325112861
    endloop
  endfacet
  facet normal 0 1 0
    outer loop
      vertex 0.4422886902190015 0 0.8968727415326878
      vertex -0.4422886902190015 0 0.8968727415326878
      vertex -0.3826834323650914 0 0.9238795325112861
    endloop
  endfacet
  facet normal 0 1 0
    outer loop
      vertex 0.5 0 0.8660254037844393
      vertex -0.4422886902190015 0 0.8968727415326878
      vertex 0.4422886902190015 0 0.8968727415326878
    endloop
  endfacet
  facet normal 0 1 0
    outer loop
      vertex 0.5 0 0.8660254037844393
      vertex -0.5 0 0.8660254037844393
      vertex -0.4422886902190015 0 0.8968727415326878
    endloop
  endfacet
  facet normal 0 1 0
    outer loop
      vertex 0.5555702330196013 0 0.8314696123025449
      vertex -0.5 0 0.8660254037844393
      vertex 0.5 0 0.8660254037844393
    endloop
  endfacet
  facet normal 0 1 0
    outer loop
      vertex 0.5555702330196013 0 0.8314696123025449
      vertex -0.5555702330196013 0 0.8314696123025449
      vertex -0.5 0 0.8660254037844393
    endloop
  endfacet
  facet normal 0 1 0
    outer loop
      vertex 0.6087614290087231 0 0.7933533402912349
      vertex -0.5555702330196013 0 0.8314696123025449
      vertex 0.5555702330196013 0 0.8314696123025449
    endloop
  endfacet
  facet normal 0 1 0
    outer loop
      vertex 0.6087614290087231 0 0.7933533402912349
      vertex -0.6087614290087231 0 0.7933533402912349
      vertex -0.5555702330196013 0 0.8314696123025449
    endloop
  endfacet
  facet normal 0 1 0
    outer loop
      vertex 0.6593458151000675 0 0.7518398074789783
      vertex -0.6087614290087231 0 0.7933533402912349
      vertex 0.6087614290087231 0 0.7933533402912349
    endloop
  endfacet
  facet normal 0 1 0
    outer loop
      vertex 0.6593458151000675 0 0.7518398074789783
      vertex -0.6593458151000675 0 0.7518398074789783
      vertex -0.6087614290087231 0 0.7933533402912349
    endloop
  endfacet
  facet normal 0 1 0
    outer loop
      vertex 0.7071067811865461 0 0.7071067811865479
      vertex -0.6593458151000675 0 0.7518398074789783
      vertex 0.6593458151000675 0 0.7518398074789783
    endloop
  endfacet
  facet normal 0 1 0
    outer loop
      vertex 0.7071067811865461 0 0.7071067811865479
      vertex -0.7071067811865461 0 0.7071067811865479
      vertex -0.6593458151000675 0 0.7518398074789783
    endloop
  endfacet
  facet normal 0 1 0
    outer loop
      vertex 0.75183980747898 0 0.6593458151000693
      vertex -0.7071067811865461 0 0.7071067811865479
      vertex 0.7071067811865461 0 0.7071067811865479
    endloop
  endfacet
  facet normal 0 1 0
    outer loop
      vertex 0.75183980747898 0 0.6593458151000693
      vertex -0.75183980747898 0 0.6593458151000693
      vertex -0.7071067811865461 0 0.7071067811865479
    endloop
  endfacet
  facet normal 0 1 0
    outer loop
      vertex 0.7933533402912332 0 0.6087614290087213
      vertex -0.75183980747898 0 0.6593458151000693
      vertex 0.75183980747898 0 0.6593458151000693
    endloop
  endfacet
  facet normal 0 1 0
    outer loop
      vertex 0.7933533402912332 0 0.6087614290087213
      vertex -0.7933533402912332 0 0.6087614290087213
      vertex -0.75183980747898 0 0.6593458151000693
    endloop
  endfacet
  facet normal 0 1 0
    outer loop
      vertex 0.8314696123025485 0 0.5555702330196013
      vertex -0.7933533402912332 0 0.6087614290087213
      vertex 0.7933533402912332 0 0.6087614290087213
    endloop
  endfacet
  facet normal 0 1 0
    outer loop
      vertex 0.8314696123025485 0 0.5555702330196013
      vertex -0.8314696123025485 0 0.5555702330196013
      vertex -0.7933533402912332 0 0.6087614290087213
    endloop
  endfacet
  facet normal 0 1 0
    outer loop
      vertex 0.866025403784441 0 0.5
      vertex -0.8314696123025485 0 0.5555702330196013
      vertex 0.8314696123025485 0 0.5555702330196013
    endloop
  endfacet
  facet normal 0 1 0
    outer loop
      vertex 0.866025403784441 0 0.5
      vertex -0.866025403784441 0 0.5
      vertex -0.8314696123025485 0 0.5555702330196013
    endloop
  endfacet
  facet normal 0 1 0
    outer loop
      vertex 0.8968727415326896 0 0.4422886902190015
      vertex -0.866025403784441 0 0.5
      vertex 0.866025403784441 0 0.5
    endloop
  endfacet
  facet normal 0 1 0
    outer loop
      vertex 0.8968727415326896 0 0.4422886902190015
      vertex -0.8968727415326896 0 0.4422886902190015
      vertex -0.866025403784441 0 0.5
    endloop
  endfacet
  facet normal 0 1 0
    outer loop
      vertex 0.9238795325112861 0 0.3826834323650896
      vertex -0.8968727415326896 0 0.4422886902190015
      vertex 0.8968727415326896 0 0.4422886902190015
    endloop
  endfacet
  facet normal 0 1 0
    outer loop
      vertex 0.9238795325112861 0 0.3826834323650896
      vertex -0.9238795325112861 0 0.3826834323650896
      vertex -0.8968727415326896 0 0.4422886902190015
    endloop
  endfacet
  facet normal 0 1 0
    outer loop
      vertex 0.946930129495108 0 0.32143946530316114
      vertex -0.9238795325112861 0 0.3826834323650896
      vertex 0.9238795325112861 0 0.3826834323650896
    endloop
  endfacet
  facet normal 0 1 0
    outer loop
      vertex 0.946930129495108 0 0.32143946530316114
      vertex -0.946930129495108 0 0.32143946530316114
      vertex -0.9238795325112861 0 0.3826834323650896
    endloop
  endfacet
  facet normal 0 1 0
    outer loop
      vertex 0.965925826289066 0 0.25881904510251985
      vertex -0.946930129495108 0 0.32143946530316114
      vertex 0.946930129495108 0 0.32143946530316114
    endloop
  endfacet
  facet normal 0 1 0
    outer loop
      vertex 0.965925826289066 0 0.25881904510251985
      vertex -0.965925826289066 0 0.25881904510251985
      vertex -0.946930129495108 0 0.32143946530316114
    endloop
  endfacet
  facet normal 0 1 0
    outer loop
      vertex 0.9807852804032322 0 0.19509032201612797
      vertex -0.965925826289066 0 0.25881904510251985
      vertex 0.965925826289066 0 0.25881904510251985
    endloop
  endfacet
  facet normal 0 1 0
    outer loop
      vertex 0.9807852804032322 0 0.19509032201612797
      vertex -0.9807852804032322 0 0.19509032201612797
      vertex -0.965925826289066 0 0.25881904510251985
    endloop
  endfacet
  facet normal 0 1 0
    outer loop
      vertex 0.9914448613738074 0 0.13052619222005113
      vertex -0.9807852804032322 0 0.19509032201612797
      vertex 0.9807852804032322 0 0.19509032201612797
    endloop
  endfacet
  facet normal 0 1 0
    outer loop
      vertex 0.9914448613738074 0 0.13052619222005113
      vertex -0.9914448613738074 0 0.13052619222005113
      vertex -0.9807852804032322 0 0.19509032201612797
    endloop
  endfacet
  facet normal 0 1 0
    outer loop
      vertex 0.9978589232386028 0 0.06540312923014291
      vertex -0.9914448613738074 0 0.13052619222005113
      vertex 0.9914448613738074 0 0.13052619222005113
    endloop
  endfacet
  facet normal 0 1 0
    outer loop
      vertex 0.9978589232386028 0 0.06540312923014291
      vertex -0.9978589232386028 0 0.06540312923014291
      vertex -0.9914448613738074 0 0.13052619222005113
    endloop
  endfacet
  facet normal 0 1 0
    outer loop
      vertex 1 0 0
      vertex -0.9978589232386028 0 0.06540312923014291
      vertex 0.9978589232386028 0 0.06540312923014291
    endloop
  endfacet
  facet normal 0 1 0
    outer loop
      vertex 1 0 0
      vertex -1 0 0
      vertex -0.9978589232386028 0 0.06540312923014291
    endloop
  endfacet
  facet normal 0 1 0
    outer loop
      vertex 0.9978589232386028 0 -0.06540312923014291
      vertex -1 0 0
      vertex 1 0 0
    endloop
  endfacet
  facet normal 0 1 0
    outer loop
      vertex 0.9978589232386028 0 -0.06540312923014291
      vertex -0.9978589232386028 0 -0.06540312923014291
      vertex -1 0 0
    endloop
  endfacet
  facet normal 0 1 0
    outer loop
      vertex 0.9914448613738074 0 -0.13052619222005113
      vertex -0.9978589232386028 0 -0.06540312923014291
      vertex 0.9978589232386028 0 -0.06540312923014291
    endloop
  endfacet
  facet normal 0 1 0
    outer loop
      vertex 0.9914448613738074 0 -0.13052619222005113
      vertex -0.9914448613738074 0 -0.13052619222005113
      vertex -0.9978589232386028 0 -0.06540312923014291
    endloop
  endfacet
  facet normal 0 1 0
    outer loop
      vertex 0.9807852804032322 0 -0.19509032201612797
      vertex -0.9914448613738074 0 -0.13052619222005113
      vertex 0.9914448613738074 0 -0.13052619222005113
    endloop
  endfacet
  facet normal 0 1 0
    outer loop
      vertex 0.9807852804032322 0 -0.19509032201612797
      vertex -0.9807852804032322 0 -0.19509032201612797
      vertex -0.9914448613738074 0 -0.13052619222005113
    endloop
  endfacet
  facet normal 0 1 0
    outer loop
      vertex 0.965925826289066 0 -0.25881904510251985
      vertex -0.9807852804032322 0 -0.19509032201612797
      vertex 0.9807852804032322 0 -0.19509032201612797
    endloop
  endfacet
  facet normal 0 1 0
    outer loop
      vertex 0.965925826289066 0 -0.25881904510251985
      vertex -0.965925826289066 0 -0.25881904510251985
      vertex -0.9807852804032322 0 -0.19509032201612797
    endloop
  endfacet
  facet normal 0 1 0
    outer loop
      vertex 0.946930129495108 0 -0.32143946530316114
      vertex -0.965925826289066 0 -0.25881904510251985
      vertex 0.965925826289066 0 -0.25881904510251985
    endloop
  endfacet
  facet normal 0 1 0
    outer loop
      vertex 0.946930129495108 0 -0.32143946530316114
      vertex -0.946930129495108 0 -0.32143946530316114
      vertex -0.965925826289066 0 -0.25881904510251985
    endloop
  endfacet
  facet normal 0 1 0
    outer loop
      vertex 0.9238795325112861 0 -0.3826834323650896
      vertex -0.946930129495108 0 -0.32143946530316114
      vertex 0.946930129495108 0 -0.32143946530316114
    endloop
  endfacet
  facet normal 0 1 0
    outer loop
      vertex 0.9238795325112861 0 -0.3826834323650896
      vertex -0.9238795325112861 0 -0.3826834323650896
      vertex -0.946930129495108 0 -0.32143946530316114
    endloop
  endfacet
  facet normal 0 1 0
    outer loop
      vertex 0.8968727415326896 0 -0.4422886902190015
      vertex -0.9238795325112861 0 -0.3826834323650896
      vertex 0.9238795325112861 0 -0.3826834323650896
    endloop
  endfacet
  facet normal 0 1 0
    outer loop
      vertex 0.8968727415326896 0 -0.4422886902190015
      vertex -0.8968727415326896 0 -0.4422886902190015
      vertex -0.9238795325112861 0 -0.3826834323650896
    endloop
  endfacet
  facet normal 0 1 0
    outer loop
      vertex 0.866025403784441 0 -0.5
      vertex -0.8968727415326896 0 -0.4422886902190015
      vertex 0.8968727415326896 0 -0.4422886902190015
    endloop
  endfacet
  facet normal 0 1 0
    outer loop
      vertex 0.866025403784441 0 -0.5
      vertex -0.866025403784441 0 -0.5
      vertex -0.8968727415326896 0 -0.4422886902190015
    endloop
  endfacet
  facet normal 0 1 0
    outer loop
      vertex 0.8314696123025485 0 -0.5555702330196013
      vertex -0.866025403784441 0 -0.5
      vertex 0.866025403784441 0 -0.5
    endloop
  endfacet
  facet normal 0 1 0
    outer loop
      vertex 0.8314696123025485 0 -0.5555702330196013
      vertex -0.8314696123025485 0 -0.5555702330196013
      vertex -0.866025403784441 0 -0.5
    endloop
  endfacet
  facet normal 0 1 0
    outer loop
      vertex 0.7933533402912332 0 -0.6087614290087213
      vertex -0.8314696123025485 0 -0.5555702330196013
      vertex 0.8314696123025485 0 -0.5555702330196013
    endloop
  endfacet
  facet normal 0 1 0
    outer loop
      vertex 0.7933533402912332 0 -0.6087614290087213
      vertex -0.7933533402912332 0 -0.6087614290087213
      vertex -0.8314696123025485 0 -0.5555702330196013
    endloop
  endfacet
  facet normal 0 1 0
    outer loop
      vertex 0.75183980747898 0 -0.6593458151000693
      vertex -0.7933533402912332 0 -0.6087614290087213
      vertex 0.7933533402912332 0 -0.6087614290087213
    endloop
  endfacet
  facet normal 0 1 0
    outer loop
      vertex 0.75183980747898 0 -0.6593458151000693
      vertex -0.75183980747898 0 -0.6593458151000693
      vertex -0.7933533402912332 0 -0.6087614290087213
    endloop
  endfacet
  facet normal 0 1 0
    outer loop
      vertex 0.7071067811865461 0 -0.7071067811865479
      vertex -0.75183980747898 0 -0.6593458151000693
      vertex 0.75183980747898 0 -0.6593458151000693
    endloop
  endfacet
  facet normal 0 1 0
    outer loop
      vertex 0.7071067811865461 0 -0.7071067811865479
      vertex -0.7071067811865461 0 -0.7071067811865479
      vertex -0.75183980747898 0 -0.6593458151000693
    endloop
  endfacet
  facet normal 0 1 0
    outer loop
      vertex 0.6593458151000675 0 -0.7518398074789774
      vertex -0.7071067811865461 0 -0.7071067811865479
      vertex 0.7071067811865461 0 -0.7071067811865479
    endloop
  endfacet
  facet normal 0 1 0
    outer loop
      vertex 0.6593458151000675 0 -0.7518398074789774
      vertex -0.6593458151000675 0 -0.7518398074789774
      vertex -0.7071067811865461 0 -0.7071067811865479
    endloop
  endfacet
  facet normal 0 1 0
    outer loop
      vertex 0.6087614290087231 0 -0.7933533402912349
      vertex -0.6593458151000675 0 -0.7518398074789774
      vertex 0.6593458151000675 0 -0.7518398074789774
    endloop
  endfacet
  facet normal 0 1 0
    outer loop
      vertex 0.6087614290087231 0 -0.7933533402912349
      vertex -0.6087614290087231 0 -0.7933533402912349
      vertex -0.6593458151000675 0 -0.7518398074789774
    endloop
  endfacet
  facet normal 0 1 0
    outer loop
      vertex 0.5555702330196013 0 -0.8314696123025449
      vertex -0.6087614290087231 0 -0.7933533402912349
      vertex 0.6087614290087231 0 -0.7933533402912349
    endloop
  endfacet
  facet normal 0 1 0
    outer loop
      vertex 0.5555702330196013 0 -0.8314696123025449
      vertex -0.5555702330196013 0 -0.8314696123025449
      vertex -0.6087614290087231 0 -0.7933533402912349
    endloop
  endfacet
  facet normal 0 1 0
    outer loop
      vertex 0.5 0 -0.8660254037844384
      vertex -0.5555702330196013 0 -0.8314696123025449
      vertex 0.5555702330196013 0 -0.8314696123025449
    endloop
  endfacet
  facet normal 0 1 0
    outer loop
      vertex 0.5 0 -0.8660254037844384
      vertex -0.5 0 -0.8660254037844384
      vertex -0.5555702330196013 0 -0.8314696123025449
    endloop
  endfacet
  facet normal 0 1 0
    outer loop
      vertex 0.4422886902190015 0 -0.8968727415326878
      vertex -0.5 0 -0.8660254037844384
      vertex 0.5 0 -0.8660254037844384
    endloop
  endfacet
  facet normal 0 1 0
    outer loop
      vertex 0.4422886902190015 0 -0.8968727415326878
      vertex -0.4422886902190015 0 -0.8968727415326878
      vertex -0.5 0 -0.8660254037844384
    endloop
  endfacet
  facet normal 0 1 0
    outer loop
      vertex 0.3826834323650914 0 -0.923879532511287
      vertex -0.4422886902190015 0 -0.8968727415326878
      vertex 0.4422886902190015 0 -0.8968727415326878
    endloop
  endfacet
  facet normal 0 1 0
    outer loop
      vertex 0.3826834323650914 0 -0.923879532511287
      vertex -0.3826834323650914 0 -0.923879532511287
      vertex -0.4422886902190015 0 -0.8968727415326878
    endloop
  endfacet
  facet normal 0 1 0
    outer loop
      vertex 0.3214394653031647 0 -0.9469301294951054
      vertex -0.3826834323650914 0 -0.923879532511287
      vertex 0.3826834323650914 0 -0.923879532511287
    endloop
  endfacet
  facet normal 0 1 0
    outer loop
      vertex 0.3214394653031647 0 -0.9469301294951054
      vertex -0.3214394653031647 0 -0.9469301294951054
      vertex -0.3826834323650914 0 -0.923879532511287
    endloop
  endfacet
  facet normal 0 1 0
    outer loop
      vertex 0.25881904510251985 0 -0.9659258262890686
      vertex -0.3214394653031647 0 -0.9469301294951054
      vertex 0.3214394653031647 0 -0.9469301294951054
    endloop
  endfacet
  facet normal 0 1 0
    outer loop
      vertex 0.25881904510251985 0 -0.9659258262890686
      vertex -0.25881904510251985 0 -0.9659258262890686
      vertex -0.3214394653031647 0 -0.9469301294951054
    endloop
  endfacet
  facet normal 0 1 0
    outer loop
      vertex 0.19509032201612797 0 -0.9807852804032304
      vertex -0.25881904510251985 0 -0.9659258262890686
      vertex 0.25881904510251985 0 -0.9659258262890686
    endloop
  endfacet
  facet normal 0 1 0
    outer loop
      vertex 0.19509032201612797 0 -0.9807852804032304
      vertex -0.19509032201612797 0 -0.9807852804032304
      vertex -0.25881904510251985 0 -0.9659258262890686
    endloop
  endfacet
  facet normal 0 1 0
    outer loop
      vertex 0.1305261922200529 0 -0.99144486137381
      vertex -0.19509032201612797 0 -0.9807852804032304
      vertex 0.19509032201612797 0 -0.9807852804032304
    endloop
  endfacet
  facet normal 0 1 0
    outer loop
      vertex 0.1305261922200529 0 -0.99144486137381
      vertex -0.1305261922200529 0 -0.99144486137381
      vertex -0.19509032201612797 0 -0.9807852804032304
    endloop
  endfacet
  facet normal 0 1 0
    outer loop
      vertex 0.06540312923014113 0 -0.9978589232386037
      vertex -0.1305261922200529 0 -0.99144486137381
      vertex 0.1305261922200529 0 -0.99144486137381
    endloop
  endfacet
  facet normal 0 1 0
    outer loop
      vertex 0.06540312923014113 0 -0.9978589232386037
      vertex -0.06540312923014113 0 -0.9978589232386037
      vertex -0.1305261922200529 0 -0.99144486137381
    endloop
  endfacet
  facet normal 0 1 0
    outer loop
      vertex -0.06540312923014113 0 -0.9978589232386037
      vertex 0.06540312923014113 0 -0.9978589232386037
      vertex 0 0 -1
    endloop
  endfacet
  facet normal 0 -1 0
    outer loop
      vertex -0.06540312923014113 -8 0.9978589232386028
      vertex 0.06540312923014113 -8 0.9978589232386028
      vertex 0 -8 1
    endloop
  endfacet
  facet normal 0 -1 0
    outer loop
      vertex -0.1305261922200529 -8 0.9914448613738109
      vertex 0.06540312923014113 -8 0.9978589232386028
      vertex -0.06540312923014113 -8 0.9978589232386028
    endloop
  endfacet
  facet normal 0 -1 0
    outer loop
      vertex -0.1305261922200529 -8 0.9914448613738109
      vertex 0.1305261922200529 -8 0.9914448613738109
      vertex 0.06540312923014113 -8 0.9978589232386028
    endloop
  endfacet
  facet normal 0 -1 0
    outer loop
      vertex -0.19509032201612797 -8 0.9807852804032304
      vertex 0.1305261922200529 -8 0.9914448613738109
      vertex -0.1305261922200529 -8 0.9914448613738109
    endloop
  endfacet
  facet normal 0 -1 0
    outer loop
      vertex -0.19509032201612797 -8 0.9807852804032304
      vertex 0.19509032201612797 -8 0.9807852804032304
      vertex 0.1305261922200529 -8 0.9914448613738109
    endloop
  endfacet
  facet normal 0 -1 0
    outer loop
      vertex -0.25881904510251985 -8 0.9659258262890678
      vertex 0.19509032201612797 -8 0.9807852804032304
      vertex -0.19509032201612797 -8 0.9807852804032304
    endloop
  endfacet
  facet normal 0 -1 0
    outer loop
      vertex -0.25881904510251985 -8 0.9659258262890678
      vertex 0.25881904510251985 -8 0.9659258262890678
      vertex 0.19509032201612797 -8 0.9807852804032304
    endloop
  endfacet
  facet normal 0 -1 0
    outer loop
      vertex -0.3214394653031647 -8 0.9469301294951062
      vertex 0.25881904510251985 -8 0.9659258262890678
      vertex -0.25881904510251985 -8 0.9659258262890678
    endloop
  endfacet
  facet normal 0 -1 0
    outer loop
      vertex -0.3214394653031647 -8 0.9469301294951062
      vertex 0.3214394653031647 -8 0.9469301294951062
      vertex 0.25881904510251985 -8 0.9659258262890678
    endloop
  endfacet
  facet normal 0 -1 0
    outer loop
      vertex -0.3826834323650914 -8 0.9238795325112861
      vertex 0.3214394653031647 -8 0.9469301294951062
      vertex -0.3214394653031647 -8 0.9469301294951062
    endloop
  endfacet
  facet normal 0 -1 0
    outer loop
      vertex -0.3826834323650914 -8 0.9238795325112861
      vertex 0.3826834323650914 -8 0.9238795325112861
      vertex 0.3214394653031647 -8 0.9469301294951062
    endloop
  endfacet
  facet normal 0 -1 0
    outer loop
      vertex -0.4422886902190015 -8 0.8968727415326878
      vertex 0.3826834323650914 -8 0.9238795325112861
      vertex -0.3826834323650914 -8 0.9238795325112861
    endloop
  endfacet
  facet normal 0 -1 0
    outer loop
      vertex -0.4422886902190015 -8 0.8968727415326878
      vertex 0.4422886902190015 -8 0.8968727415326878
      vertex 0.3826834323650914 -8 0.9238795325112861
    endloop
  endfacet
  facet normal 0 -1 0
    outer loop
      vertex -0.5 -8 0.8660254037844393
      vertex 0.4422886902190015 -8 0.8968727415326878
      vertex -0.4422886902190015 -8 0.8968727415326878
    endloop
  endfacet
  facet normal 0 -1 0
    outer loop
      vertex -0.5 -8 0.8660254037844393
      vertex 0.5 -8 0.8660254037844393
      vertex 0.4422886902190015 -8 0.8968727415326878
    endloop
  endfacet
  facet normal 0 -1 0
    outer loop
      vertex -0.5555702330196013 -8 0.8314696123025449
      vertex 0.5 -8 0.8660254037844393
      vertex -0.5 -8 0.8660254037844393
    endloop
  endfacet
  facet normal 0 -1 0
    outer loop
      vertex -0.5555702330196013 -8 0.8314696123025449
      vertex 0.5555702330196013 -8 0.8314696123025449
      vertex 0.5 -8 0.8660254037844393
    endloop
  endfacet
  facet normal 0 -1 0
    outer loop
      vertex -0.6087614290087231 -8 0.7933533402912349
      vertex 0.5555702330196013 -8 0.8314696123025449
      vertex -0.5555702330196013 -8 0.8314696123025449
    endloop
  endfacet
  facet normal 0 -1 0
    outer loop
      vertex -0.6087614290087231 -8 0.7933533402912349
      vertex 0.6087614290087231 -8 0.7933533402912349
      vertex 0.5555702330196013 -8 0.8314696123025449
    endloop
  endfacet
  facet normal 0 -1 0
    outer loop
      vertex -0.6593458151000675 -8 0.7518398074789783
      vertex 0.6087614290087231 -8 0.7933533402912349
      vertex -0.6087614290087231 -8 0.7933533402912349
    endloop
  endfacet
  facet normal 0 -1 0
    outer loop
      vertex -0.6593458151000675 -8 0.7518398074789783
      vertex 0.6593458151000675 -8 0.7518398074789783
      vertex 0.6087614290087231 -8 0.7933533402912349
    endloop
  endfacet
  facet normal 0 -1 0
    outer loop
      vertex -0.7071067811865461 -8 0.7071067811865479
      vertex 0.6593458151000675 -8 0.7518398074789783
      vertex -0.6593458151000675 -8 0.7518398074789783
    endloop
  endfacet
  facet normal 0 -1 0
    outer loop
      vertex -0.7071067811865461 -8 0.7071067811865479
      vertex 0.7071067811865461 -8 0.7071067811865479
      vertex 0.6593458151000675 -8 0.7518398074789783
    endloop
  endfacet
  facet normal 0 -1 0
    outer loop
      vertex -0.75183980747898 -8 0.6593458151000693
      vertex 0.7071067811865461 -8 0.7071067811865479
      vertex -0.7071067811865461 -8 0.7071067811865479
    endloop
  endfacet
  facet normal 0 -1 0
    outer loop
      vertex -0.75183980747898 -8 0.6593458151000693
      vertex 0.75183980747898 -8 0.6593458151000693
      vertex 0.7071067811865461 -8 0.7071067811865479
    endloop
  endfacet
  facet normal 0 -1 0
    outer loop
      vertex -0.7933533402912332 -8 0.6087614290087213
      vertex 0.75183980747898 -8 0.6593458151000693
      vertex -0.75183980747898 -8 0.6593458151000693
    endloop
  endfacet
  facet normal 0 -1 0
    outer loop
      vertex -0.7933533402912332 -8 0.6087614290087213
      vertex 0.7933533402912332 -8 0.6087614290087213
      vertex 0.75183980747898 -8 0.6593458151000693
    endloop
  endfacet
  facet normal 0 -1 0
    outer loop
      vertex -0.8314696123025485 -8 0.5555702330196013
      vertex 0.7933533402912332 -8 0.6087614290087213
      vertex -0.7933533402912332 -8 0.6087614290087213
    endloop
  endfacet
  facet normal 0 -1 0
    outer loop
      vertex -0.8314696123025485 -8 0.5555702330196013
      vertex 0.8314696123025485 -8 0.5555702330196013
      vertex 0.7933533402912332 -8 0.6087614290087213
    endloop
  endfacet
  facet normal 0 -1 0
    outer loop
      vertex -0.866025403784441 -8 0.5
      vertex 0.8314696123025485 -8 0.5555702330196013
      vertex -0.8314696123025485 -8 0.5555702330196013
    endloop
  endfacet
  facet normal 0 -1 0
    outer loop
      vertex -0.866025403784441 -8 0.5
      vertex 0.866025403784441 -8 0.5
      vertex 0.8314696123025485 -8 0.5555702330196013
    endloop
  endfacet
  facet normal 0 -1 0
    outer loop
      vertex -0.8968727415326896 -8 0.4422886902190015
      vertex 0.866025403784441 -8 0.5
      vertex -0.866025403784441 -8 0.5
    endloop
  endfacet
  facet normal 0 -1 0
    outer loop
      vertex -0.8968727415326896 -8 0.4422886902190015
      vertex 0.8968727415326896 -8 0.4422886902190015
      vertex 0.866025403784441 -8 0.5
    endloop
  endfacet
  facet normal 0 -1 0
    outer loop
      vertex -0.9238795325112861 -8 0.3826834323650896
      vertex 0.8968727415326896 -8 0.4422886902190015
      vertex -0.8968727415326896 -8 0.4422886902190015
    endloop
  endfacet
  facet normal 0 -1 0
    outer loop
      vertex -0.9238795325112861 -8 0.3826834323650896
      vertex 0.9238795325112861 -8 0.3826834323650896
      vertex 0.8968727415326896 -8 0.4422886902190015
    endloop
  endfacet
  facet normal 0 -1 0
    outer loop
      vertex -0.946930129495108 -8 0.32143946530316114
      vertex 0.9238795325112861 -8 0.3826834323650896
      vertex -0.9238795325112861 -8 0.3826834323650896
    endloop
  endfacet
  facet normal 0 -1 0
    outer loop
      vertex -0.946930129495108 -8 0.32143946530316114
      vertex 0.946930129495108 -8 0.32143946530316114
      vertex 0.9238795325112861 -8 0.3826834323650896
    endloop
  endfacet
  facet normal 0 -1 0
    outer loop
      vertex -0.965925826289066 -8 0.25881904510251985
      vertex 0.946930129495108 -8 0.32143946530316114
      vertex -0.946930129495108 -8 0.32143946530316114
    endloop
  endfacet
  facet normal 0 -1 0
    outer loop
      vertex -0.965925826289066 -8 0.25881904510251985
      vertex 0.965925826289066 -8 0.25881904510251985
      vertex 0.946930129495108 -8 0.32143946530316114
    endloop
  endfacet
  facet normal 0 -1 0
    outer loop
      vertex -0.9807852804032322 -8 0.19509032201612797
      vertex 0.965925826289066 -8 0.25881904510251985
      vertex -0.965925826289066 -8 0.25881904510251985
    endloop
  endfacet
  facet normal 0 -1 0
    outer loop
      vertex -0.9807852804032322 -8 0.19509032201612797
      vertex 0.9807852804032322 -8 0.19509032201612797
      vertex 0.965925826289066 -8 0.25881904510251985
    endloop
  endfacet
  facet normal 0 -1 0
    outer loop
      vertex -0.9914448613738074 -8 0.13052619222005113
      vertex 0.9807852804032322 -8 0.19509032201612797
      vertex -0.9807852804032322 -8 0.19509032201612797
    endloop
  endfacet
  facet normal 0 -1 0
    outer loop
      vertex -0.9914448613738074 -8 0.13052619222005113
      vertex 0.9914448613738074 -8 0.13052619222005113
      vertex 0.9807852804032322 -8 0.19509032201612797
    endloop
  endfacet
  facet normal 0 -1 0
    outer loop
      vertex -0.9978589232386028 -8 0.06540312923014291
      vertex 0.9914448613738074 -8 0.13052619222005113
      vertex -0.9914448613738074 -8 0.13052619222005113
    endloop
  endfacet
  facet normal 0 -1 0
    outer loop
      vertex -0.9978589232386028 -8 0.06540312923014291
      vertex 0.9978589232386028 -8 0.06540312923014291
      vertex 0.9914448613738074 -8 0.13052619222005113
    endloop
  endfacet
  facet normal 0 -1 0
    outer loop
      vertex -1 -8 0
      vertex 0.9978589232386028 -8 0.06540312923014291
      vertex -0.9978589232386028 -8 0.06540312923014291
    endloop
  endfacet
  facet normal 0 -1 0
    outer loop
      vertex -1 -8 0
      vertex 1 -8 0
      vertex 0.9978589232386028 -8 0.06540312923014291
    endloop
  endfacet
  facet normal 0 -1 0
    outer loop
      vertex -0.9978589232386028 -8 -0.06540312923014291
      vertex 1 -8 0
      vertex -1 -8 0
    endloop
  endfacet
  facet normal 0 -1 0
    outer loop
      vertex -0.9978589232386028 -8 -0.06540312923014291
      vertex 0.9978589232386028 -8 -0.06540312923014291
      vertex 1 -8 0
    endloop
  endfacet
  facet normal 0 -1 0
    outer loop
      vertex -0.9914448613738074 -8 -0.13052619222005113
      vertex 0.9978589232386028 -8 -0.06540312923014291
      vertex -0.9978589232386028 -8 -0.06540312923014291
    endloop
  endfacet
  facet normal 0 -1 0
    outer loop
      vertex -0.9914448613738074 -8 -0.13052619222005113
      vertex 0.9914448613738074 -8 -0.13052619222005113
      vertex 0.9978589232386028 -8 -0.06540312923014291
    endloop
  endfacet
  facet normal 0 -1 0
    outer loop
      vertex -0.9807852804032322 -8 -0.19509032201612797
      vertex 0.9914448613738074 -8 -0.13052619222005113
      vertex -0.9914448613738074 -8 -0.13052619222005113
    endloop
  endfacet
  facet normal 0 -1 0
    outer loop
      vertex -0.9807852804032322 -8 -0.19509032201612797
      vertex 0.9807852804032322 -8 -0.19509032201612797
      vertex 0.9914448613738074 -8 -0.13052619222005113
    endloop
  endfacet
  facet normal 0 -1 0
    outer loop
      vertex -0.965925826289066 -8 -0.25881904510251985
      vertex 0.9807852804032322 -8 -0.19509032201612797
      vertex -0.9807852804032322 -8 -0.19509032201612797
    endloop
  endfacet
  facet normal 0 -1 0
    outer loop
      vertex -0.965925826289066 -8 -0.25881904510251985
      vertex 0.965925826289066 -8 -0.25881904510251985
      vertex 0.9807852804032322 -8 -0.19509032201612797
    endloop
  endfacet
  facet normal 0 -1 0
    outer loop
      vertex -0.946930129495108 -8 -0.32143946530316114
      vertex 0.965925826289066 -8 -0.25881904510251985
      vertex -0.965925826289066 -8 -0.25881904510251985
    endloop
  endfacet
  facet normal 0 -1 0
    outer loop
      vertex -0.946930129495108 -8 -0.32143946530316114
      vertex 0.946930129495108 -8 -0.32143946530316114
      vertex 0.965925826289066 -8 -0.25881904510251985
    endloop
  endfacet
  facet normal 0 -1 0
    outer loop
      vertex -0.9238795325112861 -8 -0.3826834323650896
      vertex 0.946930129495108 -8 -0.32143946530316114
      vertex -0.946930129495108 -8 -0.32143946530316114
    endloop
  endfacet
  facet normal 0 -1 0
    outer loop
      vertex -0.9238795325112861 -8 -0.3826834323650896
      vertex 0.9238795325112861 -8 -0.3826834323650896
      vertex 0.946930129495108 -8 -0.32143946530316114
    endloop
  endfacet
  facet normal 0 -1 0
    outer loop
      vertex -0.8968727415326896 -8 -0.4422886902190015
      vertex 0.9238795325112861 -8 -0.3826834323650896
      vertex -0.9238795325112861 -8 -0.3826834323650896
    endloop
  endfacet
  facet normal 0 -1 0
    outer loop
      vertex -0.8968727415326896 -8 -0.4422886902190015
      vertex 0.8968727415326896 -8 -0.4422886902190015
      vertex 0.9238795325112861 -8 -0.3826834323650896
    endloop
  endfacet
  facet normal 0 -1 0
    outer loop
      vertex -0.866025403784441 -8 -0.5
      vertex 0.8968727415326896 -8 -0.4422886902190015
      vertex -0.8968727415326896 -8 -0.4422886902190015
    endloop
  endfacet
  facet normal 0 -1 0
    outer loop
      vertex -0.866025403784441 -8 -0.5
      vertex 0.866025403784441 -8 -0.5
      vertex 0.8968727415326896 -8 -0.4422886902190015
    endloop
  endfacet
  facet normal 0 -1 0
    outer loop
      vertex -0.8314696123025485 -8 -0.5555702330196013
      vertex 0.866025403784441 -8 -0.5
      vertex -0.866025403784441 -8 -0.5
    endloop
  endfacet
  facet normal 0 -1 0
    outer loop
      vertex -0.8314696123025485 -8 -0.5555702330196013
      vertex 0.8314696123025485 -8 -0.5555702330196013
      vertex 0.866025403784441 -8 -0.5
    endloop
  endfacet
  facet normal 0 -1 0
    outer loop
      vertex -0.7933533402912332 -8 -0.6087614290087213
      vertex 0.8314696123025485 -8 -0.5555702330196013
      vertex -0.8314696123025485 -8 -0.5555702330196013
    endloop
  endfacet
  facet normal 0 -1 0
    outer loop
      vertex -0.7933533402912332 -8 -0.6087614290087213
      vertex 0.7933533402912332 -8 -0.6087614290087213
      vertex 0.8314696123025485 -8 -0.5555702330196013
    endloop
  endfacet
  facet normal 0 -1 0
    outer loop
      vertex -0.75183980747898 -8 -0.6593458151000693
      vertex 0.7933533402912332 -8 -0.6087614290087213
      vertex -0.7933533402912332 -8 -0.6087614290087213
    endloop
  endfacet
  facet normal 0 -1 0
    outer loop
      vertex -0.75183980747898 -8 -0.6593458151000693
      vertex 0.75183980747898 -8 -0.6593458151000693
      vertex 0.7933533402912332 -8 -0.6087614290087213
    endloop
  endfacet
  facet normal 0 -1 0
    outer loop
      vertex -0.7071067811865461 -8 -0.7071067811865479
      vertex 0.75183980747898 -8 -0.6593458151000693
      vertex -0.75183980747898 -8 -0.6593458151000693
    endloop
  endfacet
  facet normal 0 -1 0
    outer loop
      vertex -0.7071067811865461 -8 -0.7071067811865479
      vertex 0.7071067811865461 -8 -0.7071067811865479
      vertex 0.75183980747898 -8 -0.6593458151000693
    endloop
  endfacet
  facet normal 0 -1 0
    outer loop
      vertex -0.6593458151000675 -8 -0.7518398074789774
      vertex 0.7071067811865461 -8 -0.7071067811865479
      vertex -0.7071067811865461 -8 -0.7071067811865479
    endloop
  endfacet
  facet normal 0 -1 0
    outer loop
      vertex -0.6593458151000675 -8 -0.7518398074789774
      vertex 0.6593458151000675 -8 -0.7518398074789774
      vertex 0.7071067811865461 -8 -0.7071067811865479
    endloop
  endfacet
  facet normal 0 -1 0
    outer loop
      vertex -0.6087614290087231 -8 -0.7933533402912349
      vertex 0.6593458151000675 -8 -0.7518398074789774
      vertex -0.6593458151000675 -8 -0.7518398074789774
    endloop
  endfacet
  facet normal 0 -1 0
    outer loop
      vertex -0.6087614290087231 -8 -0.7933533402912349
      vertex 0.6087614290087231 -8 -0.7933533402912349
      vertex 0.6593458151000675 -8 -0.7518398074789774
    endloop
  endfacet
  facet normal 0 -1 0
    outer loop
      vertex -0.5555702330196013 -8 -0.8314696123025449
      vertex 0.6087614290087231 -8 -0.7933533402912349
      vertex -0.6087614290087231 -8 -0.7933533402912349
    endloop
  endfacet
  facet normal 0 -1 0
    outer loop
      vertex -0.5555702330196013 -8 -0.8314696123025449
      vertex 0.5555702330196013 -8 -0.8314696123025449
      vertex 0.6087614290087231 -8 -0.7933533402912349
    endloop
  endfacet
  facet normal 0 -1 0
    outer loop
      vertex -0.5 -8 -0.8660254037844384
      vertex 0.5555702330196013 -8 -0.8314696123025449
      vertex -0.5555702330196013 -8 -0.8314696123025449
    endloop
  endfacet
  facet normal 0 -1 0
    outer loop
      vertex -0.5 -8 -0.8660254037844384
      vertex 0.5 -8 -0.8660254037844384
      vertex 0.5555702330196013 -8 -0.8314696123025449
    endloop
  endfacet
  facet normal 0 -1 0
    outer loop
      vertex -0.4422886902190015 -8 -0.8968727415326878
      vertex 0.5 -8 -0.8660254037844384
      vertex -0.5 -8 -0.8660254037844384
    endloop
  endfacet
  facet normal 0 -1 0
    outer loop
      vertex -0.4422886902190015 -8 -0.8968727415326878
      vertex 0.4422886902190015 -8 -0.8968727415326878
      vertex 0.5 -8 -0.8660254037844384
    endloop
  endfacet
  facet normal 0 -1 0
    outer loop
      vertex -0.3826834323650914 -8 -0.923879532511287
      vertex 0.4422886902190015 -8 -0.8968727415326878
      vertex -0.4422886902190015 -8 -0.8968727415326878
    endloop
  endfacet
  facet normal 0 -1 0
    outer loop
      vertex -0.3826834323650914 -8 -0.923879532511287
      vertex 0.3826834323650914 -8 -0.923879532511287
      vertex 0.4422886902190015 -8 -0.8968727415326878
    endloop
  endfacet
  facet normal 0 -1 0
    outer loop
      vertex -0.3214394653031647 -8 -0.9469301294951054
      vertex 0.3826834323650914 -8 -0.923879532511287
      vertex -0.3826834323650914 -8 -0.923879532511287
    endloop
  endfacet
  facet normal 0 -1 0
    outer loop
      vertex -0.3214394653031647 -8 -0.9469301294951054
      vertex 0.3214394653031647 -8 -0.9469301294951054
      vertex 0.3826834323650914 -8 -0.923879532511287
    endloop
  endfacet
  facet normal 0 -1 0
    outer loop
      vertex -0.25881904510251985 -8 -0.9659258262890686
      vertex 0.3214394653031647 -8 -0.9469301294951054
      vertex -0.3214394653031647 -8 -0.9469301294951054
    endloop
  endfacet
  facet normal 0 -1 0
    outer loop
      vertex -0.25881904510251985 -8 -0.9659258262890686
      vertex 0.25881904510251985 -8 -0.9659258262890686
      vertex 0.3214394653031647 -8 -0.9469301294951054
    endloop
  endfacet
  facet normal 0 -1 0
    outer loop
      vertex -0.19509032201612797 -8 -0.9807852804032304
      vertex 0.25881904510251985 -8 -0.9659258262890686
      vertex -0.25881904510251985 -8 -0.9659258262890686
    endloop
  endfacet
  facet normal 0 -1 0
    outer loop
      vertex -0.19509032201612797 -8 -0.9807852804032304
      vertex 0.19509032201612797 -8 -0.9807852804032304
      vertex 0.25881904510251985 -8 -0.9659258262890686
    endloop
  endfacet
  facet normal 0 -1 0
    outer loop
      vertex -0.1305261922200529 -8 -0.99144486137381
      vertex 0.19509032201612797 -8 -0.9807852804032304
      vertex -0.19509032201612797 -8 -0.9807852804032304
    endloop
  endfacet
  facet normal 0 -1 0
    outer loop
      vertex -0.1305261922200529 -8 -0.99144486137381
      vertex 0.1305261922200529 -8 -0.99144486137381
      vertex 0.19509032201612797 -8 -0.9807852804032304
    endloop
  endfacet
  facet normal 0 -1 0
    outer loop
      vertex -0.06540312923014113 -8 -0.9978589232386037
      vertex 0.1305261922200529 -8 -0.99144486137381
      vertex -0.1305261922200529 -8 -0.99144486137381
    endloop
  endfacet
  facet normal 0 -1 0
    outer loop
      vertex -0.06540312923014113 -8 -0.9978589232386037
      vertex 0.06540312923014113 -8 -0.9978589232386037
      vertex 0.1305261922200529 -8 -0.99144486137381
    endloop
  endfacet
  facet normal 0 -1 0
    outer loop
      vertex 0.06540312923014113 -8 -0.9978589232386037
      vertex -0.06540312923014113 -8 -0.9978589232386037
      vertex 0 -8 -1
    endloop
  endfacet
endsolid OpenSCAD_Model
