solid OpenSCAD_Model
  facet normal -0.9994645891331833 -0.03271903221119391 0
    outer loop
      vertex 0.0021410733461380005 0.934596873819828 0
      vertex 0 1 0.8
      vertex 0 1 0
    endloop
  endfacet
  facet normal -0.9994645891331833 -0.03271903221119391 0
    outer loop
      vertex 0.0021410733461380005 0.934596873819828 0
      vertex 0.0021410733461380005 0.934596873819828 0.8
      vertex 0 1 0.8
    endloop
  endfacet
  facet normal -0.9951847250571568 -0.09801715672733671 0
    outer loop
      vertex 0.008555136620998383 0.8694738075137138 0
      vertex 0.0021410733461380005 0.934596873819828 0.8
      vertex 0.0021410733461380005 0.934596873819828 0
    endloop
  endfacet
  facet normal -0.9951847250571568 -0.09801715672733671 0
    outer loop
      vertex 0.008555136620998383 0.8694738075137138 0
      vertex 0.008555136620998383 0.8694738075137138 0.8
      vertex 0.0021410733461380005 0.934596873819828 0.8
    endloop
  endfacet
  facet normal -0.986643327883793 -0.16289549884018892 0
    outer loop
      vertex 0.019214719533920288 0.8049096763134003 0
      vertex 0.008555136620998383 0.8694738075137138 0.8
      vertex 0.008555136620998383 0.8694738075137138 0
    endloop
  endfacet
  facet normal -0.986643327883793 -0.16289549884018892 0
    outer loop
      vertex 0.019214719533920288 0.8049096763134003 0
      vertex 0.019214719533920288 0.8049096763134003 0.8
      vertex 0.008555136620998383 0.8694738075137138 0.8
    endloop
  endfacet
  facet normal -0.9738769810992816 -0.22707625522046462 0
    outer loop
      vertex 0.034074172377586365 0.741180956363678 0
      vertex 0.019214719533920288 0.8049096763134003 0.8
      vertex 0.019214719533920288 0.8049096763134003 0
    endloop
  endfacet
  facet normal -0.9738769810992816 -0.22707625522046462 0
    outer loop
      vertex 0.034074172377586365 0.741180956363678 0
      vertex 0.034074172377586365 0.741180956363678 0.8
      vertex 0.019214719533920288 0.8049096763134003 0.8
    endloop
  endfacet
  facet normal -0.9569403486783583 -0.29028463457672393 0
    outer loop
      vertex 0.05306986719369888 0.6785605326294899 0
      vertex 0.034074172377586365 0.741180956363678 0.8
      vertex 0.034074172377586365 0.741180956363678 0
    endloop
  endfacet
  facet normal -0.9569403486783583 -0.29028463457672393 0
    outer loop
      vertex 0.05306986719369888 0.6785605326294899 0
      vertex 0.05306986719369888 0.6785605326294899 0.8
      vertex 0.034074172377586365 0.741180956363678 0.8
    endloop
  endfacet
  facet normal -0.9359059160136282 -0.3522500764665521 0
    outer loop
      vertex 0.07612046599388123 0.6173165664076805 0
      vertex 0.05306986719369888 0.6785605326294899 0.8
      vertex 0.05306986719369888 0.6785605326294899 0
    endloop
  endfacet
  facet normal -0.9359059160136282 -0.3522500764665521 0
    outer loop
      vertex 0.07612046599388123 0.6173165664076805 0
      vertex 0.07612046599388123 0.6173165664076805 0.8
      vertex 0.05306986719369888 0.6785605326294899 0.8
    endloop
  endfacet
  facet normal -0.9108638247555648 -0.4127070301699062 0
    outer loop
      vertex 0.10312725603580475 0.5577113106846809 0
      vertex 0.07612046599388123 0.6173165664076805 0.8
      vertex 0.07612046599388123 0.6173165664076805 0
    endloop
  endfacet
  facet normal -0.9108638247555648 -0.4127070301699062 0
    outer loop
      vertex 0.10312725603580475 0.5577113106846809 0
      vertex 0.10312725603580475 0.5577113106846809 0.8
      vertex 0.07612046599388123 0.6173165664076805 0.8
    endloop
  endfacet
  facet normal -0.8819212478878576 -0.47139676762142113 0
    outer loop
      vertex 0.1339745968580246 0.5 0
      vertex 0.10312725603580475 0.5577113106846809 0.8
      vertex 0.10312725603580475 0.5577113106846809 0
    endloop
  endfacet
  facet normal -0.8819212478878576 -0.47139676762142113 0
    outer loop
      vertex 0.1339745968580246 0.5 0
      vertex 0.1339745968580246 0.5 0.8
      vertex 0.10312725603580475 0.5577113106846809 0.8
    endloop
  endfacet
  facet normal -0.8492021590903005 -0.5280678867308368 0
    outer loop
      vertex 0.1685303896665573 0.44442977011203766 0
      vertex 0.1339745968580246 0.5 0.8
      vertex 0.1339745968580246 0.5 0
    endloop
  endfacet
  facet normal -0.8492021590903005 -0.5280678867308368 0
    outer loop
      vertex 0.1685303896665573 0.44442977011203766 0
      vertex 0.1685303896665573 0.44442977011203766 0.8
      vertex 0.1339745968580246 0.5 0.8
    endloop
  endfacet
  facet normal -0.8128467279982358 -0.5824776362939285 0
    outer loop
      vertex 0.2066466584801674 0.39123857021331787 0
      vertex 0.1685303896665573 0.44442977011203766 0.8
      vertex 0.1685303896665573 0.44442977011203766 0
    endloop
  endfacet
  facet normal -0.8128467279982358 -0.5824776362939285 0
    outer loop
      vertex 0.2066466584801674 0.39123857021331787 0
      vertex 0.2066466584801674 0.39123857021331787 0.8
      vertex 0.1685303896665573 0.44442977011203766 0.8
    endloop
  endfacet
  facet normal -0.7730104393386426 -0.6343933012520536 0
    outer loop
      vertex 0.24816019088029861 0.3406541869044304 0
      vertex 0.2066466584801674 0.39123857021331787 0.8
      vertex 0.2066466584801674 0.39123857021331787 0
    endloop
  endfacet
  facet normal -0.7730104393386426 -0.6343933012520536 0
    outer loop
      vertex 0.24816019088029861 0.3406541869044304 0
      vertex 0.24816019088029861 0.3406541869044304 0.8
      vertex 0.2066466584801674 0.39123857021331787 0.8
    endloop
  endfacet
  facet normal -0.7298641158391919 -0.683592255961311 0
    outer loop
      vertex 0.2928932160139084 0.2928932160139084 0
      vertex 0.24816019088029861 0.3406541869044304 0.8
      vertex 0.24816019088029861 0.3406541869044304 0
    endloop
  endfacet
  facet normal -0.7298641158391919 -0.683592255961311 0
    outer loop
      vertex 0.2928932160139084 0.2928932160139084 0
      vertex 0.2928932160139084 0.2928932160139084 0.8
      vertex 0.24816019088029861 0.3406541869044304 0.8
    endloop
  endfacet
  facet normal -0.683592255961311 -0.7298641158391919 0
    outer loop
      vertex 0.3406541869044304 0.24816019088029861 0
      vertex 0.2928932160139084 0.2928932160139084 0.8
      vertex 0.2928932160139084 0.2928932160139084 0
    endloop
  endfacet
  facet normal -0.683592255961311 -0.7298641158391919 0
    outer loop
      vertex 0.3406541869044304 0.24816019088029861 0
      vertex 0.3406541869044304 0.24816019088029861 0.8
      vertex 0.2928932160139084 0.2928932160139084 0.8
    endloop
  endfacet
  facet normal -0.6343933012520536 -0.7730104393386426 0
    outer loop
      vertex 0.39123857021331787 0.2066466584801674 0
      vertex 0.3406541869044304 0.24816019088029861 0.8
      vertex 0.3406541869044304 0.24816019088029861 0
    endloop
  endfacet
  facet normal -0.6343933012520536 -0.7730104393386426 0
    outer loop
      vertex 0.39123857021331787 0.2066466584801674 0
      vertex 0.39123857021331787 0.2066466584801674 0.8
      vertex 0.3406541869044304 0.24816019088029861 0.8
    endloop
  endfacet
  facet normal -0.5824776362939285 -0.8128467279982358 0
    outer loop
      vertex 0.44442977011203766 0.1685303896665573 0
      vertex 0.39123857021331787 0.2066466584801674 0.8
      vertex 0.39123857021331787 0.2066466584801674 0
    endloop
  endfacet
  facet normal -0.5824776362939285 -0.8128467279982358 0
    outer loop
      vertex 0.44442977011203766 0.1685303896665573 0
      vertex 0.44442977011203766 0.1685303896665573 0.8
      vertex 0.39123857021331787 0.2066466584801674 0.8
    endloop
  endfacet
  facet normal -0.5280678867308368 -0.8492021590903005 0
    outer loop
      vertex 0.5 0.1339745968580246 0
      vertex 0.44442977011203766 0.1685303896665573 0.8
      vertex 0.44442977011203766 0.1685303896665573 0
    endloop
  endfacet
  facet normal -0.5280678867308368 -0.8492021590903005 0
    outer loop
      vertex 0.5 0.1339745968580246 0
      vertex 0.5 0.1339745968580246 0.8
      vertex 0.44442977011203766 0.1685303896665573 0.8
    endloop
  endfacet
  facet normal -0.47139676762142113 -0.8819212478878576 0
    outer loop
      vertex 0.5577113106846809 0.10312725603580475 0
      vertex 0.5 0.1339745968580246 0.8
      vertex 0.5 0.1339745968580246 0
    endloop
  endfacet
  facet normal -0.47139676762142113 -0.8819212478878576 0
    outer loop
      vertex 0.5577113106846809 0.10312725603580475 0
      vertex 0.5577113106846809 0.10312725603580475 0.8
      vertex 0.5 0.1339745968580246 0.8
    endloop
  endfacet
  facet normal -0.4127070301699062 -0.9108638247555648 0
    outer loop
      vertex 0.6173165664076805 0.07612046599388123 0
      vertex 0.5577113106846809 0.10312725603580475 0.8
      vertex 0.5577113106846809 0.10312725603580475 0
    endloop
  endfacet
  facet normal -0.4127070301699062 -0.9108638247555648 0
    outer loop
      vertex 0.6173165664076805 0.07612046599388123 0
      vertex 0.6173165664076805 0.07612046599388123 0.8
      vertex 0.5577113106846809 0.10312725603580475 0.8
    endloop
  endfacet
  facet normal -0.3522500764665521 -0.9359059160136282 0
    outer loop
      vertex 0.6785605326294899 0.05306986719369888 0
      vertex 0.6173165664076805 0.07612046599388123 0.8
      vertex 0.6173165664076805 0.07612046599388123 0
    endloop
  endfacet
  facet normal -0.3522500764665521 -0.9359059160136282 0
    outer loop
      vertex 0.6785605326294899 0.05306986719369888 0
      vertex 0.6785605326294899 0.05306986719369888 0.8
      vertex 0.6173165664076805 0.07612046599388123 0.8
    endloop
  endfacet
  facet normal -0.29028463457672393 -0.9569403486783583 0
    outer loop
      vertex 0.741180956363678 0.034074172377586365 0
      vertex 0.6785605326294899 0.05306986719369888 0.8
      vertex 0.6785605326294899 0.05306986719369888 0
    endloop
  endfacet
  facet normal -0.29028463457672393 -0.9569403486783583 0
    outer loop
      vertex 0.741180956363678 0.034074172377586365 0
      vertex 0.741180956363678 0.034074172377586365 0.8
      vertex 0.6785605326294899 0.05306986719369888 0.8
    endloop
  endfacet
  facet normal -0.22707625522046462 -0.9738769810992816 0
    outer loop
      vertex 0.8049096763134003 0.019214719533920288 0
      vertex 0.741180956363678 0.034074172377586365 0.8
      vertex 0.741180956363678 0.034074172377586365 0
    endloop
  endfacet
  facet normal -0.22707625522046462 -0.9738769810992816 0
    outer loop
      vertex 0.8049096763134003 0.019214719533920288 0
      vertex 0.8049096763134003 0.019214719533920288 0.8
      vertex 0.741180956363678 0.034074172377586365 0.8
    endloop
  endfacet
  facet normal -0.16289549884018892 -0.986643327883793 0
    outer loop
      vertex 0.8694738075137138 0.008555136620998383 0
      vertex 0.8049096763134003 0.019214719533920288 0.8
      vertex 0.8049096763134003 0.019214719533920288 0
    endloop
  endfacet
  facet normal -0.16289549884018892 -0.986643327883793 0
    outer loop
      vertex 0.8694738075137138 0.008555136620998383 0
      vertex 0.8694738075137138 0.008555136620998383 0.8
      vertex 0.8049096763134003 0.019214719533920288 0.8
    endloop
  endfacet
  facet normal -0.09801715672733671 -0.9951847250571568 0
    outer loop
      vertex 0.934596873819828 0.0021410733461380005 0
      vertex 0.8694738075137138 0.008555136620998383 0.8
      vertex 0.8694738075137138 0.008555136620998383 0
    endloop
  endfacet
  facet normal -0.09801715672733671 -0.9951847250571568 0
    outer loop
      vertex 0.934596873819828 0.0021410733461380005 0
      vertex 0.934596873819828 0.0021410733461380005 0.8
      vertex 0.8694738075137138 0.008555136620998383 0.8
    endloop
  endfacet
  facet normal -0.03271903221119391 -0.9994645891331833 0
    outer loop
      vertex 1 0 0
      vertex 0.934596873819828 0.0021410733461380005 0.8
      vertex 0.934596873819828 0.0021410733461380005 0
    endloop
  endfacet
  facet normal -0.03271903221119391 -0.9994645891331833 0
    outer loop
      vertex 1 0 0
      vertex 1 0 0.8
      vertex 0.934596873819828 0.0021410733461380005 0.8
    endloop
  endfacet
  facet normal 0 -1 0
    outer loop
      vertex 54 0 0
      vertex 1 0 0.8
      vertex 1 0 0
    endloop
  endfacet
  facet normal 0 -1 0
    outer loop
      vertex 54 0 0
      vertex 54 0 0.8
      vertex 1 0 0.8
    endloop
  endfacet
  facet normal 0.03271903221119391 -0.9994645891331833 0
    outer loop
      vertex 54.06540312618017 0.0021410733461380005 0
      vertex 54 0 0.8
      vertex 54 0 0
    endloop
  endfacet
  facet normal 0.03271903221119391 -0.9994645891331833 0
    outer loop
      vertex 54.06540312618017 0.0021410733461380005 0
      vertex 54.06540312618017 0.0021410733461380005 0.8
      vertex 54 0 0.8
    endloop
  endfacet
  facet normal 0.09801715672733671 -0.9951847250571568 0
    outer loop
      vertex 54.130526192486286 0.008555136620998383 0
      vertex 54.06540312618017 0.0021410733461380005 0.8
      vertex 54.06540312618017 0.0021410733461380005 0
    endloop
  endfacet
  facet normal 0.09801715672733671 -0.9951847250571568 0
    outer loop
      vertex 54.130526192486286 0.008555136620998383 0
      vertex 54.130526192486286 0.008555136620998383 0.8
      vertex 54.06540312618017 0.0021410733461380005 0.8
    endloop
  endfacet
  facet normal 0.16289549884018892 -0.986643327883793 0
    outer loop
      vertex 54.1950903236866 0.019214719533920288 0
      vertex 54.130526192486286 0.008555136620998383 0.8
      vertex 54.130526192486286 0.008555136620998383 0
    endloop
  endfacet
  facet normal 0.16289549884018892 -0.986643327883793 0
    outer loop
      vertex 54.1950903236866 0.019214719533920288 0
      vertex 54.1950903236866 0.019214719533920288 0.8
      vertex 54.130526192486286 0.008555136620998383 0.8
    endloop
  endfacet
  facet normal 0.22707625522046462 -0.9738769810992816 0
    outer loop
      vertex 54.25881904363632 0.034074172377586365 0
      vertex 54.1950903236866 0.019214719533920288 0.8
      vertex 54.1950903236866 0.019214719533920288 0
    endloop
  endfacet
  facet normal 0.22707625522046462 -0.9738769810992816 0
    outer loop
      vertex 54.25881904363632 0.034074172377586365 0
      vertex 54.25881904363632 0.034074172377586365 0.8
      vertex 54.1950903236866 0.019214719533920288 0.8
    endloop
  endfacet
  facet normal 0.29028463457672393 -0.9569403486783583 0
    outer loop
      vertex 54.32143946737051 0.05306986719369888 0
      vertex 54.25881904363632 0.034074172377586365 0.8
      vertex 54.25881904363632 0.034074172377586365 0
    endloop
  endfacet
  facet normal 0.29028463457672393 -0.9569403486783583 0
    outer loop
      vertex 54.32143946737051 0.05306986719369888 0
      vertex 54.32143946737051 0.05306986719369888 0.8
      vertex 54.25881904363632 0.034074172377586365 0.8
    endloop
  endfacet
  facet normal 0.3522500764665521 -0.9359059160136282 0
    outer loop
      vertex 54.38268343359232 0.07612046599388123 0
      vertex 54.32143946737051 0.05306986719369888 0.8
      vertex 54.32143946737051 0.05306986719369888 0
    endloop
  endfacet
  facet normal 0.3522500764665521 -0.9359059160136282 0
    outer loop
      vertex 54.38268343359232 0.07612046599388123 0
      vertex 54.38268343359232 0.07612046599388123 0.8
      vertex 54.32143946737051 0.05306986719369888 0.8
    endloop
  endfacet
  facet normal 0.4127070301699062 -0.9108638247555648 0
    outer loop
      vertex 54.44228868931532 0.10312725603580475 0
      vertex 54.38268343359232 0.07612046599388123 0.8
      vertex 54.38268343359232 0.07612046599388123 0
    endloop
  endfacet
  facet normal 0.4127070301699062 -0.9108638247555648 0
    outer loop
      vertex 54.44228868931532 0.10312725603580475 0
      vertex 54.44228868931532 0.10312725603580475 0.8
      vertex 54.38268343359232 0.07612046599388123 0.8
    endloop
  endfacet
  facet normal 0.47139676762142113 -0.8819212478878576 0
    outer loop
      vertex 54.5 0.1339745968580246 0
      vertex 54.44228868931532 0.10312725603580475 0.8
      vertex 54.44228868931532 0.10312725603580475 0
    endloop
  endfacet
  facet normal 0.47139676762142113 -0.8819212478878576 0
    outer loop
      vertex 54.5 0.1339745968580246 0
      vertex 54.5 0.1339745968580246 0.8
      vertex 54.44228868931532 0.10312725603580475 0.8
    endloop
  endfacet
  facet normal 0.5280678867308368 -0.8492021590903005 0
    outer loop
      vertex 54.55557022988796 0.1685303896665573 0
      vertex 54.5 0.1339745968580246 0.8
      vertex 54.5 0.1339745968580246 0
    endloop
  endfacet
  facet normal 0.5280678867308368 -0.8492021590903005 0
    outer loop
      vertex 54.55557022988796 0.1685303896665573 0
      vertex 54.55557022988796 0.1685303896665573 0.8
      vertex 54.5 0.1339745968580246 0.8
    endloop
  endfacet
  facet normal 0.5824776362939285 -0.8128467279982358 0
    outer loop
      vertex 54.60876142978668 0.2066466584801674 0
      vertex 54.55557022988796 0.1685303896665573 0.8
      vertex 54.55557022988796 0.1685303896665573 0
    endloop
  endfacet
  facet normal 0.5824776362939285 -0.8128467279982358 0
    outer loop
      vertex 54.60876142978668 0.2066466584801674 0
      vertex 54.60876142978668 0.2066466584801674 0.8
      vertex 54.55557022988796 0.1685303896665573 0.8
    endloop
  endfacet
  facet normal 0.6343933012520536 -0.7730104393386426 0
    outer loop
      vertex 54.65934581309557 0.24816019088029861 0
      vertex 54.60876142978668 0.2066466584801674 0.8
      vertex 54.60876142978668 0.2066466584801674 0
    endloop
  endfacet
  facet normal 0.6343933012520536 -0.7730104393386426 0
    outer loop
      vertex 54.65934581309557 0.24816019088029861 0
      vertex 54.65934581309557 0.24816019088029861 0.8
      vertex 54.60876142978668 0.2066466584801674 0.8
    endloop
  endfacet
  facet normal 0.683592255961311 -0.7298641158391919 0
    outer loop
      vertex 54.70710678398609 0.2928932160139084 0
      vertex 54.65934581309557 0.24816019088029861 0.8
      vertex 54.65934581309557 0.24816019088029861 0
    endloop
  endfacet
  facet normal 0.683592255961311 -0.7298641158391919 0
    outer loop
      vertex 54.70710678398609 0.2928932160139084 0
      vertex 54.70710678398609 0.2928932160139084 0.8
      vertex 54.65934581309557 0.24816019088029861 0.8
    endloop
  endfacet
  facet normal 0.7298641158391919 -0.683592255961311 0
    outer loop
      vertex 54.7518398091197 0.3406541869044304 0
      vertex 54.70710678398609 0.2928932160139084 0.8
      vertex 54.70710678398609 0.2928932160139084 0
    endloop
  endfacet
  facet normal 0.7298641158391919 -0.683592255961311 0
    outer loop
      vertex 54.7518398091197 0.3406541869044304 0
      vertex 54.7518398091197 0.3406541869044304 0.8
      vertex 54.70710678398609 0.2928932160139084 0.8
    endloop
  endfacet
  facet normal 0.7730104393386426 -0.6343933012520536 0
    outer loop
      vertex 54.79335334151983 0.39123857021331787 0
      vertex 54.7518398091197 0.3406541869044304 0.8
      vertex 54.7518398091197 0.3406541869044304 0
    endloop
  endfacet
  facet normal 0.7730104393386426 -0.6343933012520536 0
    outer loop
      vertex 54.79335334151983 0.39123857021331787 0
      vertex 54.79335334151983 0.39123857021331787 0.8
      vertex 54.7518398091197 0.3406541869044304 0.8
    endloop
  endfacet
  facet normal 0.8128467279982358 -0.5824776362939285 0
    outer loop
      vertex 54.83146961033344 0.44442977011203766 0
      vertex 54.79335334151983 0.39123857021331787 0.8
      vertex 54.79335334151983 0.39123857021331787 0
    endloop
  endfacet
  facet normal 0.8128467279982358 -0.5824776362939285 0
    outer loop
      vertex 54.83146961033344 0.44442977011203766 0
      vertex 54.83146961033344 0.44442977011203766 0.8
      vertex 54.79335334151983 0.39123857021331787 0.8
    endloop
  endfacet
  facet normal 0.8492021590903005 -0.5280678867308368 0
    outer loop
      vertex 54.866025403141975 0.5 0
      vertex 54.83146961033344 0.44442977011203766 0.8
      vertex 54.83146961033344 0.44442977011203766 0
    endloop
  endfacet
  facet normal 0.8492021590903005 -0.5280678867308368 0
    outer loop
      vertex 54.866025403141975 0.5 0
      vertex 54.866025403141975 0.5 0.8
      vertex 54.83146961033344 0.44442977011203766 0.8
    endloop
  endfacet
  facet normal 0.8819212478878576 -0.47139676762142113 0
    outer loop
      vertex 54.896872743964195 0.5577113106846809 0
      vertex 54.866025403141975 0.5 0.8
      vertex 54.866025403141975 0.5 0
    endloop
  endfacet
  facet normal 0.8819212478878576 -0.47139676762142113 0
    outer loop
      vertex 54.896872743964195 0.5577113106846809 0
      vertex 54.896872743964195 0.5577113106846809 0.8
      vertex 54.866025403141975 0.5 0.8
    endloop
  endfacet
  facet normal 0.9108638247555648 -0.4127070301699062 0
    outer loop
      vertex 54.92387953400612 0.6173165664076805 0
      vertex 54.896872743964195 0.5577113106846809 0.8
      vertex 54.896872743964195 0.5577113106846809 0
    endloop
  endfacet
  facet normal 0.9108638247555648 -0.4127070301699062 0
    outer loop
      vertex 54.92387953400612 0.6173165664076805 0
      vertex 54.92387953400612 0.6173165664076805 0.8
      vertex 54.896872743964195 0.5577113106846809 0.8
    endloop
  endfacet
  facet normal 0.9359059160136282 -0.3522500764665521 0
    outer loop
      vertex 54.9469301328063 0.6785605326294899 0
      vertex 54.92387953400612 0.6173165664076805 0.8
      vertex 54.92387953400612 0.6173165664076805 0
    endloop
  endfacet
  facet normal 0.9359059160136282 -0.3522500764665521 0
    outer loop
      vertex 54.9469301328063 0.6785605326294899 0
      vertex 54.9469301328063 0.6785605326294899 0.8
      vertex 54.92387953400612 0.6173165664076805 0.8
    endloop
  endfacet
  facet normal 0.9569403486783583 -0.29028463457672393 0
    outer loop
      vertex 54.965925827622414 0.741180956363678 0
      vertex 54.9469301328063 0.6785605326294899 0.8
      vertex 54.9469301328063 0.6785605326294899 0
    endloop
  endfacet
  facet normal 0.9569403486783583 -0.29028463457672393 0
    outer loop
      vertex 54.965925827622414 0.741180956363678 0
      vertex 54.965925827622414 0.741180956363678 0.8
      vertex 54.9469301328063 0.6785605326294899 0.8
    endloop
  endfacet
  facet normal 0.9738769810992816 -0.22707625522046462 0
    outer loop
      vertex 54.98078528046608 0.8049096763134003 0
      vertex 54.965925827622414 0.741180956363678 0.8
      vertex 54.965925827622414 0.741180956363678 0
    endloop
  endfacet
  facet normal 0.9738769810992816 -0.22707625522046462 0
    outer loop
      vertex 54.98078528046608 0.8049096763134003 0
      vertex 54.98078528046608 0.8049096763134003 0.8
      vertex 54.965925827622414 0.741180956363678 0.8
    endloop
  endfacet
  facet normal 0.986643327883793 -0.16289549884018892 0
    outer loop
      vertex 54.991444863379 0.8694738075137138 0
      vertex 54.98078528046608 0.8049096763134003 0.8
      vertex 54.98078528046608 0.8049096763134003 0
    endloop
  endfacet
  facet normal 0.986643327883793 -0.16289549884018892 0
    outer loop
      vertex 54.991444863379 0.8694738075137138 0
      vertex 54.991444863379 0.8694738075137138 0.8
      vertex 54.98078528046608 0.8049096763134003 0.8
    endloop
  endfacet
  facet normal 0.9951847250571568 -0.09801715672733671 0
    outer loop
      vertex 54.99785892665386 0.934596873819828 0
      vertex 54.991444863379 0.8694738075137138 0.8
      vertex 54.991444863379 0.8694738075137138 0
    endloop
  endfacet
  facet normal 0.9951847250571568 -0.09801715672733671 0
    outer loop
      vertex 54.99785892665386 0.934596873819828 0
      vertex 54.99785892665386 0.934596873819828 0.8
      vertex 54.991444863379 0.8694738075137138 0.8
    endloop
  endfacet
  facet normal 0.9994645891331833 -0.03271903221119391 0
    outer loop
      vertex 55 1 0
      vertex 54.99785892665386 0.934596873819828 0.8
      vertex 54.99785892665386 0.934596873819828 0
    endloop
  endfacet
  facet normal 0.9994645891331833 -0.03271903221119391 0
    outer loop
      vertex 55 1 0
      vertex 55 1 0.8
      vertex 54.99785892665386 0.934596873819828 0.8
    endloop
  endfacet
  facet normal 1 0 0
    outer loop
      vertex 55 29.100000001490116 0
      vertex 55 1 0.8
      vertex 55 1 0
    endloop
  endfacet
  facet normal 1 0 0
    outer loop
      vertex 55 29.100000001490116 0
      vertex 55 29.100000001490116 0.8
      vertex 55 1 0.8
    endloop
  endfacet
  facet normal 0.9994645891331833 0.03271903221119391 0
    outer loop
      vertex 54.99785892665386 29.165403127670288 0
      vertex 55 29.100000001490116 0.8
      vertex 55 29.100000001490116 0
    endloop
  endfacet
  facet normal 0.9994645891331833 0.03271903221119391 0
    outer loop
      vertex 54.99785892665386 29.165403127670288 0
      vertex 54.99785892665386 29.165403127670288 0.8
      vertex 55 29.100000001490116 0.8
    endloop
  endfacet
  facet normal 0.9951847250571568 0.09801715672733671 0
    outer loop
      vertex 54.991444863379 29.230526193976402 0
      vertex 54.99785892665386 29.165403127670288 0.8
      vertex 54.99785892665386 29.165403127670288 0
    endloop
  endfacet
  facet normal 0.9951847250571568 0.09801715672733671 0
    outer loop
      vertex 54.991444863379 29.230526193976402 0
      vertex 54.991444863379 29.230526193976402 0.8
      vertex 54.99785892665386 29.165403127670288 0.8
    endloop
  endfacet
  facet normal 0.986643327883793 0.16289549884018892 0
    outer loop
      vertex 54.98078528046608 29.295090325176716 0
      vertex 54.991444863379 29.230526193976402 0.8
      vertex 54.991444863379 29.230526193976402 0
    endloop
  endfacet
  facet normal 0.986643327883793 0.16289549884018892 0
    outer loop
      vertex 54.98078528046608 29.295090325176716 0
      vertex 54.98078528046608 29.295090325176716 0.8
      vertex 54.991444863379 29.230526193976402 0.8
    endloop
  endfacet
  facet normal 0.9738769810992816 0.22707625522046462 0
    outer loop
      vertex 54.965925827622414 29.358819045126438 0
      vertex 54.98078528046608 29.295090325176716 0.8
      vertex 54.98078528046608 29.295090325176716 0
    endloop
  endfacet
  facet normal 0.9738769810992816 0.22707625522046462 0
    outer loop
      vertex 54.965925827622414 29.358819045126438 0
      vertex 54.965925827622414 29.358819045126438 0.8
      vertex 54.98078528046608 29.295090325176716 0.8
    endloop
  endfacet
  facet normal 0.9569403486783583 0.29028463457672393 0
    outer loop
      vertex 54.9469301328063 29.421439468860626 0
      vertex 54.965925827622414 29.358819045126438 0.8
      vertex 54.965925827622414 29.358819045126438 0
    endloop
  endfacet
  facet normal 0.9569403486783583 0.29028463457672393 0
    outer loop
      vertex 54.9469301328063 29.421439468860626 0
      vertex 54.9469301328063 29.421439468860626 0.8
      vertex 54.965925827622414 29.358819045126438 0.8
    endloop
  endfacet
  facet normal 0.9359059160136282 0.3522500764665521 0
    outer loop
      vertex 54.92387953400612 29.482683435082436 0
      vertex 54.9469301328063 29.421439468860626 0.8
      vertex 54.9469301328063 29.421439468860626 0
    endloop
  endfacet
  facet normal 0.9359059160136282 0.3522500764665521 0
    outer loop
      vertex 54.92387953400612 29.482683435082436 0
      vertex 54.92387953400612 29.482683435082436 0.8
      vertex 54.9469301328063 29.421439468860626 0.8
    endloop
  endfacet
  facet normal 0.9108638247555648 0.4127070301699062 0
    outer loop
      vertex 54.896872743964195 29.542288690805435 0
      vertex 54.92387953400612 29.482683435082436 0.8
      vertex 54.92387953400612 29.482683435082436 0
    endloop
  endfacet
  facet normal 0.9108638247555648 0.4127070301699062 0
    outer loop
      vertex 54.896872743964195 29.542288690805435 0
      vertex 54.896872743964195 29.542288690805435 0.8
      vertex 54.92387953400612 29.482683435082436 0.8
    endloop
  endfacet
  facet normal 0.8819212478878576 0.47139676762142113 0
    outer loop
      vertex 54.866025403141975 29.600000001490116 0
      vertex 54.896872743964195 29.542288690805435 0.8
      vertex 54.896872743964195 29.542288690805435 0
    endloop
  endfacet
  facet normal 0.8819212478878576 0.47139676762142113 0
    outer loop
      vertex 54.866025403141975 29.600000001490116 0
      vertex 54.866025403141975 29.600000001490116 0.8
      vertex 54.896872743964195 29.542288690805435 0.8
    endloop
  endfacet
  facet normal 0.8492021590903005 0.5280678867308368 0
    outer loop
      vertex 54.83146961033344 29.65557023137808 0
      vertex 54.866025403141975 29.600000001490116 0.8
      vertex 54.866025403141975 29.600000001490116 0
    endloop
  endfacet
  facet normal 0.8492021590903005 0.5280678867308368 0
    outer loop
      vertex 54.83146961033344 29.65557023137808 0
      vertex 54.83146961033344 29.65557023137808 0.8
      vertex 54.866025403141975 29.600000001490116 0.8
    endloop
  endfacet
  facet normal 0.8128467279982358 0.5824776362939285 0
    outer loop
      vertex 54.79335334151983 29.7087614312768 0
      vertex 54.83146961033344 29.65557023137808 0.8
      vertex 54.83146961033344 29.65557023137808 0
    endloop
  endfacet
  facet normal 0.8128467279982358 0.5824776362939285 0
    outer loop
      vertex 54.79335334151983 29.7087614312768 0
      vertex 54.79335334151983 29.7087614312768 0.8
      vertex 54.83146961033344 29.65557023137808 0.8
    endloop
  endfacet
  facet normal 0.7730104393386426 0.6343933012520536 0
    outer loop
      vertex 54.7518398091197 29.759345814585686 0
      vertex 54.79335334151983 29.7087614312768 0.8
      vertex 54.79335334151983 29.7087614312768 0
    endloop
  endfacet
  facet normal 0.7730104393386426 0.6343933012520536 0
    outer loop
      vertex 54.7518398091197 29.759345814585686 0
      vertex 54.7518398091197 29.759345814585686 0.8
      vertex 54.79335334151983 29.7087614312768 0.8
    endloop
  endfacet
  facet normal 0.729864062634087 0.6835923127678264 0
    outer loop
      vertex 54.70710678398609 29.807106778025627 0
      vertex 54.7518398091197 29.759345814585686 0.8
      vertex 54.7518398091197 29.759345814585686 0
    endloop
  endfacet
  facet normal 0.729864062634087 0.6835923127678264 0
    outer loop
      vertex 54.70710678398609 29.807106778025627 0
      vertex 54.70710678398609 29.807106778025627 0.8
      vertex 54.7518398091197 29.759345814585686 0.8
    endloop
  endfacet
  facet normal 0.6835923166130079 0.7298640590326813 0
    outer loop
      vertex 54.65934581309557 29.851839810609818 0
      vertex 54.70710678398609 29.807106778025627 0.8
      vertex 54.70710678398609 29.807106778025627 0
    endloop
  endfacet
  facet normal 0.6835923166130079 0.7298640590326813 0
    outer loop
      vertex 54.65934581309557 29.851839810609818 0
      vertex 54.65934581309557 29.851839810609818 0.8
      vertex 54.70710678398609 29.807106778025627 0.8
    endloop
  endfacet
  facet normal 0.6343933012520536 0.7730104393386426 0
    outer loop
      vertex 54.60876142978668 29.89335334300995 0
      vertex 54.65934581309557 29.851839810609818 0.8
      vertex 54.65934581309557 29.851839810609818 0
    endloop
  endfacet
  facet normal 0.6343933012520536 0.7730104393386426 0
    outer loop
      vertex 54.60876142978668 29.89335334300995 0
      vertex 54.60876142978668 29.89335334300995 0.8
      vertex 54.65934581309557 29.851839810609818 0.8
    endloop
  endfacet
  facet normal 0.5824776362939285 0.8128467279982358 0
    outer loop
      vertex 54.55557022988796 29.93146961182356 0
      vertex 54.60876142978668 29.89335334300995 0.8
      vertex 54.60876142978668 29.89335334300995 0
    endloop
  endfacet
  facet normal 0.5824776362939285 0.8128467279982358 0
    outer loop
      vertex 54.55557022988796 29.93146961182356 0
      vertex 54.55557022988796 29.93146961182356 0.8
      vertex 54.60876142978668 29.89335334300995 0.8
    endloop
  endfacet
  facet normal 0.5280678867308368 0.8492021590903005 0
    outer loop
      vertex 54.5 29.96602540463209 0
      vertex 54.55557022988796 29.93146961182356 0.8
      vertex 54.55557022988796 29.93146961182356 0
    endloop
  endfacet
  facet normal 0.5280678867308368 0.8492021590903005 0
    outer loop
      vertex 54.5 29.96602540463209 0
      vertex 54.5 29.96602540463209 0.8
      vertex 54.55557022988796 29.93146961182356 0.8
    endloop
  endfacet
  facet normal 0.47139667906529037 0.8819212952220937 0
    outer loop
      vertex 54.44228868931532 29.99687273800373 0
      vertex 54.5 29.96602540463209 0.8
      vertex 54.5 29.96602540463209 0
    endloop
  endfacet
  facet normal 0.47139667906529037 0.8819212952220937 0
    outer loop
      vertex 54.44228868931532 29.99687273800373 0
      vertex 54.44228868931532 29.99687273800373 0.8
      vertex 54.5 29.96602540463209 0.8
    endloop
  endfacet
  facet normal 0.412707124633811 0.9108637819545203 0
    outer loop
      vertex 54.38268343359232 30.023879535496235 0
      vertex 54.44228868931532 29.99687273800373 0.8
      vertex 54.44228868931532 29.99687273800373 0
    endloop
  endfacet
  facet normal 0.412707124633811 0.9108637819545203 0
    outer loop
      vertex 54.38268343359232 30.023879535496235 0
      vertex 54.38268343359232 30.023879535496235 0.8
      vertex 54.44228868931532 29.99687273800373 0.8
    endloop
  endfacet
  facet normal 0.3522499767371047 0.9359059535491315 0
    outer loop
      vertex 54.32143946737051 30.046930126845837 0
      vertex 54.38268343359232 30.023879535496235 0.8
      vertex 54.38268343359232 30.023879535496235 0
    endloop
  endfacet
  facet normal 0.3522499767371047 0.9359059535491315 0
    outer loop
      vertex 54.32143946737051 30.046930126845837 0
      vertex 54.32143946737051 30.046930126845837 0.8
      vertex 54.38268343359232 30.023879535496235 0.8
    endloop
  endfacet
  facet normal 0.2902847388393582 0.9569403170506329 0
    outer loop
      vertex 54.25881904363632 30.06592582911253 0
      vertex 54.32143946737051 30.046930126845837 0.8
      vertex 54.32143946737051 30.046930126845837 0
    endloop
  endfacet
  facet normal 0.2902847388393582 0.9569403170506329 0
    outer loop
      vertex 54.25881904363632 30.06592582911253 0
      vertex 54.25881904363632 30.06592582911253 0.8
      vertex 54.32143946737051 30.046930126845837 0.8
    endloop
  endfacet
  facet normal 0.22707625522046462 0.9738769810992816 0
    outer loop
      vertex 54.1950903236866 30.080785281956196 0
      vertex 54.25881904363632 30.06592582911253 0.8
      vertex 54.25881904363632 30.06592582911253 0
    endloop
  endfacet
  facet normal 0.22707625522046462 0.9738769810992816 0
    outer loop
      vertex 54.1950903236866 30.080785281956196 0
      vertex 54.1950903236866 30.080785281956196 0.8
      vertex 54.25881904363632 30.06592582911253 0.8
    endloop
  endfacet
  facet normal 0.16289549884018892 0.986643327883793 0
    outer loop
      vertex 54.130526192486286 30.091444864869118 0
      vertex 54.1950903236866 30.080785281956196 0.8
      vertex 54.1950903236866 30.080785281956196 0
    endloop
  endfacet
  facet normal 0.16289549884018892 0.986643327883793 0
    outer loop
      vertex 54.130526192486286 30.091444864869118 0
      vertex 54.130526192486286 30.091444864869118 0.8
      vertex 54.1950903236866 30.080785281956196 0.8
    endloop
  endfacet
  facet normal 0.09801704396439741 0.9951847361633324 0
    outer loop
      vertex 54.06540312618017 30.097858920693398 0
      vertex 54.130526192486286 30.091444864869118 0.8
      vertex 54.130526192486286 30.091444864869118 0
    endloop
  endfacet
  facet normal 0.09801704396439741 0.9951847361633324 0
    outer loop
      vertex 54.06540312618017 30.097858920693398 0
      vertex 54.06540312618017 30.097858920693398 0.8
      vertex 54.130526192486286 30.091444864869118 0.8
    endloop
  endfacet
  facet normal 0.03271914594611808 0.9994645854098867 0
    outer loop
      vertex 54 30.100000001490116 0
      vertex 54.06540312618017 30.097858920693398 0.8
      vertex 54.06540312618017 30.097858920693398 0
    endloop
  endfacet
  facet normal 0.03271914594611808 0.9994645854098867 0
    outer loop
      vertex 54 30.100000001490116 0
      vertex 54 30.100000001490116 0.8
      vertex 54.06540312618017 30.097858920693398 0.8
    endloop
  endfacet
  facet normal 0 1 0
    outer loop
      vertex 1 30.100000001490116 0
      vertex 54 30.100000001490116 0.8
      vertex 54 30.100000001490116 0
    endloop
  endfacet
  facet normal 0 1 0
    outer loop
      vertex 1 30.100000001490116 0
      vertex 1 30.100000001490116 0.8
      vertex 54 30.100000001490116 0.8
    endloop
  endfacet
  facet normal -0.03271914594611808 0.9994645854098867 0
    outer loop
      vertex 0.934596873819828 30.097858920693398 0
      vertex 1 30.100000001490116 0.8
      vertex 1 30.100000001490116 0
    endloop
  endfacet
  facet normal -0.03271914594611808 0.9994645854098867 0
    outer loop
      vertex 0.934596873819828 30.097858920693398 0
      vertex 0.934596873819828 30.097858920693398 0.8
      vertex 1 30.100000001490116 0.8
    endloop
  endfacet
  facet normal -0.09801704396439741 0.9951847361633324 0
    outer loop
      vertex 0.8694738075137138 30.091444864869118 0
      vertex 0.934596873819828 30.097858920693398 0.8
      vertex 0.934596873819828 30.097858920693398 0
    endloop
  endfacet
  facet normal -0.09801704396439741 0.9951847361633324 0
    outer loop
      vertex 0.8694738075137138 30.091444864869118 0
      vertex 0.8694738075137138 30.091444864869118 0.8
      vertex 0.934596873819828 30.097858920693398 0.8
    endloop
  endfacet
  facet normal -0.16289549884018892 0.986643327883793 0
    outer loop
      vertex 0.8049096763134003 30.080785281956196 0
      vertex 0.8694738075137138 30.091444864869118 0.8
      vertex 0.8694738075137138 30.091444864869118 0
    endloop
  endfacet
  facet normal -0.16289549884018892 0.986643327883793 0
    outer loop
      vertex 0.8049096763134003 30.080785281956196 0
      vertex 0.8049096763134003 30.080785281956196 0.8
      vertex 0.8694738075137138 30.091444864869118 0.8
    endloop
  endfacet
  facet normal -0.22707625522046462 0.9738769810992816 0
    outer loop
      vertex 0.741180956363678 30.06592582911253 0
      vertex 0.8049096763134003 30.080785281956196 0.8
      vertex 0.8049096763134003 30.080785281956196 0
    endloop
  endfacet
  facet normal -0.22707625522046462 0.9738769810992816 0
    outer loop
      vertex 0.741180956363678 30.06592582911253 0
      vertex 0.741180956363678 30.06592582911253 0.8
      vertex 0.8049096763134003 30.080785281956196 0.8
    endloop
  endfacet
  facet normal -0.2902847388393582 0.9569403170506329 0
    outer loop
      vertex 0.6785605326294899 30.046930126845837 0
      vertex 0.741180956363678 30.06592582911253 0.8
      vertex 0.741180956363678 30.06592582911253 0
    endloop
  endfacet
  facet normal -0.2902847388393582 0.9569403170506329 0
    outer loop
      vertex 0.6785605326294899 30.046930126845837 0
      vertex 0.6785605326294899 30.046930126845837 0.8
      vertex 0.741180956363678 30.06592582911253 0.8
    endloop
  endfacet
  facet normal -0.3522499767371047 0.9359059535491315 0
    outer loop
      vertex 0.6173165664076805 30.023879535496235 0
      vertex 0.6785605326294899 30.046930126845837 0.8
      vertex 0.6785605326294899 30.046930126845837 0
    endloop
  endfacet
  facet normal -0.3522499767371047 0.9359059535491315 0
    outer loop
      vertex 0.6173165664076805 30.023879535496235 0
      vertex 0.6173165664076805 30.023879535496235 0.8
      vertex 0.6785605326294899 30.046930126845837 0.8
    endloop
  endfacet
  facet normal -0.412707124633811 0.9108637819545203 0
    outer loop
      vertex 0.5577113106846809 29.99687273800373 0
      vertex 0.6173165664076805 30.023879535496235 0.8
      vertex 0.6173165664076805 30.023879535496235 0
    endloop
  endfacet
  facet normal -0.412707124633811 0.9108637819545203 0
    outer loop
      vertex 0.5577113106846809 29.99687273800373 0
      vertex 0.5577113106846809 29.99687273800373 0.8
      vertex 0.6173165664076805 30.023879535496235 0.8
    endloop
  endfacet
  facet normal -0.47139667906529037 0.8819212952220937 0
    outer loop
      vertex 0.5 29.96602540463209 0
      vertex 0.5577113106846809 29.99687273800373 0.8
      vertex 0.5577113106846809 29.99687273800373 0
    endloop
  endfacet
  facet normal -0.47139667906529037 0.8819212952220937 0
    outer loop
      vertex 0.5 29.96602540463209 0
      vertex 0.5 29.96602540463209 0.8
      vertex 0.5577113106846809 29.99687273800373 0.8
    endloop
  endfacet
  facet normal -0.5280678867308368 0.8492021590903005 0
    outer loop
      vertex 0.44442977011203766 29.93146961182356 0
      vertex 0.5 29.96602540463209 0.8
      vertex 0.5 29.96602540463209 0
    endloop
  endfacet
  facet normal -0.5280678867308368 0.8492021590903005 0
    outer loop
      vertex 0.44442977011203766 29.93146961182356 0
      vertex 0.44442977011203766 29.93146961182356 0.8
      vertex 0.5 29.96602540463209 0.8
    endloop
  endfacet
  facet normal -0.5824776362939285 0.8128467279982358 0
    outer loop
      vertex 0.39123857021331787 29.89335334300995 0
      vertex 0.44442977011203766 29.93146961182356 0.8
      vertex 0.44442977011203766 29.93146961182356 0
    endloop
  endfacet
  facet normal -0.5824776362939285 0.8128467279982358 0
    outer loop
      vertex 0.39123857021331787 29.89335334300995 0
      vertex 0.39123857021331787 29.89335334300995 0.8
      vertex 0.44442977011203766 29.93146961182356 0.8
    endloop
  endfacet
  facet normal -0.6343933012520536 0.7730104393386426 0
    outer loop
      vertex 0.3406541869044304 29.851839810609818 0
      vertex 0.39123857021331787 29.89335334300995 0.8
      vertex 0.39123857021331787 29.89335334300995 0
    endloop
  endfacet
  facet normal -0.6343933012520536 0.7730104393386426 0
    outer loop
      vertex 0.3406541869044304 29.851839810609818 0
      vertex 0.3406541869044304 29.851839810609818 0.8
      vertex 0.39123857021331787 29.89335334300995 0.8
    endloop
  endfacet
  facet normal -0.6835923166130079 0.7298640590326813 0
    outer loop
      vertex 0.2928932160139084 29.807106778025627 0
      vertex 0.3406541869044304 29.851839810609818 0.8
      vertex 0.3406541869044304 29.851839810609818 0
    endloop
  endfacet
  facet normal -0.6835923166130079 0.7298640590326813 0
    outer loop
      vertex 0.2928932160139084 29.807106778025627 0
      vertex 0.2928932160139084 29.807106778025627 0.8
      vertex 0.3406541869044304 29.851839810609818 0.8
    endloop
  endfacet
  facet normal -0.729864062634087 0.6835923127678264 0
    outer loop
      vertex 0.24816019088029861 29.759345814585686 0
      vertex 0.2928932160139084 29.807106778025627 0.8
      vertex 0.2928932160139084 29.807106778025627 0
    endloop
  endfacet
  facet normal -0.729864062634087 0.6835923127678264 0
    outer loop
      vertex 0.24816019088029861 29.759345814585686 0
      vertex 0.24816019088029861 29.759345814585686 0.8
      vertex 0.2928932160139084 29.807106778025627 0.8
    endloop
  endfacet
  facet normal -0.7730104393386426 0.6343933012520536 0
    outer loop
      vertex 0.2066466584801674 29.7087614312768 0
      vertex 0.24816019088029861 29.759345814585686 0.8
      vertex 0.24816019088029861 29.759345814585686 0
    endloop
  endfacet
  facet normal -0.7730104393386426 0.6343933012520536 0
    outer loop
      vertex 0.2066466584801674 29.7087614312768 0
      vertex 0.2066466584801674 29.7087614312768 0.8
      vertex 0.24816019088029861 29.759345814585686 0.8
    endloop
  endfacet
  facet normal -0.8128467279982358 0.5824776362939285 0
    outer loop
      vertex 0.1685303896665573 29.65557023137808 0
      vertex 0.2066466584801674 29.7087614312768 0.8
      vertex 0.2066466584801674 29.7087614312768 0
    endloop
  endfacet
  facet normal -0.8128467279982358 0.5824776362939285 0
    outer loop
      vertex 0.1685303896665573 29.65557023137808 0
      vertex 0.1685303896665573 29.65557023137808 0.8
      vertex 0.2066466584801674 29.7087614312768 0.8
    endloop
  endfacet
  facet normal -0.8492021590903005 0.5280678867308368 0
    outer loop
      vertex 0.1339745968580246 29.600000001490116 0
      vertex 0.1685303896665573 29.65557023137808 0.8
      vertex 0.1685303896665573 29.65557023137808 0
    endloop
  endfacet
  facet normal -0.8492021590903005 0.5280678867308368 0
    outer loop
      vertex 0.1339745968580246 29.600000001490116 0
      vertex 0.1339745968580246 29.600000001490116 0.8
      vertex 0.1685303896665573 29.65557023137808 0.8
    endloop
  endfacet
  facet normal -0.8819212478878576 0.47139676762142113 0
    outer loop
      vertex 0.10312725603580475 29.542288690805435 0
      vertex 0.1339745968580246 29.600000001490116 0.8
      vertex 0.1339745968580246 29.600000001490116 0
    endloop
  endfacet
  facet normal -0.8819212478878576 0.47139676762142113 0
    outer loop
      vertex 0.10312725603580475 29.542288690805435 0
      vertex 0.10312725603580475 29.542288690805435 0.8
      vertex 0.1339745968580246 29.600000001490116 0.8
    endloop
  endfacet
  facet normal -0.9108638247555648 0.4127070301699062 0
    outer loop
      vertex 0.07612046599388123 29.482683435082436 0
      vertex 0.10312725603580475 29.542288690805435 0.8
      vertex 0.10312725603580475 29.542288690805435 0
    endloop
  endfacet
  facet normal -0.9108638247555648 0.4127070301699062 0
    outer loop
      vertex 0.07612046599388123 29.482683435082436 0
      vertex 0.07612046599388123 29.482683435082436 0.8
      vertex 0.10312725603580475 29.542288690805435 0.8
    endloop
  endfacet
  facet normal -0.9359059160136282 0.3522500764665521 0
    outer loop
      vertex 0.05306986719369888 29.421439468860626 0
      vertex 0.07612046599388123 29.482683435082436 0.8
      vertex 0.07612046599388123 29.482683435082436 0
    endloop
  endfacet
  facet normal -0.9359059160136282 0.3522500764665521 0
    outer loop
      vertex 0.05306986719369888 29.421439468860626 0
      vertex 0.05306986719369888 29.421439468860626 0.8
      vertex 0.07612046599388123 29.482683435082436 0.8
    endloop
  endfacet
  facet normal -0.9569403486783583 0.29028463457672393 0
    outer loop
      vertex 0.034074172377586365 29.358819045126438 0
      vertex 0.05306986719369888 29.421439468860626 0.8
      vertex 0.05306986719369888 29.421439468860626 0
    endloop
  endfacet
  facet normal -0.9569403486783583 0.29028463457672393 0
    outer loop
      vertex 0.034074172377586365 29.358819045126438 0
      vertex 0.034074172377586365 29.358819045126438 0.8
      vertex 0.05306986719369888 29.421439468860626 0.8
    endloop
  endfacet
  facet normal -0.9738769810992816 0.22707625522046462 0
    outer loop
      vertex 0.019214719533920288 29.295090325176716 0
      vertex 0.034074172377586365 29.358819045126438 0.8
      vertex 0.034074172377586365 29.358819045126438 0
    endloop
  endfacet
  facet normal -0.9738769810992816 0.22707625522046462 0
    outer loop
      vertex 0.019214719533920288 29.295090325176716 0
      vertex 0.019214719533920288 29.295090325176716 0.8
      vertex 0.034074172377586365 29.358819045126438 0.8
    endloop
  endfacet
  facet normal -0.986643327883793 0.16289549884018892 0
    outer loop
      vertex 0.008555136620998383 29.230526193976402 0
      vertex 0.019214719533920288 29.295090325176716 0.8
      vertex 0.019214719533920288 29.295090325176716 0
    endloop
  endfacet
  facet normal -0.986643327883793 0.16289549884018892 0
    outer loop
      vertex 0.008555136620998383 29.230526193976402 0
      vertex 0.008555136620998383 29.230526193976402 0.8
      vertex 0.019214719533920288 29.295090325176716 0.8
    endloop
  endfacet
  facet normal -0.9951847250571568 0.09801715672733671 0
    outer loop
      vertex 0.0021410733461380005 29.165403127670288 0
      vertex 0.008555136620998383 29.230526193976402 0.8
      vertex 0.008555136620998383 29.230526193976402 0
    endloop
  endfacet
  facet normal -0.9951847250571568 0.09801715672733671 0
    outer loop
      vertex 0.0021410733461380005 29.165403127670288 0
      vertex 0.0021410733461380005 29.165403127670288 0.8
      vertex 0.008555136620998383 29.230526193976402 0.8
    endloop
  endfacet
  facet normal -0.9994645891331833 0.03271903221119391 0
    outer loop
      vertex 0 29.100000001490116 0
      vertex 0.0021410733461380005 29.165403127670288 0.8
      vertex 0.0021410733461380005 29.165403127670288 0
    endloop
  endfacet
  facet normal -0.9994645891331833 0.03271903221119391 0
    outer loop
      vertex 0 29.100000001490116 0
      vertex 0 29.100000001490116 0.8
      vertex 0.0021410733461380005 29.165403127670288 0.8
    endloop
  endfacet
  facet normal -1 0 0
    outer loop
      vertex 0 1 0
      vertex 0 29.100000001490116 0.8
      vertex 0 29.100000001490116 0
    endloop
  endfacet
  facet normal -1 0 0
    outer loop
      vertex 0 1 0
      vertex 0 1 0.8
      vertex 0 29.100000001490116 0.8
    endloop
  endfacet
  facet normal 0 0 1
    outer loop
      vertex 0 1 0.8
      vertex 0.0021410733461380005 0.934596873819828 0.8
      vertex 0 29.100000001490116 0.8
    endloop
  endfacet
  facet normal 0 0 1
    outer loop
      vertex 0.0021410733461380005 0.934596873819828 0.8
      vertex 0.0021410733461380005 29.165403127670288 0.8
      vertex 0 29.100000001490116 0.8
    endloop
  endfacet
  facet normal 0 0 1
    outer loop
      vertex 0.0021410733461380005 0.934596873819828 0.8
      vertex 0.008555136620998383 0.8694738075137138 0.8
      vertex 0.0021410733461380005 29.165403127670288 0.8
    endloop
  endfacet
  facet normal 0 0 1
    outer loop
      vertex 0.008555136620998383 0.8694738075137138 0.8
      vertex 0.008555136620998383 29.230526193976402 0.8
      vertex 0.0021410733461380005 29.165403127670288 0.8
    endloop
  endfacet
  facet normal 0 0 1
    outer loop
      vertex 0.008555136620998383 0.8694738075137138 0.8
      vertex 0.019214719533920288 0.8049096763134003 0.8
      vertex 0.008555136620998383 29.230526193976402 0.8
    endloop
  endfacet
  facet normal 0 0 1
    outer loop
      vertex 0.019214719533920288 0.8049096763134003 0.8
      vertex 0.019214719533920288 29.295090325176716 0.8
      vertex 0.008555136620998383 29.230526193976402 0.8
    endloop
  endfacet
  facet normal 0 0 1
    outer loop
      vertex 0.019214719533920288 0.8049096763134003 0.8
      vertex 0.034074172377586365 0.741180956363678 0.8
      vertex 0.019214719533920288 29.295090325176716 0.8
    endloop
  endfacet
  facet normal 0 0 1
    outer loop
      vertex 0.034074172377586365 0.741180956363678 0.8
      vertex 0.034074172377586365 29.358819045126438 0.8
      vertex 0.019214719533920288 29.295090325176716 0.8
    endloop
  endfacet
  facet normal 0 0 1
    outer loop
      vertex 0.034074172377586365 0.741180956363678 0.8
      vertex 0.05306986719369888 0.6785605326294899 0.8
      vertex 0.034074172377586365 29.358819045126438 0.8
    endloop
  endfacet
  facet normal 0 0 1
    outer loop
      vertex 0.05306986719369888 0.6785605326294899 0.8
      vertex 0.05306986719369888 29.421439468860626 0.8
      vertex 0.034074172377586365 29.358819045126438 0.8
    endloop
  endfacet
  facet normal 0 0 1
    outer loop
      vertex 0.05306986719369888 0.6785605326294899 0.8
      vertex 0.07612046599388123 0.6173165664076805 0.8
      vertex 0.05306986719369888 29.421439468860626 0.8
    endloop
  endfacet
  facet normal 0 0 1
    outer loop
      vertex 0.07612046599388123 0.6173165664076805 0.8
      vertex 0.07612046599388123 29.482683435082436 0.8
      vertex 0.05306986719369888 29.421439468860626 0.8
    endloop
  endfacet
  facet normal 0 0 1
    outer loop
      vertex 0.07612046599388123 0.6173165664076805 0.8
      vertex 0.10312725603580475 0.5577113106846809 0.8
      vertex 0.07612046599388123 29.482683435082436 0.8
    endloop
  endfacet
  facet normal 0 0 1
    outer loop
      vertex 0.10312725603580475 0.5577113106846809 0.8
      vertex 0.10312725603580475 29.542288690805435 0.8
      vertex 0.07612046599388123 29.482683435082436 0.8
    endloop
  endfacet
  facet normal 0 0 1
    outer loop
      vertex 0.10312725603580475 0.5577113106846809 0.8
      vertex 0.1339745968580246 0.5 0.8
      vertex 0.10312725603580475 29.542288690805435 0.8
    endloop
  endfacet
  facet normal 0 0 1
    outer loop
      vertex 0.1339745968580246 0.5 0.8
      vertex 0.1339745968580246 29.600000001490116 0.8
      vertex 0.10312725603580475 29.542288690805435 0.8
    endloop
  endfacet
  facet normal 0 0 1
    outer loop
      vertex 0.1339745968580246 0.5 0.8
      vertex 0.1685303896665573 0.44442977011203766 0.8
      vertex 0.1339745968580246 29.600000001490116 0.8
    endloop
  endfacet
  facet normal 0 0 1
    outer loop
      vertex 0.1685303896665573 0.44442977011203766 0.8
      vertex 0.1685303896665573 29.65557023137808 0.8
      vertex 0.1339745968580246 29.600000001490116 0.8
    endloop
  endfacet
  facet normal 0 0 1
    outer loop
      vertex 0.1685303896665573 0.44442977011203766 0.8
      vertex 0.2066466584801674 0.39123857021331787 0.8
      vertex 0.1685303896665573 29.65557023137808 0.8
    endloop
  endfacet
  facet normal 0 0 1
    outer loop
      vertex 0.2066466584801674 0.39123857021331787 0.8
      vertex 0.2066466584801674 29.7087614312768 0.8
      vertex 0.1685303896665573 29.65557023137808 0.8
    endloop
  endfacet
  facet normal 0 0 1
    outer loop
      vertex 0.2066466584801674 0.39123857021331787 0.8
      vertex 0.24816019088029861 0.3406541869044304 0.8
      vertex 0.2066466584801674 29.7087614312768 0.8
    endloop
  endfacet
  facet normal 0 0 1
    outer loop
      vertex 0.24816019088029861 0.3406541869044304 0.8
      vertex 0.24816019088029861 29.759345814585686 0.8
      vertex 0.2066466584801674 29.7087614312768 0.8
    endloop
  endfacet
  facet normal 0 0 1
    outer loop
      vertex 0.24816019088029861 0.3406541869044304 0.8
      vertex 0.2928932160139084 0.2928932160139084 0.8
      vertex 0.24816019088029861 29.759345814585686 0.8
    endloop
  endfacet
  facet normal 0 0 1
    outer loop
      vertex 0.2928932160139084 0.2928932160139084 0.8
      vertex 0.2928932160139084 29.807106778025627 0.8
      vertex 0.24816019088029861 29.759345814585686 0.8
    endloop
  endfacet
  facet normal 0 0 1
    outer loop
      vertex 0.2928932160139084 0.2928932160139084 0.8
      vertex 0.3406541869044304 0.24816019088029861 0.8
      vertex 0.2928932160139084 29.807106778025627 0.8
    endloop
  endfacet
  facet normal 0 0 1
    outer loop
      vertex 0.3406541869044304 0.24816019088029861 0.8
      vertex 0.3406541869044304 29.851839810609818 0.8
      vertex 0.2928932160139084 29.807106778025627 0.8
    endloop
  endfacet
  facet normal 0 0 1
    outer loop
      vertex 0.3406541869044304 0.24816019088029861 0.8
      vertex 0.39123857021331787 0.2066466584801674 0.8
      vertex 0.3406541869044304 29.851839810609818 0.8
    endloop
  endfacet
  facet normal 0 0 1
    outer loop
      vertex 0.39123857021331787 0.2066466584801674 0.8
      vertex 0.39123857021331787 29.89335334300995 0.8
      vertex 0.3406541869044304 29.851839810609818 0.8
    endloop
  endfacet
  facet normal 0 0 1
    outer loop
      vertex 0.39123857021331787 0.2066466584801674 0.8
      vertex 0.44442977011203766 0.1685303896665573 0.8
      vertex 0.39123857021331787 29.89335334300995 0.8
    endloop
  endfacet
  facet normal 0 0 1
    outer loop
      vertex 0.44442977011203766 0.1685303896665573 0.8
      vertex 0.44442977011203766 29.93146961182356 0.8
      vertex 0.39123857021331787 29.89335334300995 0.8
    endloop
  endfacet
  facet normal 0 0 1
    outer loop
      vertex 0.44442977011203766 0.1685303896665573 0.8
      vertex 0.5 0.1339745968580246 0.8
      vertex 0.44442977011203766 29.93146961182356 0.8
    endloop
  endfacet
  facet normal 0 0 1
    outer loop
      vertex 0.5 0.1339745968580246 0.8
      vertex 0.5 29.96602540463209 0.8
      vertex 0.44442977011203766 29.93146961182356 0.8
    endloop
  endfacet
  facet normal 0 0 1
    outer loop
      vertex 0.5 0.1339745968580246 0.8
      vertex 0.5577113106846809 0.10312725603580475 0.8
      vertex 0.5 29.96602540463209 0.8
    endloop
  endfacet
  facet normal 0 0 1
    outer loop
      vertex 0.5577113106846809 0.10312725603580475 0.8
      vertex 0.5577113106846809 29.99687273800373 0.8
      vertex 0.5 29.96602540463209 0.8
    endloop
  endfacet
  facet normal 0 0 1
    outer loop
      vertex 0.5577113106846809 0.10312725603580475 0.8
      vertex 0.6173165664076805 0.07612046599388123 0.8
      vertex 0.5577113106846809 29.99687273800373 0.8
    endloop
  endfacet
  facet normal 0 0 1
    outer loop
      vertex 0.6173165664076805 0.07612046599388123 0.8
      vertex 0.6173165664076805 30.023879535496235 0.8
      vertex 0.5577113106846809 29.99687273800373 0.8
    endloop
  endfacet
  facet normal 0 0 1
    outer loop
      vertex 0.6173165664076805 0.07612046599388123 0.8
      vertex 0.6785605326294899 0.05306986719369888 0.8
      vertex 0.6173165664076805 30.023879535496235 0.8
    endloop
  endfacet
  facet normal 0 0 1
    outer loop
      vertex 0.6785605326294899 0.05306986719369888 0.8
      vertex 0.6785605326294899 30.046930126845837 0.8
      vertex 0.6173165664076805 30.023879535496235 0.8
    endloop
  endfacet
  facet normal 0 0 1
    outer loop
      vertex 0.6785605326294899 0.05306986719369888 0.8
      vertex 0.741180956363678 0.034074172377586365 0.8
      vertex 0.6785605326294899 30.046930126845837 0.8
    endloop
  endfacet
  facet normal 0 0 1
    outer loop
      vertex 0.741180956363678 0.034074172377586365 0.8
      vertex 0.741180956363678 30.06592582911253 0.8
      vertex 0.6785605326294899 30.046930126845837 0.8
    endloop
  endfacet
  facet normal 0 0 1
    outer loop
      vertex 0.741180956363678 0.034074172377586365 0.8
      vertex 0.8049096763134003 0.019214719533920288 0.8
      vertex 0.741180956363678 30.06592582911253 0.8
    endloop
  endfacet
  facet normal 0 0 1
    outer loop
      vertex 0.8049096763134003 0.019214719533920288 0.8
      vertex 0.8049096763134003 30.080785281956196 0.8
      vertex 0.741180956363678 30.06592582911253 0.8
    endloop
  endfacet
  facet normal 0 0 1
    outer loop
      vertex 0.8049096763134003 0.019214719533920288 0.8
      vertex 0.8694738075137138 0.008555136620998383 0.8
      vertex 0.8049096763134003 30.080785281956196 0.8
    endloop
  endfacet
  facet normal 0 0 1
    outer loop
      vertex 0.8694738075137138 0.008555136620998383 0.8
      vertex 0.8694738075137138 30.091444864869118 0.8
      vertex 0.8049096763134003 30.080785281956196 0.8
    endloop
  endfacet
  facet normal 0 0 1
    outer loop
      vertex 0.8694738075137138 0.008555136620998383 0.8
      vertex 0.934596873819828 0.0021410733461380005 0.8
      vertex 0.8694738075137138 30.091444864869118 0.8
    endloop
  endfacet
  facet normal 0 0 1
    outer loop
      vertex 0.934596873819828 0.0021410733461380005 0.8
      vertex 0.934596873819828 30.097858920693398 0.8
      vertex 0.8694738075137138 30.091444864869118 0.8
    endloop
  endfacet
  facet normal 0 0 1
    outer loop
      vertex 0.934596873819828 0.0021410733461380005 0.8
      vertex 1 0 0.8
      vertex 0.934596873819828 30.097858920693398 0.8
    endloop
  endfacet
  facet normal 0 0 1
    outer loop
      vertex 1 0 0.8
      vertex 1 30.100000001490116 0.8
      vertex 0.934596873819828 30.097858920693398 0.8
    endloop
  endfacet
  facet normal 0 0 1
    outer loop
      vertex 1 0 0.8
      vertex 54 0 0.8
      vertex 1 30.100000001490116 0.8
    endloop
  endfacet
  facet normal 0 0 1
    outer loop
      vertex 54 0 0.8
      vertex 54 30.100000001490116 0.8
      vertex 1 30.100000001490116 0.8
    endloop
  endfacet
  facet normal 0 0 1
    outer loop
      vertex 54 0 0.8
      vertex 54.06540312618017 0.0021410733461380005 0.8
      vertex 54 30.100000001490116 0.8
    endloop
  endfacet
  facet normal 0 0 1
    outer loop
      vertex 54.06540312618017 0.0021410733461380005 0.8
      vertex 54.06540312618017 30.097858920693398 0.8
      vertex 54 30.100000001490116 0.8
    endloop
  endfacet
  facet normal 0 0 1
    outer loop
      vertex 54.06540312618017 0.0021410733461380005 0.8
      vertex 54.130526192486286 0.008555136620998383 0.8
      vertex 54.06540312618017 30.097858920693398 0.8
    endloop
  endfacet
  facet normal 0 0 1
    outer loop
      vertex 54.130526192486286 0.008555136620998383 0.8
      vertex 54.130526192486286 30.091444864869118 0.8
      vertex 54.06540312618017 30.097858920693398 0.8
    endloop
  endfacet
  facet normal 0 0 1
    outer loop
      vertex 54.130526192486286 0.008555136620998383 0.8
      vertex 54.1950903236866 0.019214719533920288 0.8
      vertex 54.130526192486286 30.091444864869118 0.8
    endloop
  endfacet
  facet normal 0 0 1
    outer loop
      vertex 54.1950903236866 0.019214719533920288 0.8
      vertex 54.1950903236866 30.080785281956196 0.8
      vertex 54.130526192486286 30.091444864869118 0.8
    endloop
  endfacet
  facet normal 0 0 1
    outer loop
      vertex 54.1950903236866 0.019214719533920288 0.8
      vertex 54.25881904363632 0.034074172377586365 0.8
      vertex 54.1950903236866 30.080785281956196 0.8
    endloop
  endfacet
  facet normal 0 0 1
    outer loop
      vertex 54.25881904363632 0.034074172377586365 0.8
      vertex 54.25881904363632 30.06592582911253 0.8
      vertex 54.1950903236866 30.080785281956196 0.8
    endloop
  endfacet
  facet normal 0 0 1
    outer loop
      vertex 54.25881904363632 0.034074172377586365 0.8
      vertex 54.32143946737051 0.05306986719369888 0.8
      vertex 54.25881904363632 30.06592582911253 0.8
    endloop
  endfacet
  facet normal 0 0 1
    outer loop
      vertex 54.32143946737051 0.05306986719369888 0.8
      vertex 54.32143946737051 30.046930126845837 0.8
      vertex 54.25881904363632 30.06592582911253 0.8
    endloop
  endfacet
  facet normal 0 0 1
    outer loop
      vertex 54.32143946737051 0.05306986719369888 0.8
      vertex 54.38268343359232 0.07612046599388123 0.8
      vertex 54.32143946737051 30.046930126845837 0.8
    endloop
  endfacet
  facet normal 0 0 1
    outer loop
      vertex 54.38268343359232 0.07612046599388123 0.8
      vertex 54.38268343359232 30.023879535496235 0.8
      vertex 54.32143946737051 30.046930126845837 0.8
    endloop
  endfacet
  facet normal 0 0 1
    outer loop
      vertex 54.38268343359232 0.07612046599388123 0.8
      vertex 54.44228868931532 0.10312725603580475 0.8
      vertex 54.38268343359232 30.023879535496235 0.8
    endloop
  endfacet
  facet normal 0 0 1
    outer loop
      vertex 54.44228868931532 0.10312725603580475 0.8
      vertex 54.44228868931532 29.99687273800373 0.8
      vertex 54.38268343359232 30.023879535496235 0.8
    endloop
  endfacet
  facet normal 0 0 1
    outer loop
      vertex 54.44228868931532 0.10312725603580475 0.8
      vertex 54.5 0.1339745968580246 0.8
      vertex 54.44228868931532 29.99687273800373 0.8
    endloop
  endfacet
  facet normal 0 0 1
    outer loop
      vertex 54.5 0.1339745968580246 0.8
      vertex 54.5 29.96602540463209 0.8
      vertex 54.44228868931532 29.99687273800373 0.8
    endloop
  endfacet
  facet normal 0 0 1
    outer loop
      vertex 54.5 0.1339745968580246 0.8
      vertex 54.55557022988796 0.1685303896665573 0.8
      vertex 54.5 29.96602540463209 0.8
    endloop
  endfacet
  facet normal 0 0 1
    outer loop
      vertex 54.55557022988796 0.1685303896665573 0.8
      vertex 54.55557022988796 29.93146961182356 0.8
      vertex 54.5 29.96602540463209 0.8
    endloop
  endfacet
  facet normal 0 0 1
    outer loop
      vertex 54.55557022988796 0.1685303896665573 0.8
      vertex 54.60876142978668 0.2066466584801674 0.8
      vertex 54.55557022988796 29.93146961182356 0.8
    endloop
  endfacet
  facet normal 0 0 1
    outer loop
      vertex 54.60876142978668 0.2066466584801674 0.8
      vertex 54.60876142978668 29.89335334300995 0.8
      vertex 54.55557022988796 29.93146961182356 0.8
    endloop
  endfacet
  facet normal 0 0 1
    outer loop
      vertex 54.60876142978668 0.2066466584801674 0.8
      vertex 54.65934581309557 0.24816019088029861 0.8
      vertex 54.60876142978668 29.89335334300995 0.8
    endloop
  endfacet
  facet normal 0 0 1
    outer loop
      vertex 54.65934581309557 0.24816019088029861 0.8
      vertex 54.65934581309557 29.851839810609818 0.8
      vertex 54.60876142978668 29.89335334300995 0.8
    endloop
  endfacet
  facet normal 0 0 1
    outer loop
      vertex 54.65934581309557 0.24816019088029861 0.8
      vertex 54.70710678398609 0.2928932160139084 0.8
      vertex 54.65934581309557 29.851839810609818 0.8
    endloop
  endfacet
  facet normal 0 0 1
    outer loop
      vertex 54.70710678398609 0.2928932160139084 0.8
      vertex 54.70710678398609 29.807106778025627 0.8
      vertex 54.65934581309557 29.851839810609818 0.8
    endloop
  endfacet
  facet normal 0 0 1
    outer loop
      vertex 54.70710678398609 0.2928932160139084 0.8
      vertex 54.7518398091197 0.3406541869044304 0.8
      vertex 54.70710678398609 29.807106778025627 0.8
    endloop
  endfacet
  facet normal 0 0 1
    outer loop
      vertex 54.7518398091197 0.3406541869044304 0.8
      vertex 54.7518398091197 29.759345814585686 0.8
      vertex 54.70710678398609 29.807106778025627 0.8
    endloop
  endfacet
  facet normal 0 0 1
    outer loop
      vertex 54.7518398091197 0.3406541869044304 0.8
      vertex 54.79335334151983 0.39123857021331787 0.8
      vertex 54.7518398091197 29.759345814585686 0.8
    endloop
  endfacet
  facet normal 0 0 1
    outer loop
      vertex 54.79335334151983 0.39123857021331787 0.8
      vertex 54.79335334151983 29.7087614312768 0.8
      vertex 54.7518398091197 29.759345814585686 0.8
    endloop
  endfacet
  facet normal 0 0 1
    outer loop
      vertex 54.79335334151983 0.39123857021331787 0.8
      vertex 54.83146961033344 0.44442977011203766 0.8
      vertex 54.79335334151983 29.7087614312768 0.8
    endloop
  endfacet
  facet normal 0 0 1
    outer loop
      vertex 54.83146961033344 0.44442977011203766 0.8
      vertex 54.83146961033344 29.65557023137808 0.8
      vertex 54.79335334151983 29.7087614312768 0.8
    endloop
  endfacet
  facet normal 0 0 1
    outer loop
      vertex 54.83146961033344 0.44442977011203766 0.8
      vertex 54.866025403141975 0.5 0.8
      vertex 54.83146961033344 29.65557023137808 0.8
    endloop
  endfacet
  facet normal 0 0 1
    outer loop
      vertex 54.866025403141975 0.5 0.8
      vertex 54.866025403141975 29.600000001490116 0.8
      vertex 54.83146961033344 29.65557023137808 0.8
    endloop
  endfacet
  facet normal 0 0 1
    outer loop
      vertex 54.866025403141975 0.5 0.8
      vertex 54.896872743964195 0.5577113106846809 0.8
      vertex 54.866025403141975 29.600000001490116 0.8
    endloop
  endfacet
  facet normal 0 0 1
    outer loop
      vertex 54.896872743964195 0.5577113106846809 0.8
      vertex 54.896872743964195 29.542288690805435 0.8
      vertex 54.866025403141975 29.600000001490116 0.8
    endloop
  endfacet
  facet normal 0 0 1
    outer loop
      vertex 54.896872743964195 0.5577113106846809 0.8
      vertex 54.92387953400612 0.6173165664076805 0.8
      vertex 54.896872743964195 29.542288690805435 0.8
    endloop
  endfacet
  facet normal 0 0 1
    outer loop
      vertex 54.92387953400612 0.6173165664076805 0.8
      vertex 54.92387953400612 29.482683435082436 0.8
      vertex 54.896872743964195 29.542288690805435 0.8
    endloop
  endfacet
  facet normal 0 0 1
    outer loop
      vertex 54.92387953400612 0.6173165664076805 0.8
      vertex 54.9469301328063 0.6785605326294899 0.8
      vertex 54.92387953400612 29.482683435082436 0.8
    endloop
  endfacet
  facet normal 0 0 1
    outer loop
      vertex 54.9469301328063 0.6785605326294899 0.8
      vertex 54.9469301328063 29.421439468860626 0.8
      vertex 54.92387953400612 29.482683435082436 0.8
    endloop
  endfacet
  facet normal 0 0 1
    outer loop
      vertex 54.9469301328063 0.6785605326294899 0.8
      vertex 54.965925827622414 0.741180956363678 0.8
      vertex 54.9469301328063 29.421439468860626 0.8
    endloop
  endfacet
  facet normal 0 0 1
    outer loop
      vertex 54.965925827622414 0.741180956363678 0.8
      vertex 54.965925827622414 29.358819045126438 0.8
      vertex 54.9469301328063 29.421439468860626 0.8
    endloop
  endfacet
  facet normal 0 0 1
    outer loop
      vertex 54.965925827622414 0.741180956363678 0.8
      vertex 54.98078528046608 0.8049096763134003 0.8
      vertex 54.965925827622414 29.358819045126438 0.8
    endloop
  endfacet
  facet normal 0 0 1
    outer loop
      vertex 54.98078528046608 0.8049096763134003 0.8
      vertex 54.98078528046608 29.295090325176716 0.8
      vertex 54.965925827622414 29.358819045126438 0.8
    endloop
  endfacet
  facet normal 0 0 1
    outer loop
      vertex 54.98078528046608 0.8049096763134003 0.8
      vertex 54.991444863379 0.8694738075137138 0.8
      vertex 54.98078528046608 29.295090325176716 0.8
    endloop
  endfacet
  facet normal 0 0 1
    outer loop
      vertex 54.991444863379 0.8694738075137138 0.8
      vertex 54.991444863379 29.230526193976402 0.8
      vertex 54.98078528046608 29.295090325176716 0.8
    endloop
  endfacet
  facet normal 0 0 1
    outer loop
      vertex 54.991444863379 0.8694738075137138 0.8
      vertex 54.99785892665386 0.934596873819828 0.8
      vertex 54.991444863379 29.230526193976402 0.8
    endloop
  endfacet
  facet normal 0 0 1
    outer loop
      vertex 54.99785892665386 0.934596873819828 0.8
      vertex 54.99785892665386 29.165403127670288 0.8
      vertex 54.991444863379 29.230526193976402 0.8
    endloop
  endfacet
  facet normal 0 0 1
    outer loop
      vertex 54.99785892665386 0.934596873819828 0.8
      vertex 55 1 0.8
      vertex 54.99785892665386 29.165403127670288 0.8
    endloop
  endfacet
  facet normal 0 0 1
    outer loop
      vertex 55 1 0.8
      vertex 55 29.100000001490116 0.8
      vertex 54.99785892665386 29.165403127670288 0.8
    endloop
  endfacet
  facet normal 0 0 -1
    outer loop
      vertex 0 29.100000001490116 0
      vertex 0.0021410733461380005 0.934596873819828 0
      vertex 0 1 0
    endloop
  endfacet
  facet normal 0 0 -1
    outer loop
      vertex 0 29.100000001490116 0
      vertex 0.0021410733461380005 29.165403127670288 0
      vertex 0.0021410733461380005 0.934596873819828 0
    endloop
  endfacet
  facet normal 0 0 -1
    outer loop
      vertex 0.0021410733461380005 29.165403127670288 0
      vertex 0.008555136620998383 0.8694738075137138 0
      vertex 0.0021410733461380005 0.934596873819828 0
    endloop
  endfacet
  facet normal 0 0 -1
    outer loop
      vertex 0.0021410733461380005 29.165403127670288 0
      vertex 0.008555136620998383 29.230526193976402 0
      vertex 0.008555136620998383 0.8694738075137138 0
    endloop
  endfacet
  facet normal 0 0 -1
    outer loop
      vertex 0.008555136620998383 29.230526193976402 0
      vertex 0.019214719533920288 0.8049096763134003 0
      vertex 0.008555136620998383 0.8694738075137138 0
    endloop
  endfacet
  facet normal 0 0 -1
    outer loop
      vertex 0.008555136620998383 29.230526193976402 0
      vertex 0.019214719533920288 29.295090325176716 0
      vertex 0.019214719533920288 0.8049096763134003 0
    endloop
  endfacet
  facet normal 0 0 -1
    outer loop
      vertex 0.019214719533920288 29.295090325176716 0
      vertex 0.034074172377586365 0.741180956363678 0
      vertex 0.019214719533920288 0.8049096763134003 0
    endloop
  endfacet
  facet normal 0 0 -1
    outer loop
      vertex 0.019214719533920288 29.295090325176716 0
      vertex 0.034074172377586365 29.358819045126438 0
      vertex 0.034074172377586365 0.741180956363678 0
    endloop
  endfacet
  facet normal 0 0 -1
    outer loop
      vertex 0.034074172377586365 29.358819045126438 0
      vertex 0.05306986719369888 0.6785605326294899 0
      vertex 0.034074172377586365 0.741180956363678 0
    endloop
  endfacet
  facet normal 0 0 -1
    outer loop
      vertex 0.034074172377586365 29.358819045126438 0
      vertex 0.05306986719369888 29.421439468860626 0
      vertex 0.05306986719369888 0.6785605326294899 0
    endloop
  endfacet
  facet normal 0 0 -1
    outer loop
      vertex 0.05306986719369888 29.421439468860626 0
      vertex 0.07612046599388123 0.6173165664076805 0
      vertex 0.05306986719369888 0.6785605326294899 0
    endloop
  endfacet
  facet normal 0 0 -1
    outer loop
      vertex 0.05306986719369888 29.421439468860626 0
      vertex 0.07612046599388123 29.482683435082436 0
      vertex 0.07612046599388123 0.6173165664076805 0
    endloop
  endfacet
  facet normal 0 0 -1
    outer loop
      vertex 0.07612046599388123 29.482683435082436 0
      vertex 0.10312725603580475 0.5577113106846809 0
      vertex 0.07612046599388123 0.6173165664076805 0
    endloop
  endfacet
  facet normal 0 0 -1
    outer loop
      vertex 0.07612046599388123 29.482683435082436 0
      vertex 0.10312725603580475 29.542288690805435 0
      vertex 0.10312725603580475 0.5577113106846809 0
    endloop
  endfacet
  facet normal 0 0 -1
    outer loop
      vertex 0.10312725603580475 29.542288690805435 0
      vertex 0.1339745968580246 0.5 0
      vertex 0.10312725603580475 0.5577113106846809 0
    endloop
  endfacet
  facet normal 0 0 -1
    outer loop
      vertex 0.10312725603580475 29.542288690805435 0
      vertex 0.1339745968580246 29.600000001490116 0
      vertex 0.1339745968580246 0.5 0
    endloop
  endfacet
  facet normal 0 0 -1
    outer loop
      vertex 0.1339745968580246 29.600000001490116 0
      vertex 0.1685303896665573 0.44442977011203766 0
      vertex 0.1339745968580246 0.5 0
    endloop
  endfacet
  facet normal 0 0 -1
    outer loop
      vertex 0.1339745968580246 29.600000001490116 0
      vertex 0.1685303896665573 29.65557023137808 0
      vertex 0.1685303896665573 0.44442977011203766 0
    endloop
  endfacet
  facet normal 0 0 -1
    outer loop
      vertex 0.1685303896665573 29.65557023137808 0
      vertex 0.2066466584801674 0.39123857021331787 0
      vertex 0.1685303896665573 0.44442977011203766 0
    endloop
  endfacet
  facet normal 0 0 -1
    outer loop
      vertex 0.1685303896665573 29.65557023137808 0
      vertex 0.2066466584801674 29.7087614312768 0
      vertex 0.2066466584801674 0.39123857021331787 0
    endloop
  endfacet
  facet normal 0 0 -1
    outer loop
      vertex 0.2066466584801674 29.7087614312768 0
      vertex 0.24816019088029861 0.3406541869044304 0
      vertex 0.2066466584801674 0.39123857021331787 0
    endloop
  endfacet
  facet normal 0 0 -1
    outer loop
      vertex 0.2066466584801674 29.7087614312768 0
      vertex 0.24816019088029861 29.759345814585686 0
      vertex 0.24816019088029861 0.3406541869044304 0
    endloop
  endfacet
  facet normal 0 0 -1
    outer loop
      vertex 0.24816019088029861 29.759345814585686 0
      vertex 0.2928932160139084 0.2928932160139084 0
      vertex 0.24816019088029861 0.3406541869044304 0
    endloop
  endfacet
  facet normal 0 0 -1
    outer loop
      vertex 0.24816019088029861 29.759345814585686 0
      vertex 0.2928932160139084 29.807106778025627 0
      vertex 0.2928932160139084 0.2928932160139084 0
    endloop
  endfacet
  facet normal 0 0 -1
    outer loop
      vertex 0.2928932160139084 29.807106778025627 0
      vertex 0.3406541869044304 0.24816019088029861 0
      vertex 0.2928932160139084 0.2928932160139084 0
    endloop
  endfacet
  facet normal 0 0 -1
    outer loop
      vertex 0.2928932160139084 29.807106778025627 0
      vertex 0.3406541869044304 29.851839810609818 0
      vertex 0.3406541869044304 0.24816019088029861 0
    endloop
  endfacet
  facet normal 0 0 -1
    outer loop
      vertex 0.3406541869044304 29.851839810609818 0
      vertex 0.39123857021331787 0.2066466584801674 0
      vertex 0.3406541869044304 0.24816019088029861 0
    endloop
  endfacet
  facet normal 0 0 -1
    outer loop
      vertex 0.3406541869044304 29.851839810609818 0
      vertex 0.39123857021331787 29.89335334300995 0
      vertex 0.39123857021331787 0.2066466584801674 0
    endloop
  endfacet
  facet normal 0 0 -1
    outer loop
      vertex 0.39123857021331787 29.89335334300995 0
      vertex 0.44442977011203766 0.1685303896665573 0
      vertex 0.39123857021331787 0.2066466584801674 0
    endloop
  endfacet
  facet normal 0 0 -1
    outer loop
      vertex 0.39123857021331787 29.89335334300995 0
      vertex 0.44442977011203766 29.93146961182356 0
      vertex 0.44442977011203766 0.1685303896665573 0
    endloop
  endfacet
  facet normal 0 0 -1
    outer loop
      vertex 0.44442977011203766 29.93146961182356 0
      vertex 0.5 0.1339745968580246 0
      vertex 0.44442977011203766 0.1685303896665573 0
    endloop
  endfacet
  facet normal 0 0 -1
    outer loop
      vertex 0.44442977011203766 29.93146961182356 0
      vertex 0.5 29.96602540463209 0
      vertex 0.5 0.1339745968580246 0
    endloop
  endfacet
  facet normal 0 0 -1
    outer loop
      vertex 0.5 29.96602540463209 0
      vertex 0.5577113106846809 0.10312725603580475 0
      vertex 0.5 0.1339745968580246 0
    endloop
  endfacet
  facet normal 0 0 -1
    outer loop
      vertex 0.5 29.96602540463209 0
      vertex 0.5577113106846809 29.99687273800373 0
      vertex 0.5577113106846809 0.10312725603580475 0
    endloop
  endfacet
  facet normal 0 0 -1
    outer loop
      vertex 0.5577113106846809 29.99687273800373 0
      vertex 0.6173165664076805 0.07612046599388123 0
      vertex 0.5577113106846809 0.10312725603580475 0
    endloop
  endfacet
  facet normal 0 0 -1
    outer loop
      vertex 0.5577113106846809 29.99687273800373 0
      vertex 0.6173165664076805 30.023879535496235 0
      vertex 0.6173165664076805 0.07612046599388123 0
    endloop
  endfacet
  facet normal 0 0 -1
    outer loop
      vertex 0.6173165664076805 30.023879535496235 0
      vertex 0.6785605326294899 0.05306986719369888 0
      vertex 0.6173165664076805 0.07612046599388123 0
    endloop
  endfacet
  facet normal 0 0 -1
    outer loop
      vertex 0.6173165664076805 30.023879535496235 0
      vertex 0.6785605326294899 30.046930126845837 0
      vertex 0.6785605326294899 0.05306986719369888 0
    endloop
  endfacet
  facet normal 0 0 -1
    outer loop
      vertex 0.6785605326294899 30.046930126845837 0
      vertex 0.741180956363678 0.034074172377586365 0
      vertex 0.6785605326294899 0.05306986719369888 0
    endloop
  endfacet
  facet normal 0 0 -1
    outer loop
      vertex 0.6785605326294899 30.046930126845837 0
      vertex 0.741180956363678 30.06592582911253 0
      vertex 0.741180956363678 0.034074172377586365 0
    endloop
  endfacet
  facet normal 0 0 -1
    outer loop
      vertex 0.741180956363678 30.06592582911253 0
      vertex 0.8049096763134003 0.019214719533920288 0
      vertex 0.741180956363678 0.034074172377586365 0
    endloop
  endfacet
  facet normal 0 0 -1
    outer loop
      vertex 0.741180956363678 30.06592582911253 0
      vertex 0.8049096763134003 30.080785281956196 0
      vertex 0.8049096763134003 0.019214719533920288 0
    endloop
  endfacet
  facet normal 0 0 -1
    outer loop
      vertex 0.8049096763134003 30.080785281956196 0
      vertex 0.8694738075137138 0.008555136620998383 0
      vertex 0.8049096763134003 0.019214719533920288 0
    endloop
  endfacet
  facet normal 0 0 -1
    outer loop
      vertex 0.8049096763134003 30.080785281956196 0
      vertex 0.8694738075137138 30.091444864869118 0
      vertex 0.8694738075137138 0.008555136620998383 0
    endloop
  endfacet
  facet normal 0 0 -1
    outer loop
      vertex 0.8694738075137138 30.091444864869118 0
      vertex 0.934596873819828 0.0021410733461380005 0
      vertex 0.8694738075137138 0.008555136620998383 0
    endloop
  endfacet
  facet normal 0 0 -1
    outer loop
      vertex 0.8694738075137138 30.091444864869118 0
      vertex 0.934596873819828 30.097858920693398 0
      vertex 0.934596873819828 0.0021410733461380005 0
    endloop
  endfacet
  facet normal 0 0 -1
    outer loop
      vertex 0.934596873819828 30.097858920693398 0
      vertex 1 0 0
      vertex 0.934596873819828 0.0021410733461380005 0
    endloop
  endfacet
  facet normal 0 0 -1
    outer loop
      vertex 0.934596873819828 30.097858920693398 0
      vertex 1 30.100000001490116 0
      vertex 1 0 0
    endloop
  endfacet
  facet normal 0 0 -1
    outer loop
      vertex 1 30.100000001490116 0
      vertex 54 0 0
      vertex 1 0 0
    endloop
  endfacet
  facet normal 0 0 -1
    outer loop
      vertex 1 30.100000001490116 0
      vertex 54 30.100000001490116 0
      vertex 54 0 0
    endloop
  endfacet
  facet normal 0 0 -1
    outer loop
      vertex 54 30.100000001490116 0
      vertex 54.06540312618017 0.0021410733461380005 0
      vertex 54 0 0
    endloop
  endfacet
  facet normal 0 0 -1
    outer loop
      vertex 54 30.100000001490116 0
      vertex 54.06540312618017 30.097858920693398 0
      vertex 54.06540312618017 0.0021410733461380005 0
    endloop
  endfacet
  facet normal 0 0 -1
    outer loop
      vertex 54.06540312618017 30.097858920693398 0
      vertex 54.130526192486286 0.008555136620998383 0
      vertex 54.06540312618017 0.0021410733461380005 0
    endloop
  endfacet
  facet normal 0 0 -1
    outer loop
      vertex 54.06540312618017 30.097858920693398 0
      vertex 54.130526192486286 30.091444864869118 0
      vertex 54.130526192486286 0.008555136620998383 0
    endloop
  endfacet
  facet normal 0 0 -1
    outer loop
      vertex 54.130526192486286 30.091444864869118 0
      vertex 54.1950903236866 0.019214719533920288 0
      vertex 54.130526192486286 0.008555136620998383 0
    endloop
  endfacet
  facet normal 0 0 -1
    outer loop
      vertex 54.130526192486286 30.091444864869118 0
      vertex 54.1950903236866 30.080785281956196 0
      vertex 54.1950903236866 0.019214719533920288 0
    endloop
  endfacet
  facet normal 0 0 -1
    outer loop
      vertex 54.1950903236866 30.080785281956196 0
      vertex 54.25881904363632 0.034074172377586365 0
      vertex 54.1950903236866 0.019214719533920288 0
    endloop
  endfacet
  facet normal 0 0 -1
    outer loop
      vertex 54.1950903236866 30.080785281956196 0
      vertex 54.25881904363632 30.06592582911253 0
      vertex 54.25881904363632 0.034074172377586365 0
    endloop
  endfacet
  facet normal 0 0 -1
    outer loop
      vertex 54.25881904363632 30.06592582911253 0
      vertex 54.32143946737051 0.05306986719369888 0
      vertex 54.25881904363632 0.034074172377586365 0
    endloop
  endfacet
  facet normal 0 0 -1
    outer loop
      vertex 54.25881904363632 30.06592582911253 0
      vertex 54.32143946737051 30.046930126845837 0
      vertex 54.32143946737051 0.05306986719369888 0
    endloop
  endfacet
  facet normal 0 0 -1
    outer loop
      vertex 54.32143946737051 30.046930126845837 0
      vertex 54.38268343359232 0.07612046599388123 0
      vertex 54.32143946737051 0.05306986719369888 0
    endloop
  endfacet
  facet normal 0 0 -1
    outer loop
      vertex 54.32143946737051 30.046930126845837 0
      vertex 54.38268343359232 30.023879535496235 0
      vertex 54.38268343359232 0.07612046599388123 0
    endloop
  endfacet
  facet normal 0 0 -1
    outer loop
      vertex 54.38268343359232 30.023879535496235 0
      vertex 54.44228868931532 0.10312725603580475 0
      vertex 54.38268343359232 0.07612046599388123 0
    endloop
  endfacet
  facet normal 0 0 -1
    outer loop
      vertex 54.38268343359232 30.023879535496235 0
      vertex 54.44228868931532 29.99687273800373 0
      vertex 54.44228868931532 0.10312725603580475 0
    endloop
  endfacet
  facet normal 0 0 -1
    outer loop
      vertex 54.44228868931532 29.99687273800373 0
      vertex 54.5 0.1339745968580246 0
      vertex 54.44228868931532 0.10312725603580475 0
    endloop
  endfacet
  facet normal 0 0 -1
    outer loop
      vertex 54.44228868931532 29.99687273800373 0
      vertex 54.5 29.96602540463209 0
      vertex 54.5 0.1339745968580246 0
    endloop
  endfacet
  facet normal 0 0 -1
    outer loop
      vertex 54.5 29.96602540463209 0
      vertex 54.55557022988796 0.1685303896665573 0
      vertex 54.5 0.1339745968580246 0
    endloop
  endfacet
  facet normal 0 0 -1
    outer loop
      vertex 54.5 29.96602540463209 0
      vertex 54.55557022988796 29.93146961182356 0
      vertex 54.55557022988796 0.1685303896665573 0
    endloop
  endfacet
  facet normal 0 0 -1
    outer loop
      vertex 54.55557022988796 29.93146961182356 0
      vertex 54.60876142978668 0.2066466584801674 0
      vertex 54.55557022988796 0.1685303896665573 0
    endloop
  endfacet
  facet normal 0 0 -1
    outer loop
      vertex 54.55557022988796 29.93146961182356 0
      vertex 54.60876142978668 29.89335334300995 0
      vertex 54.60876142978668 0.2066466584801674 0
    endloop
  endfacet
  facet normal 0 0 -1
    outer loop
      vertex 54.60876142978668 29.89335334300995 0
      vertex 54.65934581309557 0.24816019088029861 0
      vertex 54.60876142978668 0.2066466584801674 0
    endloop
  endfacet
  facet normal 0 0 -1
    outer loop
      vertex 54.60876142978668 29.89335334300995 0
      vertex 54.65934581309557 29.851839810609818 0
      vertex 54.65934581309557 0.24816019088029861 0
    endloop
  endfacet
  facet normal 0 0 -1
    outer loop
      vertex 54.65934581309557 29.851839810609818 0
      vertex 54.70710678398609 0.2928932160139084 0
      vertex 54.65934581309557 0.24816019088029861 0
    endloop
  endfacet
  facet normal 0 0 -1
    outer loop
      vertex 54.65934581309557 29.851839810609818 0
      vertex 54.70710678398609 29.807106778025627 0
      vertex 54.70710678398609 0.2928932160139084 0
    endloop
  endfacet
  facet normal 0 0 -1
    outer loop
      vertex 54.70710678398609 29.807106778025627 0
      vertex 54.7518398091197 0.3406541869044304 0
      vertex 54.70710678398609 0.2928932160139084 0
    endloop
  endfacet
  facet normal 0 0 -1
    outer loop
      vertex 54.70710678398609 29.807106778025627 0
      vertex 54.7518398091197 29.759345814585686 0
      vertex 54.7518398091197 0.3406541869044304 0
    endloop
  endfacet
  facet normal 0 0 -1
    outer loop
      vertex 54.7518398091197 29.759345814585686 0
      vertex 54.79335334151983 0.39123857021331787 0
      vertex 54.7518398091197 0.3406541869044304 0
    endloop
  endfacet
  facet normal 0 0 -1
    outer loop
      vertex 54.7518398091197 29.759345814585686 0
      vertex 54.79335334151983 29.7087614312768 0
      vertex 54.79335334151983 0.39123857021331787 0
    endloop
  endfacet
  facet normal 0 0 -1
    outer loop
      vertex 54.79335334151983 29.7087614312768 0
      vertex 54.83146961033344 0.44442977011203766 0
      vertex 54.79335334151983 0.39123857021331787 0
    endloop
  endfacet
  facet normal 0 0 -1
    outer loop
      vertex 54.79335334151983 29.7087614312768 0
      vertex 54.83146961033344 29.65557023137808 0
      vertex 54.83146961033344 0.44442977011203766 0
    endloop
  endfacet
  facet normal 0 0 -1
    outer loop
      vertex 54.83146961033344 29.65557023137808 0
      vertex 54.866025403141975 0.5 0
      vertex 54.83146961033344 0.44442977011203766 0
    endloop
  endfacet
  facet normal 0 0 -1
    outer loop
      vertex 54.83146961033344 29.65557023137808 0
      vertex 54.866025403141975 29.600000001490116 0
      vertex 54.866025403141975 0.5 0
    endloop
  endfacet
  facet normal 0 0 -1
    outer loop
      vertex 54.866025403141975 29.600000001490116 0
      vertex 54.896872743964195 0.5577113106846809 0
      vertex 54.866025403141975 0.5 0
    endloop
  endfacet
  facet normal 0 0 -1
    outer loop
      vertex 54.866025403141975 29.600000001490116 0
      vertex 54.896872743964195 29.542288690805435 0
      vertex 54.896872743964195 0.5577113106846809 0
    endloop
  endfacet
  facet normal 0 0 -1
    outer loop
      vertex 54.896872743964195 29.542288690805435 0
      vertex 54.92387953400612 0.6173165664076805 0
      vertex 54.896872743964195 0.5577113106846809 0
    endloop
  endfacet
  facet normal 0 0 -1
    outer loop
      vertex 54.896872743964195 29.542288690805435 0
      vertex 54.92387953400612 29.482683435082436 0
      vertex 54.92387953400612 0.6173165664076805 0
    endloop
  endfacet
  facet normal 0 0 -1
    outer loop
      vertex 54.92387953400612 29.482683435082436 0
      vertex 54.9469301328063 0.6785605326294899 0
      vertex 54.92387953400612 0.6173165664076805 0
    endloop
  endfacet
  facet normal 0 0 -1
    outer loop
      vertex 54.92387953400612 29.482683435082436 0
      vertex 54.9469301328063 29.421439468860626 0
      vertex 54.9469301328063 0.6785605326294899 0
    endloop
  endfacet
  facet normal 0 0 -1
    outer loop
      vertex 54.9469301328063 29.421439468860626 0
      vertex 54.965925827622414 0.741180956363678 0
      vertex 54.9469301328063 0.6785605326294899 0
    endloop
  endfacet
  facet normal 0 0 -1
    outer loop
      vertex 54.9469301328063 29.421439468860626 0
      vertex 54.965925827622414 29.358819045126438 0
      vertex 54.965925827622414 0.741180956363678 0
    endloop
  endfacet
  facet normal 0 0 -1
    outer loop
      vertex 54.965925827622414 29.358819045126438 0
      vertex 54.98078528046608 0.8049096763134003 0
      vertex 54.965925827622414 0.741180956363678 0
    endloop
  endfacet
  facet normal 0 0 -1
    outer loop
      vertex 54.965925827622414 29.358819045126438 0
      vertex 54.98078528046608 29.295090325176716 0
      vertex 54.98078528046608 0.8049096763134003 0
    endloop
  endfacet
  facet normal 0 0 -1
    outer loop
      vertex 54.98078528046608 29.295090325176716 0
      vertex 54.991444863379 0.8694738075137138 0
      vertex 54.98078528046608 0.8049096763134003 0
    endloop
  endfacet
  facet normal 0 0 -1
    outer loop
      vertex 54.98078528046608 29.295090325176716 0
      vertex 54.991444863379 29.230526193976402 0
      vertex 54.991444863379 0.8694738075137138 0
    endloop
  endfacet
  facet normal 0 0 -1
    outer loop
      vertex 54.991444863379 29.230526193976402 0
      vertex 54.99785892665386 0.934596873819828 0
      vertex 54.991444863379 0.8694738075137138 0
    endloop
  endfacet
  facet normal 0 0 -1
    outer loop
      vertex 54.991444863379 29.230526193976402 0
      vertex 54.99785892665386 29.165403127670288 0
      vertex 54.99785892665386 0.934596873819828 0
    endloop
  endfacet
  facet normal 0 0 -1
    outer loop
      vertex 54.99785892665386 29.165403127670288 0
      vertex 55 1 0
      vertex 54.99785892665386 0.934596873819828 0
    endloop
  endfacet
  facet normal 0 0 -1
    outer loop
      vertex 54.99785892665386 29.165403127670288 0
      vertex 55 29.100000001490116 0
      vertex 55 1 0
    endloop
  endfacet
endsolid OpenSCAD_Model
