M48
; DRILL file KiCad 10.0.5 date 2026-09-09T18:15:50
; FORMAT={-:-/ absolute / metric / decimal}
; #@! TF.CreationDate,2026-09-09T18:15:50+02:00
; #@! TF.GenerationSoftware,Kicad,Pcbnew,10.0.5
; #@! TF.FileFunction,Plated,1,4,PTH
FMAT,2
METRIC
; #@! TA.AperFunction,Plated,PTH,ViaDrill
T1C0.200
; #@! TA.AperFunction,Plated,PTH,ComponentDrill
T2C0.200
; #@! TA.AperFunction,Plated,PTH,ViaDrill
T3C0.300
; #@! TA.AperFunction,Plated,PTH,ComponentDrill
T4C0.600
%
G90
G05
T1
X7.25Y-41.675
X7.5Y-7.05
X7.5Y-8.625
X7.8Y-37.5
X8.025Y-12.075
X8.025Y-26.925
X9.225Y-9.45
X9.45Y-7.05
X10.95Y-33.525
X11.101Y-9.412
X11.475Y-7.05
X11.7Y-8.925
X11.9Y-41.125
X13.575Y-31.65
X13.65Y-3.0
X13.695Y-9.51
X13.95Y-7.2
X13.95Y-8.475
X14.55Y-36.0
X15.825Y-1.425
X16.45Y-33.3
X16.5Y-38.025
X16.9Y-9.525
X17.7Y-34.725
X17.85Y-33.0
X18.0Y-1.425
X18.15Y-3.0
X18.15Y-37.575
X18.4Y-7.85
X20.39Y-35.225
X20.7Y-1.425
X20.775Y-40.425
X21.0Y-4.0
X21.45Y-7.575
X21.525Y-37.725
X21.75Y-31.7
X21.799Y-9.279
X21.8Y-4.0
X21.95Y-12.05
X22.351Y-23.939
X23.208Y-21.71
X23.25Y-37.575
X23.4Y-9.15
X23.55Y-35.075
X23.625Y-29.935
X24.067Y-35.658
X24.8Y-44.037
X24.9Y-1.35
X25.125Y-31.125
X25.125Y-38.025
X25.275Y-42.825
X26.325Y-10.5
X26.55Y-7.575
X26.6Y-38.425
X30.82Y-31.914
X31.95Y-36.6
X32.296Y-24.121
X33.82Y-17.459
X34.05Y-15.45
X35.925Y-41.55
X36.15Y-33.02
X36.525Y-41.25
X36.811Y-44.402
X37.998Y-32.4
X38.0Y-43.85
X38.6Y-36.4
X39.0Y-38.9
X39.0Y-41.15
X39.1Y-43.85
X39.4Y-36.4
X40.275Y-43.8
X41.475Y-41.25
X42.375Y-41.55
X42.434Y-44.608
X43.125Y-34.35
X43.425Y-10.5
X43.875Y-39.675
X44.125Y-37.825
X44.709Y-41.972
X45.15Y-45.0
X45.275Y-28.325
X45.96Y-47.65
X46.625Y-33.6
X46.75Y-29.8
X46.8Y-35.4
X46.842Y-42.25
X48.45Y-44.55
X48.825Y-47.1
X49.2Y-19.5
X49.2Y-48.0
X49.95Y-40.05
X50.7Y-25.275
X51.45Y-33.75
X51.525Y-21.525
X52.35Y-10.5
X53.25Y-40.875
X53.85Y-48.45
X53.975Y-34.425
X54.175Y-38.425
X54.45Y-36.9
X55.808Y-45.48
X55.852Y-29.564
X56.821Y-36.25
X57.3Y-38.475
X58.65Y-33.9
X59.175Y-36.275
X59.25Y-25.05
X59.25Y-29.7
X59.7Y-30.15
X60.75Y-19.725
X60.825Y-38.85
X61.0Y-36.825
X61.125Y-29.85
X61.575Y-35.85
X61.725Y-33.0
X61.75Y-30.475
X63.525Y-46.275
X63.7Y-28.05
X64.3Y-19.5
X64.575Y-34.35
X64.8Y-8.55
X64.875Y-36.3
X64.875Y-37.35
X65.325Y-30.825
X66.05Y-7.45
X66.275Y-25.675
X66.3Y-24.6
X66.4Y-21.6
X66.6Y-35.4
X66.751Y-16.198
X66.825Y-26.025
X66.9Y-7.35
X66.9Y-25.275
X66.975Y-15.3
X67.2Y-18.0
X67.2Y-20.775
X67.5Y-3.0
X67.65Y-4.8
X67.75Y-6.125
X67.75Y-7.35
X67.8Y-21.675
X68.7Y-18.375
X69.0Y-9.225
X69.6Y-15.975
X69.825Y-13.875
X70.2Y-16.425
X70.35Y-20.1
X70.575Y-16.875
X70.6Y-18.0
X71.025Y-34.5
X71.6Y-10.3
X72.9Y-13.275
X73.4Y-11.8
X74.025Y-22.875
X74.25Y-21.225
X74.325Y-9.075
X76.2Y-13.5
T2
X14.31Y-17.3
X14.31Y-18.7
X15.01Y-16.6
X15.01Y-18.0
X15.01Y-19.4
X15.71Y-17.3
X15.71Y-18.7
X16.41Y-16.6
X16.41Y-18.0
X16.41Y-19.4
X17.11Y-17.3
X17.11Y-18.7
X69.0Y-10.0
X69.0Y-11.0
T3
X4.0Y-46.5
X8.0Y-2.5
X8.0Y-14.5
X8.0Y-18.5
X8.0Y-22.5
X8.0Y-30.5
X8.0Y-34.5
X8.0Y-38.5
X8.0Y-42.5
X8.0Y-46.5
X8.4Y-29.625
X11.475Y-8.2
X11.55Y-26.925
X12.0Y-14.5
X12.0Y-18.5
X12.0Y-22.5
X12.0Y-34.5
X12.0Y-38.5
X12.0Y-42.5
X12.0Y-46.5
X13.5Y-6.525
X14.05Y-26.975
X15.375Y-12.075
X15.85Y-7.725
X16.0Y-2.5
X16.0Y-14.5
X16.0Y-22.5
X16.0Y-30.5
X16.0Y-34.5
X16.0Y-38.5
X16.0Y-42.5
X16.0Y-46.5
X16.65Y-12.075
X17.225Y-5.9
X17.775Y-12.075
X18.975Y-12.075
X19.975Y-9.475
X20.0Y-14.5
X20.0Y-18.5
X20.0Y-22.5
X20.0Y-26.5
X20.0Y-30.5
X20.0Y-34.5
X20.0Y-38.5
X20.0Y-42.5
X20.0Y-46.5
X20.1Y-4.0
X20.575Y-5.425
X21.025Y-13.775
X21.075Y-12.6
X21.075Y-26.4
X21.4Y-5.5
X21.825Y-6.9
X22.25Y-20.675
X22.8Y-3.075
X23.575Y-22.875
X23.75Y-18.825
X23.75Y-20.075
X23.925Y-31.125
X24.0Y-38.5
X24.0Y-42.5
X24.0Y-46.5
X24.075Y-26.975
X24.2Y-17.825
X24.325Y-24.175
X24.375Y-21.6
X24.475Y-13.325
X26.025Y-5.55
X26.25Y-6.9
X27.0Y-24.6
X27.025Y-19.375
X27.1Y-12.725
X27.125Y-15.5
X27.2Y-20.675
X27.3Y-16.425
X27.35Y-25.85
X27.6Y-23.1
X28.0Y-2.5
X28.0Y-26.5
X28.0Y-34.5
X28.0Y-38.5
X28.0Y-42.5
X28.0Y-46.5
X28.2Y-16.575
X28.25Y-24.95
X28.275Y-20.625
X28.575Y-35.775
X28.75Y-19.3
X28.775Y-21.925
X28.825Y-17.2
X28.825Y-18.475
X28.95Y-4.925
X29.0Y-13.25
X29.125Y-20.675
X29.625Y-30.375
X29.975Y-18.725
X30.375Y-21.925
X30.375Y-36.45
X30.45Y-22.75
X30.825Y-16.45
X30.875Y-19.775
X30.875Y-20.675
X31.35Y-34.575
X31.575Y-35.775
X31.6Y-20.225
X31.6Y-29.5
X31.65Y-38.85
X32.0Y-2.5
X32.0Y-10.5
X32.0Y-14.5
X32.0Y-42.5
X32.0Y-46.5
X32.125Y-21.925
X32.3Y-20.675
X32.75Y-22.55
X33.125Y-17.675
X33.6Y-34.5
X33.75Y-18.3
X34.6Y-18.35
X34.675Y-19.2
X34.7Y-10.675
X35.2Y-14.725
X35.3Y-19.85
X35.6Y-12.325
X36.0Y-2.5
X36.0Y-10.5
X36.0Y-14.5
X36.0Y-18.5
X36.0Y-30.5
X36.0Y-46.5
X36.2Y-29.5
X36.6Y-21.75
X36.85Y-12.55
X36.875Y-34.025
X36.95Y-22.5
X37.5Y-23.125
X37.5Y-35.325
X37.55Y-36.4
X37.95Y-33.15
X38.2Y-19.7
X38.75Y-23.05
X38.875Y-16.5
X39.975Y-27.325
X40.0Y-2.5
X40.0Y-10.5
X40.0Y-14.5
X40.0Y-18.5
X40.0Y-22.5
X40.0Y-26.5
X40.0Y-46.5
X40.3Y-30.25
X40.425Y-35.325
X40.45Y-36.4
X40.575Y-33.15
X40.725Y-41.275
X41.35Y-29.5
X42.3Y-31.35
X42.575Y-32.125
X42.6Y-35.55
X42.95Y-37.875
X43.1Y-29.5
X43.15Y-36.175
X43.55Y-40.35
X43.775Y-34.725
X43.8Y-45.75
X44.0Y-2.5
X44.0Y-14.5
X44.0Y-18.5
X44.0Y-22.5
X44.0Y-26.5
X44.15Y-29.5
X44.7Y-31.95
X44.7Y-45.75
X44.775Y-30.05
X45.025Y-35.625
X45.525Y-31.925
X46.7Y-32.75
X46.8Y-45.15
X47.0Y-36.575
X47.25Y-31.35
X47.475Y-22.0
X47.75Y-46.925
X48.0Y-2.5
X48.0Y-10.5
X48.0Y-14.5
X48.0Y-18.5
X48.0Y-27.125
X48.0Y-34.5
X48.175Y-36.575
X48.2Y-38.0
X48.3Y-21.925
X48.375Y-40.925
X48.4Y-27.85
X49.125Y-28.25
X49.425Y-35.3
X49.5Y-30.8
X50.0Y-19.85
X50.5Y-26.025
X50.6Y-31.95
X50.725Y-36.6
X50.75Y-30.0
X50.9Y-23.5
X51.1Y-34.5
X51.525Y-29.725
X51.675Y-43.725
X51.7Y-36.15
X51.8Y-27.325
X52.0Y-2.5
X52.0Y-14.5
X52.0Y-18.5
X52.0Y-30.5
X52.0Y-34.5
X52.0Y-38.5
X52.4Y-26.725
X52.4Y-31.225
X52.675Y-38.025
X52.7Y-28.225
X53.425Y-38.625
X53.825Y-32.525
X54.2Y-23.175
X54.375Y-29.9
X54.75Y-24.35
X55.025Y-38.45
X55.1Y-36.15
X55.2Y-29.925
X55.35Y-34.125
X55.375Y-25.25
X55.85Y-32.1
X56.0Y-2.5
X56.0Y-14.5
X56.0Y-18.5
X56.275Y-24.35
X56.275Y-34.05
X56.3Y-38.675
X56.5Y-20.75
X56.675Y-32.025
X56.85Y-37.625
X57.1Y-34.1
X57.2Y-29.7
X57.4Y-36.725
X57.825Y-34.5
X58.025Y-46.05
X58.425Y-21.825
X58.45Y-22.725
X58.475Y-39.6
X58.6Y-38.35
X60.0Y-2.5
X60.0Y-10.5
X60.0Y-18.5
X60.0Y-22.5
X60.125Y-36.4
X60.25Y-35.325
X60.375Y-29.8
X60.65Y-34.275
X61.7Y-22.95
X61.75Y-28.6
X61.925Y-26.85
X62.6Y-23.85
X62.7Y-27.3
X63.0Y-12.85
X63.125Y-24.75
X63.35Y-10.4
X63.425Y-11.65
X64.0Y-2.5
X64.0Y-14.5
X64.0Y-18.5
X64.0Y-22.5
X64.0Y-30.325
X64.0Y-32.25
X64.225Y-17.7
X64.35Y-33.0
X64.4Y-40.175
X64.65Y-38.075
X64.975Y-23.8
X65.025Y-9.275
X65.05Y-22.975
X65.625Y-28.85
X66.225Y-23.75
X66.825Y-30.375
X67.275Y-5.55
X67.5Y-13.425
X67.525Y-29.5
X67.575Y-28.675
X67.75Y-19.65
X67.875Y-12.6
X68.0Y-30.5
X68.0Y-34.5
X68.0Y-38.5
X68.0Y-42.5
X68.475Y-23.475
X68.5Y-7.35
X68.7Y-29.925
X69.0Y-14.25
X69.0Y-19.125
X69.075Y-28.125
X69.65Y-30.85
X69.75Y-9.075
X70.125Y-28.575
X70.425Y-23.325
X70.7Y-19.225
X72.0Y-2.5
X72.0Y-6.5
X72.0Y-30.5
X72.0Y-42.5
X72.0Y-46.5
X72.3Y-26.775
X72.7Y-14.875
X73.425Y-33.375
X74.325Y-11.175
X76.0Y-6.5
X76.0Y-10.5
X76.0Y-14.5
X76.0Y-26.5
X76.0Y-38.5
X76.0Y-42.5
X76.5Y-36.45
X77.3Y-32.3
T4
X34.68Y-44.02G85X34.68Y-42.92
G05
X34.68Y-47.95G85X34.68Y-47.35
G05
X43.32Y-44.02G85X43.32Y-42.92
G05
X43.32Y-47.95G85X43.32Y-47.35
G05
M30
