%TF.GenerationSoftware,KiCad,Pcbnew,10.0.5*%
%TF.CreationDate,2026-09-08T00:24:35+02:00*%
%TF.ProjectId,cicala_rev_a,63696361-6c61-45f7-9265-765f612e6b69,A0*%
%TF.SameCoordinates,Original*%
%TF.FileFunction,Drillmap*%
%TF.FilePolarity,Positive*%
%FSLAX45Y45*%
G04 Gerber Fmt 4.5, Leading zero omitted, Abs format (unit mm)*
G04 Created by KiCad (PCBNEW 10.0.5) date 2026-09-08 00:24:35*
%MOMM*%
%LPD*%
G01*
G04 APERTURE LIST*
%ADD10C,0.150000*%
%ADD11C,0.200000*%
%ADD12C,0.100000*%
%ADD13C,0.270000*%
G04 APERTURE END LIST*
D10*
X0Y-200000D02*
G75*
G02*
X200000Y0I200000J0D01*
G01*
X0Y-4700000D02*
X0Y-200000D01*
X200000Y0D02*
X7600000Y0D01*
X200000Y-4900000D02*
G75*
G02*
X0Y-4700000I0J200000D01*
G01*
X7600000Y0D02*
G75*
G02*
X7800000Y-200000I0J-200000D01*
G01*
X7600000Y-4900000D02*
X200000Y-4900000D01*
X7800000Y-200000D02*
X7800000Y-4700000D01*
X7800000Y-4700000D02*
G75*
G02*
X7600000Y-4900000I-200000J0D01*
G01*
D11*
D12*
X3578500Y-4367500D02*
X3643500Y-4432500D01*
X3643500Y-4367500D02*
X3578500Y-4432500D01*
X4156500Y-4367500D02*
X4221500Y-4432500D01*
X4221500Y-4367500D02*
X4156500Y-4432500D01*
X3395530Y-1650000D02*
G75*
G02*
X3296470Y-1650000I-49530J0D01*
G01*
X3296470Y-1650000D02*
G75*
G02*
X3395530Y-1650000I49530J0D01*
G01*
X3903530Y-1548400D02*
G75*
G02*
X3804470Y-1548400I-49530J0D01*
G01*
X3804470Y-1548400D02*
G75*
G02*
X3903530Y-1548400I49530J0D01*
G01*
X3903530Y-1751600D02*
G75*
G02*
X3804470Y-1751600I-49530J0D01*
G01*
X3804470Y-1751600D02*
G75*
G02*
X3903530Y-1751600I49530J0D01*
G01*
D13*
X1000000Y-215000D02*
X1000000Y-485000D01*
X865000Y-350000D02*
X1135000Y-350000D01*
X1000000Y-4415000D02*
X1000000Y-4685000D01*
X865000Y-4550000D02*
X1135000Y-4550000D01*
X7450000Y-215000D02*
X7450000Y-485000D01*
X7315000Y-350000D02*
X7585000Y-350000D01*
X7600000Y-4415000D02*
X7600000Y-4685000D01*
X7465000Y-4550000D02*
X7735000Y-4550000D01*
D11*
X253277Y-5218984D02*
X253277Y-5018984D01*
X253277Y-5018984D02*
X300896Y-5018984D01*
X300896Y-5018984D02*
X329467Y-5028508D01*
X329467Y-5028508D02*
X348515Y-5047555D01*
X348515Y-5047555D02*
X358039Y-5066603D01*
X358039Y-5066603D02*
X367562Y-5104698D01*
X367562Y-5104698D02*
X367562Y-5133270D01*
X367562Y-5133270D02*
X358039Y-5171365D01*
X358039Y-5171365D02*
X348515Y-5190412D01*
X348515Y-5190412D02*
X329467Y-5209460D01*
X329467Y-5209460D02*
X300896Y-5218984D01*
X300896Y-5218984D02*
X253277Y-5218984D01*
X453277Y-5218984D02*
X453277Y-5085650D01*
X453277Y-5123746D02*
X462801Y-5104698D01*
X462801Y-5104698D02*
X472324Y-5095174D01*
X472324Y-5095174D02*
X491372Y-5085650D01*
X491372Y-5085650D02*
X510420Y-5085650D01*
X577086Y-5218984D02*
X577086Y-5085650D01*
X577086Y-5018984D02*
X567563Y-5028508D01*
X567563Y-5028508D02*
X577086Y-5038031D01*
X577086Y-5038031D02*
X586610Y-5028508D01*
X586610Y-5028508D02*
X577086Y-5018984D01*
X577086Y-5018984D02*
X577086Y-5038031D01*
X700896Y-5218984D02*
X681848Y-5209460D01*
X681848Y-5209460D02*
X672324Y-5190412D01*
X672324Y-5190412D02*
X672324Y-5018984D01*
X805658Y-5218984D02*
X786610Y-5209460D01*
X786610Y-5209460D02*
X777086Y-5190412D01*
X777086Y-5190412D02*
X777086Y-5018984D01*
X1034229Y-5218984D02*
X1034229Y-5018984D01*
X1034229Y-5018984D02*
X1100896Y-5161841D01*
X1100896Y-5161841D02*
X1167563Y-5018984D01*
X1167563Y-5018984D02*
X1167563Y-5218984D01*
X1348515Y-5218984D02*
X1348515Y-5114222D01*
X1348515Y-5114222D02*
X1338991Y-5095174D01*
X1338991Y-5095174D02*
X1319944Y-5085650D01*
X1319944Y-5085650D02*
X1281848Y-5085650D01*
X1281848Y-5085650D02*
X1262801Y-5095174D01*
X1348515Y-5209460D02*
X1329467Y-5218984D01*
X1329467Y-5218984D02*
X1281848Y-5218984D01*
X1281848Y-5218984D02*
X1262801Y-5209460D01*
X1262801Y-5209460D02*
X1253277Y-5190412D01*
X1253277Y-5190412D02*
X1253277Y-5171365D01*
X1253277Y-5171365D02*
X1262801Y-5152317D01*
X1262801Y-5152317D02*
X1281848Y-5142793D01*
X1281848Y-5142793D02*
X1329467Y-5142793D01*
X1329467Y-5142793D02*
X1348515Y-5133270D01*
X1443753Y-5085650D02*
X1443753Y-5285650D01*
X1443753Y-5095174D02*
X1462801Y-5085650D01*
X1462801Y-5085650D02*
X1500896Y-5085650D01*
X1500896Y-5085650D02*
X1519943Y-5095174D01*
X1519943Y-5095174D02*
X1529467Y-5104698D01*
X1529467Y-5104698D02*
X1538991Y-5123746D01*
X1538991Y-5123746D02*
X1538991Y-5180889D01*
X1538991Y-5180889D02*
X1529467Y-5199936D01*
X1529467Y-5199936D02*
X1519943Y-5209460D01*
X1519943Y-5209460D02*
X1500896Y-5218984D01*
X1500896Y-5218984D02*
X1462801Y-5218984D01*
X1462801Y-5218984D02*
X1443753Y-5209460D01*
X1624705Y-5199936D02*
X1634229Y-5209460D01*
X1634229Y-5209460D02*
X1624705Y-5218984D01*
X1624705Y-5218984D02*
X1615182Y-5209460D01*
X1615182Y-5209460D02*
X1624705Y-5199936D01*
X1624705Y-5199936D02*
X1624705Y-5218984D01*
X1624705Y-5095174D02*
X1634229Y-5104698D01*
X1634229Y-5104698D02*
X1624705Y-5114222D01*
X1624705Y-5114222D02*
X1615182Y-5104698D01*
X1615182Y-5104698D02*
X1624705Y-5095174D01*
X1624705Y-5095174D02*
X1624705Y-5114222D01*
D12*
X-72500Y-5515000D02*
X-7500Y-5580000D01*
X-7500Y-5515000D02*
X-72500Y-5580000D01*
D11*
X291372Y-5438984D02*
X310420Y-5438984D01*
X310420Y-5438984D02*
X329467Y-5448508D01*
X329467Y-5448508D02*
X338991Y-5458031D01*
X338991Y-5458031D02*
X348515Y-5477079D01*
X348515Y-5477079D02*
X358039Y-5515174D01*
X358039Y-5515174D02*
X358039Y-5562793D01*
X358039Y-5562793D02*
X348515Y-5600888D01*
X348515Y-5600888D02*
X338991Y-5619936D01*
X338991Y-5619936D02*
X329467Y-5629460D01*
X329467Y-5629460D02*
X310420Y-5638984D01*
X310420Y-5638984D02*
X291372Y-5638984D01*
X291372Y-5638984D02*
X272324Y-5629460D01*
X272324Y-5629460D02*
X262801Y-5619936D01*
X262801Y-5619936D02*
X253277Y-5600888D01*
X253277Y-5600888D02*
X243753Y-5562793D01*
X243753Y-5562793D02*
X243753Y-5515174D01*
X243753Y-5515174D02*
X253277Y-5477079D01*
X253277Y-5477079D02*
X262801Y-5458031D01*
X262801Y-5458031D02*
X272324Y-5448508D01*
X272324Y-5448508D02*
X291372Y-5438984D01*
X443753Y-5619936D02*
X453277Y-5629460D01*
X453277Y-5629460D02*
X443753Y-5638984D01*
X443753Y-5638984D02*
X434229Y-5629460D01*
X434229Y-5629460D02*
X443753Y-5619936D01*
X443753Y-5619936D02*
X443753Y-5638984D01*
X624705Y-5438984D02*
X586610Y-5438984D01*
X586610Y-5438984D02*
X567563Y-5448508D01*
X567563Y-5448508D02*
X558039Y-5458031D01*
X558039Y-5458031D02*
X538991Y-5486603D01*
X538991Y-5486603D02*
X529467Y-5524698D01*
X529467Y-5524698D02*
X529467Y-5600888D01*
X529467Y-5600888D02*
X538991Y-5619936D01*
X538991Y-5619936D02*
X548515Y-5629460D01*
X548515Y-5629460D02*
X567563Y-5638984D01*
X567563Y-5638984D02*
X605658Y-5638984D01*
X605658Y-5638984D02*
X624705Y-5629460D01*
X624705Y-5629460D02*
X634229Y-5619936D01*
X634229Y-5619936D02*
X643753Y-5600888D01*
X643753Y-5600888D02*
X643753Y-5553270D01*
X643753Y-5553270D02*
X634229Y-5534222D01*
X634229Y-5534222D02*
X624705Y-5524698D01*
X624705Y-5524698D02*
X605658Y-5515174D01*
X605658Y-5515174D02*
X567563Y-5515174D01*
X567563Y-5515174D02*
X548515Y-5524698D01*
X548515Y-5524698D02*
X538991Y-5534222D01*
X538991Y-5534222D02*
X529467Y-5553270D01*
X824705Y-5438984D02*
X729467Y-5438984D01*
X729467Y-5438984D02*
X719943Y-5534222D01*
X719943Y-5534222D02*
X729467Y-5524698D01*
X729467Y-5524698D02*
X748515Y-5515174D01*
X748515Y-5515174D02*
X796134Y-5515174D01*
X796134Y-5515174D02*
X815182Y-5524698D01*
X815182Y-5524698D02*
X824705Y-5534222D01*
X824705Y-5534222D02*
X834229Y-5553270D01*
X834229Y-5553270D02*
X834229Y-5600888D01*
X834229Y-5600888D02*
X824705Y-5619936D01*
X824705Y-5619936D02*
X815182Y-5629460D01*
X815182Y-5629460D02*
X796134Y-5638984D01*
X796134Y-5638984D02*
X748515Y-5638984D01*
X748515Y-5638984D02*
X729467Y-5629460D01*
X729467Y-5629460D02*
X719943Y-5619936D01*
X958039Y-5438984D02*
X977086Y-5438984D01*
X977086Y-5438984D02*
X996134Y-5448508D01*
X996134Y-5448508D02*
X1005658Y-5458031D01*
X1005658Y-5458031D02*
X1015182Y-5477079D01*
X1015182Y-5477079D02*
X1024705Y-5515174D01*
X1024705Y-5515174D02*
X1024705Y-5562793D01*
X1024705Y-5562793D02*
X1015182Y-5600888D01*
X1015182Y-5600888D02*
X1005658Y-5619936D01*
X1005658Y-5619936D02*
X996134Y-5629460D01*
X996134Y-5629460D02*
X977086Y-5638984D01*
X977086Y-5638984D02*
X958039Y-5638984D01*
X958039Y-5638984D02*
X938991Y-5629460D01*
X938991Y-5629460D02*
X929467Y-5619936D01*
X929467Y-5619936D02*
X919943Y-5600888D01*
X919943Y-5600888D02*
X910420Y-5562793D01*
X910420Y-5562793D02*
X910420Y-5515174D01*
X910420Y-5515174D02*
X919943Y-5477079D01*
X919943Y-5477079D02*
X929467Y-5458031D01*
X929467Y-5458031D02*
X938991Y-5448508D01*
X938991Y-5448508D02*
X958039Y-5438984D01*
X1110420Y-5638984D02*
X1110420Y-5505650D01*
X1110420Y-5524698D02*
X1119944Y-5515174D01*
X1119944Y-5515174D02*
X1138991Y-5505650D01*
X1138991Y-5505650D02*
X1167563Y-5505650D01*
X1167563Y-5505650D02*
X1186610Y-5515174D01*
X1186610Y-5515174D02*
X1196134Y-5534222D01*
X1196134Y-5534222D02*
X1196134Y-5638984D01*
X1196134Y-5534222D02*
X1205658Y-5515174D01*
X1205658Y-5515174D02*
X1224705Y-5505650D01*
X1224705Y-5505650D02*
X1253277Y-5505650D01*
X1253277Y-5505650D02*
X1272325Y-5515174D01*
X1272325Y-5515174D02*
X1281848Y-5534222D01*
X1281848Y-5534222D02*
X1281848Y-5638984D01*
X1377086Y-5638984D02*
X1377086Y-5505650D01*
X1377086Y-5524698D02*
X1386610Y-5515174D01*
X1386610Y-5515174D02*
X1405658Y-5505650D01*
X1405658Y-5505650D02*
X1434229Y-5505650D01*
X1434229Y-5505650D02*
X1453277Y-5515174D01*
X1453277Y-5515174D02*
X1462801Y-5534222D01*
X1462801Y-5534222D02*
X1462801Y-5638984D01*
X1462801Y-5534222D02*
X1472324Y-5515174D01*
X1472324Y-5515174D02*
X1491372Y-5505650D01*
X1491372Y-5505650D02*
X1519943Y-5505650D01*
X1519943Y-5505650D02*
X1538991Y-5515174D01*
X1538991Y-5515174D02*
X1548515Y-5534222D01*
X1548515Y-5534222D02*
X1548515Y-5638984D01*
X1938991Y-5429460D02*
X1767563Y-5686603D01*
X2196134Y-5438984D02*
X2215182Y-5438984D01*
X2215182Y-5438984D02*
X2234229Y-5448508D01*
X2234229Y-5448508D02*
X2243753Y-5458031D01*
X2243753Y-5458031D02*
X2253277Y-5477079D01*
X2253277Y-5477079D02*
X2262801Y-5515174D01*
X2262801Y-5515174D02*
X2262801Y-5562793D01*
X2262801Y-5562793D02*
X2253277Y-5600888D01*
X2253277Y-5600888D02*
X2243753Y-5619936D01*
X2243753Y-5619936D02*
X2234229Y-5629460D01*
X2234229Y-5629460D02*
X2215182Y-5638984D01*
X2215182Y-5638984D02*
X2196134Y-5638984D01*
X2196134Y-5638984D02*
X2177087Y-5629460D01*
X2177087Y-5629460D02*
X2167563Y-5619936D01*
X2167563Y-5619936D02*
X2158039Y-5600888D01*
X2158039Y-5600888D02*
X2148515Y-5562793D01*
X2148515Y-5562793D02*
X2148515Y-5515174D01*
X2148515Y-5515174D02*
X2158039Y-5477079D01*
X2158039Y-5477079D02*
X2167563Y-5458031D01*
X2167563Y-5458031D02*
X2177087Y-5448508D01*
X2177087Y-5448508D02*
X2196134Y-5438984D01*
X2348515Y-5619936D02*
X2358039Y-5629460D01*
X2358039Y-5629460D02*
X2348515Y-5638984D01*
X2348515Y-5638984D02*
X2338991Y-5629460D01*
X2338991Y-5629460D02*
X2348515Y-5619936D01*
X2348515Y-5619936D02*
X2348515Y-5638984D01*
X2481848Y-5438984D02*
X2500896Y-5438984D01*
X2500896Y-5438984D02*
X2519944Y-5448508D01*
X2519944Y-5448508D02*
X2529468Y-5458031D01*
X2529468Y-5458031D02*
X2538991Y-5477079D01*
X2538991Y-5477079D02*
X2548515Y-5515174D01*
X2548515Y-5515174D02*
X2548515Y-5562793D01*
X2548515Y-5562793D02*
X2538991Y-5600888D01*
X2538991Y-5600888D02*
X2529468Y-5619936D01*
X2529468Y-5619936D02*
X2519944Y-5629460D01*
X2519944Y-5629460D02*
X2500896Y-5638984D01*
X2500896Y-5638984D02*
X2481848Y-5638984D01*
X2481848Y-5638984D02*
X2462801Y-5629460D01*
X2462801Y-5629460D02*
X2453277Y-5619936D01*
X2453277Y-5619936D02*
X2443753Y-5600888D01*
X2443753Y-5600888D02*
X2434229Y-5562793D01*
X2434229Y-5562793D02*
X2434229Y-5515174D01*
X2434229Y-5515174D02*
X2443753Y-5477079D01*
X2443753Y-5477079D02*
X2453277Y-5458031D01*
X2453277Y-5458031D02*
X2462801Y-5448508D01*
X2462801Y-5448508D02*
X2481848Y-5438984D01*
X2624706Y-5458031D02*
X2634229Y-5448508D01*
X2634229Y-5448508D02*
X2653277Y-5438984D01*
X2653277Y-5438984D02*
X2700896Y-5438984D01*
X2700896Y-5438984D02*
X2719944Y-5448508D01*
X2719944Y-5448508D02*
X2729468Y-5458031D01*
X2729468Y-5458031D02*
X2738991Y-5477079D01*
X2738991Y-5477079D02*
X2738991Y-5496127D01*
X2738991Y-5496127D02*
X2729468Y-5524698D01*
X2729468Y-5524698D02*
X2615182Y-5638984D01*
X2615182Y-5638984D02*
X2738991Y-5638984D01*
X2919944Y-5438984D02*
X2824706Y-5438984D01*
X2824706Y-5438984D02*
X2815182Y-5534222D01*
X2815182Y-5534222D02*
X2824706Y-5524698D01*
X2824706Y-5524698D02*
X2843753Y-5515174D01*
X2843753Y-5515174D02*
X2891372Y-5515174D01*
X2891372Y-5515174D02*
X2910420Y-5524698D01*
X2910420Y-5524698D02*
X2919944Y-5534222D01*
X2919944Y-5534222D02*
X2929467Y-5553270D01*
X2929467Y-5553270D02*
X2929467Y-5600888D01*
X2929467Y-5600888D02*
X2919944Y-5619936D01*
X2919944Y-5619936D02*
X2910420Y-5629460D01*
X2910420Y-5629460D02*
X2891372Y-5638984D01*
X2891372Y-5638984D02*
X2843753Y-5638984D01*
X2843753Y-5638984D02*
X2824706Y-5629460D01*
X2824706Y-5629460D02*
X2815182Y-5619936D01*
X3100896Y-5438984D02*
X3062801Y-5438984D01*
X3062801Y-5438984D02*
X3043753Y-5448508D01*
X3043753Y-5448508D02*
X3034229Y-5458031D01*
X3034229Y-5458031D02*
X3015182Y-5486603D01*
X3015182Y-5486603D02*
X3005658Y-5524698D01*
X3005658Y-5524698D02*
X3005658Y-5600888D01*
X3005658Y-5600888D02*
X3015182Y-5619936D01*
X3015182Y-5619936D02*
X3024706Y-5629460D01*
X3024706Y-5629460D02*
X3043753Y-5638984D01*
X3043753Y-5638984D02*
X3081848Y-5638984D01*
X3081848Y-5638984D02*
X3100896Y-5629460D01*
X3100896Y-5629460D02*
X3110420Y-5619936D01*
X3110420Y-5619936D02*
X3119944Y-5600888D01*
X3119944Y-5600888D02*
X3119944Y-5553270D01*
X3119944Y-5553270D02*
X3110420Y-5534222D01*
X3110420Y-5534222D02*
X3100896Y-5524698D01*
X3100896Y-5524698D02*
X3081848Y-5515174D01*
X3081848Y-5515174D02*
X3043753Y-5515174D01*
X3043753Y-5515174D02*
X3024706Y-5524698D01*
X3024706Y-5524698D02*
X3015182Y-5534222D01*
X3015182Y-5534222D02*
X3005658Y-5553270D01*
X3196134Y-5438984D02*
X3196134Y-5477079D01*
X3272325Y-5438984D02*
X3272325Y-5477079D01*
X3567563Y-5715174D02*
X3558039Y-5705650D01*
X3558039Y-5705650D02*
X3538991Y-5677079D01*
X3538991Y-5677079D02*
X3529468Y-5658031D01*
X3529468Y-5658031D02*
X3519944Y-5629460D01*
X3519944Y-5629460D02*
X3510420Y-5581841D01*
X3510420Y-5581841D02*
X3510420Y-5543746D01*
X3510420Y-5543746D02*
X3519944Y-5496127D01*
X3519944Y-5496127D02*
X3529468Y-5467555D01*
X3529468Y-5467555D02*
X3538991Y-5448508D01*
X3538991Y-5448508D02*
X3558039Y-5419936D01*
X3558039Y-5419936D02*
X3567563Y-5410412D01*
X3634229Y-5458031D02*
X3643753Y-5448508D01*
X3643753Y-5448508D02*
X3662801Y-5438984D01*
X3662801Y-5438984D02*
X3710420Y-5438984D01*
X3710420Y-5438984D02*
X3729468Y-5448508D01*
X3729468Y-5448508D02*
X3738991Y-5458031D01*
X3738991Y-5458031D02*
X3748515Y-5477079D01*
X3748515Y-5477079D02*
X3748515Y-5496127D01*
X3748515Y-5496127D02*
X3738991Y-5524698D01*
X3738991Y-5524698D02*
X3624706Y-5638984D01*
X3624706Y-5638984D02*
X3748515Y-5638984D01*
X3986610Y-5638984D02*
X3986610Y-5438984D01*
X4072325Y-5638984D02*
X4072325Y-5534222D01*
X4072325Y-5534222D02*
X4062801Y-5515174D01*
X4062801Y-5515174D02*
X4043753Y-5505650D01*
X4043753Y-5505650D02*
X4015182Y-5505650D01*
X4015182Y-5505650D02*
X3996134Y-5515174D01*
X3996134Y-5515174D02*
X3986610Y-5524698D01*
X4196134Y-5638984D02*
X4177087Y-5629460D01*
X4177087Y-5629460D02*
X4167563Y-5619936D01*
X4167563Y-5619936D02*
X4158039Y-5600888D01*
X4158039Y-5600888D02*
X4158039Y-5543746D01*
X4158039Y-5543746D02*
X4167563Y-5524698D01*
X4167563Y-5524698D02*
X4177087Y-5515174D01*
X4177087Y-5515174D02*
X4196134Y-5505650D01*
X4196134Y-5505650D02*
X4224706Y-5505650D01*
X4224706Y-5505650D02*
X4243753Y-5515174D01*
X4243753Y-5515174D02*
X4253277Y-5524698D01*
X4253277Y-5524698D02*
X4262801Y-5543746D01*
X4262801Y-5543746D02*
X4262801Y-5600888D01*
X4262801Y-5600888D02*
X4253277Y-5619936D01*
X4253277Y-5619936D02*
X4243753Y-5629460D01*
X4243753Y-5629460D02*
X4224706Y-5638984D01*
X4224706Y-5638984D02*
X4196134Y-5638984D01*
X4377087Y-5638984D02*
X4358039Y-5629460D01*
X4358039Y-5629460D02*
X4348515Y-5610412D01*
X4348515Y-5610412D02*
X4348515Y-5438984D01*
X4529468Y-5629460D02*
X4510420Y-5638984D01*
X4510420Y-5638984D02*
X4472325Y-5638984D01*
X4472325Y-5638984D02*
X4453277Y-5629460D01*
X4453277Y-5629460D02*
X4443753Y-5610412D01*
X4443753Y-5610412D02*
X4443753Y-5534222D01*
X4443753Y-5534222D02*
X4453277Y-5515174D01*
X4453277Y-5515174D02*
X4472325Y-5505650D01*
X4472325Y-5505650D02*
X4510420Y-5505650D01*
X4510420Y-5505650D02*
X4529468Y-5515174D01*
X4529468Y-5515174D02*
X4538992Y-5534222D01*
X4538992Y-5534222D02*
X4538992Y-5553270D01*
X4538992Y-5553270D02*
X4443753Y-5572317D01*
X4615182Y-5629460D02*
X4634230Y-5638984D01*
X4634230Y-5638984D02*
X4672325Y-5638984D01*
X4672325Y-5638984D02*
X4691373Y-5629460D01*
X4691373Y-5629460D02*
X4700896Y-5610412D01*
X4700896Y-5610412D02*
X4700896Y-5600888D01*
X4700896Y-5600888D02*
X4691373Y-5581841D01*
X4691373Y-5581841D02*
X4672325Y-5572317D01*
X4672325Y-5572317D02*
X4643753Y-5572317D01*
X4643753Y-5572317D02*
X4624706Y-5562793D01*
X4624706Y-5562793D02*
X4615182Y-5543746D01*
X4615182Y-5543746D02*
X4615182Y-5534222D01*
X4615182Y-5534222D02*
X4624706Y-5515174D01*
X4624706Y-5515174D02*
X4643753Y-5505650D01*
X4643753Y-5505650D02*
X4672325Y-5505650D01*
X4672325Y-5505650D02*
X4691373Y-5515174D01*
X4767563Y-5715174D02*
X4777087Y-5705650D01*
X4777087Y-5705650D02*
X4796134Y-5677079D01*
X4796134Y-5677079D02*
X4805658Y-5658031D01*
X4805658Y-5658031D02*
X4815182Y-5629460D01*
X4815182Y-5629460D02*
X4824706Y-5581841D01*
X4824706Y-5581841D02*
X4824706Y-5543746D01*
X4824706Y-5543746D02*
X4815182Y-5496127D01*
X4815182Y-5496127D02*
X4805658Y-5467555D01*
X4805658Y-5467555D02*
X4796134Y-5448508D01*
X4796134Y-5448508D02*
X4777087Y-5419936D01*
X4777087Y-5419936D02*
X4767563Y-5410412D01*
X5129468Y-5715174D02*
X5119944Y-5705650D01*
X5119944Y-5705650D02*
X5100896Y-5677079D01*
X5100896Y-5677079D02*
X5091373Y-5658031D01*
X5091373Y-5658031D02*
X5081849Y-5629460D01*
X5081849Y-5629460D02*
X5072325Y-5581841D01*
X5072325Y-5581841D02*
X5072325Y-5543746D01*
X5072325Y-5543746D02*
X5081849Y-5496127D01*
X5081849Y-5496127D02*
X5091373Y-5467555D01*
X5091373Y-5467555D02*
X5100896Y-5448508D01*
X5100896Y-5448508D02*
X5119944Y-5419936D01*
X5119944Y-5419936D02*
X5129468Y-5410412D01*
X5205658Y-5505650D02*
X5205658Y-5638984D01*
X5205658Y-5524698D02*
X5215182Y-5515174D01*
X5215182Y-5515174D02*
X5234230Y-5505650D01*
X5234230Y-5505650D02*
X5262801Y-5505650D01*
X5262801Y-5505650D02*
X5281849Y-5515174D01*
X5281849Y-5515174D02*
X5291373Y-5534222D01*
X5291373Y-5534222D02*
X5291373Y-5638984D01*
X5415182Y-5638984D02*
X5396134Y-5629460D01*
X5396134Y-5629460D02*
X5386611Y-5619936D01*
X5386611Y-5619936D02*
X5377087Y-5600888D01*
X5377087Y-5600888D02*
X5377087Y-5543746D01*
X5377087Y-5543746D02*
X5386611Y-5524698D01*
X5386611Y-5524698D02*
X5396134Y-5515174D01*
X5396134Y-5515174D02*
X5415182Y-5505650D01*
X5415182Y-5505650D02*
X5443754Y-5505650D01*
X5443754Y-5505650D02*
X5462801Y-5515174D01*
X5462801Y-5515174D02*
X5472325Y-5524698D01*
X5472325Y-5524698D02*
X5481849Y-5543746D01*
X5481849Y-5543746D02*
X5481849Y-5600888D01*
X5481849Y-5600888D02*
X5472325Y-5619936D01*
X5472325Y-5619936D02*
X5462801Y-5629460D01*
X5462801Y-5629460D02*
X5443754Y-5638984D01*
X5443754Y-5638984D02*
X5415182Y-5638984D01*
X5538992Y-5505650D02*
X5615182Y-5505650D01*
X5567563Y-5438984D02*
X5567563Y-5610412D01*
X5567563Y-5610412D02*
X5577087Y-5629460D01*
X5577087Y-5629460D02*
X5596134Y-5638984D01*
X5596134Y-5638984D02*
X5615182Y-5638984D01*
X5834230Y-5505650D02*
X5834230Y-5705650D01*
X5834230Y-5515174D02*
X5853277Y-5505650D01*
X5853277Y-5505650D02*
X5891373Y-5505650D01*
X5891373Y-5505650D02*
X5910420Y-5515174D01*
X5910420Y-5515174D02*
X5919944Y-5524698D01*
X5919944Y-5524698D02*
X5929468Y-5543746D01*
X5929468Y-5543746D02*
X5929468Y-5600888D01*
X5929468Y-5600888D02*
X5919944Y-5619936D01*
X5919944Y-5619936D02*
X5910420Y-5629460D01*
X5910420Y-5629460D02*
X5891373Y-5638984D01*
X5891373Y-5638984D02*
X5853277Y-5638984D01*
X5853277Y-5638984D02*
X5834230Y-5629460D01*
X6043753Y-5638984D02*
X6024706Y-5629460D01*
X6024706Y-5629460D02*
X6015182Y-5610412D01*
X6015182Y-5610412D02*
X6015182Y-5438984D01*
X6205658Y-5638984D02*
X6205658Y-5534222D01*
X6205658Y-5534222D02*
X6196134Y-5515174D01*
X6196134Y-5515174D02*
X6177087Y-5505650D01*
X6177087Y-5505650D02*
X6138992Y-5505650D01*
X6138992Y-5505650D02*
X6119944Y-5515174D01*
X6205658Y-5629460D02*
X6186611Y-5638984D01*
X6186611Y-5638984D02*
X6138992Y-5638984D01*
X6138992Y-5638984D02*
X6119944Y-5629460D01*
X6119944Y-5629460D02*
X6110420Y-5610412D01*
X6110420Y-5610412D02*
X6110420Y-5591365D01*
X6110420Y-5591365D02*
X6119944Y-5572317D01*
X6119944Y-5572317D02*
X6138992Y-5562793D01*
X6138992Y-5562793D02*
X6186611Y-5562793D01*
X6186611Y-5562793D02*
X6205658Y-5553270D01*
X6272325Y-5505650D02*
X6348515Y-5505650D01*
X6300896Y-5438984D02*
X6300896Y-5610412D01*
X6300896Y-5610412D02*
X6310420Y-5629460D01*
X6310420Y-5629460D02*
X6329468Y-5638984D01*
X6329468Y-5638984D02*
X6348515Y-5638984D01*
X6491373Y-5629460D02*
X6472325Y-5638984D01*
X6472325Y-5638984D02*
X6434230Y-5638984D01*
X6434230Y-5638984D02*
X6415182Y-5629460D01*
X6415182Y-5629460D02*
X6405658Y-5610412D01*
X6405658Y-5610412D02*
X6405658Y-5534222D01*
X6405658Y-5534222D02*
X6415182Y-5515174D01*
X6415182Y-5515174D02*
X6434230Y-5505650D01*
X6434230Y-5505650D02*
X6472325Y-5505650D01*
X6472325Y-5505650D02*
X6491373Y-5515174D01*
X6491373Y-5515174D02*
X6500896Y-5534222D01*
X6500896Y-5534222D02*
X6500896Y-5553270D01*
X6500896Y-5553270D02*
X6405658Y-5572317D01*
X6672325Y-5638984D02*
X6672325Y-5438984D01*
X6672325Y-5629460D02*
X6653277Y-5638984D01*
X6653277Y-5638984D02*
X6615182Y-5638984D01*
X6615182Y-5638984D02*
X6596134Y-5629460D01*
X6596134Y-5629460D02*
X6586611Y-5619936D01*
X6586611Y-5619936D02*
X6577087Y-5600888D01*
X6577087Y-5600888D02*
X6577087Y-5543746D01*
X6577087Y-5543746D02*
X6586611Y-5524698D01*
X6586611Y-5524698D02*
X6596134Y-5515174D01*
X6596134Y-5515174D02*
X6615182Y-5505650D01*
X6615182Y-5505650D02*
X6653277Y-5505650D01*
X6653277Y-5505650D02*
X6672325Y-5515174D01*
X6748515Y-5715174D02*
X6758039Y-5705650D01*
X6758039Y-5705650D02*
X6777087Y-5677079D01*
X6777087Y-5677079D02*
X6786611Y-5658031D01*
X6786611Y-5658031D02*
X6796134Y-5629460D01*
X6796134Y-5629460D02*
X6805658Y-5581841D01*
X6805658Y-5581841D02*
X6805658Y-5543746D01*
X6805658Y-5543746D02*
X6796134Y-5496127D01*
X6796134Y-5496127D02*
X6786611Y-5467555D01*
X6786611Y-5467555D02*
X6777087Y-5448508D01*
X6777087Y-5448508D02*
X6758039Y-5419936D01*
X6758039Y-5419936D02*
X6748515Y-5410412D01*
D12*
X-7500Y-5811500D02*
G75*
G02*
X-106560Y-5811500I-49530J0D01*
G01*
X-106560Y-5811500D02*
G75*
G02*
X-7500Y-5811500I49530J0D01*
G01*
D11*
X291372Y-5702984D02*
X310420Y-5702984D01*
X310420Y-5702984D02*
X329467Y-5712508D01*
X329467Y-5712508D02*
X338991Y-5722031D01*
X338991Y-5722031D02*
X348515Y-5741079D01*
X348515Y-5741079D02*
X358039Y-5779174D01*
X358039Y-5779174D02*
X358039Y-5826793D01*
X358039Y-5826793D02*
X348515Y-5864888D01*
X348515Y-5864888D02*
X338991Y-5883936D01*
X338991Y-5883936D02*
X329467Y-5893460D01*
X329467Y-5893460D02*
X310420Y-5902984D01*
X310420Y-5902984D02*
X291372Y-5902984D01*
X291372Y-5902984D02*
X272324Y-5893460D01*
X272324Y-5893460D02*
X262801Y-5883936D01*
X262801Y-5883936D02*
X253277Y-5864888D01*
X253277Y-5864888D02*
X243753Y-5826793D01*
X243753Y-5826793D02*
X243753Y-5779174D01*
X243753Y-5779174D02*
X253277Y-5741079D01*
X253277Y-5741079D02*
X262801Y-5722031D01*
X262801Y-5722031D02*
X272324Y-5712508D01*
X272324Y-5712508D02*
X291372Y-5702984D01*
X443753Y-5883936D02*
X453277Y-5893460D01*
X453277Y-5893460D02*
X443753Y-5902984D01*
X443753Y-5902984D02*
X434229Y-5893460D01*
X434229Y-5893460D02*
X443753Y-5883936D01*
X443753Y-5883936D02*
X443753Y-5902984D01*
X548515Y-5902984D02*
X586610Y-5902984D01*
X586610Y-5902984D02*
X605658Y-5893460D01*
X605658Y-5893460D02*
X615182Y-5883936D01*
X615182Y-5883936D02*
X634229Y-5855365D01*
X634229Y-5855365D02*
X643753Y-5817269D01*
X643753Y-5817269D02*
X643753Y-5741079D01*
X643753Y-5741079D02*
X634229Y-5722031D01*
X634229Y-5722031D02*
X624705Y-5712508D01*
X624705Y-5712508D02*
X605658Y-5702984D01*
X605658Y-5702984D02*
X567563Y-5702984D01*
X567563Y-5702984D02*
X548515Y-5712508D01*
X548515Y-5712508D02*
X538991Y-5722031D01*
X538991Y-5722031D02*
X529467Y-5741079D01*
X529467Y-5741079D02*
X529467Y-5788698D01*
X529467Y-5788698D02*
X538991Y-5807746D01*
X538991Y-5807746D02*
X548515Y-5817269D01*
X548515Y-5817269D02*
X567563Y-5826793D01*
X567563Y-5826793D02*
X605658Y-5826793D01*
X605658Y-5826793D02*
X624705Y-5817269D01*
X624705Y-5817269D02*
X634229Y-5807746D01*
X634229Y-5807746D02*
X643753Y-5788698D01*
X738991Y-5902984D02*
X777086Y-5902984D01*
X777086Y-5902984D02*
X796134Y-5893460D01*
X796134Y-5893460D02*
X805658Y-5883936D01*
X805658Y-5883936D02*
X824705Y-5855365D01*
X824705Y-5855365D02*
X834229Y-5817269D01*
X834229Y-5817269D02*
X834229Y-5741079D01*
X834229Y-5741079D02*
X824705Y-5722031D01*
X824705Y-5722031D02*
X815182Y-5712508D01*
X815182Y-5712508D02*
X796134Y-5702984D01*
X796134Y-5702984D02*
X758039Y-5702984D01*
X758039Y-5702984D02*
X738991Y-5712508D01*
X738991Y-5712508D02*
X729467Y-5722031D01*
X729467Y-5722031D02*
X719943Y-5741079D01*
X719943Y-5741079D02*
X719943Y-5788698D01*
X719943Y-5788698D02*
X729467Y-5807746D01*
X729467Y-5807746D02*
X738991Y-5817269D01*
X738991Y-5817269D02*
X758039Y-5826793D01*
X758039Y-5826793D02*
X796134Y-5826793D01*
X796134Y-5826793D02*
X815182Y-5817269D01*
X815182Y-5817269D02*
X824705Y-5807746D01*
X824705Y-5807746D02*
X834229Y-5788698D01*
X1024705Y-5902984D02*
X910420Y-5902984D01*
X967562Y-5902984D02*
X967562Y-5702984D01*
X967562Y-5702984D02*
X948515Y-5731555D01*
X948515Y-5731555D02*
X929467Y-5750603D01*
X929467Y-5750603D02*
X910420Y-5760127D01*
X1110420Y-5902984D02*
X1110420Y-5769650D01*
X1110420Y-5788698D02*
X1119944Y-5779174D01*
X1119944Y-5779174D02*
X1138991Y-5769650D01*
X1138991Y-5769650D02*
X1167563Y-5769650D01*
X1167563Y-5769650D02*
X1186610Y-5779174D01*
X1186610Y-5779174D02*
X1196134Y-5798222D01*
X1196134Y-5798222D02*
X1196134Y-5902984D01*
X1196134Y-5798222D02*
X1205658Y-5779174D01*
X1205658Y-5779174D02*
X1224705Y-5769650D01*
X1224705Y-5769650D02*
X1253277Y-5769650D01*
X1253277Y-5769650D02*
X1272325Y-5779174D01*
X1272325Y-5779174D02*
X1281848Y-5798222D01*
X1281848Y-5798222D02*
X1281848Y-5902984D01*
X1377086Y-5902984D02*
X1377086Y-5769650D01*
X1377086Y-5788698D02*
X1386610Y-5779174D01*
X1386610Y-5779174D02*
X1405658Y-5769650D01*
X1405658Y-5769650D02*
X1434229Y-5769650D01*
X1434229Y-5769650D02*
X1453277Y-5779174D01*
X1453277Y-5779174D02*
X1462801Y-5798222D01*
X1462801Y-5798222D02*
X1462801Y-5902984D01*
X1462801Y-5798222D02*
X1472324Y-5779174D01*
X1472324Y-5779174D02*
X1491372Y-5769650D01*
X1491372Y-5769650D02*
X1519943Y-5769650D01*
X1519943Y-5769650D02*
X1538991Y-5779174D01*
X1538991Y-5779174D02*
X1548515Y-5798222D01*
X1548515Y-5798222D02*
X1548515Y-5902984D01*
X1938991Y-5693460D02*
X1767563Y-5950603D01*
X2196134Y-5702984D02*
X2215182Y-5702984D01*
X2215182Y-5702984D02*
X2234229Y-5712508D01*
X2234229Y-5712508D02*
X2243753Y-5722031D01*
X2243753Y-5722031D02*
X2253277Y-5741079D01*
X2253277Y-5741079D02*
X2262801Y-5779174D01*
X2262801Y-5779174D02*
X2262801Y-5826793D01*
X2262801Y-5826793D02*
X2253277Y-5864888D01*
X2253277Y-5864888D02*
X2243753Y-5883936D01*
X2243753Y-5883936D02*
X2234229Y-5893460D01*
X2234229Y-5893460D02*
X2215182Y-5902984D01*
X2215182Y-5902984D02*
X2196134Y-5902984D01*
X2196134Y-5902984D02*
X2177087Y-5893460D01*
X2177087Y-5893460D02*
X2167563Y-5883936D01*
X2167563Y-5883936D02*
X2158039Y-5864888D01*
X2158039Y-5864888D02*
X2148515Y-5826793D01*
X2148515Y-5826793D02*
X2148515Y-5779174D01*
X2148515Y-5779174D02*
X2158039Y-5741079D01*
X2158039Y-5741079D02*
X2167563Y-5722031D01*
X2167563Y-5722031D02*
X2177087Y-5712508D01*
X2177087Y-5712508D02*
X2196134Y-5702984D01*
X2348515Y-5883936D02*
X2358039Y-5893460D01*
X2358039Y-5893460D02*
X2348515Y-5902984D01*
X2348515Y-5902984D02*
X2338991Y-5893460D01*
X2338991Y-5893460D02*
X2348515Y-5883936D01*
X2348515Y-5883936D02*
X2348515Y-5902984D01*
X2481848Y-5702984D02*
X2500896Y-5702984D01*
X2500896Y-5702984D02*
X2519944Y-5712508D01*
X2519944Y-5712508D02*
X2529468Y-5722031D01*
X2529468Y-5722031D02*
X2538991Y-5741079D01*
X2538991Y-5741079D02*
X2548515Y-5779174D01*
X2548515Y-5779174D02*
X2548515Y-5826793D01*
X2548515Y-5826793D02*
X2538991Y-5864888D01*
X2538991Y-5864888D02*
X2529468Y-5883936D01*
X2529468Y-5883936D02*
X2519944Y-5893460D01*
X2519944Y-5893460D02*
X2500896Y-5902984D01*
X2500896Y-5902984D02*
X2481848Y-5902984D01*
X2481848Y-5902984D02*
X2462801Y-5893460D01*
X2462801Y-5893460D02*
X2453277Y-5883936D01*
X2453277Y-5883936D02*
X2443753Y-5864888D01*
X2443753Y-5864888D02*
X2434229Y-5826793D01*
X2434229Y-5826793D02*
X2434229Y-5779174D01*
X2434229Y-5779174D02*
X2443753Y-5741079D01*
X2443753Y-5741079D02*
X2453277Y-5722031D01*
X2453277Y-5722031D02*
X2462801Y-5712508D01*
X2462801Y-5712508D02*
X2481848Y-5702984D01*
X2615182Y-5702984D02*
X2738991Y-5702984D01*
X2738991Y-5702984D02*
X2672325Y-5779174D01*
X2672325Y-5779174D02*
X2700896Y-5779174D01*
X2700896Y-5779174D02*
X2719944Y-5788698D01*
X2719944Y-5788698D02*
X2729468Y-5798222D01*
X2729468Y-5798222D02*
X2738991Y-5817269D01*
X2738991Y-5817269D02*
X2738991Y-5864888D01*
X2738991Y-5864888D02*
X2729468Y-5883936D01*
X2729468Y-5883936D02*
X2719944Y-5893460D01*
X2719944Y-5893460D02*
X2700896Y-5902984D01*
X2700896Y-5902984D02*
X2643753Y-5902984D01*
X2643753Y-5902984D02*
X2624706Y-5893460D01*
X2624706Y-5893460D02*
X2615182Y-5883936D01*
X2834229Y-5902984D02*
X2872325Y-5902984D01*
X2872325Y-5902984D02*
X2891372Y-5893460D01*
X2891372Y-5893460D02*
X2900896Y-5883936D01*
X2900896Y-5883936D02*
X2919944Y-5855365D01*
X2919944Y-5855365D02*
X2929467Y-5817269D01*
X2929467Y-5817269D02*
X2929467Y-5741079D01*
X2929467Y-5741079D02*
X2919944Y-5722031D01*
X2919944Y-5722031D02*
X2910420Y-5712508D01*
X2910420Y-5712508D02*
X2891372Y-5702984D01*
X2891372Y-5702984D02*
X2853277Y-5702984D01*
X2853277Y-5702984D02*
X2834229Y-5712508D01*
X2834229Y-5712508D02*
X2824706Y-5722031D01*
X2824706Y-5722031D02*
X2815182Y-5741079D01*
X2815182Y-5741079D02*
X2815182Y-5788698D01*
X2815182Y-5788698D02*
X2824706Y-5807746D01*
X2824706Y-5807746D02*
X2834229Y-5817269D01*
X2834229Y-5817269D02*
X2853277Y-5826793D01*
X2853277Y-5826793D02*
X2891372Y-5826793D01*
X2891372Y-5826793D02*
X2910420Y-5817269D01*
X2910420Y-5817269D02*
X2919944Y-5807746D01*
X2919944Y-5807746D02*
X2929467Y-5788698D01*
X3053277Y-5702984D02*
X3072325Y-5702984D01*
X3072325Y-5702984D02*
X3091372Y-5712508D01*
X3091372Y-5712508D02*
X3100896Y-5722031D01*
X3100896Y-5722031D02*
X3110420Y-5741079D01*
X3110420Y-5741079D02*
X3119944Y-5779174D01*
X3119944Y-5779174D02*
X3119944Y-5826793D01*
X3119944Y-5826793D02*
X3110420Y-5864888D01*
X3110420Y-5864888D02*
X3100896Y-5883936D01*
X3100896Y-5883936D02*
X3091372Y-5893460D01*
X3091372Y-5893460D02*
X3072325Y-5902984D01*
X3072325Y-5902984D02*
X3053277Y-5902984D01*
X3053277Y-5902984D02*
X3034229Y-5893460D01*
X3034229Y-5893460D02*
X3024706Y-5883936D01*
X3024706Y-5883936D02*
X3015182Y-5864888D01*
X3015182Y-5864888D02*
X3005658Y-5826793D01*
X3005658Y-5826793D02*
X3005658Y-5779174D01*
X3005658Y-5779174D02*
X3015182Y-5741079D01*
X3015182Y-5741079D02*
X3024706Y-5722031D01*
X3024706Y-5722031D02*
X3034229Y-5712508D01*
X3034229Y-5712508D02*
X3053277Y-5702984D01*
X3196134Y-5702984D02*
X3196134Y-5741079D01*
X3272325Y-5702984D02*
X3272325Y-5741079D01*
X3567563Y-5979174D02*
X3558039Y-5969650D01*
X3558039Y-5969650D02*
X3538991Y-5941079D01*
X3538991Y-5941079D02*
X3529468Y-5922031D01*
X3529468Y-5922031D02*
X3519944Y-5893460D01*
X3519944Y-5893460D02*
X3510420Y-5845841D01*
X3510420Y-5845841D02*
X3510420Y-5807746D01*
X3510420Y-5807746D02*
X3519944Y-5760127D01*
X3519944Y-5760127D02*
X3529468Y-5731555D01*
X3529468Y-5731555D02*
X3538991Y-5712508D01*
X3538991Y-5712508D02*
X3558039Y-5683936D01*
X3558039Y-5683936D02*
X3567563Y-5674412D01*
X3624706Y-5702984D02*
X3748515Y-5702984D01*
X3748515Y-5702984D02*
X3681848Y-5779174D01*
X3681848Y-5779174D02*
X3710420Y-5779174D01*
X3710420Y-5779174D02*
X3729468Y-5788698D01*
X3729468Y-5788698D02*
X3738991Y-5798222D01*
X3738991Y-5798222D02*
X3748515Y-5817269D01*
X3748515Y-5817269D02*
X3748515Y-5864888D01*
X3748515Y-5864888D02*
X3738991Y-5883936D01*
X3738991Y-5883936D02*
X3729468Y-5893460D01*
X3729468Y-5893460D02*
X3710420Y-5902984D01*
X3710420Y-5902984D02*
X3653277Y-5902984D01*
X3653277Y-5902984D02*
X3634229Y-5893460D01*
X3634229Y-5893460D02*
X3624706Y-5883936D01*
X3986610Y-5902984D02*
X3986610Y-5702984D01*
X4072325Y-5902984D02*
X4072325Y-5798222D01*
X4072325Y-5798222D02*
X4062801Y-5779174D01*
X4062801Y-5779174D02*
X4043753Y-5769650D01*
X4043753Y-5769650D02*
X4015182Y-5769650D01*
X4015182Y-5769650D02*
X3996134Y-5779174D01*
X3996134Y-5779174D02*
X3986610Y-5788698D01*
X4196134Y-5902984D02*
X4177087Y-5893460D01*
X4177087Y-5893460D02*
X4167563Y-5883936D01*
X4167563Y-5883936D02*
X4158039Y-5864888D01*
X4158039Y-5864888D02*
X4158039Y-5807746D01*
X4158039Y-5807746D02*
X4167563Y-5788698D01*
X4167563Y-5788698D02*
X4177087Y-5779174D01*
X4177087Y-5779174D02*
X4196134Y-5769650D01*
X4196134Y-5769650D02*
X4224706Y-5769650D01*
X4224706Y-5769650D02*
X4243753Y-5779174D01*
X4243753Y-5779174D02*
X4253277Y-5788698D01*
X4253277Y-5788698D02*
X4262801Y-5807746D01*
X4262801Y-5807746D02*
X4262801Y-5864888D01*
X4262801Y-5864888D02*
X4253277Y-5883936D01*
X4253277Y-5883936D02*
X4243753Y-5893460D01*
X4243753Y-5893460D02*
X4224706Y-5902984D01*
X4224706Y-5902984D02*
X4196134Y-5902984D01*
X4377087Y-5902984D02*
X4358039Y-5893460D01*
X4358039Y-5893460D02*
X4348515Y-5874412D01*
X4348515Y-5874412D02*
X4348515Y-5702984D01*
X4529468Y-5893460D02*
X4510420Y-5902984D01*
X4510420Y-5902984D02*
X4472325Y-5902984D01*
X4472325Y-5902984D02*
X4453277Y-5893460D01*
X4453277Y-5893460D02*
X4443753Y-5874412D01*
X4443753Y-5874412D02*
X4443753Y-5798222D01*
X4443753Y-5798222D02*
X4453277Y-5779174D01*
X4453277Y-5779174D02*
X4472325Y-5769650D01*
X4472325Y-5769650D02*
X4510420Y-5769650D01*
X4510420Y-5769650D02*
X4529468Y-5779174D01*
X4529468Y-5779174D02*
X4538992Y-5798222D01*
X4538992Y-5798222D02*
X4538992Y-5817269D01*
X4538992Y-5817269D02*
X4443753Y-5836317D01*
X4615182Y-5893460D02*
X4634230Y-5902984D01*
X4634230Y-5902984D02*
X4672325Y-5902984D01*
X4672325Y-5902984D02*
X4691373Y-5893460D01*
X4691373Y-5893460D02*
X4700896Y-5874412D01*
X4700896Y-5874412D02*
X4700896Y-5864888D01*
X4700896Y-5864888D02*
X4691373Y-5845841D01*
X4691373Y-5845841D02*
X4672325Y-5836317D01*
X4672325Y-5836317D02*
X4643753Y-5836317D01*
X4643753Y-5836317D02*
X4624706Y-5826793D01*
X4624706Y-5826793D02*
X4615182Y-5807746D01*
X4615182Y-5807746D02*
X4615182Y-5798222D01*
X4615182Y-5798222D02*
X4624706Y-5779174D01*
X4624706Y-5779174D02*
X4643753Y-5769650D01*
X4643753Y-5769650D02*
X4672325Y-5769650D01*
X4672325Y-5769650D02*
X4691373Y-5779174D01*
X4767563Y-5979174D02*
X4777087Y-5969650D01*
X4777087Y-5969650D02*
X4796134Y-5941079D01*
X4796134Y-5941079D02*
X4805658Y-5922031D01*
X4805658Y-5922031D02*
X4815182Y-5893460D01*
X4815182Y-5893460D02*
X4824706Y-5845841D01*
X4824706Y-5845841D02*
X4824706Y-5807746D01*
X4824706Y-5807746D02*
X4815182Y-5760127D01*
X4815182Y-5760127D02*
X4805658Y-5731555D01*
X4805658Y-5731555D02*
X4796134Y-5712508D01*
X4796134Y-5712508D02*
X4777087Y-5683936D01*
X4777087Y-5683936D02*
X4767563Y-5674412D01*
X5129468Y-5979174D02*
X5119944Y-5969650D01*
X5119944Y-5969650D02*
X5100896Y-5941079D01*
X5100896Y-5941079D02*
X5091373Y-5922031D01*
X5091373Y-5922031D02*
X5081849Y-5893460D01*
X5081849Y-5893460D02*
X5072325Y-5845841D01*
X5072325Y-5845841D02*
X5072325Y-5807746D01*
X5072325Y-5807746D02*
X5081849Y-5760127D01*
X5081849Y-5760127D02*
X5091373Y-5731555D01*
X5091373Y-5731555D02*
X5100896Y-5712508D01*
X5100896Y-5712508D02*
X5119944Y-5683936D01*
X5119944Y-5683936D02*
X5129468Y-5674412D01*
X5205658Y-5769650D02*
X5205658Y-5902984D01*
X5205658Y-5788698D02*
X5215182Y-5779174D01*
X5215182Y-5779174D02*
X5234230Y-5769650D01*
X5234230Y-5769650D02*
X5262801Y-5769650D01*
X5262801Y-5769650D02*
X5281849Y-5779174D01*
X5281849Y-5779174D02*
X5291373Y-5798222D01*
X5291373Y-5798222D02*
X5291373Y-5902984D01*
X5415182Y-5902984D02*
X5396134Y-5893460D01*
X5396134Y-5893460D02*
X5386611Y-5883936D01*
X5386611Y-5883936D02*
X5377087Y-5864888D01*
X5377087Y-5864888D02*
X5377087Y-5807746D01*
X5377087Y-5807746D02*
X5386611Y-5788698D01*
X5386611Y-5788698D02*
X5396134Y-5779174D01*
X5396134Y-5779174D02*
X5415182Y-5769650D01*
X5415182Y-5769650D02*
X5443754Y-5769650D01*
X5443754Y-5769650D02*
X5462801Y-5779174D01*
X5462801Y-5779174D02*
X5472325Y-5788698D01*
X5472325Y-5788698D02*
X5481849Y-5807746D01*
X5481849Y-5807746D02*
X5481849Y-5864888D01*
X5481849Y-5864888D02*
X5472325Y-5883936D01*
X5472325Y-5883936D02*
X5462801Y-5893460D01*
X5462801Y-5893460D02*
X5443754Y-5902984D01*
X5443754Y-5902984D02*
X5415182Y-5902984D01*
X5538992Y-5769650D02*
X5615182Y-5769650D01*
X5567563Y-5702984D02*
X5567563Y-5874412D01*
X5567563Y-5874412D02*
X5577087Y-5893460D01*
X5577087Y-5893460D02*
X5596134Y-5902984D01*
X5596134Y-5902984D02*
X5615182Y-5902984D01*
X5834230Y-5769650D02*
X5834230Y-5969650D01*
X5834230Y-5779174D02*
X5853277Y-5769650D01*
X5853277Y-5769650D02*
X5891373Y-5769650D01*
X5891373Y-5769650D02*
X5910420Y-5779174D01*
X5910420Y-5779174D02*
X5919944Y-5788698D01*
X5919944Y-5788698D02*
X5929468Y-5807746D01*
X5929468Y-5807746D02*
X5929468Y-5864888D01*
X5929468Y-5864888D02*
X5919944Y-5883936D01*
X5919944Y-5883936D02*
X5910420Y-5893460D01*
X5910420Y-5893460D02*
X5891373Y-5902984D01*
X5891373Y-5902984D02*
X5853277Y-5902984D01*
X5853277Y-5902984D02*
X5834230Y-5893460D01*
X6043753Y-5902984D02*
X6024706Y-5893460D01*
X6024706Y-5893460D02*
X6015182Y-5874412D01*
X6015182Y-5874412D02*
X6015182Y-5702984D01*
X6205658Y-5902984D02*
X6205658Y-5798222D01*
X6205658Y-5798222D02*
X6196134Y-5779174D01*
X6196134Y-5779174D02*
X6177087Y-5769650D01*
X6177087Y-5769650D02*
X6138992Y-5769650D01*
X6138992Y-5769650D02*
X6119944Y-5779174D01*
X6205658Y-5893460D02*
X6186611Y-5902984D01*
X6186611Y-5902984D02*
X6138992Y-5902984D01*
X6138992Y-5902984D02*
X6119944Y-5893460D01*
X6119944Y-5893460D02*
X6110420Y-5874412D01*
X6110420Y-5874412D02*
X6110420Y-5855365D01*
X6110420Y-5855365D02*
X6119944Y-5836317D01*
X6119944Y-5836317D02*
X6138992Y-5826793D01*
X6138992Y-5826793D02*
X6186611Y-5826793D01*
X6186611Y-5826793D02*
X6205658Y-5817269D01*
X6272325Y-5769650D02*
X6348515Y-5769650D01*
X6300896Y-5702984D02*
X6300896Y-5874412D01*
X6300896Y-5874412D02*
X6310420Y-5893460D01*
X6310420Y-5893460D02*
X6329468Y-5902984D01*
X6329468Y-5902984D02*
X6348515Y-5902984D01*
X6491373Y-5893460D02*
X6472325Y-5902984D01*
X6472325Y-5902984D02*
X6434230Y-5902984D01*
X6434230Y-5902984D02*
X6415182Y-5893460D01*
X6415182Y-5893460D02*
X6405658Y-5874412D01*
X6405658Y-5874412D02*
X6405658Y-5798222D01*
X6405658Y-5798222D02*
X6415182Y-5779174D01*
X6415182Y-5779174D02*
X6434230Y-5769650D01*
X6434230Y-5769650D02*
X6472325Y-5769650D01*
X6472325Y-5769650D02*
X6491373Y-5779174D01*
X6491373Y-5779174D02*
X6500896Y-5798222D01*
X6500896Y-5798222D02*
X6500896Y-5817269D01*
X6500896Y-5817269D02*
X6405658Y-5836317D01*
X6672325Y-5902984D02*
X6672325Y-5702984D01*
X6672325Y-5893460D02*
X6653277Y-5902984D01*
X6653277Y-5902984D02*
X6615182Y-5902984D01*
X6615182Y-5902984D02*
X6596134Y-5893460D01*
X6596134Y-5893460D02*
X6586611Y-5883936D01*
X6586611Y-5883936D02*
X6577087Y-5864888D01*
X6577087Y-5864888D02*
X6577087Y-5807746D01*
X6577087Y-5807746D02*
X6586611Y-5788698D01*
X6586611Y-5788698D02*
X6596134Y-5779174D01*
X6596134Y-5779174D02*
X6615182Y-5769650D01*
X6615182Y-5769650D02*
X6653277Y-5769650D01*
X6653277Y-5769650D02*
X6672325Y-5779174D01*
X6748515Y-5979174D02*
X6758039Y-5969650D01*
X6758039Y-5969650D02*
X6777087Y-5941079D01*
X6777087Y-5941079D02*
X6786611Y-5922031D01*
X6786611Y-5922031D02*
X6796134Y-5893460D01*
X6796134Y-5893460D02*
X6805658Y-5845841D01*
X6805658Y-5845841D02*
X6805658Y-5807746D01*
X6805658Y-5807746D02*
X6796134Y-5760127D01*
X6796134Y-5760127D02*
X6786611Y-5731555D01*
X6786611Y-5731555D02*
X6777087Y-5712508D01*
X6777087Y-5712508D02*
X6758039Y-5683936D01*
X6758039Y-5683936D02*
X6748515Y-5674412D01*
X-107500Y-5975500D02*
X-107500Y-6175500D01*
X-207500Y-6075500D02*
X-7500Y-6075500D01*
X243753Y-5986031D02*
X253277Y-5976508D01*
X253277Y-5976508D02*
X272324Y-5966984D01*
X272324Y-5966984D02*
X319944Y-5966984D01*
X319944Y-5966984D02*
X338991Y-5976508D01*
X338991Y-5976508D02*
X348515Y-5986031D01*
X348515Y-5986031D02*
X358039Y-6005079D01*
X358039Y-6005079D02*
X358039Y-6024127D01*
X358039Y-6024127D02*
X348515Y-6052698D01*
X348515Y-6052698D02*
X234229Y-6166984D01*
X234229Y-6166984D02*
X358039Y-6166984D01*
X443753Y-6147936D02*
X453277Y-6157460D01*
X453277Y-6157460D02*
X443753Y-6166984D01*
X443753Y-6166984D02*
X434229Y-6157460D01*
X434229Y-6157460D02*
X443753Y-6147936D01*
X443753Y-6147936D02*
X443753Y-6166984D01*
X519943Y-5966984D02*
X653277Y-5966984D01*
X653277Y-5966984D02*
X567563Y-6166984D01*
X767562Y-5966984D02*
X786610Y-5966984D01*
X786610Y-5966984D02*
X805658Y-5976508D01*
X805658Y-5976508D02*
X815182Y-5986031D01*
X815182Y-5986031D02*
X824705Y-6005079D01*
X824705Y-6005079D02*
X834229Y-6043174D01*
X834229Y-6043174D02*
X834229Y-6090793D01*
X834229Y-6090793D02*
X824705Y-6128888D01*
X824705Y-6128888D02*
X815182Y-6147936D01*
X815182Y-6147936D02*
X805658Y-6157460D01*
X805658Y-6157460D02*
X786610Y-6166984D01*
X786610Y-6166984D02*
X767562Y-6166984D01*
X767562Y-6166984D02*
X748515Y-6157460D01*
X748515Y-6157460D02*
X738991Y-6147936D01*
X738991Y-6147936D02*
X729467Y-6128888D01*
X729467Y-6128888D02*
X719943Y-6090793D01*
X719943Y-6090793D02*
X719943Y-6043174D01*
X719943Y-6043174D02*
X729467Y-6005079D01*
X729467Y-6005079D02*
X738991Y-5986031D01*
X738991Y-5986031D02*
X748515Y-5976508D01*
X748515Y-5976508D02*
X767562Y-5966984D01*
X958039Y-5966984D02*
X977086Y-5966984D01*
X977086Y-5966984D02*
X996134Y-5976508D01*
X996134Y-5976508D02*
X1005658Y-5986031D01*
X1005658Y-5986031D02*
X1015182Y-6005079D01*
X1015182Y-6005079D02*
X1024705Y-6043174D01*
X1024705Y-6043174D02*
X1024705Y-6090793D01*
X1024705Y-6090793D02*
X1015182Y-6128888D01*
X1015182Y-6128888D02*
X1005658Y-6147936D01*
X1005658Y-6147936D02*
X996134Y-6157460D01*
X996134Y-6157460D02*
X977086Y-6166984D01*
X977086Y-6166984D02*
X958039Y-6166984D01*
X958039Y-6166984D02*
X938991Y-6157460D01*
X938991Y-6157460D02*
X929467Y-6147936D01*
X929467Y-6147936D02*
X919943Y-6128888D01*
X919943Y-6128888D02*
X910420Y-6090793D01*
X910420Y-6090793D02*
X910420Y-6043174D01*
X910420Y-6043174D02*
X919943Y-6005079D01*
X919943Y-6005079D02*
X929467Y-5986031D01*
X929467Y-5986031D02*
X938991Y-5976508D01*
X938991Y-5976508D02*
X958039Y-5966984D01*
X1110420Y-6166984D02*
X1110420Y-6033650D01*
X1110420Y-6052698D02*
X1119944Y-6043174D01*
X1119944Y-6043174D02*
X1138991Y-6033650D01*
X1138991Y-6033650D02*
X1167563Y-6033650D01*
X1167563Y-6033650D02*
X1186610Y-6043174D01*
X1186610Y-6043174D02*
X1196134Y-6062222D01*
X1196134Y-6062222D02*
X1196134Y-6166984D01*
X1196134Y-6062222D02*
X1205658Y-6043174D01*
X1205658Y-6043174D02*
X1224705Y-6033650D01*
X1224705Y-6033650D02*
X1253277Y-6033650D01*
X1253277Y-6033650D02*
X1272325Y-6043174D01*
X1272325Y-6043174D02*
X1281848Y-6062222D01*
X1281848Y-6062222D02*
X1281848Y-6166984D01*
X1377086Y-6166984D02*
X1377086Y-6033650D01*
X1377086Y-6052698D02*
X1386610Y-6043174D01*
X1386610Y-6043174D02*
X1405658Y-6033650D01*
X1405658Y-6033650D02*
X1434229Y-6033650D01*
X1434229Y-6033650D02*
X1453277Y-6043174D01*
X1453277Y-6043174D02*
X1462801Y-6062222D01*
X1462801Y-6062222D02*
X1462801Y-6166984D01*
X1462801Y-6062222D02*
X1472324Y-6043174D01*
X1472324Y-6043174D02*
X1491372Y-6033650D01*
X1491372Y-6033650D02*
X1519943Y-6033650D01*
X1519943Y-6033650D02*
X1538991Y-6043174D01*
X1538991Y-6043174D02*
X1548515Y-6062222D01*
X1548515Y-6062222D02*
X1548515Y-6166984D01*
X1938991Y-5957460D02*
X1767563Y-6214603D01*
X2196134Y-5966984D02*
X2215182Y-5966984D01*
X2215182Y-5966984D02*
X2234229Y-5976508D01*
X2234229Y-5976508D02*
X2243753Y-5986031D01*
X2243753Y-5986031D02*
X2253277Y-6005079D01*
X2253277Y-6005079D02*
X2262801Y-6043174D01*
X2262801Y-6043174D02*
X2262801Y-6090793D01*
X2262801Y-6090793D02*
X2253277Y-6128888D01*
X2253277Y-6128888D02*
X2243753Y-6147936D01*
X2243753Y-6147936D02*
X2234229Y-6157460D01*
X2234229Y-6157460D02*
X2215182Y-6166984D01*
X2215182Y-6166984D02*
X2196134Y-6166984D01*
X2196134Y-6166984D02*
X2177087Y-6157460D01*
X2177087Y-6157460D02*
X2167563Y-6147936D01*
X2167563Y-6147936D02*
X2158039Y-6128888D01*
X2158039Y-6128888D02*
X2148515Y-6090793D01*
X2148515Y-6090793D02*
X2148515Y-6043174D01*
X2148515Y-6043174D02*
X2158039Y-6005079D01*
X2158039Y-6005079D02*
X2167563Y-5986031D01*
X2167563Y-5986031D02*
X2177087Y-5976508D01*
X2177087Y-5976508D02*
X2196134Y-5966984D01*
X2348515Y-6147936D02*
X2358039Y-6157460D01*
X2358039Y-6157460D02*
X2348515Y-6166984D01*
X2348515Y-6166984D02*
X2338991Y-6157460D01*
X2338991Y-6157460D02*
X2348515Y-6147936D01*
X2348515Y-6147936D02*
X2348515Y-6166984D01*
X2548515Y-6166984D02*
X2434229Y-6166984D01*
X2491372Y-6166984D02*
X2491372Y-5966984D01*
X2491372Y-5966984D02*
X2472325Y-5995555D01*
X2472325Y-5995555D02*
X2453277Y-6014603D01*
X2453277Y-6014603D02*
X2434229Y-6024127D01*
X2672325Y-5966984D02*
X2691372Y-5966984D01*
X2691372Y-5966984D02*
X2710420Y-5976508D01*
X2710420Y-5976508D02*
X2719944Y-5986031D01*
X2719944Y-5986031D02*
X2729468Y-6005079D01*
X2729468Y-6005079D02*
X2738991Y-6043174D01*
X2738991Y-6043174D02*
X2738991Y-6090793D01*
X2738991Y-6090793D02*
X2729468Y-6128888D01*
X2729468Y-6128888D02*
X2719944Y-6147936D01*
X2719944Y-6147936D02*
X2710420Y-6157460D01*
X2710420Y-6157460D02*
X2691372Y-6166984D01*
X2691372Y-6166984D02*
X2672325Y-6166984D01*
X2672325Y-6166984D02*
X2653277Y-6157460D01*
X2653277Y-6157460D02*
X2643753Y-6147936D01*
X2643753Y-6147936D02*
X2634229Y-6128888D01*
X2634229Y-6128888D02*
X2624706Y-6090793D01*
X2624706Y-6090793D02*
X2624706Y-6043174D01*
X2624706Y-6043174D02*
X2634229Y-6005079D01*
X2634229Y-6005079D02*
X2643753Y-5986031D01*
X2643753Y-5986031D02*
X2653277Y-5976508D01*
X2653277Y-5976508D02*
X2672325Y-5966984D01*
X2910420Y-5966984D02*
X2872325Y-5966984D01*
X2872325Y-5966984D02*
X2853277Y-5976508D01*
X2853277Y-5976508D02*
X2843753Y-5986031D01*
X2843753Y-5986031D02*
X2824706Y-6014603D01*
X2824706Y-6014603D02*
X2815182Y-6052698D01*
X2815182Y-6052698D02*
X2815182Y-6128888D01*
X2815182Y-6128888D02*
X2824706Y-6147936D01*
X2824706Y-6147936D02*
X2834229Y-6157460D01*
X2834229Y-6157460D02*
X2853277Y-6166984D01*
X2853277Y-6166984D02*
X2891372Y-6166984D01*
X2891372Y-6166984D02*
X2910420Y-6157460D01*
X2910420Y-6157460D02*
X2919944Y-6147936D01*
X2919944Y-6147936D02*
X2929467Y-6128888D01*
X2929467Y-6128888D02*
X2929467Y-6081269D01*
X2929467Y-6081269D02*
X2919944Y-6062222D01*
X2919944Y-6062222D02*
X2910420Y-6052698D01*
X2910420Y-6052698D02*
X2891372Y-6043174D01*
X2891372Y-6043174D02*
X2853277Y-6043174D01*
X2853277Y-6043174D02*
X2834229Y-6052698D01*
X2834229Y-6052698D02*
X2824706Y-6062222D01*
X2824706Y-6062222D02*
X2815182Y-6081269D01*
X2996134Y-5966984D02*
X3119944Y-5966984D01*
X3119944Y-5966984D02*
X3053277Y-6043174D01*
X3053277Y-6043174D02*
X3081848Y-6043174D01*
X3081848Y-6043174D02*
X3100896Y-6052698D01*
X3100896Y-6052698D02*
X3110420Y-6062222D01*
X3110420Y-6062222D02*
X3119944Y-6081269D01*
X3119944Y-6081269D02*
X3119944Y-6128888D01*
X3119944Y-6128888D02*
X3110420Y-6147936D01*
X3110420Y-6147936D02*
X3100896Y-6157460D01*
X3100896Y-6157460D02*
X3081848Y-6166984D01*
X3081848Y-6166984D02*
X3024706Y-6166984D01*
X3024706Y-6166984D02*
X3005658Y-6157460D01*
X3005658Y-6157460D02*
X2996134Y-6147936D01*
X3196134Y-5966984D02*
X3196134Y-6005079D01*
X3272325Y-5966984D02*
X3272325Y-6005079D01*
X3567563Y-6243174D02*
X3558039Y-6233650D01*
X3558039Y-6233650D02*
X3538991Y-6205079D01*
X3538991Y-6205079D02*
X3529468Y-6186031D01*
X3529468Y-6186031D02*
X3519944Y-6157460D01*
X3519944Y-6157460D02*
X3510420Y-6109841D01*
X3510420Y-6109841D02*
X3510420Y-6071746D01*
X3510420Y-6071746D02*
X3519944Y-6024127D01*
X3519944Y-6024127D02*
X3529468Y-5995555D01*
X3529468Y-5995555D02*
X3538991Y-5976508D01*
X3538991Y-5976508D02*
X3558039Y-5947936D01*
X3558039Y-5947936D02*
X3567563Y-5938412D01*
X3729468Y-6033650D02*
X3729468Y-6166984D01*
X3681848Y-5957460D02*
X3634229Y-6100317D01*
X3634229Y-6100317D02*
X3758039Y-6100317D01*
X3986610Y-6166984D02*
X3986610Y-5966984D01*
X4072325Y-6166984D02*
X4072325Y-6062222D01*
X4072325Y-6062222D02*
X4062801Y-6043174D01*
X4062801Y-6043174D02*
X4043753Y-6033650D01*
X4043753Y-6033650D02*
X4015182Y-6033650D01*
X4015182Y-6033650D02*
X3996134Y-6043174D01*
X3996134Y-6043174D02*
X3986610Y-6052698D01*
X4196134Y-6166984D02*
X4177087Y-6157460D01*
X4177087Y-6157460D02*
X4167563Y-6147936D01*
X4167563Y-6147936D02*
X4158039Y-6128888D01*
X4158039Y-6128888D02*
X4158039Y-6071746D01*
X4158039Y-6071746D02*
X4167563Y-6052698D01*
X4167563Y-6052698D02*
X4177087Y-6043174D01*
X4177087Y-6043174D02*
X4196134Y-6033650D01*
X4196134Y-6033650D02*
X4224706Y-6033650D01*
X4224706Y-6033650D02*
X4243753Y-6043174D01*
X4243753Y-6043174D02*
X4253277Y-6052698D01*
X4253277Y-6052698D02*
X4262801Y-6071746D01*
X4262801Y-6071746D02*
X4262801Y-6128888D01*
X4262801Y-6128888D02*
X4253277Y-6147936D01*
X4253277Y-6147936D02*
X4243753Y-6157460D01*
X4243753Y-6157460D02*
X4224706Y-6166984D01*
X4224706Y-6166984D02*
X4196134Y-6166984D01*
X4377087Y-6166984D02*
X4358039Y-6157460D01*
X4358039Y-6157460D02*
X4348515Y-6138412D01*
X4348515Y-6138412D02*
X4348515Y-5966984D01*
X4529468Y-6157460D02*
X4510420Y-6166984D01*
X4510420Y-6166984D02*
X4472325Y-6166984D01*
X4472325Y-6166984D02*
X4453277Y-6157460D01*
X4453277Y-6157460D02*
X4443753Y-6138412D01*
X4443753Y-6138412D02*
X4443753Y-6062222D01*
X4443753Y-6062222D02*
X4453277Y-6043174D01*
X4453277Y-6043174D02*
X4472325Y-6033650D01*
X4472325Y-6033650D02*
X4510420Y-6033650D01*
X4510420Y-6033650D02*
X4529468Y-6043174D01*
X4529468Y-6043174D02*
X4538992Y-6062222D01*
X4538992Y-6062222D02*
X4538992Y-6081269D01*
X4538992Y-6081269D02*
X4443753Y-6100317D01*
X4615182Y-6157460D02*
X4634230Y-6166984D01*
X4634230Y-6166984D02*
X4672325Y-6166984D01*
X4672325Y-6166984D02*
X4691373Y-6157460D01*
X4691373Y-6157460D02*
X4700896Y-6138412D01*
X4700896Y-6138412D02*
X4700896Y-6128888D01*
X4700896Y-6128888D02*
X4691373Y-6109841D01*
X4691373Y-6109841D02*
X4672325Y-6100317D01*
X4672325Y-6100317D02*
X4643753Y-6100317D01*
X4643753Y-6100317D02*
X4624706Y-6090793D01*
X4624706Y-6090793D02*
X4615182Y-6071746D01*
X4615182Y-6071746D02*
X4615182Y-6062222D01*
X4615182Y-6062222D02*
X4624706Y-6043174D01*
X4624706Y-6043174D02*
X4643753Y-6033650D01*
X4643753Y-6033650D02*
X4672325Y-6033650D01*
X4672325Y-6033650D02*
X4691373Y-6043174D01*
X4767563Y-6243174D02*
X4777087Y-6233650D01*
X4777087Y-6233650D02*
X4796134Y-6205079D01*
X4796134Y-6205079D02*
X4805658Y-6186031D01*
X4805658Y-6186031D02*
X4815182Y-6157460D01*
X4815182Y-6157460D02*
X4824706Y-6109841D01*
X4824706Y-6109841D02*
X4824706Y-6071746D01*
X4824706Y-6071746D02*
X4815182Y-6024127D01*
X4815182Y-6024127D02*
X4805658Y-5995555D01*
X4805658Y-5995555D02*
X4796134Y-5976508D01*
X4796134Y-5976508D02*
X4777087Y-5947936D01*
X4777087Y-5947936D02*
X4767563Y-5938412D01*
X5129468Y-6243174D02*
X5119944Y-6233650D01*
X5119944Y-6233650D02*
X5100896Y-6205079D01*
X5100896Y-6205079D02*
X5091373Y-6186031D01*
X5091373Y-6186031D02*
X5081849Y-6157460D01*
X5081849Y-6157460D02*
X5072325Y-6109841D01*
X5072325Y-6109841D02*
X5072325Y-6071746D01*
X5072325Y-6071746D02*
X5081849Y-6024127D01*
X5081849Y-6024127D02*
X5091373Y-5995555D01*
X5091373Y-5995555D02*
X5100896Y-5976508D01*
X5100896Y-5976508D02*
X5119944Y-5947936D01*
X5119944Y-5947936D02*
X5129468Y-5938412D01*
X5205658Y-6033650D02*
X5205658Y-6166984D01*
X5205658Y-6052698D02*
X5215182Y-6043174D01*
X5215182Y-6043174D02*
X5234230Y-6033650D01*
X5234230Y-6033650D02*
X5262801Y-6033650D01*
X5262801Y-6033650D02*
X5281849Y-6043174D01*
X5281849Y-6043174D02*
X5291373Y-6062222D01*
X5291373Y-6062222D02*
X5291373Y-6166984D01*
X5415182Y-6166984D02*
X5396134Y-6157460D01*
X5396134Y-6157460D02*
X5386611Y-6147936D01*
X5386611Y-6147936D02*
X5377087Y-6128888D01*
X5377087Y-6128888D02*
X5377087Y-6071746D01*
X5377087Y-6071746D02*
X5386611Y-6052698D01*
X5386611Y-6052698D02*
X5396134Y-6043174D01*
X5396134Y-6043174D02*
X5415182Y-6033650D01*
X5415182Y-6033650D02*
X5443754Y-6033650D01*
X5443754Y-6033650D02*
X5462801Y-6043174D01*
X5462801Y-6043174D02*
X5472325Y-6052698D01*
X5472325Y-6052698D02*
X5481849Y-6071746D01*
X5481849Y-6071746D02*
X5481849Y-6128888D01*
X5481849Y-6128888D02*
X5472325Y-6147936D01*
X5472325Y-6147936D02*
X5462801Y-6157460D01*
X5462801Y-6157460D02*
X5443754Y-6166984D01*
X5443754Y-6166984D02*
X5415182Y-6166984D01*
X5538992Y-6033650D02*
X5615182Y-6033650D01*
X5567563Y-5966984D02*
X5567563Y-6138412D01*
X5567563Y-6138412D02*
X5577087Y-6157460D01*
X5577087Y-6157460D02*
X5596134Y-6166984D01*
X5596134Y-6166984D02*
X5615182Y-6166984D01*
X5834230Y-6033650D02*
X5834230Y-6233650D01*
X5834230Y-6043174D02*
X5853277Y-6033650D01*
X5853277Y-6033650D02*
X5891373Y-6033650D01*
X5891373Y-6033650D02*
X5910420Y-6043174D01*
X5910420Y-6043174D02*
X5919944Y-6052698D01*
X5919944Y-6052698D02*
X5929468Y-6071746D01*
X5929468Y-6071746D02*
X5929468Y-6128888D01*
X5929468Y-6128888D02*
X5919944Y-6147936D01*
X5919944Y-6147936D02*
X5910420Y-6157460D01*
X5910420Y-6157460D02*
X5891373Y-6166984D01*
X5891373Y-6166984D02*
X5853277Y-6166984D01*
X5853277Y-6166984D02*
X5834230Y-6157460D01*
X6043753Y-6166984D02*
X6024706Y-6157460D01*
X6024706Y-6157460D02*
X6015182Y-6138412D01*
X6015182Y-6138412D02*
X6015182Y-5966984D01*
X6205658Y-6166984D02*
X6205658Y-6062222D01*
X6205658Y-6062222D02*
X6196134Y-6043174D01*
X6196134Y-6043174D02*
X6177087Y-6033650D01*
X6177087Y-6033650D02*
X6138992Y-6033650D01*
X6138992Y-6033650D02*
X6119944Y-6043174D01*
X6205658Y-6157460D02*
X6186611Y-6166984D01*
X6186611Y-6166984D02*
X6138992Y-6166984D01*
X6138992Y-6166984D02*
X6119944Y-6157460D01*
X6119944Y-6157460D02*
X6110420Y-6138412D01*
X6110420Y-6138412D02*
X6110420Y-6119365D01*
X6110420Y-6119365D02*
X6119944Y-6100317D01*
X6119944Y-6100317D02*
X6138992Y-6090793D01*
X6138992Y-6090793D02*
X6186611Y-6090793D01*
X6186611Y-6090793D02*
X6205658Y-6081269D01*
X6272325Y-6033650D02*
X6348515Y-6033650D01*
X6300896Y-5966984D02*
X6300896Y-6138412D01*
X6300896Y-6138412D02*
X6310420Y-6157460D01*
X6310420Y-6157460D02*
X6329468Y-6166984D01*
X6329468Y-6166984D02*
X6348515Y-6166984D01*
X6491373Y-6157460D02*
X6472325Y-6166984D01*
X6472325Y-6166984D02*
X6434230Y-6166984D01*
X6434230Y-6166984D02*
X6415182Y-6157460D01*
X6415182Y-6157460D02*
X6405658Y-6138412D01*
X6405658Y-6138412D02*
X6405658Y-6062222D01*
X6405658Y-6062222D02*
X6415182Y-6043174D01*
X6415182Y-6043174D02*
X6434230Y-6033650D01*
X6434230Y-6033650D02*
X6472325Y-6033650D01*
X6472325Y-6033650D02*
X6491373Y-6043174D01*
X6491373Y-6043174D02*
X6500896Y-6062222D01*
X6500896Y-6062222D02*
X6500896Y-6081269D01*
X6500896Y-6081269D02*
X6405658Y-6100317D01*
X6672325Y-6166984D02*
X6672325Y-5966984D01*
X6672325Y-6157460D02*
X6653277Y-6166984D01*
X6653277Y-6166984D02*
X6615182Y-6166984D01*
X6615182Y-6166984D02*
X6596134Y-6157460D01*
X6596134Y-6157460D02*
X6586611Y-6147936D01*
X6586611Y-6147936D02*
X6577087Y-6128888D01*
X6577087Y-6128888D02*
X6577087Y-6071746D01*
X6577087Y-6071746D02*
X6586611Y-6052698D01*
X6586611Y-6052698D02*
X6596134Y-6043174D01*
X6596134Y-6043174D02*
X6615182Y-6033650D01*
X6615182Y-6033650D02*
X6653277Y-6033650D01*
X6653277Y-6033650D02*
X6672325Y-6043174D01*
X6748515Y-6243174D02*
X6758039Y-6233650D01*
X6758039Y-6233650D02*
X6777087Y-6205079D01*
X6777087Y-6205079D02*
X6786611Y-6186031D01*
X6786611Y-6186031D02*
X6796134Y-6157460D01*
X6796134Y-6157460D02*
X6805658Y-6109841D01*
X6805658Y-6109841D02*
X6805658Y-6071746D01*
X6805658Y-6071746D02*
X6796134Y-6024127D01*
X6796134Y-6024127D02*
X6786611Y-5995555D01*
X6786611Y-5995555D02*
X6777087Y-5976508D01*
X6777087Y-5976508D02*
X6758039Y-5947936D01*
X6758039Y-5947936D02*
X6748515Y-5938412D01*
M02*
