%TF.GenerationSoftware,KiCad,Pcbnew,10.0.5*%
%TF.CreationDate,2026-09-19T23:40:15+02:00*%
%TF.ProjectId,cicala_rev_a,63696361-6c61-45f7-9265-765f612e6b69,A0*%
%TF.SameCoordinates,Original*%
%TF.FileFunction,Drillmap*%
%TF.FilePolarity,Positive*%
%FSLAX45Y45*%
G04 Gerber Fmt 4.5, Leading zero omitted, Abs format (unit mm)*
G04 Created by KiCad (PCBNEW 10.0.5) date 2026-09-19 23:40:15*
%MOMM*%
%LPD*%
G01*
G04 APERTURE LIST*
%ADD10C,0.150000*%
%ADD11C,0.200000*%
%ADD12C,0.100000*%
G04 APERTURE END LIST*
D10*
X0Y-200000D02*
G75*
G02*
X200000Y0I200000J0D01*
G01*
X0Y-4700000D02*
X0Y-200000D01*
X200000Y0D02*
X7600000Y0D01*
X200000Y-4900000D02*
G75*
G02*
X0Y-4700000I0J200000D01*
G01*
X7600000Y0D02*
G75*
G02*
X7800000Y-200000I0J-200000D01*
G01*
X7600000Y-4900000D02*
X200000Y-4900000D01*
X7800000Y-200000D02*
X7800000Y-4700000D01*
X7800000Y-4700000D02*
G75*
G02*
X7600000Y-4900000I-200000J0D01*
G01*
D11*
D12*
X715000Y-4157500D02*
X735000Y-4177500D01*
X735000Y-4157500D02*
X715000Y-4177500D01*
X740000Y-695000D02*
X760000Y-715000D01*
X760000Y-695000D02*
X740000Y-715000D01*
X740000Y-852500D02*
X760000Y-872500D01*
X760000Y-852500D02*
X740000Y-872500D01*
X770000Y-3740000D02*
X790000Y-3760000D01*
X790000Y-3740000D02*
X770000Y-3760000D01*
X792500Y-1197500D02*
X812500Y-1217500D01*
X812500Y-1197500D02*
X792500Y-1217500D01*
X792500Y-2682500D02*
X812500Y-2702500D01*
X812500Y-2682500D02*
X792500Y-2702500D01*
X912500Y-935000D02*
X932500Y-955000D01*
X932500Y-935000D02*
X912500Y-955000D01*
X935000Y-695000D02*
X955000Y-715000D01*
X955000Y-695000D02*
X935000Y-715000D01*
X1085000Y-3342500D02*
X1105000Y-3362500D01*
X1105000Y-3342500D02*
X1085000Y-3362500D01*
X1100050Y-931200D02*
X1120050Y-951200D01*
X1120050Y-931200D02*
X1100050Y-951200D01*
X1137500Y-695000D02*
X1157500Y-715000D01*
X1157500Y-695000D02*
X1137500Y-715000D01*
X1160000Y-882500D02*
X1180000Y-902500D01*
X1180000Y-882500D02*
X1160000Y-902500D01*
X1180000Y-4102500D02*
X1200000Y-4122500D01*
X1200000Y-4102500D02*
X1180000Y-4122500D01*
X1347500Y-3155000D02*
X1367500Y-3175000D01*
X1367500Y-3155000D02*
X1347500Y-3175000D01*
X1355000Y-290000D02*
X1375000Y-310000D01*
X1375000Y-290000D02*
X1355000Y-310000D01*
X1359532Y-940986D02*
X1379532Y-960986D01*
X1379532Y-940986D02*
X1359532Y-960986D01*
X1385000Y-710000D02*
X1405000Y-730000D01*
X1405000Y-710000D02*
X1385000Y-730000D01*
X1385000Y-837500D02*
X1405000Y-857500D01*
X1405000Y-837500D02*
X1385000Y-857500D01*
X1445000Y-3590000D02*
X1465000Y-3610000D01*
X1465000Y-3590000D02*
X1445000Y-3610000D01*
X1572500Y-132500D02*
X1592500Y-152500D01*
X1592500Y-132500D02*
X1572500Y-152500D01*
X1635000Y-3320000D02*
X1655000Y-3340000D01*
X1655000Y-3320000D02*
X1635000Y-3340000D01*
X1640000Y-3792500D02*
X1660000Y-3812500D01*
X1660000Y-3792500D02*
X1640000Y-3812500D01*
X1680000Y-942500D02*
X1700000Y-962500D01*
X1700000Y-942500D02*
X1680000Y-962500D01*
X1760000Y-3462500D02*
X1780000Y-3482500D01*
X1780000Y-3462500D02*
X1760000Y-3482500D01*
X1775000Y-3290000D02*
X1795000Y-3310000D01*
X1795000Y-3290000D02*
X1775000Y-3310000D01*
X1790000Y-132500D02*
X1810000Y-152500D01*
X1810000Y-132500D02*
X1790000Y-152500D01*
X1805000Y-290000D02*
X1825000Y-310000D01*
X1825000Y-290000D02*
X1805000Y-310000D01*
X1805000Y-3747500D02*
X1825000Y-3767500D01*
X1825000Y-3747500D02*
X1805000Y-3767500D01*
X1830000Y-775000D02*
X1850000Y-795000D01*
X1850000Y-775000D02*
X1830000Y-795000D01*
X2029044Y-3512550D02*
X2049044Y-3532550D01*
X2049044Y-3512550D02*
X2029044Y-3532550D01*
X2060000Y-132500D02*
X2080000Y-152500D01*
X2080000Y-132500D02*
X2060000Y-152500D01*
X2067500Y-4032500D02*
X2087500Y-4052500D01*
X2087500Y-4032500D02*
X2067500Y-4052500D01*
X2090000Y-390000D02*
X2110000Y-410000D01*
X2110000Y-390000D02*
X2090000Y-410000D01*
X2135000Y-747500D02*
X2155000Y-767500D01*
X2155000Y-747500D02*
X2135000Y-767500D01*
X2142500Y-3762500D02*
X2162500Y-3782500D01*
X2162500Y-3762500D02*
X2142500Y-3782500D01*
X2165000Y-3160000D02*
X2185000Y-3180000D01*
X2185000Y-3160000D02*
X2165000Y-3180000D01*
X2169884Y-917912D02*
X2189884Y-937912D01*
X2189884Y-917912D02*
X2169884Y-937912D01*
X2170000Y-390000D02*
X2190000Y-410000D01*
X2190000Y-390000D02*
X2170000Y-410000D01*
X2185000Y-1195000D02*
X2205000Y-1215000D01*
X2205000Y-1195000D02*
X2185000Y-1215000D01*
X2225050Y-2383903D02*
X2245050Y-2403903D01*
X2245050Y-2383903D02*
X2225050Y-2403903D01*
X2310807Y-2160994D02*
X2330807Y-2180994D01*
X2330807Y-2160994D02*
X2310807Y-2180994D01*
X2315000Y-3747500D02*
X2335000Y-3767500D01*
X2335000Y-3747500D02*
X2315000Y-3767500D01*
X2330000Y-905000D02*
X2350000Y-925000D01*
X2350000Y-905000D02*
X2330000Y-925000D01*
X2345000Y-3497500D02*
X2365000Y-3517500D01*
X2365000Y-3497500D02*
X2345000Y-3517500D01*
X2352550Y-2983516D02*
X2372550Y-3003516D01*
X2372550Y-2983516D02*
X2352550Y-3003516D01*
X2396745Y-3555809D02*
X2416745Y-3575809D01*
X2416745Y-3555809D02*
X2396745Y-3575809D01*
X2470000Y-4393697D02*
X2490000Y-4413697D01*
X2490000Y-4393697D02*
X2470000Y-4413697D01*
X2480000Y-125000D02*
X2500000Y-145000D01*
X2500000Y-125000D02*
X2480000Y-145000D01*
X2502500Y-3102500D02*
X2522500Y-3122500D01*
X2522500Y-3102500D02*
X2502500Y-3122500D01*
X2502500Y-3792500D02*
X2522500Y-3812500D01*
X2522500Y-3792500D02*
X2502500Y-3812500D01*
X2517500Y-4272500D02*
X2537500Y-4292500D01*
X2537500Y-4272500D02*
X2517500Y-4292500D01*
X2622500Y-1040000D02*
X2642500Y-1060000D01*
X2642500Y-1040000D02*
X2622500Y-1060000D01*
X2645000Y-747500D02*
X2665000Y-767500D01*
X2665000Y-747500D02*
X2645000Y-767500D01*
X2650000Y-3832550D02*
X2670000Y-3852550D01*
X2670000Y-3832550D02*
X2650000Y-3852550D01*
X3071997Y-3181441D02*
X3091997Y-3201441D01*
X3091997Y-3181441D02*
X3071997Y-3201441D01*
X3185000Y-3650000D02*
X3205000Y-3670000D01*
X3205000Y-3650000D02*
X3185000Y-3670000D01*
X3219581Y-2402081D02*
X3239581Y-2422081D01*
X3239581Y-2402081D02*
X3219581Y-2422081D01*
X3371955Y-1735879D02*
X3391955Y-1755879D01*
X3391955Y-1735879D02*
X3371955Y-1755879D01*
X3395000Y-1535000D02*
X3415000Y-1555000D01*
X3415000Y-1535000D02*
X3395000Y-1555000D01*
X3582500Y-4145000D02*
X3602500Y-4165000D01*
X3602500Y-4145000D02*
X3582500Y-4165000D01*
X3605000Y-3292046D02*
X3625000Y-3312046D01*
X3625000Y-3292046D02*
X3605000Y-3312046D01*
X3642500Y-4115000D02*
X3662500Y-4135000D01*
X3662500Y-4115000D02*
X3642500Y-4135000D01*
X3671146Y-4430179D02*
X3691146Y-4450179D01*
X3691146Y-4430179D02*
X3671146Y-4450179D01*
X3789780Y-3230000D02*
X3809780Y-3250000D01*
X3809780Y-3230000D02*
X3789780Y-3250000D01*
X3790000Y-4375000D02*
X3810000Y-4395000D01*
X3810000Y-4375000D02*
X3790000Y-4395000D01*
X3850000Y-3630000D02*
X3870000Y-3650000D01*
X3870000Y-3630000D02*
X3850000Y-3650000D01*
X3890000Y-3880000D02*
X3910000Y-3900000D01*
X3910000Y-3880000D02*
X3890000Y-3900000D01*
X3890000Y-4105000D02*
X3910000Y-4125000D01*
X3910000Y-4105000D02*
X3890000Y-4125000D01*
X3900000Y-4375000D02*
X3920000Y-4395000D01*
X3920000Y-4375000D02*
X3900000Y-4395000D01*
X3930000Y-3630000D02*
X3950000Y-3650000D01*
X3950000Y-3630000D02*
X3930000Y-3650000D01*
X4017500Y-4370000D02*
X4037500Y-4390000D01*
X4037500Y-4370000D02*
X4017500Y-4390000D01*
X4137500Y-4115000D02*
X4157500Y-4135000D01*
X4157500Y-4115000D02*
X4137500Y-4135000D01*
X4227500Y-4145000D02*
X4247500Y-4165000D01*
X4247500Y-4145000D02*
X4227500Y-4165000D01*
X4233396Y-4450805D02*
X4253396Y-4470805D01*
X4253396Y-4450805D02*
X4233396Y-4470805D01*
X4302500Y-3425000D02*
X4322500Y-3445000D01*
X4322500Y-3425000D02*
X4302500Y-3445000D01*
X4332500Y-1040000D02*
X4352500Y-1060000D01*
X4352500Y-1040000D02*
X4332500Y-1060000D01*
X4377500Y-3957500D02*
X4397500Y-3977500D01*
X4397500Y-3957500D02*
X4377500Y-3977500D01*
X4402500Y-3772500D02*
X4422500Y-3792500D01*
X4422500Y-3772500D02*
X4402500Y-3792500D01*
X4460916Y-4187166D02*
X4480916Y-4207166D01*
X4480916Y-4187166D02*
X4460916Y-4207166D01*
X4505000Y-4490000D02*
X4525000Y-4510000D01*
X4525000Y-4490000D02*
X4505000Y-4510000D01*
X4517500Y-2822500D02*
X4537500Y-2842500D01*
X4537500Y-2822500D02*
X4517500Y-2842500D01*
X4586027Y-4755000D02*
X4606027Y-4775000D01*
X4606027Y-4755000D02*
X4586027Y-4775000D01*
X4652500Y-3350000D02*
X4672500Y-3370000D01*
X4672500Y-3350000D02*
X4652500Y-3370000D01*
X4665000Y-2970000D02*
X4685000Y-2990000D01*
X4685000Y-2970000D02*
X4665000Y-2990000D01*
X4670000Y-3530000D02*
X4690000Y-3550000D01*
X4690000Y-3530000D02*
X4670000Y-3550000D01*
X4674197Y-4215050D02*
X4694197Y-4235050D01*
X4694197Y-4215050D02*
X4674197Y-4235050D01*
X4835000Y-4445000D02*
X4855000Y-4465000D01*
X4855000Y-4445000D02*
X4835000Y-4465000D01*
X4872500Y-4700000D02*
X4892500Y-4720000D01*
X4892500Y-4700000D02*
X4872500Y-4720000D01*
X4910000Y-1940000D02*
X4930000Y-1960000D01*
X4930000Y-1940000D02*
X4910000Y-1960000D01*
X4910000Y-4790000D02*
X4930000Y-4810000D01*
X4930000Y-4790000D02*
X4910000Y-4810000D01*
X4985000Y-3995000D02*
X5005000Y-4015000D01*
X5005000Y-3995000D02*
X4985000Y-4015000D01*
X5060000Y-2517500D02*
X5080000Y-2537500D01*
X5080000Y-2517500D02*
X5060000Y-2537500D01*
X5135000Y-3365000D02*
X5155000Y-3385000D01*
X5155000Y-3365000D02*
X5135000Y-3385000D01*
X5142500Y-2142500D02*
X5162500Y-2162500D01*
X5162500Y-2142500D02*
X5142500Y-2162500D01*
X5225000Y-1040000D02*
X5245000Y-1060000D01*
X5245000Y-1040000D02*
X5225000Y-1060000D01*
X5315000Y-4077500D02*
X5335000Y-4097500D01*
X5335000Y-4077500D02*
X5315000Y-4097500D01*
X5375000Y-4835000D02*
X5395000Y-4855000D01*
X5395000Y-4835000D02*
X5375000Y-4855000D01*
X5387500Y-3432500D02*
X5407500Y-3452500D01*
X5407500Y-3432500D02*
X5387500Y-3452500D01*
X5407500Y-3832500D02*
X5427500Y-3852500D01*
X5427500Y-3832500D02*
X5407500Y-3852500D01*
X5435000Y-3680000D02*
X5455000Y-3700000D01*
X5455000Y-3680000D02*
X5435000Y-3700000D01*
X5570799Y-4537951D02*
X5590799Y-4557951D01*
X5590799Y-4537951D02*
X5570799Y-4557951D01*
X5575166Y-2946416D02*
X5595166Y-2966416D01*
X5595166Y-2946416D02*
X5575166Y-2966416D01*
X5672073Y-3615050D02*
X5692073Y-3635050D01*
X5692073Y-3615050D02*
X5672073Y-3635050D01*
X5720000Y-3837500D02*
X5740000Y-3857500D01*
X5740000Y-3837500D02*
X5720000Y-3857500D01*
X5855000Y-3380000D02*
X5875000Y-3400000D01*
X5875000Y-3380000D02*
X5855000Y-3400000D01*
X5907500Y-3617500D02*
X5927500Y-3637500D01*
X5927500Y-3617500D02*
X5907500Y-3637500D01*
X5915000Y-2495000D02*
X5935000Y-2515000D01*
X5935000Y-2495000D02*
X5915000Y-2515000D01*
X5915000Y-2960000D02*
X5935000Y-2980000D01*
X5935000Y-2960000D02*
X5915000Y-2980000D01*
X5960000Y-3005000D02*
X5980000Y-3025000D01*
X5980000Y-3005000D02*
X5960000Y-3025000D01*
X6065000Y-1962500D02*
X6085000Y-1982500D01*
X6085000Y-1962500D02*
X6065000Y-1982500D01*
X6072500Y-3875000D02*
X6092500Y-3895000D01*
X6092500Y-3875000D02*
X6072500Y-3895000D01*
X6090000Y-3672500D02*
X6110000Y-3692500D01*
X6110000Y-3672500D02*
X6090000Y-3692500D01*
X6102500Y-2975000D02*
X6122500Y-2995000D01*
X6122500Y-2975000D02*
X6102500Y-2995000D01*
X6147500Y-3575000D02*
X6167500Y-3595000D01*
X6167500Y-3575000D02*
X6147500Y-3595000D01*
X6162500Y-3290000D02*
X6182500Y-3310000D01*
X6182500Y-3290000D02*
X6162500Y-3310000D01*
X6165000Y-3037500D02*
X6185000Y-3057500D01*
X6185000Y-3037500D02*
X6165000Y-3057500D01*
X6342500Y-4617500D02*
X6362500Y-4637500D01*
X6362500Y-4617500D02*
X6342500Y-4637500D01*
X6360000Y-2795000D02*
X6380000Y-2815000D01*
X6380000Y-2795000D02*
X6360000Y-2815000D01*
X6420000Y-1940000D02*
X6440000Y-1960000D01*
X6440000Y-1940000D02*
X6420000Y-1960000D01*
X6447500Y-3425000D02*
X6467500Y-3445000D01*
X6467500Y-3425000D02*
X6447500Y-3445000D01*
X6470000Y-845000D02*
X6490000Y-865000D01*
X6490000Y-845000D02*
X6470000Y-865000D01*
X6477500Y-3620000D02*
X6497500Y-3640000D01*
X6497500Y-3620000D02*
X6477500Y-3640000D01*
X6477500Y-3725000D02*
X6497500Y-3745000D01*
X6497500Y-3725000D02*
X6477500Y-3745000D01*
X6522500Y-3072500D02*
X6542500Y-3092500D01*
X6542500Y-3072500D02*
X6522500Y-3092500D01*
X6595000Y-735000D02*
X6615000Y-755000D01*
X6615000Y-735000D02*
X6595000Y-755000D01*
X6617500Y-2557500D02*
X6637500Y-2577500D01*
X6637500Y-2557500D02*
X6617500Y-2577500D01*
X6620000Y-2450000D02*
X6640000Y-2470000D01*
X6640000Y-2450000D02*
X6620000Y-2470000D01*
X6630000Y-2150000D02*
X6650000Y-2170000D01*
X6650000Y-2150000D02*
X6630000Y-2170000D01*
X6650000Y-3530000D02*
X6670000Y-3550000D01*
X6670000Y-3530000D02*
X6650000Y-3550000D01*
X6665050Y-1609787D02*
X6685050Y-1629787D01*
X6685050Y-1609787D02*
X6665050Y-1629787D01*
X6672500Y-2592500D02*
X6692500Y-2612500D01*
X6692500Y-2592500D02*
X6672500Y-2612500D01*
X6680000Y-725000D02*
X6700000Y-745000D01*
X6700000Y-725000D02*
X6680000Y-745000D01*
X6680000Y-2517500D02*
X6700000Y-2537500D01*
X6700000Y-2517500D02*
X6680000Y-2537500D01*
X6687500Y-1520000D02*
X6707500Y-1540000D01*
X6707500Y-1520000D02*
X6687500Y-1540000D01*
X6710000Y-1790000D02*
X6730000Y-1810000D01*
X6730000Y-1790000D02*
X6710000Y-1810000D01*
X6710000Y-2067500D02*
X6730000Y-2087500D01*
X6730000Y-2067500D02*
X6710000Y-2087500D01*
X6740000Y-290000D02*
X6760000Y-310000D01*
X6760000Y-290000D02*
X6740000Y-310000D01*
X6755000Y-470000D02*
X6775000Y-490000D01*
X6775000Y-470000D02*
X6755000Y-490000D01*
X6765000Y-602500D02*
X6785000Y-622500D01*
X6785000Y-602500D02*
X6765000Y-622500D01*
X6765000Y-725000D02*
X6785000Y-745000D01*
X6785000Y-725000D02*
X6765000Y-745000D01*
X6770000Y-2157500D02*
X6790000Y-2177500D01*
X6790000Y-2157500D02*
X6770000Y-2177500D01*
X6860000Y-1827500D02*
X6880000Y-1847500D01*
X6880000Y-1827500D02*
X6860000Y-1847500D01*
X6890000Y-912500D02*
X6910000Y-932500D01*
X6910000Y-912500D02*
X6890000Y-932500D01*
X6950000Y-1587500D02*
X6970000Y-1607500D01*
X6970000Y-1587500D02*
X6950000Y-1607500D01*
X6972500Y-1377500D02*
X6992500Y-1397500D01*
X6992500Y-1377500D02*
X6972500Y-1397500D01*
X7010000Y-1632500D02*
X7030000Y-1652500D01*
X7030000Y-1632500D02*
X7010000Y-1652500D01*
X7025000Y-2000000D02*
X7045000Y-2020000D01*
X7045000Y-2000000D02*
X7025000Y-2020000D01*
X7047500Y-1677500D02*
X7067500Y-1697500D01*
X7067500Y-1677500D02*
X7047500Y-1697500D01*
X7050000Y-1790000D02*
X7070000Y-1810000D01*
X7070000Y-1790000D02*
X7050000Y-1810000D01*
X7092500Y-3440000D02*
X7112500Y-3460000D01*
X7112500Y-3440000D02*
X7092500Y-3460000D01*
X7150000Y-1020000D02*
X7170000Y-1040000D01*
X7170000Y-1020000D02*
X7150000Y-1040000D01*
X7280000Y-1317500D02*
X7300000Y-1337500D01*
X7300000Y-1317500D02*
X7280000Y-1337500D01*
X7330000Y-1170000D02*
X7350000Y-1190000D01*
X7350000Y-1170000D02*
X7330000Y-1190000D01*
X7392500Y-2277500D02*
X7412500Y-2297500D01*
X7412500Y-2277500D02*
X7392500Y-2297500D01*
X7415000Y-2112500D02*
X7435000Y-2132500D01*
X7435000Y-2112500D02*
X7415000Y-2132500D01*
X7422500Y-897500D02*
X7442500Y-917500D01*
X7442500Y-897500D02*
X7422500Y-917500D01*
X7610000Y-1340000D02*
X7630000Y-1360000D01*
X7630000Y-1340000D02*
X7610000Y-1360000D01*
X1441000Y-1730000D02*
G75*
G02*
X1421000Y-1730000I-10000J0D01*
G01*
X1421000Y-1730000D02*
G75*
G02*
X1441000Y-1730000I10000J0D01*
G01*
X1441000Y-1870000D02*
G75*
G02*
X1421000Y-1870000I-10000J0D01*
G01*
X1421000Y-1870000D02*
G75*
G02*
X1441000Y-1870000I10000J0D01*
G01*
X1511000Y-1660000D02*
G75*
G02*
X1491000Y-1660000I-10000J0D01*
G01*
X1491000Y-1660000D02*
G75*
G02*
X1511000Y-1660000I10000J0D01*
G01*
X1511000Y-1800000D02*
G75*
G02*
X1491000Y-1800000I-10000J0D01*
G01*
X1491000Y-1800000D02*
G75*
G02*
X1511000Y-1800000I10000J0D01*
G01*
X1511000Y-1940000D02*
G75*
G02*
X1491000Y-1940000I-10000J0D01*
G01*
X1491000Y-1940000D02*
G75*
G02*
X1511000Y-1940000I10000J0D01*
G01*
X1581000Y-1730000D02*
G75*
G02*
X1561000Y-1730000I-10000J0D01*
G01*
X1561000Y-1730000D02*
G75*
G02*
X1581000Y-1730000I10000J0D01*
G01*
X1581000Y-1870000D02*
G75*
G02*
X1561000Y-1870000I-10000J0D01*
G01*
X1561000Y-1870000D02*
G75*
G02*
X1581000Y-1870000I10000J0D01*
G01*
X1651000Y-1660000D02*
G75*
G02*
X1631000Y-1660000I-10000J0D01*
G01*
X1631000Y-1660000D02*
G75*
G02*
X1651000Y-1660000I10000J0D01*
G01*
X1651000Y-1800000D02*
G75*
G02*
X1631000Y-1800000I-10000J0D01*
G01*
X1631000Y-1800000D02*
G75*
G02*
X1651000Y-1800000I10000J0D01*
G01*
X1651000Y-1940000D02*
G75*
G02*
X1631000Y-1940000I-10000J0D01*
G01*
X1631000Y-1940000D02*
G75*
G02*
X1651000Y-1940000I10000J0D01*
G01*
X1721000Y-1730000D02*
G75*
G02*
X1701000Y-1730000I-10000J0D01*
G01*
X1701000Y-1730000D02*
G75*
G02*
X1721000Y-1730000I10000J0D01*
G01*
X1721000Y-1870000D02*
G75*
G02*
X1701000Y-1870000I-10000J0D01*
G01*
X1701000Y-1870000D02*
G75*
G02*
X1721000Y-1870000I10000J0D01*
G01*
X6910000Y-1000000D02*
G75*
G02*
X6890000Y-1000000I-10000J0D01*
G01*
X6890000Y-1000000D02*
G75*
G02*
X6910000Y-1000000I10000J0D01*
G01*
X6910000Y-1100000D02*
G75*
G02*
X6890000Y-1100000I-10000J0D01*
G01*
X6890000Y-1100000D02*
G75*
G02*
X6910000Y-1100000I10000J0D01*
G01*
X400000Y-4635000D02*
X400000Y-4665000D01*
X385000Y-4650000D02*
X415000Y-4650000D01*
X800000Y-235000D02*
X800000Y-265000D01*
X785000Y-250000D02*
X815000Y-250000D01*
X800000Y-1435000D02*
X800000Y-1465000D01*
X785000Y-1450000D02*
X815000Y-1450000D01*
X800000Y-1835000D02*
X800000Y-1865000D01*
X785000Y-1850000D02*
X815000Y-1850000D01*
X800000Y-2235000D02*
X800000Y-2265000D01*
X785000Y-2250000D02*
X815000Y-2250000D01*
X800000Y-3035000D02*
X800000Y-3065000D01*
X785000Y-3050000D02*
X815000Y-3050000D01*
X800000Y-3435000D02*
X800000Y-3465000D01*
X785000Y-3450000D02*
X815000Y-3450000D01*
X800000Y-3835000D02*
X800000Y-3865000D01*
X785000Y-3850000D02*
X815000Y-3850000D01*
X800000Y-4235000D02*
X800000Y-4265000D01*
X785000Y-4250000D02*
X815000Y-4250000D01*
X800000Y-4635000D02*
X800000Y-4665000D01*
X785000Y-4650000D02*
X815000Y-4650000D01*
X840000Y-2947500D02*
X840000Y-2977500D01*
X825000Y-2962500D02*
X855000Y-2962500D01*
X1147500Y-805000D02*
X1147500Y-835000D01*
X1132500Y-820000D02*
X1162500Y-820000D01*
X1155000Y-2677500D02*
X1155000Y-2707500D01*
X1140000Y-2692500D02*
X1170000Y-2692500D01*
X1200000Y-1435000D02*
X1200000Y-1465000D01*
X1185000Y-1450000D02*
X1215000Y-1450000D01*
X1200000Y-1835000D02*
X1200000Y-1865000D01*
X1185000Y-1850000D02*
X1215000Y-1850000D01*
X1200000Y-2235000D02*
X1200000Y-2265000D01*
X1185000Y-2250000D02*
X1215000Y-2250000D01*
X1200000Y-3435000D02*
X1200000Y-3465000D01*
X1185000Y-3450000D02*
X1215000Y-3450000D01*
X1200000Y-3835000D02*
X1200000Y-3865000D01*
X1185000Y-3850000D02*
X1215000Y-3850000D01*
X1200000Y-4235000D02*
X1200000Y-4265000D01*
X1185000Y-4250000D02*
X1215000Y-4250000D01*
X1200000Y-4635000D02*
X1200000Y-4665000D01*
X1185000Y-4650000D02*
X1215000Y-4650000D01*
X1350000Y-637500D02*
X1350000Y-667500D01*
X1335000Y-652500D02*
X1365000Y-652500D01*
X1405000Y-2682500D02*
X1405000Y-2712500D01*
X1390000Y-2697500D02*
X1420000Y-2697500D01*
X1537500Y-1192500D02*
X1537500Y-1222500D01*
X1522500Y-1207500D02*
X1552500Y-1207500D01*
X1585000Y-757500D02*
X1585000Y-787500D01*
X1570000Y-772500D02*
X1600000Y-772500D01*
X1600000Y-235000D02*
X1600000Y-265000D01*
X1585000Y-250000D02*
X1615000Y-250000D01*
X1600000Y-1435000D02*
X1600000Y-1465000D01*
X1585000Y-1450000D02*
X1615000Y-1450000D01*
X1600000Y-2235000D02*
X1600000Y-2265000D01*
X1585000Y-2250000D02*
X1615000Y-2250000D01*
X1600000Y-3035000D02*
X1600000Y-3065000D01*
X1585000Y-3050000D02*
X1615000Y-3050000D01*
X1600000Y-3435000D02*
X1600000Y-3465000D01*
X1585000Y-3450000D02*
X1615000Y-3450000D01*
X1600000Y-3835000D02*
X1600000Y-3865000D01*
X1585000Y-3850000D02*
X1615000Y-3850000D01*
X1600000Y-4235000D02*
X1600000Y-4265000D01*
X1585000Y-4250000D02*
X1615000Y-4250000D01*
X1600000Y-4635000D02*
X1600000Y-4665000D01*
X1585000Y-4650000D02*
X1615000Y-4650000D01*
X1665000Y-1192500D02*
X1665000Y-1222500D01*
X1650000Y-1207500D02*
X1680000Y-1207500D01*
X1722500Y-575000D02*
X1722500Y-605000D01*
X1707500Y-590000D02*
X1737500Y-590000D01*
X1777500Y-1192500D02*
X1777500Y-1222500D01*
X1762500Y-1207500D02*
X1792500Y-1207500D01*
X1897500Y-1192500D02*
X1897500Y-1222500D01*
X1882500Y-1207500D02*
X1912500Y-1207500D01*
X1997500Y-932500D02*
X1997500Y-962500D01*
X1982500Y-947500D02*
X2012500Y-947500D01*
X2000000Y-1435000D02*
X2000000Y-1465000D01*
X1985000Y-1450000D02*
X2015000Y-1450000D01*
X2000000Y-1835000D02*
X2000000Y-1865000D01*
X1985000Y-1850000D02*
X2015000Y-1850000D01*
X2000000Y-2235000D02*
X2000000Y-2265000D01*
X1985000Y-2250000D02*
X2015000Y-2250000D01*
X2000000Y-2635000D02*
X2000000Y-2665000D01*
X1985000Y-2650000D02*
X2015000Y-2650000D01*
X2000000Y-3035000D02*
X2000000Y-3065000D01*
X1985000Y-3050000D02*
X2015000Y-3050000D01*
X2000000Y-3435000D02*
X2000000Y-3465000D01*
X1985000Y-3450000D02*
X2015000Y-3450000D01*
X2000000Y-3835000D02*
X2000000Y-3865000D01*
X1985000Y-3850000D02*
X2015000Y-3850000D01*
X2000000Y-4235000D02*
X2000000Y-4265000D01*
X1985000Y-4250000D02*
X2015000Y-4250000D01*
X2000000Y-4635000D02*
X2000000Y-4665000D01*
X1985000Y-4650000D02*
X2015000Y-4650000D01*
X2010000Y-385000D02*
X2010000Y-415000D01*
X1995000Y-400000D02*
X2025000Y-400000D01*
X2057500Y-527500D02*
X2057500Y-557500D01*
X2042500Y-542500D02*
X2072500Y-542500D01*
X2102500Y-1362500D02*
X2102500Y-1392500D01*
X2087500Y-1377500D02*
X2117500Y-1377500D01*
X2107500Y-1245000D02*
X2107500Y-1275000D01*
X2092500Y-1260000D02*
X2122500Y-1260000D01*
X2107500Y-2625000D02*
X2107500Y-2655000D01*
X2092500Y-2640000D02*
X2122500Y-2640000D01*
X2140000Y-535000D02*
X2140000Y-565000D01*
X2125000Y-550000D02*
X2155000Y-550000D01*
X2182500Y-675000D02*
X2182500Y-705000D01*
X2167500Y-690000D02*
X2197500Y-690000D01*
X2225000Y-2052500D02*
X2225000Y-2082500D01*
X2210000Y-2067500D02*
X2240000Y-2067500D01*
X2280000Y-292500D02*
X2280000Y-322500D01*
X2265000Y-307500D02*
X2295000Y-307500D01*
X2357500Y-2272500D02*
X2357500Y-2302500D01*
X2342500Y-2287500D02*
X2372500Y-2287500D01*
X2375000Y-1867500D02*
X2375000Y-1897500D01*
X2360000Y-1882500D02*
X2390000Y-1882500D01*
X2375000Y-1992500D02*
X2375000Y-2022500D01*
X2360000Y-2007500D02*
X2390000Y-2007500D01*
X2392500Y-3097500D02*
X2392500Y-3127500D01*
X2377500Y-3112500D02*
X2407500Y-3112500D01*
X2400000Y-3835000D02*
X2400000Y-3865000D01*
X2385000Y-3850000D02*
X2415000Y-3850000D01*
X2400000Y-4235000D02*
X2400000Y-4265000D01*
X2385000Y-4250000D02*
X2415000Y-4250000D01*
X2400000Y-4635000D02*
X2400000Y-4665000D01*
X2385000Y-4650000D02*
X2415000Y-4650000D01*
X2407500Y-2682500D02*
X2407500Y-2712500D01*
X2392500Y-2697500D02*
X2422500Y-2697500D01*
X2420000Y-1767500D02*
X2420000Y-1797500D01*
X2405000Y-1782500D02*
X2435000Y-1782500D01*
X2432500Y-2402500D02*
X2432500Y-2432500D01*
X2417500Y-2417500D02*
X2447500Y-2417500D01*
X2437500Y-2145000D02*
X2437500Y-2175000D01*
X2422500Y-2160000D02*
X2452500Y-2160000D01*
X2447500Y-1317500D02*
X2447500Y-1347500D01*
X2432500Y-1332500D02*
X2462500Y-1332500D01*
X2602500Y-540000D02*
X2602500Y-570000D01*
X2587500Y-555000D02*
X2617500Y-555000D01*
X2625000Y-675000D02*
X2625000Y-705000D01*
X2610000Y-690000D02*
X2640000Y-690000D01*
X2700000Y-2445000D02*
X2700000Y-2475000D01*
X2685000Y-2460000D02*
X2715000Y-2460000D01*
X2702500Y-1922500D02*
X2702500Y-1952500D01*
X2687500Y-1937500D02*
X2717500Y-1937500D01*
X2710000Y-1257500D02*
X2710000Y-1287500D01*
X2695000Y-1272500D02*
X2725000Y-1272500D01*
X2712500Y-1535000D02*
X2712500Y-1565000D01*
X2697500Y-1550000D02*
X2727500Y-1550000D01*
X2720000Y-2052500D02*
X2720000Y-2082500D01*
X2705000Y-2067500D02*
X2735000Y-2067500D01*
X2730000Y-1627500D02*
X2730000Y-1657500D01*
X2715000Y-1642500D02*
X2745000Y-1642500D01*
X2735000Y-2570000D02*
X2735000Y-2600000D01*
X2720000Y-2585000D02*
X2750000Y-2585000D01*
X2760000Y-2295000D02*
X2760000Y-2325000D01*
X2745000Y-2310000D02*
X2775000Y-2310000D01*
X2800000Y-235000D02*
X2800000Y-265000D01*
X2785000Y-250000D02*
X2815000Y-250000D01*
X2800000Y-2635000D02*
X2800000Y-2665000D01*
X2785000Y-2650000D02*
X2815000Y-2650000D01*
X2800000Y-3435000D02*
X2800000Y-3465000D01*
X2785000Y-3450000D02*
X2815000Y-3450000D01*
X2800000Y-3835000D02*
X2800000Y-3865000D01*
X2785000Y-3850000D02*
X2815000Y-3850000D01*
X2800000Y-4235000D02*
X2800000Y-4265000D01*
X2785000Y-4250000D02*
X2815000Y-4250000D01*
X2800000Y-4635000D02*
X2800000Y-4665000D01*
X2785000Y-4650000D02*
X2815000Y-4650000D01*
X2820000Y-1642500D02*
X2820000Y-1672500D01*
X2805000Y-1657500D02*
X2835000Y-1657500D01*
X2825000Y-2480000D02*
X2825000Y-2510000D01*
X2810000Y-2495000D02*
X2840000Y-2495000D01*
X2827500Y-2047500D02*
X2827500Y-2077500D01*
X2812500Y-2062500D02*
X2842500Y-2062500D01*
X2857500Y-3562500D02*
X2857500Y-3592500D01*
X2842500Y-3577500D02*
X2872500Y-3577500D01*
X2875000Y-1915000D02*
X2875000Y-1945000D01*
X2860000Y-1930000D02*
X2890000Y-1930000D01*
X2877500Y-2177500D02*
X2877500Y-2207500D01*
X2862500Y-2192500D02*
X2892500Y-2192500D01*
X2882500Y-1705000D02*
X2882500Y-1735000D01*
X2867500Y-1720000D02*
X2897500Y-1720000D01*
X2882500Y-1832500D02*
X2882500Y-1862500D01*
X2867500Y-1847500D02*
X2897500Y-1847500D01*
X2895000Y-477500D02*
X2895000Y-507500D01*
X2880000Y-492500D02*
X2910000Y-492500D01*
X2900000Y-1310000D02*
X2900000Y-1340000D01*
X2885000Y-1325000D02*
X2915000Y-1325000D01*
X2912500Y-2052500D02*
X2912500Y-2082500D01*
X2897500Y-2067500D02*
X2927500Y-2067500D01*
X2962500Y-3022500D02*
X2962500Y-3052500D01*
X2947500Y-3037500D02*
X2977500Y-3037500D01*
X2997500Y-1857500D02*
X2997500Y-1887500D01*
X2982500Y-1872500D02*
X3012500Y-1872500D01*
X3037500Y-2177500D02*
X3037500Y-2207500D01*
X3022500Y-2192500D02*
X3052500Y-2192500D01*
X3037500Y-3630000D02*
X3037500Y-3660000D01*
X3022500Y-3645000D02*
X3052500Y-3645000D01*
X3045000Y-2260000D02*
X3045000Y-2290000D01*
X3030000Y-2275000D02*
X3060000Y-2275000D01*
X3082500Y-1630000D02*
X3082500Y-1660000D01*
X3067500Y-1645000D02*
X3097500Y-1645000D01*
X3087500Y-1962500D02*
X3087500Y-1992500D01*
X3072500Y-1977500D02*
X3102500Y-1977500D01*
X3087500Y-2052500D02*
X3087500Y-2082500D01*
X3072500Y-2067500D02*
X3102500Y-2067500D01*
X3135000Y-3442500D02*
X3135000Y-3472500D01*
X3120000Y-3457500D02*
X3150000Y-3457500D01*
X3157500Y-3562500D02*
X3157500Y-3592500D01*
X3142500Y-3577500D02*
X3172500Y-3577500D01*
X3160000Y-2007500D02*
X3160000Y-2037500D01*
X3145000Y-2022500D02*
X3175000Y-2022500D01*
X3160000Y-2935000D02*
X3160000Y-2965000D01*
X3145000Y-2950000D02*
X3175000Y-2950000D01*
X3165000Y-3870000D02*
X3165000Y-3900000D01*
X3150000Y-3885000D02*
X3180000Y-3885000D01*
X3200000Y-235000D02*
X3200000Y-265000D01*
X3185000Y-250000D02*
X3215000Y-250000D01*
X3200000Y-1035000D02*
X3200000Y-1065000D01*
X3185000Y-1050000D02*
X3215000Y-1050000D01*
X3200000Y-1435000D02*
X3200000Y-1465000D01*
X3185000Y-1450000D02*
X3215000Y-1450000D01*
X3200000Y-4235000D02*
X3200000Y-4265000D01*
X3185000Y-4250000D02*
X3215000Y-4250000D01*
X3200000Y-4635000D02*
X3200000Y-4665000D01*
X3185000Y-4650000D02*
X3215000Y-4650000D01*
X3212500Y-2177500D02*
X3212500Y-2207500D01*
X3197500Y-2192500D02*
X3227500Y-2192500D01*
X3230000Y-2052500D02*
X3230000Y-2082500D01*
X3215000Y-2067500D02*
X3245000Y-2067500D01*
X3275000Y-2240000D02*
X3275000Y-2270000D01*
X3260000Y-2255000D02*
X3290000Y-2255000D01*
X3312500Y-1752500D02*
X3312500Y-1782500D01*
X3297500Y-1767500D02*
X3327500Y-1767500D01*
X3360000Y-3435000D02*
X3360000Y-3465000D01*
X3345000Y-3450000D02*
X3375000Y-3450000D01*
X3375000Y-1815000D02*
X3375000Y-1845000D01*
X3360000Y-1830000D02*
X3390000Y-1830000D01*
X3460000Y-1820000D02*
X3460000Y-1850000D01*
X3445000Y-1835000D02*
X3475000Y-1835000D01*
X3467500Y-1905000D02*
X3467500Y-1935000D01*
X3452500Y-1920000D02*
X3482500Y-1920000D01*
X3470000Y-1052500D02*
X3470000Y-1082500D01*
X3455000Y-1067500D02*
X3485000Y-1067500D01*
X3520000Y-1457500D02*
X3520000Y-1487500D01*
X3505000Y-1472500D02*
X3535000Y-1472500D01*
X3530000Y-1970000D02*
X3530000Y-2000000D01*
X3515000Y-1985000D02*
X3545000Y-1985000D01*
X3560000Y-1217500D02*
X3560000Y-1247500D01*
X3545000Y-1232500D02*
X3575000Y-1232500D01*
X3600000Y-235000D02*
X3600000Y-265000D01*
X3585000Y-250000D02*
X3615000Y-250000D01*
X3600000Y-1035000D02*
X3600000Y-1065000D01*
X3585000Y-1050000D02*
X3615000Y-1050000D01*
X3600000Y-1435000D02*
X3600000Y-1465000D01*
X3585000Y-1450000D02*
X3615000Y-1450000D01*
X3600000Y-1835000D02*
X3600000Y-1865000D01*
X3585000Y-1850000D02*
X3615000Y-1850000D01*
X3600000Y-3035000D02*
X3600000Y-3065000D01*
X3585000Y-3050000D02*
X3615000Y-3050000D01*
X3600000Y-4635000D02*
X3600000Y-4665000D01*
X3585000Y-4650000D02*
X3615000Y-4650000D01*
X3620000Y-2935000D02*
X3620000Y-2965000D01*
X3605000Y-2950000D02*
X3635000Y-2950000D01*
X3660000Y-2160000D02*
X3660000Y-2190000D01*
X3645000Y-2175000D02*
X3675000Y-2175000D01*
X3685000Y-1240000D02*
X3685000Y-1270000D01*
X3670000Y-1255000D02*
X3700000Y-1255000D01*
X3687500Y-3387500D02*
X3687500Y-3417500D01*
X3672500Y-3402500D02*
X3702500Y-3402500D01*
X3695000Y-2235000D02*
X3695000Y-2265000D01*
X3680000Y-2250000D02*
X3710000Y-2250000D01*
X3750000Y-2297500D02*
X3750000Y-2327500D01*
X3735000Y-2312500D02*
X3765000Y-2312500D01*
X3750000Y-3517500D02*
X3750000Y-3547500D01*
X3735000Y-3532500D02*
X3765000Y-3532500D01*
X3755000Y-3625000D02*
X3755000Y-3655000D01*
X3740000Y-3640000D02*
X3770000Y-3640000D01*
X3795000Y-3300000D02*
X3795000Y-3330000D01*
X3780000Y-3315000D02*
X3810000Y-3315000D01*
X3820000Y-1955000D02*
X3820000Y-1985000D01*
X3805000Y-1970000D02*
X3835000Y-1970000D01*
X3875000Y-2290000D02*
X3875000Y-2320000D01*
X3860000Y-2305000D02*
X3890000Y-2305000D01*
X3887500Y-1635000D02*
X3887500Y-1665000D01*
X3872500Y-1650000D02*
X3902500Y-1650000D01*
X3997500Y-2717500D02*
X3997500Y-2747500D01*
X3982500Y-2732500D02*
X4012500Y-2732500D01*
X4000000Y-235000D02*
X4000000Y-265000D01*
X3985000Y-250000D02*
X4015000Y-250000D01*
X4000000Y-1035000D02*
X4000000Y-1065000D01*
X3985000Y-1050000D02*
X4015000Y-1050000D01*
X4000000Y-1435000D02*
X4000000Y-1465000D01*
X3985000Y-1450000D02*
X4015000Y-1450000D01*
X4000000Y-1835000D02*
X4000000Y-1865000D01*
X3985000Y-1850000D02*
X4015000Y-1850000D01*
X4000000Y-2235000D02*
X4000000Y-2265000D01*
X3985000Y-2250000D02*
X4015000Y-2250000D01*
X4000000Y-2635000D02*
X4000000Y-2665000D01*
X3985000Y-2650000D02*
X4015000Y-2650000D01*
X4000000Y-4635000D02*
X4000000Y-4665000D01*
X3985000Y-4650000D02*
X4015000Y-4650000D01*
X4030000Y-3010000D02*
X4030000Y-3040000D01*
X4015000Y-3025000D02*
X4045000Y-3025000D01*
X4042500Y-3517500D02*
X4042500Y-3547500D01*
X4027500Y-3532500D02*
X4057500Y-3532500D01*
X4045000Y-3625000D02*
X4045000Y-3655000D01*
X4030000Y-3640000D02*
X4060000Y-3640000D01*
X4057500Y-3300000D02*
X4057500Y-3330000D01*
X4042500Y-3315000D02*
X4072500Y-3315000D01*
X4072500Y-4112500D02*
X4072500Y-4142500D01*
X4057500Y-4127500D02*
X4087500Y-4127500D01*
X4135000Y-2935000D02*
X4135000Y-2965000D01*
X4120000Y-2950000D02*
X4150000Y-2950000D01*
X4230000Y-3120000D02*
X4230000Y-3150000D01*
X4215000Y-3135000D02*
X4245000Y-3135000D01*
X4257500Y-3197500D02*
X4257500Y-3227500D01*
X4242500Y-3212500D02*
X4272500Y-3212500D01*
X4260000Y-3540000D02*
X4260000Y-3570000D01*
X4245000Y-3555000D02*
X4275000Y-3555000D01*
X4295000Y-3772500D02*
X4295000Y-3802500D01*
X4280000Y-3787500D02*
X4310000Y-3787500D01*
X4310000Y-2935000D02*
X4310000Y-2965000D01*
X4295000Y-2950000D02*
X4325000Y-2950000D01*
X4315000Y-3602500D02*
X4315000Y-3632500D01*
X4300000Y-3617500D02*
X4330000Y-3617500D01*
X4355000Y-4020000D02*
X4355000Y-4050000D01*
X4340000Y-4035000D02*
X4370000Y-4035000D01*
X4377500Y-3457500D02*
X4377500Y-3487500D01*
X4362500Y-3472500D02*
X4392500Y-3472500D01*
X4380000Y-4560000D02*
X4380000Y-4590000D01*
X4365000Y-4575000D02*
X4395000Y-4575000D01*
X4400000Y-235000D02*
X4400000Y-265000D01*
X4385000Y-250000D02*
X4415000Y-250000D01*
X4400000Y-1435000D02*
X4400000Y-1465000D01*
X4385000Y-1450000D02*
X4415000Y-1450000D01*
X4400000Y-1835000D02*
X4400000Y-1865000D01*
X4385000Y-1850000D02*
X4415000Y-1850000D01*
X4400000Y-2235000D02*
X4400000Y-2265000D01*
X4385000Y-2250000D02*
X4415000Y-2250000D01*
X4400000Y-2635000D02*
X4400000Y-2665000D01*
X4385000Y-2650000D02*
X4415000Y-2650000D01*
X4415000Y-2935000D02*
X4415000Y-2965000D01*
X4400000Y-2950000D02*
X4430000Y-2950000D01*
X4470000Y-3180000D02*
X4470000Y-3210000D01*
X4455000Y-3195000D02*
X4485000Y-3195000D01*
X4470000Y-4560000D02*
X4470000Y-4590000D01*
X4455000Y-4575000D02*
X4485000Y-4575000D01*
X4477500Y-2990000D02*
X4477500Y-3020000D01*
X4462500Y-3005000D02*
X4492500Y-3005000D01*
X4502500Y-3547500D02*
X4502500Y-3577500D01*
X4487500Y-3562500D02*
X4517500Y-3562500D01*
X4552500Y-3177500D02*
X4552500Y-3207500D01*
X4537500Y-3192500D02*
X4567500Y-3192500D01*
X4670000Y-3260000D02*
X4670000Y-3290000D01*
X4655000Y-3275000D02*
X4685000Y-3275000D01*
X4680000Y-4500000D02*
X4680000Y-4530000D01*
X4665000Y-4515000D02*
X4695000Y-4515000D01*
X4700000Y-3642500D02*
X4700000Y-3672500D01*
X4685000Y-3657500D02*
X4715000Y-3657500D01*
X4725000Y-3120000D02*
X4725000Y-3150000D01*
X4710000Y-3135000D02*
X4740000Y-3135000D01*
X4747500Y-2185000D02*
X4747500Y-2215000D01*
X4732500Y-2200000D02*
X4762500Y-2200000D01*
X4775000Y-4677500D02*
X4775000Y-4707500D01*
X4760000Y-4692500D02*
X4790000Y-4692500D01*
X4800000Y-235000D02*
X4800000Y-265000D01*
X4785000Y-250000D02*
X4815000Y-250000D01*
X4800000Y-1035000D02*
X4800000Y-1065000D01*
X4785000Y-1050000D02*
X4815000Y-1050000D01*
X4800000Y-1435000D02*
X4800000Y-1465000D01*
X4785000Y-1450000D02*
X4815000Y-1450000D01*
X4800000Y-1835000D02*
X4800000Y-1865000D01*
X4785000Y-1850000D02*
X4815000Y-1850000D01*
X4800000Y-2697500D02*
X4800000Y-2727500D01*
X4785000Y-2712500D02*
X4815000Y-2712500D01*
X4800000Y-3435000D02*
X4800000Y-3465000D01*
X4785000Y-3450000D02*
X4815000Y-3450000D01*
X4817500Y-3642500D02*
X4817500Y-3672500D01*
X4802500Y-3657500D02*
X4832500Y-3657500D01*
X4820000Y-3785000D02*
X4820000Y-3815000D01*
X4805000Y-3800000D02*
X4835000Y-3800000D01*
X4830000Y-2177500D02*
X4830000Y-2207500D01*
X4815000Y-2192500D02*
X4845000Y-2192500D01*
X4837500Y-4077500D02*
X4837500Y-4107500D01*
X4822500Y-4092500D02*
X4852500Y-4092500D01*
X4840000Y-2770000D02*
X4840000Y-2800000D01*
X4825000Y-2785000D02*
X4855000Y-2785000D01*
X4912500Y-2810000D02*
X4912500Y-2840000D01*
X4897500Y-2825000D02*
X4927500Y-2825000D01*
X4942500Y-3515000D02*
X4942500Y-3545000D01*
X4927500Y-3530000D02*
X4957500Y-3530000D01*
X4950000Y-3065000D02*
X4950000Y-3095000D01*
X4935000Y-3080000D02*
X4965000Y-3080000D01*
X5000000Y-1970000D02*
X5000000Y-2000000D01*
X4985000Y-1985000D02*
X5015000Y-1985000D01*
X5050000Y-2587500D02*
X5050000Y-2617500D01*
X5035000Y-2602500D02*
X5065000Y-2602500D01*
X5060000Y-3180000D02*
X5060000Y-3210000D01*
X5045000Y-3195000D02*
X5075000Y-3195000D01*
X5072500Y-3645000D02*
X5072500Y-3675000D01*
X5057500Y-3660000D02*
X5087500Y-3660000D01*
X5075000Y-2985000D02*
X5075000Y-3015000D01*
X5060000Y-3000000D02*
X5090000Y-3000000D01*
X5090000Y-2335000D02*
X5090000Y-2365000D01*
X5075000Y-2350000D02*
X5105000Y-2350000D01*
X5110000Y-3435000D02*
X5110000Y-3465000D01*
X5095000Y-3450000D02*
X5125000Y-3450000D01*
X5152500Y-2957500D02*
X5152500Y-2987500D01*
X5137500Y-2972500D02*
X5167500Y-2972500D01*
X5167500Y-4357500D02*
X5167500Y-4387500D01*
X5152500Y-4372500D02*
X5182500Y-4372500D01*
X5170000Y-3600000D02*
X5170000Y-3630000D01*
X5155000Y-3615000D02*
X5185000Y-3615000D01*
X5180000Y-2717500D02*
X5180000Y-2747500D01*
X5165000Y-2732500D02*
X5195000Y-2732500D01*
X5200000Y-235000D02*
X5200000Y-265000D01*
X5185000Y-250000D02*
X5215000Y-250000D01*
X5200000Y-1435000D02*
X5200000Y-1465000D01*
X5185000Y-1450000D02*
X5215000Y-1450000D01*
X5200000Y-1835000D02*
X5200000Y-1865000D01*
X5185000Y-1850000D02*
X5215000Y-1850000D01*
X5200000Y-3035000D02*
X5200000Y-3065000D01*
X5185000Y-3050000D02*
X5215000Y-3050000D01*
X5200000Y-3435000D02*
X5200000Y-3465000D01*
X5185000Y-3450000D02*
X5215000Y-3450000D01*
X5200000Y-3835000D02*
X5200000Y-3865000D01*
X5185000Y-3850000D02*
X5215000Y-3850000D01*
X5240000Y-2657500D02*
X5240000Y-2687500D01*
X5225000Y-2672500D02*
X5255000Y-2672500D01*
X5240000Y-3107500D02*
X5240000Y-3137500D01*
X5225000Y-3122500D02*
X5255000Y-3122500D01*
X5267500Y-3787500D02*
X5267500Y-3817500D01*
X5252500Y-3802500D02*
X5282500Y-3802500D01*
X5270000Y-2807500D02*
X5270000Y-2837500D01*
X5255000Y-2822500D02*
X5285000Y-2822500D01*
X5342500Y-3847500D02*
X5342500Y-3877500D01*
X5327500Y-3862500D02*
X5357500Y-3862500D01*
X5382500Y-3237500D02*
X5382500Y-3267500D01*
X5367500Y-3252500D02*
X5397500Y-3252500D01*
X5420000Y-2302500D02*
X5420000Y-2332500D01*
X5405000Y-2317500D02*
X5435000Y-2317500D01*
X5437500Y-2975000D02*
X5437500Y-3005000D01*
X5422500Y-2990000D02*
X5452500Y-2990000D01*
X5475000Y-2420000D02*
X5475000Y-2450000D01*
X5460000Y-2435000D02*
X5490000Y-2435000D01*
X5502500Y-3830000D02*
X5502500Y-3860000D01*
X5487500Y-3845000D02*
X5517500Y-3845000D01*
X5510000Y-3600000D02*
X5510000Y-3630000D01*
X5495000Y-3615000D02*
X5525000Y-3615000D01*
X5520000Y-2977500D02*
X5520000Y-3007500D01*
X5505000Y-2992500D02*
X5535000Y-2992500D01*
X5535000Y-3397500D02*
X5535000Y-3427500D01*
X5520000Y-3412500D02*
X5550000Y-3412500D01*
X5537500Y-2510000D02*
X5537500Y-2540000D01*
X5522500Y-2525000D02*
X5552500Y-2525000D01*
X5585000Y-3195000D02*
X5585000Y-3225000D01*
X5570000Y-3210000D02*
X5600000Y-3210000D01*
X5600000Y-235000D02*
X5600000Y-265000D01*
X5585000Y-250000D02*
X5615000Y-250000D01*
X5600000Y-1435000D02*
X5600000Y-1465000D01*
X5585000Y-1450000D02*
X5615000Y-1450000D01*
X5600000Y-1835000D02*
X5600000Y-1865000D01*
X5585000Y-1850000D02*
X5615000Y-1850000D01*
X5627500Y-2420000D02*
X5627500Y-2450000D01*
X5612500Y-2435000D02*
X5642500Y-2435000D01*
X5627500Y-3390000D02*
X5627500Y-3420000D01*
X5612500Y-3405000D02*
X5642500Y-3405000D01*
X5630000Y-3852500D02*
X5630000Y-3882500D01*
X5615000Y-3867500D02*
X5645000Y-3867500D01*
X5650000Y-2060000D02*
X5650000Y-2090000D01*
X5635000Y-2075000D02*
X5665000Y-2075000D01*
X5667500Y-3187500D02*
X5667500Y-3217500D01*
X5652500Y-3202500D02*
X5682500Y-3202500D01*
X5685000Y-3747500D02*
X5685000Y-3777500D01*
X5670000Y-3762500D02*
X5700000Y-3762500D01*
X5710000Y-3395000D02*
X5710000Y-3425000D01*
X5695000Y-3410000D02*
X5725000Y-3410000D01*
X5720000Y-2955000D02*
X5720000Y-2985000D01*
X5705000Y-2970000D02*
X5735000Y-2970000D01*
X5740000Y-3657500D02*
X5740000Y-3687500D01*
X5725000Y-3672500D02*
X5755000Y-3672500D01*
X5782500Y-3435000D02*
X5782500Y-3465000D01*
X5767500Y-3450000D02*
X5797500Y-3450000D01*
X5802500Y-4590000D02*
X5802500Y-4620000D01*
X5787500Y-4605000D02*
X5817500Y-4605000D01*
X5842500Y-2167500D02*
X5842500Y-2197500D01*
X5827500Y-2182500D02*
X5857500Y-2182500D01*
X5845000Y-2257500D02*
X5845000Y-2287500D01*
X5830000Y-2272500D02*
X5860000Y-2272500D01*
X5847500Y-3945000D02*
X5847500Y-3975000D01*
X5832500Y-3960000D02*
X5862500Y-3960000D01*
X5860000Y-3820000D02*
X5860000Y-3850000D01*
X5845000Y-3835000D02*
X5875000Y-3835000D01*
X6000000Y-235000D02*
X6000000Y-265000D01*
X5985000Y-250000D02*
X6015000Y-250000D01*
X6000000Y-1035000D02*
X6000000Y-1065000D01*
X5985000Y-1050000D02*
X6015000Y-1050000D01*
X6000000Y-1835000D02*
X6000000Y-1865000D01*
X5985000Y-1850000D02*
X6015000Y-1850000D01*
X6000000Y-2235000D02*
X6000000Y-2265000D01*
X5985000Y-2250000D02*
X6015000Y-2250000D01*
X6012500Y-3625000D02*
X6012500Y-3655000D01*
X5997500Y-3640000D02*
X6027500Y-3640000D01*
X6025000Y-3517500D02*
X6025000Y-3547500D01*
X6010000Y-3532500D02*
X6040000Y-3532500D01*
X6037500Y-2965000D02*
X6037500Y-2995000D01*
X6022500Y-2980000D02*
X6052500Y-2980000D01*
X6065000Y-3412500D02*
X6065000Y-3442500D01*
X6050000Y-3427500D02*
X6080000Y-3427500D01*
X6170000Y-2280000D02*
X6170000Y-2310000D01*
X6155000Y-2295000D02*
X6185000Y-2295000D01*
X6175000Y-2845000D02*
X6175000Y-2875000D01*
X6160000Y-2860000D02*
X6190000Y-2860000D01*
X6192500Y-2670000D02*
X6192500Y-2700000D01*
X6177500Y-2685000D02*
X6207500Y-2685000D01*
X6260000Y-2370000D02*
X6260000Y-2400000D01*
X6245000Y-2385000D02*
X6275000Y-2385000D01*
X6270000Y-2715000D02*
X6270000Y-2745000D01*
X6255000Y-2730000D02*
X6285000Y-2730000D01*
X6300000Y-1270000D02*
X6300000Y-1300000D01*
X6285000Y-1285000D02*
X6315000Y-1285000D01*
X6312500Y-2460000D02*
X6312500Y-2490000D01*
X6297500Y-2475000D02*
X6327500Y-2475000D01*
X6335000Y-1025000D02*
X6335000Y-1055000D01*
X6320000Y-1040000D02*
X6350000Y-1040000D01*
X6342500Y-1150000D02*
X6342500Y-1180000D01*
X6327500Y-1165000D02*
X6357500Y-1165000D01*
X6400000Y-235000D02*
X6400000Y-265000D01*
X6385000Y-250000D02*
X6415000Y-250000D01*
X6400000Y-1435000D02*
X6400000Y-1465000D01*
X6385000Y-1450000D02*
X6415000Y-1450000D01*
X6400000Y-1835000D02*
X6400000Y-1865000D01*
X6385000Y-1850000D02*
X6415000Y-1850000D01*
X6400000Y-2235000D02*
X6400000Y-2265000D01*
X6385000Y-2250000D02*
X6415000Y-2250000D01*
X6400000Y-3017500D02*
X6400000Y-3047500D01*
X6385000Y-3032500D02*
X6415000Y-3032500D01*
X6400000Y-3210000D02*
X6400000Y-3240000D01*
X6385000Y-3225000D02*
X6415000Y-3225000D01*
X6422500Y-1755000D02*
X6422500Y-1785000D01*
X6407500Y-1770000D02*
X6437500Y-1770000D01*
X6435000Y-3285000D02*
X6435000Y-3315000D01*
X6420000Y-3300000D02*
X6450000Y-3300000D01*
X6440000Y-4002500D02*
X6440000Y-4032500D01*
X6425000Y-4017500D02*
X6455000Y-4017500D01*
X6465000Y-3792500D02*
X6465000Y-3822500D01*
X6450000Y-3807500D02*
X6480000Y-3807500D01*
X6497500Y-2365000D02*
X6497500Y-2395000D01*
X6482500Y-2380000D02*
X6512500Y-2380000D01*
X6502500Y-912500D02*
X6502500Y-942500D01*
X6487500Y-927500D02*
X6517500Y-927500D01*
X6505000Y-2282500D02*
X6505000Y-2312500D01*
X6490000Y-2297500D02*
X6520000Y-2297500D01*
X6562500Y-2870000D02*
X6562500Y-2900000D01*
X6547500Y-2885000D02*
X6577500Y-2885000D01*
X6622500Y-2360000D02*
X6622500Y-2390000D01*
X6607500Y-2375000D02*
X6637500Y-2375000D01*
X6682500Y-3022500D02*
X6682500Y-3052500D01*
X6667500Y-3037500D02*
X6697500Y-3037500D01*
X6727500Y-540000D02*
X6727500Y-570000D01*
X6712500Y-555000D02*
X6742500Y-555000D01*
X6750000Y-1327500D02*
X6750000Y-1357500D01*
X6735000Y-1342500D02*
X6765000Y-1342500D01*
X6752500Y-2935000D02*
X6752500Y-2965000D01*
X6737500Y-2950000D02*
X6767500Y-2950000D01*
X6757500Y-2852500D02*
X6757500Y-2882500D01*
X6742500Y-2867500D02*
X6772500Y-2867500D01*
X6775000Y-1950000D02*
X6775000Y-1980000D01*
X6760000Y-1965000D02*
X6790000Y-1965000D01*
X6787500Y-1245000D02*
X6787500Y-1275000D01*
X6772500Y-1260000D02*
X6802500Y-1260000D01*
X6800000Y-3035000D02*
X6800000Y-3065000D01*
X6785000Y-3050000D02*
X6815000Y-3050000D01*
X6800000Y-3435000D02*
X6800000Y-3465000D01*
X6785000Y-3450000D02*
X6815000Y-3450000D01*
X6800000Y-3835000D02*
X6800000Y-3865000D01*
X6785000Y-3850000D02*
X6815000Y-3850000D01*
X6800000Y-4235000D02*
X6800000Y-4265000D01*
X6785000Y-4250000D02*
X6815000Y-4250000D01*
X6847500Y-2332500D02*
X6847500Y-2362500D01*
X6832500Y-2347500D02*
X6862500Y-2347500D01*
X6850000Y-720000D02*
X6850000Y-750000D01*
X6835000Y-735000D02*
X6865000Y-735000D01*
X6870000Y-2977500D02*
X6870000Y-3007500D01*
X6855000Y-2992500D02*
X6885000Y-2992500D01*
X6900000Y-1410000D02*
X6900000Y-1440000D01*
X6885000Y-1425000D02*
X6915000Y-1425000D01*
X6900000Y-1897500D02*
X6900000Y-1927500D01*
X6885000Y-1912500D02*
X6915000Y-1912500D01*
X6907500Y-2797500D02*
X6907500Y-2827500D01*
X6892500Y-2812500D02*
X6922500Y-2812500D01*
X6965000Y-3070000D02*
X6965000Y-3100000D01*
X6950000Y-3085000D02*
X6980000Y-3085000D01*
X6975000Y-892500D02*
X6975000Y-922500D01*
X6960000Y-907500D02*
X6990000Y-907500D01*
X7012500Y-2842500D02*
X7012500Y-2872500D01*
X6997500Y-2857500D02*
X7027500Y-2857500D01*
X7042500Y-2317500D02*
X7042500Y-2347500D01*
X7027500Y-2332500D02*
X7057500Y-2332500D01*
X7070000Y-1907500D02*
X7070000Y-1937500D01*
X7055000Y-1922500D02*
X7085000Y-1922500D01*
X7200000Y-235000D02*
X7200000Y-265000D01*
X7185000Y-250000D02*
X7215000Y-250000D01*
X7200000Y-635000D02*
X7200000Y-665000D01*
X7185000Y-650000D02*
X7215000Y-650000D01*
X7200000Y-3035000D02*
X7200000Y-3065000D01*
X7185000Y-3050000D02*
X7215000Y-3050000D01*
X7200000Y-4235000D02*
X7200000Y-4265000D01*
X7185000Y-4250000D02*
X7215000Y-4250000D01*
X7200000Y-4635000D02*
X7200000Y-4665000D01*
X7185000Y-4650000D02*
X7215000Y-4650000D01*
X7230000Y-2662500D02*
X7230000Y-2692500D01*
X7215000Y-2677500D02*
X7245000Y-2677500D01*
X7270000Y-1472500D02*
X7270000Y-1502500D01*
X7255000Y-1487500D02*
X7285000Y-1487500D01*
X7342500Y-3322500D02*
X7342500Y-3352500D01*
X7327500Y-3337500D02*
X7357500Y-3337500D01*
X7432500Y-1102500D02*
X7432500Y-1132500D01*
X7417500Y-1117500D02*
X7447500Y-1117500D01*
X7600000Y-635000D02*
X7600000Y-665000D01*
X7585000Y-650000D02*
X7615000Y-650000D01*
X7600000Y-1035000D02*
X7600000Y-1065000D01*
X7585000Y-1050000D02*
X7615000Y-1050000D01*
X7600000Y-1435000D02*
X7600000Y-1465000D01*
X7585000Y-1450000D02*
X7615000Y-1450000D01*
X7600000Y-2635000D02*
X7600000Y-2665000D01*
X7585000Y-2650000D02*
X7615000Y-2650000D01*
X7600000Y-3835000D02*
X7600000Y-3865000D01*
X7585000Y-3850000D02*
X7615000Y-3850000D01*
X7600000Y-4235000D02*
X7600000Y-4265000D01*
X7585000Y-4250000D02*
X7615000Y-4250000D01*
X7650000Y-3630000D02*
X7650000Y-3660000D01*
X7635000Y-3645000D02*
X7665000Y-3645000D01*
X7730050Y-3215050D02*
X7730050Y-3245050D01*
X7715050Y-3230050D02*
X7745050Y-3230050D01*
X3489213Y-4368213D02*
X3489213Y-4325787D01*
X3446787Y-4325787D01*
X3446787Y-4368213D01*
X3489213Y-4368213D01*
X3498000Y-4402000D02*
X3498000Y-4292000D01*
X3438000Y-4292000D02*
G75*
G02*
X3498000Y-4292000I30000J0D01*
G01*
X3438000Y-4292000D02*
X3438000Y-4402000D01*
X3438000Y-4402000D02*
G75*
G03*
X3498000Y-4402000I30000J0D01*
G01*
X3489213Y-4786213D02*
X3489213Y-4743787D01*
X3446787Y-4743787D01*
X3446787Y-4786213D01*
X3489213Y-4786213D01*
X3498000Y-4795000D02*
X3498000Y-4735000D01*
X3438000Y-4735000D02*
G75*
G02*
X3498000Y-4735000I30000J0D01*
G01*
X3438000Y-4735000D02*
X3438000Y-4795000D01*
X3438000Y-4795000D02*
G75*
G03*
X3498000Y-4795000I30000J0D01*
G01*
X4353213Y-4368213D02*
X4353213Y-4325787D01*
X4310787Y-4325787D01*
X4310787Y-4368213D01*
X4353213Y-4368213D01*
X4362000Y-4402000D02*
X4362000Y-4292000D01*
X4302000Y-4292000D02*
G75*
G02*
X4362000Y-4292000I30000J0D01*
G01*
X4302000Y-4292000D02*
X4302000Y-4402000D01*
X4302000Y-4402000D02*
G75*
G03*
X4362000Y-4402000I30000J0D01*
G01*
X4353213Y-4786213D02*
X4353213Y-4743787D01*
X4310787Y-4743787D01*
X4310787Y-4786213D01*
X4353213Y-4786213D01*
X4362000Y-4795000D02*
X4362000Y-4735000D01*
X4302000Y-4735000D02*
G75*
G02*
X4362000Y-4735000I30000J0D01*
G01*
X4302000Y-4735000D02*
X4302000Y-4795000D01*
X4302000Y-4795000D02*
G75*
G03*
X4362000Y-4795000I30000J0D01*
G01*
D11*
X253277Y-5218984D02*
X253277Y-5018984D01*
X253277Y-5018984D02*
X300896Y-5018984D01*
X300896Y-5018984D02*
X329467Y-5028508D01*
X329467Y-5028508D02*
X348515Y-5047555D01*
X348515Y-5047555D02*
X358039Y-5066603D01*
X358039Y-5066603D02*
X367562Y-5104698D01*
X367562Y-5104698D02*
X367562Y-5133270D01*
X367562Y-5133270D02*
X358039Y-5171365D01*
X358039Y-5171365D02*
X348515Y-5190412D01*
X348515Y-5190412D02*
X329467Y-5209460D01*
X329467Y-5209460D02*
X300896Y-5218984D01*
X300896Y-5218984D02*
X253277Y-5218984D01*
X453277Y-5218984D02*
X453277Y-5085650D01*
X453277Y-5123746D02*
X462801Y-5104698D01*
X462801Y-5104698D02*
X472324Y-5095174D01*
X472324Y-5095174D02*
X491372Y-5085650D01*
X491372Y-5085650D02*
X510420Y-5085650D01*
X577086Y-5218984D02*
X577086Y-5085650D01*
X577086Y-5018984D02*
X567563Y-5028508D01*
X567563Y-5028508D02*
X577086Y-5038031D01*
X577086Y-5038031D02*
X586610Y-5028508D01*
X586610Y-5028508D02*
X577086Y-5018984D01*
X577086Y-5018984D02*
X577086Y-5038031D01*
X700896Y-5218984D02*
X681848Y-5209460D01*
X681848Y-5209460D02*
X672324Y-5190412D01*
X672324Y-5190412D02*
X672324Y-5018984D01*
X805658Y-5218984D02*
X786610Y-5209460D01*
X786610Y-5209460D02*
X777086Y-5190412D01*
X777086Y-5190412D02*
X777086Y-5018984D01*
X1034229Y-5218984D02*
X1034229Y-5018984D01*
X1034229Y-5018984D02*
X1100896Y-5161841D01*
X1100896Y-5161841D02*
X1167563Y-5018984D01*
X1167563Y-5018984D02*
X1167563Y-5218984D01*
X1348515Y-5218984D02*
X1348515Y-5114222D01*
X1348515Y-5114222D02*
X1338991Y-5095174D01*
X1338991Y-5095174D02*
X1319944Y-5085650D01*
X1319944Y-5085650D02*
X1281848Y-5085650D01*
X1281848Y-5085650D02*
X1262801Y-5095174D01*
X1348515Y-5209460D02*
X1329467Y-5218984D01*
X1329467Y-5218984D02*
X1281848Y-5218984D01*
X1281848Y-5218984D02*
X1262801Y-5209460D01*
X1262801Y-5209460D02*
X1253277Y-5190412D01*
X1253277Y-5190412D02*
X1253277Y-5171365D01*
X1253277Y-5171365D02*
X1262801Y-5152317D01*
X1262801Y-5152317D02*
X1281848Y-5142793D01*
X1281848Y-5142793D02*
X1329467Y-5142793D01*
X1329467Y-5142793D02*
X1348515Y-5133270D01*
X1443753Y-5085650D02*
X1443753Y-5285650D01*
X1443753Y-5095174D02*
X1462801Y-5085650D01*
X1462801Y-5085650D02*
X1500896Y-5085650D01*
X1500896Y-5085650D02*
X1519943Y-5095174D01*
X1519943Y-5095174D02*
X1529467Y-5104698D01*
X1529467Y-5104698D02*
X1538991Y-5123746D01*
X1538991Y-5123746D02*
X1538991Y-5180889D01*
X1538991Y-5180889D02*
X1529467Y-5199936D01*
X1529467Y-5199936D02*
X1519943Y-5209460D01*
X1519943Y-5209460D02*
X1500896Y-5218984D01*
X1500896Y-5218984D02*
X1462801Y-5218984D01*
X1462801Y-5218984D02*
X1443753Y-5209460D01*
X1624705Y-5199936D02*
X1634229Y-5209460D01*
X1634229Y-5209460D02*
X1624705Y-5218984D01*
X1624705Y-5218984D02*
X1615182Y-5209460D01*
X1615182Y-5209460D02*
X1624705Y-5199936D01*
X1624705Y-5199936D02*
X1624705Y-5218984D01*
X1624705Y-5095174D02*
X1634229Y-5104698D01*
X1634229Y-5104698D02*
X1624705Y-5114222D01*
X1624705Y-5114222D02*
X1615182Y-5104698D01*
X1615182Y-5104698D02*
X1624705Y-5095174D01*
X1624705Y-5095174D02*
X1624705Y-5114222D01*
D12*
X-27500Y-5537500D02*
X-7500Y-5557500D01*
X-7500Y-5537500D02*
X-27500Y-5557500D01*
D11*
X291372Y-5438984D02*
X310420Y-5438984D01*
X310420Y-5438984D02*
X329467Y-5448508D01*
X329467Y-5448508D02*
X338991Y-5458031D01*
X338991Y-5458031D02*
X348515Y-5477079D01*
X348515Y-5477079D02*
X358039Y-5515174D01*
X358039Y-5515174D02*
X358039Y-5562793D01*
X358039Y-5562793D02*
X348515Y-5600888D01*
X348515Y-5600888D02*
X338991Y-5619936D01*
X338991Y-5619936D02*
X329467Y-5629460D01*
X329467Y-5629460D02*
X310420Y-5638984D01*
X310420Y-5638984D02*
X291372Y-5638984D01*
X291372Y-5638984D02*
X272324Y-5629460D01*
X272324Y-5629460D02*
X262801Y-5619936D01*
X262801Y-5619936D02*
X253277Y-5600888D01*
X253277Y-5600888D02*
X243753Y-5562793D01*
X243753Y-5562793D02*
X243753Y-5515174D01*
X243753Y-5515174D02*
X253277Y-5477079D01*
X253277Y-5477079D02*
X262801Y-5458031D01*
X262801Y-5458031D02*
X272324Y-5448508D01*
X272324Y-5448508D02*
X291372Y-5438984D01*
X443753Y-5619936D02*
X453277Y-5629460D01*
X453277Y-5629460D02*
X443753Y-5638984D01*
X443753Y-5638984D02*
X434229Y-5629460D01*
X434229Y-5629460D02*
X443753Y-5619936D01*
X443753Y-5619936D02*
X443753Y-5638984D01*
X529467Y-5458031D02*
X538991Y-5448508D01*
X538991Y-5448508D02*
X558039Y-5438984D01*
X558039Y-5438984D02*
X605658Y-5438984D01*
X605658Y-5438984D02*
X624705Y-5448508D01*
X624705Y-5448508D02*
X634229Y-5458031D01*
X634229Y-5458031D02*
X643753Y-5477079D01*
X643753Y-5477079D02*
X643753Y-5496127D01*
X643753Y-5496127D02*
X634229Y-5524698D01*
X634229Y-5524698D02*
X519943Y-5638984D01*
X519943Y-5638984D02*
X643753Y-5638984D01*
X767562Y-5438984D02*
X786610Y-5438984D01*
X786610Y-5438984D02*
X805658Y-5448508D01*
X805658Y-5448508D02*
X815182Y-5458031D01*
X815182Y-5458031D02*
X824705Y-5477079D01*
X824705Y-5477079D02*
X834229Y-5515174D01*
X834229Y-5515174D02*
X834229Y-5562793D01*
X834229Y-5562793D02*
X824705Y-5600888D01*
X824705Y-5600888D02*
X815182Y-5619936D01*
X815182Y-5619936D02*
X805658Y-5629460D01*
X805658Y-5629460D02*
X786610Y-5638984D01*
X786610Y-5638984D02*
X767562Y-5638984D01*
X767562Y-5638984D02*
X748515Y-5629460D01*
X748515Y-5629460D02*
X738991Y-5619936D01*
X738991Y-5619936D02*
X729467Y-5600888D01*
X729467Y-5600888D02*
X719943Y-5562793D01*
X719943Y-5562793D02*
X719943Y-5515174D01*
X719943Y-5515174D02*
X729467Y-5477079D01*
X729467Y-5477079D02*
X738991Y-5458031D01*
X738991Y-5458031D02*
X748515Y-5448508D01*
X748515Y-5448508D02*
X767562Y-5438984D01*
X958039Y-5438984D02*
X977086Y-5438984D01*
X977086Y-5438984D02*
X996134Y-5448508D01*
X996134Y-5448508D02*
X1005658Y-5458031D01*
X1005658Y-5458031D02*
X1015182Y-5477079D01*
X1015182Y-5477079D02*
X1024705Y-5515174D01*
X1024705Y-5515174D02*
X1024705Y-5562793D01*
X1024705Y-5562793D02*
X1015182Y-5600888D01*
X1015182Y-5600888D02*
X1005658Y-5619936D01*
X1005658Y-5619936D02*
X996134Y-5629460D01*
X996134Y-5629460D02*
X977086Y-5638984D01*
X977086Y-5638984D02*
X958039Y-5638984D01*
X958039Y-5638984D02*
X938991Y-5629460D01*
X938991Y-5629460D02*
X929467Y-5619936D01*
X929467Y-5619936D02*
X919943Y-5600888D01*
X919943Y-5600888D02*
X910420Y-5562793D01*
X910420Y-5562793D02*
X910420Y-5515174D01*
X910420Y-5515174D02*
X919943Y-5477079D01*
X919943Y-5477079D02*
X929467Y-5458031D01*
X929467Y-5458031D02*
X938991Y-5448508D01*
X938991Y-5448508D02*
X958039Y-5438984D01*
X1110420Y-5638984D02*
X1110420Y-5505650D01*
X1110420Y-5524698D02*
X1119944Y-5515174D01*
X1119944Y-5515174D02*
X1138991Y-5505650D01*
X1138991Y-5505650D02*
X1167563Y-5505650D01*
X1167563Y-5505650D02*
X1186610Y-5515174D01*
X1186610Y-5515174D02*
X1196134Y-5534222D01*
X1196134Y-5534222D02*
X1196134Y-5638984D01*
X1196134Y-5534222D02*
X1205658Y-5515174D01*
X1205658Y-5515174D02*
X1224705Y-5505650D01*
X1224705Y-5505650D02*
X1253277Y-5505650D01*
X1253277Y-5505650D02*
X1272325Y-5515174D01*
X1272325Y-5515174D02*
X1281848Y-5534222D01*
X1281848Y-5534222D02*
X1281848Y-5638984D01*
X1377086Y-5638984D02*
X1377086Y-5505650D01*
X1377086Y-5524698D02*
X1386610Y-5515174D01*
X1386610Y-5515174D02*
X1405658Y-5505650D01*
X1405658Y-5505650D02*
X1434229Y-5505650D01*
X1434229Y-5505650D02*
X1453277Y-5515174D01*
X1453277Y-5515174D02*
X1462801Y-5534222D01*
X1462801Y-5534222D02*
X1462801Y-5638984D01*
X1462801Y-5534222D02*
X1472324Y-5515174D01*
X1472324Y-5515174D02*
X1491372Y-5505650D01*
X1491372Y-5505650D02*
X1519943Y-5505650D01*
X1519943Y-5505650D02*
X1538991Y-5515174D01*
X1538991Y-5515174D02*
X1548515Y-5534222D01*
X1548515Y-5534222D02*
X1548515Y-5638984D01*
X1938991Y-5429460D02*
X1767563Y-5686603D01*
X2196134Y-5438984D02*
X2215182Y-5438984D01*
X2215182Y-5438984D02*
X2234229Y-5448508D01*
X2234229Y-5448508D02*
X2243753Y-5458031D01*
X2243753Y-5458031D02*
X2253277Y-5477079D01*
X2253277Y-5477079D02*
X2262801Y-5515174D01*
X2262801Y-5515174D02*
X2262801Y-5562793D01*
X2262801Y-5562793D02*
X2253277Y-5600888D01*
X2253277Y-5600888D02*
X2243753Y-5619936D01*
X2243753Y-5619936D02*
X2234229Y-5629460D01*
X2234229Y-5629460D02*
X2215182Y-5638984D01*
X2215182Y-5638984D02*
X2196134Y-5638984D01*
X2196134Y-5638984D02*
X2177087Y-5629460D01*
X2177087Y-5629460D02*
X2167563Y-5619936D01*
X2167563Y-5619936D02*
X2158039Y-5600888D01*
X2158039Y-5600888D02*
X2148515Y-5562793D01*
X2148515Y-5562793D02*
X2148515Y-5515174D01*
X2148515Y-5515174D02*
X2158039Y-5477079D01*
X2158039Y-5477079D02*
X2167563Y-5458031D01*
X2167563Y-5458031D02*
X2177087Y-5448508D01*
X2177087Y-5448508D02*
X2196134Y-5438984D01*
X2348515Y-5619936D02*
X2358039Y-5629460D01*
X2358039Y-5629460D02*
X2348515Y-5638984D01*
X2348515Y-5638984D02*
X2338991Y-5629460D01*
X2338991Y-5629460D02*
X2348515Y-5619936D01*
X2348515Y-5619936D02*
X2348515Y-5638984D01*
X2481848Y-5438984D02*
X2500896Y-5438984D01*
X2500896Y-5438984D02*
X2519944Y-5448508D01*
X2519944Y-5448508D02*
X2529468Y-5458031D01*
X2529468Y-5458031D02*
X2538991Y-5477079D01*
X2538991Y-5477079D02*
X2548515Y-5515174D01*
X2548515Y-5515174D02*
X2548515Y-5562793D01*
X2548515Y-5562793D02*
X2538991Y-5600888D01*
X2538991Y-5600888D02*
X2529468Y-5619936D01*
X2529468Y-5619936D02*
X2519944Y-5629460D01*
X2519944Y-5629460D02*
X2500896Y-5638984D01*
X2500896Y-5638984D02*
X2481848Y-5638984D01*
X2481848Y-5638984D02*
X2462801Y-5629460D01*
X2462801Y-5629460D02*
X2453277Y-5619936D01*
X2453277Y-5619936D02*
X2443753Y-5600888D01*
X2443753Y-5600888D02*
X2434229Y-5562793D01*
X2434229Y-5562793D02*
X2434229Y-5515174D01*
X2434229Y-5515174D02*
X2443753Y-5477079D01*
X2443753Y-5477079D02*
X2453277Y-5458031D01*
X2453277Y-5458031D02*
X2462801Y-5448508D01*
X2462801Y-5448508D02*
X2481848Y-5438984D01*
X2672325Y-5438984D02*
X2691372Y-5438984D01*
X2691372Y-5438984D02*
X2710420Y-5448508D01*
X2710420Y-5448508D02*
X2719944Y-5458031D01*
X2719944Y-5458031D02*
X2729468Y-5477079D01*
X2729468Y-5477079D02*
X2738991Y-5515174D01*
X2738991Y-5515174D02*
X2738991Y-5562793D01*
X2738991Y-5562793D02*
X2729468Y-5600888D01*
X2729468Y-5600888D02*
X2719944Y-5619936D01*
X2719944Y-5619936D02*
X2710420Y-5629460D01*
X2710420Y-5629460D02*
X2691372Y-5638984D01*
X2691372Y-5638984D02*
X2672325Y-5638984D01*
X2672325Y-5638984D02*
X2653277Y-5629460D01*
X2653277Y-5629460D02*
X2643753Y-5619936D01*
X2643753Y-5619936D02*
X2634229Y-5600888D01*
X2634229Y-5600888D02*
X2624706Y-5562793D01*
X2624706Y-5562793D02*
X2624706Y-5515174D01*
X2624706Y-5515174D02*
X2634229Y-5477079D01*
X2634229Y-5477079D02*
X2643753Y-5458031D01*
X2643753Y-5458031D02*
X2653277Y-5448508D01*
X2653277Y-5448508D02*
X2672325Y-5438984D01*
X2805658Y-5438984D02*
X2938991Y-5438984D01*
X2938991Y-5438984D02*
X2853277Y-5638984D01*
X3024706Y-5638984D02*
X3062801Y-5638984D01*
X3062801Y-5638984D02*
X3081848Y-5629460D01*
X3081848Y-5629460D02*
X3091372Y-5619936D01*
X3091372Y-5619936D02*
X3110420Y-5591365D01*
X3110420Y-5591365D02*
X3119944Y-5553270D01*
X3119944Y-5553270D02*
X3119944Y-5477079D01*
X3119944Y-5477079D02*
X3110420Y-5458031D01*
X3110420Y-5458031D02*
X3100896Y-5448508D01*
X3100896Y-5448508D02*
X3081848Y-5438984D01*
X3081848Y-5438984D02*
X3043753Y-5438984D01*
X3043753Y-5438984D02*
X3024706Y-5448508D01*
X3024706Y-5448508D02*
X3015182Y-5458031D01*
X3015182Y-5458031D02*
X3005658Y-5477079D01*
X3005658Y-5477079D02*
X3005658Y-5524698D01*
X3005658Y-5524698D02*
X3015182Y-5543746D01*
X3015182Y-5543746D02*
X3024706Y-5553270D01*
X3024706Y-5553270D02*
X3043753Y-5562793D01*
X3043753Y-5562793D02*
X3081848Y-5562793D01*
X3081848Y-5562793D02*
X3100896Y-5553270D01*
X3100896Y-5553270D02*
X3110420Y-5543746D01*
X3110420Y-5543746D02*
X3119944Y-5524698D01*
X3196134Y-5438984D02*
X3196134Y-5477079D01*
X3272325Y-5438984D02*
X3272325Y-5477079D01*
X3567563Y-5715174D02*
X3558039Y-5705650D01*
X3558039Y-5705650D02*
X3538991Y-5677079D01*
X3538991Y-5677079D02*
X3529468Y-5658031D01*
X3529468Y-5658031D02*
X3519944Y-5629460D01*
X3519944Y-5629460D02*
X3510420Y-5581841D01*
X3510420Y-5581841D02*
X3510420Y-5543746D01*
X3510420Y-5543746D02*
X3519944Y-5496127D01*
X3519944Y-5496127D02*
X3529468Y-5467555D01*
X3529468Y-5467555D02*
X3538991Y-5448508D01*
X3538991Y-5448508D02*
X3558039Y-5419936D01*
X3558039Y-5419936D02*
X3567563Y-5410412D01*
X3748515Y-5638984D02*
X3634229Y-5638984D01*
X3691372Y-5638984D02*
X3691372Y-5438984D01*
X3691372Y-5438984D02*
X3672325Y-5467555D01*
X3672325Y-5467555D02*
X3653277Y-5486603D01*
X3653277Y-5486603D02*
X3634229Y-5496127D01*
X3929468Y-5438984D02*
X3834229Y-5438984D01*
X3834229Y-5438984D02*
X3824706Y-5534222D01*
X3824706Y-5534222D02*
X3834229Y-5524698D01*
X3834229Y-5524698D02*
X3853277Y-5515174D01*
X3853277Y-5515174D02*
X3900896Y-5515174D01*
X3900896Y-5515174D02*
X3919944Y-5524698D01*
X3919944Y-5524698D02*
X3929468Y-5534222D01*
X3929468Y-5534222D02*
X3938991Y-5553270D01*
X3938991Y-5553270D02*
X3938991Y-5600888D01*
X3938991Y-5600888D02*
X3929468Y-5619936D01*
X3929468Y-5619936D02*
X3919944Y-5629460D01*
X3919944Y-5629460D02*
X3900896Y-5638984D01*
X3900896Y-5638984D02*
X3853277Y-5638984D01*
X3853277Y-5638984D02*
X3834229Y-5629460D01*
X3834229Y-5629460D02*
X3824706Y-5619936D01*
X4005658Y-5438984D02*
X4138991Y-5438984D01*
X4138991Y-5438984D02*
X4053277Y-5638984D01*
X4367563Y-5638984D02*
X4367563Y-5438984D01*
X4453277Y-5638984D02*
X4453277Y-5534222D01*
X4453277Y-5534222D02*
X4443753Y-5515174D01*
X4443753Y-5515174D02*
X4424706Y-5505650D01*
X4424706Y-5505650D02*
X4396134Y-5505650D01*
X4396134Y-5505650D02*
X4377087Y-5515174D01*
X4377087Y-5515174D02*
X4367563Y-5524698D01*
X4577087Y-5638984D02*
X4558039Y-5629460D01*
X4558039Y-5629460D02*
X4548515Y-5619936D01*
X4548515Y-5619936D02*
X4538992Y-5600888D01*
X4538992Y-5600888D02*
X4538992Y-5543746D01*
X4538992Y-5543746D02*
X4548515Y-5524698D01*
X4548515Y-5524698D02*
X4558039Y-5515174D01*
X4558039Y-5515174D02*
X4577087Y-5505650D01*
X4577087Y-5505650D02*
X4605658Y-5505650D01*
X4605658Y-5505650D02*
X4624706Y-5515174D01*
X4624706Y-5515174D02*
X4634230Y-5524698D01*
X4634230Y-5524698D02*
X4643753Y-5543746D01*
X4643753Y-5543746D02*
X4643753Y-5600888D01*
X4643753Y-5600888D02*
X4634230Y-5619936D01*
X4634230Y-5619936D02*
X4624706Y-5629460D01*
X4624706Y-5629460D02*
X4605658Y-5638984D01*
X4605658Y-5638984D02*
X4577087Y-5638984D01*
X4758039Y-5638984D02*
X4738992Y-5629460D01*
X4738992Y-5629460D02*
X4729468Y-5610412D01*
X4729468Y-5610412D02*
X4729468Y-5438984D01*
X4910420Y-5629460D02*
X4891373Y-5638984D01*
X4891373Y-5638984D02*
X4853277Y-5638984D01*
X4853277Y-5638984D02*
X4834230Y-5629460D01*
X4834230Y-5629460D02*
X4824706Y-5610412D01*
X4824706Y-5610412D02*
X4824706Y-5534222D01*
X4824706Y-5534222D02*
X4834230Y-5515174D01*
X4834230Y-5515174D02*
X4853277Y-5505650D01*
X4853277Y-5505650D02*
X4891373Y-5505650D01*
X4891373Y-5505650D02*
X4910420Y-5515174D01*
X4910420Y-5515174D02*
X4919944Y-5534222D01*
X4919944Y-5534222D02*
X4919944Y-5553270D01*
X4919944Y-5553270D02*
X4824706Y-5572317D01*
X4996134Y-5629460D02*
X5015182Y-5638984D01*
X5015182Y-5638984D02*
X5053277Y-5638984D01*
X5053277Y-5638984D02*
X5072325Y-5629460D01*
X5072325Y-5629460D02*
X5081849Y-5610412D01*
X5081849Y-5610412D02*
X5081849Y-5600888D01*
X5081849Y-5600888D02*
X5072325Y-5581841D01*
X5072325Y-5581841D02*
X5053277Y-5572317D01*
X5053277Y-5572317D02*
X5024706Y-5572317D01*
X5024706Y-5572317D02*
X5005658Y-5562793D01*
X5005658Y-5562793D02*
X4996134Y-5543746D01*
X4996134Y-5543746D02*
X4996134Y-5534222D01*
X4996134Y-5534222D02*
X5005658Y-5515174D01*
X5005658Y-5515174D02*
X5024706Y-5505650D01*
X5024706Y-5505650D02*
X5053277Y-5505650D01*
X5053277Y-5505650D02*
X5072325Y-5515174D01*
X5148515Y-5715174D02*
X5158039Y-5705650D01*
X5158039Y-5705650D02*
X5177087Y-5677079D01*
X5177087Y-5677079D02*
X5186611Y-5658031D01*
X5186611Y-5658031D02*
X5196134Y-5629460D01*
X5196134Y-5629460D02*
X5205658Y-5581841D01*
X5205658Y-5581841D02*
X5205658Y-5543746D01*
X5205658Y-5543746D02*
X5196134Y-5496127D01*
X5196134Y-5496127D02*
X5186611Y-5467555D01*
X5186611Y-5467555D02*
X5177087Y-5448508D01*
X5177087Y-5448508D02*
X5158039Y-5419936D01*
X5158039Y-5419936D02*
X5148515Y-5410412D01*
D12*
X-7500Y-5811500D02*
G75*
G02*
X-27500Y-5811500I-10000J0D01*
G01*
X-27500Y-5811500D02*
G75*
G02*
X-7500Y-5811500I10000J0D01*
G01*
D11*
X291372Y-5702984D02*
X310420Y-5702984D01*
X310420Y-5702984D02*
X329467Y-5712508D01*
X329467Y-5712508D02*
X338991Y-5722031D01*
X338991Y-5722031D02*
X348515Y-5741079D01*
X348515Y-5741079D02*
X358039Y-5779174D01*
X358039Y-5779174D02*
X358039Y-5826793D01*
X358039Y-5826793D02*
X348515Y-5864888D01*
X348515Y-5864888D02*
X338991Y-5883936D01*
X338991Y-5883936D02*
X329467Y-5893460D01*
X329467Y-5893460D02*
X310420Y-5902984D01*
X310420Y-5902984D02*
X291372Y-5902984D01*
X291372Y-5902984D02*
X272324Y-5893460D01*
X272324Y-5893460D02*
X262801Y-5883936D01*
X262801Y-5883936D02*
X253277Y-5864888D01*
X253277Y-5864888D02*
X243753Y-5826793D01*
X243753Y-5826793D02*
X243753Y-5779174D01*
X243753Y-5779174D02*
X253277Y-5741079D01*
X253277Y-5741079D02*
X262801Y-5722031D01*
X262801Y-5722031D02*
X272324Y-5712508D01*
X272324Y-5712508D02*
X291372Y-5702984D01*
X443753Y-5883936D02*
X453277Y-5893460D01*
X453277Y-5893460D02*
X443753Y-5902984D01*
X443753Y-5902984D02*
X434229Y-5893460D01*
X434229Y-5893460D02*
X443753Y-5883936D01*
X443753Y-5883936D02*
X443753Y-5902984D01*
X529467Y-5722031D02*
X538991Y-5712508D01*
X538991Y-5712508D02*
X558039Y-5702984D01*
X558039Y-5702984D02*
X605658Y-5702984D01*
X605658Y-5702984D02*
X624705Y-5712508D01*
X624705Y-5712508D02*
X634229Y-5722031D01*
X634229Y-5722031D02*
X643753Y-5741079D01*
X643753Y-5741079D02*
X643753Y-5760127D01*
X643753Y-5760127D02*
X634229Y-5788698D01*
X634229Y-5788698D02*
X519943Y-5902984D01*
X519943Y-5902984D02*
X643753Y-5902984D01*
X767562Y-5702984D02*
X786610Y-5702984D01*
X786610Y-5702984D02*
X805658Y-5712508D01*
X805658Y-5712508D02*
X815182Y-5722031D01*
X815182Y-5722031D02*
X824705Y-5741079D01*
X824705Y-5741079D02*
X834229Y-5779174D01*
X834229Y-5779174D02*
X834229Y-5826793D01*
X834229Y-5826793D02*
X824705Y-5864888D01*
X824705Y-5864888D02*
X815182Y-5883936D01*
X815182Y-5883936D02*
X805658Y-5893460D01*
X805658Y-5893460D02*
X786610Y-5902984D01*
X786610Y-5902984D02*
X767562Y-5902984D01*
X767562Y-5902984D02*
X748515Y-5893460D01*
X748515Y-5893460D02*
X738991Y-5883936D01*
X738991Y-5883936D02*
X729467Y-5864888D01*
X729467Y-5864888D02*
X719943Y-5826793D01*
X719943Y-5826793D02*
X719943Y-5779174D01*
X719943Y-5779174D02*
X729467Y-5741079D01*
X729467Y-5741079D02*
X738991Y-5722031D01*
X738991Y-5722031D02*
X748515Y-5712508D01*
X748515Y-5712508D02*
X767562Y-5702984D01*
X958039Y-5702984D02*
X977086Y-5702984D01*
X977086Y-5702984D02*
X996134Y-5712508D01*
X996134Y-5712508D02*
X1005658Y-5722031D01*
X1005658Y-5722031D02*
X1015182Y-5741079D01*
X1015182Y-5741079D02*
X1024705Y-5779174D01*
X1024705Y-5779174D02*
X1024705Y-5826793D01*
X1024705Y-5826793D02*
X1015182Y-5864888D01*
X1015182Y-5864888D02*
X1005658Y-5883936D01*
X1005658Y-5883936D02*
X996134Y-5893460D01*
X996134Y-5893460D02*
X977086Y-5902984D01*
X977086Y-5902984D02*
X958039Y-5902984D01*
X958039Y-5902984D02*
X938991Y-5893460D01*
X938991Y-5893460D02*
X929467Y-5883936D01*
X929467Y-5883936D02*
X919943Y-5864888D01*
X919943Y-5864888D02*
X910420Y-5826793D01*
X910420Y-5826793D02*
X910420Y-5779174D01*
X910420Y-5779174D02*
X919943Y-5741079D01*
X919943Y-5741079D02*
X929467Y-5722031D01*
X929467Y-5722031D02*
X938991Y-5712508D01*
X938991Y-5712508D02*
X958039Y-5702984D01*
X1110420Y-5902984D02*
X1110420Y-5769650D01*
X1110420Y-5788698D02*
X1119944Y-5779174D01*
X1119944Y-5779174D02*
X1138991Y-5769650D01*
X1138991Y-5769650D02*
X1167563Y-5769650D01*
X1167563Y-5769650D02*
X1186610Y-5779174D01*
X1186610Y-5779174D02*
X1196134Y-5798222D01*
X1196134Y-5798222D02*
X1196134Y-5902984D01*
X1196134Y-5798222D02*
X1205658Y-5779174D01*
X1205658Y-5779174D02*
X1224705Y-5769650D01*
X1224705Y-5769650D02*
X1253277Y-5769650D01*
X1253277Y-5769650D02*
X1272325Y-5779174D01*
X1272325Y-5779174D02*
X1281848Y-5798222D01*
X1281848Y-5798222D02*
X1281848Y-5902984D01*
X1377086Y-5902984D02*
X1377086Y-5769650D01*
X1377086Y-5788698D02*
X1386610Y-5779174D01*
X1386610Y-5779174D02*
X1405658Y-5769650D01*
X1405658Y-5769650D02*
X1434229Y-5769650D01*
X1434229Y-5769650D02*
X1453277Y-5779174D01*
X1453277Y-5779174D02*
X1462801Y-5798222D01*
X1462801Y-5798222D02*
X1462801Y-5902984D01*
X1462801Y-5798222D02*
X1472324Y-5779174D01*
X1472324Y-5779174D02*
X1491372Y-5769650D01*
X1491372Y-5769650D02*
X1519943Y-5769650D01*
X1519943Y-5769650D02*
X1538991Y-5779174D01*
X1538991Y-5779174D02*
X1548515Y-5798222D01*
X1548515Y-5798222D02*
X1548515Y-5902984D01*
X1938991Y-5693460D02*
X1767563Y-5950603D01*
X2196134Y-5702984D02*
X2215182Y-5702984D01*
X2215182Y-5702984D02*
X2234229Y-5712508D01*
X2234229Y-5712508D02*
X2243753Y-5722031D01*
X2243753Y-5722031D02*
X2253277Y-5741079D01*
X2253277Y-5741079D02*
X2262801Y-5779174D01*
X2262801Y-5779174D02*
X2262801Y-5826793D01*
X2262801Y-5826793D02*
X2253277Y-5864888D01*
X2253277Y-5864888D02*
X2243753Y-5883936D01*
X2243753Y-5883936D02*
X2234229Y-5893460D01*
X2234229Y-5893460D02*
X2215182Y-5902984D01*
X2215182Y-5902984D02*
X2196134Y-5902984D01*
X2196134Y-5902984D02*
X2177087Y-5893460D01*
X2177087Y-5893460D02*
X2167563Y-5883936D01*
X2167563Y-5883936D02*
X2158039Y-5864888D01*
X2158039Y-5864888D02*
X2148515Y-5826793D01*
X2148515Y-5826793D02*
X2148515Y-5779174D01*
X2148515Y-5779174D02*
X2158039Y-5741079D01*
X2158039Y-5741079D02*
X2167563Y-5722031D01*
X2167563Y-5722031D02*
X2177087Y-5712508D01*
X2177087Y-5712508D02*
X2196134Y-5702984D01*
X2348515Y-5883936D02*
X2358039Y-5893460D01*
X2358039Y-5893460D02*
X2348515Y-5902984D01*
X2348515Y-5902984D02*
X2338991Y-5893460D01*
X2338991Y-5893460D02*
X2348515Y-5883936D01*
X2348515Y-5883936D02*
X2348515Y-5902984D01*
X2481848Y-5702984D02*
X2500896Y-5702984D01*
X2500896Y-5702984D02*
X2519944Y-5712508D01*
X2519944Y-5712508D02*
X2529468Y-5722031D01*
X2529468Y-5722031D02*
X2538991Y-5741079D01*
X2538991Y-5741079D02*
X2548515Y-5779174D01*
X2548515Y-5779174D02*
X2548515Y-5826793D01*
X2548515Y-5826793D02*
X2538991Y-5864888D01*
X2538991Y-5864888D02*
X2529468Y-5883936D01*
X2529468Y-5883936D02*
X2519944Y-5893460D01*
X2519944Y-5893460D02*
X2500896Y-5902984D01*
X2500896Y-5902984D02*
X2481848Y-5902984D01*
X2481848Y-5902984D02*
X2462801Y-5893460D01*
X2462801Y-5893460D02*
X2453277Y-5883936D01*
X2453277Y-5883936D02*
X2443753Y-5864888D01*
X2443753Y-5864888D02*
X2434229Y-5826793D01*
X2434229Y-5826793D02*
X2434229Y-5779174D01*
X2434229Y-5779174D02*
X2443753Y-5741079D01*
X2443753Y-5741079D02*
X2453277Y-5722031D01*
X2453277Y-5722031D02*
X2462801Y-5712508D01*
X2462801Y-5712508D02*
X2481848Y-5702984D01*
X2672325Y-5702984D02*
X2691372Y-5702984D01*
X2691372Y-5702984D02*
X2710420Y-5712508D01*
X2710420Y-5712508D02*
X2719944Y-5722031D01*
X2719944Y-5722031D02*
X2729468Y-5741079D01*
X2729468Y-5741079D02*
X2738991Y-5779174D01*
X2738991Y-5779174D02*
X2738991Y-5826793D01*
X2738991Y-5826793D02*
X2729468Y-5864888D01*
X2729468Y-5864888D02*
X2719944Y-5883936D01*
X2719944Y-5883936D02*
X2710420Y-5893460D01*
X2710420Y-5893460D02*
X2691372Y-5902984D01*
X2691372Y-5902984D02*
X2672325Y-5902984D01*
X2672325Y-5902984D02*
X2653277Y-5893460D01*
X2653277Y-5893460D02*
X2643753Y-5883936D01*
X2643753Y-5883936D02*
X2634229Y-5864888D01*
X2634229Y-5864888D02*
X2624706Y-5826793D01*
X2624706Y-5826793D02*
X2624706Y-5779174D01*
X2624706Y-5779174D02*
X2634229Y-5741079D01*
X2634229Y-5741079D02*
X2643753Y-5722031D01*
X2643753Y-5722031D02*
X2653277Y-5712508D01*
X2653277Y-5712508D02*
X2672325Y-5702984D01*
X2805658Y-5702984D02*
X2938991Y-5702984D01*
X2938991Y-5702984D02*
X2853277Y-5902984D01*
X3024706Y-5902984D02*
X3062801Y-5902984D01*
X3062801Y-5902984D02*
X3081848Y-5893460D01*
X3081848Y-5893460D02*
X3091372Y-5883936D01*
X3091372Y-5883936D02*
X3110420Y-5855365D01*
X3110420Y-5855365D02*
X3119944Y-5817269D01*
X3119944Y-5817269D02*
X3119944Y-5741079D01*
X3119944Y-5741079D02*
X3110420Y-5722031D01*
X3110420Y-5722031D02*
X3100896Y-5712508D01*
X3100896Y-5712508D02*
X3081848Y-5702984D01*
X3081848Y-5702984D02*
X3043753Y-5702984D01*
X3043753Y-5702984D02*
X3024706Y-5712508D01*
X3024706Y-5712508D02*
X3015182Y-5722031D01*
X3015182Y-5722031D02*
X3005658Y-5741079D01*
X3005658Y-5741079D02*
X3005658Y-5788698D01*
X3005658Y-5788698D02*
X3015182Y-5807746D01*
X3015182Y-5807746D02*
X3024706Y-5817269D01*
X3024706Y-5817269D02*
X3043753Y-5826793D01*
X3043753Y-5826793D02*
X3081848Y-5826793D01*
X3081848Y-5826793D02*
X3100896Y-5817269D01*
X3100896Y-5817269D02*
X3110420Y-5807746D01*
X3110420Y-5807746D02*
X3119944Y-5788698D01*
X3196134Y-5702984D02*
X3196134Y-5741079D01*
X3272325Y-5702984D02*
X3272325Y-5741079D01*
X3567563Y-5979174D02*
X3558039Y-5969650D01*
X3558039Y-5969650D02*
X3538991Y-5941079D01*
X3538991Y-5941079D02*
X3529468Y-5922031D01*
X3529468Y-5922031D02*
X3519944Y-5893460D01*
X3519944Y-5893460D02*
X3510420Y-5845841D01*
X3510420Y-5845841D02*
X3510420Y-5807746D01*
X3510420Y-5807746D02*
X3519944Y-5760127D01*
X3519944Y-5760127D02*
X3529468Y-5731555D01*
X3529468Y-5731555D02*
X3538991Y-5712508D01*
X3538991Y-5712508D02*
X3558039Y-5683936D01*
X3558039Y-5683936D02*
X3567563Y-5674412D01*
X3748515Y-5902984D02*
X3634229Y-5902984D01*
X3691372Y-5902984D02*
X3691372Y-5702984D01*
X3691372Y-5702984D02*
X3672325Y-5731555D01*
X3672325Y-5731555D02*
X3653277Y-5750603D01*
X3653277Y-5750603D02*
X3634229Y-5760127D01*
X3919944Y-5769650D02*
X3919944Y-5902984D01*
X3872325Y-5693460D02*
X3824706Y-5836317D01*
X3824706Y-5836317D02*
X3948515Y-5836317D01*
X4177087Y-5902984D02*
X4177087Y-5702984D01*
X4262801Y-5902984D02*
X4262801Y-5798222D01*
X4262801Y-5798222D02*
X4253277Y-5779174D01*
X4253277Y-5779174D02*
X4234230Y-5769650D01*
X4234230Y-5769650D02*
X4205658Y-5769650D01*
X4205658Y-5769650D02*
X4186610Y-5779174D01*
X4186610Y-5779174D02*
X4177087Y-5788698D01*
X4386611Y-5902984D02*
X4367563Y-5893460D01*
X4367563Y-5893460D02*
X4358039Y-5883936D01*
X4358039Y-5883936D02*
X4348515Y-5864888D01*
X4348515Y-5864888D02*
X4348515Y-5807746D01*
X4348515Y-5807746D02*
X4358039Y-5788698D01*
X4358039Y-5788698D02*
X4367563Y-5779174D01*
X4367563Y-5779174D02*
X4386611Y-5769650D01*
X4386611Y-5769650D02*
X4415182Y-5769650D01*
X4415182Y-5769650D02*
X4434230Y-5779174D01*
X4434230Y-5779174D02*
X4443753Y-5788698D01*
X4443753Y-5788698D02*
X4453277Y-5807746D01*
X4453277Y-5807746D02*
X4453277Y-5864888D01*
X4453277Y-5864888D02*
X4443753Y-5883936D01*
X4443753Y-5883936D02*
X4434230Y-5893460D01*
X4434230Y-5893460D02*
X4415182Y-5902984D01*
X4415182Y-5902984D02*
X4386611Y-5902984D01*
X4567563Y-5902984D02*
X4548515Y-5893460D01*
X4548515Y-5893460D02*
X4538992Y-5874412D01*
X4538992Y-5874412D02*
X4538992Y-5702984D01*
X4719944Y-5893460D02*
X4700896Y-5902984D01*
X4700896Y-5902984D02*
X4662801Y-5902984D01*
X4662801Y-5902984D02*
X4643753Y-5893460D01*
X4643753Y-5893460D02*
X4634230Y-5874412D01*
X4634230Y-5874412D02*
X4634230Y-5798222D01*
X4634230Y-5798222D02*
X4643753Y-5779174D01*
X4643753Y-5779174D02*
X4662801Y-5769650D01*
X4662801Y-5769650D02*
X4700896Y-5769650D01*
X4700896Y-5769650D02*
X4719944Y-5779174D01*
X4719944Y-5779174D02*
X4729468Y-5798222D01*
X4729468Y-5798222D02*
X4729468Y-5817269D01*
X4729468Y-5817269D02*
X4634230Y-5836317D01*
X4805658Y-5893460D02*
X4824706Y-5902984D01*
X4824706Y-5902984D02*
X4862801Y-5902984D01*
X4862801Y-5902984D02*
X4881849Y-5893460D01*
X4881849Y-5893460D02*
X4891373Y-5874412D01*
X4891373Y-5874412D02*
X4891373Y-5864888D01*
X4891373Y-5864888D02*
X4881849Y-5845841D01*
X4881849Y-5845841D02*
X4862801Y-5836317D01*
X4862801Y-5836317D02*
X4834230Y-5836317D01*
X4834230Y-5836317D02*
X4815182Y-5826793D01*
X4815182Y-5826793D02*
X4805658Y-5807746D01*
X4805658Y-5807746D02*
X4805658Y-5798222D01*
X4805658Y-5798222D02*
X4815182Y-5779174D01*
X4815182Y-5779174D02*
X4834230Y-5769650D01*
X4834230Y-5769650D02*
X4862801Y-5769650D01*
X4862801Y-5769650D02*
X4881849Y-5779174D01*
X4958039Y-5979174D02*
X4967563Y-5969650D01*
X4967563Y-5969650D02*
X4986611Y-5941079D01*
X4986611Y-5941079D02*
X4996134Y-5922031D01*
X4996134Y-5922031D02*
X5005658Y-5893460D01*
X5005658Y-5893460D02*
X5015182Y-5845841D01*
X5015182Y-5845841D02*
X5015182Y-5807746D01*
X5015182Y-5807746D02*
X5005658Y-5760127D01*
X5005658Y-5760127D02*
X4996134Y-5731555D01*
X4996134Y-5731555D02*
X4986611Y-5712508D01*
X4986611Y-5712508D02*
X4967563Y-5683936D01*
X4967563Y-5683936D02*
X4958039Y-5674412D01*
D12*
X-22500Y-6060500D02*
X-22500Y-6090500D01*
X-37500Y-6075500D02*
X-7500Y-6075500D01*
D11*
X291372Y-5966984D02*
X310420Y-5966984D01*
X310420Y-5966984D02*
X329467Y-5976508D01*
X329467Y-5976508D02*
X338991Y-5986031D01*
X338991Y-5986031D02*
X348515Y-6005079D01*
X348515Y-6005079D02*
X358039Y-6043174D01*
X358039Y-6043174D02*
X358039Y-6090793D01*
X358039Y-6090793D02*
X348515Y-6128888D01*
X348515Y-6128888D02*
X338991Y-6147936D01*
X338991Y-6147936D02*
X329467Y-6157460D01*
X329467Y-6157460D02*
X310420Y-6166984D01*
X310420Y-6166984D02*
X291372Y-6166984D01*
X291372Y-6166984D02*
X272324Y-6157460D01*
X272324Y-6157460D02*
X262801Y-6147936D01*
X262801Y-6147936D02*
X253277Y-6128888D01*
X253277Y-6128888D02*
X243753Y-6090793D01*
X243753Y-6090793D02*
X243753Y-6043174D01*
X243753Y-6043174D02*
X253277Y-6005079D01*
X253277Y-6005079D02*
X262801Y-5986031D01*
X262801Y-5986031D02*
X272324Y-5976508D01*
X272324Y-5976508D02*
X291372Y-5966984D01*
X443753Y-6147936D02*
X453277Y-6157460D01*
X453277Y-6157460D02*
X443753Y-6166984D01*
X443753Y-6166984D02*
X434229Y-6157460D01*
X434229Y-6157460D02*
X443753Y-6147936D01*
X443753Y-6147936D02*
X443753Y-6166984D01*
X519943Y-5966984D02*
X643753Y-5966984D01*
X643753Y-5966984D02*
X577086Y-6043174D01*
X577086Y-6043174D02*
X605658Y-6043174D01*
X605658Y-6043174D02*
X624705Y-6052698D01*
X624705Y-6052698D02*
X634229Y-6062222D01*
X634229Y-6062222D02*
X643753Y-6081269D01*
X643753Y-6081269D02*
X643753Y-6128888D01*
X643753Y-6128888D02*
X634229Y-6147936D01*
X634229Y-6147936D02*
X624705Y-6157460D01*
X624705Y-6157460D02*
X605658Y-6166984D01*
X605658Y-6166984D02*
X548515Y-6166984D01*
X548515Y-6166984D02*
X529467Y-6157460D01*
X529467Y-6157460D02*
X519943Y-6147936D01*
X767562Y-5966984D02*
X786610Y-5966984D01*
X786610Y-5966984D02*
X805658Y-5976508D01*
X805658Y-5976508D02*
X815182Y-5986031D01*
X815182Y-5986031D02*
X824705Y-6005079D01*
X824705Y-6005079D02*
X834229Y-6043174D01*
X834229Y-6043174D02*
X834229Y-6090793D01*
X834229Y-6090793D02*
X824705Y-6128888D01*
X824705Y-6128888D02*
X815182Y-6147936D01*
X815182Y-6147936D02*
X805658Y-6157460D01*
X805658Y-6157460D02*
X786610Y-6166984D01*
X786610Y-6166984D02*
X767562Y-6166984D01*
X767562Y-6166984D02*
X748515Y-6157460D01*
X748515Y-6157460D02*
X738991Y-6147936D01*
X738991Y-6147936D02*
X729467Y-6128888D01*
X729467Y-6128888D02*
X719943Y-6090793D01*
X719943Y-6090793D02*
X719943Y-6043174D01*
X719943Y-6043174D02*
X729467Y-6005079D01*
X729467Y-6005079D02*
X738991Y-5986031D01*
X738991Y-5986031D02*
X748515Y-5976508D01*
X748515Y-5976508D02*
X767562Y-5966984D01*
X958039Y-5966984D02*
X977086Y-5966984D01*
X977086Y-5966984D02*
X996134Y-5976508D01*
X996134Y-5976508D02*
X1005658Y-5986031D01*
X1005658Y-5986031D02*
X1015182Y-6005079D01*
X1015182Y-6005079D02*
X1024705Y-6043174D01*
X1024705Y-6043174D02*
X1024705Y-6090793D01*
X1024705Y-6090793D02*
X1015182Y-6128888D01*
X1015182Y-6128888D02*
X1005658Y-6147936D01*
X1005658Y-6147936D02*
X996134Y-6157460D01*
X996134Y-6157460D02*
X977086Y-6166984D01*
X977086Y-6166984D02*
X958039Y-6166984D01*
X958039Y-6166984D02*
X938991Y-6157460D01*
X938991Y-6157460D02*
X929467Y-6147936D01*
X929467Y-6147936D02*
X919943Y-6128888D01*
X919943Y-6128888D02*
X910420Y-6090793D01*
X910420Y-6090793D02*
X910420Y-6043174D01*
X910420Y-6043174D02*
X919943Y-6005079D01*
X919943Y-6005079D02*
X929467Y-5986031D01*
X929467Y-5986031D02*
X938991Y-5976508D01*
X938991Y-5976508D02*
X958039Y-5966984D01*
X1110420Y-6166984D02*
X1110420Y-6033650D01*
X1110420Y-6052698D02*
X1119944Y-6043174D01*
X1119944Y-6043174D02*
X1138991Y-6033650D01*
X1138991Y-6033650D02*
X1167563Y-6033650D01*
X1167563Y-6033650D02*
X1186610Y-6043174D01*
X1186610Y-6043174D02*
X1196134Y-6062222D01*
X1196134Y-6062222D02*
X1196134Y-6166984D01*
X1196134Y-6062222D02*
X1205658Y-6043174D01*
X1205658Y-6043174D02*
X1224705Y-6033650D01*
X1224705Y-6033650D02*
X1253277Y-6033650D01*
X1253277Y-6033650D02*
X1272325Y-6043174D01*
X1272325Y-6043174D02*
X1281848Y-6062222D01*
X1281848Y-6062222D02*
X1281848Y-6166984D01*
X1377086Y-6166984D02*
X1377086Y-6033650D01*
X1377086Y-6052698D02*
X1386610Y-6043174D01*
X1386610Y-6043174D02*
X1405658Y-6033650D01*
X1405658Y-6033650D02*
X1434229Y-6033650D01*
X1434229Y-6033650D02*
X1453277Y-6043174D01*
X1453277Y-6043174D02*
X1462801Y-6062222D01*
X1462801Y-6062222D02*
X1462801Y-6166984D01*
X1462801Y-6062222D02*
X1472324Y-6043174D01*
X1472324Y-6043174D02*
X1491372Y-6033650D01*
X1491372Y-6033650D02*
X1519943Y-6033650D01*
X1519943Y-6033650D02*
X1538991Y-6043174D01*
X1538991Y-6043174D02*
X1548515Y-6062222D01*
X1548515Y-6062222D02*
X1548515Y-6166984D01*
X1938991Y-5957460D02*
X1767563Y-6214603D01*
X2196134Y-5966984D02*
X2215182Y-5966984D01*
X2215182Y-5966984D02*
X2234229Y-5976508D01*
X2234229Y-5976508D02*
X2243753Y-5986031D01*
X2243753Y-5986031D02*
X2253277Y-6005079D01*
X2253277Y-6005079D02*
X2262801Y-6043174D01*
X2262801Y-6043174D02*
X2262801Y-6090793D01*
X2262801Y-6090793D02*
X2253277Y-6128888D01*
X2253277Y-6128888D02*
X2243753Y-6147936D01*
X2243753Y-6147936D02*
X2234229Y-6157460D01*
X2234229Y-6157460D02*
X2215182Y-6166984D01*
X2215182Y-6166984D02*
X2196134Y-6166984D01*
X2196134Y-6166984D02*
X2177087Y-6157460D01*
X2177087Y-6157460D02*
X2167563Y-6147936D01*
X2167563Y-6147936D02*
X2158039Y-6128888D01*
X2158039Y-6128888D02*
X2148515Y-6090793D01*
X2148515Y-6090793D02*
X2148515Y-6043174D01*
X2148515Y-6043174D02*
X2158039Y-6005079D01*
X2158039Y-6005079D02*
X2167563Y-5986031D01*
X2167563Y-5986031D02*
X2177087Y-5976508D01*
X2177087Y-5976508D02*
X2196134Y-5966984D01*
X2348515Y-6147936D02*
X2358039Y-6157460D01*
X2358039Y-6157460D02*
X2348515Y-6166984D01*
X2348515Y-6166984D02*
X2338991Y-6157460D01*
X2338991Y-6157460D02*
X2348515Y-6147936D01*
X2348515Y-6147936D02*
X2348515Y-6166984D01*
X2481848Y-5966984D02*
X2500896Y-5966984D01*
X2500896Y-5966984D02*
X2519944Y-5976508D01*
X2519944Y-5976508D02*
X2529468Y-5986031D01*
X2529468Y-5986031D02*
X2538991Y-6005079D01*
X2538991Y-6005079D02*
X2548515Y-6043174D01*
X2548515Y-6043174D02*
X2548515Y-6090793D01*
X2548515Y-6090793D02*
X2538991Y-6128888D01*
X2538991Y-6128888D02*
X2529468Y-6147936D01*
X2529468Y-6147936D02*
X2519944Y-6157460D01*
X2519944Y-6157460D02*
X2500896Y-6166984D01*
X2500896Y-6166984D02*
X2481848Y-6166984D01*
X2481848Y-6166984D02*
X2462801Y-6157460D01*
X2462801Y-6157460D02*
X2453277Y-6147936D01*
X2453277Y-6147936D02*
X2443753Y-6128888D01*
X2443753Y-6128888D02*
X2434229Y-6090793D01*
X2434229Y-6090793D02*
X2434229Y-6043174D01*
X2434229Y-6043174D02*
X2443753Y-6005079D01*
X2443753Y-6005079D02*
X2453277Y-5986031D01*
X2453277Y-5986031D02*
X2462801Y-5976508D01*
X2462801Y-5976508D02*
X2481848Y-5966984D01*
X2738991Y-6166984D02*
X2624706Y-6166984D01*
X2681848Y-6166984D02*
X2681848Y-5966984D01*
X2681848Y-5966984D02*
X2662801Y-5995555D01*
X2662801Y-5995555D02*
X2643753Y-6014603D01*
X2643753Y-6014603D02*
X2624706Y-6024127D01*
X2929467Y-6166984D02*
X2815182Y-6166984D01*
X2872325Y-6166984D02*
X2872325Y-5966984D01*
X2872325Y-5966984D02*
X2853277Y-5995555D01*
X2853277Y-5995555D02*
X2834229Y-6014603D01*
X2834229Y-6014603D02*
X2815182Y-6024127D01*
X3043753Y-6052698D02*
X3024706Y-6043174D01*
X3024706Y-6043174D02*
X3015182Y-6033650D01*
X3015182Y-6033650D02*
X3005658Y-6014603D01*
X3005658Y-6014603D02*
X3005658Y-6005079D01*
X3005658Y-6005079D02*
X3015182Y-5986031D01*
X3015182Y-5986031D02*
X3024706Y-5976508D01*
X3024706Y-5976508D02*
X3043753Y-5966984D01*
X3043753Y-5966984D02*
X3081848Y-5966984D01*
X3081848Y-5966984D02*
X3100896Y-5976508D01*
X3100896Y-5976508D02*
X3110420Y-5986031D01*
X3110420Y-5986031D02*
X3119944Y-6005079D01*
X3119944Y-6005079D02*
X3119944Y-6014603D01*
X3119944Y-6014603D02*
X3110420Y-6033650D01*
X3110420Y-6033650D02*
X3100896Y-6043174D01*
X3100896Y-6043174D02*
X3081848Y-6052698D01*
X3081848Y-6052698D02*
X3043753Y-6052698D01*
X3043753Y-6052698D02*
X3024706Y-6062222D01*
X3024706Y-6062222D02*
X3015182Y-6071746D01*
X3015182Y-6071746D02*
X3005658Y-6090793D01*
X3005658Y-6090793D02*
X3005658Y-6128888D01*
X3005658Y-6128888D02*
X3015182Y-6147936D01*
X3015182Y-6147936D02*
X3024706Y-6157460D01*
X3024706Y-6157460D02*
X3043753Y-6166984D01*
X3043753Y-6166984D02*
X3081848Y-6166984D01*
X3081848Y-6166984D02*
X3100896Y-6157460D01*
X3100896Y-6157460D02*
X3110420Y-6147936D01*
X3110420Y-6147936D02*
X3119944Y-6128888D01*
X3119944Y-6128888D02*
X3119944Y-6090793D01*
X3119944Y-6090793D02*
X3110420Y-6071746D01*
X3110420Y-6071746D02*
X3100896Y-6062222D01*
X3100896Y-6062222D02*
X3081848Y-6052698D01*
X3196134Y-5966984D02*
X3196134Y-6005079D01*
X3272325Y-5966984D02*
X3272325Y-6005079D01*
X3567563Y-6243174D02*
X3558039Y-6233650D01*
X3558039Y-6233650D02*
X3538991Y-6205079D01*
X3538991Y-6205079D02*
X3529468Y-6186031D01*
X3529468Y-6186031D02*
X3519944Y-6157460D01*
X3519944Y-6157460D02*
X3510420Y-6109841D01*
X3510420Y-6109841D02*
X3510420Y-6071746D01*
X3510420Y-6071746D02*
X3519944Y-6024127D01*
X3519944Y-6024127D02*
X3529468Y-5995555D01*
X3529468Y-5995555D02*
X3538991Y-5976508D01*
X3538991Y-5976508D02*
X3558039Y-5947936D01*
X3558039Y-5947936D02*
X3567563Y-5938412D01*
X3624706Y-5966984D02*
X3748515Y-5966984D01*
X3748515Y-5966984D02*
X3681848Y-6043174D01*
X3681848Y-6043174D02*
X3710420Y-6043174D01*
X3710420Y-6043174D02*
X3729468Y-6052698D01*
X3729468Y-6052698D02*
X3738991Y-6062222D01*
X3738991Y-6062222D02*
X3748515Y-6081269D01*
X3748515Y-6081269D02*
X3748515Y-6128888D01*
X3748515Y-6128888D02*
X3738991Y-6147936D01*
X3738991Y-6147936D02*
X3729468Y-6157460D01*
X3729468Y-6157460D02*
X3710420Y-6166984D01*
X3710420Y-6166984D02*
X3653277Y-6166984D01*
X3653277Y-6166984D02*
X3634229Y-6157460D01*
X3634229Y-6157460D02*
X3624706Y-6147936D01*
X3938991Y-6166984D02*
X3824706Y-6166984D01*
X3881848Y-6166984D02*
X3881848Y-5966984D01*
X3881848Y-5966984D02*
X3862801Y-5995555D01*
X3862801Y-5995555D02*
X3843753Y-6014603D01*
X3843753Y-6014603D02*
X3824706Y-6024127D01*
X4005658Y-5966984D02*
X4138991Y-5966984D01*
X4138991Y-5966984D02*
X4053277Y-6166984D01*
X4367563Y-6166984D02*
X4367563Y-5966984D01*
X4453277Y-6166984D02*
X4453277Y-6062222D01*
X4453277Y-6062222D02*
X4443753Y-6043174D01*
X4443753Y-6043174D02*
X4424706Y-6033650D01*
X4424706Y-6033650D02*
X4396134Y-6033650D01*
X4396134Y-6033650D02*
X4377087Y-6043174D01*
X4377087Y-6043174D02*
X4367563Y-6052698D01*
X4577087Y-6166984D02*
X4558039Y-6157460D01*
X4558039Y-6157460D02*
X4548515Y-6147936D01*
X4548515Y-6147936D02*
X4538992Y-6128888D01*
X4538992Y-6128888D02*
X4538992Y-6071746D01*
X4538992Y-6071746D02*
X4548515Y-6052698D01*
X4548515Y-6052698D02*
X4558039Y-6043174D01*
X4558039Y-6043174D02*
X4577087Y-6033650D01*
X4577087Y-6033650D02*
X4605658Y-6033650D01*
X4605658Y-6033650D02*
X4624706Y-6043174D01*
X4624706Y-6043174D02*
X4634230Y-6052698D01*
X4634230Y-6052698D02*
X4643753Y-6071746D01*
X4643753Y-6071746D02*
X4643753Y-6128888D01*
X4643753Y-6128888D02*
X4634230Y-6147936D01*
X4634230Y-6147936D02*
X4624706Y-6157460D01*
X4624706Y-6157460D02*
X4605658Y-6166984D01*
X4605658Y-6166984D02*
X4577087Y-6166984D01*
X4758039Y-6166984D02*
X4738992Y-6157460D01*
X4738992Y-6157460D02*
X4729468Y-6138412D01*
X4729468Y-6138412D02*
X4729468Y-5966984D01*
X4910420Y-6157460D02*
X4891373Y-6166984D01*
X4891373Y-6166984D02*
X4853277Y-6166984D01*
X4853277Y-6166984D02*
X4834230Y-6157460D01*
X4834230Y-6157460D02*
X4824706Y-6138412D01*
X4824706Y-6138412D02*
X4824706Y-6062222D01*
X4824706Y-6062222D02*
X4834230Y-6043174D01*
X4834230Y-6043174D02*
X4853277Y-6033650D01*
X4853277Y-6033650D02*
X4891373Y-6033650D01*
X4891373Y-6033650D02*
X4910420Y-6043174D01*
X4910420Y-6043174D02*
X4919944Y-6062222D01*
X4919944Y-6062222D02*
X4919944Y-6081269D01*
X4919944Y-6081269D02*
X4824706Y-6100317D01*
X4996134Y-6157460D02*
X5015182Y-6166984D01*
X5015182Y-6166984D02*
X5053277Y-6166984D01*
X5053277Y-6166984D02*
X5072325Y-6157460D01*
X5072325Y-6157460D02*
X5081849Y-6138412D01*
X5081849Y-6138412D02*
X5081849Y-6128888D01*
X5081849Y-6128888D02*
X5072325Y-6109841D01*
X5072325Y-6109841D02*
X5053277Y-6100317D01*
X5053277Y-6100317D02*
X5024706Y-6100317D01*
X5024706Y-6100317D02*
X5005658Y-6090793D01*
X5005658Y-6090793D02*
X4996134Y-6071746D01*
X4996134Y-6071746D02*
X4996134Y-6062222D01*
X4996134Y-6062222D02*
X5005658Y-6043174D01*
X5005658Y-6043174D02*
X5024706Y-6033650D01*
X5024706Y-6033650D02*
X5053277Y-6033650D01*
X5053277Y-6033650D02*
X5072325Y-6043174D01*
X5148515Y-6243174D02*
X5158039Y-6233650D01*
X5158039Y-6233650D02*
X5177087Y-6205079D01*
X5177087Y-6205079D02*
X5186611Y-6186031D01*
X5186611Y-6186031D02*
X5196134Y-6157460D01*
X5196134Y-6157460D02*
X5205658Y-6109841D01*
X5205658Y-6109841D02*
X5205658Y-6071746D01*
X5205658Y-6071746D02*
X5196134Y-6024127D01*
X5196134Y-6024127D02*
X5186611Y-5995555D01*
X5186611Y-5995555D02*
X5177087Y-5976508D01*
X5177087Y-5976508D02*
X5158039Y-5947936D01*
X5158039Y-5947936D02*
X5148515Y-5938412D01*
D12*
X-16287Y-6360713D02*
X-16287Y-6318287D01*
X-58713Y-6318287D01*
X-58713Y-6360713D01*
X-16287Y-6360713D01*
D11*
X291372Y-6230984D02*
X310420Y-6230984D01*
X310420Y-6230984D02*
X329467Y-6240508D01*
X329467Y-6240508D02*
X338991Y-6250031D01*
X338991Y-6250031D02*
X348515Y-6269079D01*
X348515Y-6269079D02*
X358039Y-6307174D01*
X358039Y-6307174D02*
X358039Y-6354793D01*
X358039Y-6354793D02*
X348515Y-6392888D01*
X348515Y-6392888D02*
X338991Y-6411936D01*
X338991Y-6411936D02*
X329467Y-6421460D01*
X329467Y-6421460D02*
X310420Y-6430984D01*
X310420Y-6430984D02*
X291372Y-6430984D01*
X291372Y-6430984D02*
X272324Y-6421460D01*
X272324Y-6421460D02*
X262801Y-6411936D01*
X262801Y-6411936D02*
X253277Y-6392888D01*
X253277Y-6392888D02*
X243753Y-6354793D01*
X243753Y-6354793D02*
X243753Y-6307174D01*
X243753Y-6307174D02*
X253277Y-6269079D01*
X253277Y-6269079D02*
X262801Y-6250031D01*
X262801Y-6250031D02*
X272324Y-6240508D01*
X272324Y-6240508D02*
X291372Y-6230984D01*
X443753Y-6411936D02*
X453277Y-6421460D01*
X453277Y-6421460D02*
X443753Y-6430984D01*
X443753Y-6430984D02*
X434229Y-6421460D01*
X434229Y-6421460D02*
X443753Y-6411936D01*
X443753Y-6411936D02*
X443753Y-6430984D01*
X624705Y-6230984D02*
X586610Y-6230984D01*
X586610Y-6230984D02*
X567563Y-6240508D01*
X567563Y-6240508D02*
X558039Y-6250031D01*
X558039Y-6250031D02*
X538991Y-6278603D01*
X538991Y-6278603D02*
X529467Y-6316698D01*
X529467Y-6316698D02*
X529467Y-6392888D01*
X529467Y-6392888D02*
X538991Y-6411936D01*
X538991Y-6411936D02*
X548515Y-6421460D01*
X548515Y-6421460D02*
X567563Y-6430984D01*
X567563Y-6430984D02*
X605658Y-6430984D01*
X605658Y-6430984D02*
X624705Y-6421460D01*
X624705Y-6421460D02*
X634229Y-6411936D01*
X634229Y-6411936D02*
X643753Y-6392888D01*
X643753Y-6392888D02*
X643753Y-6345269D01*
X643753Y-6345269D02*
X634229Y-6326222D01*
X634229Y-6326222D02*
X624705Y-6316698D01*
X624705Y-6316698D02*
X605658Y-6307174D01*
X605658Y-6307174D02*
X567563Y-6307174D01*
X567563Y-6307174D02*
X548515Y-6316698D01*
X548515Y-6316698D02*
X538991Y-6326222D01*
X538991Y-6326222D02*
X529467Y-6345269D01*
X767562Y-6230984D02*
X786610Y-6230984D01*
X786610Y-6230984D02*
X805658Y-6240508D01*
X805658Y-6240508D02*
X815182Y-6250031D01*
X815182Y-6250031D02*
X824705Y-6269079D01*
X824705Y-6269079D02*
X834229Y-6307174D01*
X834229Y-6307174D02*
X834229Y-6354793D01*
X834229Y-6354793D02*
X824705Y-6392888D01*
X824705Y-6392888D02*
X815182Y-6411936D01*
X815182Y-6411936D02*
X805658Y-6421460D01*
X805658Y-6421460D02*
X786610Y-6430984D01*
X786610Y-6430984D02*
X767562Y-6430984D01*
X767562Y-6430984D02*
X748515Y-6421460D01*
X748515Y-6421460D02*
X738991Y-6411936D01*
X738991Y-6411936D02*
X729467Y-6392888D01*
X729467Y-6392888D02*
X719943Y-6354793D01*
X719943Y-6354793D02*
X719943Y-6307174D01*
X719943Y-6307174D02*
X729467Y-6269079D01*
X729467Y-6269079D02*
X738991Y-6250031D01*
X738991Y-6250031D02*
X748515Y-6240508D01*
X748515Y-6240508D02*
X767562Y-6230984D01*
X958039Y-6230984D02*
X977086Y-6230984D01*
X977086Y-6230984D02*
X996134Y-6240508D01*
X996134Y-6240508D02*
X1005658Y-6250031D01*
X1005658Y-6250031D02*
X1015182Y-6269079D01*
X1015182Y-6269079D02*
X1024705Y-6307174D01*
X1024705Y-6307174D02*
X1024705Y-6354793D01*
X1024705Y-6354793D02*
X1015182Y-6392888D01*
X1015182Y-6392888D02*
X1005658Y-6411936D01*
X1005658Y-6411936D02*
X996134Y-6421460D01*
X996134Y-6421460D02*
X977086Y-6430984D01*
X977086Y-6430984D02*
X958039Y-6430984D01*
X958039Y-6430984D02*
X938991Y-6421460D01*
X938991Y-6421460D02*
X929467Y-6411936D01*
X929467Y-6411936D02*
X919943Y-6392888D01*
X919943Y-6392888D02*
X910420Y-6354793D01*
X910420Y-6354793D02*
X910420Y-6307174D01*
X910420Y-6307174D02*
X919943Y-6269079D01*
X919943Y-6269079D02*
X929467Y-6250031D01*
X929467Y-6250031D02*
X938991Y-6240508D01*
X938991Y-6240508D02*
X958039Y-6230984D01*
X1110420Y-6430984D02*
X1110420Y-6297650D01*
X1110420Y-6316698D02*
X1119944Y-6307174D01*
X1119944Y-6307174D02*
X1138991Y-6297650D01*
X1138991Y-6297650D02*
X1167563Y-6297650D01*
X1167563Y-6297650D02*
X1186610Y-6307174D01*
X1186610Y-6307174D02*
X1196134Y-6326222D01*
X1196134Y-6326222D02*
X1196134Y-6430984D01*
X1196134Y-6326222D02*
X1205658Y-6307174D01*
X1205658Y-6307174D02*
X1224705Y-6297650D01*
X1224705Y-6297650D02*
X1253277Y-6297650D01*
X1253277Y-6297650D02*
X1272325Y-6307174D01*
X1272325Y-6307174D02*
X1281848Y-6326222D01*
X1281848Y-6326222D02*
X1281848Y-6430984D01*
X1377086Y-6430984D02*
X1377086Y-6297650D01*
X1377086Y-6316698D02*
X1386610Y-6307174D01*
X1386610Y-6307174D02*
X1405658Y-6297650D01*
X1405658Y-6297650D02*
X1434229Y-6297650D01*
X1434229Y-6297650D02*
X1453277Y-6307174D01*
X1453277Y-6307174D02*
X1462801Y-6326222D01*
X1462801Y-6326222D02*
X1462801Y-6430984D01*
X1462801Y-6326222D02*
X1472324Y-6307174D01*
X1472324Y-6307174D02*
X1491372Y-6297650D01*
X1491372Y-6297650D02*
X1519943Y-6297650D01*
X1519943Y-6297650D02*
X1538991Y-6307174D01*
X1538991Y-6307174D02*
X1548515Y-6326222D01*
X1548515Y-6326222D02*
X1548515Y-6430984D01*
X1938991Y-6221460D02*
X1767563Y-6478603D01*
X2196134Y-6230984D02*
X2215182Y-6230984D01*
X2215182Y-6230984D02*
X2234229Y-6240508D01*
X2234229Y-6240508D02*
X2243753Y-6250031D01*
X2243753Y-6250031D02*
X2253277Y-6269079D01*
X2253277Y-6269079D02*
X2262801Y-6307174D01*
X2262801Y-6307174D02*
X2262801Y-6354793D01*
X2262801Y-6354793D02*
X2253277Y-6392888D01*
X2253277Y-6392888D02*
X2243753Y-6411936D01*
X2243753Y-6411936D02*
X2234229Y-6421460D01*
X2234229Y-6421460D02*
X2215182Y-6430984D01*
X2215182Y-6430984D02*
X2196134Y-6430984D01*
X2196134Y-6430984D02*
X2177087Y-6421460D01*
X2177087Y-6421460D02*
X2167563Y-6411936D01*
X2167563Y-6411936D02*
X2158039Y-6392888D01*
X2158039Y-6392888D02*
X2148515Y-6354793D01*
X2148515Y-6354793D02*
X2148515Y-6307174D01*
X2148515Y-6307174D02*
X2158039Y-6269079D01*
X2158039Y-6269079D02*
X2167563Y-6250031D01*
X2167563Y-6250031D02*
X2177087Y-6240508D01*
X2177087Y-6240508D02*
X2196134Y-6230984D01*
X2348515Y-6411936D02*
X2358039Y-6421460D01*
X2358039Y-6421460D02*
X2348515Y-6430984D01*
X2348515Y-6430984D02*
X2338991Y-6421460D01*
X2338991Y-6421460D02*
X2348515Y-6411936D01*
X2348515Y-6411936D02*
X2348515Y-6430984D01*
X2481848Y-6230984D02*
X2500896Y-6230984D01*
X2500896Y-6230984D02*
X2519944Y-6240508D01*
X2519944Y-6240508D02*
X2529468Y-6250031D01*
X2529468Y-6250031D02*
X2538991Y-6269079D01*
X2538991Y-6269079D02*
X2548515Y-6307174D01*
X2548515Y-6307174D02*
X2548515Y-6354793D01*
X2548515Y-6354793D02*
X2538991Y-6392888D01*
X2538991Y-6392888D02*
X2529468Y-6411936D01*
X2529468Y-6411936D02*
X2519944Y-6421460D01*
X2519944Y-6421460D02*
X2500896Y-6430984D01*
X2500896Y-6430984D02*
X2481848Y-6430984D01*
X2481848Y-6430984D02*
X2462801Y-6421460D01*
X2462801Y-6421460D02*
X2453277Y-6411936D01*
X2453277Y-6411936D02*
X2443753Y-6392888D01*
X2443753Y-6392888D02*
X2434229Y-6354793D01*
X2434229Y-6354793D02*
X2434229Y-6307174D01*
X2434229Y-6307174D02*
X2443753Y-6269079D01*
X2443753Y-6269079D02*
X2453277Y-6250031D01*
X2453277Y-6250031D02*
X2462801Y-6240508D01*
X2462801Y-6240508D02*
X2481848Y-6230984D01*
X2624706Y-6250031D02*
X2634229Y-6240508D01*
X2634229Y-6240508D02*
X2653277Y-6230984D01*
X2653277Y-6230984D02*
X2700896Y-6230984D01*
X2700896Y-6230984D02*
X2719944Y-6240508D01*
X2719944Y-6240508D02*
X2729468Y-6250031D01*
X2729468Y-6250031D02*
X2738991Y-6269079D01*
X2738991Y-6269079D02*
X2738991Y-6288127D01*
X2738991Y-6288127D02*
X2729468Y-6316698D01*
X2729468Y-6316698D02*
X2615182Y-6430984D01*
X2615182Y-6430984D02*
X2738991Y-6430984D01*
X2805658Y-6230984D02*
X2929467Y-6230984D01*
X2929467Y-6230984D02*
X2862801Y-6307174D01*
X2862801Y-6307174D02*
X2891372Y-6307174D01*
X2891372Y-6307174D02*
X2910420Y-6316698D01*
X2910420Y-6316698D02*
X2919944Y-6326222D01*
X2919944Y-6326222D02*
X2929467Y-6345269D01*
X2929467Y-6345269D02*
X2929467Y-6392888D01*
X2929467Y-6392888D02*
X2919944Y-6411936D01*
X2919944Y-6411936D02*
X2910420Y-6421460D01*
X2910420Y-6421460D02*
X2891372Y-6430984D01*
X2891372Y-6430984D02*
X2834229Y-6430984D01*
X2834229Y-6430984D02*
X2815182Y-6421460D01*
X2815182Y-6421460D02*
X2805658Y-6411936D01*
X3100896Y-6230984D02*
X3062801Y-6230984D01*
X3062801Y-6230984D02*
X3043753Y-6240508D01*
X3043753Y-6240508D02*
X3034229Y-6250031D01*
X3034229Y-6250031D02*
X3015182Y-6278603D01*
X3015182Y-6278603D02*
X3005658Y-6316698D01*
X3005658Y-6316698D02*
X3005658Y-6392888D01*
X3005658Y-6392888D02*
X3015182Y-6411936D01*
X3015182Y-6411936D02*
X3024706Y-6421460D01*
X3024706Y-6421460D02*
X3043753Y-6430984D01*
X3043753Y-6430984D02*
X3081848Y-6430984D01*
X3081848Y-6430984D02*
X3100896Y-6421460D01*
X3100896Y-6421460D02*
X3110420Y-6411936D01*
X3110420Y-6411936D02*
X3119944Y-6392888D01*
X3119944Y-6392888D02*
X3119944Y-6345269D01*
X3119944Y-6345269D02*
X3110420Y-6326222D01*
X3110420Y-6326222D02*
X3100896Y-6316698D01*
X3100896Y-6316698D02*
X3081848Y-6307174D01*
X3081848Y-6307174D02*
X3043753Y-6307174D01*
X3043753Y-6307174D02*
X3024706Y-6316698D01*
X3024706Y-6316698D02*
X3015182Y-6326222D01*
X3015182Y-6326222D02*
X3005658Y-6345269D01*
X3196134Y-6230984D02*
X3196134Y-6269079D01*
X3272325Y-6230984D02*
X3272325Y-6269079D01*
X3567563Y-6507174D02*
X3558039Y-6497650D01*
X3558039Y-6497650D02*
X3538991Y-6469079D01*
X3538991Y-6469079D02*
X3529468Y-6450031D01*
X3529468Y-6450031D02*
X3519944Y-6421460D01*
X3519944Y-6421460D02*
X3510420Y-6373841D01*
X3510420Y-6373841D02*
X3510420Y-6335746D01*
X3510420Y-6335746D02*
X3519944Y-6288127D01*
X3519944Y-6288127D02*
X3529468Y-6259555D01*
X3529468Y-6259555D02*
X3538991Y-6240508D01*
X3538991Y-6240508D02*
X3558039Y-6211936D01*
X3558039Y-6211936D02*
X3567563Y-6202412D01*
X3681848Y-6230984D02*
X3700896Y-6230984D01*
X3700896Y-6230984D02*
X3719944Y-6240508D01*
X3719944Y-6240508D02*
X3729468Y-6250031D01*
X3729468Y-6250031D02*
X3738991Y-6269079D01*
X3738991Y-6269079D02*
X3748515Y-6307174D01*
X3748515Y-6307174D02*
X3748515Y-6354793D01*
X3748515Y-6354793D02*
X3738991Y-6392888D01*
X3738991Y-6392888D02*
X3729468Y-6411936D01*
X3729468Y-6411936D02*
X3719944Y-6421460D01*
X3719944Y-6421460D02*
X3700896Y-6430984D01*
X3700896Y-6430984D02*
X3681848Y-6430984D01*
X3681848Y-6430984D02*
X3662801Y-6421460D01*
X3662801Y-6421460D02*
X3653277Y-6411936D01*
X3653277Y-6411936D02*
X3643753Y-6392888D01*
X3643753Y-6392888D02*
X3634229Y-6354793D01*
X3634229Y-6354793D02*
X3634229Y-6307174D01*
X3634229Y-6307174D02*
X3643753Y-6269079D01*
X3643753Y-6269079D02*
X3653277Y-6250031D01*
X3653277Y-6250031D02*
X3662801Y-6240508D01*
X3662801Y-6240508D02*
X3681848Y-6230984D01*
X3986610Y-6430984D02*
X3986610Y-6230984D01*
X4072325Y-6430984D02*
X4072325Y-6326222D01*
X4072325Y-6326222D02*
X4062801Y-6307174D01*
X4062801Y-6307174D02*
X4043753Y-6297650D01*
X4043753Y-6297650D02*
X4015182Y-6297650D01*
X4015182Y-6297650D02*
X3996134Y-6307174D01*
X3996134Y-6307174D02*
X3986610Y-6316698D01*
X4196134Y-6430984D02*
X4177087Y-6421460D01*
X4177087Y-6421460D02*
X4167563Y-6411936D01*
X4167563Y-6411936D02*
X4158039Y-6392888D01*
X4158039Y-6392888D02*
X4158039Y-6335746D01*
X4158039Y-6335746D02*
X4167563Y-6316698D01*
X4167563Y-6316698D02*
X4177087Y-6307174D01*
X4177087Y-6307174D02*
X4196134Y-6297650D01*
X4196134Y-6297650D02*
X4224706Y-6297650D01*
X4224706Y-6297650D02*
X4243753Y-6307174D01*
X4243753Y-6307174D02*
X4253277Y-6316698D01*
X4253277Y-6316698D02*
X4262801Y-6335746D01*
X4262801Y-6335746D02*
X4262801Y-6392888D01*
X4262801Y-6392888D02*
X4253277Y-6411936D01*
X4253277Y-6411936D02*
X4243753Y-6421460D01*
X4243753Y-6421460D02*
X4224706Y-6430984D01*
X4224706Y-6430984D02*
X4196134Y-6430984D01*
X4377087Y-6430984D02*
X4358039Y-6421460D01*
X4358039Y-6421460D02*
X4348515Y-6402412D01*
X4348515Y-6402412D02*
X4348515Y-6230984D01*
X4529468Y-6421460D02*
X4510420Y-6430984D01*
X4510420Y-6430984D02*
X4472325Y-6430984D01*
X4472325Y-6430984D02*
X4453277Y-6421460D01*
X4453277Y-6421460D02*
X4443753Y-6402412D01*
X4443753Y-6402412D02*
X4443753Y-6326222D01*
X4443753Y-6326222D02*
X4453277Y-6307174D01*
X4453277Y-6307174D02*
X4472325Y-6297650D01*
X4472325Y-6297650D02*
X4510420Y-6297650D01*
X4510420Y-6297650D02*
X4529468Y-6307174D01*
X4529468Y-6307174D02*
X4538992Y-6326222D01*
X4538992Y-6326222D02*
X4538992Y-6345269D01*
X4538992Y-6345269D02*
X4443753Y-6364317D01*
X4615182Y-6421460D02*
X4634230Y-6430984D01*
X4634230Y-6430984D02*
X4672325Y-6430984D01*
X4672325Y-6430984D02*
X4691373Y-6421460D01*
X4691373Y-6421460D02*
X4700896Y-6402412D01*
X4700896Y-6402412D02*
X4700896Y-6392888D01*
X4700896Y-6392888D02*
X4691373Y-6373841D01*
X4691373Y-6373841D02*
X4672325Y-6364317D01*
X4672325Y-6364317D02*
X4643753Y-6364317D01*
X4643753Y-6364317D02*
X4624706Y-6354793D01*
X4624706Y-6354793D02*
X4615182Y-6335746D01*
X4615182Y-6335746D02*
X4615182Y-6326222D01*
X4615182Y-6326222D02*
X4624706Y-6307174D01*
X4624706Y-6307174D02*
X4643753Y-6297650D01*
X4643753Y-6297650D02*
X4672325Y-6297650D01*
X4672325Y-6297650D02*
X4691373Y-6307174D01*
X4938992Y-6354793D02*
X5091373Y-6354793D01*
X5015182Y-6430984D02*
X5015182Y-6278603D01*
X5424706Y-6297650D02*
X5424706Y-6430984D01*
X5377087Y-6221460D02*
X5329468Y-6364317D01*
X5329468Y-6364317D02*
X5453277Y-6364317D01*
X5672325Y-6421460D02*
X5691373Y-6430984D01*
X5691373Y-6430984D02*
X5729468Y-6430984D01*
X5729468Y-6430984D02*
X5748515Y-6421460D01*
X5748515Y-6421460D02*
X5758039Y-6402412D01*
X5758039Y-6402412D02*
X5758039Y-6392888D01*
X5758039Y-6392888D02*
X5748515Y-6373841D01*
X5748515Y-6373841D02*
X5729468Y-6364317D01*
X5729468Y-6364317D02*
X5700896Y-6364317D01*
X5700896Y-6364317D02*
X5681849Y-6354793D01*
X5681849Y-6354793D02*
X5672325Y-6335746D01*
X5672325Y-6335746D02*
X5672325Y-6326222D01*
X5672325Y-6326222D02*
X5681849Y-6307174D01*
X5681849Y-6307174D02*
X5700896Y-6297650D01*
X5700896Y-6297650D02*
X5729468Y-6297650D01*
X5729468Y-6297650D02*
X5748515Y-6307174D01*
X5872325Y-6430984D02*
X5853277Y-6421460D01*
X5853277Y-6421460D02*
X5843754Y-6402412D01*
X5843754Y-6402412D02*
X5843754Y-6230984D01*
X5977087Y-6430984D02*
X5958039Y-6421460D01*
X5958039Y-6421460D02*
X5948515Y-6411936D01*
X5948515Y-6411936D02*
X5938992Y-6392888D01*
X5938992Y-6392888D02*
X5938992Y-6335746D01*
X5938992Y-6335746D02*
X5948515Y-6316698D01*
X5948515Y-6316698D02*
X5958039Y-6307174D01*
X5958039Y-6307174D02*
X5977087Y-6297650D01*
X5977087Y-6297650D02*
X6005658Y-6297650D01*
X6005658Y-6297650D02*
X6024706Y-6307174D01*
X6024706Y-6307174D02*
X6034230Y-6316698D01*
X6034230Y-6316698D02*
X6043754Y-6335746D01*
X6043754Y-6335746D02*
X6043754Y-6392888D01*
X6043754Y-6392888D02*
X6034230Y-6411936D01*
X6034230Y-6411936D02*
X6024706Y-6421460D01*
X6024706Y-6421460D02*
X6005658Y-6430984D01*
X6005658Y-6430984D02*
X5977087Y-6430984D01*
X6100896Y-6297650D02*
X6177087Y-6297650D01*
X6129468Y-6230984D02*
X6129468Y-6402412D01*
X6129468Y-6402412D02*
X6138992Y-6421460D01*
X6138992Y-6421460D02*
X6158039Y-6430984D01*
X6158039Y-6430984D02*
X6177087Y-6430984D01*
X6234230Y-6421460D02*
X6253277Y-6430984D01*
X6253277Y-6430984D02*
X6291373Y-6430984D01*
X6291373Y-6430984D02*
X6310420Y-6421460D01*
X6310420Y-6421460D02*
X6319944Y-6402412D01*
X6319944Y-6402412D02*
X6319944Y-6392888D01*
X6319944Y-6392888D02*
X6310420Y-6373841D01*
X6310420Y-6373841D02*
X6291373Y-6364317D01*
X6291373Y-6364317D02*
X6262801Y-6364317D01*
X6262801Y-6364317D02*
X6243754Y-6354793D01*
X6243754Y-6354793D02*
X6234230Y-6335746D01*
X6234230Y-6335746D02*
X6234230Y-6326222D01*
X6234230Y-6326222D02*
X6243754Y-6307174D01*
X6243754Y-6307174D02*
X6262801Y-6297650D01*
X6262801Y-6297650D02*
X6291373Y-6297650D01*
X6291373Y-6297650D02*
X6310420Y-6307174D01*
X6386611Y-6507174D02*
X6396135Y-6497650D01*
X6396135Y-6497650D02*
X6415182Y-6469079D01*
X6415182Y-6469079D02*
X6424706Y-6450031D01*
X6424706Y-6450031D02*
X6434230Y-6421460D01*
X6434230Y-6421460D02*
X6443754Y-6373841D01*
X6443754Y-6373841D02*
X6443754Y-6335746D01*
X6443754Y-6335746D02*
X6434230Y-6288127D01*
X6434230Y-6288127D02*
X6424706Y-6259555D01*
X6424706Y-6259555D02*
X6415182Y-6240508D01*
X6415182Y-6240508D02*
X6396135Y-6211936D01*
X6396135Y-6211936D02*
X6386611Y-6202412D01*
M02*
