%TF.GenerationSoftware,KiCad,Pcbnew,10.0.5*%
%TF.CreationDate,2026-09-19T23:40:13+02:00*%
%TF.ProjectId,cicala_rev_a,63696361-6c61-45f7-9265-765f612e6b69,A0*%
%TF.SameCoordinates,Original*%
%TF.FileFunction,Legend,Bot*%
%TF.FilePolarity,Positive*%
%FSLAX46Y46*%
G04 Gerber Fmt 4.6, Leading zero omitted, Abs format (unit mm)*
G04 Created by KiCad (PCBNEW 10.0.5) date 2026-09-19 23:40:13*
%MOMM*%
%LPD*%
G01*
G04 APERTURE LIST*
G04 Aperture macros list*
%AMRoundRect*
0 Rectangle with rounded corners*
0 $1 Rounding radius*
0 $2 $3 $4 $5 $6 $7 $8 $9 X,Y pos of 4 corners*
0 Add a 4 corners polygon primitive as box body*
4,1,4,$2,$3,$4,$5,$6,$7,$8,$9,$2,$3,0*
0 Add four circle primitives for the rounded corners*
1,1,$1+$1,$2,$3*
1,1,$1+$1,$4,$5*
1,1,$1+$1,$6,$7*
1,1,$1+$1,$8,$9*
0 Add four rect primitives between the rounded corners*
20,1,$1+$1,$2,$3,$4,$5,0*
20,1,$1+$1,$4,$5,$6,$7,0*
20,1,$1+$1,$6,$7,$8,$9,0*
20,1,$1+$1,$8,$9,$2,$3,0*%
G04 Aperture macros list end*
%ADD10C,0.000000*%
%ADD11C,0.150000*%
%ADD12C,0.120000*%
%ADD13C,2.700000*%
%ADD14RoundRect,0.200000X-0.200000X-0.275000X0.200000X-0.275000X0.200000X0.275000X-0.200000X0.275000X0*%
%ADD15RoundRect,0.250000X-0.475000X0.250000X-0.475000X-0.250000X0.475000X-0.250000X0.475000X0.250000X0*%
%ADD16RoundRect,0.225000X0.250000X-0.225000X0.250000X0.225000X-0.250000X0.225000X-0.250000X-0.225000X0*%
%ADD17RoundRect,0.200000X0.275000X-0.200000X0.275000X0.200000X-0.275000X0.200000X-0.275000X-0.200000X0*%
%ADD18RoundRect,0.150000X-0.512500X-0.150000X0.512500X-0.150000X0.512500X0.150000X-0.512500X0.150000X0*%
%ADD19RoundRect,0.050000X-0.250000X-0.075000X0.250000X-0.075000X0.250000X0.075000X-0.250000X0.075000X0*%
%ADD20RoundRect,0.050000X-0.400000X-0.075000X0.400000X-0.075000X0.400000X0.075000X-0.400000X0.075000X0*%
%ADD21RoundRect,0.050000X-0.600000X-0.075000X0.600000X-0.075000X0.600000X0.075000X-0.600000X0.075000X0*%
%ADD22C,1.000000*%
%ADD23RoundRect,0.200000X-0.275000X0.200000X-0.275000X-0.200000X0.275000X-0.200000X0.275000X0.200000X0*%
%ADD24RoundRect,0.250000X1.500000X-0.250000X1.500000X0.250000X-1.500000X0.250000X-1.500000X-0.250000X0*%
%ADD25RoundRect,0.250001X1.449999X-0.499999X1.449999X0.499999X-1.449999X0.499999X-1.449999X-0.499999X0*%
%ADD26RoundRect,0.150000X-0.587500X-0.150000X0.587500X-0.150000X0.587500X0.150000X-0.587500X0.150000X0*%
%ADD27RoundRect,0.250000X0.475000X-0.250000X0.475000X0.250000X-0.475000X0.250000X-0.475000X-0.250000X0*%
%ADD28RoundRect,0.098000X1.602000X-0.392000X1.602000X0.392000X-1.602000X0.392000X-1.602000X-0.392000X0*%
%ADD29RoundRect,0.050000X-0.325000X-0.050000X0.325000X-0.050000X0.325000X0.050000X-0.325000X0.050000X0*%
%ADD30R,0.900000X1.500000*%
%ADD31RoundRect,0.067500X0.157500X0.292500X-0.157500X0.292500X-0.157500X-0.292500X0.157500X-0.292500X0*%
%ADD32RoundRect,0.034500X0.155500X0.080500X-0.155500X0.080500X-0.155500X-0.080500X0.155500X-0.080500X0*%
%ADD33RoundRect,0.150000X0.150000X-0.512500X0.150000X0.512500X-0.150000X0.512500X-0.150000X-0.512500X0*%
%ADD34RoundRect,0.150000X-0.687500X-0.125000X0.687500X-0.125000X0.687500X0.125000X-0.687500X0.125000X0*%
%ADD35RoundRect,0.225000X-0.250000X0.225000X-0.250000X-0.225000X0.250000X-0.225000X0.250000X0.225000X0*%
%ADD36C,0.990600*%
%ADD37C,0.787400*%
%ADD38RoundRect,0.225000X-0.225000X-0.250000X0.225000X-0.250000X0.225000X0.250000X-0.225000X0.250000X0*%
%ADD39C,0.650000*%
%ADD40RoundRect,0.150000X0.150000X0.575000X-0.150000X0.575000X-0.150000X-0.575000X0.150000X-0.575000X0*%
%ADD41RoundRect,0.075000X0.075000X0.650000X-0.075000X0.650000X-0.075000X-0.650000X0.075000X-0.650000X0*%
%ADD42O,1.000000X1.600000*%
%ADD43O,1.000000X2.100000*%
%ADD44R,1.500000X0.900000*%
%ADD45C,0.600000*%
%ADD46R,3.900000X3.900000*%
G04 APERTURE END LIST*
D10*
G36*
X36858618Y-1636219D02*
G01*
X36911041Y-2073074D01*
X36526608Y-2134234D01*
X36506533Y-2137244D01*
X36487079Y-2140453D01*
X36468247Y-2143858D01*
X36450038Y-2147461D01*
X36432450Y-2151260D01*
X36415484Y-2155257D01*
X36399139Y-2159451D01*
X36383417Y-2163843D01*
X36368317Y-2168431D01*
X36353838Y-2173217D01*
X36339982Y-2178200D01*
X36326747Y-2183380D01*
X36314135Y-2188757D01*
X36302144Y-2194331D01*
X36290775Y-2200103D01*
X36280028Y-2206072D01*
X36269903Y-2212238D01*
X36260400Y-2218601D01*
X36251519Y-2225161D01*
X36243260Y-2231919D01*
X36235622Y-2238874D01*
X36228607Y-2246026D01*
X36222213Y-2253375D01*
X36216442Y-2260921D01*
X36211095Y-2268938D01*
X36205975Y-2277698D01*
X36201083Y-2287201D01*
X36196419Y-2297447D01*
X36191982Y-2308437D01*
X36187773Y-2320170D01*
X36183791Y-2332646D01*
X36180037Y-2345865D01*
X36176510Y-2359828D01*
X36173211Y-2374534D01*
X36170140Y-2389983D01*
X36167295Y-2406176D01*
X36164679Y-2423111D01*
X36162290Y-2440790D01*
X36160128Y-2459212D01*
X36158194Y-2478378D01*
X36156488Y-2498287D01*
X36155009Y-2518939D01*
X36153758Y-2540334D01*
X36152734Y-2562472D01*
X36151937Y-2585354D01*
X36151368Y-2608979D01*
X36151027Y-2633348D01*
X36150913Y-2658459D01*
X36150913Y-7341541D01*
X36150997Y-7361654D01*
X36151247Y-7381222D01*
X36151664Y-7400243D01*
X36152248Y-7418719D01*
X36152999Y-7436648D01*
X36153917Y-7454031D01*
X36155001Y-7470868D01*
X36156253Y-7487159D01*
X36157671Y-7502904D01*
X36159256Y-7518103D01*
X36161008Y-7532756D01*
X36162927Y-7546863D01*
X36165013Y-7560423D01*
X36167265Y-7573438D01*
X36169685Y-7585906D01*
X36172271Y-7597829D01*
X36175024Y-7609205D01*
X36177944Y-7620036D01*
X36181031Y-7630320D01*
X36184284Y-7640058D01*
X36187705Y-7649250D01*
X36191292Y-7657896D01*
X36195046Y-7665996D01*
X36198967Y-7673550D01*
X36203192Y-7680725D01*
X36207856Y-7687688D01*
X36212960Y-7694438D01*
X36218505Y-7700975D01*
X36224489Y-7707300D01*
X36230912Y-7713413D01*
X36237776Y-7719314D01*
X36245080Y-7725002D01*
X36252823Y-7730478D01*
X36261007Y-7735742D01*
X36269630Y-7740793D01*
X36278693Y-7745631D01*
X36288197Y-7750258D01*
X36298140Y-7754672D01*
X36308522Y-7758874D01*
X36319345Y-7762863D01*
X36330608Y-7766640D01*
X36342310Y-7770205D01*
X36354453Y-7773557D01*
X36367035Y-7776697D01*
X36380057Y-7779624D01*
X36393519Y-7782339D01*
X36407421Y-7784842D01*
X36421763Y-7787133D01*
X36919778Y-7865766D01*
X36919778Y-8285147D01*
X34578237Y-8285147D01*
X34578237Y-7874504D01*
X35058777Y-7787133D01*
X35074537Y-7784099D01*
X35089781Y-7780823D01*
X35104510Y-7777303D01*
X35118723Y-7773542D01*
X35132420Y-7769537D01*
X35145602Y-7765290D01*
X35158267Y-7760800D01*
X35170417Y-7756067D01*
X35182052Y-7751092D01*
X35193170Y-7745874D01*
X35203773Y-7740413D01*
X35213860Y-7734710D01*
X35223432Y-7728764D01*
X35232487Y-7722575D01*
X35241027Y-7716144D01*
X35249051Y-7709470D01*
X35256560Y-7702553D01*
X35263552Y-7695393D01*
X35270029Y-7687991D01*
X35275991Y-7680346D01*
X35281436Y-7672458D01*
X35286366Y-7664328D01*
X35290780Y-7655955D01*
X35294678Y-7647339D01*
X35298243Y-7638496D01*
X35301656Y-7629440D01*
X35304917Y-7620172D01*
X35308027Y-7610692D01*
X35310985Y-7600999D01*
X35313791Y-7591094D01*
X35316445Y-7580977D01*
X35318948Y-7570647D01*
X35321299Y-7560105D01*
X35323499Y-7549350D01*
X35325546Y-7538383D01*
X35327442Y-7527204D01*
X35329187Y-7515813D01*
X35330779Y-7504209D01*
X35332221Y-7492392D01*
X35333510Y-7480364D01*
X35334647Y-7468123D01*
X35335633Y-7455669D01*
X35336468Y-7443003D01*
X35337150Y-7430125D01*
X35337681Y-7417035D01*
X35338060Y-7403732D01*
X35338288Y-7390217D01*
X35338364Y-7376489D01*
X35338364Y-1688642D01*
X35434472Y-1592534D01*
X36858618Y-1636219D01*
G37*
G36*
X47902303Y-3899126D02*
G01*
X47963463Y-4327244D01*
X47544083Y-4388403D01*
X47527587Y-4390724D01*
X47511592Y-4393318D01*
X47496097Y-4396185D01*
X47481103Y-4399325D01*
X47466609Y-4402738D01*
X47452616Y-4406424D01*
X47439124Y-4410383D01*
X47426132Y-4414615D01*
X47413641Y-4419120D01*
X47401650Y-4423898D01*
X47390160Y-4428949D01*
X47379170Y-4434273D01*
X47368681Y-4439870D01*
X47358692Y-4445741D01*
X47349204Y-4451884D01*
X47340217Y-4458300D01*
X47331730Y-4464990D01*
X47323744Y-4471952D01*
X47316258Y-4479187D01*
X47309273Y-4486696D01*
X47302789Y-4494477D01*
X47296805Y-4502532D01*
X47291321Y-4510859D01*
X47286338Y-4519460D01*
X47281704Y-4528561D01*
X47277268Y-4538390D01*
X47273028Y-4548948D01*
X47268986Y-4560233D01*
X47265140Y-4572246D01*
X47261492Y-4584988D01*
X47258041Y-4598458D01*
X47254788Y-4612656D01*
X47251731Y-4627581D01*
X47248872Y-4643235D01*
X47246210Y-4659617D01*
X47243745Y-4676728D01*
X47241477Y-4694566D01*
X47239407Y-4713132D01*
X47237534Y-4732427D01*
X47235857Y-4752449D01*
X47234378Y-4773200D01*
X47233097Y-4794678D01*
X47232012Y-4816885D01*
X47231125Y-4839820D01*
X47230435Y-4863483D01*
X47229942Y-4887874D01*
X47229646Y-4912993D01*
X47229547Y-4938840D01*
X47229547Y-7341541D01*
X47229631Y-7361654D01*
X47229881Y-7381222D01*
X47230298Y-7400243D01*
X47230882Y-7418719D01*
X47231633Y-7436648D01*
X47232551Y-7454031D01*
X47233635Y-7470868D01*
X47234887Y-7487159D01*
X47236305Y-7502904D01*
X47237890Y-7518103D01*
X47239642Y-7532756D01*
X47241561Y-7546863D01*
X47243646Y-7560423D01*
X47245899Y-7573438D01*
X47248318Y-7585906D01*
X47250905Y-7597829D01*
X47253658Y-7609205D01*
X47256578Y-7620036D01*
X47259664Y-7630320D01*
X47262918Y-7640058D01*
X47266339Y-7649250D01*
X47269926Y-7657896D01*
X47273680Y-7665996D01*
X47277601Y-7673550D01*
X47281826Y-7680725D01*
X47286490Y-7687688D01*
X47291594Y-7694438D01*
X47297138Y-7700975D01*
X47303122Y-7707300D01*
X47309546Y-7713413D01*
X47316410Y-7719314D01*
X47323714Y-7725002D01*
X47331457Y-7730478D01*
X47339641Y-7735742D01*
X47348264Y-7740793D01*
X47357327Y-7745631D01*
X47366830Y-7750258D01*
X47376773Y-7754672D01*
X47387156Y-7758874D01*
X47397979Y-7762863D01*
X47409242Y-7766640D01*
X47420944Y-7770205D01*
X47433087Y-7773557D01*
X47445669Y-7776697D01*
X47458691Y-7779624D01*
X47472153Y-7782339D01*
X47486055Y-7784842D01*
X47500397Y-7787133D01*
X47998411Y-7865766D01*
X47998411Y-8285147D01*
X45648133Y-8285147D01*
X45648133Y-7874504D01*
X46137411Y-7787133D01*
X46153171Y-7784099D01*
X46168415Y-7780823D01*
X46183144Y-7777303D01*
X46197357Y-7773542D01*
X46211054Y-7769537D01*
X46224236Y-7765290D01*
X46236901Y-7760800D01*
X46249051Y-7756067D01*
X46260686Y-7751092D01*
X46271804Y-7745874D01*
X46282407Y-7740413D01*
X46292494Y-7734710D01*
X46302065Y-7728764D01*
X46311121Y-7722575D01*
X46319661Y-7716144D01*
X46327685Y-7709470D01*
X46335194Y-7702553D01*
X46342186Y-7695393D01*
X46348663Y-7687991D01*
X46354624Y-7680346D01*
X46360070Y-7672458D01*
X46365000Y-7664328D01*
X46369414Y-7655955D01*
X46373312Y-7647339D01*
X46376877Y-7638496D01*
X46380290Y-7629440D01*
X46383551Y-7620172D01*
X46386660Y-7610692D01*
X46389618Y-7600999D01*
X46392425Y-7591094D01*
X46395079Y-7580977D01*
X46397582Y-7570647D01*
X46399933Y-7560105D01*
X46402132Y-7549350D01*
X46404180Y-7538383D01*
X46406076Y-7527204D01*
X46407821Y-7515813D01*
X46409413Y-7504209D01*
X46410854Y-7492392D01*
X46412144Y-7480364D01*
X46413281Y-7468123D01*
X46414267Y-7455669D01*
X46415102Y-7443003D01*
X46415784Y-7430125D01*
X46416315Y-7417035D01*
X46416694Y-7403732D01*
X46416922Y-7390217D01*
X46416998Y-7376489D01*
X46416998Y-3872915D01*
X46521843Y-3829230D01*
X47902303Y-3899126D01*
G37*
G36*
X46970923Y-1706404D02*
G01*
X46991583Y-1707269D01*
X47011939Y-1708710D01*
X47031992Y-1710727D01*
X47051741Y-1713321D01*
X47071187Y-1716491D01*
X47090330Y-1720238D01*
X47109170Y-1724561D01*
X47127706Y-1729460D01*
X47145938Y-1734936D01*
X47163867Y-1740988D01*
X47181493Y-1747617D01*
X47198816Y-1754822D01*
X47215835Y-1762604D01*
X47232551Y-1770962D01*
X47248963Y-1779896D01*
X47265072Y-1789407D01*
X47280878Y-1799494D01*
X47296380Y-1810157D01*
X47311579Y-1821397D01*
X47326474Y-1833213D01*
X47341067Y-1845606D01*
X47355355Y-1858575D01*
X47369341Y-1872121D01*
X47382886Y-1886106D01*
X47395855Y-1900395D01*
X47408248Y-1914987D01*
X47420064Y-1929883D01*
X47431304Y-1945082D01*
X47441968Y-1960584D01*
X47452055Y-1976389D01*
X47461566Y-1992498D01*
X47470500Y-2008911D01*
X47478858Y-2025627D01*
X47486639Y-2042646D01*
X47493844Y-2059968D01*
X47500473Y-2077594D01*
X47506525Y-2095523D01*
X47512001Y-2113756D01*
X47516901Y-2132292D01*
X47521224Y-2151131D01*
X47524970Y-2170274D01*
X47528140Y-2189720D01*
X47530734Y-2209470D01*
X47532752Y-2229522D01*
X47534193Y-2249879D01*
X47535057Y-2270538D01*
X47535346Y-2291501D01*
X47535057Y-2312457D01*
X47534193Y-2333093D01*
X47532752Y-2353412D01*
X47530734Y-2373411D01*
X47528140Y-2393093D01*
X47524970Y-2412455D01*
X47521224Y-2431499D01*
X47516901Y-2450225D01*
X47512001Y-2468632D01*
X47506525Y-2486721D01*
X47500473Y-2504491D01*
X47493844Y-2521942D01*
X47486639Y-2539075D01*
X47478858Y-2555889D01*
X47470500Y-2572385D01*
X47461566Y-2588562D01*
X47452055Y-2604421D01*
X47441968Y-2619961D01*
X47431304Y-2635183D01*
X47420064Y-2650086D01*
X47408248Y-2664671D01*
X47395855Y-2678937D01*
X47382886Y-2692884D01*
X47369341Y-2706513D01*
X47355355Y-2719702D01*
X47341067Y-2732330D01*
X47326474Y-2744397D01*
X47311579Y-2755902D01*
X47296380Y-2766846D01*
X47280878Y-2777229D01*
X47265072Y-2787051D01*
X47248963Y-2796311D01*
X47232551Y-2805010D01*
X47215835Y-2813148D01*
X47198816Y-2820725D01*
X47181493Y-2827740D01*
X47163867Y-2834194D01*
X47145938Y-2840087D01*
X47127706Y-2845419D01*
X47109170Y-2850190D01*
X47090330Y-2854399D01*
X47071187Y-2858047D01*
X47051741Y-2861134D01*
X47031992Y-2863659D01*
X47011939Y-2865624D01*
X46991583Y-2867027D01*
X46970923Y-2867869D01*
X46949960Y-2868149D01*
X46928284Y-2867861D01*
X46906942Y-2866997D01*
X46885934Y-2865556D01*
X46865259Y-2863538D01*
X46844918Y-2860944D01*
X46824911Y-2857774D01*
X46805237Y-2854027D01*
X46785897Y-2849704D01*
X46766891Y-2844805D01*
X46748218Y-2839329D01*
X46729880Y-2833277D01*
X46711875Y-2826648D01*
X46694203Y-2819443D01*
X46676865Y-2811662D01*
X46659861Y-2803304D01*
X46643191Y-2794369D01*
X46626855Y-2784859D01*
X46610852Y-2774772D01*
X46595183Y-2764108D01*
X46579847Y-2752868D01*
X46564846Y-2741052D01*
X46550178Y-2728659D01*
X46535843Y-2715690D01*
X46521843Y-2702145D01*
X46508297Y-2688159D01*
X46495328Y-2673870D01*
X46482935Y-2659278D01*
X46471119Y-2644383D01*
X46459879Y-2629184D01*
X46449216Y-2613681D01*
X46439129Y-2597876D01*
X46429618Y-2581767D01*
X46420684Y-2565354D01*
X46412326Y-2548639D01*
X46404544Y-2531620D01*
X46397339Y-2514297D01*
X46390710Y-2496671D01*
X46384658Y-2478742D01*
X46379182Y-2460509D01*
X46374283Y-2441973D01*
X46369960Y-2423134D01*
X46366213Y-2403991D01*
X46363043Y-2384545D01*
X46360449Y-2364796D01*
X46358432Y-2344743D01*
X46356991Y-2324387D01*
X46356126Y-2303727D01*
X46355838Y-2282764D01*
X46356126Y-2261809D01*
X46356991Y-2241172D01*
X46358432Y-2220854D01*
X46360449Y-2200854D01*
X46363043Y-2181173D01*
X46366213Y-2161810D01*
X46369960Y-2142766D01*
X46374283Y-2124040D01*
X46379182Y-2105633D01*
X46384658Y-2087545D01*
X46390710Y-2069775D01*
X46397339Y-2052323D01*
X46404544Y-2035190D01*
X46412326Y-2018376D01*
X46420684Y-2001880D01*
X46429618Y-1985703D01*
X46439129Y-1969844D01*
X46449216Y-1954304D01*
X46459879Y-1939082D01*
X46471119Y-1924179D01*
X46482935Y-1909595D01*
X46495328Y-1895329D01*
X46508297Y-1881381D01*
X46521843Y-1867752D01*
X46535843Y-1854563D01*
X46550178Y-1841935D01*
X46564846Y-1829869D01*
X46579847Y-1818363D01*
X46595183Y-1807419D01*
X46610852Y-1797036D01*
X46626855Y-1787215D01*
X46643191Y-1777954D01*
X46659861Y-1769255D01*
X46676865Y-1761117D01*
X46694203Y-1753540D01*
X46711875Y-1746525D01*
X46729880Y-1740071D01*
X46748218Y-1734178D01*
X46766891Y-1728846D01*
X46785897Y-1724076D01*
X46805237Y-1719866D01*
X46824911Y-1716218D01*
X46844918Y-1713131D01*
X46865259Y-1710606D01*
X46885934Y-1708642D01*
X46906942Y-1707238D01*
X46928284Y-1706397D01*
X46949960Y-1706116D01*
X46970923Y-1706404D01*
G37*
G36*
X43263362Y-3733637D02*
G01*
X43315694Y-3735184D01*
X43367479Y-3737763D01*
X43418719Y-3741373D01*
X43469412Y-3746015D01*
X43519559Y-3751688D01*
X43569160Y-3758392D01*
X43618216Y-3766128D01*
X43666725Y-3774896D01*
X43714688Y-3784695D01*
X43762105Y-3795525D01*
X43808975Y-3807387D01*
X43855300Y-3820280D01*
X43901079Y-3834205D01*
X43946312Y-3849161D01*
X43990998Y-3865149D01*
X44035139Y-3882168D01*
X44078733Y-3900218D01*
X44121782Y-3919300D01*
X44164284Y-3939414D01*
X44206240Y-3960559D01*
X44247650Y-3982735D01*
X44288514Y-4005943D01*
X44328832Y-4030183D01*
X44368506Y-4055355D01*
X44407436Y-4081361D01*
X44445623Y-4108202D01*
X44483066Y-4135877D01*
X44519767Y-4164387D01*
X44555724Y-4193730D01*
X44590938Y-4223908D01*
X44625408Y-4254920D01*
X44659135Y-4286767D01*
X44692120Y-4319447D01*
X44724360Y-4352962D01*
X44755858Y-4387311D01*
X44786612Y-4422495D01*
X44816623Y-4458513D01*
X44845891Y-4495365D01*
X44874415Y-4533051D01*
X44902197Y-4571571D01*
X44929235Y-4610926D01*
X44955529Y-4651115D01*
X44981081Y-4692139D01*
X45005889Y-4733996D01*
X45029954Y-4776688D01*
X45053275Y-4820215D01*
X45075854Y-4864575D01*
X45097598Y-4909679D01*
X45118417Y-4955435D01*
X45138310Y-5001843D01*
X45157279Y-5048903D01*
X45175322Y-5096616D01*
X45192439Y-5144981D01*
X45208632Y-5193998D01*
X45223899Y-5243668D01*
X45238241Y-5293990D01*
X45251658Y-5344963D01*
X45264149Y-5396590D01*
X45275715Y-5448868D01*
X45286356Y-5501799D01*
X45296071Y-5555382D01*
X45304861Y-5609617D01*
X45312726Y-5664504D01*
X45319666Y-5720044D01*
X45325680Y-5776236D01*
X45330769Y-5833080D01*
X45334933Y-5890577D01*
X45338171Y-5948725D01*
X45340485Y-6007526D01*
X45341873Y-6066980D01*
X45342335Y-6127085D01*
X45341895Y-6185006D01*
X45340576Y-6242275D01*
X45338376Y-6298892D01*
X45335297Y-6354856D01*
X45331338Y-6410168D01*
X45326499Y-6464828D01*
X45320781Y-6518836D01*
X45314182Y-6572191D01*
X45306704Y-6624895D01*
X45298346Y-6676945D01*
X45289109Y-6728344D01*
X45278991Y-6779091D01*
X45267994Y-6829185D01*
X45256117Y-6878627D01*
X45243360Y-6927416D01*
X45229724Y-6975554D01*
X45215207Y-7023039D01*
X45199811Y-7069872D01*
X45183535Y-7116053D01*
X45166380Y-7161581D01*
X45148344Y-7206457D01*
X45129429Y-7250681D01*
X45109634Y-7294253D01*
X45088959Y-7337172D01*
X45067481Y-7379364D01*
X45045274Y-7420751D01*
X45022339Y-7461335D01*
X44998676Y-7501114D01*
X44974285Y-7540090D01*
X44949166Y-7578262D01*
X44923319Y-7615629D01*
X44896743Y-7652193D01*
X44869440Y-7687953D01*
X44841409Y-7722909D01*
X44812649Y-7757061D01*
X44783161Y-7790409D01*
X44752945Y-7822953D01*
X44722002Y-7854693D01*
X44690330Y-7885630D01*
X44657930Y-7915762D01*
X44624801Y-7945090D01*
X44590945Y-7973615D01*
X44556361Y-8001336D01*
X44521048Y-8028252D01*
X44485008Y-8054365D01*
X44448239Y-8079674D01*
X44410743Y-8104178D01*
X44372518Y-8127879D01*
X44333641Y-8150693D01*
X44294187Y-8172536D01*
X44254158Y-8193407D01*
X44213551Y-8213309D01*
X44172369Y-8232239D01*
X44130610Y-8250199D01*
X44088274Y-8267187D01*
X44045362Y-8283205D01*
X44001874Y-8298253D01*
X43957809Y-8312329D01*
X43913168Y-8325435D01*
X43867951Y-8337569D01*
X43822157Y-8348734D01*
X43775787Y-8358927D01*
X43728840Y-8368149D01*
X43681317Y-8376401D01*
X43633217Y-8383682D01*
X43584541Y-8389992D01*
X43535289Y-8395331D01*
X43485460Y-8399700D01*
X43435055Y-8403098D01*
X43384074Y-8405525D01*
X43332516Y-8406981D01*
X43280381Y-8407466D01*
X43239699Y-8407079D01*
X43199199Y-8405919D01*
X43158881Y-8403985D01*
X43118745Y-8401277D01*
X43078791Y-8397796D01*
X43039019Y-8393542D01*
X42999429Y-8388513D01*
X42960021Y-8382711D01*
X42920795Y-8376136D01*
X42881751Y-8368786D01*
X42842890Y-8360664D01*
X42804210Y-8351767D01*
X42765712Y-8342097D01*
X42727396Y-8331654D01*
X42689262Y-8320437D01*
X42651311Y-8308446D01*
X42613541Y-8295682D01*
X42575953Y-8282144D01*
X42538547Y-8267832D01*
X42501324Y-8252747D01*
X42464282Y-8236888D01*
X42427423Y-8220256D01*
X42390745Y-8202850D01*
X42354249Y-8184670D01*
X42318118Y-8165823D01*
X42282532Y-8146415D01*
X42247493Y-8126446D01*
X42213000Y-8105915D01*
X42179052Y-8084823D01*
X42145651Y-8063170D01*
X42112796Y-8040956D01*
X42080487Y-8018180D01*
X42048724Y-7994843D01*
X42017507Y-7970945D01*
X41986836Y-7946486D01*
X41956712Y-7921465D01*
X41927133Y-7895884D01*
X41898100Y-7869741D01*
X41869614Y-7843036D01*
X41841673Y-7815771D01*
X41814279Y-7787944D01*
X41787431Y-7759556D01*
X41761128Y-7730607D01*
X41735372Y-7701097D01*
X41710162Y-7671025D01*
X41685498Y-7640392D01*
X41661380Y-7609198D01*
X41637808Y-7577442D01*
X41934869Y-7280381D01*
X41953193Y-7298409D01*
X41971759Y-7316088D01*
X41990568Y-7333418D01*
X42009620Y-7350399D01*
X42028914Y-7367032D01*
X42048451Y-7383315D01*
X42068231Y-7399250D01*
X42088253Y-7414835D01*
X42108519Y-7430072D01*
X42129027Y-7444960D01*
X42149777Y-7459499D01*
X42170770Y-7473689D01*
X42192006Y-7487531D01*
X42213485Y-7501023D01*
X42235207Y-7514167D01*
X42257171Y-7526961D01*
X42279377Y-7539407D01*
X42301827Y-7551504D01*
X42324519Y-7563252D01*
X42347454Y-7574651D01*
X42370631Y-7585702D01*
X42394052Y-7596403D01*
X42417715Y-7606756D01*
X42441620Y-7616759D01*
X42465723Y-7626384D01*
X42489978Y-7635599D01*
X42514384Y-7644404D01*
X42538942Y-7652800D01*
X42563651Y-7660786D01*
X42588513Y-7668363D01*
X42613526Y-7675530D01*
X42638690Y-7682288D01*
X42664007Y-7688636D01*
X42689475Y-7694574D01*
X42715094Y-7700103D01*
X42740866Y-7705222D01*
X42766789Y-7709932D01*
X42792864Y-7714233D01*
X42819090Y-7718123D01*
X42845468Y-7721604D01*
X42871998Y-7724676D01*
X42898680Y-7727338D01*
X42925513Y-7729591D01*
X42952498Y-7731434D01*
X42979634Y-7732867D01*
X43006922Y-7733891D01*
X43034362Y-7734505D01*
X43061954Y-7734710D01*
X43115362Y-7733876D01*
X43167831Y-7731373D01*
X43219358Y-7727202D01*
X43269945Y-7721362D01*
X43319592Y-7713853D01*
X43368298Y-7704676D01*
X43416064Y-7693831D01*
X43462889Y-7681317D01*
X43508774Y-7667134D01*
X43553719Y-7651283D01*
X43597723Y-7633763D01*
X43640786Y-7614575D01*
X43682909Y-7593718D01*
X43724092Y-7571193D01*
X43764334Y-7546999D01*
X43803636Y-7521137D01*
X43841997Y-7493606D01*
X43879418Y-7464406D01*
X43915899Y-7433538D01*
X43951439Y-7401002D01*
X43986038Y-7366797D01*
X44019697Y-7330923D01*
X44052416Y-7293381D01*
X44084194Y-7254170D01*
X44114849Y-7213518D01*
X44144201Y-7171653D01*
X44172247Y-7128574D01*
X44198989Y-7084282D01*
X44224427Y-7038776D01*
X44248560Y-6992057D01*
X44271389Y-6944125D01*
X44292913Y-6894978D01*
X44313133Y-6844619D01*
X44332048Y-6793046D01*
X44349659Y-6740259D01*
X44365965Y-6686259D01*
X44380967Y-6631045D01*
X44394664Y-6574618D01*
X44407057Y-6516978D01*
X44418145Y-6458124D01*
X44427929Y-6398056D01*
X44436408Y-6336775D01*
X44443583Y-6274281D01*
X44449453Y-6210573D01*
X44454019Y-6145651D01*
X44457280Y-6079516D01*
X44459237Y-6012168D01*
X44459889Y-5943606D01*
X44459623Y-5900869D01*
X44458827Y-5858571D01*
X44457500Y-5816713D01*
X44455642Y-5775296D01*
X44453253Y-5734318D01*
X44450333Y-5693780D01*
X44446882Y-5653682D01*
X44442900Y-5614023D01*
X44438387Y-5574805D01*
X44433344Y-5536027D01*
X44427769Y-5497688D01*
X44421664Y-5459790D01*
X44415028Y-5422331D01*
X44407861Y-5385312D01*
X44400163Y-5348733D01*
X44391934Y-5312594D01*
X44383174Y-5276895D01*
X44373883Y-5241635D01*
X44364061Y-5206816D01*
X44353709Y-5172436D01*
X44342825Y-5138497D01*
X44331411Y-5104997D01*
X44319466Y-5071937D01*
X44306990Y-5039317D01*
X44294051Y-5007213D01*
X44280718Y-4975700D01*
X44266990Y-4944779D01*
X44252868Y-4914449D01*
X44238352Y-4884711D01*
X44223441Y-4855565D01*
X44208136Y-4827010D01*
X44192437Y-4799047D01*
X44176343Y-4771675D01*
X44159855Y-4744895D01*
X44142972Y-4718707D01*
X44125695Y-4693110D01*
X44108024Y-4668104D01*
X44089958Y-4643690D01*
X44071498Y-4619868D01*
X44052643Y-4596638D01*
X44033394Y-4573998D01*
X44013751Y-4551951D01*
X43993713Y-4530495D01*
X43973281Y-4509631D01*
X43952455Y-4489358D01*
X43931234Y-4469677D01*
X43909619Y-4450587D01*
X43887609Y-4432089D01*
X43865274Y-4414266D01*
X43842680Y-4397201D01*
X43819828Y-4380895D01*
X43796719Y-4365347D01*
X43773352Y-4350558D01*
X43749727Y-4336527D01*
X43725844Y-4323255D01*
X43701703Y-4310740D01*
X43677305Y-4298985D01*
X43652648Y-4287988D01*
X43627734Y-4277749D01*
X43602562Y-4268268D01*
X43577131Y-4259547D01*
X43551443Y-4251583D01*
X43525498Y-4244378D01*
X43499294Y-4237931D01*
X43472832Y-4232243D01*
X43446113Y-4227313D01*
X43419136Y-4223142D01*
X43391901Y-4219729D01*
X43364408Y-4217075D01*
X43336657Y-4215178D01*
X43308648Y-4214041D01*
X43280381Y-4213662D01*
X43257977Y-4213737D01*
X43235907Y-4213965D01*
X43214170Y-4214344D01*
X43192768Y-4214875D01*
X43171698Y-4215558D01*
X43150963Y-4216392D01*
X43130561Y-4217378D01*
X43110493Y-4218516D01*
X43090759Y-4219805D01*
X43071358Y-4221246D01*
X43052292Y-4222839D01*
X43033558Y-4224583D01*
X43015159Y-4226479D01*
X42997093Y-4228527D01*
X42979361Y-4230726D01*
X42961963Y-4233077D01*
X42944898Y-4235580D01*
X42928167Y-4238235D01*
X42911770Y-4241041D01*
X42895706Y-4243999D01*
X42879977Y-4247108D01*
X42864581Y-4250370D01*
X42849518Y-4253782D01*
X42834790Y-4257347D01*
X42820243Y-4261124D01*
X42805727Y-4265174D01*
X42791241Y-4269497D01*
X42776785Y-4274093D01*
X42762360Y-4278962D01*
X42747965Y-4284104D01*
X42733600Y-4289520D01*
X42719266Y-4295208D01*
X42704962Y-4301169D01*
X42690688Y-4307403D01*
X42676445Y-4313911D01*
X42662232Y-4320691D01*
X42648049Y-4327744D01*
X42633897Y-4335071D01*
X42619775Y-4342670D01*
X42605684Y-4350543D01*
X42591622Y-4358688D01*
X42577591Y-4367107D01*
X42563591Y-4375798D01*
X42549621Y-4384763D01*
X42535681Y-4394001D01*
X42521771Y-4403511D01*
X42507892Y-4413295D01*
X42494043Y-4423352D01*
X42505541Y-4442115D01*
X42516735Y-4460545D01*
X42527626Y-4478641D01*
X42538214Y-4496404D01*
X42548498Y-4513832D01*
X42558479Y-4530927D01*
X42568156Y-4547689D01*
X42577531Y-4564116D01*
X42586601Y-4580210D01*
X42595369Y-4595970D01*
X42603833Y-4611397D01*
X42611994Y-4626489D01*
X42619851Y-4641248D01*
X42627405Y-4655674D01*
X42634655Y-4669765D01*
X42641603Y-4683523D01*
X42648247Y-4696947D01*
X42654587Y-4710038D01*
X42660624Y-4722794D01*
X42666358Y-4735218D01*
X42671788Y-4747307D01*
X42676915Y-4759063D01*
X42681739Y-4770484D01*
X42686259Y-4781573D01*
X42690536Y-4792449D01*
X42694632Y-4803233D01*
X42698545Y-4813927D01*
X42702277Y-4824530D01*
X42705826Y-4835042D01*
X42709194Y-4845463D01*
X42712379Y-4855792D01*
X42715383Y-4866031D01*
X42718204Y-4876179D01*
X42720843Y-4886236D01*
X42723301Y-4896202D01*
X42725576Y-4906076D01*
X42727669Y-4915860D01*
X42729580Y-4925553D01*
X42731310Y-4935154D01*
X42732857Y-4944665D01*
X42734222Y-4954085D01*
X42735405Y-4963413D01*
X42736406Y-4972651D01*
X42737225Y-4981798D01*
X42737862Y-4990853D01*
X42738317Y-4999818D01*
X42738590Y-5008692D01*
X42738681Y-5017474D01*
X42738446Y-5033356D01*
X42737741Y-5048964D01*
X42736565Y-5064300D01*
X42734920Y-5079362D01*
X42732804Y-5094151D01*
X42730217Y-5108668D01*
X42727161Y-5122911D01*
X42723634Y-5136881D01*
X42719637Y-5150578D01*
X42715170Y-5164003D01*
X42710233Y-5177154D01*
X42704825Y-5190032D01*
X42698947Y-5202637D01*
X42692599Y-5214969D01*
X42685781Y-5227028D01*
X42678493Y-5238814D01*
X42670734Y-5250327D01*
X42662505Y-5261567D01*
X42653806Y-5272534D01*
X42644636Y-5283227D01*
X42634997Y-5293648D01*
X42624887Y-5303796D01*
X42614307Y-5313671D01*
X42603257Y-5323272D01*
X42591782Y-5332540D01*
X42579927Y-5341414D01*
X42567694Y-5349893D01*
X42555081Y-5357978D01*
X42542089Y-5365669D01*
X42528718Y-5372965D01*
X42514968Y-5379866D01*
X42500838Y-5386374D01*
X42486330Y-5392487D01*
X42471442Y-5398205D01*
X42456175Y-5403529D01*
X42440528Y-5408459D01*
X42424503Y-5412994D01*
X42408098Y-5417136D01*
X42391314Y-5420882D01*
X42374151Y-5424234D01*
X42356608Y-5427192D01*
X42338686Y-5429756D01*
X42320386Y-5431925D01*
X42301705Y-5433700D01*
X42282646Y-5435080D01*
X42263208Y-5436066D01*
X42243390Y-5436657D01*
X42223193Y-5436855D01*
X42208707Y-5436733D01*
X42194373Y-5436369D01*
X42180190Y-5435763D01*
X42166159Y-5434913D01*
X42152280Y-5433821D01*
X42138552Y-5432486D01*
X42124977Y-5430909D01*
X42111552Y-5429088D01*
X42098280Y-5427025D01*
X42085159Y-5424720D01*
X42072190Y-5422171D01*
X42059373Y-5419380D01*
X42046707Y-5416347D01*
X42034193Y-5413070D01*
X42021830Y-5409551D01*
X42009620Y-5405789D01*
X41997561Y-5401785D01*
X41985653Y-5397538D01*
X41973898Y-5393048D01*
X41962294Y-5388315D01*
X41950841Y-5383340D01*
X41939541Y-5378122D01*
X41928392Y-5372661D01*
X41917395Y-5366958D01*
X41906580Y-5361035D01*
X41895977Y-5354914D01*
X41885586Y-5348596D01*
X41875408Y-5342081D01*
X41865442Y-5335369D01*
X41855689Y-5328460D01*
X41846148Y-5321354D01*
X41836819Y-5314050D01*
X41827703Y-5306549D01*
X41818799Y-5298851D01*
X41810108Y-5290956D01*
X41801628Y-5282863D01*
X41793361Y-5274574D01*
X41785307Y-5266087D01*
X41777465Y-5257403D01*
X41769835Y-5248522D01*
X41762418Y-5239443D01*
X41755212Y-5230168D01*
X41748220Y-5220695D01*
X41741439Y-5211025D01*
X41734871Y-5201158D01*
X41728516Y-5191094D01*
X41722373Y-5180832D01*
X41716442Y-5170373D01*
X41710738Y-5159733D01*
X41705278Y-5148925D01*
X41700060Y-5137951D01*
X41695084Y-5126809D01*
X41690352Y-5115501D01*
X41685862Y-5104026D01*
X41681615Y-5092384D01*
X41677610Y-5080575D01*
X41673848Y-5068600D01*
X41670329Y-5056457D01*
X41667053Y-5044148D01*
X41664019Y-5031672D01*
X41661228Y-5019029D01*
X41658680Y-5006219D01*
X41656374Y-4993242D01*
X41654311Y-4980099D01*
X41652491Y-4966788D01*
X41650913Y-4953311D01*
X41649579Y-4939667D01*
X41648486Y-4925856D01*
X41647637Y-4911878D01*
X41647030Y-4897734D01*
X41646666Y-4883422D01*
X41646545Y-4868944D01*
X41646901Y-4842118D01*
X41647971Y-4815520D01*
X41649753Y-4789149D01*
X41652248Y-4763006D01*
X41655456Y-4737091D01*
X41659377Y-4711403D01*
X41664011Y-4685942D01*
X41669358Y-4660710D01*
X41675418Y-4635704D01*
X41682191Y-4610926D01*
X41689677Y-4586376D01*
X41697875Y-4562053D01*
X41706787Y-4537958D01*
X41716411Y-4514090D01*
X41726749Y-4490450D01*
X41737799Y-4467037D01*
X41749562Y-4443852D01*
X41762038Y-4420895D01*
X41775227Y-4398164D01*
X41789129Y-4375662D01*
X41803744Y-4353387D01*
X41819072Y-4331339D01*
X41835113Y-4309519D01*
X41851867Y-4287927D01*
X41869235Y-4266638D01*
X41887118Y-4245728D01*
X41905518Y-4225197D01*
X41924433Y-4205046D01*
X41943864Y-4185274D01*
X41963811Y-4165881D01*
X41984273Y-4146867D01*
X42005251Y-4128232D01*
X42026745Y-4109977D01*
X42048755Y-4092101D01*
X42071280Y-4074604D01*
X42094321Y-4057486D01*
X42117878Y-4040748D01*
X42141950Y-4024388D01*
X42166538Y-4008408D01*
X42191642Y-3992807D01*
X42217262Y-3977586D01*
X42243398Y-3962743D01*
X42270049Y-3948280D01*
X42297216Y-3934196D01*
X42324898Y-3920491D01*
X42353097Y-3907166D01*
X42381811Y-3894219D01*
X42411041Y-3881652D01*
X42440687Y-3869532D01*
X42470653Y-3857928D01*
X42500937Y-3846840D01*
X42531540Y-3836268D01*
X42562461Y-3826211D01*
X42593700Y-3816670D01*
X42625259Y-3807645D01*
X42657135Y-3799135D01*
X42689331Y-3791141D01*
X42721844Y-3783663D01*
X42754677Y-3776701D01*
X42787828Y-3770254D01*
X42821297Y-3764323D01*
X42855085Y-3758908D01*
X42889192Y-3754009D01*
X42923617Y-3749625D01*
X42958360Y-3745757D01*
X42993422Y-3742405D01*
X43028803Y-3739568D01*
X43064502Y-3737247D01*
X43100520Y-3735442D01*
X43136856Y-3734153D01*
X43173511Y-3733379D01*
X43210485Y-3733122D01*
X43263362Y-3733637D01*
G37*
G36*
X49921027Y-3733637D02*
G01*
X49973358Y-3735184D01*
X50025144Y-3737763D01*
X50076383Y-3741373D01*
X50127077Y-3746015D01*
X50177224Y-3751688D01*
X50226825Y-3758392D01*
X50275880Y-3766128D01*
X50324389Y-3774896D01*
X50372352Y-3784695D01*
X50419769Y-3795525D01*
X50466640Y-3807387D01*
X50512965Y-3820280D01*
X50558744Y-3834205D01*
X50603976Y-3849161D01*
X50648663Y-3865149D01*
X50692803Y-3882168D01*
X50736398Y-3900218D01*
X50779446Y-3919300D01*
X50821949Y-3939414D01*
X50863905Y-3960559D01*
X50905315Y-3982735D01*
X50946179Y-4005943D01*
X50986497Y-4030183D01*
X51026171Y-4055355D01*
X51065101Y-4081361D01*
X51103288Y-4108202D01*
X51140731Y-4135877D01*
X51177432Y-4164387D01*
X51213389Y-4193730D01*
X51248602Y-4223908D01*
X51283073Y-4254920D01*
X51316800Y-4286767D01*
X51349784Y-4319447D01*
X51382025Y-4352962D01*
X51413523Y-4387311D01*
X51444277Y-4422495D01*
X51474288Y-4458513D01*
X51503556Y-4495365D01*
X51532080Y-4533051D01*
X51559861Y-4571571D01*
X51586899Y-4610926D01*
X51613194Y-4651115D01*
X51638745Y-4692139D01*
X51663554Y-4733996D01*
X51687619Y-4776688D01*
X51710940Y-4820215D01*
X51733519Y-4864575D01*
X51755263Y-4909679D01*
X51776082Y-4955435D01*
X51795975Y-5001843D01*
X51814944Y-5048903D01*
X51832987Y-5096616D01*
X51850104Y-5144981D01*
X51866297Y-5193998D01*
X51881564Y-5243668D01*
X51895906Y-5293990D01*
X51909322Y-5344963D01*
X51921814Y-5396590D01*
X51933380Y-5448868D01*
X51944020Y-5501799D01*
X51953736Y-5555382D01*
X51962526Y-5609617D01*
X51970391Y-5664504D01*
X51977331Y-5720044D01*
X51983345Y-5776236D01*
X51988434Y-5833080D01*
X51992598Y-5890577D01*
X51995836Y-5948725D01*
X51998149Y-6007526D01*
X51999537Y-6066980D01*
X52000000Y-6127085D01*
X51999560Y-6185006D01*
X51998240Y-6242275D01*
X51996041Y-6298892D01*
X51992962Y-6354856D01*
X51989003Y-6410168D01*
X51984164Y-6464828D01*
X51978445Y-6518836D01*
X51971847Y-6572191D01*
X51964369Y-6624895D01*
X51956011Y-6676945D01*
X51946774Y-6728344D01*
X51936656Y-6779091D01*
X51925659Y-6829185D01*
X51913782Y-6878627D01*
X51901025Y-6927416D01*
X51887389Y-6975554D01*
X51872872Y-7023039D01*
X51857476Y-7069872D01*
X51841200Y-7116053D01*
X51824045Y-7161581D01*
X51806009Y-7206457D01*
X51787094Y-7250681D01*
X51767299Y-7294253D01*
X51746624Y-7337172D01*
X51725146Y-7379364D01*
X51702939Y-7420751D01*
X51680004Y-7461335D01*
X51656341Y-7501114D01*
X51631950Y-7540090D01*
X51606831Y-7578262D01*
X51580984Y-7615629D01*
X51554408Y-7652193D01*
X51527105Y-7687953D01*
X51499073Y-7722909D01*
X51470314Y-7757061D01*
X51440826Y-7790409D01*
X51410610Y-7822953D01*
X51379666Y-7854693D01*
X51347994Y-7885630D01*
X51315594Y-7915762D01*
X51282466Y-7945090D01*
X51248610Y-7973615D01*
X51214026Y-8001336D01*
X51178713Y-8028252D01*
X51142673Y-8054365D01*
X51105904Y-8079674D01*
X51068407Y-8104178D01*
X51030183Y-8127879D01*
X50991306Y-8150693D01*
X50951852Y-8172536D01*
X50911822Y-8193407D01*
X50871216Y-8213309D01*
X50830033Y-8232239D01*
X50788274Y-8250199D01*
X50745939Y-8267187D01*
X50703027Y-8283205D01*
X50659539Y-8298253D01*
X50615474Y-8312329D01*
X50570833Y-8325435D01*
X50525616Y-8337569D01*
X50479822Y-8348734D01*
X50433451Y-8358927D01*
X50386505Y-8368149D01*
X50338982Y-8376401D01*
X50290882Y-8383682D01*
X50242206Y-8389992D01*
X50192954Y-8395331D01*
X50143125Y-8399700D01*
X50092720Y-8403098D01*
X50041738Y-8405525D01*
X49990180Y-8406981D01*
X49938046Y-8407466D01*
X49897364Y-8407079D01*
X49856864Y-8405919D01*
X49816546Y-8403985D01*
X49776410Y-8401277D01*
X49736456Y-8397796D01*
X49696684Y-8393542D01*
X49657094Y-8388513D01*
X49617686Y-8382711D01*
X49578460Y-8376136D01*
X49539416Y-8368786D01*
X49500554Y-8360664D01*
X49461875Y-8351767D01*
X49423377Y-8342097D01*
X49385061Y-8331654D01*
X49346927Y-8320437D01*
X49308975Y-8308446D01*
X49271206Y-8295682D01*
X49233618Y-8282144D01*
X49196212Y-8267832D01*
X49158989Y-8252747D01*
X49121947Y-8236888D01*
X49085087Y-8220256D01*
X49048410Y-8202850D01*
X49011914Y-8184670D01*
X48975783Y-8165823D01*
X48940197Y-8146415D01*
X48905158Y-8126446D01*
X48870665Y-8105915D01*
X48836717Y-8084823D01*
X48803316Y-8063170D01*
X48770461Y-8040956D01*
X48738152Y-8018180D01*
X48706389Y-7994843D01*
X48675172Y-7970945D01*
X48644501Y-7946486D01*
X48614376Y-7921465D01*
X48584798Y-7895884D01*
X48555765Y-7869741D01*
X48527279Y-7843036D01*
X48499338Y-7815771D01*
X48471944Y-7787944D01*
X48445095Y-7759556D01*
X48418793Y-7730607D01*
X48393037Y-7701097D01*
X48367827Y-7671025D01*
X48343163Y-7640392D01*
X48319045Y-7609198D01*
X48295473Y-7577442D01*
X48592534Y-7280381D01*
X48610857Y-7298409D01*
X48629424Y-7316088D01*
X48648233Y-7333418D01*
X48667284Y-7350399D01*
X48686579Y-7367032D01*
X48706116Y-7383315D01*
X48725896Y-7399250D01*
X48745918Y-7414835D01*
X48766183Y-7430072D01*
X48786691Y-7444960D01*
X48807442Y-7459499D01*
X48828435Y-7473689D01*
X48849671Y-7487531D01*
X48871150Y-7501023D01*
X48892871Y-7514167D01*
X48914835Y-7526961D01*
X48937042Y-7539407D01*
X48959492Y-7551504D01*
X48982184Y-7563252D01*
X49005119Y-7574651D01*
X49028296Y-7585702D01*
X49051717Y-7596403D01*
X49075379Y-7606756D01*
X49099285Y-7616759D01*
X49123388Y-7626384D01*
X49147643Y-7635599D01*
X49172049Y-7644404D01*
X49196607Y-7652800D01*
X49221316Y-7660786D01*
X49246178Y-7668363D01*
X49271190Y-7675530D01*
X49296355Y-7682288D01*
X49321671Y-7688636D01*
X49347139Y-7694574D01*
X49372759Y-7700103D01*
X49398531Y-7705222D01*
X49424454Y-7709932D01*
X49450528Y-7714233D01*
X49476755Y-7718123D01*
X49503133Y-7721604D01*
X49529663Y-7724676D01*
X49556344Y-7727338D01*
X49583178Y-7729591D01*
X49610162Y-7731434D01*
X49637299Y-7732867D01*
X49664587Y-7733891D01*
X49692027Y-7734505D01*
X49719619Y-7734710D01*
X49773027Y-7733876D01*
X49825495Y-7731373D01*
X49877023Y-7727202D01*
X49927610Y-7721362D01*
X49977257Y-7713853D01*
X50025963Y-7704676D01*
X50073729Y-7693831D01*
X50120554Y-7681317D01*
X50166439Y-7667134D01*
X50211384Y-7651283D01*
X50255388Y-7633763D01*
X50298451Y-7614575D01*
X50340574Y-7593718D01*
X50381757Y-7571193D01*
X50421999Y-7546999D01*
X50461301Y-7521137D01*
X50499662Y-7493606D01*
X50537083Y-7464406D01*
X50573563Y-7433538D01*
X50609103Y-7401002D01*
X50643703Y-7366797D01*
X50677362Y-7330923D01*
X50710080Y-7293381D01*
X50741859Y-7254170D01*
X50772514Y-7213518D01*
X50801865Y-7171653D01*
X50829912Y-7128574D01*
X50856654Y-7084282D01*
X50882092Y-7038776D01*
X50906225Y-6992057D01*
X50929054Y-6944125D01*
X50950578Y-6894978D01*
X50970798Y-6844619D01*
X50989713Y-6793046D01*
X51007324Y-6740259D01*
X51023630Y-6686259D01*
X51038632Y-6631045D01*
X51052329Y-6574618D01*
X51064722Y-6516978D01*
X51075810Y-6458124D01*
X51085593Y-6398056D01*
X51094073Y-6336775D01*
X51101247Y-6274281D01*
X51107118Y-6210573D01*
X51111683Y-6145651D01*
X51114945Y-6079516D01*
X51116901Y-6012168D01*
X51117554Y-5943606D01*
X51117288Y-5900869D01*
X51116492Y-5858571D01*
X51115165Y-5816713D01*
X51113306Y-5775296D01*
X51110917Y-5734318D01*
X51107997Y-5693780D01*
X51104547Y-5653682D01*
X51100565Y-5614023D01*
X51096052Y-5574805D01*
X51091009Y-5536027D01*
X51085434Y-5497688D01*
X51079329Y-5459790D01*
X51072693Y-5422331D01*
X51065525Y-5385312D01*
X51057827Y-5348733D01*
X51049598Y-5312594D01*
X51040839Y-5276895D01*
X51031548Y-5241635D01*
X51021726Y-5206816D01*
X51011374Y-5172436D01*
X51000490Y-5138497D01*
X50989076Y-5104997D01*
X50977131Y-5071937D01*
X50964654Y-5039317D01*
X50951716Y-5007213D01*
X50938383Y-4975700D01*
X50924655Y-4944779D01*
X50910533Y-4914449D01*
X50896017Y-4884711D01*
X50881106Y-4855565D01*
X50865801Y-4827010D01*
X50850101Y-4799047D01*
X50834008Y-4771675D01*
X50817519Y-4744895D01*
X50800637Y-4718707D01*
X50783360Y-4693110D01*
X50765688Y-4668104D01*
X50747623Y-4643690D01*
X50729163Y-4619868D01*
X50710308Y-4596638D01*
X50691059Y-4573998D01*
X50671416Y-4551951D01*
X50651378Y-4530495D01*
X50630946Y-4509631D01*
X50610120Y-4489358D01*
X50588899Y-4469677D01*
X50567284Y-4450587D01*
X50545274Y-4432089D01*
X50522938Y-4414266D01*
X50500345Y-4397201D01*
X50477493Y-4380895D01*
X50454384Y-4365347D01*
X50431017Y-4350558D01*
X50407392Y-4336527D01*
X50383509Y-4323255D01*
X50359368Y-4310740D01*
X50334969Y-4298985D01*
X50310313Y-4287988D01*
X50285399Y-4277749D01*
X50260226Y-4268268D01*
X50234796Y-4259547D01*
X50209108Y-4251583D01*
X50183162Y-4244378D01*
X50156959Y-4237931D01*
X50130497Y-4232243D01*
X50103778Y-4227313D01*
X50076801Y-4223142D01*
X50049565Y-4219729D01*
X50022072Y-4217075D01*
X49994321Y-4215178D01*
X49966313Y-4214041D01*
X49938046Y-4213662D01*
X49915642Y-4213737D01*
X49893572Y-4213965D01*
X49871835Y-4214344D01*
X49850432Y-4214875D01*
X49829363Y-4215558D01*
X49808628Y-4216392D01*
X49788226Y-4217378D01*
X49768158Y-4218516D01*
X49748424Y-4219805D01*
X49729023Y-4221246D01*
X49709956Y-4222839D01*
X49691223Y-4224583D01*
X49672824Y-4226479D01*
X49654758Y-4228527D01*
X49637026Y-4230726D01*
X49619628Y-4233077D01*
X49602563Y-4235580D01*
X49585832Y-4238235D01*
X49569435Y-4241041D01*
X49553371Y-4243999D01*
X49537641Y-4247108D01*
X49522245Y-4250370D01*
X49507183Y-4253782D01*
X49492454Y-4257347D01*
X49477908Y-4261124D01*
X49463391Y-4265174D01*
X49448905Y-4269497D01*
X49434450Y-4274093D01*
X49420024Y-4278962D01*
X49405629Y-4284104D01*
X49391265Y-4289520D01*
X49376931Y-4295208D01*
X49362627Y-4301169D01*
X49348353Y-4307403D01*
X49334110Y-4313911D01*
X49319897Y-4320691D01*
X49305714Y-4327744D01*
X49291562Y-4335071D01*
X49277440Y-4342670D01*
X49263348Y-4350543D01*
X49249287Y-4358688D01*
X49235256Y-4367107D01*
X49221256Y-4375798D01*
X49207285Y-4384763D01*
X49193345Y-4394001D01*
X49179436Y-4403511D01*
X49165557Y-4413295D01*
X49151708Y-4423352D01*
X49163205Y-4442115D01*
X49174400Y-4460545D01*
X49185291Y-4478641D01*
X49195879Y-4496404D01*
X49206163Y-4513832D01*
X49216144Y-4530927D01*
X49225821Y-4547689D01*
X49235195Y-4564116D01*
X49244266Y-4580210D01*
X49253034Y-4595970D01*
X49261498Y-4611397D01*
X49269658Y-4626489D01*
X49277516Y-4641248D01*
X49285070Y-4655674D01*
X49292320Y-4669765D01*
X49299267Y-4683523D01*
X49305911Y-4696947D01*
X49312252Y-4710038D01*
X49318289Y-4722794D01*
X49324023Y-4735218D01*
X49329453Y-4747307D01*
X49334580Y-4759063D01*
X49339404Y-4770484D01*
X49343924Y-4781573D01*
X49348201Y-4792449D01*
X49352297Y-4803233D01*
X49356210Y-4813927D01*
X49359942Y-4824530D01*
X49363491Y-4835042D01*
X49366859Y-4845463D01*
X49370044Y-4855792D01*
X49373047Y-4866031D01*
X49375869Y-4876179D01*
X49378508Y-4886236D01*
X49380965Y-4896202D01*
X49383241Y-4906076D01*
X49385334Y-4915860D01*
X49387245Y-4925553D01*
X49388974Y-4935154D01*
X49390522Y-4944665D01*
X49391887Y-4954085D01*
X49393070Y-4963413D01*
X49394071Y-4972651D01*
X49394890Y-4981798D01*
X49395527Y-4990853D01*
X49395982Y-4999818D01*
X49396255Y-5008692D01*
X49396346Y-5017474D01*
X49396111Y-5033356D01*
X49395406Y-5048964D01*
X49394230Y-5064300D01*
X49392585Y-5079362D01*
X49390468Y-5094151D01*
X49387882Y-5108668D01*
X49384826Y-5122911D01*
X49381299Y-5136881D01*
X49377302Y-5150578D01*
X49372835Y-5164003D01*
X49367898Y-5177154D01*
X49362490Y-5190032D01*
X49356612Y-5202637D01*
X49350264Y-5214969D01*
X49343446Y-5227028D01*
X49336157Y-5238814D01*
X49328399Y-5250327D01*
X49320170Y-5261567D01*
X49311471Y-5272534D01*
X49302301Y-5283227D01*
X49292662Y-5293648D01*
X49282552Y-5303796D01*
X49271972Y-5313671D01*
X49260921Y-5323272D01*
X49249446Y-5332540D01*
X49237592Y-5341414D01*
X49225359Y-5349893D01*
X49212746Y-5357978D01*
X49199754Y-5365669D01*
X49186383Y-5372965D01*
X49172633Y-5379866D01*
X49158503Y-5386374D01*
X49143994Y-5392487D01*
X49129107Y-5398205D01*
X49113839Y-5403529D01*
X49098193Y-5408459D01*
X49082167Y-5412994D01*
X49065763Y-5417136D01*
X49048979Y-5420882D01*
X49031815Y-5424234D01*
X49014273Y-5427192D01*
X48996351Y-5429756D01*
X48978050Y-5431925D01*
X48959370Y-5433700D01*
X48940311Y-5435080D01*
X48920872Y-5436066D01*
X48901055Y-5436657D01*
X48880858Y-5436855D01*
X48866372Y-5436733D01*
X48852038Y-5436369D01*
X48837855Y-5435763D01*
X48823824Y-5434913D01*
X48809945Y-5433821D01*
X48796217Y-5432486D01*
X48782641Y-5430909D01*
X48769217Y-5429088D01*
X48755945Y-5427025D01*
X48742824Y-5424720D01*
X48729855Y-5422171D01*
X48717037Y-5419380D01*
X48704372Y-5416347D01*
X48691858Y-5413070D01*
X48679495Y-5409551D01*
X48667284Y-5405789D01*
X48655225Y-5401785D01*
X48643318Y-5397538D01*
X48631562Y-5393048D01*
X48619959Y-5388315D01*
X48608506Y-5383340D01*
X48597206Y-5378122D01*
X48586057Y-5372661D01*
X48575060Y-5366958D01*
X48564244Y-5361035D01*
X48553642Y-5354914D01*
X48543251Y-5348596D01*
X48533073Y-5342081D01*
X48523107Y-5335369D01*
X48513354Y-5328460D01*
X48503813Y-5321354D01*
X48494484Y-5314050D01*
X48485368Y-5306549D01*
X48476464Y-5298851D01*
X48467772Y-5290956D01*
X48459293Y-5282863D01*
X48451026Y-5274574D01*
X48442972Y-5266087D01*
X48435130Y-5257403D01*
X48427500Y-5248522D01*
X48420082Y-5239443D01*
X48412877Y-5230168D01*
X48405885Y-5220695D01*
X48399104Y-5211025D01*
X48392536Y-5201158D01*
X48386181Y-5191094D01*
X48380037Y-5180832D01*
X48374106Y-5170373D01*
X48368403Y-5159733D01*
X48362942Y-5148925D01*
X48357724Y-5137951D01*
X48352749Y-5126809D01*
X48348017Y-5115501D01*
X48343527Y-5104026D01*
X48339279Y-5092384D01*
X48335275Y-5080575D01*
X48331513Y-5068600D01*
X48327994Y-5056457D01*
X48324718Y-5044148D01*
X48321684Y-5031672D01*
X48318893Y-5019029D01*
X48316345Y-5006219D01*
X48314039Y-4993242D01*
X48311976Y-4980099D01*
X48310156Y-4966788D01*
X48308578Y-4953311D01*
X48307243Y-4939667D01*
X48306151Y-4925856D01*
X48305302Y-4911878D01*
X48304695Y-4897734D01*
X48304331Y-4883422D01*
X48304210Y-4868944D01*
X48304566Y-4842118D01*
X48305636Y-4815520D01*
X48307418Y-4789149D01*
X48309913Y-4763006D01*
X48313121Y-4737091D01*
X48317042Y-4711403D01*
X48321676Y-4685942D01*
X48327023Y-4660710D01*
X48333083Y-4635704D01*
X48339856Y-4610926D01*
X48347342Y-4586376D01*
X48355540Y-4562053D01*
X48364452Y-4537958D01*
X48374076Y-4514090D01*
X48384413Y-4490450D01*
X48395464Y-4467037D01*
X48407227Y-4443852D01*
X48419703Y-4420895D01*
X48432892Y-4398164D01*
X48446794Y-4375662D01*
X48461409Y-4353387D01*
X48476737Y-4331339D01*
X48492778Y-4309519D01*
X48509531Y-4287927D01*
X48526899Y-4266638D01*
X48544783Y-4245728D01*
X48563183Y-4225197D01*
X48582098Y-4205046D01*
X48601529Y-4185274D01*
X48621475Y-4165881D01*
X48641938Y-4146867D01*
X48662916Y-4128232D01*
X48684410Y-4109977D01*
X48706419Y-4092101D01*
X48728945Y-4074604D01*
X48751986Y-4057486D01*
X48775542Y-4040748D01*
X48799615Y-4024388D01*
X48824203Y-4008408D01*
X48849307Y-3992807D01*
X48874927Y-3977586D01*
X48901062Y-3962743D01*
X48927714Y-3948280D01*
X48954880Y-3934196D01*
X48982563Y-3920491D01*
X49010761Y-3907166D01*
X49039475Y-3894219D01*
X49068705Y-3881652D01*
X49098352Y-3869532D01*
X49128318Y-3857928D01*
X49158602Y-3846840D01*
X49189204Y-3836268D01*
X49220126Y-3826211D01*
X49251365Y-3816670D01*
X49282923Y-3807645D01*
X49314800Y-3799135D01*
X49346995Y-3791141D01*
X49379509Y-3783663D01*
X49412342Y-3776701D01*
X49445492Y-3770254D01*
X49478962Y-3764323D01*
X49512750Y-3758908D01*
X49546856Y-3754009D01*
X49581281Y-3749625D01*
X49616025Y-3745757D01*
X49651087Y-3742405D01*
X49686468Y-3739568D01*
X49722167Y-3737247D01*
X49758185Y-3735442D01*
X49794521Y-3734153D01*
X49831176Y-3733379D01*
X49868149Y-3733122D01*
X49921027Y-3733637D01*
G37*
G36*
X32562039Y-3733395D02*
G01*
X32598830Y-3734214D01*
X32635394Y-3735579D01*
X32671730Y-3737490D01*
X32707839Y-3739947D01*
X32743720Y-3742951D01*
X32779374Y-3746500D01*
X32814800Y-3750596D01*
X32849999Y-3755237D01*
X32884970Y-3760425D01*
X32919713Y-3766159D01*
X32954230Y-3772438D01*
X32988518Y-3779264D01*
X33022579Y-3786636D01*
X33056413Y-3794554D01*
X33090019Y-3803018D01*
X33123397Y-3812028D01*
X33156548Y-3821585D01*
X33189471Y-3831687D01*
X33222167Y-3842335D01*
X33254635Y-3853530D01*
X33286876Y-3865270D01*
X33318889Y-3877557D01*
X33350675Y-3890389D01*
X33382089Y-3903669D01*
X33412988Y-3917298D01*
X33443370Y-3931276D01*
X33473237Y-3945603D01*
X33502588Y-3960278D01*
X33531424Y-3975303D01*
X33559743Y-3990676D01*
X33587547Y-4006398D01*
X33614836Y-4022469D01*
X33641608Y-4038889D01*
X33667865Y-4055658D01*
X33693606Y-4072776D01*
X33718831Y-4090243D01*
X33743541Y-4108058D01*
X33767735Y-4126222D01*
X33791413Y-4144736D01*
X33814575Y-4163598D01*
X33837222Y-4182809D01*
X33859353Y-4202369D01*
X33880968Y-4222277D01*
X33902068Y-4242535D01*
X33922651Y-4263141D01*
X33942719Y-4284097D01*
X33962272Y-4305401D01*
X33981164Y-4326963D01*
X33999253Y-4348692D01*
X34016537Y-4370588D01*
X34033018Y-4392651D01*
X34048695Y-4414880D01*
X34063567Y-4437277D01*
X34077636Y-4459840D01*
X34090901Y-4482570D01*
X34103362Y-4505467D01*
X34115019Y-4528531D01*
X34125872Y-4551761D01*
X34135921Y-4575159D01*
X34145167Y-4598723D01*
X34153608Y-4622454D01*
X34161245Y-4646353D01*
X34168079Y-4670417D01*
X34174108Y-4694649D01*
X34179334Y-4719048D01*
X34183755Y-4743613D01*
X34187373Y-4768346D01*
X34190187Y-4793245D01*
X34192197Y-4818311D01*
X34193403Y-4843544D01*
X34193805Y-4868944D01*
X34193577Y-4886971D01*
X34192894Y-4904650D01*
X34191757Y-4921980D01*
X34190164Y-4938962D01*
X34188116Y-4955594D01*
X34185614Y-4971877D01*
X34182656Y-4987812D01*
X34179243Y-5003398D01*
X34175375Y-5018635D01*
X34171052Y-5033523D01*
X34166274Y-5048062D01*
X34161041Y-5062252D01*
X34155352Y-5076093D01*
X34149209Y-5089586D01*
X34142611Y-5102729D01*
X34135557Y-5115524D01*
X34128049Y-5127970D01*
X34120085Y-5140067D01*
X34111667Y-5151815D01*
X34102793Y-5163214D01*
X34093465Y-5174264D01*
X34083681Y-5184965D01*
X34073442Y-5195318D01*
X34062748Y-5205322D01*
X34051645Y-5214946D01*
X34040177Y-5224161D01*
X34028346Y-5232966D01*
X34016150Y-5241362D01*
X34003591Y-5249348D01*
X33990667Y-5256925D01*
X33977380Y-5264092D01*
X33963728Y-5270850D01*
X33949712Y-5277198D01*
X33935332Y-5283136D01*
X33920588Y-5288665D01*
X33905481Y-5293785D01*
X33890009Y-5298495D01*
X33874173Y-5302795D01*
X33857973Y-5306686D01*
X33841409Y-5310167D01*
X33824480Y-5313238D01*
X33807188Y-5315901D01*
X33789532Y-5318153D01*
X33771512Y-5319996D01*
X33753127Y-5321429D01*
X33734379Y-5322453D01*
X33715267Y-5323068D01*
X33695790Y-5323272D01*
X33679158Y-5323075D01*
X33662753Y-5322484D01*
X33646576Y-5321498D01*
X33630626Y-5320117D01*
X33614904Y-5318343D01*
X33599409Y-5316174D01*
X33584142Y-5313610D01*
X33569102Y-5310652D01*
X33554290Y-5307300D01*
X33539706Y-5303553D01*
X33525349Y-5299412D01*
X33511219Y-5294877D01*
X33497317Y-5289947D01*
X33483643Y-5284623D01*
X33470196Y-5278904D01*
X33456976Y-5272791D01*
X33443985Y-5266284D01*
X33431220Y-5259382D01*
X33418683Y-5252086D01*
X33406374Y-5244396D01*
X33394292Y-5236311D01*
X33382438Y-5227832D01*
X33370811Y-5218958D01*
X33359412Y-5209690D01*
X33348362Y-5200134D01*
X33337782Y-5190396D01*
X33327672Y-5180476D01*
X33318032Y-5170373D01*
X33308863Y-5160089D01*
X33300164Y-5149623D01*
X33291935Y-5138974D01*
X33284176Y-5128144D01*
X33276888Y-5117132D01*
X33270069Y-5105937D01*
X33263721Y-5094561D01*
X33257844Y-5083002D01*
X33252436Y-5071262D01*
X33247499Y-5059339D01*
X33243031Y-5047235D01*
X33239035Y-5034948D01*
X33235508Y-5022480D01*
X33232451Y-5009829D01*
X33229865Y-4996997D01*
X33227749Y-4983982D01*
X33226103Y-4970785D01*
X33224928Y-4957407D01*
X33224222Y-4943846D01*
X33223987Y-4930103D01*
X33224025Y-4926425D01*
X33224139Y-4922671D01*
X33224329Y-4918841D01*
X33224594Y-4914935D01*
X33224935Y-4910953D01*
X33225352Y-4906895D01*
X33225845Y-4902762D01*
X33226414Y-4898553D01*
X33227059Y-4894268D01*
X33227779Y-4889907D01*
X33228576Y-4885470D01*
X33229448Y-4880957D01*
X33230396Y-4876369D01*
X33231420Y-4871704D01*
X33232520Y-4866964D01*
X33233695Y-4862148D01*
X33234947Y-4857256D01*
X33236274Y-4852289D01*
X33237677Y-4847245D01*
X33239156Y-4842126D01*
X33240711Y-4836930D01*
X33242341Y-4831659D01*
X33244048Y-4826312D01*
X33245830Y-4820890D01*
X33247703Y-4815376D01*
X33249683Y-4809756D01*
X33251769Y-4804030D01*
X33253960Y-4798197D01*
X33256258Y-4792259D01*
X33258663Y-4786214D01*
X33261173Y-4780063D01*
X33263790Y-4773806D01*
X33266512Y-4767443D01*
X33269341Y-4760974D01*
X33272276Y-4754398D01*
X33275318Y-4747716D01*
X33278465Y-4740929D01*
X33281719Y-4734034D01*
X33285079Y-4727034D01*
X33288545Y-4719928D01*
X33292117Y-4712715D01*
X33295795Y-4705396D01*
X33299580Y-4697971D01*
X33303471Y-4690440D01*
X33307467Y-4682803D01*
X33311571Y-4675059D01*
X33315780Y-4667209D01*
X33320095Y-4659253D01*
X33324525Y-4651184D01*
X33329075Y-4642993D01*
X33333747Y-4634680D01*
X33338540Y-4626247D01*
X33343455Y-4617692D01*
X33348491Y-4609015D01*
X33353648Y-4600217D01*
X33358927Y-4591298D01*
X33364327Y-4582258D01*
X33369848Y-4573096D01*
X33375491Y-4563813D01*
X33381255Y-4554408D01*
X33387140Y-4544882D01*
X33393147Y-4535235D01*
X33399275Y-4525467D01*
X33405525Y-4515577D01*
X33411895Y-4505565D01*
X33418388Y-4495433D01*
X33425001Y-4485179D01*
X33431736Y-4474804D01*
X33438592Y-4464307D01*
X33445570Y-4453689D01*
X33452669Y-4442950D01*
X33459889Y-4432089D01*
X33450219Y-4422692D01*
X33440139Y-4413432D01*
X33429650Y-4404308D01*
X33418752Y-4395320D01*
X33407443Y-4386470D01*
X33395726Y-4377755D01*
X33383599Y-4369177D01*
X33371062Y-4360736D01*
X33358115Y-4352431D01*
X33344759Y-4344263D01*
X33330994Y-4336231D01*
X33316819Y-4328336D01*
X33302234Y-4320577D01*
X33287240Y-4312955D01*
X33271837Y-4305469D01*
X33256023Y-4298120D01*
X33239801Y-4290908D01*
X33223168Y-4283831D01*
X33206126Y-4276892D01*
X33188675Y-4270089D01*
X33170814Y-4263422D01*
X33152543Y-4256892D01*
X33133863Y-4250498D01*
X33114774Y-4244241D01*
X33095472Y-4238182D01*
X33076154Y-4232380D01*
X33056822Y-4226836D01*
X33037475Y-4221549D01*
X33018112Y-4216521D01*
X32998734Y-4211750D01*
X32979341Y-4207238D01*
X32959933Y-4202983D01*
X32940510Y-4198986D01*
X32921071Y-4195247D01*
X32901617Y-4191766D01*
X32882149Y-4188542D01*
X32862665Y-4185577D01*
X32843165Y-4182869D01*
X32823651Y-4180420D01*
X32804121Y-4178228D01*
X32784577Y-4176294D01*
X32765017Y-4174618D01*
X32745442Y-4173199D01*
X32725852Y-4172039D01*
X32706246Y-4171137D01*
X32686626Y-4170492D01*
X32666990Y-4170105D01*
X32647339Y-4169976D01*
X32619892Y-4170166D01*
X32592884Y-4170735D01*
X32566316Y-4171683D01*
X32540188Y-4173010D01*
X32514500Y-4174716D01*
X32489252Y-4176802D01*
X32464444Y-4179267D01*
X32440076Y-4182111D01*
X32416147Y-4185334D01*
X32392659Y-4188937D01*
X32369610Y-4192919D01*
X32347002Y-4197280D01*
X32324833Y-4202020D01*
X32303104Y-4207139D01*
X32281815Y-4212638D01*
X32260965Y-4218516D01*
X32240556Y-4224773D01*
X32220587Y-4231409D01*
X32201057Y-4238424D01*
X32181968Y-4245819D01*
X32163318Y-4253593D01*
X32145108Y-4261746D01*
X32127338Y-4270278D01*
X32110008Y-4279190D01*
X32093080Y-4288496D01*
X32076516Y-4298211D01*
X32060316Y-4308336D01*
X32044480Y-4318871D01*
X32029008Y-4329815D01*
X32013900Y-4341169D01*
X31999156Y-4352932D01*
X31984776Y-4365105D01*
X31970761Y-4377687D01*
X31957109Y-4390679D01*
X31943821Y-4404080D01*
X31930898Y-4417891D01*
X31918338Y-4432112D01*
X31906142Y-4446742D01*
X31894311Y-4461781D01*
X31882844Y-4477231D01*
X31871740Y-4493089D01*
X31861001Y-4509358D01*
X31850625Y-4526035D01*
X31840614Y-4543123D01*
X31830967Y-4560620D01*
X31821684Y-4578526D01*
X31812765Y-4596842D01*
X31804210Y-4615568D01*
X31796011Y-4634726D01*
X31788161Y-4654339D01*
X31780660Y-4674407D01*
X31773509Y-4694930D01*
X31766705Y-4715908D01*
X31760251Y-4737341D01*
X31754146Y-4759229D01*
X31748389Y-4781573D01*
X31742982Y-4804371D01*
X31737923Y-4827624D01*
X31733213Y-4851333D01*
X31728852Y-4875496D01*
X31724840Y-4900115D01*
X31721177Y-4925189D01*
X31717863Y-4950717D01*
X31714897Y-4976701D01*
X31712281Y-5003140D01*
X31710013Y-5030034D01*
X31708094Y-5057383D01*
X31706524Y-5085187D01*
X31705303Y-5113446D01*
X31704431Y-5142160D01*
X31703908Y-5171329D01*
X31703733Y-5200953D01*
X31703733Y-5803813D01*
X31780259Y-5807643D01*
X31855479Y-5811852D01*
X31929396Y-5816440D01*
X32002008Y-5821408D01*
X32073315Y-5826755D01*
X32143318Y-5832481D01*
X32212017Y-5838586D01*
X32279410Y-5845071D01*
X32345500Y-5851935D01*
X32410285Y-5859178D01*
X32473765Y-5866800D01*
X32535941Y-5874801D01*
X32596813Y-5883182D01*
X32656380Y-5891942D01*
X32714642Y-5901081D01*
X32771600Y-5910599D01*
X32827253Y-5920497D01*
X32881602Y-5930773D01*
X32934647Y-5941429D01*
X32986387Y-5952464D01*
X33036822Y-5963879D01*
X33085953Y-5975672D01*
X33133780Y-5987845D01*
X33180302Y-6000397D01*
X33225633Y-6013389D01*
X33269887Y-6026881D01*
X33313065Y-6040874D01*
X33355165Y-6055368D01*
X33396188Y-6070362D01*
X33436135Y-6085857D01*
X33475004Y-6101852D01*
X33512797Y-6118348D01*
X33549512Y-6135344D01*
X33585151Y-6152841D01*
X33619712Y-6170839D01*
X33653197Y-6189337D01*
X33685605Y-6208335D01*
X33716935Y-6227835D01*
X33747189Y-6247834D01*
X33776366Y-6268335D01*
X33804465Y-6289336D01*
X33831488Y-6310837D01*
X33857434Y-6332839D01*
X33882303Y-6355342D01*
X33906095Y-6378345D01*
X33928810Y-6401848D01*
X33950448Y-6425853D01*
X33971009Y-6450357D01*
X33990614Y-6475431D01*
X34009385Y-6501142D01*
X34027322Y-6527490D01*
X34044425Y-6554474D01*
X34060693Y-6582096D01*
X34076127Y-6610355D01*
X34090727Y-6639252D01*
X34104492Y-6668785D01*
X34117423Y-6698955D01*
X34129520Y-6729762D01*
X34140783Y-6761207D01*
X34151211Y-6793288D01*
X34160805Y-6826007D01*
X34169565Y-6859363D01*
X34177491Y-6893355D01*
X34184582Y-6927985D01*
X34190839Y-6963252D01*
X34196262Y-6999156D01*
X34200850Y-7035697D01*
X34204605Y-7072875D01*
X34207525Y-7110691D01*
X34209610Y-7149143D01*
X34210862Y-7188232D01*
X34211279Y-7227959D01*
X34210695Y-7272008D01*
X34208943Y-7315330D01*
X34206023Y-7357923D01*
X34201935Y-7399788D01*
X34196679Y-7440925D01*
X34190255Y-7481334D01*
X34182663Y-7521015D01*
X34173903Y-7559968D01*
X34163976Y-7598193D01*
X34152880Y-7635690D01*
X34140616Y-7672458D01*
X34127184Y-7708499D01*
X34112585Y-7743811D01*
X34096817Y-7778396D01*
X34079881Y-7812252D01*
X34061777Y-7845380D01*
X34042506Y-7877780D01*
X34022066Y-7909452D01*
X34000459Y-7940396D01*
X33977683Y-7970612D01*
X33953739Y-8000099D01*
X33928628Y-8028859D01*
X33902348Y-8056890D01*
X33874901Y-8084194D01*
X33846498Y-8110572D01*
X33817351Y-8135828D01*
X33787462Y-8159961D01*
X33756829Y-8182971D01*
X33725452Y-8204860D01*
X33693333Y-8225625D01*
X33660470Y-8245269D01*
X33626864Y-8263790D01*
X33592515Y-8281188D01*
X33557423Y-8297464D01*
X33521587Y-8312617D01*
X33485008Y-8326648D01*
X33447686Y-8339557D01*
X33409620Y-8351343D01*
X33370811Y-8362006D01*
X33331259Y-8371547D01*
X33290964Y-8379966D01*
X33249926Y-8387262D01*
X33208144Y-8393435D01*
X33165619Y-8398486D01*
X33122350Y-8402415D01*
X33078339Y-8405221D01*
X33033584Y-8406905D01*
X32988086Y-8407466D01*
X32963422Y-8407315D01*
X32938940Y-8406860D01*
X32914640Y-8406101D01*
X32890522Y-8405039D01*
X32866586Y-8403674D01*
X32842832Y-8402006D01*
X32819260Y-8400034D01*
X32795870Y-8397758D01*
X32772662Y-8395180D01*
X32749636Y-8392298D01*
X32726792Y-8389112D01*
X32704130Y-8385624D01*
X32681650Y-8381831D01*
X32659353Y-8377736D01*
X32637237Y-8373337D01*
X32615303Y-8368635D01*
X32593551Y-8363629D01*
X32571982Y-8358320D01*
X32550594Y-8352708D01*
X32529388Y-8346792D01*
X32508365Y-8340573D01*
X32487523Y-8334050D01*
X32466864Y-8327225D01*
X32446386Y-8320095D01*
X32426075Y-8312670D01*
X32405916Y-8304957D01*
X32385909Y-8296956D01*
X32366053Y-8288666D01*
X32346349Y-8280088D01*
X32326797Y-8271222D01*
X32307396Y-8262068D01*
X32288148Y-8252626D01*
X32269050Y-8242895D01*
X32250105Y-8232876D01*
X32231311Y-8222569D01*
X32212669Y-8211974D01*
X32194178Y-8201090D01*
X32175840Y-8189919D01*
X32157652Y-8178459D01*
X32139617Y-8166711D01*
X32121733Y-8154675D01*
X32104001Y-8142350D01*
X32086421Y-8129737D01*
X32068992Y-8116837D01*
X32051715Y-8103647D01*
X32034590Y-8090170D01*
X32017616Y-8076405D01*
X32000794Y-8062351D01*
X31984109Y-8047994D01*
X31967545Y-8033318D01*
X31951102Y-8018324D01*
X31934781Y-8003012D01*
X31918581Y-7987380D01*
X31902502Y-7971431D01*
X31886545Y-7955162D01*
X31870709Y-7938576D01*
X31854994Y-7921670D01*
X31839401Y-7904446D01*
X31823929Y-7886904D01*
X31808578Y-7869043D01*
X31793349Y-7850863D01*
X31778241Y-7832365D01*
X31763255Y-7813549D01*
X31748389Y-7794414D01*
X31733646Y-7774960D01*
X31719023Y-7755188D01*
X31704522Y-7735097D01*
X31690142Y-7714688D01*
X31675884Y-7693960D01*
X31661747Y-7672913D01*
X31647731Y-7651548D01*
X31633836Y-7629865D01*
X31629915Y-7661575D01*
X31625433Y-7692632D01*
X31620389Y-7723038D01*
X31614785Y-7752791D01*
X31608619Y-7781892D01*
X31601891Y-7810341D01*
X31594603Y-7838137D01*
X31586753Y-7865281D01*
X31578342Y-7891773D01*
X31569370Y-7917613D01*
X31559837Y-7942800D01*
X31549742Y-7967335D01*
X31539086Y-7991218D01*
X31527869Y-8014449D01*
X31516090Y-8037027D01*
X31503751Y-8058953D01*
X31490850Y-8080227D01*
X31477388Y-8100849D01*
X31463364Y-8120818D01*
X31448780Y-8140135D01*
X31433634Y-8158800D01*
X31417927Y-8176813D01*
X31401659Y-8194173D01*
X31384829Y-8210882D01*
X31367423Y-8226922D01*
X31349426Y-8242281D01*
X31330837Y-8256956D01*
X31311656Y-8270949D01*
X31291884Y-8284260D01*
X31271520Y-8296887D01*
X31250565Y-8308833D01*
X31229018Y-8320095D01*
X31206879Y-8330675D01*
X31184149Y-8340573D01*
X31160827Y-8349788D01*
X31136914Y-8358320D01*
X31112409Y-8366170D01*
X31087313Y-8373337D01*
X31061625Y-8379822D01*
X31035346Y-8385624D01*
X31008474Y-8390743D01*
X30981012Y-8395180D01*
X30952957Y-8398934D01*
X30924312Y-8402006D01*
X30895074Y-8404395D01*
X30865245Y-8406101D01*
X30834825Y-8407125D01*
X30803813Y-8407466D01*
X30787734Y-8407292D01*
X30771534Y-8406768D01*
X30755212Y-8405896D01*
X30738770Y-8404675D01*
X30722206Y-8403105D01*
X30705520Y-8401186D01*
X30688713Y-8398919D01*
X30671785Y-8396302D01*
X30654736Y-8393337D01*
X30637565Y-8390022D01*
X30620273Y-8386359D01*
X30602859Y-8382347D01*
X30585325Y-8377986D01*
X30567668Y-8373276D01*
X30549891Y-8368218D01*
X30531992Y-8362810D01*
X30513972Y-8357054D01*
X30495830Y-8350948D01*
X30477567Y-8344494D01*
X30459183Y-8337691D01*
X30440677Y-8330539D01*
X30422050Y-8323038D01*
X30403302Y-8315188D01*
X30384432Y-8306990D01*
X30365623Y-8298533D01*
X30347057Y-8289910D01*
X30328733Y-8281120D01*
X30310652Y-8272163D01*
X30292814Y-8263039D01*
X30275218Y-8253748D01*
X30257866Y-8244290D01*
X30240755Y-8234666D01*
X30223888Y-8224875D01*
X30207263Y-8214916D01*
X30190881Y-8204791D01*
X30174742Y-8194500D01*
X30158845Y-8184041D01*
X30143191Y-8173415D01*
X30127780Y-8162623D01*
X30112611Y-8151664D01*
X30097686Y-8140537D01*
X30083002Y-8129244D01*
X30068562Y-8117785D01*
X30054364Y-8106158D01*
X30040409Y-8094364D01*
X30026697Y-8082404D01*
X30013227Y-8070277D01*
X30000000Y-8057983D01*
X30087371Y-7734710D01*
X30097519Y-7737592D01*
X30107575Y-7740413D01*
X30117541Y-7743174D01*
X30127416Y-7745874D01*
X30137200Y-7748513D01*
X30146892Y-7751092D01*
X30156494Y-7753610D01*
X30166005Y-7756067D01*
X30175424Y-7758464D01*
X30184753Y-7760800D01*
X30193991Y-7763075D01*
X30203137Y-7765290D01*
X30212193Y-7767444D01*
X30221158Y-7769537D01*
X30230031Y-7771570D01*
X30238814Y-7773542D01*
X30247505Y-7775453D01*
X30256106Y-7777303D01*
X30264616Y-7779093D01*
X30273034Y-7780823D01*
X30281362Y-7782491D01*
X30289598Y-7784099D01*
X30297744Y-7785646D01*
X30305798Y-7787133D01*
X30313807Y-7788558D01*
X30321816Y-7789924D01*
X30329825Y-7791228D01*
X30337834Y-7792472D01*
X30345843Y-7793655D01*
X30353852Y-7794778D01*
X30361861Y-7795839D01*
X30369870Y-7796841D01*
X30377879Y-7797781D01*
X30385888Y-7798661D01*
X30393897Y-7799480D01*
X30401906Y-7800238D01*
X30409915Y-7800936D01*
X30417924Y-7801573D01*
X30425933Y-7802150D01*
X30433942Y-7802665D01*
X30441951Y-7803120D01*
X30449960Y-7803515D01*
X30457969Y-7803848D01*
X30465978Y-7804121D01*
X30473987Y-7804334D01*
X30481996Y-7804485D01*
X30490005Y-7804576D01*
X30498014Y-7804607D01*
X30513873Y-7804440D01*
X30529413Y-7803939D01*
X30544635Y-7803105D01*
X30559538Y-7801937D01*
X30574123Y-7800435D01*
X30588389Y-7798600D01*
X30602336Y-7796431D01*
X30615965Y-7793928D01*
X30629275Y-7791092D01*
X30642267Y-7787921D01*
X30654941Y-7784417D01*
X30667295Y-7780580D01*
X30679332Y-7776408D01*
X30691049Y-7771903D01*
X30702449Y-7767065D01*
X30713529Y-7761892D01*
X30724291Y-7756386D01*
X30734735Y-7750546D01*
X30744860Y-7744372D01*
X30754666Y-7737865D01*
X30764154Y-7731024D01*
X30773324Y-7723849D01*
X30782175Y-7716341D01*
X30790707Y-7708499D01*
X30798906Y-7700323D01*
X30806755Y-7691813D01*
X30814256Y-7682970D01*
X30821408Y-7673793D01*
X30828211Y-7664282D01*
X30834665Y-7654438D01*
X30840771Y-7644260D01*
X30846527Y-7633748D01*
X30851935Y-7622903D01*
X30856994Y-7611723D01*
X30861703Y-7600210D01*
X30866064Y-7588364D01*
X30870076Y-7576183D01*
X30873740Y-7563669D01*
X30877054Y-7550822D01*
X30880019Y-7537640D01*
X30882636Y-7524125D01*
X30884904Y-7510276D01*
X30886823Y-7496093D01*
X30888392Y-7481577D01*
X30889614Y-7466727D01*
X30890486Y-7451543D01*
X30891009Y-7436026D01*
X30891183Y-7420175D01*
X30891183Y-6887212D01*
X31703733Y-6887212D01*
X31703953Y-6908964D01*
X31704613Y-6930533D01*
X31705713Y-6951921D01*
X31707252Y-6973127D01*
X31709232Y-6994150D01*
X31711651Y-7014992D01*
X31714510Y-7035652D01*
X31717810Y-7056129D01*
X31721549Y-7076425D01*
X31725728Y-7096538D01*
X31730346Y-7116470D01*
X31735405Y-7136219D01*
X31740904Y-7155787D01*
X31746842Y-7175172D01*
X31753221Y-7194375D01*
X31760039Y-7213397D01*
X31767297Y-7232236D01*
X31774995Y-7250894D01*
X31783133Y-7269369D01*
X31791711Y-7287662D01*
X31800729Y-7305773D01*
X31810186Y-7323703D01*
X31820084Y-7341450D01*
X31830421Y-7359015D01*
X31841130Y-7376338D01*
X31852142Y-7393357D01*
X31863458Y-7410072D01*
X31875077Y-7426485D01*
X31887000Y-7442594D01*
X31899226Y-7458400D01*
X31911755Y-7473902D01*
X31924587Y-7489101D01*
X31937723Y-7503996D01*
X31951163Y-7518588D01*
X31964905Y-7532877D01*
X31978952Y-7546863D01*
X31993301Y-7560545D01*
X32007954Y-7573923D01*
X32022910Y-7586999D01*
X32038170Y-7599771D01*
X32053733Y-7612239D01*
X32069599Y-7624404D01*
X32085769Y-7636266D01*
X32102242Y-7647825D01*
X32119018Y-7659080D01*
X32136098Y-7670031D01*
X32153481Y-7680680D01*
X32171168Y-7691025D01*
X32189104Y-7701006D01*
X32207238Y-7710562D01*
X32225570Y-7719693D01*
X32244098Y-7728400D01*
X32262824Y-7736682D01*
X32281746Y-7744539D01*
X32300866Y-7751972D01*
X32320184Y-7758980D01*
X32339698Y-7765563D01*
X32359409Y-7771721D01*
X32379318Y-7777455D01*
X32399424Y-7782764D01*
X32419727Y-7787648D01*
X32440228Y-7792108D01*
X32460925Y-7796143D01*
X32481820Y-7799753D01*
X32502912Y-7802938D01*
X32524201Y-7805699D01*
X32545687Y-7808035D01*
X32567370Y-7809946D01*
X32589251Y-7811433D01*
X32611329Y-7812494D01*
X32633604Y-7813132D01*
X32656076Y-7813344D01*
X32682788Y-7813025D01*
X32709045Y-7812070D01*
X32734847Y-7810477D01*
X32760193Y-7808247D01*
X32785085Y-7805380D01*
X32809521Y-7801876D01*
X32833503Y-7797735D01*
X32857029Y-7792957D01*
X32880101Y-7787542D01*
X32902717Y-7781490D01*
X32924878Y-7774801D01*
X32946585Y-7767474D01*
X32967836Y-7759511D01*
X32988632Y-7750910D01*
X33008973Y-7741672D01*
X33028859Y-7731798D01*
X33048290Y-7721286D01*
X33067266Y-7710137D01*
X33085787Y-7698351D01*
X33103852Y-7685928D01*
X33121463Y-7672868D01*
X33138619Y-7659171D01*
X33155319Y-7644836D01*
X33171565Y-7629865D01*
X33187249Y-7614348D01*
X33202266Y-7598375D01*
X33216615Y-7581947D01*
X33230297Y-7565065D01*
X33243312Y-7547727D01*
X33255659Y-7529934D01*
X33267339Y-7511687D01*
X33278351Y-7492984D01*
X33288696Y-7473826D01*
X33298374Y-7454213D01*
X33307384Y-7434145D01*
X33315727Y-7413622D01*
X33323402Y-7392644D01*
X33330410Y-7371211D01*
X33336750Y-7349322D01*
X33342423Y-7326979D01*
X33347429Y-7304181D01*
X33351767Y-7280927D01*
X33355438Y-7257219D01*
X33358441Y-7233055D01*
X33360777Y-7208437D01*
X33362446Y-7183363D01*
X33363447Y-7157834D01*
X33363781Y-7131851D01*
X33363470Y-7107270D01*
X33362537Y-7083038D01*
X33360982Y-7059155D01*
X33358805Y-7035621D01*
X33356007Y-7012436D01*
X33352586Y-6989600D01*
X33348544Y-6967112D01*
X33343880Y-6944974D01*
X33338593Y-6923184D01*
X33332685Y-6901744D01*
X33326155Y-6880652D01*
X33319003Y-6859909D01*
X33311229Y-6839515D01*
X33302833Y-6819469D01*
X33293816Y-6799773D01*
X33284176Y-6780425D01*
X33273915Y-6761427D01*
X33263031Y-6742777D01*
X33251526Y-6724476D01*
X33239399Y-6706524D01*
X33226649Y-6688921D01*
X33213278Y-6671667D01*
X33199285Y-6654761D01*
X33184670Y-6638205D01*
X33169411Y-6621997D01*
X33153484Y-6606139D01*
X33136889Y-6590629D01*
X33119628Y-6575468D01*
X33101698Y-6560656D01*
X33083102Y-6546192D01*
X33063838Y-6532078D01*
X33043906Y-6518313D01*
X33023307Y-6504896D01*
X33002041Y-6491828D01*
X32980107Y-6479109D01*
X32957506Y-6466739D01*
X32934237Y-6454718D01*
X32910301Y-6443046D01*
X32885698Y-6431723D01*
X32860427Y-6420748D01*
X32834489Y-6410123D01*
X32807883Y-6399846D01*
X32780610Y-6389918D01*
X32752670Y-6380339D01*
X32724062Y-6371109D01*
X32694786Y-6362228D01*
X32664844Y-6353696D01*
X32634234Y-6345512D01*
X32602964Y-6337670D01*
X32571041Y-6330162D01*
X32538467Y-6322987D01*
X32505240Y-6316146D01*
X32471361Y-6309639D01*
X32436830Y-6303465D01*
X32401646Y-6297625D01*
X32365811Y-6292119D01*
X32329323Y-6286946D01*
X32292182Y-6282108D01*
X32254390Y-6277603D01*
X32215945Y-6273431D01*
X32176848Y-6269594D01*
X32137099Y-6266090D01*
X32096698Y-6262919D01*
X32055644Y-6260083D01*
X32013938Y-6257580D01*
X31971580Y-6255411D01*
X31928569Y-6253576D01*
X31884906Y-6252074D01*
X31840591Y-6250906D01*
X31795624Y-6250072D01*
X31750005Y-6249571D01*
X31703733Y-6249404D01*
X31703733Y-6887212D01*
X30891183Y-6887212D01*
X30891183Y-5305798D01*
X30891494Y-5261703D01*
X30892427Y-5218245D01*
X30893982Y-5175424D01*
X30896159Y-5133241D01*
X30898957Y-5091694D01*
X30902378Y-5050784D01*
X30906420Y-5010512D01*
X30911085Y-4970876D01*
X30916371Y-4931878D01*
X30922279Y-4893517D01*
X30928809Y-4855792D01*
X30935961Y-4818705D01*
X30943735Y-4782255D01*
X30952131Y-4746442D01*
X30961148Y-4711266D01*
X30970788Y-4676728D01*
X30981050Y-4642826D01*
X30991933Y-4609561D01*
X31003438Y-4576934D01*
X31015566Y-4544943D01*
X31028315Y-4513590D01*
X31041686Y-4482873D01*
X31055679Y-4452794D01*
X31070294Y-4423352D01*
X31085538Y-4394539D01*
X31101420Y-4366348D01*
X31117938Y-4338780D01*
X31135094Y-4311833D01*
X31152887Y-4285508D01*
X31171317Y-4259804D01*
X31190383Y-4234723D01*
X31210087Y-4210264D01*
X31230428Y-4186426D01*
X31251407Y-4163211D01*
X31273022Y-4140617D01*
X31295274Y-4118646D01*
X31318163Y-4097296D01*
X31341690Y-4076568D01*
X31365853Y-4056462D01*
X31390654Y-4036978D01*
X31416092Y-4018116D01*
X31442166Y-3999876D01*
X31468878Y-3982258D01*
X31496227Y-3965261D01*
X31524213Y-3948887D01*
X31552836Y-3933134D01*
X31582096Y-3918004D01*
X31611994Y-3903495D01*
X31642536Y-3889593D01*
X31673730Y-3876282D01*
X31705576Y-3863564D01*
X31738075Y-3851436D01*
X31771226Y-3839901D01*
X31805029Y-3828957D01*
X31839484Y-3818604D01*
X31874592Y-3808843D01*
X31910352Y-3799674D01*
X31946764Y-3791096D01*
X31983828Y-3783110D01*
X32021545Y-3775715D01*
X32059914Y-3768912D01*
X32098935Y-3762700D01*
X32138608Y-3757080D01*
X32178934Y-3752052D01*
X32219912Y-3747615D01*
X32261542Y-3743770D01*
X32303824Y-3740516D01*
X32346759Y-3737854D01*
X32390346Y-3735784D01*
X32434585Y-3734305D01*
X32479476Y-3733417D01*
X32525020Y-3733122D01*
X32562039Y-3733395D01*
G37*
G36*
X39586661Y-3733395D02*
G01*
X39623453Y-3734214D01*
X39660017Y-3735579D01*
X39696353Y-3737490D01*
X39732462Y-3739947D01*
X39768343Y-3742951D01*
X39803997Y-3746500D01*
X39839423Y-3750596D01*
X39874621Y-3755237D01*
X39909593Y-3760425D01*
X39944336Y-3766159D01*
X39978852Y-3772438D01*
X40013141Y-3779264D01*
X40047202Y-3786636D01*
X40081035Y-3794554D01*
X40114641Y-3803018D01*
X40148020Y-3812028D01*
X40181171Y-3821585D01*
X40214094Y-3831687D01*
X40246790Y-3842335D01*
X40279258Y-3853530D01*
X40311499Y-3865270D01*
X40343512Y-3877557D01*
X40375298Y-3890389D01*
X40406712Y-3903669D01*
X40437610Y-3917298D01*
X40467993Y-3931276D01*
X40497860Y-3945603D01*
X40527211Y-3960278D01*
X40556046Y-3975303D01*
X40584366Y-3990676D01*
X40612170Y-4006398D01*
X40639458Y-4022469D01*
X40666231Y-4038889D01*
X40692488Y-4055658D01*
X40718229Y-4072776D01*
X40743454Y-4090243D01*
X40768164Y-4108058D01*
X40792358Y-4126222D01*
X40816036Y-4144736D01*
X40839198Y-4163598D01*
X40861845Y-4182809D01*
X40883976Y-4202369D01*
X40905591Y-4222277D01*
X40926690Y-4242535D01*
X40947274Y-4263141D01*
X40967342Y-4284097D01*
X40986894Y-4305401D01*
X41005787Y-4326963D01*
X41023875Y-4348692D01*
X41041160Y-4370588D01*
X41057641Y-4392651D01*
X41073317Y-4414880D01*
X41088190Y-4437277D01*
X41102259Y-4459840D01*
X41115524Y-4482570D01*
X41127985Y-4505467D01*
X41139642Y-4528531D01*
X41150495Y-4551761D01*
X41160544Y-4575159D01*
X41169789Y-4598723D01*
X41178231Y-4622454D01*
X41185868Y-4646353D01*
X41192701Y-4670417D01*
X41198731Y-4694649D01*
X41203957Y-4719048D01*
X41208378Y-4743613D01*
X41211996Y-4768346D01*
X41214810Y-4793245D01*
X41216819Y-4818311D01*
X41218025Y-4843544D01*
X41218427Y-4868944D01*
X41218200Y-4886971D01*
X41217517Y-4904650D01*
X41216380Y-4921980D01*
X41214787Y-4938962D01*
X41212739Y-4955594D01*
X41210236Y-4971877D01*
X41207278Y-4987812D01*
X41203866Y-5003398D01*
X41199998Y-5018635D01*
X41195674Y-5033523D01*
X41190896Y-5048062D01*
X41185663Y-5062252D01*
X41179975Y-5076093D01*
X41173832Y-5089586D01*
X41167233Y-5102729D01*
X41160180Y-5115524D01*
X41152672Y-5127970D01*
X41144708Y-5140067D01*
X41136290Y-5151815D01*
X41127416Y-5163214D01*
X41118087Y-5174264D01*
X41108304Y-5184965D01*
X41098065Y-5195318D01*
X41087371Y-5205322D01*
X41076268Y-5214946D01*
X41064800Y-5224161D01*
X41052969Y-5232966D01*
X41040773Y-5241362D01*
X41028214Y-5249348D01*
X41015290Y-5256925D01*
X41002002Y-5264092D01*
X40988351Y-5270850D01*
X40974335Y-5277198D01*
X40959955Y-5283136D01*
X40945211Y-5288665D01*
X40930103Y-5293785D01*
X40914631Y-5298495D01*
X40898795Y-5302795D01*
X40882595Y-5306686D01*
X40866031Y-5310167D01*
X40849103Y-5313238D01*
X40831811Y-5315901D01*
X40814155Y-5318153D01*
X40796134Y-5319996D01*
X40777750Y-5321429D01*
X40759002Y-5322453D01*
X40739889Y-5323068D01*
X40720413Y-5323272D01*
X40703781Y-5323075D01*
X40687376Y-5322484D01*
X40671199Y-5321498D01*
X40655249Y-5320117D01*
X40639527Y-5318343D01*
X40624032Y-5316174D01*
X40608765Y-5313610D01*
X40593725Y-5310652D01*
X40578913Y-5307300D01*
X40564329Y-5303553D01*
X40549971Y-5299412D01*
X40535842Y-5294877D01*
X40521940Y-5289947D01*
X40508265Y-5284623D01*
X40494819Y-5278904D01*
X40481599Y-5272791D01*
X40468607Y-5266284D01*
X40455843Y-5259382D01*
X40443306Y-5252086D01*
X40430997Y-5244396D01*
X40418915Y-5236311D01*
X40407061Y-5227832D01*
X40395434Y-5218958D01*
X40384035Y-5209690D01*
X40372985Y-5200134D01*
X40362405Y-5190396D01*
X40352295Y-5180476D01*
X40342655Y-5170373D01*
X40333486Y-5160089D01*
X40324787Y-5149623D01*
X40316558Y-5138974D01*
X40308799Y-5128144D01*
X40301510Y-5117132D01*
X40294692Y-5105937D01*
X40288344Y-5094561D01*
X40282466Y-5083002D01*
X40277059Y-5071262D01*
X40272121Y-5059339D01*
X40267654Y-5047235D01*
X40263657Y-5034948D01*
X40260131Y-5022480D01*
X40257074Y-5009829D01*
X40254488Y-4996997D01*
X40252372Y-4983982D01*
X40250726Y-4970785D01*
X40249550Y-4957407D01*
X40248845Y-4943846D01*
X40248610Y-4930103D01*
X40248648Y-4926425D01*
X40248762Y-4922671D01*
X40248951Y-4918841D01*
X40249217Y-4914935D01*
X40249558Y-4910953D01*
X40249975Y-4906895D01*
X40250468Y-4902762D01*
X40251037Y-4898553D01*
X40251682Y-4894268D01*
X40252402Y-4889907D01*
X40253198Y-4885470D01*
X40254071Y-4880957D01*
X40255019Y-4876369D01*
X40256043Y-4871704D01*
X40257142Y-4866964D01*
X40258318Y-4862148D01*
X40259569Y-4857256D01*
X40260897Y-4852289D01*
X40262300Y-4847245D01*
X40263779Y-4842126D01*
X40265333Y-4836930D01*
X40266964Y-4831659D01*
X40268670Y-4826312D01*
X40270453Y-4820890D01*
X40272326Y-4815376D01*
X40274306Y-4809756D01*
X40276391Y-4804030D01*
X40278583Y-4798197D01*
X40280881Y-4792259D01*
X40283285Y-4786214D01*
X40285796Y-4780063D01*
X40288412Y-4773806D01*
X40291135Y-4767443D01*
X40293964Y-4760974D01*
X40296899Y-4754398D01*
X40299940Y-4747716D01*
X40303088Y-4740929D01*
X40306342Y-4734034D01*
X40309701Y-4727034D01*
X40313167Y-4719928D01*
X40316740Y-4712715D01*
X40320418Y-4705396D01*
X40324203Y-4697971D01*
X40328093Y-4690440D01*
X40332090Y-4682803D01*
X40336193Y-4675059D01*
X40340403Y-4667209D01*
X40344718Y-4659253D01*
X40349147Y-4651184D01*
X40353698Y-4642993D01*
X40358370Y-4634680D01*
X40363163Y-4626247D01*
X40368078Y-4617692D01*
X40373114Y-4609015D01*
X40378271Y-4600217D01*
X40383550Y-4591298D01*
X40388950Y-4582258D01*
X40394471Y-4573096D01*
X40400114Y-4563813D01*
X40405878Y-4554408D01*
X40411763Y-4544882D01*
X40417770Y-4535235D01*
X40423898Y-4525467D01*
X40430147Y-4515577D01*
X40436518Y-4505565D01*
X40443010Y-4495433D01*
X40449624Y-4485179D01*
X40456359Y-4474804D01*
X40463215Y-4464307D01*
X40470192Y-4453689D01*
X40477291Y-4442950D01*
X40484512Y-4432089D01*
X40474842Y-4422692D01*
X40464762Y-4413432D01*
X40454273Y-4404308D01*
X40443374Y-4395320D01*
X40432066Y-4386470D01*
X40420348Y-4377755D01*
X40408221Y-4369177D01*
X40395684Y-4360736D01*
X40382738Y-4352431D01*
X40369382Y-4344263D01*
X40355617Y-4336231D01*
X40341442Y-4328336D01*
X40326857Y-4320577D01*
X40311863Y-4312955D01*
X40296459Y-4305469D01*
X40280646Y-4298120D01*
X40264423Y-4290908D01*
X40247791Y-4283831D01*
X40230749Y-4276892D01*
X40213298Y-4270089D01*
X40195437Y-4263422D01*
X40177166Y-4256892D01*
X40158486Y-4250498D01*
X40139396Y-4244241D01*
X40120094Y-4238182D01*
X40100777Y-4232380D01*
X40081445Y-4226836D01*
X40062097Y-4221549D01*
X40042735Y-4216521D01*
X40023357Y-4211750D01*
X40003964Y-4207238D01*
X39984556Y-4202983D01*
X39965132Y-4198986D01*
X39945694Y-4195247D01*
X39926240Y-4191766D01*
X39906771Y-4188542D01*
X39887287Y-4185577D01*
X39867788Y-4182869D01*
X39848274Y-4180420D01*
X39828744Y-4178228D01*
X39809199Y-4176294D01*
X39789640Y-4174618D01*
X39770065Y-4173199D01*
X39750474Y-4172039D01*
X39730869Y-4171137D01*
X39711248Y-4170492D01*
X39691613Y-4170105D01*
X39671962Y-4169976D01*
X39644514Y-4170166D01*
X39617507Y-4170735D01*
X39590939Y-4171683D01*
X39564811Y-4173010D01*
X39539123Y-4174716D01*
X39513875Y-4176802D01*
X39489067Y-4179267D01*
X39464699Y-4182111D01*
X39440770Y-4185334D01*
X39417282Y-4188937D01*
X39394233Y-4192919D01*
X39371624Y-4197280D01*
X39349455Y-4202020D01*
X39327726Y-4207139D01*
X39306437Y-4212638D01*
X39285588Y-4218516D01*
X39265179Y-4224773D01*
X39245209Y-4231409D01*
X39225680Y-4238424D01*
X39206590Y-4245819D01*
X39187941Y-4253593D01*
X39169731Y-4261746D01*
X39151961Y-4270278D01*
X39134631Y-4279190D01*
X39117703Y-4288496D01*
X39101138Y-4298211D01*
X39084938Y-4308336D01*
X39069102Y-4318871D01*
X39053631Y-4329815D01*
X39038523Y-4341169D01*
X39023779Y-4352932D01*
X39009399Y-4365105D01*
X38995383Y-4377687D01*
X38981732Y-4390679D01*
X38968444Y-4404080D01*
X38955520Y-4417891D01*
X38942961Y-4432112D01*
X38930765Y-4446742D01*
X38918934Y-4461781D01*
X38907466Y-4477231D01*
X38896363Y-4493089D01*
X38885624Y-4509358D01*
X38875248Y-4526035D01*
X38865237Y-4543123D01*
X38855590Y-4560620D01*
X38846307Y-4578526D01*
X38837387Y-4596842D01*
X38828832Y-4615568D01*
X38820634Y-4634726D01*
X38812784Y-4654339D01*
X38805283Y-4674407D01*
X38798131Y-4694930D01*
X38791328Y-4715908D01*
X38784874Y-4737341D01*
X38778769Y-4759229D01*
X38773012Y-4781573D01*
X38767604Y-4804371D01*
X38762546Y-4827624D01*
X38757836Y-4851333D01*
X38753475Y-4875496D01*
X38749463Y-4900115D01*
X38745800Y-4925189D01*
X38742485Y-4950717D01*
X38739520Y-4976701D01*
X38736903Y-5003140D01*
X38734636Y-5030034D01*
X38732717Y-5057383D01*
X38731147Y-5085187D01*
X38729926Y-5113446D01*
X38729054Y-5142160D01*
X38728530Y-5171329D01*
X38728356Y-5200953D01*
X38728356Y-5803813D01*
X38804881Y-5807643D01*
X38880102Y-5811852D01*
X38954019Y-5816440D01*
X39026630Y-5821408D01*
X39097938Y-5826755D01*
X39167941Y-5832481D01*
X39236639Y-5838586D01*
X39304033Y-5845071D01*
X39370123Y-5851935D01*
X39434908Y-5859178D01*
X39498388Y-5866800D01*
X39560564Y-5874801D01*
X39621435Y-5883182D01*
X39681002Y-5891942D01*
X39739265Y-5901081D01*
X39796223Y-5910599D01*
X39851876Y-5920497D01*
X39906225Y-5930773D01*
X39959270Y-5941429D01*
X40011010Y-5952464D01*
X40061445Y-5963879D01*
X40110576Y-5975672D01*
X40158403Y-5987845D01*
X40204925Y-6000397D01*
X40250256Y-6013389D01*
X40294510Y-6026881D01*
X40337687Y-6040874D01*
X40379788Y-6055368D01*
X40420811Y-6070362D01*
X40460758Y-6085857D01*
X40499627Y-6101852D01*
X40537419Y-6118348D01*
X40574135Y-6135344D01*
X40609774Y-6152841D01*
X40644335Y-6170839D01*
X40677820Y-6189337D01*
X40710227Y-6208335D01*
X40741558Y-6227835D01*
X40771812Y-6247834D01*
X40800988Y-6268335D01*
X40829088Y-6289336D01*
X40856111Y-6310837D01*
X40882057Y-6332839D01*
X40906926Y-6355342D01*
X40930718Y-6378345D01*
X40953433Y-6401848D01*
X40975070Y-6425853D01*
X40995631Y-6450357D01*
X41015237Y-6475431D01*
X41034008Y-6501142D01*
X41051945Y-6527490D01*
X41069047Y-6554474D01*
X41085316Y-6582096D01*
X41100750Y-6610355D01*
X41115349Y-6639252D01*
X41129115Y-6668785D01*
X41142046Y-6698955D01*
X41154143Y-6729762D01*
X41165406Y-6761207D01*
X41175834Y-6793288D01*
X41185428Y-6826007D01*
X41194188Y-6859363D01*
X41202114Y-6893355D01*
X41209205Y-6927985D01*
X41215462Y-6963252D01*
X41220885Y-6999156D01*
X41225473Y-7035697D01*
X41229227Y-7072875D01*
X41232147Y-7110691D01*
X41234233Y-7149143D01*
X41235484Y-7188232D01*
X41235902Y-7227959D01*
X41235318Y-7272008D01*
X41233566Y-7315330D01*
X41230646Y-7357923D01*
X41226558Y-7399788D01*
X41221302Y-7440925D01*
X41214878Y-7481334D01*
X41207286Y-7521015D01*
X41198526Y-7559968D01*
X41188598Y-7598193D01*
X41177503Y-7635690D01*
X41165239Y-7672458D01*
X41151807Y-7708499D01*
X41137207Y-7743811D01*
X41121440Y-7778396D01*
X41104504Y-7812252D01*
X41086400Y-7845380D01*
X41067128Y-7877780D01*
X41046689Y-7909452D01*
X41025081Y-7940396D01*
X41002306Y-7970612D01*
X40978362Y-8000099D01*
X40953250Y-8028859D01*
X40926971Y-8056890D01*
X40899523Y-8084194D01*
X40871120Y-8110572D01*
X40841974Y-8135828D01*
X40812084Y-8159961D01*
X40781451Y-8182971D01*
X40750075Y-8204860D01*
X40717956Y-8225625D01*
X40685093Y-8245269D01*
X40651487Y-8263790D01*
X40617138Y-8281188D01*
X40582045Y-8297464D01*
X40546210Y-8312617D01*
X40509631Y-8326648D01*
X40472308Y-8339557D01*
X40434243Y-8351343D01*
X40395434Y-8362006D01*
X40355882Y-8371547D01*
X40315587Y-8379966D01*
X40274548Y-8387262D01*
X40232766Y-8393435D01*
X40190241Y-8398486D01*
X40146973Y-8402415D01*
X40102961Y-8405221D01*
X40058207Y-8406905D01*
X40012708Y-8407466D01*
X39988044Y-8407315D01*
X39963562Y-8406860D01*
X39939262Y-8406101D01*
X39915144Y-8405039D01*
X39891208Y-8403674D01*
X39867454Y-8402006D01*
X39843882Y-8400034D01*
X39820492Y-8397758D01*
X39797285Y-8395180D01*
X39774259Y-8392298D01*
X39751415Y-8389112D01*
X39728753Y-8385624D01*
X39706273Y-8381831D01*
X39683975Y-8377736D01*
X39661860Y-8373337D01*
X39639926Y-8368635D01*
X39618174Y-8363629D01*
X39596604Y-8358320D01*
X39575217Y-8352708D01*
X39554011Y-8346792D01*
X39532987Y-8340573D01*
X39512146Y-8334050D01*
X39491486Y-8327225D01*
X39471009Y-8320095D01*
X39450698Y-8312670D01*
X39430539Y-8304957D01*
X39410532Y-8296956D01*
X39390676Y-8288666D01*
X39370972Y-8280088D01*
X39351420Y-8271222D01*
X39332019Y-8262068D01*
X39312770Y-8252626D01*
X39293673Y-8242895D01*
X39274728Y-8232876D01*
X39255934Y-8222569D01*
X39237292Y-8211974D01*
X39218801Y-8201090D01*
X39200462Y-8189919D01*
X39182275Y-8178459D01*
X39164240Y-8166711D01*
X39146356Y-8154675D01*
X39128624Y-8142350D01*
X39111044Y-8129737D01*
X39093615Y-8116837D01*
X39076338Y-8103647D01*
X39059213Y-8090170D01*
X39042239Y-8076405D01*
X39025417Y-8062351D01*
X39008732Y-8047994D01*
X38992168Y-8033318D01*
X38975725Y-8018324D01*
X38959403Y-8003012D01*
X38943203Y-7987380D01*
X38927125Y-7971431D01*
X38911167Y-7955162D01*
X38895331Y-7938576D01*
X38879617Y-7921670D01*
X38864023Y-7904446D01*
X38848552Y-7886904D01*
X38833201Y-7869043D01*
X38817972Y-7850863D01*
X38802864Y-7832365D01*
X38787877Y-7813549D01*
X38773012Y-7794414D01*
X38758268Y-7774960D01*
X38743646Y-7755188D01*
X38729145Y-7735097D01*
X38714765Y-7714688D01*
X38700506Y-7693960D01*
X38686369Y-7672913D01*
X38672353Y-7651548D01*
X38658459Y-7629865D01*
X38654538Y-7661575D01*
X38650056Y-7692632D01*
X38645012Y-7723038D01*
X38639407Y-7752791D01*
X38633241Y-7781892D01*
X38626514Y-7810341D01*
X38619226Y-7838137D01*
X38611376Y-7865281D01*
X38602965Y-7891773D01*
X38593993Y-7917613D01*
X38584459Y-7942800D01*
X38574365Y-7967335D01*
X38563709Y-7991218D01*
X38552492Y-8014449D01*
X38540713Y-8037027D01*
X38528373Y-8058953D01*
X38515473Y-8080227D01*
X38502011Y-8100849D01*
X38487987Y-8120818D01*
X38473403Y-8140135D01*
X38458257Y-8158800D01*
X38442550Y-8176813D01*
X38426281Y-8194173D01*
X38409452Y-8210882D01*
X38392046Y-8226922D01*
X38374049Y-8242281D01*
X38355459Y-8256956D01*
X38336279Y-8270949D01*
X38316507Y-8284260D01*
X38296143Y-8296887D01*
X38275187Y-8308833D01*
X38253640Y-8320095D01*
X38231502Y-8330675D01*
X38208772Y-8340573D01*
X38185450Y-8349788D01*
X38161537Y-8358320D01*
X38137032Y-8366170D01*
X38111936Y-8373337D01*
X38086248Y-8379822D01*
X38059968Y-8385624D01*
X38033097Y-8390743D01*
X38005634Y-8395180D01*
X37977580Y-8398934D01*
X37948934Y-8402006D01*
X37919697Y-8404395D01*
X37889868Y-8406101D01*
X37859447Y-8407125D01*
X37828435Y-8407466D01*
X37812357Y-8407292D01*
X37796157Y-8406768D01*
X37779835Y-8405896D01*
X37763392Y-8404675D01*
X37746828Y-8403105D01*
X37730143Y-8401186D01*
X37713336Y-8398919D01*
X37696408Y-8396302D01*
X37679359Y-8393337D01*
X37662188Y-8390022D01*
X37644896Y-8386359D01*
X37627482Y-8382347D01*
X37609947Y-8377986D01*
X37592291Y-8373276D01*
X37574514Y-8368218D01*
X37556615Y-8362810D01*
X37538594Y-8357054D01*
X37520453Y-8350948D01*
X37502190Y-8344494D01*
X37483805Y-8337691D01*
X37465300Y-8330539D01*
X37446673Y-8323038D01*
X37427924Y-8315188D01*
X37409055Y-8306990D01*
X37390246Y-8298533D01*
X37371679Y-8289910D01*
X37353356Y-8281120D01*
X37335275Y-8272163D01*
X37317437Y-8263039D01*
X37299841Y-8253748D01*
X37282488Y-8244290D01*
X37265378Y-8234666D01*
X37248511Y-8224875D01*
X37231886Y-8214916D01*
X37215504Y-8204791D01*
X37199365Y-8194500D01*
X37183468Y-8184041D01*
X37167814Y-8173415D01*
X37152403Y-8162623D01*
X37137234Y-8151664D01*
X37122308Y-8140537D01*
X37107625Y-8129244D01*
X37093185Y-8117785D01*
X37078987Y-8106158D01*
X37065032Y-8094364D01*
X37051319Y-8082404D01*
X37037850Y-8070277D01*
X37024623Y-8057983D01*
X37111994Y-7734710D01*
X37122141Y-7737592D01*
X37132198Y-7740413D01*
X37142164Y-7743174D01*
X37152039Y-7745874D01*
X37161822Y-7748513D01*
X37171515Y-7751092D01*
X37181117Y-7753610D01*
X37190627Y-7756067D01*
X37200047Y-7758464D01*
X37209376Y-7760800D01*
X37218613Y-7763075D01*
X37227760Y-7765290D01*
X37236816Y-7767444D01*
X37245780Y-7769537D01*
X37254654Y-7771570D01*
X37263437Y-7773542D01*
X37272128Y-7775453D01*
X37280729Y-7777303D01*
X37289238Y-7779093D01*
X37297657Y-7780823D01*
X37305984Y-7782491D01*
X37314221Y-7784099D01*
X37322366Y-7785646D01*
X37330421Y-7787133D01*
X37338430Y-7788558D01*
X37346439Y-7789924D01*
X37354448Y-7791228D01*
X37362457Y-7792472D01*
X37370466Y-7793655D01*
X37378475Y-7794778D01*
X37386484Y-7795839D01*
X37394493Y-7796841D01*
X37402502Y-7797781D01*
X37410511Y-7798661D01*
X37418520Y-7799480D01*
X37426529Y-7800238D01*
X37434538Y-7800936D01*
X37442547Y-7801573D01*
X37450556Y-7802150D01*
X37458565Y-7802665D01*
X37466574Y-7803120D01*
X37474583Y-7803515D01*
X37482592Y-7803848D01*
X37490601Y-7804121D01*
X37498610Y-7804334D01*
X37506619Y-7804485D01*
X37514628Y-7804576D01*
X37522637Y-7804607D01*
X37538496Y-7804440D01*
X37554036Y-7803939D01*
X37569258Y-7803105D01*
X37584161Y-7801937D01*
X37598745Y-7800435D01*
X37613011Y-7798600D01*
X37626959Y-7796431D01*
X37640588Y-7793928D01*
X37653898Y-7791092D01*
X37666890Y-7787921D01*
X37679563Y-7784417D01*
X37691918Y-7780580D01*
X37703954Y-7776408D01*
X37715672Y-7771903D01*
X37727071Y-7767065D01*
X37738152Y-7761892D01*
X37748914Y-7756386D01*
X37759358Y-7750546D01*
X37769483Y-7744372D01*
X37779289Y-7737865D01*
X37788777Y-7731024D01*
X37797946Y-7723849D01*
X37806797Y-7716341D01*
X37815330Y-7708499D01*
X37823528Y-7700323D01*
X37831378Y-7691813D01*
X37838879Y-7682970D01*
X37846031Y-7673793D01*
X37852834Y-7664282D01*
X37859288Y-7654438D01*
X37865393Y-7644260D01*
X37871150Y-7633748D01*
X37876558Y-7622903D01*
X37881616Y-7611723D01*
X37886326Y-7600210D01*
X37890687Y-7588364D01*
X37894699Y-7576183D01*
X37898362Y-7563669D01*
X37901677Y-7550822D01*
X37904642Y-7537640D01*
X37907259Y-7524125D01*
X37909526Y-7510276D01*
X37911445Y-7496093D01*
X37913015Y-7481577D01*
X37914236Y-7466727D01*
X37915108Y-7451543D01*
X37915632Y-7436026D01*
X37915806Y-7420175D01*
X37915806Y-6887212D01*
X38728356Y-6887212D01*
X38728576Y-6908964D01*
X38729236Y-6930533D01*
X38730335Y-6951921D01*
X38731875Y-6973127D01*
X38733854Y-6994150D01*
X38736274Y-7014992D01*
X38739133Y-7035652D01*
X38742432Y-7056129D01*
X38746171Y-7076425D01*
X38750350Y-7096538D01*
X38754969Y-7116470D01*
X38760028Y-7136219D01*
X38765526Y-7155787D01*
X38771465Y-7175172D01*
X38777843Y-7194375D01*
X38784662Y-7213397D01*
X38791920Y-7232236D01*
X38799618Y-7250894D01*
X38807756Y-7269369D01*
X38816334Y-7287662D01*
X38825351Y-7305773D01*
X38834809Y-7323703D01*
X38844706Y-7341450D01*
X38855044Y-7359015D01*
X38865753Y-7376338D01*
X38876765Y-7393357D01*
X38888081Y-7410072D01*
X38899700Y-7426485D01*
X38911622Y-7442594D01*
X38923848Y-7458400D01*
X38936378Y-7473902D01*
X38949210Y-7489101D01*
X38962346Y-7503996D01*
X38975785Y-7518588D01*
X38989528Y-7532877D01*
X39003574Y-7546863D01*
X39017924Y-7560545D01*
X39032577Y-7573923D01*
X39047533Y-7586999D01*
X39062792Y-7599771D01*
X39078355Y-7612239D01*
X39094222Y-7624404D01*
X39110391Y-7636266D01*
X39126864Y-7647825D01*
X39143641Y-7659080D01*
X39160721Y-7670031D01*
X39178104Y-7680680D01*
X39195790Y-7691025D01*
X39213727Y-7701006D01*
X39231861Y-7710562D01*
X39250192Y-7719693D01*
X39268721Y-7728400D01*
X39287446Y-7736682D01*
X39306369Y-7744539D01*
X39325489Y-7751972D01*
X39344806Y-7758980D01*
X39364321Y-7765563D01*
X39384032Y-7771721D01*
X39403941Y-7777455D01*
X39424047Y-7782764D01*
X39444350Y-7787648D01*
X39464850Y-7792108D01*
X39485548Y-7796143D01*
X39506443Y-7799753D01*
X39527534Y-7802938D01*
X39548823Y-7805699D01*
X39570310Y-7808035D01*
X39591993Y-7809946D01*
X39613874Y-7811433D01*
X39635952Y-7812494D01*
X39658227Y-7813132D01*
X39680699Y-7813344D01*
X39707411Y-7813025D01*
X39733668Y-7812070D01*
X39759469Y-7810477D01*
X39784816Y-7808247D01*
X39809708Y-7805380D01*
X39834144Y-7801876D01*
X39858126Y-7797735D01*
X39881652Y-7792957D01*
X39904723Y-7787542D01*
X39927340Y-7781490D01*
X39949501Y-7774801D01*
X39971207Y-7767474D01*
X39992458Y-7759511D01*
X40013255Y-7750910D01*
X40033596Y-7741672D01*
X40053482Y-7731798D01*
X40072913Y-7721286D01*
X40091888Y-7710137D01*
X40110409Y-7698351D01*
X40128475Y-7685928D01*
X40146086Y-7672868D01*
X40163241Y-7659171D01*
X40179942Y-7644836D01*
X40196187Y-7629865D01*
X40211872Y-7614348D01*
X40226889Y-7598375D01*
X40241238Y-7581947D01*
X40254920Y-7565065D01*
X40267935Y-7547727D01*
X40280282Y-7529934D01*
X40291962Y-7511687D01*
X40302974Y-7492984D01*
X40313319Y-7473826D01*
X40322997Y-7454213D01*
X40332007Y-7434145D01*
X40340349Y-7413622D01*
X40348025Y-7392644D01*
X40355033Y-7371211D01*
X40361373Y-7349322D01*
X40367046Y-7326979D01*
X40372052Y-7304181D01*
X40376390Y-7280927D01*
X40380061Y-7257219D01*
X40383064Y-7233055D01*
X40385400Y-7208437D01*
X40387069Y-7183363D01*
X40388070Y-7157834D01*
X40388403Y-7131851D01*
X40388093Y-7107270D01*
X40387160Y-7083038D01*
X40385605Y-7059155D01*
X40383428Y-7035621D01*
X40380630Y-7012436D01*
X40377209Y-6989600D01*
X40373167Y-6967112D01*
X40368502Y-6944974D01*
X40363216Y-6923184D01*
X40357308Y-6901744D01*
X40350778Y-6880652D01*
X40343626Y-6859909D01*
X40335852Y-6839515D01*
X40327456Y-6819469D01*
X40318438Y-6799773D01*
X40308799Y-6780425D01*
X40298537Y-6761427D01*
X40287654Y-6742777D01*
X40276149Y-6724476D01*
X40264021Y-6706524D01*
X40251272Y-6688921D01*
X40237901Y-6671667D01*
X40223908Y-6654761D01*
X40209293Y-6638205D01*
X40194034Y-6621997D01*
X40178107Y-6606139D01*
X40161512Y-6590629D01*
X40144250Y-6575468D01*
X40126321Y-6560656D01*
X40107724Y-6546192D01*
X40088460Y-6532078D01*
X40068529Y-6518313D01*
X40047930Y-6504896D01*
X40026664Y-6491828D01*
X40004730Y-6479109D01*
X39982129Y-6466739D01*
X39958860Y-6454718D01*
X39934924Y-6443046D01*
X39910321Y-6431723D01*
X39885050Y-6420748D01*
X39859112Y-6410123D01*
X39832506Y-6399846D01*
X39805233Y-6389918D01*
X39777292Y-6380339D01*
X39748684Y-6371109D01*
X39719409Y-6362228D01*
X39689466Y-6353696D01*
X39658856Y-6345512D01*
X39627586Y-6337670D01*
X39595664Y-6330162D01*
X39563090Y-6322987D01*
X39529863Y-6316146D01*
X39495984Y-6309639D01*
X39461453Y-6303465D01*
X39426269Y-6297625D01*
X39390433Y-6292119D01*
X39353945Y-6286946D01*
X39316805Y-6282108D01*
X39279013Y-6277603D01*
X39240568Y-6273431D01*
X39201471Y-6269594D01*
X39161722Y-6266090D01*
X39121320Y-6262919D01*
X39080267Y-6260083D01*
X39038561Y-6257580D01*
X38996202Y-6255411D01*
X38953192Y-6253576D01*
X38909529Y-6252074D01*
X38865214Y-6250906D01*
X38820247Y-6250072D01*
X38774628Y-6249571D01*
X38728356Y-6249404D01*
X38728356Y-6887212D01*
X37915806Y-6887212D01*
X37915806Y-5305798D01*
X37916117Y-5261703D01*
X37917050Y-5218245D01*
X37918605Y-5175424D01*
X37920781Y-5133241D01*
X37923580Y-5091694D01*
X37927001Y-5050784D01*
X37931043Y-5010512D01*
X37935707Y-4970876D01*
X37940994Y-4931878D01*
X37946902Y-4893517D01*
X37953432Y-4855792D01*
X37960584Y-4818705D01*
X37968358Y-4782255D01*
X37976753Y-4746442D01*
X37985771Y-4711266D01*
X37995411Y-4676728D01*
X38005672Y-4642826D01*
X38016556Y-4609561D01*
X38028061Y-4576934D01*
X38040188Y-4544943D01*
X38052938Y-4513590D01*
X38066309Y-4482873D01*
X38080302Y-4452794D01*
X38094917Y-4423352D01*
X38110161Y-4394539D01*
X38126042Y-4366348D01*
X38142561Y-4338780D01*
X38159717Y-4311833D01*
X38177509Y-4285508D01*
X38195939Y-4259804D01*
X38215006Y-4234723D01*
X38234710Y-4210264D01*
X38255051Y-4186426D01*
X38276029Y-4163211D01*
X38297644Y-4140617D01*
X38319897Y-4118646D01*
X38342786Y-4097296D01*
X38366313Y-4076568D01*
X38390476Y-4056462D01*
X38415277Y-4036978D01*
X38440714Y-4018116D01*
X38466789Y-3999876D01*
X38493501Y-3982258D01*
X38520850Y-3965261D01*
X38548836Y-3948887D01*
X38577459Y-3933134D01*
X38606719Y-3918004D01*
X38636616Y-3903495D01*
X38667158Y-3889593D01*
X38698352Y-3876282D01*
X38730199Y-3863564D01*
X38762697Y-3851436D01*
X38795848Y-3839901D01*
X38829652Y-3828957D01*
X38864107Y-3818604D01*
X38899215Y-3808843D01*
X38934974Y-3799674D01*
X38971387Y-3791096D01*
X39008451Y-3783110D01*
X39046168Y-3775715D01*
X39084536Y-3768912D01*
X39123558Y-3762700D01*
X39163231Y-3757080D01*
X39203557Y-3752052D01*
X39244534Y-3747615D01*
X39286165Y-3743770D01*
X39328447Y-3740516D01*
X39371382Y-3737854D01*
X39414968Y-3735784D01*
X39459208Y-3734305D01*
X39504099Y-3733417D01*
X39549643Y-3733122D01*
X39586661Y-3733395D01*
G37*
D11*
X39600000Y-12562295D02*
X39600000Y-13133723D01*
X39600000Y-13133723D02*
X39638095Y-13248009D01*
X39638095Y-13248009D02*
X39714286Y-13324200D01*
X39714286Y-13324200D02*
X39828571Y-13362295D01*
X39828571Y-13362295D02*
X39904762Y-13362295D01*
X38876190Y-12828961D02*
X38876190Y-13362295D01*
X39066666Y-12524200D02*
X39257143Y-13095628D01*
X39257143Y-13095628D02*
X38761904Y-13095628D01*
X37390475Y-13362295D02*
X37657142Y-12981342D01*
X37847618Y-13362295D02*
X37847618Y-12562295D01*
X37847618Y-12562295D02*
X37542856Y-12562295D01*
X37542856Y-12562295D02*
X37466666Y-12600390D01*
X37466666Y-12600390D02*
X37428571Y-12638485D01*
X37428571Y-12638485D02*
X37390475Y-12714676D01*
X37390475Y-12714676D02*
X37390475Y-12828961D01*
X37390475Y-12828961D02*
X37428571Y-12905152D01*
X37428571Y-12905152D02*
X37466666Y-12943247D01*
X37466666Y-12943247D02*
X37542856Y-12981342D01*
X37542856Y-12981342D02*
X37847618Y-12981342D01*
X37047618Y-12943247D02*
X36780952Y-12943247D01*
X36666666Y-13362295D02*
X37047618Y-13362295D01*
X37047618Y-13362295D02*
X37047618Y-12562295D01*
X37047618Y-12562295D02*
X36666666Y-12562295D01*
X35866665Y-13286104D02*
X35904761Y-13324200D01*
X35904761Y-13324200D02*
X36019046Y-13362295D01*
X36019046Y-13362295D02*
X36095237Y-13362295D01*
X36095237Y-13362295D02*
X36209523Y-13324200D01*
X36209523Y-13324200D02*
X36285713Y-13248009D01*
X36285713Y-13248009D02*
X36323808Y-13171819D01*
X36323808Y-13171819D02*
X36361904Y-13019438D01*
X36361904Y-13019438D02*
X36361904Y-12905152D01*
X36361904Y-12905152D02*
X36323808Y-12752771D01*
X36323808Y-12752771D02*
X36285713Y-12676580D01*
X36285713Y-12676580D02*
X36209523Y-12600390D01*
X36209523Y-12600390D02*
X36095237Y-12562295D01*
X36095237Y-12562295D02*
X36019046Y-12562295D01*
X36019046Y-12562295D02*
X35904761Y-12600390D01*
X35904761Y-12600390D02*
X35866665Y-12638485D01*
X35371427Y-12562295D02*
X35219046Y-12562295D01*
X35219046Y-12562295D02*
X35142856Y-12600390D01*
X35142856Y-12600390D02*
X35066665Y-12676580D01*
X35066665Y-12676580D02*
X35028570Y-12828961D01*
X35028570Y-12828961D02*
X35028570Y-13095628D01*
X35028570Y-13095628D02*
X35066665Y-13248009D01*
X35066665Y-13248009D02*
X35142856Y-13324200D01*
X35142856Y-13324200D02*
X35219046Y-13362295D01*
X35219046Y-13362295D02*
X35371427Y-13362295D01*
X35371427Y-13362295D02*
X35447618Y-13324200D01*
X35447618Y-13324200D02*
X35523808Y-13248009D01*
X35523808Y-13248009D02*
X35561904Y-13095628D01*
X35561904Y-13095628D02*
X35561904Y-12828961D01*
X35561904Y-12828961D02*
X35523808Y-12676580D01*
X35523808Y-12676580D02*
X35447618Y-12600390D01*
X35447618Y-12600390D02*
X35371427Y-12562295D01*
X34799999Y-12562295D02*
X34533332Y-13362295D01*
X34533332Y-13362295D02*
X34266666Y-12562295D01*
X33999999Y-12943247D02*
X33733333Y-12943247D01*
X33619047Y-13362295D02*
X33999999Y-13362295D01*
X33999999Y-13362295D02*
X33999999Y-12562295D01*
X33999999Y-12562295D02*
X33619047Y-12562295D01*
X32819046Y-13362295D02*
X33085713Y-12981342D01*
X33276189Y-13362295D02*
X33276189Y-12562295D01*
X33276189Y-12562295D02*
X32971427Y-12562295D01*
X32971427Y-12562295D02*
X32895237Y-12600390D01*
X32895237Y-12600390D02*
X32857142Y-12638485D01*
X32857142Y-12638485D02*
X32819046Y-12714676D01*
X32819046Y-12714676D02*
X32819046Y-12828961D01*
X32819046Y-12828961D02*
X32857142Y-12905152D01*
X32857142Y-12905152D02*
X32895237Y-12943247D01*
X32895237Y-12943247D02*
X32971427Y-12981342D01*
X32971427Y-12981342D02*
X33276189Y-12981342D01*
X32323808Y-12981342D02*
X32323808Y-13362295D01*
X32590475Y-12562295D02*
X32323808Y-12981342D01*
X32323808Y-12981342D02*
X32057142Y-12562295D01*
X45914286Y-19562295D02*
X45914286Y-20133723D01*
X45914286Y-20133723D02*
X45952381Y-20248009D01*
X45952381Y-20248009D02*
X46028572Y-20324200D01*
X46028572Y-20324200D02*
X46142857Y-20362295D01*
X46142857Y-20362295D02*
X46219048Y-20362295D01*
X45190476Y-19828961D02*
X45190476Y-20362295D01*
X45380952Y-19524200D02*
X45571429Y-20095628D01*
X45571429Y-20095628D02*
X45076190Y-20095628D01*
X43133333Y-20362295D02*
X43590476Y-20362295D01*
X43361904Y-20362295D02*
X43361904Y-19562295D01*
X43361904Y-19562295D02*
X43438095Y-19676580D01*
X43438095Y-19676580D02*
X43514285Y-19752771D01*
X43514285Y-19752771D02*
X43590476Y-19790866D01*
X42790475Y-20286104D02*
X42752380Y-20324200D01*
X42752380Y-20324200D02*
X42790475Y-20362295D01*
X42790475Y-20362295D02*
X42828571Y-20324200D01*
X42828571Y-20324200D02*
X42790475Y-20286104D01*
X42790475Y-20286104D02*
X42790475Y-20362295D01*
X42790475Y-19867057D02*
X42752380Y-19905152D01*
X42752380Y-19905152D02*
X42790475Y-19943247D01*
X42790475Y-19943247D02*
X42828571Y-19905152D01*
X42828571Y-19905152D02*
X42790475Y-19867057D01*
X42790475Y-19867057D02*
X42790475Y-19943247D01*
X42485714Y-19562295D02*
X41990476Y-19562295D01*
X41990476Y-19562295D02*
X42257142Y-19867057D01*
X42257142Y-19867057D02*
X42142857Y-19867057D01*
X42142857Y-19867057D02*
X42066666Y-19905152D01*
X42066666Y-19905152D02*
X42028571Y-19943247D01*
X42028571Y-19943247D02*
X41990476Y-20019438D01*
X41990476Y-20019438D02*
X41990476Y-20209914D01*
X41990476Y-20209914D02*
X42028571Y-20286104D01*
X42028571Y-20286104D02*
X42066666Y-20324200D01*
X42066666Y-20324200D02*
X42142857Y-20362295D01*
X42142857Y-20362295D02*
X42371428Y-20362295D01*
X42371428Y-20362295D02*
X42447619Y-20324200D01*
X42447619Y-20324200D02*
X42485714Y-20286104D01*
X41761904Y-19562295D02*
X41495237Y-20362295D01*
X41495237Y-20362295D02*
X41228571Y-19562295D01*
X41038095Y-19562295D02*
X40542857Y-19562295D01*
X40542857Y-19562295D02*
X40809523Y-19867057D01*
X40809523Y-19867057D02*
X40695238Y-19867057D01*
X40695238Y-19867057D02*
X40619047Y-19905152D01*
X40619047Y-19905152D02*
X40580952Y-19943247D01*
X40580952Y-19943247D02*
X40542857Y-20019438D01*
X40542857Y-20019438D02*
X40542857Y-20209914D01*
X40542857Y-20209914D02*
X40580952Y-20286104D01*
X40580952Y-20286104D02*
X40619047Y-20324200D01*
X40619047Y-20324200D02*
X40695238Y-20362295D01*
X40695238Y-20362295D02*
X40923809Y-20362295D01*
X40923809Y-20362295D02*
X41000000Y-20324200D01*
X41000000Y-20324200D02*
X41038095Y-20286104D01*
X39019047Y-19638485D02*
X38980951Y-19600390D01*
X38980951Y-19600390D02*
X38904761Y-19562295D01*
X38904761Y-19562295D02*
X38714285Y-19562295D01*
X38714285Y-19562295D02*
X38638094Y-19600390D01*
X38638094Y-19600390D02*
X38599999Y-19638485D01*
X38599999Y-19638485D02*
X38561904Y-19714676D01*
X38561904Y-19714676D02*
X38561904Y-19790866D01*
X38561904Y-19790866D02*
X38599999Y-19905152D01*
X38599999Y-19905152D02*
X39057142Y-20362295D01*
X39057142Y-20362295D02*
X38561904Y-20362295D01*
X38219046Y-20286104D02*
X38180951Y-20324200D01*
X38180951Y-20324200D02*
X38219046Y-20362295D01*
X38219046Y-20362295D02*
X38257142Y-20324200D01*
X38257142Y-20324200D02*
X38219046Y-20286104D01*
X38219046Y-20286104D02*
X38219046Y-20362295D01*
X38219046Y-19867057D02*
X38180951Y-19905152D01*
X38180951Y-19905152D02*
X38219046Y-19943247D01*
X38219046Y-19943247D02*
X38257142Y-19905152D01*
X38257142Y-19905152D02*
X38219046Y-19867057D01*
X38219046Y-19867057D02*
X38219046Y-19943247D01*
X37419047Y-19600390D02*
X37495237Y-19562295D01*
X37495237Y-19562295D02*
X37609523Y-19562295D01*
X37609523Y-19562295D02*
X37723809Y-19600390D01*
X37723809Y-19600390D02*
X37799999Y-19676580D01*
X37799999Y-19676580D02*
X37838094Y-19752771D01*
X37838094Y-19752771D02*
X37876190Y-19905152D01*
X37876190Y-19905152D02*
X37876190Y-20019438D01*
X37876190Y-20019438D02*
X37838094Y-20171819D01*
X37838094Y-20171819D02*
X37799999Y-20248009D01*
X37799999Y-20248009D02*
X37723809Y-20324200D01*
X37723809Y-20324200D02*
X37609523Y-20362295D01*
X37609523Y-20362295D02*
X37533332Y-20362295D01*
X37533332Y-20362295D02*
X37419047Y-20324200D01*
X37419047Y-20324200D02*
X37380951Y-20286104D01*
X37380951Y-20286104D02*
X37380951Y-20019438D01*
X37380951Y-20019438D02*
X37533332Y-20019438D01*
X37038094Y-20362295D02*
X37038094Y-19562295D01*
X37038094Y-19562295D02*
X36580951Y-20362295D01*
X36580951Y-20362295D02*
X36580951Y-19562295D01*
X36199999Y-20362295D02*
X36199999Y-19562295D01*
X36199999Y-19562295D02*
X36009523Y-19562295D01*
X36009523Y-19562295D02*
X35895237Y-19600390D01*
X35895237Y-19600390D02*
X35819047Y-19676580D01*
X35819047Y-19676580D02*
X35780952Y-19752771D01*
X35780952Y-19752771D02*
X35742856Y-19905152D01*
X35742856Y-19905152D02*
X35742856Y-20019438D01*
X35742856Y-20019438D02*
X35780952Y-20171819D01*
X35780952Y-20171819D02*
X35819047Y-20248009D01*
X35819047Y-20248009D02*
X35895237Y-20324200D01*
X35895237Y-20324200D02*
X36009523Y-20362295D01*
X36009523Y-20362295D02*
X36199999Y-20362295D01*
X34257142Y-19562295D02*
X33761904Y-19562295D01*
X33761904Y-19562295D02*
X34028570Y-19867057D01*
X34028570Y-19867057D02*
X33914285Y-19867057D01*
X33914285Y-19867057D02*
X33838094Y-19905152D01*
X33838094Y-19905152D02*
X33799999Y-19943247D01*
X33799999Y-19943247D02*
X33761904Y-20019438D01*
X33761904Y-20019438D02*
X33761904Y-20209914D01*
X33761904Y-20209914D02*
X33799999Y-20286104D01*
X33799999Y-20286104D02*
X33838094Y-20324200D01*
X33838094Y-20324200D02*
X33914285Y-20362295D01*
X33914285Y-20362295D02*
X34142856Y-20362295D01*
X34142856Y-20362295D02*
X34219047Y-20324200D01*
X34219047Y-20324200D02*
X34257142Y-20286104D01*
X33419046Y-20286104D02*
X33380951Y-20324200D01*
X33380951Y-20324200D02*
X33419046Y-20362295D01*
X33419046Y-20362295D02*
X33457142Y-20324200D01*
X33457142Y-20324200D02*
X33419046Y-20286104D01*
X33419046Y-20286104D02*
X33419046Y-20362295D01*
X33419046Y-19867057D02*
X33380951Y-19905152D01*
X33380951Y-19905152D02*
X33419046Y-19943247D01*
X33419046Y-19943247D02*
X33457142Y-19905152D01*
X33457142Y-19905152D02*
X33419046Y-19867057D01*
X33419046Y-19867057D02*
X33419046Y-19943247D01*
X33038094Y-19943247D02*
X32771428Y-19943247D01*
X32657142Y-20362295D02*
X33038094Y-20362295D01*
X33038094Y-20362295D02*
X33038094Y-19562295D01*
X33038094Y-19562295D02*
X32657142Y-19562295D01*
X32314284Y-20362295D02*
X32314284Y-19562295D01*
X32314284Y-19562295D02*
X31857141Y-20362295D01*
X31857141Y-20362295D02*
X31857141Y-19562295D01*
X44409523Y-21328961D02*
X44409523Y-21862295D01*
X44599999Y-21024200D02*
X44790476Y-21595628D01*
X44790476Y-21595628D02*
X44295237Y-21595628D01*
X43990475Y-21786104D02*
X43952380Y-21824200D01*
X43952380Y-21824200D02*
X43990475Y-21862295D01*
X43990475Y-21862295D02*
X44028571Y-21824200D01*
X44028571Y-21824200D02*
X43990475Y-21786104D01*
X43990475Y-21786104D02*
X43990475Y-21862295D01*
X43990475Y-21367057D02*
X43952380Y-21405152D01*
X43952380Y-21405152D02*
X43990475Y-21443247D01*
X43990475Y-21443247D02*
X44028571Y-21405152D01*
X44028571Y-21405152D02*
X43990475Y-21367057D01*
X43990475Y-21367057D02*
X43990475Y-21443247D01*
X43342857Y-21443247D02*
X43228571Y-21481342D01*
X43228571Y-21481342D02*
X43190476Y-21519438D01*
X43190476Y-21519438D02*
X43152380Y-21595628D01*
X43152380Y-21595628D02*
X43152380Y-21709914D01*
X43152380Y-21709914D02*
X43190476Y-21786104D01*
X43190476Y-21786104D02*
X43228571Y-21824200D01*
X43228571Y-21824200D02*
X43304761Y-21862295D01*
X43304761Y-21862295D02*
X43609523Y-21862295D01*
X43609523Y-21862295D02*
X43609523Y-21062295D01*
X43609523Y-21062295D02*
X43342857Y-21062295D01*
X43342857Y-21062295D02*
X43266666Y-21100390D01*
X43266666Y-21100390D02*
X43228571Y-21138485D01*
X43228571Y-21138485D02*
X43190476Y-21214676D01*
X43190476Y-21214676D02*
X43190476Y-21290866D01*
X43190476Y-21290866D02*
X43228571Y-21367057D01*
X43228571Y-21367057D02*
X43266666Y-21405152D01*
X43266666Y-21405152D02*
X43342857Y-21443247D01*
X43342857Y-21443247D02*
X43609523Y-21443247D01*
X42657142Y-21062295D02*
X42504761Y-21062295D01*
X42504761Y-21062295D02*
X42428571Y-21100390D01*
X42428571Y-21100390D02*
X42352380Y-21176580D01*
X42352380Y-21176580D02*
X42314285Y-21328961D01*
X42314285Y-21328961D02*
X42314285Y-21595628D01*
X42314285Y-21595628D02*
X42352380Y-21748009D01*
X42352380Y-21748009D02*
X42428571Y-21824200D01*
X42428571Y-21824200D02*
X42504761Y-21862295D01*
X42504761Y-21862295D02*
X42657142Y-21862295D01*
X42657142Y-21862295D02*
X42733333Y-21824200D01*
X42733333Y-21824200D02*
X42809523Y-21748009D01*
X42809523Y-21748009D02*
X42847619Y-21595628D01*
X42847619Y-21595628D02*
X42847619Y-21328961D01*
X42847619Y-21328961D02*
X42809523Y-21176580D01*
X42809523Y-21176580D02*
X42733333Y-21100390D01*
X42733333Y-21100390D02*
X42657142Y-21062295D01*
X41819047Y-21062295D02*
X41666666Y-21062295D01*
X41666666Y-21062295D02*
X41590476Y-21100390D01*
X41590476Y-21100390D02*
X41514285Y-21176580D01*
X41514285Y-21176580D02*
X41476190Y-21328961D01*
X41476190Y-21328961D02*
X41476190Y-21595628D01*
X41476190Y-21595628D02*
X41514285Y-21748009D01*
X41514285Y-21748009D02*
X41590476Y-21824200D01*
X41590476Y-21824200D02*
X41666666Y-21862295D01*
X41666666Y-21862295D02*
X41819047Y-21862295D01*
X41819047Y-21862295D02*
X41895238Y-21824200D01*
X41895238Y-21824200D02*
X41971428Y-21748009D01*
X41971428Y-21748009D02*
X42009524Y-21595628D01*
X42009524Y-21595628D02*
X42009524Y-21328961D01*
X42009524Y-21328961D02*
X41971428Y-21176580D01*
X41971428Y-21176580D02*
X41895238Y-21100390D01*
X41895238Y-21100390D02*
X41819047Y-21062295D01*
X41247619Y-21062295D02*
X40790476Y-21062295D01*
X41019048Y-21862295D02*
X41019048Y-21062295D01*
X38923809Y-21062295D02*
X39304761Y-21062295D01*
X39304761Y-21062295D02*
X39342857Y-21443247D01*
X39342857Y-21443247D02*
X39304761Y-21405152D01*
X39304761Y-21405152D02*
X39228571Y-21367057D01*
X39228571Y-21367057D02*
X39038095Y-21367057D01*
X39038095Y-21367057D02*
X38961904Y-21405152D01*
X38961904Y-21405152D02*
X38923809Y-21443247D01*
X38923809Y-21443247D02*
X38885714Y-21519438D01*
X38885714Y-21519438D02*
X38885714Y-21709914D01*
X38885714Y-21709914D02*
X38923809Y-21786104D01*
X38923809Y-21786104D02*
X38961904Y-21824200D01*
X38961904Y-21824200D02*
X39038095Y-21862295D01*
X39038095Y-21862295D02*
X39228571Y-21862295D01*
X39228571Y-21862295D02*
X39304761Y-21824200D01*
X39304761Y-21824200D02*
X39342857Y-21786104D01*
X38542856Y-21786104D02*
X38504761Y-21824200D01*
X38504761Y-21824200D02*
X38542856Y-21862295D01*
X38542856Y-21862295D02*
X38580952Y-21824200D01*
X38580952Y-21824200D02*
X38542856Y-21786104D01*
X38542856Y-21786104D02*
X38542856Y-21862295D01*
X38542856Y-21367057D02*
X38504761Y-21405152D01*
X38504761Y-21405152D02*
X38542856Y-21443247D01*
X38542856Y-21443247D02*
X38580952Y-21405152D01*
X38580952Y-21405152D02*
X38542856Y-21367057D01*
X38542856Y-21367057D02*
X38542856Y-21443247D01*
X38276190Y-21062295D02*
X37819047Y-21062295D01*
X38047619Y-21862295D02*
X38047619Y-21062295D01*
X37628571Y-21062295D02*
X37095237Y-21862295D01*
X37095237Y-21062295D02*
X37628571Y-21862295D01*
X35228570Y-21062295D02*
X35380951Y-21062295D01*
X35380951Y-21062295D02*
X35457142Y-21100390D01*
X35457142Y-21100390D02*
X35495237Y-21138485D01*
X35495237Y-21138485D02*
X35571427Y-21252771D01*
X35571427Y-21252771D02*
X35609523Y-21405152D01*
X35609523Y-21405152D02*
X35609523Y-21709914D01*
X35609523Y-21709914D02*
X35571427Y-21786104D01*
X35571427Y-21786104D02*
X35533332Y-21824200D01*
X35533332Y-21824200D02*
X35457142Y-21862295D01*
X35457142Y-21862295D02*
X35304761Y-21862295D01*
X35304761Y-21862295D02*
X35228570Y-21824200D01*
X35228570Y-21824200D02*
X35190475Y-21786104D01*
X35190475Y-21786104D02*
X35152380Y-21709914D01*
X35152380Y-21709914D02*
X35152380Y-21519438D01*
X35152380Y-21519438D02*
X35190475Y-21443247D01*
X35190475Y-21443247D02*
X35228570Y-21405152D01*
X35228570Y-21405152D02*
X35304761Y-21367057D01*
X35304761Y-21367057D02*
X35457142Y-21367057D01*
X35457142Y-21367057D02*
X35533332Y-21405152D01*
X35533332Y-21405152D02*
X35571427Y-21443247D01*
X35571427Y-21443247D02*
X35609523Y-21519438D01*
X34809522Y-21786104D02*
X34771427Y-21824200D01*
X34771427Y-21824200D02*
X34809522Y-21862295D01*
X34809522Y-21862295D02*
X34847618Y-21824200D01*
X34847618Y-21824200D02*
X34809522Y-21786104D01*
X34809522Y-21786104D02*
X34809522Y-21862295D01*
X34809522Y-21367057D02*
X34771427Y-21405152D01*
X34771427Y-21405152D02*
X34809522Y-21443247D01*
X34809522Y-21443247D02*
X34847618Y-21405152D01*
X34847618Y-21405152D02*
X34809522Y-21367057D01*
X34809522Y-21367057D02*
X34809522Y-21443247D01*
X33971427Y-21862295D02*
X34238094Y-21481342D01*
X34428570Y-21862295D02*
X34428570Y-21062295D01*
X34428570Y-21062295D02*
X34123808Y-21062295D01*
X34123808Y-21062295D02*
X34047618Y-21100390D01*
X34047618Y-21100390D02*
X34009523Y-21138485D01*
X34009523Y-21138485D02*
X33971427Y-21214676D01*
X33971427Y-21214676D02*
X33971427Y-21328961D01*
X33971427Y-21328961D02*
X34009523Y-21405152D01*
X34009523Y-21405152D02*
X34047618Y-21443247D01*
X34047618Y-21443247D02*
X34123808Y-21481342D01*
X34123808Y-21481342D02*
X34428570Y-21481342D01*
X33704761Y-21062295D02*
X33171427Y-21862295D01*
X33171427Y-21062295D02*
X33704761Y-21862295D01*
X45971428Y-25862295D02*
X45971428Y-25062295D01*
X45971428Y-25062295D02*
X45666666Y-25062295D01*
X45666666Y-25062295D02*
X45590476Y-25100390D01*
X45590476Y-25100390D02*
X45552381Y-25138485D01*
X45552381Y-25138485D02*
X45514285Y-25214676D01*
X45514285Y-25214676D02*
X45514285Y-25328961D01*
X45514285Y-25328961D02*
X45552381Y-25405152D01*
X45552381Y-25405152D02*
X45590476Y-25443247D01*
X45590476Y-25443247D02*
X45666666Y-25481342D01*
X45666666Y-25481342D02*
X45971428Y-25481342D01*
X44714285Y-25862295D02*
X44980952Y-25481342D01*
X45171428Y-25862295D02*
X45171428Y-25062295D01*
X45171428Y-25062295D02*
X44866666Y-25062295D01*
X44866666Y-25062295D02*
X44790476Y-25100390D01*
X44790476Y-25100390D02*
X44752381Y-25138485D01*
X44752381Y-25138485D02*
X44714285Y-25214676D01*
X44714285Y-25214676D02*
X44714285Y-25328961D01*
X44714285Y-25328961D02*
X44752381Y-25405152D01*
X44752381Y-25405152D02*
X44790476Y-25443247D01*
X44790476Y-25443247D02*
X44866666Y-25481342D01*
X44866666Y-25481342D02*
X45171428Y-25481342D01*
X44219047Y-25062295D02*
X44066666Y-25062295D01*
X44066666Y-25062295D02*
X43990476Y-25100390D01*
X43990476Y-25100390D02*
X43914285Y-25176580D01*
X43914285Y-25176580D02*
X43876190Y-25328961D01*
X43876190Y-25328961D02*
X43876190Y-25595628D01*
X43876190Y-25595628D02*
X43914285Y-25748009D01*
X43914285Y-25748009D02*
X43990476Y-25824200D01*
X43990476Y-25824200D02*
X44066666Y-25862295D01*
X44066666Y-25862295D02*
X44219047Y-25862295D01*
X44219047Y-25862295D02*
X44295238Y-25824200D01*
X44295238Y-25824200D02*
X44371428Y-25748009D01*
X44371428Y-25748009D02*
X44409524Y-25595628D01*
X44409524Y-25595628D02*
X44409524Y-25328961D01*
X44409524Y-25328961D02*
X44371428Y-25176580D01*
X44371428Y-25176580D02*
X44295238Y-25100390D01*
X44295238Y-25100390D02*
X44219047Y-25062295D01*
X43647619Y-25062295D02*
X43190476Y-25062295D01*
X43419048Y-25862295D02*
X43419048Y-25062295D01*
X42923809Y-25443247D02*
X42657143Y-25443247D01*
X42542857Y-25862295D02*
X42923809Y-25862295D01*
X42923809Y-25862295D02*
X42923809Y-25062295D01*
X42923809Y-25062295D02*
X42542857Y-25062295D01*
X41742856Y-25786104D02*
X41780952Y-25824200D01*
X41780952Y-25824200D02*
X41895237Y-25862295D01*
X41895237Y-25862295D02*
X41971428Y-25862295D01*
X41971428Y-25862295D02*
X42085714Y-25824200D01*
X42085714Y-25824200D02*
X42161904Y-25748009D01*
X42161904Y-25748009D02*
X42199999Y-25671819D01*
X42199999Y-25671819D02*
X42238095Y-25519438D01*
X42238095Y-25519438D02*
X42238095Y-25405152D01*
X42238095Y-25405152D02*
X42199999Y-25252771D01*
X42199999Y-25252771D02*
X42161904Y-25176580D01*
X42161904Y-25176580D02*
X42085714Y-25100390D01*
X42085714Y-25100390D02*
X41971428Y-25062295D01*
X41971428Y-25062295D02*
X41895237Y-25062295D01*
X41895237Y-25062295D02*
X41780952Y-25100390D01*
X41780952Y-25100390D02*
X41742856Y-25138485D01*
X41514285Y-25062295D02*
X41057142Y-25062295D01*
X41285714Y-25862295D02*
X41285714Y-25062295D01*
X40790475Y-25443247D02*
X40523809Y-25443247D01*
X40409523Y-25862295D02*
X40790475Y-25862295D01*
X40790475Y-25862295D02*
X40790475Y-25062295D01*
X40790475Y-25062295D02*
X40409523Y-25062295D01*
X40066665Y-25862295D02*
X40066665Y-25062295D01*
X40066665Y-25062295D02*
X39876189Y-25062295D01*
X39876189Y-25062295D02*
X39761903Y-25100390D01*
X39761903Y-25100390D02*
X39685713Y-25176580D01*
X39685713Y-25176580D02*
X39647618Y-25252771D01*
X39647618Y-25252771D02*
X39609522Y-25405152D01*
X39609522Y-25405152D02*
X39609522Y-25519438D01*
X39609522Y-25519438D02*
X39647618Y-25671819D01*
X39647618Y-25671819D02*
X39685713Y-25748009D01*
X39685713Y-25748009D02*
X39761903Y-25824200D01*
X39761903Y-25824200D02*
X39876189Y-25862295D01*
X39876189Y-25862295D02*
X40066665Y-25862295D01*
X38276189Y-25862295D02*
X38657141Y-25862295D01*
X38657141Y-25862295D02*
X38657141Y-25062295D01*
X38009522Y-25862295D02*
X38009522Y-25328961D01*
X38009522Y-25062295D02*
X38047618Y-25100390D01*
X38047618Y-25100390D02*
X38009522Y-25138485D01*
X38009522Y-25138485D02*
X37971427Y-25100390D01*
X37971427Y-25100390D02*
X38009522Y-25062295D01*
X38009522Y-25062295D02*
X38009522Y-25138485D01*
X37628570Y-25862295D02*
X37628570Y-25062295D01*
X37628570Y-25062295D02*
X37323808Y-25062295D01*
X37323808Y-25062295D02*
X37247618Y-25100390D01*
X37247618Y-25100390D02*
X37209523Y-25138485D01*
X37209523Y-25138485D02*
X37171427Y-25214676D01*
X37171427Y-25214676D02*
X37171427Y-25328961D01*
X37171427Y-25328961D02*
X37209523Y-25405152D01*
X37209523Y-25405152D02*
X37247618Y-25443247D01*
X37247618Y-25443247D02*
X37323808Y-25481342D01*
X37323808Y-25481342D02*
X37628570Y-25481342D01*
X36714285Y-25862295D02*
X36790475Y-25824200D01*
X36790475Y-25824200D02*
X36828570Y-25786104D01*
X36828570Y-25786104D02*
X36866666Y-25709914D01*
X36866666Y-25709914D02*
X36866666Y-25481342D01*
X36866666Y-25481342D02*
X36828570Y-25405152D01*
X36828570Y-25405152D02*
X36790475Y-25367057D01*
X36790475Y-25367057D02*
X36714285Y-25328961D01*
X36714285Y-25328961D02*
X36599999Y-25328961D01*
X36599999Y-25328961D02*
X36523808Y-25367057D01*
X36523808Y-25367057D02*
X36485713Y-25405152D01*
X36485713Y-25405152D02*
X36447618Y-25481342D01*
X36447618Y-25481342D02*
X36447618Y-25709914D01*
X36447618Y-25709914D02*
X36485713Y-25786104D01*
X36485713Y-25786104D02*
X36523808Y-25824200D01*
X36523808Y-25824200D02*
X36599999Y-25862295D01*
X36599999Y-25862295D02*
X36714285Y-25862295D01*
X35495236Y-25557533D02*
X34885713Y-25557533D01*
X35190474Y-25862295D02*
X35190474Y-25252771D01*
X33895236Y-25862295D02*
X33895236Y-25062295D01*
X33895236Y-25062295D02*
X33438093Y-25862295D01*
X33438093Y-25862295D02*
X33438093Y-25062295D01*
X33171427Y-25062295D02*
X32714284Y-25062295D01*
X32942856Y-25862295D02*
X32942856Y-25062295D01*
X31990474Y-25786104D02*
X32028570Y-25824200D01*
X32028570Y-25824200D02*
X32142855Y-25862295D01*
X32142855Y-25862295D02*
X32219046Y-25862295D01*
X32219046Y-25862295D02*
X32333332Y-25824200D01*
X32333332Y-25824200D02*
X32409522Y-25748009D01*
X32409522Y-25748009D02*
X32447617Y-25671819D01*
X32447617Y-25671819D02*
X32485713Y-25519438D01*
X32485713Y-25519438D02*
X32485713Y-25405152D01*
X32485713Y-25405152D02*
X32447617Y-25252771D01*
X32447617Y-25252771D02*
X32409522Y-25176580D01*
X32409522Y-25176580D02*
X32333332Y-25100390D01*
X32333332Y-25100390D02*
X32219046Y-25062295D01*
X32219046Y-25062295D02*
X32142855Y-25062295D01*
X32142855Y-25062295D02*
X32028570Y-25100390D01*
X32028570Y-25100390D02*
X31990474Y-25138485D01*
X48238094Y-42162295D02*
X48238094Y-42809914D01*
X48238094Y-42809914D02*
X48199999Y-42886104D01*
X48199999Y-42886104D02*
X48161904Y-42924200D01*
X48161904Y-42924200D02*
X48085713Y-42962295D01*
X48085713Y-42962295D02*
X47933332Y-42962295D01*
X47933332Y-42962295D02*
X47857142Y-42924200D01*
X47857142Y-42924200D02*
X47819047Y-42886104D01*
X47819047Y-42886104D02*
X47780951Y-42809914D01*
X47780951Y-42809914D02*
X47780951Y-42162295D01*
X47438095Y-42924200D02*
X47323809Y-42962295D01*
X47323809Y-42962295D02*
X47133333Y-42962295D01*
X47133333Y-42962295D02*
X47057142Y-42924200D01*
X47057142Y-42924200D02*
X47019047Y-42886104D01*
X47019047Y-42886104D02*
X46980952Y-42809914D01*
X46980952Y-42809914D02*
X46980952Y-42733723D01*
X46980952Y-42733723D02*
X47019047Y-42657533D01*
X47019047Y-42657533D02*
X47057142Y-42619438D01*
X47057142Y-42619438D02*
X47133333Y-42581342D01*
X47133333Y-42581342D02*
X47285714Y-42543247D01*
X47285714Y-42543247D02*
X47361904Y-42505152D01*
X47361904Y-42505152D02*
X47399999Y-42467057D01*
X47399999Y-42467057D02*
X47438095Y-42390866D01*
X47438095Y-42390866D02*
X47438095Y-42314676D01*
X47438095Y-42314676D02*
X47399999Y-42238485D01*
X47399999Y-42238485D02*
X47361904Y-42200390D01*
X47361904Y-42200390D02*
X47285714Y-42162295D01*
X47285714Y-42162295D02*
X47095237Y-42162295D01*
X47095237Y-42162295D02*
X46980952Y-42200390D01*
X46371428Y-42543247D02*
X46257142Y-42581342D01*
X46257142Y-42581342D02*
X46219047Y-42619438D01*
X46219047Y-42619438D02*
X46180951Y-42695628D01*
X46180951Y-42695628D02*
X46180951Y-42809914D01*
X46180951Y-42809914D02*
X46219047Y-42886104D01*
X46219047Y-42886104D02*
X46257142Y-42924200D01*
X46257142Y-42924200D02*
X46333332Y-42962295D01*
X46333332Y-42962295D02*
X46638094Y-42962295D01*
X46638094Y-42962295D02*
X46638094Y-42162295D01*
X46638094Y-42162295D02*
X46371428Y-42162295D01*
X46371428Y-42162295D02*
X46295237Y-42200390D01*
X46295237Y-42200390D02*
X46257142Y-42238485D01*
X46257142Y-42238485D02*
X46219047Y-42314676D01*
X46219047Y-42314676D02*
X46219047Y-42390866D01*
X46219047Y-42390866D02*
X46257142Y-42467057D01*
X46257142Y-42467057D02*
X46295237Y-42505152D01*
X46295237Y-42505152D02*
X46371428Y-42543247D01*
X46371428Y-42543247D02*
X46638094Y-42543247D01*
X44847618Y-42162295D02*
X45228570Y-42162295D01*
X45228570Y-42162295D02*
X45266666Y-42543247D01*
X45266666Y-42543247D02*
X45228570Y-42505152D01*
X45228570Y-42505152D02*
X45152380Y-42467057D01*
X45152380Y-42467057D02*
X44961904Y-42467057D01*
X44961904Y-42467057D02*
X44885713Y-42505152D01*
X44885713Y-42505152D02*
X44847618Y-42543247D01*
X44847618Y-42543247D02*
X44809523Y-42619438D01*
X44809523Y-42619438D02*
X44809523Y-42809914D01*
X44809523Y-42809914D02*
X44847618Y-42886104D01*
X44847618Y-42886104D02*
X44885713Y-42924200D01*
X44885713Y-42924200D02*
X44961904Y-42962295D01*
X44961904Y-42962295D02*
X45152380Y-42962295D01*
X45152380Y-42962295D02*
X45228570Y-42924200D01*
X45228570Y-42924200D02*
X45266666Y-42886104D01*
X44580951Y-42162295D02*
X44314284Y-42962295D01*
X44314284Y-42962295D02*
X44047618Y-42162295D01*
X72338095Y-47562295D02*
X72795238Y-47562295D01*
X72566666Y-47562295D02*
X72566666Y-46762295D01*
X72566666Y-46762295D02*
X72642857Y-46876580D01*
X72642857Y-46876580D02*
X72719047Y-46952771D01*
X72719047Y-46952771D02*
X72795238Y-46990866D01*
X71995237Y-47486104D02*
X71957142Y-47524200D01*
X71957142Y-47524200D02*
X71995237Y-47562295D01*
X71995237Y-47562295D02*
X72033333Y-47524200D01*
X72033333Y-47524200D02*
X71995237Y-47486104D01*
X71995237Y-47486104D02*
X71995237Y-47562295D01*
X71995237Y-47067057D02*
X71957142Y-47105152D01*
X71957142Y-47105152D02*
X71995237Y-47143247D01*
X71995237Y-47143247D02*
X72033333Y-47105152D01*
X72033333Y-47105152D02*
X71995237Y-47067057D01*
X71995237Y-47067057D02*
X71995237Y-47143247D01*
X71614285Y-47257533D02*
X71004762Y-47257533D01*
X71309523Y-47562295D02*
X71309523Y-46952771D01*
X69442857Y-46838485D02*
X69404761Y-46800390D01*
X69404761Y-46800390D02*
X69328571Y-46762295D01*
X69328571Y-46762295D02*
X69138095Y-46762295D01*
X69138095Y-46762295D02*
X69061904Y-46800390D01*
X69061904Y-46800390D02*
X69023809Y-46838485D01*
X69023809Y-46838485D02*
X68985714Y-46914676D01*
X68985714Y-46914676D02*
X68985714Y-46990866D01*
X68985714Y-46990866D02*
X69023809Y-47105152D01*
X69023809Y-47105152D02*
X69480952Y-47562295D01*
X69480952Y-47562295D02*
X68985714Y-47562295D01*
X68642856Y-47486104D02*
X68604761Y-47524200D01*
X68604761Y-47524200D02*
X68642856Y-47562295D01*
X68642856Y-47562295D02*
X68680952Y-47524200D01*
X68680952Y-47524200D02*
X68642856Y-47486104D01*
X68642856Y-47486104D02*
X68642856Y-47562295D01*
X68642856Y-47067057D02*
X68604761Y-47105152D01*
X68604761Y-47105152D02*
X68642856Y-47143247D01*
X68642856Y-47143247D02*
X68680952Y-47105152D01*
X68680952Y-47105152D02*
X68642856Y-47067057D01*
X68642856Y-47067057D02*
X68642856Y-47143247D01*
X68261904Y-47562295D02*
X68261904Y-46762295D01*
X68261904Y-46762295D02*
X67804761Y-47562295D01*
X67804761Y-47562295D02*
X67804761Y-46762295D01*
X67538095Y-46762295D02*
X67080952Y-46762295D01*
X67309524Y-47562295D02*
X67309524Y-46762295D01*
X66357142Y-47486104D02*
X66395238Y-47524200D01*
X66395238Y-47524200D02*
X66509523Y-47562295D01*
X66509523Y-47562295D02*
X66585714Y-47562295D01*
X66585714Y-47562295D02*
X66700000Y-47524200D01*
X66700000Y-47524200D02*
X66776190Y-47448009D01*
X66776190Y-47448009D02*
X66814285Y-47371819D01*
X66814285Y-47371819D02*
X66852381Y-47219438D01*
X66852381Y-47219438D02*
X66852381Y-47105152D01*
X66852381Y-47105152D02*
X66814285Y-46952771D01*
X66814285Y-46952771D02*
X66776190Y-46876580D01*
X66776190Y-46876580D02*
X66700000Y-46800390D01*
X66700000Y-46800390D02*
X66585714Y-46762295D01*
X66585714Y-46762295D02*
X66509523Y-46762295D01*
X66509523Y-46762295D02*
X66395238Y-46800390D01*
X66395238Y-46800390D02*
X66357142Y-46838485D01*
X64871428Y-46762295D02*
X64376190Y-46762295D01*
X64376190Y-46762295D02*
X64642856Y-47067057D01*
X64642856Y-47067057D02*
X64528571Y-47067057D01*
X64528571Y-47067057D02*
X64452380Y-47105152D01*
X64452380Y-47105152D02*
X64414285Y-47143247D01*
X64414285Y-47143247D02*
X64376190Y-47219438D01*
X64376190Y-47219438D02*
X64376190Y-47409914D01*
X64376190Y-47409914D02*
X64414285Y-47486104D01*
X64414285Y-47486104D02*
X64452380Y-47524200D01*
X64452380Y-47524200D02*
X64528571Y-47562295D01*
X64528571Y-47562295D02*
X64757142Y-47562295D01*
X64757142Y-47562295D02*
X64833333Y-47524200D01*
X64833333Y-47524200D02*
X64871428Y-47486104D01*
X64033332Y-47486104D02*
X63995237Y-47524200D01*
X63995237Y-47524200D02*
X64033332Y-47562295D01*
X64033332Y-47562295D02*
X64071428Y-47524200D01*
X64071428Y-47524200D02*
X64033332Y-47486104D01*
X64033332Y-47486104D02*
X64033332Y-47562295D01*
X64033332Y-47067057D02*
X63995237Y-47105152D01*
X63995237Y-47105152D02*
X64033332Y-47143247D01*
X64033332Y-47143247D02*
X64071428Y-47105152D01*
X64071428Y-47105152D02*
X64033332Y-47067057D01*
X64033332Y-47067057D02*
X64033332Y-47143247D01*
X63652380Y-47257533D02*
X63042857Y-47257533D01*
X72000000Y-43062295D02*
X72000000Y-43633723D01*
X72000000Y-43633723D02*
X72038095Y-43748009D01*
X72038095Y-43748009D02*
X72114286Y-43824200D01*
X72114286Y-43824200D02*
X72228571Y-43862295D01*
X72228571Y-43862295D02*
X72304762Y-43862295D01*
X71695238Y-43062295D02*
X71200000Y-43062295D01*
X71200000Y-43062295D02*
X71466666Y-43367057D01*
X71466666Y-43367057D02*
X71352381Y-43367057D01*
X71352381Y-43367057D02*
X71276190Y-43405152D01*
X71276190Y-43405152D02*
X71238095Y-43443247D01*
X71238095Y-43443247D02*
X71200000Y-43519438D01*
X71200000Y-43519438D02*
X71200000Y-43709914D01*
X71200000Y-43709914D02*
X71238095Y-43786104D01*
X71238095Y-43786104D02*
X71276190Y-43824200D01*
X71276190Y-43824200D02*
X71352381Y-43862295D01*
X71352381Y-43862295D02*
X71580952Y-43862295D01*
X71580952Y-43862295D02*
X71657143Y-43824200D01*
X71657143Y-43824200D02*
X71695238Y-43786104D01*
X69866666Y-43862295D02*
X70247618Y-43862295D01*
X70247618Y-43862295D02*
X70247618Y-43062295D01*
X69599999Y-43862295D02*
X69599999Y-43328961D01*
X69599999Y-43062295D02*
X69638095Y-43100390D01*
X69638095Y-43100390D02*
X69599999Y-43138485D01*
X69599999Y-43138485D02*
X69561904Y-43100390D01*
X69561904Y-43100390D02*
X69599999Y-43062295D01*
X69599999Y-43062295D02*
X69599999Y-43138485D01*
X69219047Y-43862295D02*
X69219047Y-43062295D01*
X69219047Y-43062295D02*
X68914285Y-43062295D01*
X68914285Y-43062295D02*
X68838095Y-43100390D01*
X68838095Y-43100390D02*
X68800000Y-43138485D01*
X68800000Y-43138485D02*
X68761904Y-43214676D01*
X68761904Y-43214676D02*
X68761904Y-43328961D01*
X68761904Y-43328961D02*
X68800000Y-43405152D01*
X68800000Y-43405152D02*
X68838095Y-43443247D01*
X68838095Y-43443247D02*
X68914285Y-43481342D01*
X68914285Y-43481342D02*
X69219047Y-43481342D01*
X68304762Y-43862295D02*
X68380952Y-43824200D01*
X68380952Y-43824200D02*
X68419047Y-43786104D01*
X68419047Y-43786104D02*
X68457143Y-43709914D01*
X68457143Y-43709914D02*
X68457143Y-43481342D01*
X68457143Y-43481342D02*
X68419047Y-43405152D01*
X68419047Y-43405152D02*
X68380952Y-43367057D01*
X68380952Y-43367057D02*
X68304762Y-43328961D01*
X68304762Y-43328961D02*
X68190476Y-43328961D01*
X68190476Y-43328961D02*
X68114285Y-43367057D01*
X68114285Y-43367057D02*
X68076190Y-43405152D01*
X68076190Y-43405152D02*
X68038095Y-43481342D01*
X68038095Y-43481342D02*
X68038095Y-43709914D01*
X68038095Y-43709914D02*
X68076190Y-43786104D01*
X68076190Y-43786104D02*
X68114285Y-43824200D01*
X68114285Y-43824200D02*
X68190476Y-43862295D01*
X68190476Y-43862295D02*
X68304762Y-43862295D01*
X66514285Y-43024200D02*
X67199999Y-44052771D01*
X65638094Y-43862295D02*
X65638094Y-43062295D01*
X65638094Y-43062295D02*
X65180951Y-43862295D01*
X65180951Y-43862295D02*
X65180951Y-43062295D01*
X64914285Y-43062295D02*
X64457142Y-43062295D01*
X64685714Y-43862295D02*
X64685714Y-43062295D01*
X63733332Y-43786104D02*
X63771428Y-43824200D01*
X63771428Y-43824200D02*
X63885713Y-43862295D01*
X63885713Y-43862295D02*
X63961904Y-43862295D01*
X63961904Y-43862295D02*
X64076190Y-43824200D01*
X64076190Y-43824200D02*
X64152380Y-43748009D01*
X64152380Y-43748009D02*
X64190475Y-43671819D01*
X64190475Y-43671819D02*
X64228571Y-43519438D01*
X64228571Y-43519438D02*
X64228571Y-43405152D01*
X64228571Y-43405152D02*
X64190475Y-43252771D01*
X64190475Y-43252771D02*
X64152380Y-43176580D01*
X64152380Y-43176580D02*
X64076190Y-43100390D01*
X64076190Y-43100390D02*
X63961904Y-43062295D01*
X63961904Y-43062295D02*
X63885713Y-43062295D01*
X63885713Y-43062295D02*
X63771428Y-43100390D01*
X63771428Y-43100390D02*
X63733332Y-43138485D01*
X77233332Y-37362295D02*
X77233332Y-36562295D01*
X77233332Y-36562295D02*
X76776189Y-37362295D01*
X76776189Y-37362295D02*
X76776189Y-36562295D01*
X76509523Y-36562295D02*
X76052380Y-36562295D01*
X76280952Y-37362295D02*
X76280952Y-36562295D01*
X75328570Y-37286104D02*
X75366666Y-37324200D01*
X75366666Y-37324200D02*
X75480951Y-37362295D01*
X75480951Y-37362295D02*
X75557142Y-37362295D01*
X75557142Y-37362295D02*
X75671428Y-37324200D01*
X75671428Y-37324200D02*
X75747618Y-37248009D01*
X75747618Y-37248009D02*
X75785713Y-37171819D01*
X75785713Y-37171819D02*
X75823809Y-37019438D01*
X75823809Y-37019438D02*
X75823809Y-36905152D01*
X75823809Y-36905152D02*
X75785713Y-36752771D01*
X75785713Y-36752771D02*
X75747618Y-36676580D01*
X75747618Y-36676580D02*
X75671428Y-36600390D01*
X75671428Y-36600390D02*
X75557142Y-36562295D01*
X75557142Y-36562295D02*
X75480951Y-36562295D01*
X75480951Y-36562295D02*
X75366666Y-36600390D01*
X75366666Y-36600390D02*
X75328570Y-36638485D01*
X76804761Y-38557533D02*
X76195238Y-38557533D01*
X76499999Y-38862295D02*
X76499999Y-38252771D01*
X62213895Y-10176189D02*
X62175800Y-10214285D01*
X62175800Y-10214285D02*
X62137704Y-10328570D01*
X62137704Y-10328570D02*
X62137704Y-10404761D01*
X62137704Y-10404761D02*
X62175800Y-10519047D01*
X62175800Y-10519047D02*
X62251990Y-10595237D01*
X62251990Y-10595237D02*
X62328180Y-10633332D01*
X62328180Y-10633332D02*
X62480561Y-10671428D01*
X62480561Y-10671428D02*
X62594847Y-10671428D01*
X62594847Y-10671428D02*
X62747228Y-10633332D01*
X62747228Y-10633332D02*
X62823419Y-10595237D01*
X62823419Y-10595237D02*
X62899609Y-10519047D01*
X62899609Y-10519047D02*
X62937704Y-10404761D01*
X62937704Y-10404761D02*
X62937704Y-10328570D01*
X62937704Y-10328570D02*
X62899609Y-10214285D01*
X62899609Y-10214285D02*
X62861514Y-10176189D01*
X62137704Y-9833332D02*
X62937704Y-9833332D01*
X62556752Y-9833332D02*
X62556752Y-9376189D01*
X62137704Y-9376189D02*
X62937704Y-9376189D01*
X62366276Y-9033333D02*
X62366276Y-8652380D01*
X62137704Y-9109523D02*
X62937704Y-8842856D01*
X62937704Y-8842856D02*
X62137704Y-8576190D01*
X62137704Y-7852380D02*
X62518657Y-8119047D01*
X62137704Y-8309523D02*
X62937704Y-8309523D01*
X62937704Y-8309523D02*
X62937704Y-8004761D01*
X62937704Y-8004761D02*
X62899609Y-7928571D01*
X62899609Y-7928571D02*
X62861514Y-7890476D01*
X62861514Y-7890476D02*
X62785323Y-7852380D01*
X62785323Y-7852380D02*
X62671038Y-7852380D01*
X62671038Y-7852380D02*
X62594847Y-7890476D01*
X62594847Y-7890476D02*
X62556752Y-7928571D01*
X62556752Y-7928571D02*
X62518657Y-8004761D01*
X62518657Y-8004761D02*
X62518657Y-8309523D01*
X62899609Y-7090476D02*
X62937704Y-7166666D01*
X62937704Y-7166666D02*
X62937704Y-7280952D01*
X62937704Y-7280952D02*
X62899609Y-7395238D01*
X62899609Y-7395238D02*
X62823419Y-7471428D01*
X62823419Y-7471428D02*
X62747228Y-7509523D01*
X62747228Y-7509523D02*
X62594847Y-7547619D01*
X62594847Y-7547619D02*
X62480561Y-7547619D01*
X62480561Y-7547619D02*
X62328180Y-7509523D01*
X62328180Y-7509523D02*
X62251990Y-7471428D01*
X62251990Y-7471428D02*
X62175800Y-7395238D01*
X62175800Y-7395238D02*
X62137704Y-7280952D01*
X62137704Y-7280952D02*
X62137704Y-7204761D01*
X62137704Y-7204761D02*
X62175800Y-7090476D01*
X62175800Y-7090476D02*
X62213895Y-7052380D01*
X62213895Y-7052380D02*
X62480561Y-7052380D01*
X62480561Y-7052380D02*
X62480561Y-7204761D01*
X62556752Y-6709523D02*
X62556752Y-6442857D01*
X62137704Y-6328571D02*
X62137704Y-6709523D01*
X62137704Y-6709523D02*
X62937704Y-6709523D01*
X62937704Y-6709523D02*
X62937704Y-6328571D01*
X62937704Y-19490476D02*
X62937704Y-18995238D01*
X62937704Y-18995238D02*
X62632942Y-19261904D01*
X62632942Y-19261904D02*
X62632942Y-19147619D01*
X62632942Y-19147619D02*
X62594847Y-19071428D01*
X62594847Y-19071428D02*
X62556752Y-19033333D01*
X62556752Y-19033333D02*
X62480561Y-18995238D01*
X62480561Y-18995238D02*
X62290085Y-18995238D01*
X62290085Y-18995238D02*
X62213895Y-19033333D01*
X62213895Y-19033333D02*
X62175800Y-19071428D01*
X62175800Y-19071428D02*
X62137704Y-19147619D01*
X62137704Y-19147619D02*
X62137704Y-19376190D01*
X62137704Y-19376190D02*
X62175800Y-19452381D01*
X62175800Y-19452381D02*
X62213895Y-19490476D01*
X62937704Y-18766666D02*
X62137704Y-18499999D01*
X62137704Y-18499999D02*
X62937704Y-18233333D01*
X62937704Y-18042857D02*
X62937704Y-17547619D01*
X62937704Y-17547619D02*
X62632942Y-17814285D01*
X62632942Y-17814285D02*
X62632942Y-17700000D01*
X62632942Y-17700000D02*
X62594847Y-17623809D01*
X62594847Y-17623809D02*
X62556752Y-17585714D01*
X62556752Y-17585714D02*
X62480561Y-17547619D01*
X62480561Y-17547619D02*
X62290085Y-17547619D01*
X62290085Y-17547619D02*
X62213895Y-17585714D01*
X62213895Y-17585714D02*
X62175800Y-17623809D01*
X62175800Y-17623809D02*
X62137704Y-17700000D01*
X62137704Y-17700000D02*
X62137704Y-17928571D01*
X62137704Y-17928571D02*
X62175800Y-18004762D01*
X62175800Y-18004762D02*
X62213895Y-18042857D01*
X45214286Y-23954819D02*
X45547619Y-23478628D01*
X45785714Y-23954819D02*
X45785714Y-22954819D01*
X45785714Y-22954819D02*
X45404762Y-22954819D01*
X45404762Y-22954819D02*
X45309524Y-23002438D01*
X45309524Y-23002438D02*
X45261905Y-23050057D01*
X45261905Y-23050057D02*
X45214286Y-23145295D01*
X45214286Y-23145295D02*
X45214286Y-23288152D01*
X45214286Y-23288152D02*
X45261905Y-23383390D01*
X45261905Y-23383390D02*
X45309524Y-23431009D01*
X45309524Y-23431009D02*
X45404762Y-23478628D01*
X45404762Y-23478628D02*
X45785714Y-23478628D01*
X44785714Y-23431009D02*
X44452381Y-23431009D01*
X44309524Y-23954819D02*
X44785714Y-23954819D01*
X44785714Y-23954819D02*
X44785714Y-22954819D01*
X44785714Y-22954819D02*
X44309524Y-22954819D01*
X44023809Y-22954819D02*
X43690476Y-23954819D01*
X43690476Y-23954819D02*
X43357143Y-22954819D01*
X42309523Y-23669104D02*
X41833333Y-23669104D01*
X42404761Y-23954819D02*
X42071428Y-22954819D01*
X42071428Y-22954819D02*
X41738095Y-23954819D01*
X39928571Y-22907200D02*
X40785713Y-24192914D01*
X38404761Y-23288152D02*
X38404761Y-23954819D01*
X38642856Y-22907200D02*
X38880951Y-23621485D01*
X38880951Y-23621485D02*
X38261904Y-23621485D01*
X36642856Y-23954819D02*
X37119046Y-23954819D01*
X37119046Y-23954819D02*
X37119046Y-22954819D01*
X36357141Y-23669104D02*
X35880951Y-23669104D01*
X36452379Y-23954819D02*
X36119046Y-22954819D01*
X36119046Y-22954819D02*
X35785713Y-23954819D01*
X35261903Y-23478628D02*
X35261903Y-23954819D01*
X35595236Y-22954819D02*
X35261903Y-23478628D01*
X35261903Y-23478628D02*
X34928570Y-22954819D01*
X34595236Y-23431009D02*
X34261903Y-23431009D01*
X34119046Y-23954819D02*
X34595236Y-23954819D01*
X34595236Y-23954819D02*
X34595236Y-22954819D01*
X34595236Y-22954819D02*
X34119046Y-22954819D01*
X33119046Y-23954819D02*
X33452379Y-23478628D01*
X33690474Y-23954819D02*
X33690474Y-22954819D01*
X33690474Y-22954819D02*
X33309522Y-22954819D01*
X33309522Y-22954819D02*
X33214284Y-23002438D01*
X33214284Y-23002438D02*
X33166665Y-23050057D01*
X33166665Y-23050057D02*
X33119046Y-23145295D01*
X33119046Y-23145295D02*
X33119046Y-23288152D01*
X33119046Y-23288152D02*
X33166665Y-23383390D01*
X33166665Y-23383390D02*
X33214284Y-23431009D01*
X33214284Y-23431009D02*
X33309522Y-23478628D01*
X33309522Y-23478628D02*
X33690474Y-23478628D01*
X32738093Y-23907200D02*
X32595236Y-23954819D01*
X32595236Y-23954819D02*
X32357141Y-23954819D01*
X32357141Y-23954819D02*
X32261903Y-23907200D01*
X32261903Y-23907200D02*
X32214284Y-23859580D01*
X32214284Y-23859580D02*
X32166665Y-23764342D01*
X32166665Y-23764342D02*
X32166665Y-23669104D01*
X32166665Y-23669104D02*
X32214284Y-23573866D01*
X32214284Y-23573866D02*
X32261903Y-23526247D01*
X32261903Y-23526247D02*
X32357141Y-23478628D01*
X32357141Y-23478628D02*
X32547617Y-23431009D01*
X32547617Y-23431009D02*
X32642855Y-23383390D01*
X32642855Y-23383390D02*
X32690474Y-23335771D01*
X32690474Y-23335771D02*
X32738093Y-23240533D01*
X32738093Y-23240533D02*
X32738093Y-23145295D01*
X32738093Y-23145295D02*
X32690474Y-23050057D01*
X32690474Y-23050057D02*
X32642855Y-23002438D01*
X32642855Y-23002438D02*
X32547617Y-22954819D01*
X32547617Y-22954819D02*
X32309522Y-22954819D01*
X32309522Y-22954819D02*
X32166665Y-23002438D01*
D10*
G36*
X58123791Y-1007737D02*
G01*
X58208897Y-1007737D01*
X58216634Y-1015474D01*
X58348162Y-1023211D01*
X58355899Y-1030948D01*
X58394584Y-1030948D01*
X58402321Y-1038685D01*
X58433269Y-1038685D01*
X58441006Y-1046422D01*
X58471954Y-1046422D01*
X58479691Y-1054159D01*
X58533849Y-1061896D01*
X58742747Y-1131528D01*
X58982592Y-1255319D01*
X59044487Y-1301741D01*
X59121857Y-1340426D01*
X59137331Y-1355899D01*
X59261122Y-1402321D01*
X59323017Y-1410058D01*
X59330754Y-1417795D01*
X59377176Y-1417795D01*
X59384913Y-1425532D01*
X59578337Y-1433269D01*
X59586074Y-1441006D01*
X59624758Y-1441006D01*
X59632495Y-1448743D01*
X59655706Y-1448743D01*
X59663443Y-1456480D01*
X59686654Y-1456480D01*
X59694391Y-1464217D01*
X59717602Y-1464217D01*
X59764023Y-1479691D01*
X59864603Y-1526112D01*
X59911025Y-1564797D01*
X59941973Y-1580271D01*
X60034816Y-1673114D01*
X60073501Y-1727273D01*
X60112186Y-1804642D01*
X60127660Y-1851064D01*
X60127660Y-1874275D01*
X60135397Y-1882012D01*
X60135397Y-1905222D01*
X60143133Y-1912959D01*
X60143133Y-1951644D01*
X60150870Y-1959381D01*
X60150870Y-2106383D01*
X60143133Y-2114120D01*
X60143133Y-2152805D01*
X60135397Y-2160542D01*
X60127660Y-2214700D01*
X60112186Y-2261122D01*
X60042553Y-2384913D01*
X59825919Y-2609284D01*
X59810445Y-2640232D01*
X59810445Y-2725338D01*
X59825919Y-2748549D01*
X59825919Y-2764023D01*
X59872340Y-2833656D01*
X59980658Y-2934236D01*
X60065764Y-2996132D01*
X60088975Y-3003868D01*
X60143133Y-3050290D01*
X60166344Y-3058027D01*
X60228240Y-3096712D01*
X60251451Y-3119923D01*
X60297872Y-3143133D01*
X60444874Y-3251451D01*
X60607350Y-3406190D01*
X60785300Y-3630561D01*
X60870406Y-3762089D01*
X60970986Y-3947776D01*
X60970986Y-3963250D01*
X60994197Y-4001934D01*
X60994197Y-4017408D01*
X61017408Y-4056093D01*
X61040619Y-4133462D01*
X61056093Y-4156673D01*
X61063830Y-4203095D01*
X61110251Y-4334623D01*
X61110251Y-4365571D01*
X61125725Y-4404255D01*
X61125725Y-4435203D01*
X61141199Y-4481625D01*
X61141199Y-4520309D01*
X61148936Y-4528046D01*
X61156673Y-4636364D01*
X61164410Y-4644101D01*
X61164410Y-4729207D01*
X61172147Y-4736944D01*
X61172147Y-5061896D01*
X61164410Y-5069632D01*
X61164410Y-5185687D01*
X61156673Y-5193424D01*
X61156673Y-5255319D01*
X61148936Y-5263056D01*
X61148936Y-5324952D01*
X61141199Y-5332689D01*
X61133462Y-5433269D01*
X61125725Y-5441006D01*
X61117988Y-5526112D01*
X61110251Y-5533849D01*
X61094778Y-5642166D01*
X61079304Y-5680851D01*
X61079304Y-5711799D01*
X61063830Y-5742747D01*
X61063830Y-5765957D01*
X61056093Y-5773694D01*
X61040619Y-5858801D01*
X61025145Y-5889749D01*
X61025145Y-5912959D01*
X61009671Y-5943907D01*
X61009671Y-5967118D01*
X60963250Y-6106383D01*
X60947776Y-6129594D01*
X60924565Y-6214700D01*
X60893617Y-6276596D01*
X60885880Y-6315280D01*
X60870406Y-6338491D01*
X60839458Y-6431335D01*
X60808511Y-6485493D01*
X60808511Y-6500967D01*
X60777563Y-6555126D01*
X60777563Y-6570600D01*
X60746615Y-6624758D01*
X60746615Y-6640232D01*
X60545455Y-7034816D01*
X60529981Y-7050290D01*
X60444874Y-7212766D01*
X60344294Y-7367505D01*
X60313346Y-7429400D01*
X60228240Y-7553191D01*
X60220503Y-7576402D01*
X60197292Y-7599613D01*
X60042553Y-7839458D01*
X59934236Y-7978723D01*
X59856867Y-8094778D01*
X59825919Y-8125725D01*
X59609284Y-8411992D01*
X59384913Y-8675048D01*
X59237911Y-8822050D01*
X59137331Y-8891683D01*
X59059961Y-8930368D01*
X59044487Y-8930368D01*
X58974855Y-8961315D01*
X58843327Y-8984526D01*
X58820116Y-8953578D01*
X58758221Y-8822050D01*
X58758221Y-8806576D01*
X58727273Y-8752418D01*
X58727273Y-8736944D01*
X58665377Y-8597679D01*
X58657640Y-8558994D01*
X58642166Y-8535783D01*
X58533849Y-8210832D01*
X58533849Y-8187621D01*
X58495164Y-8079304D01*
X58495164Y-8056093D01*
X58471954Y-7994197D01*
X58441006Y-7847195D01*
X58417795Y-7785300D01*
X58417795Y-7754352D01*
X58386847Y-7661509D01*
X58386847Y-7630561D01*
X58379110Y-7622824D01*
X58371373Y-7560928D01*
X58355899Y-7522244D01*
X58355899Y-7491296D01*
X58332689Y-7421663D01*
X58332689Y-7382979D01*
X58317215Y-7344294D01*
X58294004Y-7197292D01*
X58278530Y-7158607D01*
X58278530Y-7119923D01*
X58270793Y-7112186D01*
X58270793Y-7081238D01*
X58255319Y-7034816D01*
X58255319Y-6996132D01*
X58247582Y-6988395D01*
X58224371Y-6810445D01*
X58216634Y-6802708D01*
X58208897Y-6725338D01*
X58201161Y-6717602D01*
X58193424Y-6617021D01*
X58185687Y-6609284D01*
X58185687Y-6570600D01*
X58177950Y-6562863D01*
X58177950Y-6516441D01*
X58170213Y-6508704D01*
X58170213Y-6470019D01*
X58162476Y-6462282D01*
X58154739Y-6346228D01*
X58147002Y-6338491D01*
X58139265Y-6230174D01*
X58131528Y-6222437D01*
X58131528Y-6152805D01*
X58123791Y-6145068D01*
X58123791Y-6090909D01*
X58116054Y-6083172D01*
X58116054Y-6036750D01*
X58108317Y-6029014D01*
X58108317Y-5959381D01*
X58100580Y-5951644D01*
X58092843Y-5827853D01*
X58085106Y-5820116D01*
X58085106Y-5742747D01*
X58077369Y-5735010D01*
X58077369Y-5665377D01*
X58069632Y-5657640D01*
X58069632Y-5564797D01*
X58061896Y-5557060D01*
X58061896Y-5464217D01*
X58054159Y-5456480D01*
X58054159Y-5371373D01*
X58046422Y-5363636D01*
X58038685Y-5162476D01*
X58030948Y-5154739D01*
X58030948Y-5038685D01*
X58023211Y-5030948D01*
X58023211Y-4914894D01*
X58015474Y-4907157D01*
X58015474Y-4744681D01*
X58000000Y-4729207D01*
X57992263Y-4736944D01*
X57992263Y-4891683D01*
X57984526Y-4899420D01*
X57984526Y-5023211D01*
X57976789Y-5030948D01*
X57976789Y-5131528D01*
X57969052Y-5139265D01*
X57969052Y-5255319D01*
X57961315Y-5263056D01*
X57961315Y-5348162D01*
X57953578Y-5355899D01*
X57945841Y-5557060D01*
X57938104Y-5564797D01*
X57938104Y-5642166D01*
X57930368Y-5649903D01*
X57930368Y-5711799D01*
X57922631Y-5719536D01*
X57922631Y-5804642D01*
X57914894Y-5812379D01*
X57914894Y-5882012D01*
X57907157Y-5889749D01*
X57899420Y-6013540D01*
X57891683Y-6021277D01*
X57883946Y-6160542D01*
X57876209Y-6168279D01*
X57868472Y-6292070D01*
X57860735Y-6299807D01*
X57860735Y-6346228D01*
X57852998Y-6353965D01*
X57852998Y-6400387D01*
X57845261Y-6408124D01*
X57829787Y-6562863D01*
X57822050Y-6570600D01*
X57822050Y-6609284D01*
X57814313Y-6617021D01*
X57814313Y-6663443D01*
X57806576Y-6671180D01*
X57806576Y-6709865D01*
X57798839Y-6717602D01*
X57791103Y-6810445D01*
X57775629Y-6856867D01*
X57752418Y-7034816D01*
X57744681Y-7042553D01*
X57744681Y-7073501D01*
X57729207Y-7119923D01*
X57729207Y-7158607D01*
X57721470Y-7166344D01*
X57721470Y-7197292D01*
X57713733Y-7205029D01*
X57690522Y-7352031D01*
X57675048Y-7390716D01*
X57667311Y-7460348D01*
X57644101Y-7529981D01*
X57628627Y-7638298D01*
X57620890Y-7646035D01*
X57620890Y-7669246D01*
X57613153Y-7676983D01*
X57613153Y-7700193D01*
X57605416Y-7707930D01*
X57605416Y-7731141D01*
X57597679Y-7738878D01*
X57597679Y-7762089D01*
X57589942Y-7769826D01*
X57589942Y-7793037D01*
X57582205Y-7800774D01*
X57543520Y-7978723D01*
X57528046Y-8009671D01*
X57512573Y-8094778D01*
X57458414Y-8257253D01*
X57458414Y-8280464D01*
X57396518Y-8450677D01*
X57396518Y-8473888D01*
X57381044Y-8520309D01*
X57365571Y-8543520D01*
X57350097Y-8605416D01*
X57334623Y-8628627D01*
X57326886Y-8667311D01*
X57311412Y-8690522D01*
X57311412Y-8705996D01*
X57295938Y-8729207D01*
X57295938Y-8744681D01*
X57280464Y-8767892D01*
X57249516Y-8860735D01*
X57210832Y-8930368D01*
X57195358Y-8976789D01*
X57172147Y-8984526D01*
X57164410Y-8976789D01*
X57125725Y-8976789D01*
X57117988Y-8969052D01*
X57087041Y-8969052D01*
X57056093Y-8953578D01*
X57032882Y-8953578D01*
X56885880Y-8883946D01*
X56839458Y-8852998D01*
X56653772Y-8675048D01*
X56630561Y-8636364D01*
X56553191Y-8558994D01*
X56522244Y-8512573D01*
X56282398Y-8234043D01*
X55918762Y-7746615D01*
X55864603Y-7653772D01*
X55841393Y-7630561D01*
X55764023Y-7514507D01*
X55756286Y-7491296D01*
X55663443Y-7359768D01*
X55624758Y-7282398D01*
X55524178Y-7127660D01*
X55392650Y-6872340D01*
X55377176Y-6856867D01*
X55268859Y-6640232D01*
X55268859Y-6624758D01*
X55176015Y-6439072D01*
X55176015Y-6423598D01*
X55129594Y-6323017D01*
X55121857Y-6284333D01*
X55090909Y-6222437D01*
X55083172Y-6183752D01*
X55067698Y-6160542D01*
X55059961Y-6121857D01*
X55044487Y-6098646D01*
X55005803Y-5982592D01*
X55005803Y-5959381D01*
X54967118Y-5851064D01*
X54967118Y-5827853D01*
X54951644Y-5796905D01*
X54951644Y-5773694D01*
X54943907Y-5765957D01*
X54943907Y-5742747D01*
X54920696Y-5673114D01*
X54920696Y-5642166D01*
X54905222Y-5603482D01*
X54897485Y-5526112D01*
X54882012Y-5479691D01*
X54882012Y-5441006D01*
X54866538Y-5394584D01*
X54866538Y-5340426D01*
X54858801Y-5332689D01*
X54858801Y-5278530D01*
X54851064Y-5270793D01*
X54851064Y-5208897D01*
X54843327Y-5201161D01*
X54843327Y-5108317D01*
X54835590Y-5100580D01*
X54835590Y-4736944D01*
X54843327Y-4729207D01*
X54843327Y-4659574D01*
X54851064Y-4651838D01*
X54858801Y-4535783D01*
X54866538Y-4528046D01*
X54866538Y-4497099D01*
X54882012Y-4450677D01*
X54882012Y-4411992D01*
X54889749Y-4404255D01*
X54912959Y-4288201D01*
X54928433Y-4257253D01*
X54928433Y-4234043D01*
X54959381Y-4141199D01*
X54982592Y-4102515D01*
X54990329Y-4063830D01*
X55013540Y-4025145D01*
X55036750Y-3955513D01*
X55114120Y-3808511D01*
X55268859Y-3568665D01*
X55408124Y-3398453D01*
X55493230Y-3313346D01*
X55663443Y-3174081D01*
X56011605Y-2941973D01*
X56135397Y-2825919D01*
X56189555Y-2733075D01*
X56197292Y-2655706D01*
X56181818Y-2617021D01*
X56143133Y-2562863D01*
X56050290Y-2485493D01*
X55957447Y-2377176D01*
X55895551Y-2268859D01*
X55872340Y-2199226D01*
X55872340Y-2176015D01*
X55864603Y-2168279D01*
X55864603Y-2137331D01*
X55856867Y-2129594D01*
X55849614Y-2013540D01*
X56019342Y-2013540D01*
X56027079Y-2121857D01*
X56042553Y-2168279D01*
X56058027Y-2191489D01*
X56058027Y-2206963D01*
X56112186Y-2284333D01*
X56166344Y-2338491D01*
X56259188Y-2392650D01*
X56305609Y-2400387D01*
X56313346Y-2408124D01*
X56344294Y-2408124D01*
X56352031Y-2415861D01*
X56452611Y-2415861D01*
X56460348Y-2408124D01*
X56491296Y-2408124D01*
X56599613Y-2361702D01*
X56676983Y-2292070D01*
X56731141Y-2222437D01*
X56762089Y-2145068D01*
X56769826Y-2083172D01*
X56777563Y-2075435D01*
X56770793Y-1967118D01*
X59237911Y-1967118D01*
X59237911Y-2098646D01*
X59245648Y-2106383D01*
X59245648Y-2129594D01*
X59261122Y-2176015D01*
X59307544Y-2261122D01*
X59415861Y-2361702D01*
X59500967Y-2400387D01*
X59562863Y-2408124D01*
X59570600Y-2415861D01*
X59671180Y-2415861D01*
X59678917Y-2408124D01*
X59709865Y-2408124D01*
X59756286Y-2392650D01*
X59841393Y-2346228D01*
X59895551Y-2292070D01*
X59941973Y-2230174D01*
X59965184Y-2183752D01*
X59980658Y-2137331D01*
X59980658Y-2114120D01*
X59988395Y-2106383D01*
X59988395Y-1982592D01*
X59980658Y-1974855D01*
X59972921Y-1920696D01*
X59911025Y-1804642D01*
X59849130Y-1742747D01*
X59802708Y-1711799D01*
X59740812Y-1680851D01*
X59694391Y-1665377D01*
X59655706Y-1665377D01*
X59647969Y-1657640D01*
X59524178Y-1665377D01*
X59454545Y-1696325D01*
X59439072Y-1696325D01*
X59369439Y-1742747D01*
X59315280Y-1796905D01*
X59261122Y-1889749D01*
X59245648Y-1936170D01*
X59245648Y-1959381D01*
X59237911Y-1967118D01*
X56770793Y-1967118D01*
X56769826Y-1951644D01*
X56746615Y-1882012D01*
X56700193Y-1804642D01*
X56638298Y-1742747D01*
X56584139Y-1704062D01*
X56537718Y-1680851D01*
X56491296Y-1673114D01*
X56483559Y-1665377D01*
X56452611Y-1665377D01*
X56444874Y-1657640D01*
X56344294Y-1657640D01*
X56336557Y-1665377D01*
X56313346Y-1665377D01*
X56205029Y-1711799D01*
X56150870Y-1750484D01*
X56073501Y-1843327D01*
X56034816Y-1928433D01*
X56027079Y-2005803D01*
X56019342Y-2013540D01*
X55849614Y-2013540D01*
X55849130Y-2005803D01*
X55856867Y-1998066D01*
X55856867Y-1928433D01*
X55864603Y-1920696D01*
X55872340Y-1851064D01*
X55926499Y-1727273D01*
X55988395Y-1642166D01*
X56042553Y-1588008D01*
X56119923Y-1533849D01*
X56251451Y-1471954D01*
X56328820Y-1456480D01*
X56336557Y-1448743D01*
X56367505Y-1448743D01*
X56375242Y-1441006D01*
X56413926Y-1441006D01*
X56421663Y-1433269D01*
X56615087Y-1425532D01*
X56622824Y-1417795D01*
X56676983Y-1417795D01*
X56684720Y-1410058D01*
X56746615Y-1402321D01*
X56878143Y-1348162D01*
X57032882Y-1247582D01*
X57257253Y-1131528D01*
X57342360Y-1108317D01*
X57411992Y-1077369D01*
X57497099Y-1061896D01*
X57528046Y-1046422D01*
X57605416Y-1038685D01*
X57651838Y-1023211D01*
X57775629Y-1015474D01*
X57783366Y-1007737D01*
X57883946Y-1007737D01*
X57891683Y-1000000D01*
X58116054Y-1000000D01*
X58123791Y-1007737D01*
G37*
D11*
X28237704Y-19609523D02*
X27590085Y-19609523D01*
X27590085Y-19609523D02*
X27513895Y-19571428D01*
X27513895Y-19571428D02*
X27475800Y-19533333D01*
X27475800Y-19533333D02*
X27437704Y-19457142D01*
X27437704Y-19457142D02*
X27437704Y-19304761D01*
X27437704Y-19304761D02*
X27475800Y-19228571D01*
X27475800Y-19228571D02*
X27513895Y-19190476D01*
X27513895Y-19190476D02*
X27590085Y-19152380D01*
X27590085Y-19152380D02*
X28237704Y-19152380D01*
X27437704Y-18352381D02*
X27437704Y-18809524D01*
X27437704Y-18580952D02*
X28237704Y-18580952D01*
X28237704Y-18580952D02*
X28123419Y-18657143D01*
X28123419Y-18657143D02*
X28047228Y-18733333D01*
X28047228Y-18733333D02*
X28009133Y-18809524D01*
%TO.C,R36*%
D12*
X49762742Y-21977500D02*
X50237258Y-21977500D01*
X49762742Y-23022500D02*
X50237258Y-23022500D01*
%TO.C,C10*%
X72265000Y-21938748D02*
X72265000Y-22461252D01*
X73735000Y-21938748D02*
X73735000Y-22461252D01*
%TO.C,C25*%
X14290000Y-2340580D02*
X14290000Y-2059420D01*
X15310000Y-2340580D02*
X15310000Y-2059420D01*
%TO.C,C8*%
X65465000Y-19438748D02*
X65465000Y-19961252D01*
X66935000Y-19438748D02*
X66935000Y-19961252D01*
%TO.C,R26*%
X18327500Y-8087258D02*
X18327500Y-7612742D01*
X19372500Y-8087258D02*
X19372500Y-7612742D01*
%TO.C,U5*%
X68090000Y-24940000D02*
X68090000Y-24990000D01*
X68090000Y-28010000D02*
X68090000Y-28060000D01*
X68090000Y-28060000D02*
X69910000Y-28060000D01*
X69910000Y-24940000D02*
X68090000Y-24940000D01*
X69910000Y-24990000D02*
X69910000Y-24940000D01*
X69910000Y-28060000D02*
X69910000Y-28010000D01*
X67550000Y-28010000D02*
X67310000Y-28340000D01*
X67790000Y-28340000D01*
X67550000Y-28010000D01*
G36*
X67790000Y-28340000D02*
G01*
X67310000Y-28340000D01*
X67550000Y-28010000D01*
X67790000Y-28340000D01*
G37*
%TO.C,U3*%
D11*
X68000000Y-16375000D02*
X70000000Y-16375000D01*
X68230000Y-19625000D02*
X70000000Y-19625000D01*
D12*
X67840000Y-19390000D02*
X67360000Y-19390000D01*
X67840000Y-19870000D01*
X67840000Y-19390000D01*
G36*
X67840000Y-19870000D02*
G01*
X67360000Y-19390000D01*
X67840000Y-19390000D01*
X67840000Y-19870000D01*
G37*
%TO.C,TP2*%
X45700000Y-38200000D02*
G75*
G02*
X44300000Y-38200000I-700000J0D01*
G01*
X44300000Y-38200000D02*
G75*
G02*
X45700000Y-38200000I700000J0D01*
G01*
%TO.C,C7*%
X32190000Y-38140580D02*
X32190000Y-37859420D01*
X33210000Y-38140580D02*
X33210000Y-37859420D01*
%TO.C,R6*%
X23377500Y-2437258D02*
X23377500Y-1962742D01*
X24422500Y-2437258D02*
X24422500Y-1962742D01*
%TO.C,C3*%
X21190000Y-2340580D02*
X21190000Y-2059420D01*
X22210000Y-2340580D02*
X22210000Y-2059420D01*
%TO.C,R8*%
X74677500Y-12462742D02*
X74677500Y-12937258D01*
X75722500Y-12462742D02*
X75722500Y-12937258D01*
%TO.C,TP4*%
X55100000Y-47100000D02*
G75*
G02*
X53700000Y-47100000I-700000J0D01*
G01*
X53700000Y-47100000D02*
G75*
G02*
X55100000Y-47100000I700000J0D01*
G01*
%TO.C,J3*%
X66090000Y-39840000D02*
X66090000Y-33160000D01*
X69660000Y-31440000D02*
X73910000Y-31440000D01*
X69660000Y-41560000D02*
X73910000Y-41560000D01*
X72310000Y-32460000D02*
X72310000Y-33740000D01*
X72310000Y-39260000D02*
X75200000Y-39260000D01*
X72310000Y-40540000D02*
X72310000Y-39260000D01*
X73910000Y-31440000D02*
X73910000Y-32460000D01*
X73910000Y-32460000D02*
X72310000Y-32460000D01*
X73910000Y-40540000D02*
X72310000Y-40540000D01*
X73910000Y-41560000D02*
X73910000Y-40540000D01*
%TO.C,TP20*%
X51700000Y-31000000D02*
G75*
G02*
X50300000Y-31000000I-700000J0D01*
G01*
X50300000Y-31000000D02*
G75*
G02*
X51700000Y-31000000I700000J0D01*
G01*
%TO.C,R2*%
X35077500Y-39937258D02*
X35077500Y-39462742D01*
X36122500Y-39937258D02*
X36122500Y-39462742D01*
%TO.C,C9*%
X70990000Y-15790580D02*
X70990000Y-15509420D01*
X72010000Y-15790580D02*
X72010000Y-15509420D01*
%TO.C,Q2*%
X58240000Y-25940000D02*
X58240000Y-25990000D01*
X58240000Y-27110000D02*
X58240000Y-27890000D01*
X58240000Y-29010000D02*
X58240000Y-29060000D01*
X58240000Y-29060000D02*
X59760000Y-29060000D01*
X59760000Y-25940000D02*
X58240000Y-25940000D01*
X59760000Y-26940000D02*
X59760000Y-25940000D01*
X59760000Y-29060000D02*
X59760000Y-28060000D01*
X57700000Y-27880000D02*
X57940000Y-27550000D01*
X57460000Y-27550000D01*
X57700000Y-27880000D01*
G36*
X57700000Y-27880000D02*
G01*
X57460000Y-27550000D01*
X57940000Y-27550000D01*
X57700000Y-27880000D01*
G37*
%TO.C,R9*%
X65977500Y-5837258D02*
X65977500Y-5362742D01*
X67022500Y-5837258D02*
X67022500Y-5362742D01*
%TO.C,TP8*%
X76000000Y-22599999D02*
G75*
G02*
X74600000Y-22599999I-700000J0D01*
G01*
X74600000Y-22599999D02*
G75*
G02*
X76000000Y-22599999I700000J0D01*
G01*
%TO.C,R16*%
X62977500Y-34837258D02*
X62977500Y-34362742D01*
X64022500Y-34837258D02*
X64022500Y-34362742D01*
%TO.C,R35*%
X49762742Y-19977500D02*
X50237258Y-19977500D01*
X49762742Y-21022500D02*
X50237258Y-21022500D01*
%TO.C,R3*%
X22277500Y-5262742D02*
X22277500Y-5737258D01*
X23322500Y-5262742D02*
X23322500Y-5737258D01*
%TO.C,C31*%
X49565000Y-42061252D02*
X49565000Y-41538748D01*
X51035000Y-42061252D02*
X51035000Y-41538748D01*
%TO.C,C5*%
X65465000Y-12588748D02*
X65465000Y-13111252D01*
X66935000Y-12588748D02*
X66935000Y-13111252D01*
%TO.C,L2*%
X72550000Y-20000000D02*
X72550000Y-16000000D01*
X76550000Y-20000000D02*
X76550000Y-16000000D01*
%TO.C,R12*%
X40977500Y-34837258D02*
X40977500Y-34362742D01*
X42022500Y-34837258D02*
X42022500Y-34362742D01*
%TO.C,C29*%
X11990000Y-7990580D02*
X11990000Y-7709420D01*
X13010000Y-7990580D02*
X13010000Y-7709420D01*
%TO.C,C2*%
X26790000Y-8040580D02*
X26790000Y-7759420D01*
X27810000Y-8040580D02*
X27810000Y-7759420D01*
%TO.C,R15*%
X68762742Y-14377500D02*
X69237258Y-14377500D01*
X68762742Y-15422500D02*
X69237258Y-15422500D01*
%TO.C,U2*%
X68190748Y-11660000D02*
X70210000Y-11660000D01*
X70210000Y-9340000D02*
X67790000Y-9340000D01*
X67900000Y-11670000D02*
X67760000Y-11860000D01*
X68040000Y-11860000D01*
X67900000Y-11670000D01*
G36*
X68040000Y-11860000D02*
G01*
X67760000Y-11860000D01*
X67900000Y-11670000D01*
X68040000Y-11860000D01*
G37*
%TO.C,D4*%
D11*
X50425000Y-48350000D02*
G75*
G02*
X50275000Y-48350000I-75000J0D01*
G01*
X50275000Y-48350000D02*
G75*
G02*
X50425000Y-48350000I75000J0D01*
G01*
%TO.C,R11*%
D12*
X38777500Y-34837258D02*
X38777500Y-34362742D01*
X39822500Y-34837258D02*
X39822500Y-34362742D01*
%TO.C,TP19*%
X49200000Y-31000000D02*
G75*
G02*
X47800000Y-31000000I-700000J0D01*
G01*
X47800000Y-31000000D02*
G75*
G02*
X49200000Y-31000000I700000J0D01*
G01*
%TO.C,TP22*%
X76000000Y-29400000D02*
G75*
G02*
X74600000Y-29400000I-700000J0D01*
G01*
X74600000Y-29400000D02*
G75*
G02*
X76000000Y-29400000I700000J0D01*
G01*
%TO.C,TP5*%
X57600000Y-46600000D02*
G75*
G02*
X56200000Y-46600000I-700000J0D01*
G01*
X56200000Y-46600000D02*
G75*
G02*
X57600000Y-46600000I700000J0D01*
G01*
%TO.C,C32*%
X59190000Y-20640580D02*
X59190000Y-20359420D01*
X60210000Y-20640580D02*
X60210000Y-20359420D01*
%TO.C,R24*%
X29977500Y-34837258D02*
X29977500Y-34362742D01*
X31022500Y-34837258D02*
X31022500Y-34362742D01*
%TO.C,R33*%
X45377500Y-45437258D02*
X45377500Y-44962742D01*
X46422500Y-45437258D02*
X46422500Y-44962742D01*
%TO.C,C28*%
X7990000Y-7990580D02*
X7990000Y-7709420D01*
X9010000Y-7990580D02*
X9010000Y-7709420D01*
%TO.C,U4*%
X37440000Y-37990000D02*
X37440000Y-39810000D01*
X37440000Y-39810000D02*
X37490000Y-39810000D01*
X37490000Y-37990000D02*
X37440000Y-37990000D01*
X40510000Y-39810000D02*
X40560000Y-39810000D01*
X40560000Y-37990000D02*
X40510000Y-37990000D01*
X40560000Y-39810000D02*
X40560000Y-37990000D01*
X40510000Y-40350000D02*
X40840000Y-40590000D01*
X40840000Y-40110000D01*
X40510000Y-40350000D01*
G36*
X40840000Y-40590000D02*
G01*
X40510000Y-40350000D01*
X40840000Y-40110000D01*
X40840000Y-40590000D01*
G37*
%TO.C,R34*%
X76177500Y-34837258D02*
X76177500Y-34362742D01*
X77222500Y-34837258D02*
X77222500Y-34362742D01*
%TO.C,TP10*%
X62000000Y-38000000D02*
G75*
G02*
X60600000Y-38000000I-700000J0D01*
G01*
X60600000Y-38000000D02*
G75*
G02*
X62000000Y-38000000I700000J0D01*
G01*
%TO.C,U7*%
X53390000Y-20890000D02*
X53390000Y-21015000D01*
X53390000Y-23985000D02*
X53390000Y-24110000D01*
X53390000Y-24110000D02*
X56610000Y-24110000D01*
X56610000Y-20890000D02*
X53390000Y-20890000D01*
X56610000Y-21015000D02*
X56610000Y-20890000D01*
X56610000Y-24110000D02*
X56610000Y-23985000D01*
X52840000Y-23990000D02*
X52600000Y-24320000D01*
X53080000Y-24320000D01*
X52840000Y-23990000D01*
G36*
X53080000Y-24320000D02*
G01*
X52600000Y-24320000D01*
X52840000Y-23990000D01*
X53080000Y-24320000D01*
G37*
%TO.C,TP14*%
X67200000Y-29400000D02*
G75*
G02*
X65800000Y-29400000I-700000J0D01*
G01*
X65800000Y-29400000D02*
G75*
G02*
X67200000Y-29400000I700000J0D01*
G01*
%TO.C,R25*%
X16427500Y-8087258D02*
X16427500Y-7612742D01*
X17472500Y-8087258D02*
X17472500Y-7612742D01*
%TO.C,R5*%
X25577500Y-2437258D02*
X25577500Y-1962742D01*
X26622500Y-2437258D02*
X26622500Y-1962742D01*
%TO.C,TP15*%
X71600000Y-29400000D02*
G75*
G02*
X70200000Y-29400000I-700000J0D01*
G01*
X70200000Y-29400000D02*
G75*
G02*
X71600000Y-29400000I700000J0D01*
G01*
%TO.C,R39*%
X63177500Y-26737258D02*
X63177500Y-26262742D01*
X64222500Y-26737258D02*
X64222500Y-26262742D01*
%TO.C,R37*%
X49762742Y-23977500D02*
X50237258Y-23977500D01*
X49762742Y-25022500D02*
X50237258Y-25022500D01*
%TO.C,R22*%
X18677500Y-2437258D02*
X18677500Y-1962742D01*
X19722500Y-2437258D02*
X19722500Y-1962742D01*
%TO.C,R23*%
X32177500Y-34837258D02*
X32177500Y-34362742D01*
X33222500Y-34837258D02*
X33222500Y-34362742D01*
%TO.C,C4*%
X71390000Y-12359420D02*
X71390000Y-12640580D01*
X72410000Y-12359420D02*
X72410000Y-12640580D01*
%TO.C,C6*%
X65340000Y-9490580D02*
X65340000Y-9209420D01*
X66360000Y-9490580D02*
X66360000Y-9209420D01*
%TO.C,TP11*%
X64200000Y-41800000D02*
G75*
G02*
X62800000Y-41800000I-700000J0D01*
G01*
X62800000Y-41800000D02*
G75*
G02*
X64200000Y-41800000I700000J0D01*
G01*
%TO.C,R4*%
X24677500Y-5262742D02*
X24677500Y-5737258D01*
X25722500Y-5262742D02*
X25722500Y-5737258D01*
%TO.C,J4*%
X34095000Y-15230000D02*
X34095000Y-15865000D01*
X34730000Y-15230000D02*
X34095000Y-15230000D01*
%TO.C,R10*%
X65977500Y-2437258D02*
X65977500Y-1962742D01*
X67022500Y-2437258D02*
X67022500Y-1962742D01*
%TO.C,R13*%
X68177500Y-5837258D02*
X68177500Y-5362742D01*
X69222500Y-5837258D02*
X69222500Y-5362742D01*
%TO.C,R38*%
X59762742Y-22977500D02*
X60237258Y-22977500D01*
X59762742Y-24022500D02*
X60237258Y-24022500D01*
%TO.C,TP12*%
X25900000Y-8400000D02*
G75*
G02*
X24500000Y-8400000I-700000J0D01*
G01*
X24500000Y-8400000D02*
G75*
G02*
X25900000Y-8400000I700000J0D01*
G01*
%TO.C,TP9*%
X73800000Y-26000000D02*
G75*
G02*
X72400000Y-26000000I-700000J0D01*
G01*
X72400000Y-26000000D02*
G75*
G02*
X73800000Y-26000000I700000J0D01*
G01*
%TO.C,R7*%
X73262742Y-9577500D02*
X73737258Y-9577500D01*
X73262742Y-10622500D02*
X73737258Y-10622500D01*
%TO.C,C26*%
X16490000Y-2340580D02*
X16490000Y-2059420D01*
X17510000Y-2340580D02*
X17510000Y-2059420D01*
%TO.C,C1*%
X20190000Y-8040580D02*
X20190000Y-7759420D01*
X21210000Y-8040580D02*
X21210000Y-7759420D01*
%TO.C,C34*%
X64990000Y-25640580D02*
X64990000Y-25359420D01*
X66010000Y-25640580D02*
X66010000Y-25359420D01*
%TO.C,TP3*%
X18250000Y-33900000D02*
G75*
G02*
X16850000Y-33900000I-700000J0D01*
G01*
X16850000Y-33900000D02*
G75*
G02*
X18250000Y-33900000I700000J0D01*
G01*
%TO.C,C11*%
X68859420Y-20390000D02*
X69140580Y-20390000D01*
X68859420Y-21410000D02*
X69140580Y-21410000D01*
%TO.C,TP1*%
X46500000Y-40700000D02*
G75*
G02*
X45100000Y-40700000I-700000J0D01*
G01*
X45100000Y-40700000D02*
G75*
G02*
X46500000Y-40700000I700000J0D01*
G01*
%TO.C,C27*%
X9990000Y-7990580D02*
X9990000Y-7709420D01*
X11010000Y-7990580D02*
X11010000Y-7709420D01*
%TO.C,TP17*%
X44200000Y-31000000D02*
G75*
G02*
X42800000Y-31000000I-700000J0D01*
G01*
X42800000Y-31000000D02*
G75*
G02*
X44200000Y-31000000I700000J0D01*
G01*
%TO.C,J1*%
X34300000Y-44700000D02*
X34300000Y-46700000D01*
X34300000Y-48600000D02*
X34300000Y-48900000D01*
X43700000Y-44700000D02*
X43700000Y-46700000D01*
X43700000Y-48600000D02*
X43700000Y-48900000D01*
%TO.C,C33*%
X55190000Y-27140580D02*
X55190000Y-26859420D01*
X56210000Y-27140580D02*
X56210000Y-26859420D01*
%TO.C,C30*%
X14265000Y-7961252D02*
X14265000Y-7438748D01*
X15735000Y-7961252D02*
X15735000Y-7438748D01*
%TO.C,TP21*%
X54200000Y-31000000D02*
G75*
G02*
X52800000Y-31000000I-700000J0D01*
G01*
X52800000Y-31000000D02*
G75*
G02*
X54200000Y-31000000I700000J0D01*
G01*
%TO.C,TP13*%
X23500000Y-8400000D02*
G75*
G02*
X22100000Y-8400000I-700000J0D01*
G01*
X22100000Y-8400000D02*
G75*
G02*
X23500000Y-8400000I700000J0D01*
G01*
%TO.C,TP16*%
X41700000Y-31000000D02*
G75*
G02*
X40300000Y-31000000I-700000J0D01*
G01*
X40300000Y-31000000D02*
G75*
G02*
X41700000Y-31000000I700000J0D01*
G01*
%TO.C,TP18*%
X46700000Y-31000000D02*
G75*
G02*
X45300000Y-31000000I-700000J0D01*
G01*
X45300000Y-31000000D02*
G75*
G02*
X46700000Y-31000000I700000J0D01*
G01*
%TO.C,TP6*%
X53400000Y-45500000D02*
G75*
G02*
X52000000Y-45500000I-700000J0D01*
G01*
X52000000Y-45500000D02*
G75*
G02*
X53400000Y-45500000I700000J0D01*
G01*
%TO.C,R14*%
X65677500Y-16012742D02*
X65677500Y-16487258D01*
X66722500Y-16012742D02*
X66722500Y-16487258D01*
%TO.C,U1*%
X350000Y-10300000D02*
X350000Y-28700000D01*
X350000Y-10300000D02*
X6550000Y-10300000D01*
X350000Y-28700000D02*
X6550000Y-28700000D01*
X25200000Y-10300000D02*
X26200000Y-10300000D01*
X26200000Y-10300000D02*
X26200000Y-11800000D01*
X26200000Y-28700000D02*
X25200000Y-28700000D01*
X26200000Y-28700000D02*
X26200000Y-27200000D01*
X7225000Y-10300000D02*
X7225000Y-9800000D01*
X6725000Y-10300000D01*
X7225000Y-10300000D01*
G36*
X7225000Y-10300000D02*
G01*
X6725000Y-10300000D01*
X7225000Y-9800000D01*
X7225000Y-10300000D01*
G37*
%TO.C,R21*%
X12077500Y-2437258D02*
X12077500Y-1962742D01*
X13122500Y-2437258D02*
X13122500Y-1962742D01*
%TO.C,TP7*%
X64200000Y-45200000D02*
G75*
G02*
X62800000Y-45200000I-700000J0D01*
G01*
X62800000Y-45200000D02*
G75*
G02*
X64200000Y-45200000I700000J0D01*
G01*
%TO.C,R1*%
X41677500Y-39937258D02*
X41677500Y-39462742D01*
X42722500Y-39937258D02*
X42722500Y-39462742D01*
%TD*%
%LPC*%
D13*
%TO.C,H1*%
X10000000Y-3500000D03*
%TD*%
%TO.C,H4*%
X76000000Y-45500000D03*
%TD*%
%TO.C,H3*%
X10000000Y-45500000D03*
%TD*%
%TO.C,H2*%
X74500000Y-3500000D03*
%TD*%
D14*
%TO.C,R36*%
X49175000Y-22500000D03*
X50825000Y-22500000D03*
%TD*%
D15*
%TO.C,C10*%
X73000000Y-21250000D03*
X73000000Y-23150000D03*
%TD*%
D16*
%TO.C,C25*%
X14800000Y-2975000D03*
X14800000Y-1425000D03*
%TD*%
D15*
%TO.C,C8*%
X66200000Y-18750000D03*
X66200000Y-20650000D03*
%TD*%
D17*
%TO.C,R26*%
X18850000Y-8675000D03*
X18850000Y-7025000D03*
%TD*%
D18*
%TO.C,U5*%
X67862500Y-27450000D03*
X67862500Y-26500000D03*
X67862500Y-25550000D03*
X70137500Y-25550000D03*
X70137500Y-26500000D03*
X70137500Y-27450000D03*
%TD*%
D19*
%TO.C,U3*%
X68100000Y-19000000D03*
X68100000Y-18500000D03*
X68100000Y-18000000D03*
X68100000Y-17500000D03*
X68100000Y-17000000D03*
D20*
X69750000Y-17000000D03*
X69750000Y-17500000D03*
D21*
X69550000Y-18000000D03*
D20*
X69750000Y-18500000D03*
X69750000Y-19000000D03*
%TD*%
D22*
%TO.C,TP2*%
X45000000Y-38200000D03*
%TD*%
D16*
%TO.C,C7*%
X32700000Y-38775000D03*
X32700000Y-37225000D03*
%TD*%
D17*
%TO.C,R6*%
X23900000Y-3025000D03*
X23900000Y-1375000D03*
%TD*%
D16*
%TO.C,C3*%
X21700000Y-2975000D03*
X21700000Y-1425000D03*
%TD*%
D23*
%TO.C,R8*%
X75200000Y-11875000D03*
X75200000Y-13525000D03*
%TD*%
D22*
%TO.C,TP4*%
X54400000Y-47100000D03*
%TD*%
D24*
%TO.C,J3*%
X73450000Y-38500000D03*
X73450000Y-36500000D03*
X73450000Y-34500000D03*
D25*
X67700000Y-40850000D03*
X67700000Y-32150000D03*
%TD*%
D22*
%TO.C,TP20*%
X51000000Y-31000000D03*
%TD*%
D17*
%TO.C,R2*%
X35600000Y-40525000D03*
X35600000Y-38875000D03*
%TD*%
D16*
%TO.C,C9*%
X71500000Y-16425000D03*
X71500000Y-14875000D03*
%TD*%
D26*
%TO.C,Q2*%
X58062500Y-28450000D03*
X58062500Y-26550000D03*
X59937500Y-27500000D03*
%TD*%
D17*
%TO.C,R9*%
X66500000Y-6425000D03*
X66500000Y-4775000D03*
%TD*%
D22*
%TO.C,TP8*%
X75300000Y-22599999D03*
%TD*%
D17*
%TO.C,R16*%
X63500000Y-35425000D03*
X63500000Y-33775000D03*
%TD*%
D14*
%TO.C,R35*%
X49175000Y-20500000D03*
X50825000Y-20500000D03*
%TD*%
D23*
%TO.C,R3*%
X22800000Y-4675000D03*
X22800000Y-6325000D03*
%TD*%
D27*
%TO.C,C31*%
X50300000Y-42750000D03*
X50300000Y-40850000D03*
%TD*%
D15*
%TO.C,C5*%
X66200000Y-11900000D03*
X66200000Y-13800000D03*
%TD*%
D28*
%TO.C,L2*%
X74550000Y-19185000D03*
X74550000Y-16815000D03*
%TD*%
D17*
%TO.C,R12*%
X41500000Y-35425000D03*
X41500000Y-33775000D03*
%TD*%
D16*
%TO.C,C29*%
X12500000Y-8625000D03*
X12500000Y-7075000D03*
%TD*%
%TO.C,C2*%
X27300000Y-8675000D03*
X27300000Y-7125000D03*
%TD*%
D14*
%TO.C,R15*%
X68175000Y-14900000D03*
X69825000Y-14900000D03*
%TD*%
D29*
%TO.C,U2*%
X67900000Y-11300000D03*
X67900000Y-10900000D03*
X67900000Y-10500000D03*
X67900000Y-10100000D03*
X67900000Y-9700000D03*
X70100000Y-9700000D03*
X70100000Y-10100000D03*
X70100000Y-10500000D03*
X70100000Y-10900000D03*
X70100000Y-11300000D03*
D30*
X69000000Y-10500000D03*
%TD*%
D31*
%TO.C,D4*%
X49975000Y-47800000D03*
X48025000Y-47800000D03*
D32*
X48685000Y-47555000D03*
X49315000Y-47555000D03*
%TD*%
D17*
%TO.C,R11*%
X39300000Y-35425000D03*
X39300000Y-33775000D03*
%TD*%
D22*
%TO.C,TP19*%
X48500000Y-31000000D03*
%TD*%
%TO.C,TP22*%
X75300000Y-29400000D03*
%TD*%
%TO.C,TP5*%
X56900000Y-46600000D03*
%TD*%
D16*
%TO.C,C32*%
X59700000Y-21275000D03*
X59700000Y-19725000D03*
%TD*%
D17*
%TO.C,R24*%
X30500000Y-35425000D03*
X30500000Y-33775000D03*
%TD*%
%TO.C,R33*%
X45900000Y-46025000D03*
X45900000Y-44375000D03*
%TD*%
D16*
%TO.C,C28*%
X8500000Y-8625000D03*
X8500000Y-7075000D03*
%TD*%
D33*
%TO.C,U4*%
X39950000Y-40037500D03*
X39000000Y-40037500D03*
X38050000Y-40037500D03*
X38050000Y-37762500D03*
X39000000Y-37762500D03*
X39950000Y-37762500D03*
%TD*%
D17*
%TO.C,R34*%
X76700000Y-35425000D03*
X76700000Y-33775000D03*
%TD*%
D22*
%TO.C,TP10*%
X61300000Y-38000000D03*
%TD*%
D34*
%TO.C,U7*%
X52887500Y-23475000D03*
X52887500Y-22825000D03*
X52887500Y-22175000D03*
X52887500Y-21525000D03*
X57112500Y-21525000D03*
X57112500Y-22175000D03*
X57112500Y-22825000D03*
X57112500Y-23475000D03*
%TD*%
D22*
%TO.C,TP14*%
X66500000Y-29400000D03*
%TD*%
D17*
%TO.C,R25*%
X16950000Y-8675000D03*
X16950000Y-7025000D03*
%TD*%
%TO.C,R5*%
X26100000Y-3025000D03*
X26100000Y-1375000D03*
%TD*%
D22*
%TO.C,TP15*%
X70900000Y-29400000D03*
%TD*%
D17*
%TO.C,R39*%
X63700000Y-27325000D03*
X63700000Y-25675000D03*
%TD*%
D14*
%TO.C,R37*%
X49175000Y-24500000D03*
X50825000Y-24500000D03*
%TD*%
D17*
%TO.C,R22*%
X19200000Y-3025000D03*
X19200000Y-1375000D03*
%TD*%
%TO.C,R23*%
X32700000Y-35425000D03*
X32700000Y-33775000D03*
%TD*%
D35*
%TO.C,C4*%
X71900000Y-11725000D03*
X71900000Y-13275000D03*
%TD*%
D16*
%TO.C,C6*%
X65850000Y-10125000D03*
X65850000Y-8575000D03*
%TD*%
D22*
%TO.C,TP11*%
X63500000Y-41800000D03*
%TD*%
D23*
%TO.C,R4*%
X25200000Y-4675000D03*
X25200000Y-6325000D03*
%TD*%
D36*
%TO.C,J4*%
X33460000Y-16500000D03*
X38540000Y-15484000D03*
X38540000Y-17516000D03*
D37*
X34730000Y-15865000D03*
X34730000Y-17135000D03*
X36000000Y-15865000D03*
X36000000Y-17135000D03*
X37270000Y-15865000D03*
X37270000Y-17135000D03*
%TD*%
D17*
%TO.C,R10*%
X66500000Y-3025000D03*
X66500000Y-1375000D03*
%TD*%
%TO.C,R13*%
X68700000Y-6425000D03*
X68700000Y-4775000D03*
%TD*%
D14*
%TO.C,R38*%
X59175000Y-23500000D03*
X60825000Y-23500000D03*
%TD*%
D22*
%TO.C,TP12*%
X25200000Y-8400000D03*
%TD*%
%TO.C,TP9*%
X73100000Y-26000000D03*
%TD*%
D14*
%TO.C,R7*%
X72675000Y-10100000D03*
X74325000Y-10100000D03*
%TD*%
D16*
%TO.C,C26*%
X17000000Y-2975000D03*
X17000000Y-1425000D03*
%TD*%
%TO.C,C1*%
X20700000Y-8675000D03*
X20700000Y-7125000D03*
%TD*%
%TO.C,C34*%
X65500000Y-26275000D03*
X65500000Y-24725000D03*
%TD*%
D22*
%TO.C,TP3*%
X17550000Y-33900000D03*
%TD*%
D38*
%TO.C,C11*%
X68225000Y-20900000D03*
X69775000Y-20900000D03*
%TD*%
D22*
%TO.C,TP1*%
X45800000Y-40700000D03*
%TD*%
D16*
%TO.C,C27*%
X10500000Y-8625000D03*
X10500000Y-7075000D03*
%TD*%
D22*
%TO.C,TP17*%
X43500000Y-31000000D03*
%TD*%
D39*
%TO.C,J1*%
X41890000Y-44000000D03*
X36110000Y-44000000D03*
D40*
X42250000Y-42555000D03*
X41450000Y-42555000D03*
D41*
X40250000Y-42555000D03*
X39250000Y-42555000D03*
X38750000Y-42555000D03*
X37750000Y-42555000D03*
D40*
X36550000Y-42555000D03*
X35750000Y-42555000D03*
X35750000Y-42555000D03*
X36550000Y-42555000D03*
D41*
X37250000Y-42555000D03*
X38250000Y-42555000D03*
X39750000Y-42555000D03*
X40750000Y-42555000D03*
D40*
X41450000Y-42555000D03*
X42250000Y-42555000D03*
D42*
X43320000Y-47650000D03*
D43*
X43320000Y-43470000D03*
D42*
X34680000Y-47650000D03*
D43*
X34680000Y-43470000D03*
%TD*%
D16*
%TO.C,C33*%
X55700000Y-27775000D03*
X55700000Y-26225000D03*
%TD*%
D27*
%TO.C,C30*%
X15000000Y-8650000D03*
X15000000Y-6750000D03*
%TD*%
D22*
%TO.C,TP21*%
X53500000Y-31000000D03*
%TD*%
%TO.C,TP13*%
X22800000Y-8400000D03*
%TD*%
%TO.C,TP16*%
X41000000Y-31000000D03*
%TD*%
%TO.C,TP18*%
X46000000Y-31000000D03*
%TD*%
%TO.C,TP6*%
X52700000Y-45500000D03*
%TD*%
D23*
%TO.C,R14*%
X66200000Y-15425000D03*
X66200000Y-17075000D03*
%TD*%
D30*
%TO.C,U1*%
X7990000Y-10750000D03*
X9260000Y-10750000D03*
X10530000Y-10750000D03*
X11800000Y-10750000D03*
X13070000Y-10750000D03*
X14340000Y-10750000D03*
X15610000Y-10750000D03*
X16880000Y-10750000D03*
X18150000Y-10750000D03*
X19420000Y-10750000D03*
X20690000Y-10750000D03*
X21960000Y-10750000D03*
X23230000Y-10750000D03*
X24500000Y-10750000D03*
D44*
X25750000Y-12515000D03*
X25750000Y-13785000D03*
X25750000Y-15055000D03*
X25750000Y-16325000D03*
X25750000Y-17595000D03*
X25750000Y-18865000D03*
X25750000Y-20135000D03*
X25750000Y-21405000D03*
X25750000Y-22675000D03*
X25750000Y-23945000D03*
X25750000Y-25215000D03*
X25750000Y-26485000D03*
D30*
X24500000Y-28250000D03*
X23230000Y-28250000D03*
X21960000Y-28250000D03*
X20690000Y-28250000D03*
X19420000Y-28250000D03*
X18150000Y-28250000D03*
X16880000Y-28250000D03*
X15610000Y-28250000D03*
X14340000Y-28250000D03*
X13070000Y-28250000D03*
X11800000Y-28250000D03*
X10530000Y-28250000D03*
X9260000Y-28250000D03*
X7990000Y-28250000D03*
D45*
X16410000Y-16600000D03*
X15010000Y-16600000D03*
X17110000Y-17300000D03*
X15710000Y-17300000D03*
X14310000Y-17300000D03*
X16410000Y-18000000D03*
D46*
X15710000Y-18000000D03*
D45*
X15010000Y-18000000D03*
X17110000Y-18700000D03*
X15710000Y-18700000D03*
X14310000Y-18700000D03*
X16410000Y-19400000D03*
X15010000Y-19400000D03*
%TD*%
D17*
%TO.C,R21*%
X12600000Y-3025000D03*
X12600000Y-1375000D03*
%TD*%
D22*
%TO.C,TP7*%
X63500000Y-45200000D03*
%TD*%
D17*
%TO.C,R1*%
X42200000Y-40525000D03*
X42200000Y-38875000D03*
%TD*%
%LPD*%
M02*
