solid OpenSCAD_Model
  facet normal 0.1950903220161279 0.9807852804032307 0
    outer loop
      vertex 8.840011434988575 0.9018891429628795 0
      vertex 8.840011434988575 0.9018891429628795 0.7999999999999998
      vertex 9.167158209838867 0.8368156034967882 0
    endloop
  endfacet
  facet normal 0.06540312923014246 0.9978589232386036 0
    outer loop
      vertex 9.167158209838867 0.8368156034967882 0
      vertex 9.167158209838867 0.8368156034967882 0.7999999999999998
      vertex 9.5 0.8150000000000048 0
    endloop
  endfacet
  facet normal -0.06540312923014246 0.9978589232386036 0
    outer loop
      vertex 9.5 0.8150000000000048 0
      vertex 9.5 0.8150000000000048 0.7999999999999998
      vertex 9.832841790161133 0.8368156034967882 0
    endloop
  endfacet
  facet normal -0.1950903220161279 0.9807852804032307 0
    outer loop
      vertex 9.832841790161133 0.8368156034967882 0
      vertex 9.832841790161133 0.8368156034967882 0.7999999999999998
      vertex 10.159988565011425 0.9018891429628795 0
    endloop
  endfacet
  facet normal 0.3214394653031608 0.9469301294951058 0
    outer loop
      vertex 8.52415724746902 1.0091071920962236 0
      vertex 8.52415724746902 1.0091071920962236 0.7999999999999998
      vertex 8.840011434988575 0.9018891429628795 0
    endloop
  endfacet
  facet normal -0.3214394653031608 0.9469301294951058 0
    outer loop
      vertex 10.159988565011425 0.9018891429628795 0
      vertex 10.159988565011425 0.9018891429628795 0.7999999999999998
      vertex 10.47584275253098 1.0091071920962236 0
    endloop
  endfacet
  facet normal 0.44228869021900064 0.8968727415326887 0
    outer loop
      vertex 8.52415724746902 1.0091071920962236 0
      vertex 8.225000000000001 1.1566352203496848 0
      vertex 8.225000000000001 1.1566352203496848 0.7999999999999998
    endloop
  endfacet
  facet normal 0.555570233019587 0.8314696123025553 0
    outer loop
      vertex 7.947658356027759 1.3419489822573496 0
      vertex 7.947658356027759 1.3419489822573496 0.7999999999999998
      vertex 8.225000000000001 1.1566352203496848 0
    endloop
  endfacet
  facet normal -0.44228869021900064 0.8968727415326887 0
    outer loop
      vertex 10.47584275253098 1.0091071920962236 0
      vertex 10.47584275253098 1.0091071920962236 0.7999999999999998
      vertex 10.774999999999999 1.1566352203496848 0
    endloop
  endfacet
  facet normal -0.555570233019587 0.8314696123025553 0
    outer loop
      vertex 10.774999999999999 1.1566352203496848 0
      vertex 10.774999999999999 1.1566352203496848 0.7999999999999998
      vertex 11.052341643972241 1.3419489822573496 0
    endloop
  endfacet
  facet normal -0.659345815100073 0.7518398074789738 0
    outer loop
      vertex 11.052341643972241 1.3419489822573496 0
      vertex 11.052341643972241 1.3419489822573496 0.7999999999999998
      vertex 11.303122292025698 1.561877707974304 0
    endloop
  endfacet
  facet normal 0.1950903220161279 0.9807852804032307 0
    outer loop
      vertex 9.167158209838867 0.8368156034967882 0
      vertex 8.840011434988575 0.9018891429628795 0.7999999999999998
      vertex 9.167158209838867 0.8368156034967882 0.7999999999999998
    endloop
  endfacet
  facet normal 0.06540312923014246 0.9978589232386036 0
    outer loop
      vertex 9.5 0.8150000000000048 0
      vertex 9.167158209838867 0.8368156034967882 0.7999999999999998
      vertex 9.5 0.8150000000000048 0.7999999999999998
    endloop
  endfacet
  facet normal -0.06540312923014246 0.9978589232386036 0
    outer loop
      vertex 9.832841790161133 0.8368156034967882 0
      vertex 9.5 0.8150000000000048 0.7999999999999998
      vertex 9.832841790161133 0.8368156034967882 0.7999999999999998
    endloop
  endfacet
  facet normal -0.1950903220161279 0.9807852804032307 0
    outer loop
      vertex 10.159988565011425 0.9018891429628795 0
      vertex 9.832841790161133 0.8368156034967882 0.7999999999999998
      vertex 10.159988565011425 0.9018891429628795 0.7999999999999998
    endloop
  endfacet
  facet normal 0.3214394653031608 0.9469301294951058 0
    outer loop
      vertex 8.840011434988575 0.9018891429628795 0
      vertex 8.52415724746902 1.0091071920962236 0.7999999999999998
      vertex 8.840011434988575 0.9018891429628795 0.7999999999999998
    endloop
  endfacet
  facet normal 0.44228869021900064 0.8968727415326887 0
    outer loop
      vertex 8.52415724746902 1.0091071920962236 0
      vertex 8.225000000000001 1.1566352203496848 0.7999999999999998
      vertex 8.52415724746902 1.0091071920962236 0.7999999999999998
    endloop
  endfacet
  facet normal -0.3214394653031608 0.9469301294951058 0
    outer loop
      vertex 10.47584275253098 1.0091071920962236 0
      vertex 10.159988565011425 0.9018891429628795 0.7999999999999998
      vertex 10.47584275253098 1.0091071920962236 0.7999999999999998
    endloop
  endfacet
  facet normal 0.659345815100073 0.7518398074789738 0
    outer loop
      vertex 7.947658356027759 1.3419489822573496 0
      vertex 7.696877707974302 1.561877707974304 0.7999999999999998
      vertex 7.947658356027759 1.3419489822573496 0.7999999999999998
    endloop
  endfacet
  facet normal 0.555570233019587 0.8314696123025553 0
    outer loop
      vertex 8.225000000000001 1.1566352203496848 0
      vertex 7.947658356027759 1.3419489822573496 0.7999999999999998
      vertex 8.225000000000001 1.1566352203496848 0.7999999999999998
    endloop
  endfacet
  facet normal -0.44228869021900064 0.8968727415326887 0
    outer loop
      vertex 10.774999999999999 1.1566352203496848 0
      vertex 10.47584275253098 1.0091071920962236 0.7999999999999998
      vertex 10.774999999999999 1.1566352203496848 0.7999999999999998
    endloop
  endfacet
  facet normal -0.555570233019587 0.8314696123025553 0
    outer loop
      vertex 11.052341643972241 1.3419489822573496 0
      vertex 10.774999999999999 1.1566352203496848 0.7999999999999998
      vertex 11.052341643972241 1.3419489822573496 0.7999999999999998
    endloop
  endfacet
  facet normal 0.659345815100073 0.7518398074789738 0
    outer loop
      vertex 7.696877707974302 1.561877707974304 0
      vertex 7.696877707974302 1.561877707974304 0.7999999999999998
      vertex 7.947658356027759 1.3419489822573496 0
    endloop
  endfacet
  facet normal 0.7518398074789738 0.659345815100073 0
    outer loop
      vertex 7.476948982257348 1.812658356027761 0
      vertex 7.476948982257348 1.812658356027761 0.7999999999999998
      vertex 7.696877707974302 1.561877707974304 0
    endloop
  endfacet
  facet normal 0.8314696123025553 0.555570233019587 0
    outer loop
      vertex 7.476948982257348 1.812658356027761 0
      vertex 7.291635220349683 2.0900000000000034 0
      vertex 7.291635220349683 2.0900000000000034 0.7999999999999998
    endloop
  endfacet
  facet normal 0.8968727415326887 0.44228869021900064 0
    outer loop
      vertex 7.144107192096222 2.389157247469022 0
      vertex 7.144107192096222 2.389157247469022 0.7999999999999998
      vertex 7.291635220349683 2.0900000000000034 0
    endloop
  endfacet
  facet normal 0.9469301294951058 0.3214394653031608 0
    outer loop
      vertex 7.144107192096222 2.389157247469022 0
      vertex 7.0368891429628775 2.7050114349885774 0
      vertex 7.0368891429628775 2.7050114349885774 0.7999999999999998
    endloop
  endfacet
  facet normal 0.9807852804032325 0.19509032201611715 0
    outer loop
      vertex 7.004070876905885 2.8699999999999974 0
      vertex 7.0368891429628775 2.7050114349885774 0.7999999999999998
      vertex 7.0368891429628775 2.7050114349885774 0
    endloop
  endfacet
  facet normal -0.7518398074789738 0.659345815100073 0
    outer loop
      vertex 11.303122292025698 1.561877707974304 0
      vertex 11.303122292025698 1.561877707974304 0.7999999999999998
      vertex 11.523051017742652 1.812658356027761 0
    endloop
  endfacet
  facet normal -0.8314696123025553 0.555570233019587 0
    outer loop
      vertex 11.523051017742652 1.812658356027761 0
      vertex 11.523051017742652 1.812658356027761 0.7999999999999998
      vertex 11.708364779650317 2.0900000000000034 0
    endloop
  endfacet
  facet normal -0.8968727415326887 0.44228869021900064 0
    outer loop
      vertex 11.708364779650317 2.0900000000000034 0
      vertex 11.708364779650317 2.0900000000000034 0.7999999999999998
      vertex 11.855892807903778 2.389157247469022 0
    endloop
  endfacet
  facet normal -0.9469301294951058 0.3214394653031608 0
    outer loop
      vertex 11.855892807903778 2.389157247469022 0
      vertex 11.855892807903778 2.389157247469022 0.7999999999999998
      vertex 11.963110857037123 2.7050114349885774 0
    endloop
  endfacet
  facet normal -0.9807852804032325 0.19509032201611715 0
    outer loop
      vertex 11.963110857037123 2.7050114349885774 0
      vertex 11.995929123094115 2.8699999999999974 0.7999999999999998
      vertex 11.995929123094115 2.8699999999999974 0
    endloop
  endfacet
  facet normal 0.7518398074789738 0.659345815100073 0
    outer loop
      vertex 7.696877707974302 1.561877707974304 0
      vertex 7.476948982257348 1.812658356027761 0.7999999999999998
      vertex 7.696877707974302 1.561877707974304 0.7999999999999998
    endloop
  endfacet
  facet normal 0.8314696123025553 0.555570233019587 0
    outer loop
      vertex 7.476948982257348 1.812658356027761 0
      vertex 7.291635220349683 2.0900000000000034 0.7999999999999998
      vertex 7.476948982257348 1.812658356027761 0.7999999999999998
    endloop
  endfacet
  facet normal 0.8968727415326887 0.44228869021900064 0
    outer loop
      vertex 7.291635220349683 2.0900000000000034 0
      vertex 7.144107192096222 2.389157247469022 0.7999999999999998
      vertex 7.291635220349683 2.0900000000000034 0.7999999999999998
    endloop
  endfacet
  facet normal 0.9469301294951058 0.3214394653031608 0
    outer loop
      vertex 7.144107192096222 2.389157247469022 0
      vertex 7.0368891429628775 2.7050114349885774 0.7999999999999998
      vertex 7.144107192096222 2.389157247469022 0.7999999999999998
    endloop
  endfacet
  facet normal 0.9807852804032325 0.19509032201611715 0
    outer loop
      vertex 7.004070876905885 2.8699999999999974 0
      vertex 7.004070876905885 2.8699999999999974 0.7999999999999998
      vertex 7.0368891429628775 2.7050114349885774 0.7999999999999998
    endloop
  endfacet
  facet normal -0.659345815100073 0.7518398074789738 0
    outer loop
      vertex 11.303122292025698 1.561877707974304 0
      vertex 11.052341643972241 1.3419489822573496 0.7999999999999998
      vertex 11.303122292025698 1.561877707974304 0.7999999999999998
    endloop
  endfacet
  facet normal -0.7518398074789738 0.659345815100073 0
    outer loop
      vertex 11.523051017742652 1.812658356027761 0
      vertex 11.303122292025698 1.561877707974304 0.7999999999999998
      vertex 11.523051017742652 1.812658356027761 0.7999999999999998
    endloop
  endfacet
  facet normal -0.8314696123025553 0.555570233019587 0
    outer loop
      vertex 11.708364779650317 2.0900000000000034 0
      vertex 11.523051017742652 1.812658356027761 0.7999999999999998
      vertex 11.708364779650317 2.0900000000000034 0.7999999999999998
    endloop
  endfacet
  facet normal -0.8968727415326887 0.44228869021900064 0
    outer loop
      vertex 11.855892807903778 2.389157247469022 0
      vertex 11.708364779650317 2.0900000000000034 0.7999999999999998
      vertex 11.855892807903778 2.389157247469022 0.7999999999999998
    endloop
  endfacet
  facet normal -0.9469301294951058 0.3214394653031608 0
    outer loop
      vertex 11.963110857037123 2.7050114349885774 0
      vertex 11.855892807903778 2.389157247469022 0.7999999999999998
      vertex 11.963110857037123 2.7050114349885774 0.7999999999999998
    endloop
  endfacet
  facet normal -0.9807852804032325 0.19509032201611715 0
    outer loop
      vertex 11.963110857037123 2.7050114349885774 0
      vertex 11.963110857037123 2.7050114349885774 0.7999999999999998
      vertex 11.995929123094115 2.8699999999999974 0.7999999999999998
    endloop
  endfacet
  facet normal 0 0 -1
    outer loop
      vertex 5.7681818181817945 0 0
      vertex 8.840011434988575 0.9018891429628795 0
      vertex 9.167158209838867 0.8368156034967882 0
    endloop
  endfacet
  facet normal 0 0 -1
    outer loop
      vertex 5.7681818181817945 0 0
      vertex 8.52415724746902 1.0091071920962236 0
      vertex 8.840011434988575 0.9018891429628795 0
    endloop
  endfacet
  facet normal 0 0 -1
    outer loop
      vertex 5.7681818181817945 0 0
      vertex 9.167158209838867 0.8368156034967882 0
      vertex 9.5 0.8150000000000048 0
    endloop
  endfacet
  facet normal 0 0 -1
    outer loop
      vertex 5.7681818181817945 0 0
      vertex 9.5 0.8150000000000048 0
      vertex 9.832841790161133 0.8368156034967882 0
    endloop
  endfacet
  facet normal 0 0 -1
    outer loop
      vertex 5.7681818181817945 0 0
      vertex 9.832841790161133 0.8368156034967882 0
      vertex 10.159988565011425 0.9018891429628795 0
    endloop
  endfacet
  facet normal 0 0 -1
    outer loop
      vertex 0 0 0
      vertex 0 2.8699999999999974 0
      vertex 5.7681818181817945 0 0
    endloop
  endfacet
  facet normal 0 0 -1
    outer loop
      vertex 5.7681818181817945 0 0
      vertex 8.225000000000001 1.1566352203496848 0
      vertex 8.52415724746902 1.0091071920962236 0
    endloop
  endfacet
  facet normal 0 0 -1
    outer loop
      vertex 5.7681818181817945 0 0
      vertex 7.947658356027759 1.3419489822573496 0
      vertex 8.225000000000001 1.1566352203496848 0
    endloop
  endfacet
  facet normal 0 0 -1
    outer loop
      vertex 5.7681818181817945 0 0
      vertex 7.696877707974302 1.561877707974304 0
      vertex 7.947658356027759 1.3419489822573496 0
    endloop
  endfacet
  facet normal 0 0 -1
    outer loop
      vertex 5.7681818181817945 0 0
      vertex 7.476948982257348 1.812658356027761 0
      vertex 7.696877707974302 1.561877707974304 0
    endloop
  endfacet
  facet normal 0 0 -1
    outer loop
      vertex 5.7681818181817945 0 0
      vertex 7.291635220349683 2.0900000000000034 0
      vertex 7.476948982257348 1.812658356027761 0
    endloop
  endfacet
  facet normal 0 0 -1
    outer loop
      vertex 5.7681818181817945 0 0
      vertex 10.159988565011425 0.9018891429628795 0
      vertex 42.3 0 0
    endloop
  endfacet
  facet normal 0 0 -1
    outer loop
      vertex 10.159988565011425 0.9018891429628795 0
      vertex 10.47584275253098 1.0091071920962236 0
      vertex 42.3 0 0
    endloop
  endfacet
  facet normal 0 0 1
    outer loop
      vertex 0 0 0.7999999999999998
      vertex 9.5 0.8150000000000048 0.7999999999999998
      vertex 9.167158209838867 0.8368156034967882 0.7999999999999998
    endloop
  endfacet
  facet normal 0 0 1
    outer loop
      vertex 0 0 0.7999999999999998
      vertex 9.167158209838867 0.8368156034967882 0.7999999999999998
      vertex 8.840011434988575 0.9018891429628795 0.7999999999999998
    endloop
  endfacet
  facet normal 0 0 1
    outer loop
      vertex 0 0 0.7999999999999998
      vertex 9.832841790161133 0.8368156034967882 0.7999999999999998
      vertex 9.5 0.8150000000000048 0.7999999999999998
    endloop
  endfacet
  facet normal 0 0 1
    outer loop
      vertex 0 0 0.7999999999999998
      vertex 8.840011434988575 0.9018891429628795 0.7999999999999998
      vertex 8.52415724746902 1.0091071920962236 0.7999999999999998
    endloop
  endfacet
  facet normal 0 0 1
    outer loop
      vertex 0 0 0.7999999999999998
      vertex 7.947658356027759 1.3419489822573496 0.7999999999999998
      vertex 7.696877707974302 1.561877707974304 0.7999999999999998
    endloop
  endfacet
  facet normal 0 0 1
    outer loop
      vertex 0 0 0.7999999999999998
      vertex 7.696877707974302 1.561877707974304 0.7999999999999998
      vertex 7.476948982257348 1.812658356027761 0.7999999999999998
    endloop
  endfacet
  facet normal 0 0 1
    outer loop
      vertex 0 0 0.7999999999999998
      vertex 7.476948982257348 1.812658356027761 0.7999999999999998
      vertex 7.291635220349683 2.0900000000000034 0.7999999999999998
    endloop
  endfacet
  facet normal 0 0 1
    outer loop
      vertex 0 0 0.7999999999999998
      vertex 8.52415724746902 1.0091071920962236 0.7999999999999998
      vertex 8.225000000000001 1.1566352203496848 0.7999999999999998
    endloop
  endfacet
  facet normal 0 0 1
    outer loop
      vertex 0 0 0.7999999999999998
      vertex 8.225000000000001 1.1566352203496848 0.7999999999999998
      vertex 7.947658356027759 1.3419489822573496 0.7999999999999998
    endloop
  endfacet
  facet normal 0 0 1
    outer loop
      vertex 0 0 0.7999999999999998
      vertex 42.3 0 0.7999999999999998
      vertex 9.832841790161133 0.8368156034967882 0.7999999999999998
    endloop
  endfacet
  facet normal 0 0 1
    outer loop
      vertex 9.832841790161133 0.8368156034967882 0.7999999999999998
      vertex 42.3 0 0.7999999999999998
      vertex 10.159988565011425 0.9018891429628795 0.7999999999999998
    endloop
  endfacet
  facet normal 0 0 1
    outer loop
      vertex 10.159988565011425 0.9018891429628795 0.7999999999999998
      vertex 42.3 0 0.7999999999999998
      vertex 10.47584275253098 1.0091071920962236 0.7999999999999998
    endloop
  endfacet
  facet normal 0 0 -1
    outer loop
      vertex 0 2.8699999999999974 0
      vertex 7.144107192096222 2.389157247469022 0
      vertex 5.7681818181817945 0 0
    endloop
  endfacet
  facet normal 0 0 -1
    outer loop
      vertex 5.7681818181817945 0 0
      vertex 7.144107192096222 2.389157247469022 0
      vertex 7.291635220349683 2.0900000000000034 0
    endloop
  endfacet
  facet normal 0 0 -1
    outer loop
      vertex 0 2.8699999999999974 0
      vertex 7.0368891429628775 2.7050114349885774 0
      vertex 7.144107192096222 2.389157247469022 0
    endloop
  endfacet
  facet normal 0 0 -1
    outer loop
      vertex 0 2.8699999999999974 0
      vertex 7.004070876905885 2.8699999999999974 0
      vertex 7.0368891429628775 2.7050114349885774 0
    endloop
  endfacet
  facet normal 0 1 0
    outer loop
      vertex 0 2.8699999999999974 0
      vertex 0 2.8699999999999974 0.7999999999999998
      vertex 7.004070876905885 2.8699999999999974 0
    endloop
  endfacet
  facet normal 0 0 1
    outer loop
      vertex 0 0 0.7999999999999998
      vertex 7.291635220349683 2.0900000000000034 0.7999999999999998
      vertex 7.144107192096222 2.389157247469022 0.7999999999999998
    endloop
  endfacet
  facet normal 0 0 1
    outer loop
      vertex 0 0 0.7999999999999998
      vertex 7.144107192096222 2.389157247469022 0.7999999999999998
      vertex 7.0368891429628775 2.7050114349885774 0.7999999999999998
    endloop
  endfacet
  facet normal 0 0 1
    outer loop
      vertex 0 0 0.7999999999999998
      vertex 7.004070876905885 2.8699999999999974 0.7999999999999998
      vertex 0 2.8699999999999974 0.7999999999999998
    endloop
  endfacet
  facet normal 0 0 1
    outer loop
      vertex 0 0 0.7999999999999998
      vertex 7.0368891429628775 2.7050114349885774 0.7999999999999998
      vertex 7.004070876905885 2.8699999999999974 0.7999999999999998
    endloop
  endfacet
  facet normal 0 1 0
    outer loop
      vertex 7.004070876905885 2.8699999999999974 0
      vertex 0 2.8699999999999974 0.7999999999999998
      vertex 7.004070876905885 2.8699999999999974 0.7999999999999998
    endloop
  endfacet
  facet normal 0 0 -1
    outer loop
      vertex 10.47584275253098 1.0091071920962236 0
      vertex 10.774999999999999 1.1566352203496848 0
      vertex 42.3 0 0
    endloop
  endfacet
  facet normal 0 0 -1
    outer loop
      vertex 10.774999999999999 1.1566352203496848 0
      vertex 11.052341643972241 1.3419489822573496 0
      vertex 42.3 0 0
    endloop
  endfacet
  facet normal 0 0 -1
    outer loop
      vertex 11.052341643972241 1.3419489822573496 0
      vertex 11.303122292025698 1.561877707974304 0
      vertex 42.3 0 0
    endloop
  endfacet
  facet normal 0 0 -1
    outer loop
      vertex 11.303122292025698 1.561877707974304 0
      vertex 11.523051017742652 1.812658356027761 0
      vertex 42.3 0 0
    endloop
  endfacet
  facet normal 0 0 -1
    outer loop
      vertex 11.523051017742652 1.812658356027761 0
      vertex 11.708364779650317 2.0900000000000034 0
      vertex 42.3 0 0
    endloop
  endfacet
  facet normal 0 0 1
    outer loop
      vertex 10.47584275253098 1.0091071920962236 0.7999999999999998
      vertex 42.3 0 0.7999999999999998
      vertex 10.774999999999999 1.1566352203496848 0.7999999999999998
    endloop
  endfacet
  facet normal 0 0 1
    outer loop
      vertex 10.774999999999999 1.1566352203496848 0.7999999999999998
      vertex 42.3 0 0.7999999999999998
      vertex 11.052341643972241 1.3419489822573496 0.7999999999999998
    endloop
  endfacet
  facet normal 0 0 1
    outer loop
      vertex 11.052341643972241 1.3419489822573496 0.7999999999999998
      vertex 42.3 0 0.7999999999999998
      vertex 11.303122292025698 1.561877707974304 0.7999999999999998
    endloop
  endfacet
  facet normal 0 0 1
    outer loop
      vertex 11.303122292025698 1.561877707974304 0.7999999999999998
      vertex 42.3 0 0.7999999999999998
      vertex 11.523051017742652 1.812658356027761 0.7999999999999998
    endloop
  endfacet
  facet normal 0 0 1
    outer loop
      vertex 11.523051017742652 1.812658356027761 0.7999999999999998
      vertex 42.3 0 0.7999999999999998
      vertex 11.708364779650317 2.0900000000000034 0.7999999999999998
    endloop
  endfacet
  facet normal 0 0 -1
    outer loop
      vertex 11.708364779650317 2.0900000000000034 0
      vertex 11.855892807903778 2.389157247469022 0
      vertex 42.3 0 0
    endloop
  endfacet
  facet normal 0 0 -1
    outer loop
      vertex 11.855892807903778 2.389157247469022 0
      vertex 11.963110857037123 2.7050114349885774 0
      vertex 42.3 0 0
    endloop
  endfacet
  facet normal 0 0 -1
    outer loop
      vertex 11.963110857037123 2.7050114349885774 0
      vertex 11.995929123094115 2.8699999999999974 0
      vertex 42.3 0 0
    endloop
  endfacet
  facet normal 0 1 0
    outer loop
      vertex 11.995929123094115 2.8699999999999974 0
      vertex 11.995929123094115 2.8699999999999974 0.7999999999999998
      vertex 42.3 2.8699999999999974 0
    endloop
  endfacet
  facet normal 0 0 -1
    outer loop
      vertex 11.995929123094115 2.8699999999999974 0
      vertex 42.3 2.8699999999999974 0
      vertex 42.3 0 0
    endloop
  endfacet
  facet normal 0 0 1
    outer loop
      vertex 11.708364779650317 2.0900000000000034 0.7999999999999998
      vertex 42.3 0 0.7999999999999998
      vertex 11.855892807903778 2.389157247469022 0.7999999999999998
    endloop
  endfacet
  facet normal 0 0 1
    outer loop
      vertex 11.855892807903778 2.389157247469022 0.7999999999999998
      vertex 42.3 0 0.7999999999999998
      vertex 11.963110857037123 2.7050114349885774 0.7999999999999998
    endloop
  endfacet
  facet normal 0 0 1
    outer loop
      vertex 11.963110857037123 2.7050114349885774 0.7999999999999998
      vertex 42.3 0 0.7999999999999998
      vertex 11.995929123094115 2.8699999999999974 0.7999999999999998
    endloop
  endfacet
  facet normal 0 0 1
    outer loop
      vertex 11.995929123094115 2.8699999999999974 0.7999999999999998
      vertex 42.3 0 0.7999999999999998
      vertex 42.3 2.8699999999999974 0.7999999999999998
    endloop
  endfacet
  facet normal 0 1 0
    outer loop
      vertex 11.995929123094115 2.8699999999999974 0.7999999999999998
      vertex 42.3 2.8699999999999974 0.7999999999999998
      vertex 42.3 2.8699999999999974 0
    endloop
  endfacet
  facet normal 0 -1 0
    outer loop
      vertex 0 0 0
      vertex 5.7681818181817945 0 0
      vertex 0 0 0.7999999999999998
    endloop
  endfacet
  facet normal 0 -1 0
    outer loop
      vertex 5.7681818181817945 0 0
      vertex 42.3 0 0.7999999999999998
      vertex 0 0 0.7999999999999998
    endloop
  endfacet
  facet normal 0 -1 0
    outer loop
      vertex 5.7681818181817945 0 0
      vertex 42.3 0 0
      vertex 42.3 0 0.7999999999999998
    endloop
  endfacet
  facet normal 1 0 0
    outer loop
      vertex 42.3 0 0
      vertex 42.3 2.8699999999999974 0.7999999999999998
      vertex 42.3 0 0.7999999999999998
    endloop
  endfacet
  facet normal 1 0 0
    outer loop
      vertex 42.3 0 0
      vertex 42.3 2.8699999999999974 0
      vertex 42.3 2.8699999999999974 0.7999999999999998
    endloop
  endfacet
  facet normal -1 0 0
    outer loop
      vertex 0 0 0
      vertex 0 0 0.7999999999999998
      vertex 0 2.8699999999999974 0
    endloop
  endfacet
  facet normal -1 0 0
    outer loop
      vertex 0 2.8699999999999974 0
      vertex 0 0 0.7999999999999998
      vertex 0 2.8699999999999974 0.7999999999999998
    endloop
  endfacet
endsolid OpenSCAD_Model
