solid OpenSCAD_Model
  facet normal 0.9807852804032283 0.19509032201613888 0
    outer loop
      vertex 53.14896211364385 56.41 0
      vertex 53.14896211364385 56.41 0.7999999999999989
      vertex 53.16188914296288 56.34501143498857 0
    endloop
  endfacet
  facet normal 0.9469301294951122 0.32143946530314166 0
    outer loop
      vertex 53.16188914296288 56.34501143498857 0
      vertex 53.269107192096214 56.029157247469016 0.7999999999999989
      vertex 53.269107192096214 56.029157247469016 0
    endloop
  endfacet
  facet normal 0.8968727415326887 0.4422886902190006 0
    outer loop
      vertex 53.269107192096214 56.029157247469016 0
      vertex 53.416635220349676 55.73 0.7999999999999989
      vertex 53.416635220349676 55.73 0
    endloop
  endfacet
  facet normal 0.831469612302529 0.5555702330196263 0
    outer loop
      vertex 53.416635220349676 55.73 0
      vertex 53.601948982257355 55.45265835602776 0.7999999999999989
      vertex 53.601948982257355 55.45265835602776 0
    endloop
  endfacet
  facet normal 0.7518398074789739 0.6593458151000731 0
    outer loop
      vertex 53.601948982257355 55.45265835602776 0
      vertex 53.82187770797431 55.201877707974305 0.7999999999999989
      vertex 53.82187770797431 55.201877707974305 0
    endloop
  endfacet
  facet normal 0.6593458151000835 0.7518398074789646 0
    outer loop
      vertex 53.82187770797431 55.201877707974305 0
      vertex 54.07265835602776 54.98194898225735 0.7999999999999989
      vertex 54.07265835602776 54.98194898225735 0
    endloop
  endfacet
  facet normal 0.5555702330196116 0.8314696123025389 0
    outer loop
      vertex 54.07265835602776 54.98194898225735 0
      vertex 54.349999999999994 54.79663522034968 0.7999999999999989
      vertex 54.349999999999994 54.79663522034968 0
    endloop
  endfacet
  facet normal 0.4422886902189921 0.8968727415326928 0
    outer loop
      vertex 54.349999999999994 54.79663522034968 0
      vertex 54.64915724746902 54.64910719209622 0.7999999999999989
      vertex 54.64915724746902 54.64910719209622 0
    endloop
  endfacet
  facet normal 0.32143946530316736 0.9469301294951039 0
    outer loop
      vertex 54.64915724746902 54.64910719209622 0
      vertex 54.96501143498857 54.54188914296287 0.7999999999999989
      vertex 54.96501143498857 54.54188914296287 0
    endloop
  endfacet
  facet normal 0.1950903220161197 0.980785280403232 0
    outer loop
      vertex 54.96501143498857 54.54188914296287 0
      vertex 55.292158209838874 54.47681560349678 0.7999999999999989
      vertex 55.292158209838874 54.47681560349678 0
    endloop
  endfacet
  facet normal 0.06540312923014385 0.9978589232386035 0
    outer loop
      vertex 55.292158209838874 54.47681560349678 0
      vertex 55.625 54.455 0.7999999999999989
      vertex 55.625 54.455 0
    endloop
  endfacet
  facet normal -0.06540312923014385 0.9978589232386035 0
    outer loop
      vertex 55.625 54.455 0
      vertex 55.957841790161126 54.47681560349678 0.7999999999999989
      vertex 55.957841790161126 54.47681560349678 0
    endloop
  endfacet
  facet normal -0.1950903220161197 0.980785280403232 0
    outer loop
      vertex 55.957841790161126 54.47681560349678 0
      vertex 56.28498856501143 54.54188914296287 0.7999999999999989
      vertex 56.28498856501143 54.54188914296287 0
    endloop
  endfacet
  facet normal -0.32143946530316736 0.9469301294951039 0
    outer loop
      vertex 56.60084275253098 54.64910719209622 0
      vertex 56.28498856501143 54.54188914296287 0
      vertex 56.60084275253098 54.64910719209622 0.7999999999999989
    endloop
  endfacet
  facet normal -0.9469301294951122 0.32143946530314166 0
    outer loop
      vertex 57.980892807903786 56.029157247469016 0
      vertex 58.08811085703712 56.34501143498857 0.7999999999999989
      vertex 58.08811085703712 56.34501143498857 0
    endloop
  endfacet
  facet normal -0.8968727415326887 0.4422886902190006 0
    outer loop
      vertex 57.980892807903786 56.029157247469016 0
      vertex 57.833364779650324 55.73 0
      vertex 57.980892807903786 56.029157247469016 0.7999999999999989
    endloop
  endfacet
  facet normal -0.831469612302529 0.5555702330196263 0
    outer loop
      vertex 57.833364779650324 55.73 0
      vertex 57.648051017742645 55.45265835602776 0
      vertex 57.833364779650324 55.73 0.7999999999999989
    endloop
  endfacet
  facet normal -0.6593458151000835 0.7518398074789646 0
    outer loop
      vertex 57.17734164397224 54.98194898225735 0
      vertex 57.42812229202569 55.201877707974305 0.7999999999999989
      vertex 57.42812229202569 55.201877707974305 0
    endloop
  endfacet
  facet normal -0.4422886902189921 0.8968727415326928 0
    outer loop
      vertex 56.60084275253098 54.64910719209622 0
      vertex 56.900000000000006 54.79663522034968 0.7999999999999989
      vertex 56.900000000000006 54.79663522034968 0
    endloop
  endfacet
  facet normal -0.5555702330196116 0.8314696123025389 0
    outer loop
      vertex 56.900000000000006 54.79663522034968 0
      vertex 57.17734164397224 54.98194898225735 0.7999999999999989
      vertex 57.17734164397224 54.98194898225735 0
    endloop
  endfacet
  facet normal -0.7518398074789739 0.6593458151000731 0
    outer loop
      vertex 57.648051017742645 55.45265835602776 0
      vertex 57.42812229202569 55.201877707974305 0
      vertex 57.648051017742645 55.45265835602776 0.7999999999999989
    endloop
  endfacet
  facet normal -0.9807852804032283 0.19509032201613888 0
    outer loop
      vertex 58.10103788635615 56.41 0
      vertex 58.08811085703712 56.34501143498857 0
      vertex 58.08811085703712 56.34501143498857 0.7999999999999989
    endloop
  endfacet
  facet normal 0.9807852804032283 0.19509032201613888 0
    outer loop
      vertex 53.16188914296288 56.34501143498857 0
      vertex 53.14896211364385 56.41 0.7999999999999989
      vertex 53.16188914296288 56.34501143498857 0.7999999999999989
    endloop
  endfacet
  facet normal 0.9469301294951122 0.32143946530314166 0
    outer loop
      vertex 53.16188914296288 56.34501143498857 0
      vertex 53.16188914296288 56.34501143498857 0.7999999999999989
      vertex 53.269107192096214 56.029157247469016 0.7999999999999989
    endloop
  endfacet
  facet normal 0.8968727415326887 0.4422886902190006 0
    outer loop
      vertex 53.269107192096214 56.029157247469016 0
      vertex 53.269107192096214 56.029157247469016 0.7999999999999989
      vertex 53.416635220349676 55.73 0.7999999999999989
    endloop
  endfacet
  facet normal 0.831469612302529 0.5555702330196263 0
    outer loop
      vertex 53.416635220349676 55.73 0
      vertex 53.416635220349676 55.73 0.7999999999999989
      vertex 53.601948982257355 55.45265835602776 0.7999999999999989
    endloop
  endfacet
  facet normal 0.7518398074789739 0.6593458151000731 0
    outer loop
      vertex 53.601948982257355 55.45265835602776 0
      vertex 53.601948982257355 55.45265835602776 0.7999999999999989
      vertex 53.82187770797431 55.201877707974305 0.7999999999999989
    endloop
  endfacet
  facet normal 0.6593458151000835 0.7518398074789646 0
    outer loop
      vertex 53.82187770797431 55.201877707974305 0
      vertex 53.82187770797431 55.201877707974305 0.7999999999999989
      vertex 54.07265835602776 54.98194898225735 0.7999999999999989
    endloop
  endfacet
  facet normal 0.5555702330196116 0.8314696123025389 0
    outer loop
      vertex 54.07265835602776 54.98194898225735 0
      vertex 54.07265835602776 54.98194898225735 0.7999999999999989
      vertex 54.349999999999994 54.79663522034968 0.7999999999999989
    endloop
  endfacet
  facet normal 0.4422886902189921 0.8968727415326928 0
    outer loop
      vertex 54.349999999999994 54.79663522034968 0
      vertex 54.349999999999994 54.79663522034968 0.7999999999999989
      vertex 54.64915724746902 54.64910719209622 0.7999999999999989
    endloop
  endfacet
  facet normal -0.4422886902189921 0.8968727415326928 0
    outer loop
      vertex 56.60084275253098 54.64910719209622 0
      vertex 56.60084275253098 54.64910719209622 0.7999999999999989
      vertex 56.900000000000006 54.79663522034968 0.7999999999999989
    endloop
  endfacet
  facet normal 0.32143946530316736 0.9469301294951039 0
    outer loop
      vertex 54.64915724746902 54.64910719209622 0
      vertex 54.64915724746902 54.64910719209622 0.7999999999999989
      vertex 54.96501143498857 54.54188914296287 0.7999999999999989
    endloop
  endfacet
  facet normal 0.1950903220161197 0.980785280403232 0
    outer loop
      vertex 54.96501143498857 54.54188914296287 0
      vertex 54.96501143498857 54.54188914296287 0.7999999999999989
      vertex 55.292158209838874 54.47681560349678 0.7999999999999989
    endloop
  endfacet
  facet normal 0.06540312923014385 0.9978589232386035 0
    outer loop
      vertex 55.292158209838874 54.47681560349678 0
      vertex 55.292158209838874 54.47681560349678 0.7999999999999989
      vertex 55.625 54.455 0.7999999999999989
    endloop
  endfacet
  facet normal -0.06540312923014385 0.9978589232386035 0
    outer loop
      vertex 55.625 54.455 0
      vertex 55.625 54.455 0.7999999999999989
      vertex 55.957841790161126 54.47681560349678 0.7999999999999989
    endloop
  endfacet
  facet normal -0.1950903220161197 0.980785280403232 0
    outer loop
      vertex 55.957841790161126 54.47681560349678 0
      vertex 55.957841790161126 54.47681560349678 0.7999999999999989
      vertex 56.28498856501143 54.54188914296287 0.7999999999999989
    endloop
  endfacet
  facet normal -0.32143946530316736 0.9469301294951039 0
    outer loop
      vertex 56.28498856501143 54.54188914296287 0
      vertex 56.28498856501143 54.54188914296287 0.7999999999999989
      vertex 56.60084275253098 54.64910719209622 0.7999999999999989
    endloop
  endfacet
  facet normal -0.9469301294951122 0.32143946530314166 0
    outer loop
      vertex 57.980892807903786 56.029157247469016 0
      vertex 57.980892807903786 56.029157247469016 0.7999999999999989
      vertex 58.08811085703712 56.34501143498857 0.7999999999999989
    endloop
  endfacet
  facet normal -0.831469612302529 0.5555702330196263 0
    outer loop
      vertex 57.648051017742645 55.45265835602776 0
      vertex 57.648051017742645 55.45265835602776 0.7999999999999989
      vertex 57.833364779650324 55.73 0.7999999999999989
    endloop
  endfacet
  facet normal -0.8968727415326887 0.4422886902190006 0
    outer loop
      vertex 57.833364779650324 55.73 0
      vertex 57.833364779650324 55.73 0.7999999999999989
      vertex 57.980892807903786 56.029157247469016 0.7999999999999989
    endloop
  endfacet
  facet normal -0.5555702330196116 0.8314696123025389 0
    outer loop
      vertex 56.900000000000006 54.79663522034968 0
      vertex 56.900000000000006 54.79663522034968 0.7999999999999989
      vertex 57.17734164397224 54.98194898225735 0.7999999999999989
    endloop
  endfacet
  facet normal -0.6593458151000835 0.7518398074789646 0
    outer loop
      vertex 57.17734164397224 54.98194898225735 0
      vertex 57.17734164397224 54.98194898225735 0.7999999999999989
      vertex 57.42812229202569 55.201877707974305 0.7999999999999989
    endloop
  endfacet
  facet normal -0.7518398074789739 0.6593458151000731 0
    outer loop
      vertex 57.42812229202569 55.201877707974305 0
      vertex 57.42812229202569 55.201877707974305 0.7999999999999989
      vertex 57.648051017742645 55.45265835602776 0.7999999999999989
    endloop
  endfacet
  facet normal -0.9807852804032283 0.19509032201613888 0
    outer loop
      vertex 58.10103788635615 56.41 0
      vertex 58.08811085703712 56.34501143498857 0.7999999999999989
      vertex 58.10103788635615 56.41 0.7999999999999989
    endloop
  endfacet
  facet normal 0.9807852804032283 0.19509032201613888 0
    outer loop
      vertex 84.14896211364385 56.41 0
      vertex 84.14896211364385 56.41 0.7999999999999989
      vertex 84.16188914296288 56.34501143498857 0
    endloop
  endfacet
  facet normal 0.9469301294951122 0.32143946530314166 0
    outer loop
      vertex 84.16188914296288 56.34501143498857 0
      vertex 84.26910719209621 56.029157247469016 0.7999999999999989
      vertex 84.26910719209621 56.029157247469016 0
    endloop
  endfacet
  facet normal 0.8968727415326887 0.4422886902190006 0
    outer loop
      vertex 84.26910719209621 56.029157247469016 0
      vertex 84.41663522034968 55.73 0.7999999999999989
      vertex 84.41663522034968 55.73 0
    endloop
  endfacet
  facet normal 0.831469612302529 0.5555702330196263 0
    outer loop
      vertex 84.41663522034968 55.73 0
      vertex 84.60194898225735 55.45265835602776 0.7999999999999989
      vertex 84.60194898225735 55.45265835602776 0
    endloop
  endfacet
  facet normal 0.7518398074789739 0.6593458151000731 0
    outer loop
      vertex 84.60194898225735 55.45265835602776 0
      vertex 84.82187770797431 55.201877707974305 0.7999999999999989
      vertex 84.82187770797431 55.201877707974305 0
    endloop
  endfacet
  facet normal 0.6593458151000835 0.7518398074789646 0
    outer loop
      vertex 84.82187770797431 55.201877707974305 0
      vertex 85.07265835602776 54.98194898225735 0.7999999999999989
      vertex 85.07265835602776 54.98194898225735 0
    endloop
  endfacet
  facet normal 0.5555702330196116 0.8314696123025389 0
    outer loop
      vertex 85.07265835602776 54.98194898225735 0
      vertex 85.35 54.79663522034968 0.7999999999999989
      vertex 85.35 54.79663522034968 0
    endloop
  endfacet
  facet normal 0.4422886902189921 0.8968727415326928 0
    outer loop
      vertex 85.35 54.79663522034968 0
      vertex 85.64915724746902 54.64910719209622 0.7999999999999989
      vertex 85.64915724746902 54.64910719209622 0
    endloop
  endfacet
  facet normal 0.32143946530316736 0.9469301294951039 0
    outer loop
      vertex 85.64915724746902 54.64910719209622 0
      vertex 85.96501143498857 54.54188914296287 0.7999999999999989
      vertex 85.96501143498857 54.54188914296287 0
    endloop
  endfacet
  facet normal 0.1950903220161197 0.980785280403232 0
    outer loop
      vertex 85.96501143498857 54.54188914296287 0
      vertex 86.29215820983887 54.47681560349678 0.7999999999999989
      vertex 86.29215820983887 54.47681560349678 0
    endloop
  endfacet
  facet normal 0.06540312923011948 0.9978589232386051 0
    outer loop
      vertex 86.29215820983887 54.47681560349678 0
      vertex 86.29215820983887 54.47681560349678 0.7999999999999989
      vertex 86.425 54.46810869256305 0
    endloop
  endfacet
  facet normal 0.9807852804032283 0.19509032201613888 0
    outer loop
      vertex 84.16188914296288 56.34501143498857 0
      vertex 84.14896211364385 56.41 0.7999999999999989
      vertex 84.16188914296288 56.34501143498857 0.7999999999999989
    endloop
  endfacet
  facet normal 0.9469301294951122 0.32143946530314166 0
    outer loop
      vertex 84.16188914296288 56.34501143498857 0
      vertex 84.16188914296288 56.34501143498857 0.7999999999999989
      vertex 84.26910719209621 56.029157247469016 0.7999999999999989
    endloop
  endfacet
  facet normal 0.8968727415326887 0.4422886902190006 0
    outer loop
      vertex 84.26910719209621 56.029157247469016 0
      vertex 84.26910719209621 56.029157247469016 0.7999999999999989
      vertex 84.41663522034968 55.73 0.7999999999999989
    endloop
  endfacet
  facet normal 0.831469612302529 0.5555702330196263 0
    outer loop
      vertex 84.41663522034968 55.73 0
      vertex 84.41663522034968 55.73 0.7999999999999989
      vertex 84.60194898225735 55.45265835602776 0.7999999999999989
    endloop
  endfacet
  facet normal 0.7518398074789739 0.6593458151000731 0
    outer loop
      vertex 84.60194898225735 55.45265835602776 0
      vertex 84.60194898225735 55.45265835602776 0.7999999999999989
      vertex 84.82187770797431 55.201877707974305 0.7999999999999989
    endloop
  endfacet
  facet normal 0.6593458151000835 0.7518398074789646 0
    outer loop
      vertex 84.82187770797431 55.201877707974305 0
      vertex 84.82187770797431 55.201877707974305 0.7999999999999989
      vertex 85.07265835602776 54.98194898225735 0.7999999999999989
    endloop
  endfacet
  facet normal 0.5555702330196116 0.8314696123025389 0
    outer loop
      vertex 85.07265835602776 54.98194898225735 0
      vertex 85.07265835602776 54.98194898225735 0.7999999999999989
      vertex 85.35 54.79663522034968 0.7999999999999989
    endloop
  endfacet
  facet normal 0.4422886902189921 0.8968727415326928 0
    outer loop
      vertex 85.35 54.79663522034968 0
      vertex 85.35 54.79663522034968 0.7999999999999989
      vertex 85.64915724746902 54.64910719209622 0.7999999999999989
    endloop
  endfacet
  facet normal 0.32143946530316736 0.9469301294951039 0
    outer loop
      vertex 85.64915724746902 54.64910719209622 0
      vertex 85.64915724746902 54.64910719209622 0.7999999999999989
      vertex 85.96501143498857 54.54188914296287 0.7999999999999989
    endloop
  endfacet
  facet normal 0.1950903220161197 0.980785280403232 0
    outer loop
      vertex 85.96501143498857 54.54188914296287 0
      vertex 85.96501143498857 54.54188914296287 0.7999999999999989
      vertex 86.29215820983887 54.47681560349678 0.7999999999999989
    endloop
  endfacet
  facet normal 0.06540312923011948 0.9978589232386051 0
    outer loop
      vertex 86.425 54.46810869256305 0
      vertex 86.29215820983887 54.47681560349678 0.7999999999999989
      vertex 86.425 54.46810869256305 0.7999999999999989
    endloop
  endfacet
  facet normal 0.32143946530316736 -0.9469301294951039 0
    outer loop
      vertex 80.64915724746902 1.8608928079037739 0
      vertex 80.96501143498857 1.968110857037118 0
      vertex 80.64915724746902 1.8608928079037739 0.7999999999999989
    endloop
  endfacet
  facet normal 0.8968727415326887 -0.4422886902190006 0
    outer loop
      vertex 79.26910719209621 0.4808427525309753 0
      vertex 79.41663522034968 0.779999999999994 0
      vertex 79.26910719209621 0.4808427525309753 0.7999999999999989
    endloop
  endfacet
  facet normal 0.8314696123025357 -0.5555702330196165 0
    outer loop
      vertex 79.60194898225735 1.0573416439722365 0
      vertex 79.41663522034968 0.779999999999994 0.7999999999999989
      vertex 79.41663522034968 0.779999999999994 0
    endloop
  endfacet
  facet normal 0.9469301294951122 -0.32143946530314166 0
    outer loop
      vertex 79.26910719209621 0.4808427525309753 0
      vertex 79.16188914296288 0.16498856501142 0.7999999999999989
      vertex 79.16188914296288 0.16498856501142 0
    endloop
  endfacet
  facet normal 0.9807852804032327 -0.1950903220161172 0
    outer loop
      vertex 79.16188914296288 0.16498856501142 0
      vertex 79.16188914296288 0.16498856501142 0.7999999999999989
      vertex 79.12907087690589 0 0
    endloop
  endfacet
  facet normal 0.6593458151000835 -0.7518398074789646 0
    outer loop
      vertex 80.07265835602776 1.5280510177426478 0
      vertex 79.82187770797431 1.3081222920256934 0.7999999999999989
      vertex 79.82187770797431 1.3081222920256934 0
    endloop
  endfacet
  facet normal 0.5555702330195968 -0.8314696123025488 0
    outer loop
      vertex 80.07265835602776 1.5280510177426478 0
      vertex 80.35 1.7133647796503126 0
      vertex 80.07265835602776 1.5280510177426478 0.7999999999999989
    endloop
  endfacet
  facet normal 0.7518398074789739 -0.6593458151000731 0
    outer loop
      vertex 79.60194898225735 1.0573416439722365 0
      vertex 79.82187770797431 1.3081222920256934 0
      vertex 79.60194898225735 1.0573416439722365 0.7999999999999989
    endloop
  endfacet
  facet normal 0.4422886902189921 -0.8968727415326928 0
    outer loop
      vertex 80.64915724746902 1.8608928079037739 0
      vertex 80.35 1.7133647796503126 0.7999999999999989
      vertex 80.35 1.7133647796503126 0
    endloop
  endfacet
  facet normal 0.1950903220161197 -0.980785280403232 0
    outer loop
      vertex 80.96501143498857 1.968110857037118 0
      vertex 81.29215820983887 2.0331843965032093 0
      vertex 80.96501143498857 1.968110857037118 0.7999999999999989
    endloop
  endfacet
  facet normal 0.06540312923014385 -0.9978589232386035 0
    outer loop
      vertex 81.29215820983887 2.0331843965032093 0
      vertex 81.625 2.0549999999999926 0
      vertex 81.29215820983887 2.0331843965032093 0.7999999999999989
    endloop
  endfacet
  facet normal -0.06540312923014385 -0.9978589232386035 0
    outer loop
      vertex 81.625 2.0549999999999926 0
      vertex 81.95784179016113 2.0331843965032093 0
      vertex 81.625 2.0549999999999926 0.7999999999999989
    endloop
  endfacet
  facet normal -0.1950903220161197 -0.980785280403232 0
    outer loop
      vertex 81.95784179016113 2.0331843965032093 0
      vertex 82.28498856501143 1.968110857037118 0
      vertex 81.95784179016113 2.0331843965032093 0.7999999999999989
    endloop
  endfacet
  facet normal -0.32143946530316736 -0.9469301294951039 0
    outer loop
      vertex 82.28498856501143 1.968110857037118 0
      vertex 82.60084275253098 1.8608928079037739 0
      vertex 82.28498856501143 1.968110857037118 0.7999999999999989
    endloop
  endfacet
  facet normal -0.4422886902189921 -0.8968727415326928 0
    outer loop
      vertex 82.60084275253098 1.8608928079037739 0
      vertex 82.9 1.7133647796503126 0
      vertex 82.60084275253098 1.8608928079037739 0.7999999999999989
    endloop
  endfacet
  facet normal -0.5555702330195968 -0.8314696123025488 0
    outer loop
      vertex 82.9 1.7133647796503126 0
      vertex 83.17734164397224 1.5280510177426478 0
      vertex 82.9 1.7133647796503126 0.7999999999999989
    endloop
  endfacet
  facet normal -0.6593458151000835 -0.7518398074789646 0
    outer loop
      vertex 83.17734164397224 1.5280510177426478 0
      vertex 83.42812229202569 1.3081222920256934 0
      vertex 83.17734164397224 1.5280510177426478 0.7999999999999989
    endloop
  endfacet
  facet normal -0.7518398074789739 -0.6593458151000731 0
    outer loop
      vertex 83.42812229202569 1.3081222920256934 0
      vertex 83.64805101774265 1.0573416439722365 0
      vertex 83.42812229202569 1.3081222920256934 0.7999999999999989
    endloop
  endfacet
  facet normal -0.8314696123025357 -0.5555702330196165 0
    outer loop
      vertex 83.64805101774265 1.0573416439722365 0
      vertex 83.83336477965032 0.779999999999994 0
      vertex 83.64805101774265 1.0573416439722365 0.7999999999999989
    endloop
  endfacet
  facet normal -0.8968727415326887 -0.4422886902190006 0
    outer loop
      vertex 83.83336477965032 0.779999999999994 0
      vertex 83.98089280790379 0.4808427525309753 0
      vertex 83.83336477965032 0.779999999999994 0.7999999999999989
    endloop
  endfacet
  facet normal -0.9469301294951122 -0.32143946530314166 0
    outer loop
      vertex 83.98089280790379 0.4808427525309753 0
      vertex 84.08811085703712 0.16498856501142 0
      vertex 83.98089280790379 0.4808427525309753 0.7999999999999989
    endloop
  endfacet
  facet normal -0.9807852804032327 -0.1950903220161172 0
    outer loop
      vertex 84.08811085703712 0.16498856501142 0
      vertex 84.12092912309411 0 0
      vertex 84.12092912309411 0 0.7999999999999989
    endloop
  endfacet
  facet normal 0.4422886902189921 -0.8968727415326928 0
    outer loop
      vertex 80.64915724746902 1.8608928079037739 0
      vertex 80.64915724746902 1.8608928079037739 0.7999999999999989
      vertex 80.35 1.7133647796503126 0.7999999999999989
    endloop
  endfacet
  facet normal 0.32143946530316736 -0.9469301294951039 0
    outer loop
      vertex 80.96501143498857 1.968110857037118 0
      vertex 80.96501143498857 1.968110857037118 0.7999999999999989
      vertex 80.64915724746902 1.8608928079037739 0.7999999999999989
    endloop
  endfacet
  facet normal 0.8314696123025357 -0.5555702330196165 0
    outer loop
      vertex 79.60194898225735 1.0573416439722365 0
      vertex 79.60194898225735 1.0573416439722365 0.7999999999999989
      vertex 79.41663522034968 0.779999999999994 0.7999999999999989
    endloop
  endfacet
  facet normal 0.8968727415326887 -0.4422886902190006 0
    outer loop
      vertex 79.41663522034968 0.779999999999994 0
      vertex 79.41663522034968 0.779999999999994 0.7999999999999989
      vertex 79.26910719209621 0.4808427525309753 0.7999999999999989
    endloop
  endfacet
  facet normal 0.9469301294951122 -0.32143946530314166 0
    outer loop
      vertex 79.26910719209621 0.4808427525309753 0
      vertex 79.26910719209621 0.4808427525309753 0.7999999999999989
      vertex 79.16188914296288 0.16498856501142 0.7999999999999989
    endloop
  endfacet
  facet normal 0.9807852804032327 -0.1950903220161172 0
    outer loop
      vertex 79.12907087690589 0 0
      vertex 79.16188914296288 0.16498856501142 0.7999999999999989
      vertex 79.12907087690589 0 0.7999999999999989
    endloop
  endfacet
  facet normal 0.6593458151000835 -0.7518398074789646 0
    outer loop
      vertex 80.07265835602776 1.5280510177426478 0
      vertex 80.07265835602776 1.5280510177426478 0.7999999999999989
      vertex 79.82187770797431 1.3081222920256934 0.7999999999999989
    endloop
  endfacet
  facet normal 0.5555702330195968 -0.8314696123025488 0
    outer loop
      vertex 80.35 1.7133647796503126 0
      vertex 80.35 1.7133647796503126 0.7999999999999989
      vertex 80.07265835602776 1.5280510177426478 0.7999999999999989
    endloop
  endfacet
  facet normal 0.7518398074789739 -0.6593458151000731 0
    outer loop
      vertex 79.82187770797431 1.3081222920256934 0
      vertex 79.82187770797431 1.3081222920256934 0.7999999999999989
      vertex 79.60194898225735 1.0573416439722365 0.7999999999999989
    endloop
  endfacet
  facet normal 0.1950903220161197 -0.980785280403232 0
    outer loop
      vertex 81.29215820983887 2.0331843965032093 0
      vertex 81.29215820983887 2.0331843965032093 0.7999999999999989
      vertex 80.96501143498857 1.968110857037118 0.7999999999999989
    endloop
  endfacet
  facet normal 0.06540312923014385 -0.9978589232386035 0
    outer loop
      vertex 81.625 2.0549999999999926 0
      vertex 81.625 2.0549999999999926 0.7999999999999989
      vertex 81.29215820983887 2.0331843965032093 0.7999999999999989
    endloop
  endfacet
  facet normal -0.06540312923014385 -0.9978589232386035 0
    outer loop
      vertex 81.95784179016113 2.0331843965032093 0
      vertex 81.95784179016113 2.0331843965032093 0.7999999999999989
      vertex 81.625 2.0549999999999926 0.7999999999999989
    endloop
  endfacet
  facet normal -0.1950903220161197 -0.980785280403232 0
    outer loop
      vertex 82.28498856501143 1.968110857037118 0
      vertex 82.28498856501143 1.968110857037118 0.7999999999999989
      vertex 81.95784179016113 2.0331843965032093 0.7999999999999989
    endloop
  endfacet
  facet normal -0.32143946530316736 -0.9469301294951039 0
    outer loop
      vertex 82.60084275253098 1.8608928079037739 0
      vertex 82.60084275253098 1.8608928079037739 0.7999999999999989
      vertex 82.28498856501143 1.968110857037118 0.7999999999999989
    endloop
  endfacet
  facet normal -0.4422886902189921 -0.8968727415326928 0
    outer loop
      vertex 82.9 1.7133647796503126 0
      vertex 82.9 1.7133647796503126 0.7999999999999989
      vertex 82.60084275253098 1.8608928079037739 0.7999999999999989
    endloop
  endfacet
  facet normal -0.5555702330195968 -0.8314696123025488 0
    outer loop
      vertex 83.17734164397224 1.5280510177426478 0
      vertex 83.17734164397224 1.5280510177426478 0.7999999999999989
      vertex 82.9 1.7133647796503126 0.7999999999999989
    endloop
  endfacet
  facet normal -0.6593458151000835 -0.7518398074789646 0
    outer loop
      vertex 83.42812229202569 1.3081222920256934 0
      vertex 83.42812229202569 1.3081222920256934 0.7999999999999989
      vertex 83.17734164397224 1.5280510177426478 0.7999999999999989
    endloop
  endfacet
  facet normal -0.7518398074789739 -0.6593458151000731 0
    outer loop
      vertex 83.64805101774265 1.0573416439722365 0
      vertex 83.64805101774265 1.0573416439722365 0.7999999999999989
      vertex 83.42812229202569 1.3081222920256934 0.7999999999999989
    endloop
  endfacet
  facet normal -0.8314696123025357 -0.5555702330196165 0
    outer loop
      vertex 83.83336477965032 0.779999999999994 0
      vertex 83.83336477965032 0.779999999999994 0.7999999999999989
      vertex 83.64805101774265 1.0573416439722365 0.7999999999999989
    endloop
  endfacet
  facet normal -0.8968727415326887 -0.4422886902190006 0
    outer loop
      vertex 83.98089280790379 0.4808427525309753 0
      vertex 83.98089280790379 0.4808427525309753 0.7999999999999989
      vertex 83.83336477965032 0.779999999999994 0.7999999999999989
    endloop
  endfacet
  facet normal -0.9469301294951122 -0.32143946530314166 0
    outer loop
      vertex 84.08811085703712 0.16498856501142 0
      vertex 84.08811085703712 0.16498856501142 0.7999999999999989
      vertex 83.98089280790379 0.4808427525309753 0.7999999999999989
    endloop
  endfacet
  facet normal -0.9807852804032327 -0.1950903220161172 0
    outer loop
      vertex 84.08811085703712 0.16498856501142 0
      vertex 84.12092912309411 0 0.7999999999999989
      vertex 84.08811085703712 0.16498856501142 0.7999999999999989
    endloop
  endfacet
  facet normal 0 0 -1
    outer loop
      vertex 0 56.41 0
      vertex 2.369999999999999 54.04 0
      vertex 0 17.705 0
    endloop
  endfacet
  facet normal 0 0 -1
    outer loop
      vertex 0 56.41 0
      vertex 53.14896211364385 56.41 0
      vertex 2.369999999999999 54.04 0
    endloop
  endfacet
  facet normal -1 0 0
    outer loop
      vertex 0 56.41 0
      vertex 0 17.705 0
      vertex 0 56.41 0.7999999999999989
    endloop
  endfacet
  facet normal 0 0 -1
    outer loop
      vertex 2.369999999999999 54.04 0
      vertex 2.369999999999999 17.705 0
      vertex 0 17.705 0
    endloop
  endfacet
  facet normal 0 0 -1
    outer loop
      vertex 2.369999999999999 54.04 0
      vertex 53.14896211364385 56.41 0
      vertex 53.16188914296288 56.34501143498857 0
    endloop
  endfacet
  facet normal 0 0 -1
    outer loop
      vertex 2.369999999999999 54.04 0
      vertex 53.16188914296288 56.34501143498857 0
      vertex 53.269107192096214 56.029157247469016 0
    endloop
  endfacet
  facet normal 0 0 -1
    outer loop
      vertex 2.369999999999999 54.04 0
      vertex 53.269107192096214 56.029157247469016 0
      vertex 53.416635220349676 55.73 0
    endloop
  endfacet
  facet normal 0 0 -1
    outer loop
      vertex 2.369999999999999 54.04 0
      vertex 53.416635220349676 55.73 0
      vertex 53.601948982257355 55.45265835602776 0
    endloop
  endfacet
  facet normal 0 0 -1
    outer loop
      vertex 2.369999999999999 54.04 0
      vertex 53.601948982257355 55.45265835602776 0
      vertex 53.82187770797431 55.201877707974305 0
    endloop
  endfacet
  facet normal 0 0 -1
    outer loop
      vertex 2.369999999999999 54.04 0
      vertex 53.82187770797431 55.201877707974305 0
      vertex 54.07265835602776 54.98194898225735 0
    endloop
  endfacet
  facet normal 0 0 -1
    outer loop
      vertex 2.369999999999999 54.04 0
      vertex 54.07265835602776 54.98194898225735 0
      vertex 54.349999999999994 54.79663522034968 0
    endloop
  endfacet
  facet normal 0 0 -1
    outer loop
      vertex 2.369999999999999 54.04 0
      vertex 54.349999999999994 54.79663522034968 0
      vertex 54.64915724746902 54.64910719209622 0
    endloop
  endfacet
  facet normal 0 0 -1
    outer loop
      vertex 2.369999999999999 54.04 0
      vertex 54.64915724746902 54.64910719209622 0
      vertex 54.96501143498857 54.54188914296287 0
    endloop
  endfacet
  facet normal 0 0 -1
    outer loop
      vertex 2.369999999999999 54.04 0
      vertex 54.96501143498857 54.54188914296287 0
      vertex 55.292158209838874 54.47681560349678 0
    endloop
  endfacet
  facet normal 0 0 -1
    outer loop
      vertex 2.369999999999999 54.04 0
      vertex 55.292158209838874 54.47681560349678 0
      vertex 55.625 54.455 0
    endloop
  endfacet
  facet normal 0 1 0
    outer loop
      vertex 0 56.41 0
      vertex 53.14896211364385 56.41 0.7999999999999989
      vertex 53.14896211364385 56.41 0
    endloop
  endfacet
  facet normal 0 1 0
    outer loop
      vertex 0 56.41 0
      vertex 0 56.41 0.7999999999999989
      vertex 53.14896211364385 56.41 0.7999999999999989
    endloop
  endfacet
  facet normal 0 0 1
    outer loop
      vertex 0 56.41 0.7999999999999989
      vertex 2.369999999999999 17.705 0.7999999999999989
      vertex 2.369999999999999 54.04 0.7999999999999989
    endloop
  endfacet
  facet normal 0 0 1
    outer loop
      vertex 0 56.41 0.7999999999999989
      vertex 2.369999999999999 54.04 0.7999999999999989
      vertex 53.16188914296288 56.34501143498857 0.7999999999999989
    endloop
  endfacet
  facet normal -1 0 0
    outer loop
      vertex 0 56.41 0.7999999999999989
      vertex 0 17.705 0
      vertex 0 17.705 0.7999999999999989
    endloop
  endfacet
  facet normal 0 0 1
    outer loop
      vertex 0 56.41 0.7999999999999989
      vertex 0 17.705 0.7999999999999989
      vertex 2.369999999999999 17.705 0.7999999999999989
    endloop
  endfacet
  facet normal 0 0 1
    outer loop
      vertex 0 56.41 0.7999999999999989
      vertex 53.16188914296288 56.34501143498857 0.7999999999999989
      vertex 53.14896211364385 56.41 0.7999999999999989
    endloop
  endfacet
  facet normal 0 0 1
    outer loop
      vertex 2.369999999999999 54.04 0.7999999999999989
      vertex 53.269107192096214 56.029157247469016 0.7999999999999989
      vertex 53.16188914296288 56.34501143498857 0.7999999999999989
    endloop
  endfacet
  facet normal 0 0 1
    outer loop
      vertex 2.369999999999999 54.04 0.7999999999999989
      vertex 53.416635220349676 55.73 0.7999999999999989
      vertex 53.269107192096214 56.029157247469016 0.7999999999999989
    endloop
  endfacet
  facet normal 0 0 1
    outer loop
      vertex 2.369999999999999 54.04 0.7999999999999989
      vertex 53.601948982257355 55.45265835602776 0.7999999999999989
      vertex 53.416635220349676 55.73 0.7999999999999989
    endloop
  endfacet
  facet normal 0 0 1
    outer loop
      vertex 2.369999999999999 54.04 0.7999999999999989
      vertex 53.82187770797431 55.201877707974305 0.7999999999999989
      vertex 53.601948982257355 55.45265835602776 0.7999999999999989
    endloop
  endfacet
  facet normal 0 0 1
    outer loop
      vertex 2.369999999999999 54.04 0.7999999999999989
      vertex 54.07265835602776 54.98194898225735 0.7999999999999989
      vertex 53.82187770797431 55.201877707974305 0.7999999999999989
    endloop
  endfacet
  facet normal 0 0 1
    outer loop
      vertex 2.369999999999999 54.04 0.7999999999999989
      vertex 54.349999999999994 54.79663522034968 0.7999999999999989
      vertex 54.07265835602776 54.98194898225735 0.7999999999999989
    endloop
  endfacet
  facet normal 0 0 1
    outer loop
      vertex 2.369999999999999 54.04 0.7999999999999989
      vertex 54.64915724746902 54.64910719209622 0.7999999999999989
      vertex 54.349999999999994 54.79663522034968 0.7999999999999989
    endloop
  endfacet
  facet normal 0 0 1
    outer loop
      vertex 2.369999999999999 54.04 0.7999999999999989
      vertex 54.96501143498857 54.54188914296287 0.7999999999999989
      vertex 54.64915724746902 54.64910719209622 0.7999999999999989
    endloop
  endfacet
  facet normal 0 0 1
    outer loop
      vertex 2.369999999999999 54.04 0.7999999999999989
      vertex 55.292158209838874 54.47681560349678 0.7999999999999989
      vertex 54.96501143498857 54.54188914296287 0.7999999999999989
    endloop
  endfacet
  facet normal 0 0 1
    outer loop
      vertex 2.369999999999999 54.04 0.7999999999999989
      vertex 55.625 54.455 0.7999999999999989
      vertex 55.292158209838874 54.47681560349678 0.7999999999999989
    endloop
  endfacet
  facet normal 0 0 -1
    outer loop
      vertex 2.369999999999999 54.04 0
      vertex 55.625 54.455 0
      vertex 78.88000000000001 54.04 0
    endloop
  endfacet
  facet normal 0 0 -1
    outer loop
      vertex 55.625 54.455 0
      vertex 55.957841790161126 54.47681560349678 0
      vertex 78.88000000000001 54.04 0
    endloop
  endfacet
  facet normal 0 0 -1
    outer loop
      vertex 55.957841790161126 54.47681560349678 0
      vertex 56.28498856501143 54.54188914296287 0
      vertex 78.88000000000001 54.04 0
    endloop
  endfacet
  facet normal 0 0 -1
    outer loop
      vertex 56.60084275253098 54.64910719209622 0
      vertex 84.60194898225735 55.45265835602776 0
      vertex 56.28498856501143 54.54188914296287 0
    endloop
  endfacet
  facet normal 0 0 -1
    outer loop
      vertex 56.60084275253098 54.64910719209622 0
      vertex 56.900000000000006 54.79663522034968 0
      vertex 84.60194898225735 55.45265835602776 0
    endloop
  endfacet
  facet normal 0 0 -1
    outer loop
      vertex 58.10103788635615 56.41 0
      vertex 84.14896211364385 56.41 0
      vertex 58.08811085703712 56.34501143498857 0
    endloop
  endfacet
  facet normal 0 0 -1
    outer loop
      vertex 57.980892807903786 56.029157247469016 0
      vertex 58.08811085703712 56.34501143498857 0
      vertex 84.16188914296288 56.34501143498857 0
    endloop
  endfacet
  facet normal 0 0 -1
    outer loop
      vertex 57.980892807903786 56.029157247469016 0
      vertex 84.16188914296288 56.34501143498857 0
      vertex 57.833364779650324 55.73 0
    endloop
  endfacet
  facet normal 0 0 -1
    outer loop
      vertex 57.833364779650324 55.73 0
      vertex 84.16188914296288 56.34501143498857 0
      vertex 57.648051017742645 55.45265835602776 0
    endloop
  endfacet
  facet normal 0 0 -1
    outer loop
      vertex 57.17734164397224 54.98194898225735 0
      vertex 57.42812229202569 55.201877707974305 0
      vertex 84.60194898225735 55.45265835602776 0
    endloop
  endfacet
  facet normal 0 0 -1
    outer loop
      vertex 57.648051017742645 55.45265835602776 0
      vertex 84.60194898225735 55.45265835602776 0
      vertex 57.42812229202569 55.201877707974305 0
    endloop
  endfacet
  facet normal 0 0 -1
    outer loop
      vertex 56.900000000000006 54.79663522034968 0
      vertex 57.17734164397224 54.98194898225735 0
      vertex 84.60194898225735 55.45265835602776 0
    endloop
  endfacet
  facet normal 0 0 -1
    outer loop
      vertex 56.28498856501143 54.54188914296287 0
      vertex 84.60194898225735 55.45265835602776 0
      vertex 78.88000000000001 54.04 0
    endloop
  endfacet
  facet normal 0 0 -1
    outer loop
      vertex 58.08811085703712 56.34501143498857 0
      vertex 84.14896211364385 56.41 0
      vertex 84.16188914296288 56.34501143498857 0
    endloop
  endfacet
  facet normal 0 0 -1
    outer loop
      vertex 57.648051017742645 55.45265835602776 0
      vertex 84.16188914296288 56.34501143498857 0
      vertex 84.26910719209621 56.029157247469016 0
    endloop
  endfacet
  facet normal 0 0 -1
    outer loop
      vertex 57.648051017742645 55.45265835602776 0
      vertex 84.26910719209621 56.029157247469016 0
      vertex 84.41663522034968 55.73 0
    endloop
  endfacet
  facet normal 0 0 -1
    outer loop
      vertex 57.648051017742645 55.45265835602776 0
      vertex 84.41663522034968 55.73 0
      vertex 84.60194898225735 55.45265835602776 0
    endloop
  endfacet
  facet normal 0 0 -1
    outer loop
      vertex 78.88000000000001 54.04 0
      vertex 84.60194898225735 55.45265835602776 0
      vertex 81.425 35.055 0
    endloop
  endfacet
  facet normal 0 0 -1
    outer loop
      vertex 84.60194898225735 55.45265835602776 0
      vertex 84.82187770797431 55.201877707974305 0
      vertex 81.425 35.055 0
    endloop
  endfacet
  facet normal 0 0 -1
    outer loop
      vertex 84.82187770797431 55.201877707974305 0
      vertex 85.07265835602776 54.98194898225735 0
      vertex 81.425 35.055 0
    endloop
  endfacet
  facet normal 0 0 -1
    outer loop
      vertex 85.07265835602776 54.98194898225735 0
      vertex 85.35 54.79663522034968 0
      vertex 81.425 35.055 0
    endloop
  endfacet
  facet normal 0 0 -1
    outer loop
      vertex 85.35 54.79663522034968 0
      vertex 85.64915724746902 54.64910719209622 0
      vertex 81.425 35.055 0
    endloop
  endfacet
  facet normal 0 0 -1
    outer loop
      vertex 85.64915724746902 54.64910719209622 0
      vertex 85.96501143498857 54.54188914296287 0
      vertex 81.425 35.055 0
    endloop
  endfacet
  facet normal 0 0 -1
    outer loop
      vertex 85.96501143498857 54.54188914296287 0
      vertex 86.29215820983887 54.47681560349678 0
      vertex 86.425 35.055 0
    endloop
  endfacet
  facet normal 0 0 -1
    outer loop
      vertex 86.29215820983887 54.47681560349678 0
      vertex 86.425 54.46810869256305 0
      vertex 86.425 35.055 0
    endloop
  endfacet
  facet normal 0 1 0
    outer loop
      vertex 58.10103788635615 56.41 0
      vertex 84.14896211364385 56.41 0.7999999999999989
      vertex 84.14896211364385 56.41 0
    endloop
  endfacet
  facet normal 0 0 -1
    outer loop
      vertex 78.88000000000001 54.04 0
      vertex 81.425 35.055 0
      vertex 81.425 21.355000000000004 0
    endloop
  endfacet
  facet normal 0 0 -1
    outer loop
      vertex 85.96501143498857 54.54188914296287 0
      vertex 86.425 35.055 0
      vertex 81.425 35.055 0
    endloop
  endfacet
  facet normal 1 0 0
    outer loop
      vertex 86.425 54.46810869256305 0
      vertex 86.425 35.055 0.7999999999999989
      vertex 86.425 35.055 0
    endloop
  endfacet
  facet normal 0 0 1
    outer loop
      vertex 2.369999999999999 54.04 0.7999999999999989
      vertex 78.88000000000001 54.04 0.7999999999999989
      vertex 55.625 54.455 0.7999999999999989
    endloop
  endfacet
  facet normal 0 0 1
    outer loop
      vertex 57.833364779650324 55.73 0.7999999999999989
      vertex 57.648051017742645 55.45265835602776 0.7999999999999989
      vertex 78.88000000000001 54.04 0.7999999999999989
    endloop
  endfacet
  facet normal 0 0 1
    outer loop
      vertex 57.648051017742645 55.45265835602776 0.7999999999999989
      vertex 57.42812229202569 55.201877707974305 0.7999999999999989
      vertex 78.88000000000001 54.04 0.7999999999999989
    endloop
  endfacet
  facet normal 0 0 1
    outer loop
      vertex 57.17734164397224 54.98194898225735 0.7999999999999989
      vertex 78.88000000000001 54.04 0.7999999999999989
      vertex 57.42812229202569 55.201877707974305 0.7999999999999989
    endloop
  endfacet
  facet normal 0 0 1
    outer loop
      vertex 55.625 54.455 0.7999999999999989
      vertex 78.88000000000001 54.04 0.7999999999999989
      vertex 55.957841790161126 54.47681560349678 0.7999999999999989
    endloop
  endfacet
  facet normal 0 0 1
    outer loop
      vertex 55.957841790161126 54.47681560349678 0.7999999999999989
      vertex 78.88000000000001 54.04 0.7999999999999989
      vertex 56.28498856501143 54.54188914296287 0.7999999999999989
    endloop
  endfacet
  facet normal 0 0 1
    outer loop
      vertex 56.60084275253098 54.64910719209622 0.7999999999999989
      vertex 78.88000000000001 54.04 0.7999999999999989
      vertex 56.900000000000006 54.79663522034968 0.7999999999999989
    endloop
  endfacet
  facet normal 0 0 1
    outer loop
      vertex 56.60084275253098 54.64910719209622 0.7999999999999989
      vertex 56.28498856501143 54.54188914296287 0.7999999999999989
      vertex 78.88000000000001 54.04 0.7999999999999989
    endloop
  endfacet
  facet normal 0 0 1
    outer loop
      vertex 56.900000000000006 54.79663522034968 0.7999999999999989
      vertex 78.88000000000001 54.04 0.7999999999999989
      vertex 57.17734164397224 54.98194898225735 0.7999999999999989
    endloop
  endfacet
  facet normal 0 1 0
    outer loop
      vertex 58.10103788635615 56.41 0
      vertex 58.10103788635615 56.41 0.7999999999999989
      vertex 84.14896211364385 56.41 0.7999999999999989
    endloop
  endfacet
  facet normal 1 0 0
    outer loop
      vertex 86.425 54.46810869256305 0
      vertex 86.425 54.46810869256305 0.7999999999999989
      vertex 86.425 35.055 0.7999999999999989
    endloop
  endfacet
  facet normal 0 0 1
    outer loop
      vertex 58.10103788635615 56.41 0.7999999999999989
      vertex 58.08811085703712 56.34501143498857 0.7999999999999989
      vertex 78.88000000000001 54.04 0.7999999999999989
    endloop
  endfacet
  facet normal 0 0 1
    outer loop
      vertex 57.980892807903786 56.029157247469016 0.7999999999999989
      vertex 78.88000000000001 54.04 0.7999999999999989
      vertex 58.08811085703712 56.34501143498857 0.7999999999999989
    endloop
  endfacet
  facet normal 0 0 1
    outer loop
      vertex 57.980892807903786 56.029157247469016 0.7999999999999989
      vertex 57.833364779650324 55.73 0.7999999999999989
      vertex 78.88000000000001 54.04 0.7999999999999989
    endloop
  endfacet
  facet normal 0 0 1
    outer loop
      vertex 58.10103788635615 56.41 0.7999999999999989
      vertex 78.88000000000001 54.04 0.7999999999999989
      vertex 84.14896211364385 56.41 0.7999999999999989
    endloop
  endfacet
  facet normal 0 0 1
    outer loop
      vertex 78.88000000000001 54.04 0.7999999999999989
      vertex 84.16188914296288 56.34501143498857 0.7999999999999989
      vertex 84.14896211364385 56.41 0.7999999999999989
    endloop
  endfacet
  facet normal 0 0 1
    outer loop
      vertex 78.88000000000001 54.04 0.7999999999999989
      vertex 84.26910719209621 56.029157247469016 0.7999999999999989
      vertex 84.16188914296288 56.34501143498857 0.7999999999999989
    endloop
  endfacet
  facet normal 0 0 1
    outer loop
      vertex 78.88000000000001 54.04 0.7999999999999989
      vertex 84.41663522034968 55.73 0.7999999999999989
      vertex 84.26910719209621 56.029157247469016 0.7999999999999989
    endloop
  endfacet
  facet normal 0 0 1
    outer loop
      vertex 78.88000000000001 54.04 0.7999999999999989
      vertex 84.60194898225735 55.45265835602776 0.7999999999999989
      vertex 84.41663522034968 55.73 0.7999999999999989
    endloop
  endfacet
  facet normal 0 0 1
    outer loop
      vertex 78.88000000000001 54.04 0.7999999999999989
      vertex 84.82187770797431 55.201877707974305 0.7999999999999989
      vertex 84.60194898225735 55.45265835602776 0.7999999999999989
    endloop
  endfacet
  facet normal 0 0 1
    outer loop
      vertex 78.88000000000001 54.04 0.7999999999999989
      vertex 85.07265835602776 54.98194898225735 0.7999999999999989
      vertex 84.82187770797431 55.201877707974305 0.7999999999999989
    endloop
  endfacet
  facet normal 0 0 1
    outer loop
      vertex 78.88000000000001 54.04 0.7999999999999989
      vertex 85.35 54.79663522034968 0.7999999999999989
      vertex 85.07265835602776 54.98194898225735 0.7999999999999989
    endloop
  endfacet
  facet normal 0 0 1
    outer loop
      vertex 78.88000000000001 54.04 0.7999999999999989
      vertex 85.64915724746902 54.64910719209622 0.7999999999999989
      vertex 85.35 54.79663522034968 0.7999999999999989
    endloop
  endfacet
  facet normal 0 0 1
    outer loop
      vertex 78.88000000000001 54.04 0.7999999999999989
      vertex 86.425 35.055 0.7999999999999989
      vertex 85.64915724746902 54.64910719209622 0.7999999999999989
    endloop
  endfacet
  facet normal 0 0 1
    outer loop
      vertex 85.64915724746902 54.64910719209622 0.7999999999999989
      vertex 86.425 35.055 0.7999999999999989
      vertex 85.96501143498857 54.54188914296287 0.7999999999999989
    endloop
  endfacet
  facet normal 0 0 1
    outer loop
      vertex 85.96501143498857 54.54188914296287 0.7999999999999989
      vertex 86.425 35.055 0.7999999999999989
      vertex 86.29215820983887 54.47681560349678 0.7999999999999989
    endloop
  endfacet
  facet normal 0 0 1
    outer loop
      vertex 86.29215820983887 54.47681560349678 0.7999999999999989
      vertex 86.425 35.055 0.7999999999999989
      vertex 86.425 54.46810869256305 0.7999999999999989
    endloop
  endfacet
  facet normal 0 0 1
    outer loop
      vertex 78.88000000000001 54.04 0.7999999999999989
      vertex 81.425 35.055 0.7999999999999989
      vertex 86.425 35.055 0.7999999999999989
    endloop
  endfacet
  facet normal 0 0 1
    outer loop
      vertex 78.88000000000001 54.04 0.7999999999999989
      vertex 78.88000000000001 2.8699999999999974 0.7999999999999989
      vertex 81.425 35.055 0.7999999999999989
    endloop
  endfacet
  facet normal 0 0 -1
    outer loop
      vertex 78.88000000000001 54.04 0
      vertex 81.425 21.355000000000004 0
      vertex 78.88000000000001 4.9246566387040716 0
    endloop
  endfacet
  facet normal 0 0 -1
    outer loop
      vertex 81.425 21.355000000000004 0
      vertex 86.425 21.355000000000004 0
      vertex 78.88000000000001 4.9246566387040716 0
    endloop
  endfacet
  facet normal 0 0 -1
    outer loop
      vertex 69.825 2.8699999999999974 0
      vertex 79.12907087690589 0 0
      vertex 69.825 0 0
    endloop
  endfacet
  facet normal 0 0 -1
    outer loop
      vertex 86.425 21.355000000000004 0
      vertex 86.425 0 0
      vertex 78.88000000000001 4.9246566387040716 0
    endloop
  endfacet
  facet normal 0 0 -1
    outer loop
      vertex 69.825 2.8699999999999974 0
      vertex 78.88000000000001 2.8699999999999974 0
      vertex 79.60194898225735 1.0573416439722365 0
    endloop
  endfacet
  facet normal 0 0 -1
    outer loop
      vertex 69.825 2.8699999999999974 0
      vertex 79.60194898225735 1.0573416439722365 0
      vertex 79.41663522034968 0.779999999999994 0
    endloop
  endfacet
  facet normal 0 0 -1
    outer loop
      vertex 69.825 2.8699999999999974 0
      vertex 79.41663522034968 0.779999999999994 0
      vertex 79.26910719209621 0.4808427525309753 0
    endloop
  endfacet
  facet normal 0 0 -1
    outer loop
      vertex 69.825 2.8699999999999974 0
      vertex 79.26910719209621 0.4808427525309753 0
      vertex 79.16188914296288 0.16498856501142 0
    endloop
  endfacet
  facet normal 0 0 -1
    outer loop
      vertex 69.825 2.8699999999999974 0
      vertex 79.16188914296288 0.16498856501142 0
      vertex 79.12907087690589 0 0
    endloop
  endfacet
  facet normal 0 0 -1
    outer loop
      vertex 78.88000000000001 4.9246566387040716 0
      vertex 80.64915724746902 1.8608928079037739 0
      vertex 78.88000000000001 2.8699999999999974 0
    endloop
  endfacet
  facet normal 0 0 -1
    outer loop
      vertex 78.88000000000001 2.8699999999999974 0
      vertex 80.07265835602776 1.5280510177426478 0
      vertex 79.82187770797431 1.3081222920256934 0
    endloop
  endfacet
  facet normal 0 0 -1
    outer loop
      vertex 78.88000000000001 4.9246566387040716 0
      vertex 80.96501143498857 1.968110857037118 0
      vertex 80.64915724746902 1.8608928079037739 0
    endloop
  endfacet
  facet normal 0 0 -1
    outer loop
      vertex 78.88000000000001 4.9246566387040716 0
      vertex 81.29215820983887 2.0331843965032093 0
      vertex 80.96501143498857 1.968110857037118 0
    endloop
  endfacet
  facet normal 0 0 -1
    outer loop
      vertex 78.88000000000001 4.9246566387040716 0
      vertex 81.625 2.0549999999999926 0
      vertex 81.29215820983887 2.0331843965032093 0
    endloop
  endfacet
  facet normal 0 0 -1
    outer loop
      vertex 78.88000000000001 4.9246566387040716 0
      vertex 81.95784179016113 2.0331843965032093 0
      vertex 81.625 2.0549999999999926 0
    endloop
  endfacet
  facet normal 0 0 -1
    outer loop
      vertex 78.88000000000001 2.8699999999999974 0
      vertex 80.35 1.7133647796503126 0
      vertex 80.07265835602776 1.5280510177426478 0
    endloop
  endfacet
  facet normal 0 0 -1
    outer loop
      vertex 78.88000000000001 2.8699999999999974 0
      vertex 80.64915724746902 1.8608928079037739 0
      vertex 80.35 1.7133647796503126 0
    endloop
  endfacet
  facet normal 0 0 -1
    outer loop
      vertex 78.88000000000001 2.8699999999999974 0
      vertex 79.82187770797431 1.3081222920256934 0
      vertex 79.60194898225735 1.0573416439722365 0
    endloop
  endfacet
  facet normal 0 0 -1
    outer loop
      vertex 78.88000000000001 4.9246566387040716 0
      vertex 82.28498856501143 1.968110857037118 0
      vertex 81.95784179016113 2.0331843965032093 0
    endloop
  endfacet
  facet normal 0 0 -1
    outer loop
      vertex 78.88000000000001 4.9246566387040716 0
      vertex 82.60084275253098 1.8608928079037739 0
      vertex 82.28498856501143 1.968110857037118 0
    endloop
  endfacet
  facet normal 0 0 -1
    outer loop
      vertex 78.88000000000001 4.9246566387040716 0
      vertex 86.425 0 0
      vertex 82.60084275253098 1.8608928079037739 0
    endloop
  endfacet
  facet normal 0 0 -1
    outer loop
      vertex 82.60084275253098 1.8608928079037739 0
      vertex 86.425 0 0
      vertex 82.9 1.7133647796503126 0
    endloop
  endfacet
  facet normal 0 0 -1
    outer loop
      vertex 82.9 1.7133647796503126 0
      vertex 86.425 0 0
      vertex 83.17734164397224 1.5280510177426478 0
    endloop
  endfacet
  facet normal 0 0 -1
    outer loop
      vertex 83.17734164397224 1.5280510177426478 0
      vertex 86.425 0 0
      vertex 83.42812229202569 1.3081222920256934 0
    endloop
  endfacet
  facet normal 0 0 -1
    outer loop
      vertex 83.42812229202569 1.3081222920256934 0
      vertex 86.425 0 0
      vertex 83.64805101774265 1.0573416439722365 0
    endloop
  endfacet
  facet normal 0 0 -1
    outer loop
      vertex 83.64805101774265 1.0573416439722365 0
      vertex 86.425 0 0
      vertex 83.83336477965032 0.779999999999994 0
    endloop
  endfacet
  facet normal 0 0 -1
    outer loop
      vertex 83.83336477965032 0.779999999999994 0
      vertex 86.425 0 0
      vertex 83.98089280790379 0.4808427525309753 0
    endloop
  endfacet
  facet normal 0 0 -1
    outer loop
      vertex 83.98089280790379 0.4808427525309753 0
      vertex 86.425 0 0
      vertex 84.08811085703712 0.16498856501142 0
    endloop
  endfacet
  facet normal 0 0 -1
    outer loop
      vertex 84.08811085703712 0.16498856501142 0
      vertex 86.425 0 0
      vertex 84.12092912309411 0 0
    endloop
  endfacet
  facet normal 0 -1 0
    outer loop
      vertex 69.825 0 0
      vertex 79.12907087690589 0 0
      vertex 69.825 0 0.7999999999999989
    endloop
  endfacet
  facet normal 1 0 0
    outer loop
      vertex 86.425 21.355000000000004 0
      vertex 86.425 0 0.7999999999999989
      vertex 86.425 0 0
    endloop
  endfacet
  facet normal 0 -1 0
    outer loop
      vertex 84.12092912309411 0 0
      vertex 86.425 0 0
      vertex 84.12092912309411 0 0.7999999999999989
    endloop
  endfacet
  facet normal 1 0 0
    outer loop
      vertex 86.425 21.355000000000004 0
      vertex 86.425 21.355000000000004 0.7999999999999989
      vertex 86.425 0 0.7999999999999989
    endloop
  endfacet
  facet normal 0 0 1
    outer loop
      vertex 81.425 35.055 0.7999999999999989
      vertex 78.88000000000001 2.8699999999999974 0.7999999999999989
      vertex 81.425 21.355000000000004 0.7999999999999989
    endloop
  endfacet
  facet normal 0 0 1
    outer loop
      vertex 81.425 21.355000000000004 0.7999999999999989
      vertex 81.625 2.0549999999999926 0.7999999999999989
      vertex 86.425 21.355000000000004 0.7999999999999989
    endloop
  endfacet
  facet normal 0 -1 0
    outer loop
      vertex 79.12907087690589 0 0
      vertex 79.12907087690589 0 0.7999999999999989
      vertex 69.825 0 0.7999999999999989
    endloop
  endfacet
  facet normal 0 -1 0
    outer loop
      vertex 86.425 0 0
      vertex 86.425 0 0.7999999999999989
      vertex 84.12092912309411 0 0.7999999999999989
    endloop
  endfacet
  facet normal 0 0 1
    outer loop
      vertex 69.825 2.8699999999999974 0.7999999999999989
      vertex 69.825 0 0.7999999999999989
      vertex 78.88000000000001 2.8699999999999974 0.7999999999999989
    endloop
  endfacet
  facet normal 0 0 1
    outer loop
      vertex 81.425 21.355000000000004 0.7999999999999989
      vertex 78.88000000000001 2.8699999999999974 0.7999999999999989
      vertex 80.35 1.7133647796503126 0.7999999999999989
    endloop
  endfacet
  facet normal 0 0 1
    outer loop
      vertex 81.425 21.355000000000004 0.7999999999999989
      vertex 80.64915724746902 1.8608928079037739 0.7999999999999989
      vertex 80.96501143498857 1.968110857037118 0.7999999999999989
    endloop
  endfacet
  facet normal 0 0 1
    outer loop
      vertex 81.425 21.355000000000004 0.7999999999999989
      vertex 80.35 1.7133647796503126 0.7999999999999989
      vertex 80.64915724746902 1.8608928079037739 0.7999999999999989
    endloop
  endfacet
  facet normal 0 0 1
    outer loop
      vertex 81.425 21.355000000000004 0.7999999999999989
      vertex 80.96501143498857 1.968110857037118 0.7999999999999989
      vertex 81.29215820983887 2.0331843965032093 0.7999999999999989
    endloop
  endfacet
  facet normal 0 0 1
    outer loop
      vertex 81.425 21.355000000000004 0.7999999999999989
      vertex 81.29215820983887 2.0331843965032093 0.7999999999999989
      vertex 81.625 2.0549999999999926 0.7999999999999989
    endloop
  endfacet
  facet normal 0 0 1
    outer loop
      vertex 86.425 21.355000000000004 0.7999999999999989
      vertex 81.625 2.0549999999999926 0.7999999999999989
      vertex 81.95784179016113 2.0331843965032093 0.7999999999999989
    endloop
  endfacet
  facet normal 0 0 1
    outer loop
      vertex 86.425 21.355000000000004 0.7999999999999989
      vertex 81.95784179016113 2.0331843965032093 0.7999999999999989
      vertex 82.28498856501143 1.968110857037118 0.7999999999999989
    endloop
  endfacet
  facet normal 0 0 1
    outer loop
      vertex 86.425 21.355000000000004 0.7999999999999989
      vertex 82.28498856501143 1.968110857037118 0.7999999999999989
      vertex 82.60084275253098 1.8608928079037739 0.7999999999999989
    endloop
  endfacet
  facet normal 0 0 1
    outer loop
      vertex 86.425 21.355000000000004 0.7999999999999989
      vertex 82.60084275253098 1.8608928079037739 0.7999999999999989
      vertex 82.9 1.7133647796503126 0.7999999999999989
    endloop
  endfacet
  facet normal 0 0 1
    outer loop
      vertex 86.425 21.355000000000004 0.7999999999999989
      vertex 82.9 1.7133647796503126 0.7999999999999989
      vertex 83.17734164397224 1.5280510177426478 0.7999999999999989
    endloop
  endfacet
  facet normal 0 0 1
    outer loop
      vertex 86.425 21.355000000000004 0.7999999999999989
      vertex 83.17734164397224 1.5280510177426478 0.7999999999999989
      vertex 83.42812229202569 1.3081222920256934 0.7999999999999989
    endloop
  endfacet
  facet normal 0 0 1
    outer loop
      vertex 86.425 21.355000000000004 0.7999999999999989
      vertex 83.42812229202569 1.3081222920256934 0.7999999999999989
      vertex 83.64805101774265 1.0573416439722365 0.7999999999999989
    endloop
  endfacet
  facet normal 0 0 1
    outer loop
      vertex 86.425 21.355000000000004 0.7999999999999989
      vertex 83.64805101774265 1.0573416439722365 0.7999999999999989
      vertex 83.83336477965032 0.779999999999994 0.7999999999999989
    endloop
  endfacet
  facet normal 0 0 1
    outer loop
      vertex 86.425 21.355000000000004 0.7999999999999989
      vertex 83.83336477965032 0.779999999999994 0.7999999999999989
      vertex 83.98089280790379 0.4808427525309753 0.7999999999999989
    endloop
  endfacet
  facet normal 0 0 1
    outer loop
      vertex 86.425 21.355000000000004 0.7999999999999989
      vertex 83.98089280790379 0.4808427525309753 0.7999999999999989
      vertex 84.08811085703712 0.16498856501142 0.7999999999999989
    endloop
  endfacet
  facet normal 0 0 1
    outer loop
      vertex 86.425 21.355000000000004 0.7999999999999989
      vertex 84.08811085703712 0.16498856501142 0.7999999999999989
      vertex 86.425 0 0.7999999999999989
    endloop
  endfacet
  facet normal 0 0 1
    outer loop
      vertex 69.825 0 0.7999999999999989
      vertex 79.16188914296288 0.16498856501142 0.7999999999999989
      vertex 78.88000000000001 2.8699999999999974 0.7999999999999989
    endloop
  endfacet
  facet normal 0 0 1
    outer loop
      vertex 69.825 0 0.7999999999999989
      vertex 79.12907087690589 0 0.7999999999999989
      vertex 79.16188914296288 0.16498856501142 0.7999999999999989
    endloop
  endfacet
  facet normal 0 0 1
    outer loop
      vertex 78.88000000000001 2.8699999999999974 0.7999999999999989
      vertex 79.82187770797431 1.3081222920256934 0.7999999999999989
      vertex 80.07265835602776 1.5280510177426478 0.7999999999999989
    endloop
  endfacet
  facet normal 0 0 1
    outer loop
      vertex 78.88000000000001 2.8699999999999974 0.7999999999999989
      vertex 80.07265835602776 1.5280510177426478 0.7999999999999989
      vertex 80.35 1.7133647796503126 0.7999999999999989
    endloop
  endfacet
  facet normal 0 0 1
    outer loop
      vertex 78.88000000000001 2.8699999999999974 0.7999999999999989
      vertex 79.41663522034968 0.779999999999994 0.7999999999999989
      vertex 79.60194898225735 1.0573416439722365 0.7999999999999989
    endloop
  endfacet
  facet normal 0 0 1
    outer loop
      vertex 78.88000000000001 2.8699999999999974 0.7999999999999989
      vertex 79.26910719209621 0.4808427525309753 0.7999999999999989
      vertex 79.41663522034968 0.779999999999994 0.7999999999999989
    endloop
  endfacet
  facet normal 0 0 1
    outer loop
      vertex 78.88000000000001 2.8699999999999974 0.7999999999999989
      vertex 79.60194898225735 1.0573416439722365 0.7999999999999989
      vertex 79.82187770797431 1.3081222920256934 0.7999999999999989
    endloop
  endfacet
  facet normal 0 0 1
    outer loop
      vertex 78.88000000000001 2.8699999999999974 0.7999999999999989
      vertex 79.16188914296288 0.16498856501142 0.7999999999999989
      vertex 79.26910719209621 0.4808427525309753 0.7999999999999989
    endloop
  endfacet
  facet normal 0 0 1
    outer loop
      vertex 84.08811085703712 0.16498856501142 0.7999999999999989
      vertex 84.12092912309411 0 0.7999999999999989
      vertex 86.425 0 0.7999999999999989
    endloop
  endfacet
  facet normal 1 0 0
    outer loop
      vertex 2.369999999999999 54.04 0
      vertex 2.369999999999999 17.705 0.7999999999999989
      vertex 2.369999999999999 17.705 0
    endloop
  endfacet
  facet normal 1 0 0
    outer loop
      vertex 2.369999999999999 54.04 0
      vertex 2.369999999999999 54.04 0.7999999999999989
      vertex 2.369999999999999 17.705 0.7999999999999989
    endloop
  endfacet
  facet normal 0 -1 0
    outer loop
      vertex 2.369999999999999 54.04 0
      vertex 78.88000000000001 54.04 0.7999999999999989
      vertex 2.369999999999999 54.04 0.7999999999999989
    endloop
  endfacet
  facet normal 0 -1 0
    outer loop
      vertex 2.369999999999999 54.04 0
      vertex 78.88000000000001 54.04 0
      vertex 78.88000000000001 54.04 0.7999999999999989
    endloop
  endfacet
  facet normal -1 0 0
    outer loop
      vertex 78.88000000000001 54.04 0
      vertex 78.88000000000001 4.9246566387040716 0
      vertex 78.88000000000001 54.04 0.7999999999999989
    endloop
  endfacet
  facet normal -1 0 0
    outer loop
      vertex 78.88000000000001 4.9246566387040716 0
      vertex 78.88000000000001 2.8699999999999974 0
      vertex 78.88000000000001 2.8699999999999974 0.7999999999999989
    endloop
  endfacet
  facet normal 0 1 0
    outer loop
      vertex 69.825 2.8699999999999974 0
      vertex 78.88000000000001 2.8699999999999974 0.7999999999999989
      vertex 78.88000000000001 2.8699999999999974 0
    endloop
  endfacet
  facet normal -1 0 0
    outer loop
      vertex 78.88000000000001 54.04 0.7999999999999989
      vertex 78.88000000000001 4.9246566387040716 0
      vertex 78.88000000000001 2.8699999999999974 0.7999999999999989
    endloop
  endfacet
  facet normal 0 1 0
    outer loop
      vertex 69.825 2.8699999999999974 0
      vertex 69.825 2.8699999999999974 0.7999999999999989
      vertex 78.88000000000001 2.8699999999999974 0.7999999999999989
    endloop
  endfacet
  facet normal 0 -1 0
    outer loop
      vertex 81.425 35.055 0
      vertex 86.425 35.055 0
      vertex 81.425 35.055 0.7999999999999989
    endloop
  endfacet
  facet normal 0 -1 0
    outer loop
      vertex 86.425 35.055 0
      vertex 86.425 35.055 0.7999999999999989
      vertex 81.425 35.055 0.7999999999999989
    endloop
  endfacet
  facet normal 1 0 0
    outer loop
      vertex 81.425 35.055 0
      vertex 81.425 35.055 0.7999999999999989
      vertex 81.425 21.355000000000004 0.7999999999999989
    endloop
  endfacet
  facet normal 1 0 0
    outer loop
      vertex 81.425 35.055 0
      vertex 81.425 21.355000000000004 0.7999999999999989
      vertex 81.425 21.355000000000004 0
    endloop
  endfacet
  facet normal 0 1 0
    outer loop
      vertex 81.425 21.355000000000004 0
      vertex 86.425 21.355000000000004 0.7999999999999989
      vertex 86.425 21.355000000000004 0
    endloop
  endfacet
  facet normal 0 1 0
    outer loop
      vertex 81.425 21.355000000000004 0
      vertex 81.425 21.355000000000004 0.7999999999999989
      vertex 86.425 21.355000000000004 0.7999999999999989
    endloop
  endfacet
  facet normal -1 0 0
    outer loop
      vertex 69.825 2.8699999999999974 0
      vertex 69.825 0 0
      vertex 69.825 2.8699999999999974 0.7999999999999989
    endloop
  endfacet
  facet normal -1 0 0
    outer loop
      vertex 69.825 0 0
      vertex 69.825 0 0.7999999999999989
      vertex 69.825 2.8699999999999974 0.7999999999999989
    endloop
  endfacet
  facet normal 0 -1 0
    outer loop
      vertex 0 17.705 0
      vertex 2.369999999999999 17.705 0
      vertex 0 17.705 0.7999999999999989
    endloop
  endfacet
  facet normal 0 -1 0
    outer loop
      vertex 2.369999999999999 17.705 0
      vertex 2.369999999999999 17.705 0.7999999999999989
      vertex 0 17.705 0.7999999999999989
    endloop
  endfacet
endsolid OpenSCAD_Model
