%TF.GenerationSoftware,KiCad,Pcbnew,10.0.5*%
%TF.CreationDate,2026-09-16T00:07:05+02:00*%
%TF.ProjectId,cicala_rev_b,63696361-6c61-45f7-9265-765f622e6b69,A0*%
%TF.SameCoordinates,Original*%
%TF.FileFunction,Paste,Top*%
%TF.FilePolarity,Positive*%
%FSLAX46Y46*%
G04 Gerber Fmt 4.6, Leading zero omitted, Abs format (unit mm)*
G04 Created by KiCad (PCBNEW 10.0.5) date 2026-09-16 00:07:05*
%MOMM*%
%LPD*%
G01*
G04 APERTURE LIST*
G04 Aperture macros list*
%AMRoundRect*
0 Rectangle with rounded corners*
0 $1 Rounding radius*
0 $2 $3 $4 $5 $6 $7 $8 $9 X,Y pos of 4 corners*
0 Add a 4 corners polygon primitive as box body*
4,1,4,$2,$3,$4,$5,$6,$7,$8,$9,$2,$3,0*
0 Add four circle primitives for the rounded corners*
1,1,$1+$1,$2,$3*
1,1,$1+$1,$4,$5*
1,1,$1+$1,$6,$7*
1,1,$1+$1,$8,$9*
0 Add four rect primitives between the rounded corners*
20,1,$1+$1,$2,$3,$4,$5,0*
20,1,$1+$1,$4,$5,$6,$7,0*
20,1,$1+$1,$6,$7,$8,$9,0*
20,1,$1+$1,$8,$9,$2,$3,0*%
G04 Aperture macros list end*
%ADD10RoundRect,0.200000X-0.200000X-0.275000X0.200000X-0.275000X0.200000X0.275000X-0.200000X0.275000X0*%
%ADD11RoundRect,0.250000X-0.250000X-0.475000X0.250000X-0.475000X0.250000X0.475000X-0.250000X0.475000X0*%
%ADD12RoundRect,0.225000X-0.225000X-0.250000X0.225000X-0.250000X0.225000X0.250000X-0.225000X0.250000X0*%
%ADD13RoundRect,0.150000X-0.512500X-0.150000X0.512500X-0.150000X0.512500X0.150000X-0.512500X0.150000X0*%
%ADD14RoundRect,0.050000X-0.225000X-0.075000X0.225000X-0.075000X0.225000X0.075000X-0.225000X0.075000X0*%
%ADD15RoundRect,0.050000X-0.250000X-0.075000X0.250000X-0.075000X0.250000X0.075000X-0.250000X0.075000X0*%
%ADD16RoundRect,0.050000X-0.400000X-0.075000X0.400000X-0.075000X0.400000X0.075000X-0.400000X0.075000X0*%
%ADD17RoundRect,0.225000X-0.225000X-0.375000X0.225000X-0.375000X0.225000X0.375000X-0.225000X0.375000X0*%
%ADD18RoundRect,0.200000X0.200000X0.275000X-0.200000X0.275000X-0.200000X-0.275000X0.200000X-0.275000X0*%
%ADD19RoundRect,0.150000X-0.625000X0.150000X-0.625000X-0.150000X0.625000X-0.150000X0.625000X0.150000X0*%
%ADD20RoundRect,0.250000X-0.650000X0.350000X-0.650000X-0.350000X0.650000X-0.350000X0.650000X0.350000X0*%
%ADD21RoundRect,0.150000X-0.587500X-0.150000X0.587500X-0.150000X0.587500X0.150000X-0.587500X0.150000X0*%
%ADD22RoundRect,0.250000X0.250000X0.475000X-0.250000X0.475000X-0.250000X-0.475000X0.250000X-0.475000X0*%
%ADD23RoundRect,0.098000X-1.602000X0.392000X-1.602000X-0.392000X1.602000X-0.392000X1.602000X0.392000X0*%
%ADD24RoundRect,0.130000X-0.520000X-1.870000X0.520000X-1.870000X0.520000X1.870000X-0.520000X1.870000X0*%
%ADD25RoundRect,0.210000X-0.210000X-0.495000X0.210000X-0.495000X0.210000X0.495000X-0.210000X0.495000X0*%
%ADD26RoundRect,0.050000X-0.325000X-0.050000X0.325000X-0.050000X0.325000X0.050000X-0.325000X0.050000X0*%
%ADD27RoundRect,0.067500X-0.157500X-0.292500X0.157500X-0.292500X0.157500X0.292500X-0.157500X0.292500X0*%
%ADD28RoundRect,0.034500X-0.155500X-0.080500X0.155500X-0.080500X0.155500X0.080500X-0.155500X0.080500X0*%
%ADD29RoundRect,0.250000X0.325000X0.650000X-0.325000X0.650000X-0.325000X-0.650000X0.325000X-0.650000X0*%
%ADD30RoundRect,0.225000X0.375000X-0.225000X0.375000X0.225000X-0.375000X0.225000X-0.375000X-0.225000X0*%
%ADD31RoundRect,0.150000X0.150000X-0.512500X0.150000X0.512500X-0.150000X0.512500X-0.150000X-0.512500X0*%
%ADD32RoundRect,0.125000X-0.687500X-0.125000X0.687500X-0.125000X0.687500X0.125000X-0.687500X0.125000X0*%
%ADD33R,0.700000X0.300000*%
%ADD34R,1.000000X0.300000*%
%ADD35RoundRect,0.225000X0.225000X0.250000X-0.225000X0.250000X-0.225000X-0.250000X0.225000X-0.250000X0*%
%ADD36RoundRect,0.150000X-0.150000X-0.575000X0.150000X-0.575000X0.150000X0.575000X-0.150000X0.575000X0*%
%ADD37RoundRect,0.075000X-0.075000X-0.650000X0.075000X-0.650000X0.075000X0.650000X-0.075000X0.650000X0*%
%ADD38R,0.900000X0.900000*%
%ADD39R,0.900000X1.500000*%
%ADD40R,1.500000X0.900000*%
G04 APERTURE END LIST*
D10*
%TO.C,R36*%
X84675000Y-32000000D03*
X86325000Y-32000000D03*
%TD*%
D11*
%TO.C,C10*%
X80050000Y-49500000D03*
X81950000Y-49500000D03*
%TD*%
D12*
%TO.C,C25*%
X42725000Y-47500000D03*
X44275000Y-47500000D03*
%TD*%
D11*
%TO.C,C8*%
X64850000Y-42300000D03*
X66750000Y-42300000D03*
%TD*%
D10*
%TO.C,R26*%
X35675000Y-53500000D03*
X37325000Y-53500000D03*
%TD*%
D13*
%TO.C,U6*%
X72862500Y-7550000D03*
X72862500Y-8500000D03*
X72862500Y-9450000D03*
X75137500Y-9450000D03*
X75137500Y-8500000D03*
X75137500Y-7550000D03*
%TD*%
D12*
%TO.C,C14*%
X87725000Y-14000000D03*
X89275000Y-14000000D03*
%TD*%
D13*
%TO.C,U5*%
X72862500Y-33550000D03*
X72862500Y-34500000D03*
X72862500Y-35450000D03*
X75137500Y-35450000D03*
X75137500Y-34500000D03*
X75137500Y-33550000D03*
%TD*%
D14*
%TO.C,U3*%
X69175000Y-45500000D03*
X69925000Y-45500000D03*
D15*
X68100000Y-44500000D03*
X68100000Y-45000000D03*
X68100000Y-45500000D03*
X68100000Y-46000000D03*
X68100000Y-46500000D03*
D16*
X69750000Y-46500000D03*
X69750000Y-46000000D03*
X69750000Y-45000000D03*
X69750000Y-44500000D03*
%TD*%
D11*
%TO.C,C19*%
X77050000Y-25500000D03*
X78950000Y-25500000D03*
%TD*%
D17*
%TO.C,D1*%
X81350000Y-21500000D03*
X84650000Y-21500000D03*
%TD*%
D12*
%TO.C,C7*%
X71725000Y-40000000D03*
X73275000Y-40000000D03*
%TD*%
D10*
%TO.C,R6*%
X32175000Y-49500000D03*
X33825000Y-49500000D03*
%TD*%
D12*
%TO.C,C3*%
X42725000Y-49500000D03*
X44275000Y-49500000D03*
%TD*%
D18*
%TO.C,R19*%
X78325000Y-15500000D03*
X76675000Y-15500000D03*
%TD*%
D10*
%TO.C,R8*%
X84775000Y-50000000D03*
X86425000Y-50000000D03*
%TD*%
D19*
%TO.C,J3*%
X69000000Y-28500000D03*
X69000000Y-29500000D03*
X69000000Y-30500000D03*
D20*
X65125000Y-27200000D03*
X65125000Y-31800000D03*
%TD*%
D10*
%TO.C,R2*%
X86175000Y-53000000D03*
X87825000Y-53000000D03*
%TD*%
D12*
%TO.C,C9*%
X70225000Y-48700000D03*
X71775000Y-48700000D03*
%TD*%
D11*
%TO.C,C20*%
X85050000Y-28000000D03*
X86950000Y-28000000D03*
%TD*%
%TO.C,C24*%
X81050000Y-30500000D03*
X82950000Y-30500000D03*
%TD*%
D21*
%TO.C,Q2*%
X84062500Y-37550000D03*
X84062500Y-39450000D03*
X85937500Y-38500000D03*
%TD*%
D10*
%TO.C,R9*%
X67175000Y-52500000D03*
X68825000Y-52500000D03*
%TD*%
%TO.C,R16*%
X86175000Y-45500000D03*
X87825000Y-45500000D03*
%TD*%
%TO.C,R35*%
X74175000Y-31500000D03*
X75825000Y-31500000D03*
%TD*%
D18*
%TO.C,R3*%
X29825000Y-56500000D03*
X28175000Y-56500000D03*
%TD*%
D11*
%TO.C,C31*%
X39050000Y-45000000D03*
X40950000Y-45000000D03*
%TD*%
D22*
%TO.C,C5*%
X77750000Y-39000000D03*
X75850000Y-39000000D03*
%TD*%
D12*
%TO.C,C13*%
X72725000Y-17000000D03*
X74275000Y-17000000D03*
%TD*%
D23*
%TO.C,L2*%
X73500000Y-44315000D03*
X73500000Y-46685000D03*
%TD*%
D10*
%TO.C,R12*%
X82675000Y-47500000D03*
X84325000Y-47500000D03*
%TD*%
D24*
%TO.C,L1*%
X78650000Y-11500000D03*
X81350000Y-11500000D03*
%TD*%
D11*
%TO.C,C18*%
X81050000Y-28000000D03*
X82950000Y-28000000D03*
%TD*%
D12*
%TO.C,C29*%
X41725000Y-43000000D03*
X43275000Y-43000000D03*
%TD*%
D18*
%TO.C,R15*%
X66325000Y-48000000D03*
X64675000Y-48000000D03*
%TD*%
D25*
%TO.C,U2*%
X80000000Y-45500000D03*
D26*
X78900000Y-44700000D03*
X78900000Y-45100000D03*
X78900000Y-45500000D03*
X78900000Y-45900000D03*
X78900000Y-46300000D03*
X81100000Y-46300000D03*
X81100000Y-45900000D03*
X81100000Y-45500000D03*
X81100000Y-45100000D03*
X81100000Y-44700000D03*
%TD*%
D27*
%TO.C,D4*%
X85025000Y-58500000D03*
X86975000Y-58500000D03*
D28*
X86315000Y-58255000D03*
X85685000Y-58255000D03*
%TD*%
D10*
%TO.C,R11*%
X68175000Y-40000000D03*
X69825000Y-40000000D03*
%TD*%
%TO.C,R28*%
X77175000Y-8000000D03*
X78825000Y-8000000D03*
%TD*%
%TO.C,R30*%
X70175000Y-21000000D03*
X71825000Y-21000000D03*
%TD*%
D12*
%TO.C,C32*%
X80225000Y-37500000D03*
X81775000Y-37500000D03*
%TD*%
D18*
%TO.C,R20*%
X79825000Y-18500000D03*
X78175000Y-18500000D03*
%TD*%
D10*
%TO.C,R31*%
X69175000Y-16500000D03*
X70825000Y-16500000D03*
%TD*%
%TO.C,R24*%
X39175000Y-53500000D03*
X40825000Y-53500000D03*
%TD*%
%TO.C,R33*%
X42675000Y-53500000D03*
X44325000Y-53500000D03*
%TD*%
D11*
%TO.C,C23*%
X77050000Y-28000000D03*
X78950000Y-28000000D03*
%TD*%
D29*
%TO.C,C16*%
X87975000Y-18000000D03*
X85025000Y-18000000D03*
%TD*%
D30*
%TO.C,D3*%
X85500000Y-14150000D03*
X85500000Y-10850000D03*
%TD*%
D12*
%TO.C,C28*%
X35725000Y-49500000D03*
X37275000Y-49500000D03*
%TD*%
D10*
%TO.C,R18*%
X70175000Y-19000000D03*
X71825000Y-19000000D03*
%TD*%
D21*
%TO.C,Q1*%
X81062500Y-14550000D03*
X81062500Y-16450000D03*
X82937500Y-15500000D03*
%TD*%
D31*
%TO.C,U4*%
X74050000Y-51037500D03*
X75000000Y-51037500D03*
X75950000Y-51037500D03*
X75950000Y-48762500D03*
X75000000Y-48762500D03*
X74050000Y-48762500D03*
%TD*%
D10*
%TO.C,R34*%
X70675000Y-25500000D03*
X72325000Y-25500000D03*
%TD*%
D32*
%TO.C,U7*%
X78887500Y-33525000D03*
X78887500Y-34175000D03*
X78887500Y-34825000D03*
X78887500Y-35475000D03*
X83112500Y-35475000D03*
X83112500Y-34825000D03*
X83112500Y-34175000D03*
X83112500Y-33525000D03*
%TD*%
D10*
%TO.C,R25*%
X34675000Y-41500000D03*
X36325000Y-41500000D03*
%TD*%
%TO.C,R5*%
X32175000Y-45500000D03*
X33825000Y-45500000D03*
%TD*%
%TO.C,R39*%
X73675000Y-29500000D03*
X75325000Y-29500000D03*
%TD*%
D33*
%TO.C,J2*%
X90180000Y-35250000D03*
X90180000Y-34750000D03*
X90180000Y-34250000D03*
X90180000Y-33750000D03*
X90180000Y-33250000D03*
X90180000Y-32750000D03*
X90180000Y-32250000D03*
X90180000Y-31750000D03*
X90180000Y-31250000D03*
X90180000Y-30750000D03*
X90180000Y-30250000D03*
X90180000Y-29750000D03*
X90180000Y-29250000D03*
X90180000Y-28750000D03*
X90180000Y-28250000D03*
X90180000Y-27750000D03*
X90180000Y-27250000D03*
X90180000Y-26750000D03*
X90180000Y-26250000D03*
X90180000Y-25750000D03*
X90180000Y-25250000D03*
X90180000Y-24750000D03*
X90180000Y-24250000D03*
X90180000Y-23750000D03*
D34*
X92830000Y-36040000D03*
X92830000Y-22960000D03*
%TD*%
D10*
%TO.C,R37*%
X90175000Y-9500000D03*
X91825000Y-9500000D03*
%TD*%
%TO.C,R22*%
X45175000Y-41500000D03*
X46825000Y-41500000D03*
%TD*%
%TO.C,R29*%
X87675000Y-12000000D03*
X89325000Y-12000000D03*
%TD*%
%TO.C,R23*%
X42675000Y-51500000D03*
X44325000Y-51500000D03*
%TD*%
D29*
%TO.C,C15*%
X76475000Y-12500000D03*
X73525000Y-12500000D03*
%TD*%
D35*
%TO.C,C4*%
X84475000Y-44100000D03*
X82925000Y-44100000D03*
%TD*%
%TO.C,C6*%
X77575000Y-41500000D03*
X76025000Y-41500000D03*
%TD*%
D18*
%TO.C,R4*%
X29825000Y-58500000D03*
X28175000Y-58500000D03*
%TD*%
D10*
%TO.C,R10*%
X72175000Y-37500000D03*
X73825000Y-37500000D03*
%TD*%
%TO.C,R13*%
X82675000Y-42000000D03*
X84325000Y-42000000D03*
%TD*%
%TO.C,R38*%
X84675000Y-30000000D03*
X86325000Y-30000000D03*
%TD*%
%TO.C,R7*%
X68675000Y-38000000D03*
X70325000Y-38000000D03*
%TD*%
D12*
%TO.C,C26*%
X39225000Y-51500000D03*
X40775000Y-51500000D03*
%TD*%
D11*
%TO.C,C22*%
X77550000Y-23000000D03*
X79450000Y-23000000D03*
%TD*%
D12*
%TO.C,C34*%
X77725000Y-31500000D03*
X79275000Y-31500000D03*
%TD*%
D10*
%TO.C,R27*%
X69675000Y-14500000D03*
X71325000Y-14500000D03*
%TD*%
D30*
%TO.C,D2*%
X91500000Y-18150000D03*
X91500000Y-14850000D03*
%TD*%
D12*
%TO.C,C11*%
X71725000Y-42000000D03*
X73275000Y-42000000D03*
%TD*%
%TO.C,C27*%
X35725000Y-45500000D03*
X37275000Y-45500000D03*
%TD*%
D10*
%TO.C,R32*%
X73675000Y-25000000D03*
X75325000Y-25000000D03*
%TD*%
D11*
%TO.C,C17*%
X81050000Y-25500000D03*
X82950000Y-25500000D03*
%TD*%
D36*
%TO.C,J1*%
X71750000Y-54055000D03*
X72550000Y-54055000D03*
D37*
X73750000Y-54055000D03*
X74750000Y-54055000D03*
X75250000Y-54055000D03*
X76250000Y-54055000D03*
D36*
X77450000Y-54055000D03*
X78250000Y-54055000D03*
X78250000Y-54055000D03*
X77450000Y-54055000D03*
D37*
X76750000Y-54055000D03*
X75750000Y-54055000D03*
X74250000Y-54055000D03*
X73250000Y-54055000D03*
D36*
X72550000Y-54055000D03*
X71750000Y-54055000D03*
%TD*%
D12*
%TO.C,C33*%
X76725000Y-37000000D03*
X78275000Y-37000000D03*
%TD*%
D11*
%TO.C,C30*%
X39050000Y-47500000D03*
X40950000Y-47500000D03*
%TD*%
D10*
%TO.C,R14*%
X64675000Y-46000000D03*
X66325000Y-46000000D03*
%TD*%
D38*
%TO.C,U1*%
X14310000Y-53400000D03*
X15710000Y-53400000D03*
X17110000Y-53400000D03*
X14310000Y-52000000D03*
X15710000Y-52000000D03*
X17110000Y-52000000D03*
X14310000Y-50600000D03*
X15710000Y-50600000D03*
X17110000Y-50600000D03*
D39*
X7990000Y-59250000D03*
X9260000Y-59250000D03*
X10530000Y-59250000D03*
X11800000Y-59250000D03*
X13070000Y-59250000D03*
X14340000Y-59250000D03*
X15610000Y-59250000D03*
X16880000Y-59250000D03*
X18150000Y-59250000D03*
X19420000Y-59250000D03*
X20690000Y-59250000D03*
X21960000Y-59250000D03*
X23230000Y-59250000D03*
X24500000Y-59250000D03*
D40*
X25750000Y-57485000D03*
X25750000Y-56215000D03*
X25750000Y-54945000D03*
X25750000Y-53675000D03*
X25750000Y-52405000D03*
X25750000Y-51135000D03*
X25750000Y-49865000D03*
X25750000Y-48595000D03*
X25750000Y-47325000D03*
X25750000Y-46055000D03*
X25750000Y-44785000D03*
X25750000Y-43515000D03*
D39*
X24500000Y-41750000D03*
X23230000Y-41750000D03*
X21960000Y-41750000D03*
X20690000Y-41750000D03*
X19420000Y-41750000D03*
X18150000Y-41750000D03*
X16880000Y-41750000D03*
X15610000Y-41750000D03*
X14340000Y-41750000D03*
X13070000Y-41750000D03*
X11800000Y-41750000D03*
X10530000Y-41750000D03*
X9260000Y-41750000D03*
X7990000Y-41750000D03*
%TD*%
D10*
%TO.C,R21*%
X35675000Y-51500000D03*
X37325000Y-51500000D03*
%TD*%
D11*
%TO.C,C21*%
X85050000Y-25500000D03*
X86950000Y-25500000D03*
%TD*%
D12*
%TO.C,C12*%
X73225000Y-15000000D03*
X74775000Y-15000000D03*
%TD*%
D10*
%TO.C,R1*%
X82175000Y-53000000D03*
X83825000Y-53000000D03*
%TD*%
M02*
