%TF.GenerationSoftware,KiCad,Pcbnew,10.0.5*%
%TF.CreationDate,2026-09-15T22:38:58+02:00*%
%TF.ProjectId,cicala_rev_b,63696361-6c61-45f7-9265-765f622e6b69,A0*%
%TF.SameCoordinates,Original*%
%TF.FileFunction,Legend,Top*%
%TF.FilePolarity,Positive*%
%FSLAX46Y46*%
G04 Gerber Fmt 4.6, Leading zero omitted, Abs format (unit mm)*
G04 Created by KiCad (PCBNEW 10.0.5) date 2026-09-15 22:38:58*
%MOMM*%
%LPD*%
G01*
G04 APERTURE LIST*
G04 Aperture macros list*
%AMRoundRect*
0 Rectangle with rounded corners*
0 $1 Rounding radius*
0 $2 $3 $4 $5 $6 $7 $8 $9 X,Y pos of 4 corners*
0 Add a 4 corners polygon primitive as box body*
4,1,4,$2,$3,$4,$5,$6,$7,$8,$9,$2,$3,0*
0 Add four circle primitives for the rounded corners*
1,1,$1+$1,$2,$3*
1,1,$1+$1,$4,$5*
1,1,$1+$1,$6,$7*
1,1,$1+$1,$8,$9*
0 Add four rect primitives between the rounded corners*
20,1,$1+$1,$2,$3,$4,$5,0*
20,1,$1+$1,$4,$5,$6,$7,0*
20,1,$1+$1,$6,$7,$8,$9,0*
20,1,$1+$1,$8,$9,$2,$3,0*%
G04 Aperture macros list end*
%ADD10C,0.120000*%
%ADD11C,0.150000*%
%ADD12RoundRect,0.200000X-0.200000X-0.275000X0.200000X-0.275000X0.200000X0.275000X-0.200000X0.275000X0*%
%ADD13RoundRect,0.250000X-0.250000X-0.475000X0.250000X-0.475000X0.250000X0.475000X-0.250000X0.475000X0*%
%ADD14RoundRect,0.225000X-0.225000X-0.250000X0.225000X-0.250000X0.225000X0.250000X-0.225000X0.250000X0*%
%ADD15RoundRect,0.150000X-0.512500X-0.150000X0.512500X-0.150000X0.512500X0.150000X-0.512500X0.150000X0*%
%ADD16RoundRect,0.050000X-0.250000X-0.075000X0.250000X-0.075000X0.250000X0.075000X-0.250000X0.075000X0*%
%ADD17RoundRect,0.050000X-0.400000X-0.075000X0.400000X-0.075000X0.400000X0.075000X-0.400000X0.075000X0*%
%ADD18RoundRect,0.050000X-0.600000X-0.075000X0.600000X-0.075000X0.600000X0.075000X-0.600000X0.075000X0*%
%ADD19C,1.000000*%
%ADD20RoundRect,0.225000X-0.225000X-0.375000X0.225000X-0.375000X0.225000X0.375000X-0.225000X0.375000X0*%
%ADD21C,2.700000*%
%ADD22RoundRect,0.200000X0.200000X0.275000X-0.200000X0.275000X-0.200000X-0.275000X0.200000X-0.275000X0*%
%ADD23RoundRect,0.150000X-0.625000X0.150000X-0.625000X-0.150000X0.625000X-0.150000X0.625000X0.150000X0*%
%ADD24RoundRect,0.250000X-0.650000X0.350000X-0.650000X-0.350000X0.650000X-0.350000X0.650000X0.350000X0*%
%ADD25RoundRect,0.150000X-0.587500X-0.150000X0.587500X-0.150000X0.587500X0.150000X-0.587500X0.150000X0*%
%ADD26RoundRect,0.250000X0.250000X0.475000X-0.250000X0.475000X-0.250000X-0.475000X0.250000X-0.475000X0*%
%ADD27RoundRect,0.098000X-1.602000X0.392000X-1.602000X-0.392000X1.602000X-0.392000X1.602000X0.392000X0*%
%ADD28RoundRect,0.130000X-0.520000X-1.870000X0.520000X-1.870000X0.520000X1.870000X-0.520000X1.870000X0*%
%ADD29R,1.000000X2.750000*%
%ADD30RoundRect,0.050000X-0.325000X-0.050000X0.325000X-0.050000X0.325000X0.050000X-0.325000X0.050000X0*%
%ADD31R,0.900000X1.500000*%
%ADD32RoundRect,0.067500X-0.157500X-0.292500X0.157500X-0.292500X0.157500X0.292500X-0.157500X0.292500X0*%
%ADD33RoundRect,0.034500X-0.155500X-0.080500X0.155500X-0.080500X0.155500X0.080500X-0.155500X0.080500X0*%
%ADD34RoundRect,0.250000X0.325000X0.650000X-0.325000X0.650000X-0.325000X-0.650000X0.325000X-0.650000X0*%
%ADD35RoundRect,0.225000X0.375000X-0.225000X0.375000X0.225000X-0.375000X0.225000X-0.375000X-0.225000X0*%
%ADD36RoundRect,0.150000X0.150000X-0.512500X0.150000X0.512500X-0.150000X0.512500X-0.150000X-0.512500X0*%
%ADD37RoundRect,0.150000X-0.687500X-0.125000X0.687500X-0.125000X0.687500X0.125000X-0.687500X0.125000X0*%
%ADD38R,0.700000X0.300000*%
%ADD39R,1.000000X0.300000*%
%ADD40RoundRect,0.225000X0.225000X0.250000X-0.225000X0.250000X-0.225000X-0.250000X0.225000X-0.250000X0*%
%ADD41C,0.990600*%
%ADD42C,0.787400*%
%ADD43C,0.650000*%
%ADD44RoundRect,0.150000X-0.150000X-0.575000X0.150000X-0.575000X0.150000X0.575000X-0.150000X0.575000X0*%
%ADD45RoundRect,0.075000X-0.075000X-0.650000X0.075000X-0.650000X0.075000X0.650000X-0.075000X0.650000X0*%
%ADD46O,1.000000X2.100000*%
%ADD47O,1.000000X1.600000*%
%ADD48R,1.500000X0.900000*%
%ADD49R,3.900000X3.900000*%
G04 APERTURE END LIST*
%TO.C,R36*%
D10*
X85262742Y-31477500D02*
X85737258Y-31477500D01*
X85262742Y-32522500D02*
X85737258Y-32522500D01*
%TO.C,C10*%
X80738748Y-48765000D02*
X81261252Y-48765000D01*
X80738748Y-50235000D02*
X81261252Y-50235000D01*
%TO.C,C25*%
X43359420Y-46990000D02*
X43640580Y-46990000D01*
X43359420Y-48010000D02*
X43640580Y-48010000D01*
%TO.C,C8*%
X65538748Y-41565000D02*
X66061252Y-41565000D01*
X65538748Y-43035000D02*
X66061252Y-43035000D01*
%TO.C,R26*%
X36262742Y-52977500D02*
X36737258Y-52977500D01*
X36262742Y-54022500D02*
X36737258Y-54022500D01*
%TO.C,U6*%
X73090000Y-6940000D02*
X74910000Y-6940000D01*
X73090000Y-6990000D02*
X73090000Y-6940000D01*
X73090000Y-10060000D02*
X73090000Y-10010000D01*
X74910000Y-6940000D02*
X74910000Y-6990000D01*
X74910000Y-10010000D02*
X74910000Y-10060000D01*
X74910000Y-10060000D02*
X73090000Y-10060000D01*
X72550000Y-6990000D02*
X72310000Y-6660000D01*
X72790000Y-6660000D01*
X72550000Y-6990000D01*
G36*
X72550000Y-6990000D02*
G01*
X72310000Y-6660000D01*
X72790000Y-6660000D01*
X72550000Y-6990000D01*
G37*
%TO.C,C14*%
X88359420Y-13490000D02*
X88640580Y-13490000D01*
X88359420Y-14510000D02*
X88640580Y-14510000D01*
%TO.C,U5*%
X73090000Y-32940000D02*
X74910000Y-32940000D01*
X73090000Y-32990000D02*
X73090000Y-32940000D01*
X73090000Y-36060000D02*
X73090000Y-36010000D01*
X74910000Y-32940000D02*
X74910000Y-32990000D01*
X74910000Y-36010000D02*
X74910000Y-36060000D01*
X74910000Y-36060000D02*
X73090000Y-36060000D01*
X72550000Y-32990000D02*
X72310000Y-32660000D01*
X72790000Y-32660000D01*
X72550000Y-32990000D01*
G36*
X72550000Y-32990000D02*
G01*
X72310000Y-32660000D01*
X72790000Y-32660000D01*
X72550000Y-32990000D01*
G37*
%TO.C,U3*%
D11*
X68000000Y-47125000D02*
X70000000Y-47125000D01*
X68230000Y-43875000D02*
X70000000Y-43875000D01*
D10*
X67840000Y-44110000D02*
X67360000Y-44110000D01*
X67840000Y-43630000D01*
X67840000Y-44110000D01*
G36*
X67840000Y-44110000D02*
G01*
X67360000Y-44110000D01*
X67840000Y-43630000D01*
X67840000Y-44110000D01*
G37*
%TO.C,C19*%
X77738748Y-24765000D02*
X78261252Y-24765000D01*
X77738748Y-26235000D02*
X78261252Y-26235000D01*
%TO.C,TP2*%
X51700000Y-48000000D02*
G75*
G02*
X50300000Y-48000000I-700000J0D01*
G01*
X50300000Y-48000000D02*
G75*
G02*
X51700000Y-48000000I700000J0D01*
G01*
%TO.C,D1*%
X80640000Y-20500000D02*
X80640000Y-22500000D01*
X80640000Y-20500000D02*
X84650000Y-20500000D01*
X80640000Y-22500000D02*
X84650000Y-22500000D01*
%TO.C,C7*%
X72359420Y-39490000D02*
X72640580Y-39490000D01*
X72359420Y-40510000D02*
X72640580Y-40510000D01*
%TO.C,R6*%
X32762742Y-48977500D02*
X33237258Y-48977500D01*
X32762742Y-50022500D02*
X33237258Y-50022500D01*
%TO.C,C3*%
X43359420Y-48990000D02*
X43640580Y-48990000D01*
X43359420Y-50010000D02*
X43640580Y-50010000D01*
%TO.C,R19*%
X77737258Y-14977500D02*
X77262742Y-14977500D01*
X77737258Y-16022500D02*
X77262742Y-16022500D01*
%TO.C,R8*%
X85362742Y-49477500D02*
X85837258Y-49477500D01*
X85362742Y-50522500D02*
X85837258Y-50522500D01*
%TO.C,J3*%
X64315000Y-28060000D02*
X64315000Y-30940000D01*
X66285000Y-26890000D02*
X68785000Y-26890000D01*
X66285000Y-32110000D02*
X68785000Y-32110000D01*
X68785000Y-26890000D02*
X68785000Y-27940000D01*
X68785000Y-27940000D02*
X69775000Y-27940000D01*
X68785000Y-32110000D02*
X68785000Y-31060000D01*
%TO.C,R2*%
X86762742Y-52477500D02*
X87237258Y-52477500D01*
X86762742Y-53522500D02*
X87237258Y-53522500D01*
%TO.C,C9*%
X70859420Y-48190000D02*
X71140580Y-48190000D01*
X70859420Y-49210000D02*
X71140580Y-49210000D01*
%TO.C,C20*%
X85738748Y-27265000D02*
X86261252Y-27265000D01*
X85738748Y-28735000D02*
X86261252Y-28735000D01*
%TO.C,C24*%
X81738748Y-29765000D02*
X82261252Y-29765000D01*
X81738748Y-31235000D02*
X82261252Y-31235000D01*
%TO.C,Q2*%
X84240000Y-36940000D02*
X85760000Y-36940000D01*
X84240000Y-36990000D02*
X84240000Y-36940000D01*
X84240000Y-38890000D02*
X84240000Y-38110000D01*
X84240000Y-40060000D02*
X84240000Y-40010000D01*
X85760000Y-36940000D02*
X85760000Y-37940000D01*
X85760000Y-39060000D02*
X85760000Y-40060000D01*
X85760000Y-40060000D02*
X84240000Y-40060000D01*
X83700000Y-38120000D02*
X83940000Y-38450000D01*
X83460000Y-38450000D01*
X83700000Y-38120000D01*
G36*
X83940000Y-38450000D02*
G01*
X83460000Y-38450000D01*
X83700000Y-38120000D01*
X83940000Y-38450000D01*
G37*
%TO.C,R9*%
X67762742Y-51977500D02*
X68237258Y-51977500D01*
X67762742Y-53022500D02*
X68237258Y-53022500D01*
%TO.C,TP8*%
X54700000Y-47000000D02*
G75*
G02*
X53300000Y-47000000I-700000J0D01*
G01*
X53300000Y-47000000D02*
G75*
G02*
X54700000Y-47000000I700000J0D01*
G01*
%TO.C,R16*%
X86762742Y-44977500D02*
X87237258Y-44977500D01*
X86762742Y-46022500D02*
X87237258Y-46022500D01*
%TO.C,R35*%
X74762742Y-30977500D02*
X75237258Y-30977500D01*
X74762742Y-32022500D02*
X75237258Y-32022500D01*
%TO.C,R3*%
X29237258Y-55977500D02*
X28762742Y-55977500D01*
X29237258Y-57022500D02*
X28762742Y-57022500D01*
%TO.C,C31*%
X39738748Y-44265000D02*
X40261252Y-44265000D01*
X39738748Y-45735000D02*
X40261252Y-45735000D01*
%TO.C,C5*%
X77061252Y-38265000D02*
X76538748Y-38265000D01*
X77061252Y-39735000D02*
X76538748Y-39735000D01*
%TO.C,C13*%
X73359420Y-16490000D02*
X73640580Y-16490000D01*
X73359420Y-17510000D02*
X73640580Y-17510000D01*
%TO.C,L2*%
X71500000Y-43500000D02*
X71500000Y-47500000D01*
X75500000Y-43500000D02*
X75500000Y-47500000D01*
%TO.C,R12*%
X83262742Y-46977500D02*
X83737258Y-46977500D01*
X83262742Y-48022500D02*
X83737258Y-48022500D01*
%TO.C,L1*%
X78000000Y-9250000D02*
X82000000Y-9250000D01*
X78000000Y-13750000D02*
X82000000Y-13750000D01*
%TO.C,C18*%
X81738748Y-27265000D02*
X82261252Y-27265000D01*
X81738748Y-28735000D02*
X82261252Y-28735000D01*
%TO.C,C29*%
X42359420Y-42490000D02*
X42640580Y-42490000D01*
X42359420Y-43510000D02*
X42640580Y-43510000D01*
%TO.C,R15*%
X65737258Y-47477500D02*
X65262742Y-47477500D01*
X65737258Y-48522500D02*
X65262742Y-48522500D01*
%TO.C,U2*%
X79190748Y-44340000D02*
X81210000Y-44340000D01*
X81210000Y-46660000D02*
X78790000Y-46660000D01*
X78900000Y-44330000D02*
X78760000Y-44140000D01*
X79040000Y-44140000D01*
X78900000Y-44330000D01*
G36*
X78900000Y-44330000D02*
G01*
X78760000Y-44140000D01*
X79040000Y-44140000D01*
X78900000Y-44330000D01*
G37*
%TO.C,D4*%
D11*
X84725000Y-59050000D02*
G75*
G02*
X84575000Y-59050000I-75000J0D01*
G01*
X84575000Y-59050000D02*
G75*
G02*
X84725000Y-59050000I75000J0D01*
G01*
%TO.C,R11*%
D10*
X68762742Y-39477500D02*
X69237258Y-39477500D01*
X68762742Y-40522500D02*
X69237258Y-40522500D01*
%TO.C,TP19*%
X41700000Y-56500000D02*
G75*
G02*
X40300000Y-56500000I-700000J0D01*
G01*
X40300000Y-56500000D02*
G75*
G02*
X41700000Y-56500000I700000J0D01*
G01*
%TO.C,R28*%
X77762742Y-7477500D02*
X78237258Y-7477500D01*
X77762742Y-8522500D02*
X78237258Y-8522500D01*
%TO.C,R30*%
X70762742Y-20477500D02*
X71237258Y-20477500D01*
X70762742Y-21522500D02*
X71237258Y-21522500D01*
%TO.C,C32*%
X80859420Y-36990000D02*
X81140580Y-36990000D01*
X80859420Y-38010000D02*
X81140580Y-38010000D01*
%TO.C,R20*%
X79237258Y-17977500D02*
X78762742Y-17977500D01*
X79237258Y-19022500D02*
X78762742Y-19022500D01*
%TO.C,R31*%
X69762742Y-15977500D02*
X70237258Y-15977500D01*
X69762742Y-17022500D02*
X70237258Y-17022500D01*
%TO.C,R24*%
X39762742Y-52977500D02*
X40237258Y-52977500D01*
X39762742Y-54022500D02*
X40237258Y-54022500D01*
%TO.C,R33*%
X43262742Y-52977500D02*
X43737258Y-52977500D01*
X43262742Y-54022500D02*
X43737258Y-54022500D01*
%TO.C,C23*%
X77738748Y-27265000D02*
X78261252Y-27265000D01*
X77738748Y-28735000D02*
X78261252Y-28735000D01*
%TO.C,C16*%
X87211252Y-17090000D02*
X85788748Y-17090000D01*
X87211252Y-18910000D02*
X85788748Y-18910000D01*
%TO.C,D3*%
X84500000Y-14860000D02*
X84500000Y-10850000D01*
X84500000Y-14860000D02*
X86500000Y-14860000D01*
X86500000Y-14860000D02*
X86500000Y-10850000D01*
%TO.C,C28*%
X36359420Y-48990000D02*
X36640580Y-48990000D01*
X36359420Y-50010000D02*
X36640580Y-50010000D01*
%TO.C,R18*%
X70762742Y-18477500D02*
X71237258Y-18477500D01*
X70762742Y-19522500D02*
X71237258Y-19522500D01*
%TO.C,Q1*%
X81240000Y-13940000D02*
X82760000Y-13940000D01*
X81240000Y-13990000D02*
X81240000Y-13940000D01*
X81240000Y-15890000D02*
X81240000Y-15110000D01*
X81240000Y-17060000D02*
X81240000Y-17010000D01*
X82760000Y-13940000D02*
X82760000Y-14940000D01*
X82760000Y-16060000D02*
X82760000Y-17060000D01*
X82760000Y-17060000D02*
X81240000Y-17060000D01*
X80700000Y-15120000D02*
X80940000Y-15450000D01*
X80460000Y-15450000D01*
X80700000Y-15120000D01*
G36*
X80940000Y-15450000D02*
G01*
X80460000Y-15450000D01*
X80700000Y-15120000D01*
X80940000Y-15450000D01*
G37*
%TO.C,U4*%
X73440000Y-48990000D02*
X73490000Y-48990000D01*
X73440000Y-50810000D02*
X73440000Y-48990000D01*
X73490000Y-50810000D02*
X73440000Y-50810000D01*
X76510000Y-48990000D02*
X76560000Y-48990000D01*
X76560000Y-48990000D02*
X76560000Y-50810000D01*
X76560000Y-50810000D02*
X76510000Y-50810000D01*
X73490000Y-51350000D02*
X73160000Y-51590000D01*
X73160000Y-51110000D01*
X73490000Y-51350000D01*
G36*
X73490000Y-51350000D02*
G01*
X73160000Y-51590000D01*
X73160000Y-51110000D01*
X73490000Y-51350000D01*
G37*
%TO.C,R34*%
X71262742Y-24977500D02*
X71737258Y-24977500D01*
X71262742Y-26022500D02*
X71737258Y-26022500D01*
%TO.C,TP10*%
X49700000Y-52000000D02*
G75*
G02*
X48300000Y-52000000I-700000J0D01*
G01*
X48300000Y-52000000D02*
G75*
G02*
X49700000Y-52000000I700000J0D01*
G01*
%TO.C,U7*%
X79390000Y-32890000D02*
X82610000Y-32890000D01*
X79390000Y-33015000D02*
X79390000Y-32890000D01*
X79390000Y-36110000D02*
X79390000Y-35985000D01*
X82610000Y-32890000D02*
X82610000Y-33015000D01*
X82610000Y-35985000D02*
X82610000Y-36110000D01*
X82610000Y-36110000D02*
X79390000Y-36110000D01*
X78840000Y-33010000D02*
X78600000Y-32680000D01*
X79080000Y-32680000D01*
X78840000Y-33010000D01*
G36*
X78840000Y-33010000D02*
G01*
X78600000Y-32680000D01*
X79080000Y-32680000D01*
X78840000Y-33010000D01*
G37*
%TO.C,TP14*%
X49700000Y-49500000D02*
G75*
G02*
X48300000Y-49500000I-700000J0D01*
G01*
X48300000Y-49500000D02*
G75*
G02*
X49700000Y-49500000I700000J0D01*
G01*
%TO.C,R25*%
X35262742Y-40977500D02*
X35737258Y-40977500D01*
X35262742Y-42022500D02*
X35737258Y-42022500D01*
%TO.C,R5*%
X32762742Y-44977500D02*
X33237258Y-44977500D01*
X32762742Y-46022500D02*
X33237258Y-46022500D01*
%TO.C,R39*%
X74262742Y-28977500D02*
X74737258Y-28977500D01*
X74262742Y-30022500D02*
X74737258Y-30022500D01*
%TO.C,R37*%
X90762742Y-8977500D02*
X91237258Y-8977500D01*
X90762742Y-10022500D02*
X91237258Y-10022500D01*
%TO.C,R22*%
X45762742Y-40977500D02*
X46237258Y-40977500D01*
X45762742Y-42022500D02*
X46237258Y-42022500D01*
%TO.C,R29*%
X88262742Y-11477500D02*
X88737258Y-11477500D01*
X88262742Y-12522500D02*
X88737258Y-12522500D01*
%TO.C,R23*%
X43262742Y-50977500D02*
X43737258Y-50977500D01*
X43262742Y-52022500D02*
X43737258Y-52022500D01*
%TO.C,C15*%
X75711252Y-11590000D02*
X74288748Y-11590000D01*
X75711252Y-13410000D02*
X74288748Y-13410000D01*
%TO.C,C4*%
X83840580Y-43590000D02*
X83559420Y-43590000D01*
X83840580Y-44610000D02*
X83559420Y-44610000D01*
%TO.C,C6*%
X76940580Y-40990000D02*
X76659420Y-40990000D01*
X76940580Y-42010000D02*
X76659420Y-42010000D01*
%TO.C,R4*%
X29237258Y-57977500D02*
X28762742Y-57977500D01*
X29237258Y-59022500D02*
X28762742Y-59022500D01*
%TO.C,J4*%
X46095000Y-45770000D02*
X46095000Y-45135000D01*
X46730000Y-45770000D02*
X46095000Y-45770000D01*
%TO.C,R10*%
X72762742Y-36977500D02*
X73237258Y-36977500D01*
X72762742Y-38022500D02*
X73237258Y-38022500D01*
%TO.C,R13*%
X83262742Y-41477500D02*
X83737258Y-41477500D01*
X83262742Y-42522500D02*
X83737258Y-42522500D01*
%TO.C,R38*%
X85262742Y-29477500D02*
X85737258Y-29477500D01*
X85262742Y-30522500D02*
X85737258Y-30522500D01*
%TO.C,TP9*%
X34700000Y-55000000D02*
G75*
G02*
X33300000Y-55000000I-700000J0D01*
G01*
X33300000Y-55000000D02*
G75*
G02*
X34700000Y-55000000I700000J0D01*
G01*
%TO.C,R7*%
X69262742Y-37477500D02*
X69737258Y-37477500D01*
X69262742Y-38522500D02*
X69737258Y-38522500D01*
%TO.C,C26*%
X39859420Y-50990000D02*
X40140580Y-50990000D01*
X39859420Y-52010000D02*
X40140580Y-52010000D01*
%TO.C,C22*%
X78238748Y-22265000D02*
X78761252Y-22265000D01*
X78238748Y-23735000D02*
X78761252Y-23735000D01*
%TO.C,C34*%
X78359420Y-30990000D02*
X78640580Y-30990000D01*
X78359420Y-32010000D02*
X78640580Y-32010000D01*
%TO.C,TP3*%
X55700000Y-53000000D02*
G75*
G02*
X54300000Y-53000000I-700000J0D01*
G01*
X54300000Y-53000000D02*
G75*
G02*
X55700000Y-53000000I700000J0D01*
G01*
%TO.C,R27*%
X70262742Y-13977500D02*
X70737258Y-13977500D01*
X70262742Y-15022500D02*
X70737258Y-15022500D01*
%TO.C,D2*%
X90500000Y-18860000D02*
X90500000Y-14850000D01*
X90500000Y-18860000D02*
X92500000Y-18860000D01*
X92500000Y-18860000D02*
X92500000Y-14850000D01*
%TO.C,C11*%
X72359420Y-41490000D02*
X72640580Y-41490000D01*
X72359420Y-42510000D02*
X72640580Y-42510000D01*
%TO.C,TP1*%
X47700000Y-53000000D02*
G75*
G02*
X46300000Y-53000000I-700000J0D01*
G01*
X46300000Y-53000000D02*
G75*
G02*
X47700000Y-53000000I700000J0D01*
G01*
%TO.C,C27*%
X36359420Y-44990000D02*
X36640580Y-44990000D01*
X36359420Y-46010000D02*
X36640580Y-46010000D01*
%TO.C,R32*%
X74262742Y-24477500D02*
X74737258Y-24477500D01*
X74262742Y-25522500D02*
X74737258Y-25522500D01*
%TO.C,C17*%
X81738748Y-24765000D02*
X82261252Y-24765000D01*
X81738748Y-26235000D02*
X82261252Y-26235000D01*
%TO.C,TP17*%
X53700000Y-54000000D02*
G75*
G02*
X52300000Y-54000000I-700000J0D01*
G01*
X52300000Y-54000000D02*
G75*
G02*
X53700000Y-54000000I700000J0D01*
G01*
%TO.C,C33*%
X77359420Y-36490000D02*
X77640580Y-36490000D01*
X77359420Y-37510000D02*
X77640580Y-37510000D01*
%TO.C,C30*%
X39738748Y-46765000D02*
X40261252Y-46765000D01*
X39738748Y-48235000D02*
X40261252Y-48235000D01*
%TO.C,TP21*%
X53700000Y-49000000D02*
G75*
G02*
X52300000Y-49000000I-700000J0D01*
G01*
X52300000Y-49000000D02*
G75*
G02*
X53700000Y-49000000I700000J0D01*
G01*
%TO.C,TP16*%
X43700000Y-58000000D02*
G75*
G02*
X42300000Y-58000000I-700000J0D01*
G01*
X42300000Y-58000000D02*
G75*
G02*
X43700000Y-58000000I700000J0D01*
G01*
%TO.C,TP18*%
X53700000Y-51500000D02*
G75*
G02*
X52300000Y-51500000I-700000J0D01*
G01*
X52300000Y-51500000D02*
G75*
G02*
X53700000Y-51500000I700000J0D01*
G01*
%TO.C,R14*%
X65262742Y-45477500D02*
X65737258Y-45477500D01*
X65262742Y-46522500D02*
X65737258Y-46522500D01*
%TO.C,U1*%
X350000Y-41300000D02*
X6550000Y-41300000D01*
X350000Y-59700000D02*
X350000Y-41300000D01*
X350000Y-59700000D02*
X6550000Y-59700000D01*
X25200000Y-59700000D02*
X26200000Y-59700000D01*
X26200000Y-41300000D02*
X25200000Y-41300000D01*
X26200000Y-41300000D02*
X26200000Y-42800000D01*
X26200000Y-59700000D02*
X26200000Y-58200000D01*
X7225000Y-59700000D02*
X7225000Y-60200000D01*
X6725000Y-59700000D01*
X7225000Y-59700000D01*
G36*
X7225000Y-60200000D02*
G01*
X6725000Y-59700000D01*
X7225000Y-59700000D01*
X7225000Y-60200000D01*
G37*
%TO.C,R21*%
X36262742Y-50977500D02*
X36737258Y-50977500D01*
X36262742Y-52022500D02*
X36737258Y-52022500D01*
%TO.C,TP7*%
X53700000Y-45000000D02*
G75*
G02*
X52300000Y-45000000I-700000J0D01*
G01*
X52300000Y-45000000D02*
G75*
G02*
X53700000Y-45000000I700000J0D01*
G01*
%TO.C,C21*%
X85738748Y-24765000D02*
X86261252Y-24765000D01*
X85738748Y-26235000D02*
X86261252Y-26235000D01*
%TO.C,C12*%
X73859420Y-14490000D02*
X74140580Y-14490000D01*
X73859420Y-15510000D02*
X74140580Y-15510000D01*
%TO.C,R1*%
X82762742Y-52477500D02*
X83237258Y-52477500D01*
X82762742Y-53522500D02*
X83237258Y-53522500D01*
%TD*%
%LPC*%
D12*
%TO.C,R36*%
X84675000Y-32000000D03*
X86325000Y-32000000D03*
%TD*%
D13*
%TO.C,C10*%
X80050000Y-49500000D03*
X81950000Y-49500000D03*
%TD*%
D14*
%TO.C,C25*%
X42725000Y-47500000D03*
X44275000Y-47500000D03*
%TD*%
D13*
%TO.C,C8*%
X64850000Y-42300000D03*
X66750000Y-42300000D03*
%TD*%
D12*
%TO.C,R26*%
X35675000Y-53500000D03*
X37325000Y-53500000D03*
%TD*%
D15*
%TO.C,U6*%
X72862500Y-7550000D03*
X72862500Y-8500000D03*
X72862500Y-9450000D03*
X75137500Y-9450000D03*
X75137500Y-8500000D03*
X75137500Y-7550000D03*
%TD*%
D14*
%TO.C,C14*%
X87725000Y-14000000D03*
X89275000Y-14000000D03*
%TD*%
D15*
%TO.C,U5*%
X72862500Y-33550000D03*
X72862500Y-34500000D03*
X72862500Y-35450000D03*
X75137500Y-35450000D03*
X75137500Y-34500000D03*
X75137500Y-33550000D03*
%TD*%
D16*
%TO.C,U3*%
X68100000Y-44500000D03*
X68100000Y-45000000D03*
X68100000Y-45500000D03*
X68100000Y-46000000D03*
X68100000Y-46500000D03*
D17*
X69750000Y-46500000D03*
X69750000Y-46000000D03*
D18*
X69550000Y-45500000D03*
D17*
X69750000Y-45000000D03*
X69750000Y-44500000D03*
%TD*%
D13*
%TO.C,C19*%
X77050000Y-25500000D03*
X78950000Y-25500000D03*
%TD*%
D19*
%TO.C,TP2*%
X51000000Y-48000000D03*
%TD*%
D20*
%TO.C,D1*%
X81350000Y-21500000D03*
X84650000Y-21500000D03*
%TD*%
D14*
%TO.C,C7*%
X71725000Y-40000000D03*
X73275000Y-40000000D03*
%TD*%
D21*
%TO.C,H1*%
X37000000Y-58200000D03*
%TD*%
D12*
%TO.C,R6*%
X32175000Y-49500000D03*
X33825000Y-49500000D03*
%TD*%
D14*
%TO.C,C3*%
X42725000Y-49500000D03*
X44275000Y-49500000D03*
%TD*%
D22*
%TO.C,R19*%
X78325000Y-15500000D03*
X76675000Y-15500000D03*
%TD*%
D12*
%TO.C,R8*%
X84775000Y-50000000D03*
X86425000Y-50000000D03*
%TD*%
D23*
%TO.C,J3*%
X69000000Y-28500000D03*
X69000000Y-29500000D03*
X69000000Y-30500000D03*
D24*
X65125000Y-27200000D03*
X65125000Y-31800000D03*
%TD*%
D12*
%TO.C,R2*%
X86175000Y-53000000D03*
X87825000Y-53000000D03*
%TD*%
D14*
%TO.C,C9*%
X70225000Y-48700000D03*
X71775000Y-48700000D03*
%TD*%
D13*
%TO.C,C20*%
X85050000Y-28000000D03*
X86950000Y-28000000D03*
%TD*%
%TO.C,C24*%
X81050000Y-30500000D03*
X82950000Y-30500000D03*
%TD*%
D25*
%TO.C,Q2*%
X84062500Y-37550000D03*
X84062500Y-39450000D03*
X85937500Y-38500000D03*
%TD*%
D12*
%TO.C,R9*%
X67175000Y-52500000D03*
X68825000Y-52500000D03*
%TD*%
D19*
%TO.C,TP8*%
X54000000Y-47000000D03*
%TD*%
D12*
%TO.C,R16*%
X86175000Y-45500000D03*
X87825000Y-45500000D03*
%TD*%
%TO.C,R35*%
X74175000Y-31500000D03*
X75825000Y-31500000D03*
%TD*%
D22*
%TO.C,R3*%
X29825000Y-56500000D03*
X28175000Y-56500000D03*
%TD*%
D13*
%TO.C,C31*%
X39050000Y-45000000D03*
X40950000Y-45000000D03*
%TD*%
D26*
%TO.C,C5*%
X77750000Y-39000000D03*
X75850000Y-39000000D03*
%TD*%
D14*
%TO.C,C13*%
X72725000Y-17000000D03*
X74275000Y-17000000D03*
%TD*%
D27*
%TO.C,L2*%
X73500000Y-44315000D03*
X73500000Y-46685000D03*
%TD*%
D12*
%TO.C,R12*%
X82675000Y-47500000D03*
X84325000Y-47500000D03*
%TD*%
D28*
%TO.C,L1*%
X78650000Y-11500000D03*
X81350000Y-11500000D03*
%TD*%
D13*
%TO.C,C18*%
X81050000Y-28000000D03*
X82950000Y-28000000D03*
%TD*%
D29*
%TO.C,SW2*%
X97600000Y-51675000D03*
X97600000Y-45925000D03*
X101600000Y-51675000D03*
X101600000Y-45925000D03*
%TD*%
D14*
%TO.C,C29*%
X41725000Y-43000000D03*
X43275000Y-43000000D03*
%TD*%
D21*
%TO.C,H4*%
X92000000Y-58200000D03*
%TD*%
D22*
%TO.C,R15*%
X66325000Y-48000000D03*
X64675000Y-48000000D03*
%TD*%
D30*
%TO.C,U2*%
X78900000Y-44700000D03*
X78900000Y-45100000D03*
X78900000Y-45500000D03*
X78900000Y-45900000D03*
X78900000Y-46300000D03*
X81100000Y-46300000D03*
X81100000Y-45900000D03*
X81100000Y-45500000D03*
X81100000Y-45100000D03*
X81100000Y-44700000D03*
D31*
X80000000Y-45500000D03*
%TD*%
D32*
%TO.C,D4*%
X85025000Y-58500000D03*
X86975000Y-58500000D03*
D33*
X86315000Y-58255000D03*
X85685000Y-58255000D03*
%TD*%
D12*
%TO.C,R11*%
X68175000Y-40000000D03*
X69825000Y-40000000D03*
%TD*%
D19*
%TO.C,TP19*%
X41000000Y-56500000D03*
%TD*%
D12*
%TO.C,R28*%
X77175000Y-8000000D03*
X78825000Y-8000000D03*
%TD*%
%TO.C,R30*%
X70175000Y-21000000D03*
X71825000Y-21000000D03*
%TD*%
D14*
%TO.C,C32*%
X80225000Y-37500000D03*
X81775000Y-37500000D03*
%TD*%
D22*
%TO.C,R20*%
X79825000Y-18500000D03*
X78175000Y-18500000D03*
%TD*%
D12*
%TO.C,R31*%
X69175000Y-16500000D03*
X70825000Y-16500000D03*
%TD*%
%TO.C,R24*%
X39175000Y-53500000D03*
X40825000Y-53500000D03*
%TD*%
%TO.C,R33*%
X42675000Y-53500000D03*
X44325000Y-53500000D03*
%TD*%
D13*
%TO.C,C23*%
X77050000Y-28000000D03*
X78950000Y-28000000D03*
%TD*%
D34*
%TO.C,C16*%
X87975000Y-18000000D03*
X85025000Y-18000000D03*
%TD*%
D35*
%TO.C,D3*%
X85500000Y-14150000D03*
X85500000Y-10850000D03*
%TD*%
D14*
%TO.C,C28*%
X35725000Y-49500000D03*
X37275000Y-49500000D03*
%TD*%
D12*
%TO.C,R18*%
X70175000Y-19000000D03*
X71825000Y-19000000D03*
%TD*%
D25*
%TO.C,Q1*%
X81062500Y-14550000D03*
X81062500Y-16450000D03*
X82937500Y-15500000D03*
%TD*%
D36*
%TO.C,U4*%
X74050000Y-51037500D03*
X75000000Y-51037500D03*
X75950000Y-51037500D03*
X75950000Y-48762500D03*
X75000000Y-48762500D03*
X74050000Y-48762500D03*
%TD*%
D12*
%TO.C,R34*%
X70675000Y-25500000D03*
X72325000Y-25500000D03*
%TD*%
D19*
%TO.C,TP10*%
X49000000Y-52000000D03*
%TD*%
D37*
%TO.C,U7*%
X78887500Y-33525000D03*
X78887500Y-34175000D03*
X78887500Y-34825000D03*
X78887500Y-35475000D03*
X83112500Y-35475000D03*
X83112500Y-34825000D03*
X83112500Y-34175000D03*
X83112500Y-33525000D03*
%TD*%
D19*
%TO.C,TP14*%
X49000000Y-49500000D03*
%TD*%
D12*
%TO.C,R25*%
X34675000Y-41500000D03*
X36325000Y-41500000D03*
%TD*%
%TO.C,R5*%
X32175000Y-45500000D03*
X33825000Y-45500000D03*
%TD*%
%TO.C,R39*%
X73675000Y-29500000D03*
X75325000Y-29500000D03*
%TD*%
D38*
%TO.C,J2*%
X90180000Y-35250000D03*
X90180000Y-34750000D03*
X90180000Y-34250000D03*
X90180000Y-33750000D03*
X90180000Y-33250000D03*
X90180000Y-32750000D03*
X90180000Y-32250000D03*
X90180000Y-31750000D03*
X90180000Y-31250000D03*
X90180000Y-30750000D03*
X90180000Y-30250000D03*
X90180000Y-29750000D03*
X90180000Y-29250000D03*
X90180000Y-28750000D03*
X90180000Y-28250000D03*
X90180000Y-27750000D03*
X90180000Y-27250000D03*
X90180000Y-26750000D03*
X90180000Y-26250000D03*
X90180000Y-25750000D03*
X90180000Y-25250000D03*
X90180000Y-24750000D03*
X90180000Y-24250000D03*
X90180000Y-23750000D03*
D39*
X92830000Y-36040000D03*
X92830000Y-22960000D03*
%TD*%
D12*
%TO.C,R37*%
X90175000Y-9500000D03*
X91825000Y-9500000D03*
%TD*%
%TO.C,R22*%
X45175000Y-41500000D03*
X46825000Y-41500000D03*
%TD*%
%TO.C,R29*%
X87675000Y-12000000D03*
X89325000Y-12000000D03*
%TD*%
%TO.C,R23*%
X42675000Y-51500000D03*
X44325000Y-51500000D03*
%TD*%
D34*
%TO.C,C15*%
X76475000Y-12500000D03*
X73525000Y-12500000D03*
%TD*%
D40*
%TO.C,C4*%
X84475000Y-44100000D03*
X82925000Y-44100000D03*
%TD*%
%TO.C,C6*%
X77575000Y-41500000D03*
X76025000Y-41500000D03*
%TD*%
D22*
%TO.C,R4*%
X29825000Y-58500000D03*
X28175000Y-58500000D03*
%TD*%
D41*
%TO.C,J4*%
X45460000Y-44500000D03*
X50540000Y-43484000D03*
X50540000Y-45516000D03*
D42*
X46730000Y-45135000D03*
X46730000Y-43865000D03*
X48000000Y-45135000D03*
X48000000Y-43865000D03*
X49270000Y-45135000D03*
X49270000Y-43865000D03*
%TD*%
D12*
%TO.C,R10*%
X72175000Y-37500000D03*
X73825000Y-37500000D03*
%TD*%
%TO.C,R13*%
X82675000Y-42000000D03*
X84325000Y-42000000D03*
%TD*%
%TO.C,R38*%
X84675000Y-30000000D03*
X86325000Y-30000000D03*
%TD*%
D19*
%TO.C,TP9*%
X34000000Y-55000000D03*
%TD*%
D12*
%TO.C,R7*%
X68675000Y-38000000D03*
X70325000Y-38000000D03*
%TD*%
D21*
%TO.C,H3*%
X97000000Y-700000D03*
%TD*%
D14*
%TO.C,C26*%
X39225000Y-51500000D03*
X40775000Y-51500000D03*
%TD*%
D13*
%TO.C,C22*%
X77550000Y-23000000D03*
X79450000Y-23000000D03*
%TD*%
D14*
%TO.C,C34*%
X77725000Y-31500000D03*
X79275000Y-31500000D03*
%TD*%
D19*
%TO.C,TP3*%
X55000000Y-53000000D03*
%TD*%
D12*
%TO.C,R27*%
X69675000Y-14500000D03*
X71325000Y-14500000D03*
%TD*%
D35*
%TO.C,D2*%
X91500000Y-18150000D03*
X91500000Y-14850000D03*
%TD*%
D14*
%TO.C,C11*%
X71725000Y-42000000D03*
X73275000Y-42000000D03*
%TD*%
D19*
%TO.C,TP1*%
X47000000Y-53000000D03*
%TD*%
D14*
%TO.C,C27*%
X35725000Y-45500000D03*
X37275000Y-45500000D03*
%TD*%
D21*
%TO.C,H2*%
X66000000Y-700000D03*
%TD*%
D12*
%TO.C,R32*%
X73675000Y-25000000D03*
X75325000Y-25000000D03*
%TD*%
D13*
%TO.C,C17*%
X81050000Y-25500000D03*
X82950000Y-25500000D03*
%TD*%
D19*
%TO.C,TP17*%
X53000000Y-54000000D03*
%TD*%
D43*
%TO.C,J1*%
X72110000Y-55500000D03*
X77890000Y-55500000D03*
D44*
X71750000Y-54055000D03*
X72550000Y-54055000D03*
D45*
X73750000Y-54055000D03*
X74750000Y-54055000D03*
X75250000Y-54055000D03*
X76250000Y-54055000D03*
D44*
X77450000Y-54055000D03*
X78250000Y-54055000D03*
X78250000Y-54055000D03*
X77450000Y-54055000D03*
D45*
X76750000Y-54055000D03*
X75750000Y-54055000D03*
X74250000Y-54055000D03*
X73250000Y-54055000D03*
D44*
X72550000Y-54055000D03*
X71750000Y-54055000D03*
D46*
X70680000Y-54970000D03*
D47*
X70680000Y-59150000D03*
D46*
X79320000Y-54970000D03*
D47*
X79320000Y-59150000D03*
%TD*%
D14*
%TO.C,C33*%
X76725000Y-37000000D03*
X78275000Y-37000000D03*
%TD*%
D13*
%TO.C,C30*%
X39050000Y-47500000D03*
X40950000Y-47500000D03*
%TD*%
D19*
%TO.C,TP21*%
X53000000Y-49000000D03*
%TD*%
D29*
%TO.C,SW1*%
X97600000Y-16875000D03*
X97600000Y-11125000D03*
X101600000Y-16875000D03*
X101600000Y-11125000D03*
%TD*%
D19*
%TO.C,TP16*%
X43000000Y-58000000D03*
%TD*%
%TO.C,TP18*%
X53000000Y-51500000D03*
%TD*%
D12*
%TO.C,R14*%
X64675000Y-46000000D03*
X66325000Y-46000000D03*
%TD*%
D31*
%TO.C,U1*%
X7990000Y-59250000D03*
X9260000Y-59250000D03*
X10530000Y-59250000D03*
X11800000Y-59250000D03*
X13070000Y-59250000D03*
X14340000Y-59250000D03*
X15610000Y-59250000D03*
X16880000Y-59250000D03*
X18150000Y-59250000D03*
X19420000Y-59250000D03*
X20690000Y-59250000D03*
X21960000Y-59250000D03*
X23230000Y-59250000D03*
X24500000Y-59250000D03*
D48*
X25750000Y-57485000D03*
X25750000Y-56215000D03*
X25750000Y-54945000D03*
X25750000Y-53675000D03*
X25750000Y-52405000D03*
X25750000Y-51135000D03*
X25750000Y-49865000D03*
X25750000Y-48595000D03*
X25750000Y-47325000D03*
X25750000Y-46055000D03*
X25750000Y-44785000D03*
X25750000Y-43515000D03*
D31*
X24500000Y-41750000D03*
X23230000Y-41750000D03*
X21960000Y-41750000D03*
X20690000Y-41750000D03*
X19420000Y-41750000D03*
X18150000Y-41750000D03*
X16880000Y-41750000D03*
X15610000Y-41750000D03*
X14340000Y-41750000D03*
X13070000Y-41750000D03*
X11800000Y-41750000D03*
X10530000Y-41750000D03*
X9260000Y-41750000D03*
X7990000Y-41750000D03*
D49*
X15710000Y-52000000D03*
%TD*%
D12*
%TO.C,R21*%
X35675000Y-51500000D03*
X37325000Y-51500000D03*
%TD*%
D19*
%TO.C,TP7*%
X53000000Y-45000000D03*
%TD*%
D13*
%TO.C,C21*%
X85050000Y-25500000D03*
X86950000Y-25500000D03*
%TD*%
D14*
%TO.C,C12*%
X73225000Y-15000000D03*
X74775000Y-15000000D03*
%TD*%
D12*
%TO.C,R1*%
X82175000Y-53000000D03*
X83825000Y-53000000D03*
%TD*%
%LPD*%
M02*
