%TF.GenerationSoftware,KiCad,Pcbnew,10.0.5*%
%TF.CreationDate,2026-09-10T00:18:30+02:00*%
%TF.ProjectId,cicala_rev_a,63696361-6c61-45f7-9265-765f612e6b69,A0*%
%TF.SameCoordinates,Original*%
%TF.FileFunction,Paste,Bot*%
%TF.FilePolarity,Positive*%
%FSLAX46Y46*%
G04 Gerber Fmt 4.6, Leading zero omitted, Abs format (unit mm)*
G04 Created by KiCad (PCBNEW 10.0.5) date 2026-09-10 00:18:30*
%MOMM*%
%LPD*%
G01*
G04 APERTURE LIST*
G04 Aperture macros list*
%AMRoundRect*
0 Rectangle with rounded corners*
0 $1 Rounding radius*
0 $2 $3 $4 $5 $6 $7 $8 $9 X,Y pos of 4 corners*
0 Add a 4 corners polygon primitive as box body*
4,1,4,$2,$3,$4,$5,$6,$7,$8,$9,$2,$3,0*
0 Add four circle primitives for the rounded corners*
1,1,$1+$1,$2,$3*
1,1,$1+$1,$4,$5*
1,1,$1+$1,$6,$7*
1,1,$1+$1,$8,$9*
0 Add four rect primitives between the rounded corners*
20,1,$1+$1,$2,$3,$4,$5,0*
20,1,$1+$1,$4,$5,$6,$7,0*
20,1,$1+$1,$6,$7,$8,$9,0*
20,1,$1+$1,$8,$9,$2,$3,0*%
G04 Aperture macros list end*
%ADD10RoundRect,0.200000X-0.200000X-0.275000X0.200000X-0.275000X0.200000X0.275000X-0.200000X0.275000X0*%
%ADD11RoundRect,0.250000X-0.475000X0.250000X-0.475000X-0.250000X0.475000X-0.250000X0.475000X0.250000X0*%
%ADD12RoundRect,0.225000X0.250000X-0.225000X0.250000X0.225000X-0.250000X0.225000X-0.250000X-0.225000X0*%
%ADD13RoundRect,0.200000X0.275000X-0.200000X0.275000X0.200000X-0.275000X0.200000X-0.275000X-0.200000X0*%
%ADD14RoundRect,0.150000X-0.512500X-0.150000X0.512500X-0.150000X0.512500X0.150000X-0.512500X0.150000X0*%
%ADD15RoundRect,0.050000X-0.225000X-0.075000X0.225000X-0.075000X0.225000X0.075000X-0.225000X0.075000X0*%
%ADD16RoundRect,0.050000X-0.250000X-0.075000X0.250000X-0.075000X0.250000X0.075000X-0.250000X0.075000X0*%
%ADD17RoundRect,0.050000X-0.400000X-0.075000X0.400000X-0.075000X0.400000X0.075000X-0.400000X0.075000X0*%
%ADD18RoundRect,0.200000X-0.275000X0.200000X-0.275000X-0.200000X0.275000X-0.200000X0.275000X0.200000X0*%
%ADD19RoundRect,0.250000X1.500000X-0.250000X1.500000X0.250000X-1.500000X0.250000X-1.500000X-0.250000X0*%
%ADD20RoundRect,0.250001X1.449999X-0.499999X1.449999X0.499999X-1.449999X0.499999X-1.449999X-0.499999X0*%
%ADD21RoundRect,0.150000X-0.587500X-0.150000X0.587500X-0.150000X0.587500X0.150000X-0.587500X0.150000X0*%
%ADD22RoundRect,0.250000X0.475000X-0.250000X0.475000X0.250000X-0.475000X0.250000X-0.475000X-0.250000X0*%
%ADD23RoundRect,0.098000X1.602000X-0.392000X1.602000X0.392000X-1.602000X0.392000X-1.602000X-0.392000X0*%
%ADD24RoundRect,0.210000X-0.210000X-0.495000X0.210000X-0.495000X0.210000X0.495000X-0.210000X0.495000X0*%
%ADD25RoundRect,0.050000X-0.325000X-0.050000X0.325000X-0.050000X0.325000X0.050000X-0.325000X0.050000X0*%
%ADD26RoundRect,0.067500X0.157500X0.292500X-0.157500X0.292500X-0.157500X-0.292500X0.157500X-0.292500X0*%
%ADD27RoundRect,0.034500X0.155500X0.080500X-0.155500X0.080500X-0.155500X-0.080500X0.155500X-0.080500X0*%
%ADD28RoundRect,0.150000X0.150000X-0.512500X0.150000X0.512500X-0.150000X0.512500X-0.150000X-0.512500X0*%
%ADD29RoundRect,0.125000X-0.687500X-0.125000X0.687500X-0.125000X0.687500X0.125000X-0.687500X0.125000X0*%
%ADD30RoundRect,0.225000X-0.250000X0.225000X-0.250000X-0.225000X0.250000X-0.225000X0.250000X0.225000X0*%
%ADD31RoundRect,0.225000X-0.225000X-0.250000X0.225000X-0.250000X0.225000X0.250000X-0.225000X0.250000X0*%
%ADD32RoundRect,0.150000X0.150000X0.575000X-0.150000X0.575000X-0.150000X-0.575000X0.150000X-0.575000X0*%
%ADD33RoundRect,0.075000X0.075000X0.650000X-0.075000X0.650000X-0.075000X-0.650000X0.075000X-0.650000X0*%
%ADD34R,0.900000X0.900000*%
%ADD35R,0.900000X1.500000*%
%ADD36R,1.500000X0.900000*%
G04 APERTURE END LIST*
D10*
%TO.C,R36*%
X49175000Y-22500000D03*
X50825000Y-22500000D03*
%TD*%
D11*
%TO.C,C10*%
X73000000Y-21250000D03*
X73000000Y-23150000D03*
%TD*%
D12*
%TO.C,C25*%
X14800000Y-2975000D03*
X14800000Y-1425000D03*
%TD*%
D11*
%TO.C,C8*%
X66200000Y-18750000D03*
X66200000Y-20650000D03*
%TD*%
D13*
%TO.C,R26*%
X18850000Y-8675000D03*
X18850000Y-7025000D03*
%TD*%
D14*
%TO.C,U5*%
X67862500Y-27450000D03*
X67862500Y-26500000D03*
X67862500Y-25550000D03*
X70137500Y-25550000D03*
X70137500Y-26500000D03*
X70137500Y-27450000D03*
%TD*%
D15*
%TO.C,U3*%
X69175000Y-18000000D03*
X69925000Y-18000000D03*
D16*
X68100000Y-19000000D03*
X68100000Y-18500000D03*
X68100000Y-18000000D03*
X68100000Y-17500000D03*
X68100000Y-17000000D03*
D17*
X69750000Y-17000000D03*
X69750000Y-17500000D03*
X69750000Y-18500000D03*
X69750000Y-19000000D03*
%TD*%
D12*
%TO.C,C7*%
X32700000Y-38775000D03*
X32700000Y-37225000D03*
%TD*%
D13*
%TO.C,R6*%
X23900000Y-3025000D03*
X23900000Y-1375000D03*
%TD*%
D12*
%TO.C,C3*%
X21700000Y-2975000D03*
X21700000Y-1425000D03*
%TD*%
D18*
%TO.C,R8*%
X75200000Y-11875000D03*
X75200000Y-13525000D03*
%TD*%
D19*
%TO.C,J3*%
X73450000Y-38500000D03*
X73450000Y-36500000D03*
X73450000Y-34500000D03*
D20*
X67700000Y-40850000D03*
X67700000Y-32150000D03*
%TD*%
D13*
%TO.C,R2*%
X35600000Y-40525000D03*
X35600000Y-38875000D03*
%TD*%
D12*
%TO.C,C9*%
X71500000Y-16425000D03*
X71500000Y-14875000D03*
%TD*%
D21*
%TO.C,Q2*%
X58062500Y-28450000D03*
X58062500Y-26550000D03*
X59937500Y-27500000D03*
%TD*%
D13*
%TO.C,R9*%
X66500000Y-6425000D03*
X66500000Y-4775000D03*
%TD*%
%TO.C,R16*%
X63500000Y-35425000D03*
X63500000Y-33775000D03*
%TD*%
D10*
%TO.C,R35*%
X49175000Y-20500000D03*
X50825000Y-20500000D03*
%TD*%
D18*
%TO.C,R3*%
X22800000Y-4675000D03*
X22800000Y-6325000D03*
%TD*%
D22*
%TO.C,C31*%
X50300000Y-42750000D03*
X50300000Y-40850000D03*
%TD*%
D11*
%TO.C,C5*%
X66200000Y-11900000D03*
X66200000Y-13800000D03*
%TD*%
D23*
%TO.C,L2*%
X74550000Y-19185000D03*
X74550000Y-16815000D03*
%TD*%
D13*
%TO.C,R12*%
X41500000Y-35425000D03*
X41500000Y-33775000D03*
%TD*%
D12*
%TO.C,C29*%
X12500000Y-8625000D03*
X12500000Y-7075000D03*
%TD*%
%TO.C,C2*%
X27300000Y-8675000D03*
X27300000Y-7125000D03*
%TD*%
D10*
%TO.C,R15*%
X68175000Y-14900000D03*
X69825000Y-14900000D03*
%TD*%
D24*
%TO.C,U2*%
X69000000Y-10500000D03*
D25*
X67900000Y-11300000D03*
X67900000Y-10900000D03*
X67900000Y-10500000D03*
X67900000Y-10100000D03*
X67900000Y-9700000D03*
X70100000Y-9700000D03*
X70100000Y-10100000D03*
X70100000Y-10500000D03*
X70100000Y-10900000D03*
X70100000Y-11300000D03*
%TD*%
D26*
%TO.C,D4*%
X49975000Y-47800000D03*
X48025000Y-47800000D03*
D27*
X48685000Y-47555000D03*
X49315000Y-47555000D03*
%TD*%
D13*
%TO.C,R11*%
X39300000Y-35425000D03*
X39300000Y-33775000D03*
%TD*%
D12*
%TO.C,C32*%
X59700000Y-21275000D03*
X59700000Y-19725000D03*
%TD*%
D13*
%TO.C,R24*%
X30500000Y-35425000D03*
X30500000Y-33775000D03*
%TD*%
%TO.C,R33*%
X45900000Y-46025000D03*
X45900000Y-44375000D03*
%TD*%
D12*
%TO.C,C28*%
X8500000Y-8625000D03*
X8500000Y-7075000D03*
%TD*%
D28*
%TO.C,U4*%
X39950000Y-40037500D03*
X39000000Y-40037500D03*
X38050000Y-40037500D03*
X38050000Y-37762500D03*
X39000000Y-37762500D03*
X39950000Y-37762500D03*
%TD*%
D13*
%TO.C,R34*%
X76700000Y-35425000D03*
X76700000Y-33775000D03*
%TD*%
D29*
%TO.C,U7*%
X52887500Y-23475000D03*
X52887500Y-22825000D03*
X52887500Y-22175000D03*
X52887500Y-21525000D03*
X57112500Y-21525000D03*
X57112500Y-22175000D03*
X57112500Y-22825000D03*
X57112500Y-23475000D03*
%TD*%
D13*
%TO.C,R25*%
X16950000Y-8675000D03*
X16950000Y-7025000D03*
%TD*%
%TO.C,R5*%
X26100000Y-3025000D03*
X26100000Y-1375000D03*
%TD*%
%TO.C,R39*%
X63700000Y-27325000D03*
X63700000Y-25675000D03*
%TD*%
D10*
%TO.C,R37*%
X49175000Y-24500000D03*
X50825000Y-24500000D03*
%TD*%
D13*
%TO.C,R22*%
X19200000Y-3025000D03*
X19200000Y-1375000D03*
%TD*%
%TO.C,R23*%
X32700000Y-35425000D03*
X32700000Y-33775000D03*
%TD*%
D30*
%TO.C,C4*%
X71900000Y-11725000D03*
X71900000Y-13275000D03*
%TD*%
D12*
%TO.C,C6*%
X65850000Y-10125000D03*
X65850000Y-8575000D03*
%TD*%
D18*
%TO.C,R4*%
X25200000Y-4675000D03*
X25200000Y-6325000D03*
%TD*%
D13*
%TO.C,R10*%
X66500000Y-3025000D03*
X66500000Y-1375000D03*
%TD*%
%TO.C,R13*%
X68700000Y-6425000D03*
X68700000Y-4775000D03*
%TD*%
D10*
%TO.C,R38*%
X59175000Y-23500000D03*
X60825000Y-23500000D03*
%TD*%
%TO.C,R7*%
X72675000Y-10100000D03*
X74325000Y-10100000D03*
%TD*%
D12*
%TO.C,C26*%
X17000000Y-2975000D03*
X17000000Y-1425000D03*
%TD*%
%TO.C,C1*%
X20700000Y-8675000D03*
X20700000Y-7125000D03*
%TD*%
%TO.C,C34*%
X65500000Y-26275000D03*
X65500000Y-24725000D03*
%TD*%
D31*
%TO.C,C11*%
X68225000Y-20900000D03*
X69775000Y-20900000D03*
%TD*%
D12*
%TO.C,C27*%
X10500000Y-8625000D03*
X10500000Y-7075000D03*
%TD*%
D32*
%TO.C,J1*%
X42250000Y-42555000D03*
X41450000Y-42555000D03*
D33*
X40250000Y-42555000D03*
X39250000Y-42555000D03*
X38750000Y-42555000D03*
X37750000Y-42555000D03*
D32*
X36550000Y-42555000D03*
X35750000Y-42555000D03*
X35750000Y-42555000D03*
X36550000Y-42555000D03*
D33*
X37250000Y-42555000D03*
X38250000Y-42555000D03*
X39750000Y-42555000D03*
X40750000Y-42555000D03*
D32*
X41450000Y-42555000D03*
X42250000Y-42555000D03*
%TD*%
D12*
%TO.C,C33*%
X55700000Y-27775000D03*
X55700000Y-26225000D03*
%TD*%
D22*
%TO.C,C30*%
X15000000Y-8650000D03*
X15000000Y-6750000D03*
%TD*%
D18*
%TO.C,R14*%
X66200000Y-15425000D03*
X66200000Y-17075000D03*
%TD*%
D34*
%TO.C,U1*%
X17110000Y-16600000D03*
X15710000Y-16600000D03*
X14310000Y-16600000D03*
X17110000Y-18000000D03*
X15710000Y-18000000D03*
X14310000Y-18000000D03*
X17110000Y-19400000D03*
X15710000Y-19400000D03*
X14310000Y-19400000D03*
D35*
X7990000Y-10750000D03*
X9260000Y-10750000D03*
X10530000Y-10750000D03*
X11800000Y-10750000D03*
X13070000Y-10750000D03*
X14340000Y-10750000D03*
X15610000Y-10750000D03*
X16880000Y-10750000D03*
X18150000Y-10750000D03*
X19420000Y-10750000D03*
X20690000Y-10750000D03*
X21960000Y-10750000D03*
X23230000Y-10750000D03*
X24500000Y-10750000D03*
D36*
X25750000Y-12515000D03*
X25750000Y-13785000D03*
X25750000Y-15055000D03*
X25750000Y-16325000D03*
X25750000Y-17595000D03*
X25750000Y-18865000D03*
X25750000Y-20135000D03*
X25750000Y-21405000D03*
X25750000Y-22675000D03*
X25750000Y-23945000D03*
X25750000Y-25215000D03*
X25750000Y-26485000D03*
D35*
X24500000Y-28250000D03*
X23230000Y-28250000D03*
X21960000Y-28250000D03*
X20690000Y-28250000D03*
X19420000Y-28250000D03*
X18150000Y-28250000D03*
X16880000Y-28250000D03*
X15610000Y-28250000D03*
X14340000Y-28250000D03*
X13070000Y-28250000D03*
X11800000Y-28250000D03*
X10530000Y-28250000D03*
X9260000Y-28250000D03*
X7990000Y-28250000D03*
%TD*%
D13*
%TO.C,R21*%
X12600000Y-3025000D03*
X12600000Y-1375000D03*
%TD*%
%TO.C,R1*%
X42200000Y-40525000D03*
X42200000Y-38875000D03*
%TD*%
M02*
