solid OpenSCAD_Model
  facet normal 0.9807852832718771 0 0.19509030759446713
    outer loop
      vertex 2.948888741433615 12.5 0.38822856545448303
      vertex 2.987167291343207 0 0.19578928500413895
      vertex 2.987167291343207 12.5 0.19578928500413895
    endloop
  endfacet
  facet normal 0.9807852832718771 0 0.19509030759446713
    outer loop
      vertex 2.948888741433615 12.5 0.38822856545448303
      vertex 2.948888741433615 0 0.38822856545448303
      vertex 2.987167291343207 0 0.19578928500413895
    endloop
  endfacet
  facet normal 0.9469301300366789 0 0.3214394637077385
    outer loop
      vertex 2.885819301009173 12.5 0.5740251466631889
      vertex 2.948888741433615 0 0.38822856545448303
      vertex 2.948888741433615 12.5 0.38822856545448303
    endloop
  endfacet
  facet normal 0.9469301300366789 0 0.3214394637077385
    outer loop
      vertex 2.885819301009173 12.5 0.5740251466631889
      vertex 2.885819301009173 0 0.5740251466631889
      vertex 2.948888741433615 0 0.38822856545448303
    endloop
  endfacet
  facet normal 0.8968727369300094 0 0.4422886995523108
    outer loop
      vertex 2.7990381047129578 12.5 0.75
      vertex 2.885819301009173 0 0.5740251466631889
      vertex 2.885819301009173 12.5 0.5740251466631889
    endloop
  endfacet
  facet normal 0.8968727369300094 0 0.4422886995523108
    outer loop
      vertex 2.7990381047129578 12.5 0.75
      vertex 2.7990381047129578 0 0.75
      vertex 2.885819301009173 0 0.5740251466631889
    endloop
  endfacet
  facet normal 0.8314696119753574 0 0.5555702335092735
    outer loop
      vertex 2.6900300085544533 12.5 0.9131421446800232
      vertex 2.7990381047129578 0 0.75
      vertex 2.7990381047129578 12.5 0.75
    endloop
  endfacet
  facet normal 0.8314696119753574 0 0.5555702335092735
    outer loop
      vertex 2.6900300085544533 12.5 0.9131421446800232
      vertex 2.6900300085544533 0 0.9131421446800232
      vertex 2.7990381047129578 0 0.75
    endloop
  endfacet
  facet normal 0.7518397942312052 0 0.6593458302062577
    outer loop
      vertex 2.5606601685285515 12.5 1.0606601685285568
      vertex 2.6900300085544533 0 0.9131421446800232
      vertex 2.6900300085544533 12.5 0.9131421446800232
    endloop
  endfacet
  facet normal 0.7518397942312052 0 0.6593458302062577
    outer loop
      vertex 2.5606601685285515 12.5 1.0606601685285568
      vertex 2.5606601685285515 0 1.0606601685285568
      vertex 2.6900300085544533 0 0.9131421446800232
    endloop
  endfacet
  facet normal 0.6593458302062577 0 0.7518397942312052
    outer loop
      vertex 2.413142144680018 12.5 1.1900300085544586
      vertex 2.5606601685285515 0 1.0606601685285568
      vertex 2.5606601685285515 12.5 1.0606601685285568
    endloop
  endfacet
  facet normal 0.6593458302062577 0 0.7518397942312052
    outer loop
      vertex 2.413142144680018 12.5 1.1900300085544586
      vertex 2.413142144680018 0 1.1900300085544586
      vertex 2.5606601685285515 0 1.0606601685285568
    endloop
  endfacet
  facet normal 0.5555702335092735 0 0.8314696119753574
    outer loop
      vertex 2.2499999999999947 12.5 1.299038104712963
      vertex 2.413142144680018 0 1.1900300085544586
      vertex 2.413142144680018 12.5 1.1900300085544586
    endloop
  endfacet
  facet normal 0.5555702335092735 0 0.8314696119753574
    outer loop
      vertex 2.2499999999999947 12.5 1.299038104712963
      vertex 2.2499999999999947 0 1.299038104712963
      vertex 2.413142144680018 0 1.1900300085544586
    endloop
  endfacet
  facet normal 0.4422886995523108 0 0.8968727369300094
    outer loop
      vertex 2.0740251466631836 12.5 1.3858193010091782
      vertex 2.2499999999999947 0 1.299038104712963
      vertex 2.2499999999999947 12.5 1.299038104712963
    endloop
  endfacet
  facet normal 0.4422886995523108 0 0.8968727369300094
    outer loop
      vertex 2.0740251466631836 12.5 1.3858193010091782
      vertex 2.0740251466631836 0 1.3858193010091782
      vertex 2.2499999999999947 0 1.299038104712963
    endloop
  endfacet
  facet normal 0.3214394637077385 0 0.9469301300366789
    outer loop
      vertex 1.8882285654544777 12.5 1.4488887414336205
      vertex 2.0740251466631836 0 1.3858193010091782
      vertex 2.0740251466631836 12.5 1.3858193010091782
    endloop
  endfacet
  facet normal 0.3214394637077385 0 0.9469301300366789
    outer loop
      vertex 1.8882285654544777 12.5 1.4488887414336205
      vertex 1.8882285654544777 0 1.4488887414336205
      vertex 2.0740251466631836 0 1.3858193010091782
    endloop
  endfacet
  facet normal 0.19509030759446713 0 0.9807852832718771
    outer loop
      vertex 1.6957892850041336 12.5 1.4871672913432121
      vertex 1.8882285654544777 0 1.4488887414336205
      vertex 1.8882285654544777 12.5 1.4488887414336205
    endloop
  endfacet
  facet normal 0.19509030759446713 0 0.9807852832718771
    outer loop
      vertex 1.6957892850041336 12.5 1.4871672913432121
      vertex 1.6957892850041336 0 1.4871672913432121
      vertex 1.8882285654544777 0 1.4488887414336205
    endloop
  endfacet
  facet normal 0.06540313397759875 0 0.9978589229274387
    outer loop
      vertex 1.4999999999999947 12.5 1.5
      vertex 1.6957892850041336 0 1.4871672913432121
      vertex 1.6957892850041336 12.5 1.4871672913432121
    endloop
  endfacet
  facet normal 0.06540313397759875 0 0.9978589229274387
    outer loop
      vertex 1.4999999999999947 12.5 1.5
      vertex 1.4999999999999947 0 1.5
      vertex 1.6957892850041336 0 1.4871672913432121
    endloop
  endfacet
  facet normal -0.06540313397759875 0 0.9978589229274387
    outer loop
      vertex 1.3042107149958557 12.5 1.4871672913432121
      vertex 1.4999999999999947 0 1.5
      vertex 1.4999999999999947 12.5 1.5
    endloop
  endfacet
  facet normal -0.06540313397759875 0 0.9978589229274387
    outer loop
      vertex 1.3042107149958557 12.5 1.4871672913432121
      vertex 1.3042107149958557 0 1.4871672913432121
      vertex 1.4999999999999947 0 1.5
    endloop
  endfacet
  facet normal -0.19509030759446713 0 0.9807852832718771
    outer loop
      vertex 1.1117714345455116 12.5 1.4488887414336205
      vertex 1.3042107149958557 0 1.4871672913432121
      vertex 1.3042107149958557 12.5 1.4871672913432121
    endloop
  endfacet
  facet normal -0.19509030759446713 0 0.9807852832718771
    outer loop
      vertex 1.1117714345455116 12.5 1.4488887414336205
      vertex 1.1117714345455116 0 1.4488887414336205
      vertex 1.3042107149958557 0 1.4871672913432121
    endloop
  endfacet
  facet normal -0.3214394637077385 0 0.9469301300366789
    outer loop
      vertex 0.9259748533368057 12.5 1.3858193010091782
      vertex 1.1117714345455116 0 1.4488887414336205
      vertex 1.1117714345455116 12.5 1.4488887414336205
    endloop
  endfacet
  facet normal -0.3214394637077385 0 0.9469301300366789
    outer loop
      vertex 0.9259748533368057 12.5 1.3858193010091782
      vertex 0.9259748533368057 0 1.3858193010091782
      vertex 1.1117714345455116 0 1.4488887414336205
    endloop
  endfacet
  facet normal -0.4422886995523108 0 0.8968727369300094
    outer loop
      vertex 0.7499999999999947 12.5 1.299038104712963
      vertex 0.9259748533368057 0 1.3858193010091782
      vertex 0.9259748533368057 12.5 1.3858193010091782
    endloop
  endfacet
  facet normal -0.4422886995523108 0 0.8968727369300094
    outer loop
      vertex 0.7499999999999947 12.5 1.299038104712963
      vertex 0.7499999999999947 0 1.299038104712963
      vertex 0.9259748533368057 0 1.3858193010091782
    endloop
  endfacet
  facet normal -0.5555702335092735 0 0.8314696119753574
    outer loop
      vertex 0.5868578553199715 12.5 1.1900300085544586
      vertex 0.7499999999999947 0 1.299038104712963
      vertex 0.7499999999999947 12.5 1.299038104712963
    endloop
  endfacet
  facet normal -0.5555702335092735 0 0.8314696119753574
    outer loop
      vertex 0.5868578553199715 12.5 1.1900300085544586
      vertex 0.5868578553199715 0 1.1900300085544586
      vertex 0.7499999999999947 0 1.299038104712963
    endloop
  endfacet
  facet normal -0.6593458302062577 0 0.7518397942312052
    outer loop
      vertex 0.43933983147143785 12.5 1.0606601685285568
      vertex 0.5868578553199715 0 1.1900300085544586
      vertex 0.5868578553199715 12.5 1.1900300085544586
    endloop
  endfacet
  facet normal -0.6593458302062577 0 0.7518397942312052
    outer loop
      vertex 0.43933983147143785 12.5 1.0606601685285568
      vertex 0.43933983147143785 0 1.0606601685285568
      vertex 0.5868578553199715 0 1.1900300085544586
    endloop
  endfacet
  facet normal -0.7518397942312052 0 0.6593458302062577
    outer loop
      vertex 0.30996999144553605 12.5 0.9131421446800232
      vertex 0.43933983147143785 0 1.0606601685285568
      vertex 0.43933983147143785 12.5 1.0606601685285568
    endloop
  endfacet
  facet normal -0.7518397942312052 0 0.6593458302062577
    outer loop
      vertex 0.30996999144553605 12.5 0.9131421446800232
      vertex 0.30996999144553605 0 0.9131421446800232
      vertex 0.43933983147143785 0 1.0606601685285568
    endloop
  endfacet
  facet normal -0.8314696119753574 0 0.5555702335092735
    outer loop
      vertex 0.20096189528703157 12.5 0.75
      vertex 0.30996999144553605 0 0.9131421446800232
      vertex 0.30996999144553605 12.5 0.9131421446800232
    endloop
  endfacet
  facet normal -0.8314696119753574 0 0.5555702335092735
    outer loop
      vertex 0.20096189528703157 12.5 0.75
      vertex 0.20096189528703157 0 0.75
      vertex 0.30996999144553605 0 0.9131421446800232
    endloop
  endfacet
  facet normal -0.8968727369300094 0 0.4422886995523108
    outer loop
      vertex 0.11418069899081651 12.5 0.5740251466631889
      vertex 0.20096189528703157 0 0.75
      vertex 0.20096189528703157 12.5 0.75
    endloop
  endfacet
  facet normal -0.8968727369300094 0 0.4422886995523108
    outer loop
      vertex 0.11418069899081651 12.5 0.5740251466631889
      vertex 0.11418069899081651 0 0.5740251466631889
      vertex 0.20096189528703157 0 0.75
    endloop
  endfacet
  facet normal -0.9469301300366789 0 0.3214394637077385
    outer loop
      vertex 0.05111125856637422 12.5 0.38822856545448303
      vertex 0.11418069899081651 0 0.5740251466631889
      vertex 0.11418069899081651 12.5 0.5740251466631889
    endloop
  endfacet
  facet normal -0.9469301300366789 0 0.3214394637077385
    outer loop
      vertex 0.05111125856637422 12.5 0.38822856545448303
      vertex 0.05111125856637422 0 0.38822856545448303
      vertex 0.11418069899081651 0 0.5740251466631889
    endloop
  endfacet
  facet normal -0.9807852832718771 0 0.19509030759446713
    outer loop
      vertex 0.012832708656782543 12.5 0.19578928500413895
      vertex 0.05111125856637422 0 0.38822856545448303
      vertex 0.05111125856637422 12.5 0.38822856545448303
    endloop
  endfacet
  facet normal -0.9807852832718771 0 0.19509030759446713
    outer loop
      vertex 0.012832708656782543 12.5 0.19578928500413895
      vertex 0.012832708656782543 0 0.19578928500413895
      vertex 0.05111125856637422 0 0.38822856545448303
    endloop
  endfacet
  facet normal -0.9978589229274387 0 0.06540313397759875
    outer loop
      vertex -5.329070518200751e-15 12.5 0
      vertex 0.012832708656782543 0 0.19578928500413895
      vertex 0.012832708656782543 12.5 0.19578928500413895
    endloop
  endfacet
  facet normal -0.9978589229274387 0 0.06540313397759875
    outer loop
      vertex -5.329070518200751e-15 12.5 0
      vertex -5.329070518200751e-15 0 0
      vertex 0.012832708656782543 0 0.19578928500413895
    endloop
  endfacet
  facet normal 0 0 -1
    outer loop
      vertex 2.9999999999999947 12.5 0
      vertex -5.329070518200751e-15 0 0
      vertex -5.329070518200751e-15 12.5 0
    endloop
  endfacet
  facet normal 0 0 -1
    outer loop
      vertex 2.9999999999999947 12.5 0
      vertex 2.9999999999999947 0 0
      vertex -5.329070518200751e-15 0 0
    endloop
  endfacet
  facet normal 0.9978589229274387 0 0.06540313397759875
    outer loop
      vertex 2.987167291343207 12.5 0.19578928500413895
      vertex 2.9999999999999947 0 0
      vertex 2.9999999999999947 12.5 0
    endloop
  endfacet
  facet normal 0.9978589229274387 0 0.06540313397759875
    outer loop
      vertex 2.987167291343207 12.5 0.19578928500413895
      vertex 2.987167291343207 0 0.19578928500413895
      vertex 2.9999999999999947 0 0
    endloop
  endfacet
  facet normal 0 -1 0
    outer loop
      vertex 2.987167291343207 0 0.19578928500413895
      vertex 2.948888741433615 0 0.38822856545448303
      vertex 2.9999999999999947 0 0
    endloop
  endfacet
  facet normal 0 -1 0
    outer loop
      vertex 2.948888741433615 0 0.38822856545448303
      vertex -5.329070518200751e-15 0 0
      vertex 2.9999999999999947 0 0
    endloop
  endfacet
  facet normal 0 -1 0
    outer loop
      vertex 2.948888741433615 0 0.38822856545448303
      vertex 2.885819301009173 0 0.5740251466631889
      vertex -5.329070518200751e-15 0 0
    endloop
  endfacet
  facet normal 0 -1 0
    outer loop
      vertex 2.885819301009173 0 0.5740251466631889
      vertex 0.012832708656782543 0 0.19578928500413895
      vertex -5.329070518200751e-15 0 0
    endloop
  endfacet
  facet normal 0 -1 0
    outer loop
      vertex 2.885819301009173 0 0.5740251466631889
      vertex 2.7990381047129578 0 0.75
      vertex 0.012832708656782543 0 0.19578928500413895
    endloop
  endfacet
  facet normal 0 -1 0
    outer loop
      vertex 2.7990381047129578 0 0.75
      vertex 0.05111125856637422 0 0.38822856545448303
      vertex 0.012832708656782543 0 0.19578928500413895
    endloop
  endfacet
  facet normal 0 -1 0
    outer loop
      vertex 2.7990381047129578 0 0.75
      vertex 2.6900300085544533 0 0.9131421446800232
      vertex 0.05111125856637422 0 0.38822856545448303
    endloop
  endfacet
  facet normal 0 -1 0
    outer loop
      vertex 2.6900300085544533 0 0.9131421446800232
      vertex 0.11418069899081651 0 0.5740251466631889
      vertex 0.05111125856637422 0 0.38822856545448303
    endloop
  endfacet
  facet normal 0 -1 0
    outer loop
      vertex 2.6900300085544533 0 0.9131421446800232
      vertex 2.5606601685285515 0 1.0606601685285568
      vertex 0.11418069899081651 0 0.5740251466631889
    endloop
  endfacet
  facet normal 0 -1 0
    outer loop
      vertex 2.5606601685285515 0 1.0606601685285568
      vertex 0.20096189528703157 0 0.75
      vertex 0.11418069899081651 0 0.5740251466631889
    endloop
  endfacet
  facet normal 0 -1 0
    outer loop
      vertex 2.5606601685285515 0 1.0606601685285568
      vertex 2.413142144680018 0 1.1900300085544586
      vertex 0.20096189528703157 0 0.75
    endloop
  endfacet
  facet normal 0 -1 0
    outer loop
      vertex 2.413142144680018 0 1.1900300085544586
      vertex 0.30996999144553605 0 0.9131421446800232
      vertex 0.20096189528703157 0 0.75
    endloop
  endfacet
  facet normal 0 -1 0
    outer loop
      vertex 2.413142144680018 0 1.1900300085544586
      vertex 2.2499999999999947 0 1.299038104712963
      vertex 0.30996999144553605 0 0.9131421446800232
    endloop
  endfacet
  facet normal 0 -1 0
    outer loop
      vertex 2.2499999999999947 0 1.299038104712963
      vertex 0.43933983147143785 0 1.0606601685285568
      vertex 0.30996999144553605 0 0.9131421446800232
    endloop
  endfacet
  facet normal 0 -1 0
    outer loop
      vertex 2.2499999999999947 0 1.299038104712963
      vertex 2.0740251466631836 0 1.3858193010091782
      vertex 0.43933983147143785 0 1.0606601685285568
    endloop
  endfacet
  facet normal 0 -1 0
    outer loop
      vertex 2.0740251466631836 0 1.3858193010091782
      vertex 0.5868578553199715 0 1.1900300085544586
      vertex 0.43933983147143785 0 1.0606601685285568
    endloop
  endfacet
  facet normal 0 -1 0
    outer loop
      vertex 2.0740251466631836 0 1.3858193010091782
      vertex 1.8882285654544777 0 1.4488887414336205
      vertex 0.5868578553199715 0 1.1900300085544586
    endloop
  endfacet
  facet normal 0 -1 0
    outer loop
      vertex 1.8882285654544777 0 1.4488887414336205
      vertex 0.7499999999999947 0 1.299038104712963
      vertex 0.5868578553199715 0 1.1900300085544586
    endloop
  endfacet
  facet normal 0 -1 0
    outer loop
      vertex 1.8882285654544777 0 1.4488887414336205
      vertex 1.6957892850041336 0 1.4871672913432121
      vertex 0.7499999999999947 0 1.299038104712963
    endloop
  endfacet
  facet normal 0 -1 0
    outer loop
      vertex 1.6957892850041336 0 1.4871672913432121
      vertex 0.9259748533368057 0 1.3858193010091782
      vertex 0.7499999999999947 0 1.299038104712963
    endloop
  endfacet
  facet normal 0 -1 0
    outer loop
      vertex 1.6957892850041336 0 1.4871672913432121
      vertex 1.4999999999999947 0 1.5
      vertex 0.9259748533368057 0 1.3858193010091782
    endloop
  endfacet
  facet normal 0 -1 0
    outer loop
      vertex 1.4999999999999947 0 1.5
      vertex 1.1117714345455116 0 1.4488887414336205
      vertex 0.9259748533368057 0 1.3858193010091782
    endloop
  endfacet
  facet normal 0 -1 0
    outer loop
      vertex 1.4999999999999947 0 1.5
      vertex 1.3042107149958557 0 1.4871672913432121
      vertex 1.1117714345455116 0 1.4488887414336205
    endloop
  endfacet
  facet normal 0 1 0
    outer loop
      vertex 2.9999999999999947 12.5 0
      vertex 2.948888741433615 12.5 0.38822856545448303
      vertex 2.987167291343207 12.5 0.19578928500413895
    endloop
  endfacet
  facet normal 0 1 0
    outer loop
      vertex 2.9999999999999947 12.5 0
      vertex -5.329070518200751e-15 12.5 0
      vertex 2.948888741433615 12.5 0.38822856545448303
    endloop
  endfacet
  facet normal 0 1 0
    outer loop
      vertex -5.329070518200751e-15 12.5 0
      vertex 2.885819301009173 12.5 0.5740251466631889
      vertex 2.948888741433615 12.5 0.38822856545448303
    endloop
  endfacet
  facet normal 0 1 0
    outer loop
      vertex -5.329070518200751e-15 12.5 0
      vertex 0.012832708656782543 12.5 0.19578928500413895
      vertex 2.885819301009173 12.5 0.5740251466631889
    endloop
  endfacet
  facet normal 0 1 0
    outer loop
      vertex 0.012832708656782543 12.5 0.19578928500413895
      vertex 2.7990381047129578 12.5 0.75
      vertex 2.885819301009173 12.5 0.5740251466631889
    endloop
  endfacet
  facet normal 0 1 0
    outer loop
      vertex 0.012832708656782543 12.5 0.19578928500413895
      vertex 0.05111125856637422 12.5 0.38822856545448303
      vertex 2.7990381047129578 12.5 0.75
    endloop
  endfacet
  facet normal 0 1 0
    outer loop
      vertex 0.05111125856637422 12.5 0.38822856545448303
      vertex 2.6900300085544533 12.5 0.9131421446800232
      vertex 2.7990381047129578 12.5 0.75
    endloop
  endfacet
  facet normal 0 1 0
    outer loop
      vertex 0.05111125856637422 12.5 0.38822856545448303
      vertex 0.11418069899081651 12.5 0.5740251466631889
      vertex 2.6900300085544533 12.5 0.9131421446800232
    endloop
  endfacet
  facet normal 0 1 0
    outer loop
      vertex 0.11418069899081651 12.5 0.5740251466631889
      vertex 2.5606601685285515 12.5 1.0606601685285568
      vertex 2.6900300085544533 12.5 0.9131421446800232
    endloop
  endfacet
  facet normal 0 1 0
    outer loop
      vertex 0.11418069899081651 12.5 0.5740251466631889
      vertex 0.20096189528703157 12.5 0.75
      vertex 2.5606601685285515 12.5 1.0606601685285568
    endloop
  endfacet
  facet normal 0 1 0
    outer loop
      vertex 0.20096189528703157 12.5 0.75
      vertex 2.413142144680018 12.5 1.1900300085544586
      vertex 2.5606601685285515 12.5 1.0606601685285568
    endloop
  endfacet
  facet normal 0 1 0
    outer loop
      vertex 0.20096189528703157 12.5 0.75
      vertex 0.30996999144553605 12.5 0.9131421446800232
      vertex 2.413142144680018 12.5 1.1900300085544586
    endloop
  endfacet
  facet normal 0 1 0
    outer loop
      vertex 0.30996999144553605 12.5 0.9131421446800232
      vertex 2.2499999999999947 12.5 1.299038104712963
      vertex 2.413142144680018 12.5 1.1900300085544586
    endloop
  endfacet
  facet normal 0 1 0
    outer loop
      vertex 0.30996999144553605 12.5 0.9131421446800232
      vertex 0.43933983147143785 12.5 1.0606601685285568
      vertex 2.2499999999999947 12.5 1.299038104712963
    endloop
  endfacet
  facet normal 0 1 0
    outer loop
      vertex 0.43933983147143785 12.5 1.0606601685285568
      vertex 2.0740251466631836 12.5 1.3858193010091782
      vertex 2.2499999999999947 12.5 1.299038104712963
    endloop
  endfacet
  facet normal 0 1 0
    outer loop
      vertex 0.43933983147143785 12.5 1.0606601685285568
      vertex 0.5868578553199715 12.5 1.1900300085544586
      vertex 2.0740251466631836 12.5 1.3858193010091782
    endloop
  endfacet
  facet normal 0 1 0
    outer loop
      vertex 0.5868578553199715 12.5 1.1900300085544586
      vertex 1.8882285654544777 12.5 1.4488887414336205
      vertex 2.0740251466631836 12.5 1.3858193010091782
    endloop
  endfacet
  facet normal 0 1 0
    outer loop
      vertex 0.5868578553199715 12.5 1.1900300085544586
      vertex 0.7499999999999947 12.5 1.299038104712963
      vertex 1.8882285654544777 12.5 1.4488887414336205
    endloop
  endfacet
  facet normal 0 1 0
    outer loop
      vertex 0.7499999999999947 12.5 1.299038104712963
      vertex 1.6957892850041336 12.5 1.4871672913432121
      vertex 1.8882285654544777 12.5 1.4488887414336205
    endloop
  endfacet
  facet normal 0 1 0
    outer loop
      vertex 0.7499999999999947 12.5 1.299038104712963
      vertex 0.9259748533368057 12.5 1.3858193010091782
      vertex 1.6957892850041336 12.5 1.4871672913432121
    endloop
  endfacet
  facet normal 0 1 0
    outer loop
      vertex 0.9259748533368057 12.5 1.3858193010091782
      vertex 1.4999999999999947 12.5 1.5
      vertex 1.6957892850041336 12.5 1.4871672913432121
    endloop
  endfacet
  facet normal 0 1 0
    outer loop
      vertex 0.9259748533368057 12.5 1.3858193010091782
      vertex 1.1117714345455116 12.5 1.4488887414336205
      vertex 1.4999999999999947 12.5 1.5
    endloop
  endfacet
  facet normal 0 1 0
    outer loop
      vertex 1.1117714345455116 12.5 1.4488887414336205
      vertex 1.3042107149958557 12.5 1.4871672913432121
      vertex 1.4999999999999947 12.5 1.5
    endloop
  endfacet
endsolid OpenSCAD_Model
